<svg width="27" height="16" viewBox="0 0 27 16" fill="none" xmlns="http://www.w3.org/2000/svg">
<path d="M21.7461 5.73828C21.3359 5.73828 20.9258 5.82031 20.5156 5.90234H20.3516L18.875 1.96484H21.8281C22.3203 1.96484 22.7305 2.375 22.7305 2.86719C22.7305 3.35938 22.3203 3.76953 21.8281 3.76953C21.582 3.76953 21.3359 4.01563 21.3359 4.26172C21.3359 4.50781 21.582 4.75391 21.8281 4.75391C22.8125 4.75391 23.7148 3.93359 23.7148 2.86719C23.7148 1.80078 22.8945 0.980469 21.8281 0.980469H18.1367L18.0547 0.816406V0.980469C18.0547 0.980469 18.0547 0.980469 17.9727 0.980469L17.8906 1.0625L17.7266 1.22656V1.39062C17.7266 1.39062 17.7266 1.39062 17.7266 1.47266L17.4805 1.63672L17.7266 1.55469L18.4648 3.52344L10.7539 3.6875L10.0156 1.22656H11.5742C11.8203 1.22656 12.0664 0.980469 12.0664 0.734375C12.0664 0.488281 11.8203 0.242188 11.5742 0.242188H7.88281C7.63672 0.242188 7.39062 0.488281 7.39062 0.734375C7.39062 0.980469 7.63672 1.22656 7.88281 1.22656H8.94922L9.85156 4.01562L8.12891 6.3125H7.96484C7.22656 5.90234 6.40625 5.65625 5.50391 5.65625C2.79687 5.65625 0.5 7.87109 0.5 10.6602C0.5 13.4492 2.79687 15.6641 5.50391 15.6641C8.04687 15.6641 10.1797 13.7773 10.5078 11.2344V11.0703H10.918V11.1523C11 11.3984 11.1641 11.5625 11.3281 11.7266L11.4102 11.8086L11.1641 12.7109C11.1641 12.875 11.1641 12.957 11.1641 13.1211C11.2461 13.2031 11.3281 13.2852 11.4922 13.3672C11.5742 13.3672 11.7383 13.3672 11.8203 13.2852C11.9023 13.2031 12.0664 13.1211 12.0664 12.957L12.3125 12.0547H12.3945C13.0508 11.9727 13.625 11.3164 13.625 10.6602C13.625 10.4961 13.625 10.332 13.543 10.168V10.0859L18.793 4.67188L19.3672 6.14844V6.3125C17.7266 7.21484 16.7422 8.85547 16.7422 10.7422C16.7422 13.5313 19.0391 15.8281 21.7461 15.8281C24.5352 15.8281 26.75 13.5313 26.75 10.7422C26.75 7.95313 24.5352 5.73828 21.7461 5.73828ZM19.8594 7.21484L21.3359 10.9883C21.418 11.0703 21.5 11.2344 21.582 11.2344C21.7461 11.3164 21.8281 11.3164 21.9102 11.2344C22.0742 11.1523 22.1562 11.0703 22.1562 10.9883C22.2383 10.9063 22.2383 10.7422 22.1562 10.5781L20.7617 6.80469H20.9258C21.1719 6.72266 21.418 6.72266 21.7461 6.72266C23.9609 6.72266 25.7656 8.52734 25.7656 10.7422C25.7656 11.8086 25.3555 12.875 24.6172 13.6133C23.8789 14.3516 22.8125 14.7617 21.7461 14.7617C19.5312 14.7617 17.7266 12.957 17.7266 10.7422C17.7266 9.26563 18.4648 8.03516 19.6953 7.29688L19.8594 7.21484ZM8.45703 7.87109C9.03125 8.44531 9.44141 9.18359 9.52344 10.0039V10.168H6.48828L8.29297 7.70703L8.45703 7.87109ZM10.1797 5.16406L11.5742 9.59375L11.4922 9.67578C11.3281 9.83984 11.1641 9.92188 11.082 10.168L11 10.25H10.5078V10.0859C10.3437 8.9375 9.85156 7.87109 8.94922 7.05078L8.86719 6.96875L10.1797 5.16406ZM5.09375 10.9062C5.17578 11.0703 5.33984 11.1523 5.50391 11.1523H9.52344V11.3164C9.19531 13.2852 7.47266 14.6797 5.50391 14.6797C3.28906 14.6797 1.48438 12.875 1.48438 10.6602C1.48438 8.44531 3.28906 6.64063 5.50391 6.64063C6.16016 6.64063 6.73438 6.80469 7.30859 7.05078L7.47266 7.13281L5.09375 10.4141C5.01172 10.5781 5.01172 10.7422 5.09375 10.9062ZM12.6406 8.28125C12.6406 8.36328 12.5586 8.36328 12.5586 8.44531L12.3945 8.85547L11.082 4.67188L17.8086 4.50781L13.543 8.9375V8.52734C13.543 8.28125 13.3789 8.11719 13.2148 8.03516C13.1328 8.03516 13.1328 8.03516 13.0508 8.03516C12.8867 8.11719 12.7227 8.19922 12.6406 8.28125ZM12.3125 10.332C12.5586 10.332 12.7227 10.4961 12.7227 10.7422C12.7227 10.8242 12.6406 10.9883 12.5586 11.0703C12.4766 11.1523 12.3945 11.2344 12.2305 11.2344C11.9844 11.2344 11.8203 11.0703 11.8203 10.8242C11.9023 10.4961 12.1484 10.332 12.3125 10.332Z" fill="#F85454"/>
</svg>
