<svg width="32" height="32" viewBox="0 0 32 32" fill="none" xmlns="http://www.w3.org/2000/svg">
<path fill-rule="evenodd" clip-rule="evenodd" d="M13.2855 21.5618L12.8178 30.4485L10.9537 30.3504L11.4347 21.2111C11.4795 20.3613 12.1815 19.6952 13.0325 19.6952H17.6026L17.2076 9.02976L13.025 13.534C12.6743 13.9118 12.0837 13.9337 11.706 13.5829C11.3283 13.2322 11.3064 12.6416 11.6571 12.2639L17.3729 6.10841C17.7237 5.73068 18.3142 5.70881 18.692 6.05956L24.8474 11.7753C25.2252 12.1261 25.247 12.7166 24.8963 13.0944C24.5455 13.4721 23.955 13.494 23.5772 13.1432L19.073 8.96068L19.4782 19.9026C19.5118 20.8089 18.7862 21.5618 17.8793 21.5618H13.2855Z" fill="#F85454"/>
<path fill-rule="evenodd" clip-rule="evenodd" d="M25.9938 25.9938C31.5132 20.4744 31.5132 11.5256 25.9938 6.00622C20.4744 0.486814 11.5256 0.486814 6.00622 6.00622C0.486814 11.5256 0.486814 20.4744 6.00622 25.9938C11.5256 31.5132 20.4744 31.5132 25.9938 25.9938ZM27.3137 27.3137C33.5621 21.0653 33.5621 10.9347 27.3137 4.68629C21.0653 -1.5621 10.9347 -1.5621 4.68629 4.68629C-1.5621 10.9347 -1.5621 21.0653 4.68629 27.3137C10.9347 33.5621 21.0653 33.5621 27.3137 27.3137Z" fill="#F85454"/>
</svg>
