<svg width="27" height="23" viewBox="0 0 27 23" fill="none" xmlns="http://www.w3.org/2000/svg">
<path fill-rule="evenodd" clip-rule="evenodd" d="M2.55998 8.2978C2.12453 8.2978 1.7507 8.67163 1.7507 9.10708V20.44C1.7507 20.8755 2.12453 21.2493 2.55998 21.2493H5.46979C5.73659 21.2493 5.93441 21.1616 6.05799 21.0457C6.17277 20.9381 6.27906 20.7554 6.27906 20.44V9.10708C6.27906 8.67163 5.90523 8.2978 5.46979 8.2978H2.55998ZM0 9.10708C0 7.70475 1.15765 6.5471 2.55998 6.5471H5.46979C6.87212 6.5471 8.02976 7.70475 8.02976 9.10708V20.44C8.02976 21.1966 7.75318 21.8562 7.25537 22.3229C6.76636 22.7814 6.12187 23 5.46979 23H2.55998C1.15765 23 0 21.8423 0 20.44V9.10708Z" fill="#F85454"/>
<path fill-rule="evenodd" clip-rule="evenodd" d="M13.3635 2.44105L7.85518 9.78544C7.56512 10.1722 7.01645 10.2506 6.62969 9.96052C6.24294 9.67045 6.16456 9.12178 6.45462 8.73502L11.9772 1.37164C13.3888 -0.443281 16.0309 -0.457081 17.4613 1.33008C18.1109 2.00558 18.2912 2.86076 18.2912 3.59377V7.77229H22.1634C23.3447 7.77229 24.5717 8.35657 25.2112 9.42246L25.6495 10.1529C26.2531 10.9866 26.4523 12.184 26.0549 13.2206L23.9264 20.3662C23.5091 21.9967 22.07 23 20.4788 23H10.8304C9.85434 23 8.80484 22.6118 8.14573 21.7396L6.46609 19.6026C6.16735 19.2225 6.23329 18.6722 6.61337 18.3735C6.99346 18.0747 7.54377 18.1407 7.84252 18.5208L9.53999 20.6804C9.80018 21.0273 10.2783 21.2493 10.8304 21.2493H20.4788C21.3314 21.2493 22.0311 20.7294 22.2331 19.9214C22.2362 19.9088 22.2396 19.8963 22.2433 19.8838L24.3874 12.6859C24.395 12.6604 24.4037 12.6353 24.4136 12.6107C24.6013 12.1414 24.5043 11.5432 24.2198 11.1638C24.2017 11.1397 24.1849 11.1147 24.1694 11.0889L23.71 10.3232C23.4306 9.8576 22.8199 9.52299 22.1634 9.52299H17.4158C16.9324 9.52299 16.5405 9.13109 16.5405 8.64764V3.59377C16.5405 3.11611 16.4216 2.76549 16.1842 2.52811C16.1586 2.50244 16.1345 2.4752 16.1123 2.44655C15.3921 1.52065 14.086 1.51881 13.3635 2.44105Z" fill="#F85454"/>
</svg>
