<svg width="16" height="16" viewBox="0 0 16 16" fill="none" xmlns="http://www.w3.org/2000/svg">
<path d="M11.5828 9.81595C13.7423 9.22699 16 6.47853 16 2.35583C16 2.15951 15.8037 1.96319 15.6074 1.96319H13.3497V1.07975C13.2515 0.490798 12.7607 0 12.1718 0H3.73006C3.1411 0 2.65031 0.490798 2.65031 1.07975V1.96319H0.392638C0.196319 1.96319 0 2.15951 0 2.35583C0 6.47853 2.25767 9.22699 4.41718 9.81595C5.10429 10.5031 5.88957 10.9939 6.57669 11.3865V13.0552H6.28221C5.30061 13.0552 4.51534 13.8405 4.51534 14.8221V15.5092C4.51534 15.7055 4.71166 15.9018 4.90798 15.9018H10.7975C10.9939 15.9018 11.1902 15.7055 11.1902 15.5092V14.8221C11.1902 13.8405 10.4049 13.0552 9.42331 13.0552H9.32515V11.3865C10.0123 11.092 10.7975 10.5031 11.5828 9.81595ZM7.36196 13.0552V11.7791C7.55828 11.8773 7.7546 11.9755 7.7546 11.9755H7.85276H7.95092C7.95092 11.9755 8.14724 11.8773 8.34356 11.7791V13.0552H7.36196ZM3.43558 5.98773V2.55215C3.43558 2.55215 3.43558 2.45399 3.43558 2.35583V2.25767V1.07975C3.43558 0.981595 3.53374 0.883436 3.6319 0.883436H12.1718C12.2699 0.883436 12.3681 0.981595 12.3681 1.07975V5.98773C12.3681 9.22699 8.7362 10.7975 7.85276 11.092C7.16564 10.7975 3.53374 9.22699 3.43558 5.98773ZM3.1411 8.14724C1.96319 7.06749 0.981595 5.20245 0.883436 2.84663H2.65031V5.98773C2.65031 6.77301 2.84663 7.55828 3.1411 8.14724ZM13.2515 5.98773V2.84663H15.0184C14.9202 5.30061 13.8405 7.2638 12.6626 8.2454C13.0552 7.55828 13.2515 6.87117 13.2515 5.98773ZM10.5031 15.0184H5.39877V14.8221C5.39877 14.3313 5.79141 13.9387 6.28221 13.9387H6.96933H8.93252H9.61963C10.1104 13.9387 10.5031 14.3313 10.5031 14.8221V15.0184Z" fill="#0C353E"/>
</svg>
