<svg width="134" height="24" viewBox="0 0 134 24" fill="none" xmlns="http://www.w3.org/2000/svg">
<path d="M17 16.9967H31.5H39.4516H46H53.9516H60.0323H69.1532H60.7559V16.9967C66.0784 16.9967 74.3849 16.9967 74.3849 16.9967C74.3849 16.9967 74.3849 16.9967 74.3849 16.9967H76.2811C78.4333 16.9967 80.344 15.6196 81.0246 13.5779L81.1349 13.2467L82.3849 10.4967L82.5803 9.94956C83.2128 8.17876 84.9075 6.99671 86.7878 6.99671V6.99671C86.8484 6.99671 86.9058 7.02599 86.9411 7.07532L89.8505 11.1485C90.6308 12.2409 92.337 11.8869 92.6183 10.5742V10.5742C92.9046 9.23835 94.6566 8.90421 95.4144 10.041L95.7594 10.5584C96.5055 11.6776 98.1691 11.6188 98.8343 10.4498L99.5946 9.1139C100.529 7.47191 102.801 7.23582 104.053 8.65062L104.782 9.47396C105.876 10.7103 107.858 10.5175 108.694 9.09355V9.09355C109.402 7.8866 110.981 7.52657 112.142 8.3073L115.146 10.3269C117.402 11.8432 120.405 11.6007 122.388 9.74225L122.572 9.5705C123.501 8.69951 124.678 8.13869 125.94 7.96553L133 6.99671" stroke="#2DDC1E" stroke-width="2" stroke-linecap="round"/>
<rect x="71" width="1" height="24" fill="#C4C4C4"/>
<path d="M1 17H50" stroke="#0C353E" stroke-width="2" stroke-linecap="round"/>
</svg>
