<svg width="24" height="18" viewBox="0 0 24 18" fill="none" xmlns="http://www.w3.org/2000/svg">
<path d="M8.31384 15.2962C8.31384 15.0658 8.16021 14.9121 7.92976 14.9121H1.24676C1.01631 14.9121 0.862681 15.0658 0.862681 15.2962C0.862681 15.5267 1.01631 15.6803 1.24676 15.6803H7.92976C8.16021 15.6803 8.31384 15.4882 8.31384 15.2962Z" fill="#F85454"/>
<path fill-rule="evenodd" clip-rule="evenodd" d="M8.27557 14.9504C8.36305 15.0379 8.40908 15.1593 8.40908 15.2962C8.40908 15.5345 8.21889 15.7755 7.92976 15.7755H1.24676C1.10989 15.7755 0.988438 15.7295 0.900959 15.642C0.81348 15.5545 0.767442 15.4331 0.767442 15.2962C0.767442 15.1593 0.81348 15.0379 0.900959 14.9504C0.988438 14.8629 1.10989 14.8169 1.24676 14.8169H7.92976C8.06663 14.8169 8.18809 14.8629 8.27557 14.9504ZM7.92976 14.9121C8.16021 14.9121 8.31384 15.0658 8.31384 15.2962C8.31384 15.4882 8.16021 15.6803 7.92976 15.6803H1.24676C1.01631 15.6803 0.862681 15.5267 0.862681 15.2962C0.862681 15.0658 1.01631 14.9121 1.24676 14.9121H7.92976Z" fill="#F85454"/>
<path d="M4.58898 13.3727C4.58898 13.1423 4.43535 12.9886 4.2049 12.9886H0.47932C0.248871 12.9886 0.0952389 13.1423 0.0952389 13.3727C0.0952389 13.6032 0.248871 13.7568 0.47932 13.7568H4.2049C4.43535 13.7568 4.58898 13.5648 4.58898 13.3727Z" fill="#F85454"/>
<path fill-rule="evenodd" clip-rule="evenodd" d="M4.5507 13.0269C4.63818 13.1144 4.68422 13.2358 4.68422 13.3727C4.68422 13.6111 4.49403 13.852 4.2049 13.852H0.47932C0.342452 13.852 0.220996 13.806 0.133517 13.7185C0.046038 13.631 0 13.5096 0 13.3727C0 13.2358 0.046038 13.1144 0.133517 13.0269C0.220996 12.9394 0.342452 12.8934 0.47932 12.8934H4.2049C4.34177 12.8934 4.46323 12.9394 4.5507 13.0269ZM4.2049 12.9886C4.43535 12.9886 4.58898 13.1423 4.58898 13.3727C4.58898 13.5648 4.43535 13.7568 4.2049 13.7568H0.47932C0.248871 13.7568 0.0952389 13.6032 0.0952389 13.3727C0.0952389 13.1423 0.248871 12.9886 0.47932 12.9886H4.2049Z" fill="#F85454"/>
<path d="M23.678 14.0259C23.5628 13.7955 23.3323 13.6034 23.1019 13.4882L20.1829 12.3744L18.9922 11.9519C18.6465 11.7983 18.3393 11.5678 18.1472 11.2605L17.1486 9.60899C17.3407 9.57058 17.4559 9.41695 17.4559 9.22491C17.4559 8.99446 17.3023 8.84083 17.0718 8.84083H16.6877L16.2268 8.07267C16.4189 8.03426 16.5341 7.88063 16.5341 7.68859C16.5341 7.45814 16.3805 7.30451 16.15 7.30451H15.7659L15.3819 6.68998C15.5355 6.65157 15.6507 6.49794 15.6507 6.34431C15.6507 6.11386 15.4971 5.96023 15.2666 5.96023H14.921L14.4216 5.15366C14.4216 5.15366 14.4216 5.11525 14.3832 5.11525C13.9223 4.57753 13.3078 4.30868 12.6549 4.38549C12.0788 4.46231 11.6179 4.80798 11.4258 5.23047C11.3874 5.3457 11.3874 5.46092 11.4642 5.57614L14.6521 11.0301C14.6905 11.1069 14.7673 11.1837 14.8441 11.1837L18.7618 12.6816H18.8002L19.9524 13.1041L22.833 14.218C22.9098 14.2564 22.9867 14.2948 23.0251 14.41C23.1787 14.7173 23.1787 15.0245 22.9867 15.3318H16.7261C16.3421 15.3318 15.958 15.2166 15.6507 14.9861L4.93485 7.03565C4.93485 7.03565 5.08849 6.95884 5.28053 6.68998C5.47257 6.42112 5.54938 6.07545 5.54938 5.72978L5.20371 2.5035L5.66461 1.77375C5.77983 1.62011 6.01028 1.58171 6.16391 1.69693C6.27914 1.81215 6.74003 2.19623 7.85387 4.00141C8.42999 4.84639 9.35178 5.46092 10.3888 5.61455C10.5808 5.65296 10.8113 5.49933 10.8497 5.30729C10.8881 5.11525 10.7345 4.8848 10.5424 4.84639C9.73586 4.69276 8.9677 4.23186 8.50681 3.54052C7.16252 1.46648 6.77844 1.15922 6.62481 1.04399C6.1255 0.69832 5.43416 0.813544 5.05008 1.31285L2.70719 5.03843C2.55355 5.26888 2.51515 5.53774 2.55355 5.80659C2.32311 5.88341 2.09266 5.99863 1.97743 6.22908L1.3629 7.18928C1.01723 7.68859 1.17086 8.37993 1.67017 8.72561C2.01584 8.99446 2.74559 9.45536 3.82102 10.1467C3.89784 10.1851 3.97465 10.2235 4.01306 10.2235C4.12828 10.2235 4.24351 10.1467 4.32033 10.0315C4.43555 9.83944 4.39714 9.60899 4.2051 9.49377C3.16808 8.80242 2.43833 8.34153 2.09266 8.07267C1.93903 7.95745 1.90062 7.76541 2.01584 7.57336L2.59196 6.68998C2.70719 6.53635 2.93764 6.49794 3.09127 6.61316L15.1514 15.6006C15.6123 15.9463 16.15 16.1 16.6877 16.1H21.988C21.1815 16.484 20.0676 16.8297 19.1074 16.8297H16.6493C15.9964 16.8297 15.3434 16.6377 14.8057 16.292C12.5781 14.8709 7.23934 11.4526 4.2051 9.49377C4.01306 9.37854 3.78531 9.21518 3.54722 9.48562C3.30912 9.75605 3.62898 10.0315 3.82102 10.1467C6.77844 12.0671 11.9635 15.4086 14.2296 16.8681H0.480326C0.249877 16.8681 0.0962453 17.0217 0.0962453 17.2522C0.0962453 17.4826 0.249877 17.6363 0.480326 17.6363H19.069C20.6438 17.6363 22.9098 16.7913 23.486 15.9847C23.9853 15.2934 24.0237 14.6404 23.678 14.0259ZM15.1898 10.5692L12.194 5.46092C12.3092 5.3457 12.5012 5.23047 12.7317 5.19206C12.9621 5.15366 13.3846 5.19206 13.7687 5.61455L13.9992 5.99863H13.6535C13.423 5.99863 13.2694 6.15227 13.2694 6.38271C13.2694 6.61316 13.423 6.7668 13.6535 6.7668H14.4601L14.8441 7.38132H14.5369C14.3064 7.38132 14.1528 7.53496 14.1528 7.76541C14.1528 7.99585 14.3064 8.14949 14.5369 8.14949H15.305L15.7659 8.87924H15.4587C15.2282 8.87924 15.0746 9.03287 15.0746 9.26332C15.0746 9.49377 15.2282 9.6474 15.4587 9.6474H16.2268L17.3023 11.3374L15.1898 10.5692ZM3.36012 5.46092L4.55077 3.57892L4.78122 5.80659C4.78122 5.96023 4.74281 6.11386 4.666 6.22908C4.58918 6.34431 4.43555 6.65157 4.08988 6.38271C4.08988 6.38271 3.89784 6.26749 3.55216 5.99863C3.32172 5.80659 3.28331 5.61455 3.36012 5.46092Z" fill="#F85454"/>
<path fill-rule="evenodd" clip-rule="evenodd" d="M23.1019 13.4882C23.3323 13.6034 23.5628 13.7955 23.678 14.0259C24.0237 14.6404 23.9853 15.2934 23.486 15.9847C22.9098 16.7913 20.6438 17.6363 19.069 17.6363H0.480326C0.249877 17.6363 0.0962453 17.4826 0.0962453 17.2522C0.0962453 17.0217 0.249877 16.8681 0.480326 16.8681H14.2296C14.1816 16.8372 14.1323 16.8054 14.0817 16.7729C11.8124 15.3112 7.00432 12.2124 4.07731 10.3131C4.05579 10.2991 4.03437 10.2852 4.01306 10.2714C3.94807 10.2292 3.88404 10.1876 3.82102 10.1467C3.80286 10.1358 3.78355 10.1235 3.76367 10.1098C3.64543 10.0339 3.53148 9.96073 3.42187 9.89038C3.41456 9.8857 3.40728 9.88102 3.40002 9.87636C2.55351 9.3331 1.96865 8.95776 1.67017 8.72561C1.17086 8.37993 1.01723 7.68859 1.3629 7.18928L1.97743 6.22908C2.09266 5.99863 2.32311 5.88341 2.55355 5.80659C2.51515 5.53774 2.55355 5.26888 2.70719 5.03843L5.05008 1.31285C5.43416 0.813544 6.1255 0.69832 6.62481 1.04399C6.77844 1.15922 7.16252 1.46648 8.50681 3.54052C8.9677 4.23186 9.73586 4.69276 10.5424 4.84639C10.7345 4.8848 10.8881 5.11525 10.8497 5.30729C10.8113 5.49933 10.5808 5.65296 10.3888 5.61455C9.35178 5.46092 8.42999 4.84639 7.85387 4.00141C6.82182 2.32878 6.35034 1.87622 6.19501 1.72712C6.1827 1.7153 6.17237 1.70539 6.16391 1.69693C6.01028 1.58171 5.77983 1.62011 5.66461 1.77375L5.20371 2.5035L5.54938 5.72978C5.54938 6.07545 5.47257 6.42112 5.28053 6.68998C5.17489 6.83787 5.08088 6.92765 5.01767 6.9785C4.96596 7.0201 4.93485 7.03565 4.93485 7.03565L15.6507 14.9861C15.958 15.2166 16.3421 15.3318 16.7261 15.3318H22.9867C23.1787 15.0245 23.1787 14.7173 23.0251 14.41C22.9867 14.2948 22.9098 14.2564 22.833 14.218L19.9524 13.1041L18.8002 12.6816H18.7618L14.8441 11.1837C14.7673 11.1837 14.6905 11.1069 14.6521 11.0301L11.4642 5.57614C11.3874 5.46092 11.3874 5.3457 11.4258 5.23047C11.6179 4.80798 12.0788 4.46231 12.6549 4.38549C13.3078 4.30868 13.9223 4.57753 14.3832 5.11525C14.4216 5.11525 14.4216 5.15366 14.4216 5.15366L14.921 5.96023H15.2666C15.4971 5.96023 15.6507 6.11386 15.6507 6.34431C15.6507 6.46641 15.5779 6.58852 15.4709 6.65278C15.4433 6.66936 15.4134 6.6821 15.3819 6.68998L15.7659 7.30451H16.15C16.3805 7.30451 16.5341 7.45814 16.5341 7.68859C16.5341 7.84723 16.4555 7.97967 16.3198 8.04258C16.2913 8.05583 16.2602 8.06599 16.2268 8.07267L16.6877 8.84083H17.0718C17.3023 8.84083 17.4559 8.99446 17.4559 9.22491C17.4559 9.38353 17.3773 9.51595 17.2417 9.57887C17.2131 9.59213 17.182 9.60231 17.1486 9.60899L18.1472 11.2605C18.3393 11.5678 18.6465 11.7983 18.9922 11.9519L20.1829 12.3744L23.1019 13.4882ZM19.0276 11.8634L20.2168 12.2854L23.1402 13.4009L23.1445 13.403C23.3862 13.5239 23.6346 13.7278 23.7621 13.9812C23.9424 14.3024 24.0244 14.6376 23.9937 14.9849C23.9631 15.3321 23.8205 15.6841 23.5633 16.0403C23.4083 16.2572 23.1461 16.4692 22.8235 16.6645C22.4993 16.8609 22.1072 17.0446 21.6853 17.2022C20.8426 17.517 19.8708 17.7315 19.069 17.7315H0.480326C0.343459 17.7315 0.222002 17.6855 0.134523 17.598C0.0470441 17.5105 0.00100616 17.3891 0.00100616 17.2522C0.00100616 17.1153 0.0470443 16.9939 0.134523 16.9064C0.222002 16.8189 0.343459 16.7729 0.480326 16.7729H13.9059C11.5195 15.2357 6.61538 12.0748 3.77055 10.2275C3.75187 10.2162 3.73183 10.2035 3.71102 10.1892C3.58537 10.1085 3.46446 10.0309 3.34837 9.95639C2.50517 9.41527 1.91656 9.03754 1.61375 8.80238C1.07703 8.42908 0.907364 7.68173 1.2836 7.13652L1.8946 6.18184C2.01458 5.94603 2.23678 5.82149 2.45018 5.74202C2.42673 5.48112 2.47368 5.21761 2.62722 4.98669L4.97185 1.25834L4.97459 1.25478C5.3882 0.71709 6.13612 0.589832 6.67902 0.965688L6.68051 0.966717L6.68195 0.967802C6.85043 1.09416 7.24229 1.4145 8.58638 3.48818C9.03141 4.1554 9.77576 4.60341 10.5603 4.75283L10.5611 4.753C10.6875 4.77828 10.7936 4.86425 10.8617 4.9664C10.9298 5.06854 10.9684 5.19957 10.9431 5.32597C10.9178 5.45236 10.8318 5.55848 10.7297 5.62658C10.6282 5.69423 10.4982 5.73271 10.3726 5.70843C9.3085 5.5501 8.36485 4.91992 7.77518 4.05507L7.77396 4.05327L7.77282 4.05142C7.2173 3.1511 6.82583 2.60716 6.56004 2.27493C6.33466 1.9932 6.19987 1.8638 6.12842 1.7952C6.11836 1.78555 6.10956 1.77709 6.10193 1.76959C5.99325 1.69246 5.82762 1.71842 5.74293 1.82809L5.30194 2.52632L5.64462 5.72469V5.72978C5.64462 6.08791 5.56526 6.4552 5.35803 6.74534C5.25747 6.88612 5.16569 6.97838 5.09719 7.03634L5.09646 7.03696L15.7079 14.9099C15.997 15.1268 16.3605 15.2366 16.7261 15.2366H22.9324C23.0788 14.9748 23.0722 14.7173 22.9399 14.4526L22.9368 14.4465L22.9347 14.4401C22.91 14.366 22.8675 14.3418 22.7944 14.3052L19.9196 13.1935L19.9181 13.193L18.7833 12.7769H18.7442L14.8241 11.278C14.763 11.2723 14.7106 11.2413 14.6717 11.208C14.6285 11.171 14.5927 11.1234 14.5684 11.0756L11.3834 5.62652C11.2882 5.48206 11.2904 5.33565 11.3355 5.20036L11.337 5.19561L11.3391 5.19106C11.5462 4.73552 12.0373 4.37176 12.6423 4.29109L12.6437 4.2909C13.3227 4.21103 13.9588 4.48692 14.4352 5.02984C14.4432 5.03305 14.4509 5.03709 14.4583 5.04201C14.4804 5.05676 14.494 5.07576 14.502 5.09186C14.5069 5.10165 14.5101 5.11099 14.5122 5.11902L14.974 5.86499H15.2666C15.4035 5.86499 15.5249 5.91102 15.6124 5.9985C15.6999 6.08598 15.7459 6.20744 15.7459 6.34431C15.7459 6.49922 15.6562 6.65193 15.5214 6.73357L15.8187 7.20927H16.15C16.2869 7.20927 16.4083 7.25531 16.4958 7.34279C16.5833 7.43027 16.6293 7.55172 16.6293 7.68859C16.6293 7.87905 16.5339 8.04402 16.3691 8.12467L16.7416 8.74559H17.0718C17.2087 8.74559 17.3301 8.79163 17.4176 8.87911C17.5051 8.96659 17.5511 9.08805 17.5511 9.22491C17.5511 9.41524 17.4559 9.5801 17.2913 9.66082L18.228 11.2101L18.2283 11.2106C18.4071 11.4963 18.6956 11.7152 19.0276 11.8634ZM4.22806 9.50859C4.30243 9.55659 4.37816 9.60546 4.45518 9.65515C7.52466 11.6353 12.6381 14.9092 14.8057 16.292C15.3434 16.6377 15.9964 16.8297 16.6493 16.8297H19.1074C19.9875 16.8297 20.9965 16.5394 21.7798 16.1952C21.8512 16.1638 21.9207 16.132 21.988 16.1H16.6877C16.15 16.1 15.6123 15.9463 15.1514 15.6006L3.09127 6.61316C2.93764 6.49794 2.70719 6.53635 2.59196 6.68998L2.01584 7.57336C1.90062 7.76541 1.93903 7.95745 2.09266 8.07267C2.32849 8.25609 2.74308 8.5289 3.31204 8.90328C3.47193 9.00849 3.64401 9.12172 3.82774 9.24324C3.94854 9.32314 4.07438 9.40662 4.2051 9.49377C4.21301 9.49852 4.22067 9.50346 4.22806 9.50859ZM4.28159 9.42978C7.31984 11.391 12.6354 14.7945 14.8569 16.2117L14.8572 16.2119C15.3794 16.5476 16.0145 16.7345 16.6493 16.7345H19.1074C19.8955 16.7345 20.7945 16.4961 21.5352 16.1952H16.6877C16.1317 16.1952 15.5734 16.0362 15.0943 15.6768L3.03412 6.68935C2.92541 6.60782 2.75572 6.63309 2.66989 6.74483L2.09663 7.62383C2.04945 7.70311 2.03733 7.77591 2.04737 7.83617C2.05741 7.8964 2.09088 7.95228 2.1498 7.99648L2.15114 7.99748C2.38389 8.17851 2.79316 8.44783 3.35915 8.82025C3.62441 8.99479 3.92408 9.19197 4.25613 9.41333C4.26488 9.41863 4.27336 9.42412 4.28159 9.42978ZM4.08988 6.38271C4.40953 6.63133 4.56497 6.3873 4.6473 6.25804C4.654 6.24752 4.66022 6.23775 4.666 6.22908C4.74281 6.11386 4.78122 5.96023 4.78122 5.80659L4.55077 3.57892L3.36012 5.46092C3.28331 5.61455 3.32172 5.80659 3.55216 5.99863C3.89784 6.26749 4.08988 6.38271 4.08988 6.38271ZM3.61193 5.92447C3.7826 6.05716 3.91502 6.15172 4.00443 6.21289C4.04925 6.24356 4.08326 6.26584 4.10587 6.28033C4.11717 6.28758 4.12562 6.29288 4.13115 6.2963L4.13724 6.30005L4.13862 6.30089L4.13888 6.30105L4.14381 6.30401L4.14835 6.30754C4.22564 6.36765 4.28389 6.38902 4.32554 6.39369C4.36535 6.39816 4.39795 6.38832 4.4279 6.3694C4.48567 6.33292 4.52561 6.27086 4.56405 6.21113C4.57163 6.19934 4.57916 6.18765 4.58675 6.17625C4.65009 6.08125 4.68518 5.94916 4.68597 5.81137L4.48432 3.8621L3.44336 5.50749C3.41731 5.56179 3.41111 5.62137 3.43174 5.68669C3.45341 5.75532 3.50689 5.83665 3.61193 5.92447ZM15.2546 10.4914L17.0715 11.1521L16.1746 9.74264H15.4587C15.3218 9.74264 15.2003 9.6966 15.1129 9.60912C15.0254 9.52164 14.9793 9.40019 14.9793 9.26332C14.9793 9.12645 15.0254 9.005 15.1129 8.91752C15.2003 8.83004 15.3218 8.784 15.4587 8.784H15.5931L15.2525 8.24472H14.5369C14.4 8.24472 14.2785 8.19869 14.1911 8.11121C14.1036 8.02373 14.0576 7.90227 14.0576 7.76541C14.0576 7.62854 14.1036 7.50708 14.1911 7.4196C14.2785 7.33212 14.4 7.28609 14.5369 7.28609H14.6723L14.4073 6.86203H13.6535C13.5166 6.86203 13.3952 6.816 13.3077 6.72852C13.2202 6.64104 13.1742 6.51958 13.1742 6.38271C13.1742 6.24585 13.2202 6.12439 13.3077 6.03691C13.3952 5.94943 13.5166 5.9034 13.6535 5.9034H13.8309L13.692 5.67176C13.3341 5.28264 12.9488 5.25243 12.7473 5.28601C12.571 5.31539 12.4197 5.3945 12.3154 5.47962L15.2546 10.4914ZM12.194 5.46092L15.1898 10.5692L17.3023 11.3374L16.2268 9.6474H15.4587C15.2282 9.6474 15.0746 9.49377 15.0746 9.26332C15.0746 9.03287 15.2282 8.87924 15.4587 8.87924H15.7659L15.305 8.14949H14.5369C14.3064 8.14949 14.1528 7.99585 14.1528 7.76541C14.1528 7.53496 14.3064 7.38132 14.5369 7.38132H14.8441L14.4601 6.7668H13.6535C13.423 6.7668 13.2694 6.61316 13.2694 6.38271C13.2694 6.15227 13.423 5.99863 13.6535 5.99863H13.9992L13.7687 5.61455C13.3846 5.19206 12.9621 5.15366 12.7317 5.19206C12.5012 5.23047 12.3092 5.3457 12.194 5.46092Z" fill="#F85454"/>
</svg>
