<svg width="48" height="48" viewBox="0 0 48 48" fill="none" xmlns="http://www.w3.org/2000/svg">
<path d="M28.5981 0.377651C26.8262 0.377651 25.1357 1.06215 23.8665 2.27418C22.5973 1.06215 20.9068 0.377651 19.1354 0.377651C15.3559 0.377651 12.2813 3.45222 12.2813 7.23178C12.2813 8.06893 12.4307 8.88612 12.7252 9.66231C12.7295 9.67418 12.7349 9.68659 12.7403 9.69953L12.7414 9.70276C12.7425 9.706 12.7441 9.70924 12.7452 9.71248C12.7479 9.71841 12.75 9.72435 12.7533 9.73136C12.9248 10.1737 13.1459 10.6009 13.4097 11.0016C14.6288 13.1074 17.5577 17.2214 23.5234 21.2351C23.5256 21.2362 23.5283 21.2383 23.5283 21.2383L23.531 21.2405C23.5337 21.2416 23.5353 21.2427 23.5375 21.2437C23.5585 21.2578 23.5795 21.2702 23.6022 21.2804C23.6108 21.2847 23.6194 21.2885 23.6281 21.2917C23.6443 21.2987 23.661 21.3052 23.6771 21.3106C23.6879 21.3139 23.6982 21.3176 23.709 21.3203C23.7252 21.3246 23.7419 21.3284 23.7581 21.3317C23.7683 21.3333 23.778 21.336 23.7883 21.3371C23.8125 21.3403 23.8368 21.3424 23.8616 21.3424L23.867 21.343H23.8686C23.8686 21.343 23.8719 21.3424 23.874 21.3424C23.8983 21.3424 23.9226 21.3403 23.9474 21.3371C23.9571 21.336 23.9668 21.3333 23.9771 21.3317C23.9938 21.3284 24.0105 21.3252 24.0267 21.3203C24.0375 21.3176 24.0472 21.3139 24.058 21.3106C24.0747 21.3047 24.092 21.2987 24.1081 21.2917C24.1168 21.2874 24.1249 21.2842 24.1335 21.2804C24.1556 21.2691 24.1772 21.2572 24.1982 21.2437C24.2004 21.2427 24.2025 21.2416 24.2047 21.2405L24.2074 21.2383L24.2122 21.2351C30.178 17.222 33.1058 13.1085 34.3249 11.0022C34.5892 10.6019 34.8103 10.1742 34.9824 9.73189C34.9873 9.72164 34.9916 9.71194 34.9948 9.70223C35.0007 9.68874 35.0061 9.67526 35.011 9.66231C35.3055 8.88666 35.4544 8.06947 35.4544 7.23286C35.4517 3.45276 32.3777 0.377651 28.5981 0.377651ZM23.8665 20.0134C18.3091 16.1982 15.5829 12.3582 14.4432 10.3851C14.4416 10.3824 14.44 10.3792 14.4378 10.3759C14.4356 10.3716 14.4329 10.3673 14.4303 10.3635C14.1239 9.83007 13.9459 9.45356 13.8644 9.27071C13.8617 9.26316 13.8585 9.25669 13.8553 9.24967V9.24806L13.8482 9.23133C13.6066 8.59377 13.4841 7.92114 13.4841 7.23178C13.4841 4.11568 16.0193 1.58051 19.136 1.58051C20.779 1.58051 22.3378 2.29413 23.4128 3.53798C23.415 3.54122 23.4188 3.54392 23.4209 3.54662C23.4285 3.55471 23.435 3.56172 23.4431 3.56927C23.4506 3.57683 23.4582 3.58437 23.4662 3.59193C23.4695 3.59462 23.4722 3.59732 23.4749 3.60002C23.4787 3.60325 23.483 3.60595 23.4862 3.60918C23.4959 3.61674 23.5045 3.62375 23.5142 3.63076C23.5213 3.63616 23.5277 3.64101 23.5353 3.64533C23.545 3.6518 23.5542 3.65719 23.5639 3.66313C23.572 3.66744 23.5795 3.67229 23.5876 3.67661C23.5973 3.68146 23.6054 3.68578 23.6151 3.6901C23.6243 3.69441 23.6335 3.69818 23.6426 3.70196C23.6513 3.7052 23.6593 3.70844 23.668 3.71167C23.6788 3.71545 23.6885 3.71868 23.6993 3.72192C23.7074 3.72408 23.7154 3.72624 23.7235 3.7284C23.7343 3.73109 23.7451 3.73379 23.7559 3.73541C23.764 3.73703 23.7721 3.73864 23.7802 3.73972C23.7915 3.74134 23.8023 3.74242 23.8131 3.7435C23.8223 3.74404 23.8298 3.74457 23.839 3.74511C23.8498 3.74565 23.86 3.74566 23.8703 3.74566C23.8794 3.74566 23.8886 3.74565 23.8978 3.74511C23.908 3.74511 23.9172 3.74403 23.9274 3.74296C23.9377 3.74242 23.9463 3.7408 23.956 3.73972C23.9657 3.73864 23.9749 3.73702 23.9846 3.73487C23.9943 3.73271 24.0035 3.73109 24.0132 3.7284C24.0229 3.7257 24.0315 3.72354 24.0413 3.72084C24.051 3.71814 24.0596 3.71545 24.0688 3.71221C24.0785 3.70844 24.0876 3.7052 24.0974 3.70142C24.106 3.69819 24.1141 3.69441 24.1227 3.69063C24.1324 3.68578 24.1421 3.68093 24.1518 3.67607C24.1594 3.67176 24.1664 3.66798 24.1739 3.66366C24.1842 3.65773 24.1939 3.6518 24.2042 3.64479C24.2112 3.64047 24.2171 3.63562 24.2241 3.63076C24.2338 3.62375 24.243 3.61674 24.2522 3.60918C24.2559 3.60595 24.2602 3.60325 24.2635 3.60002C24.2667 3.59732 24.2694 3.59409 24.2726 3.59139C24.2807 3.58438 24.2878 3.57736 24.2953 3.56981C24.3034 3.56172 24.3104 3.55417 24.318 3.54608C24.3207 3.54338 24.3234 3.54068 24.3255 3.53798C25.4005 2.29413 26.9599 1.58051 28.6029 1.58051C31.719 1.58051 34.2542 4.11569 34.2542 7.23233C34.2542 7.92222 34.1312 8.59484 33.8896 9.23349L33.8869 9.23943L33.8858 9.24212L33.8853 9.24374C33.8858 9.24104 33.8869 9.23834 33.8885 9.23457L33.8874 9.23727L33.8826 9.24859C33.8793 9.25668 33.8755 9.26424 33.8723 9.27179C33.7909 9.45572 33.6129 9.83222 33.307 10.3635C33.3038 10.3684 33.3005 10.3732 33.2979 10.3781C33.2962 10.3802 33.2952 10.3824 33.2935 10.3851C32.15 12.3582 29.4239 16.1982 23.8665 20.0134Z" fill="#F85454"/>
<path fill-rule="evenodd" clip-rule="evenodd" d="M12.7452 9.71248L12.7429 9.70725L12.7414 9.70276L12.7403 9.69953C12.7392 9.69681 12.7377 9.69374 12.7366 9.69107C12.7323 9.68102 12.7286 9.67168 12.7252 9.66231C12.4307 8.88612 12.2813 8.06893 12.2813 7.23178C12.2813 3.45222 15.3559 0.377651 19.1354 0.377651C20.9068 0.377651 22.5973 1.06215 23.8665 2.27418C25.1357 1.06215 26.8262 0.377651 28.5981 0.377651C32.3777 0.377651 35.4517 3.45276 35.4544 7.23286C35.4544 8.06947 35.3055 8.88666 35.011 9.66231C35.0061 9.67526 35.0007 9.68874 34.9948 9.70223C34.9916 9.71194 34.9873 9.72164 34.9824 9.73189C34.8103 10.1742 34.5892 10.6019 34.3249 11.0022C33.1058 13.1085 30.178 17.222 24.2122 21.2351L24.2074 21.2383L24.2047 21.2405L24.1982 21.2437C24.1772 21.2572 24.1556 21.2691 24.1335 21.2804C24.1249 21.2842 24.1168 21.2874 24.1081 21.2917C24.0938 21.298 24.0782 21.3029 24.0633 21.3082L24.058 21.3106C24.0538 21.3119 24.0495 21.3128 24.0455 21.3141C24.0392 21.3162 24.0333 21.3187 24.0267 21.3203C24.0105 21.3252 23.9938 21.3284 23.9771 21.3317C23.9668 21.3333 23.9571 21.336 23.9474 21.3371C23.9226 21.3403 23.8983 21.3424 23.874 21.3424L23.8706 21.3424L23.8686 21.343H23.867L23.8616 21.3424C23.8368 21.3424 23.8125 21.3403 23.7883 21.3371C23.7822 21.3364 23.776 21.3348 23.77 21.3336C23.766 21.3328 23.7622 21.3323 23.7581 21.3317C23.7419 21.3284 23.7252 21.3246 23.709 21.3203C23.7021 21.3186 23.6951 21.3161 23.6884 21.3139C23.6845 21.3127 23.6811 21.3118 23.6771 21.3106C23.661 21.3052 23.6443 21.2987 23.6281 21.2917C23.6194 21.2885 23.6108 21.2847 23.6022 21.2804C23.5795 21.2702 23.5585 21.2578 23.5375 21.2437L23.5351 21.2423L23.531 21.2405L23.5283 21.2383L23.5264 21.2369L23.5234 21.2351C17.5577 17.2214 14.6288 13.1074 13.4097 11.0016C13.161 10.6238 12.9499 10.2226 12.7828 9.80728C12.7727 9.78208 12.7631 9.75666 12.7533 9.73136C12.7515 9.72757 12.7497 9.72373 12.7483 9.7204C12.7472 9.71757 12.7464 9.71521 12.7452 9.71248ZM12.3627 9.77078C12.0581 8.95899 11.9036 8.105 11.9036 7.23142C11.9036 3.24349 15.1471 0 19.1351 0C20.8853 0 22.5606 0.633393 23.8661 1.76397C25.1716 0.633384 26.847 0 28.5977 0C32.5858 0 35.8284 3.24411 35.8313 7.23223C35.8313 8.11387 35.6744 8.97654 35.3636 9.79527C35.3582 9.80945 35.3522 9.82481 35.3454 9.84087C35.3396 9.85606 35.3339 9.86932 35.3292 9.87962C35.1491 10.3404 34.9191 10.7854 34.6442 11.2027C33.4013 13.3467 30.4552 17.4716 24.4977 21.4971L24.4855 21.5213L24.3823 21.573C24.3545 21.5899 24.3282 21.604 24.3051 21.6158L24.2949 21.6211L24.2843 21.6257L24.2752 21.6297L24.2727 21.6307L24.2673 21.6334L24.2578 21.6375C24.2302 21.6495 24.2016 21.6596 24.188 21.6643L24.1838 21.6658L24.175 21.6689L24.1672 21.6712L24.1599 21.6737C24.1538 21.6757 24.1419 21.6796 24.127 21.6836C24.0949 21.6928 24.0653 21.6985 24.0512 21.7011L24.042 21.7029L24.0401 21.7032L24.0377 21.7037C24.0343 21.7044 24.0277 21.7058 24.02 21.7071C24.0133 21.7083 24.0046 21.7097 23.9944 21.711C23.9651 21.7148 23.9306 21.7182 23.8926 21.7191C23.8855 21.7196 23.8773 21.7199 23.8683 21.7199C23.8588 21.7199 23.849 21.7195 23.8425 21.7191C23.805 21.7183 23.7709 21.715 23.7415 21.7111C23.7209 21.7086 23.7045 21.7053 23.6981 21.704L23.6945 21.7033L23.6913 21.7028L23.6837 21.7012C23.6619 21.6969 23.6376 21.6915 23.6126 21.6848C23.597 21.6808 23.5842 21.6767 23.5776 21.6746L23.5725 21.673L23.5693 21.6719L23.5629 21.67L23.5575 21.6682C23.5325 21.6599 23.5082 21.6505 23.4854 21.6408C23.4698 21.6347 23.4546 21.628 23.4398 21.6208C23.4108 21.6074 23.3848 21.593 23.3617 21.5789L23.2573 21.5371L23.2373 21.4971C17.2797 17.471 14.3332 13.3462 13.0903 11.2028C12.8145 10.7827 12.5823 10.3346 12.4019 9.86978L12.4 9.86541L12.3931 9.8502L12.3901 9.84116L12.3889 9.83784L12.3863 9.83154C12.3827 9.82282 12.3778 9.81095 12.3734 9.79914L12.3627 9.77247V9.77078ZM14.4432 10.3851C15.5829 12.3582 18.3091 16.1982 23.8665 20.0134C29.4239 16.1982 32.15 12.3582 33.2935 10.3851C33.2952 10.3824 33.2962 10.3802 33.2979 10.3781C33.3005 10.3732 33.3038 10.3684 33.307 10.3635C33.6087 9.83952 33.7856 9.46572 33.8685 9.27911C33.8697 9.27651 33.8712 9.27431 33.8723 9.27179C33.8736 9.26871 33.8747 9.26526 33.8761 9.26215C33.8782 9.25762 33.8806 9.25339 33.8826 9.24859L33.8858 9.24212L33.8869 9.23943L33.8874 9.23727L33.8885 9.23457L33.8896 9.23349L33.8906 9.22958C34.1313 8.59199 34.2542 7.92094 34.2542 7.23233C34.2542 4.11569 31.719 1.58051 28.6029 1.58051C26.9599 1.58051 25.4005 2.29413 24.3255 3.53798C24.3234 3.54068 24.3207 3.54338 24.318 3.54608L24.3163 3.54712C24.3092 3.55468 24.3029 3.56219 24.2953 3.56981C24.2878 3.57736 24.2807 3.58438 24.2726 3.59139C24.271 3.59274 24.2692 3.59385 24.2677 3.59533C24.2662 3.59682 24.2651 3.59867 24.2635 3.60002C24.2616 3.60192 24.2589 3.60327 24.2566 3.60502C24.255 3.60624 24.2537 3.60785 24.2522 3.60918C24.243 3.61674 24.2338 3.62375 24.2241 3.63076C24.2215 3.63258 24.2186 3.63402 24.2162 3.63581C24.2121 3.6388 24.2085 3.64209 24.2042 3.64479C24.1939 3.6518 24.1842 3.65773 24.1739 3.66366C24.1664 3.66798 24.1594 3.67176 24.1518 3.67607L24.1227 3.69063C24.1207 3.69153 24.1183 3.69206 24.1163 3.69294C24.1098 3.6958 24.1039 3.69896 24.0974 3.70142C24.0925 3.70331 24.0874 3.7047 24.0827 3.70645C24.078 3.7082 24.0736 3.71033 24.0688 3.71221C24.0596 3.71545 24.051 3.71814 24.0413 3.72084C24.0364 3.72219 24.0314 3.72304 24.0269 3.72425C24.0223 3.72546 24.0181 3.72705 24.0132 3.7284C24.0065 3.73026 23.9996 3.73124 23.9931 3.73261C23.9902 3.73322 23.9876 3.7342 23.9846 3.73487C23.9749 3.73702 23.9657 3.73864 23.956 3.73972C23.9527 3.74009 23.9491 3.74016 23.9459 3.7406C23.9398 3.74142 23.9341 3.7426 23.9274 3.74296L23.9244 3.74287C23.9152 3.74385 23.9071 3.74511 23.8978 3.74511C23.8886 3.74565 23.8794 3.74566 23.8703 3.74566C23.86 3.74566 23.8498 3.74565 23.839 3.74511L23.8131 3.7435C23.8023 3.74242 23.7915 3.74134 23.7802 3.73972C23.7721 3.73864 23.764 3.73703 23.7559 3.73541C23.7451 3.73379 23.7343 3.73109 23.7235 3.7284L23.6993 3.72192C23.6885 3.71868 23.6788 3.71545 23.668 3.71167C23.6637 3.71006 23.6591 3.70807 23.655 3.70645C23.6508 3.70483 23.6469 3.70358 23.6426 3.70196C23.6335 3.69818 23.6243 3.69441 23.6151 3.6901C23.6079 3.6869 23.6012 3.68333 23.5945 3.6799C23.5921 3.67871 23.5901 3.67786 23.5876 3.67661C23.5836 3.67445 23.5793 3.67179 23.5754 3.6695C23.5715 3.66721 23.5679 3.66529 23.5639 3.66313C23.5617 3.66182 23.5593 3.66017 23.5572 3.6589C23.5497 3.6544 23.5429 3.65037 23.5353 3.64533C23.5277 3.64101 23.5213 3.63616 23.5142 3.63076C23.5072 3.62567 23.5004 3.62021 23.4936 3.61491C23.4911 3.61291 23.4889 3.61125 23.4862 3.60918C23.4843 3.60728 23.4817 3.6052 23.4793 3.60345C23.4777 3.60223 23.4764 3.60135 23.4749 3.60002C23.4722 3.59732 23.4695 3.59462 23.4662 3.59193C23.4582 3.58437 23.4506 3.57683 23.4431 3.56927C23.435 3.56172 23.4285 3.55471 23.4209 3.54662L23.4172 3.54276C23.4155 3.54116 23.4141 3.53984 23.4128 3.53798C22.3378 2.29413 20.779 1.58051 19.136 1.58051C16.0193 1.58051 13.4841 4.11568 13.4841 7.23178C13.4841 7.92114 13.6066 8.59377 13.8482 9.23133L13.8553 9.24806L13.8568 9.25333C13.8594 9.25887 13.8623 9.26462 13.8644 9.27071C13.9459 9.45356 14.1239 9.83007 14.4303 10.3635C14.4329 10.3673 14.4356 10.3716 14.4378 10.3759C14.4392 10.378 14.44 10.3797 14.4411 10.3816L14.4432 10.3851ZM14.7695 10.196C15.87 12.1011 18.504 15.8237 23.8661 19.5544C29.2281 15.8237 31.8624 12.1011 32.9667 10.1956C32.9667 10.1956 32.9682 10.193 32.9696 10.1906C32.9712 10.1879 32.9741 10.183 32.9774 10.1779C32.9803 10.1731 32.983 10.1688 32.9853 10.1652C33.2585 9.68985 33.4247 9.34528 33.5082 9.16069V9.08548L33.5613 9.03238C33.7702 8.45672 33.8766 7.85228 33.8766 7.23196C33.8766 4.32366 31.5103 1.95742 28.6026 1.95742C27.0704 1.95742 25.6162 2.62234 24.6128 3.78174C24.6056 3.79036 24.5993 3.79711 24.5952 3.80142C24.5932 3.80348 24.5913 3.80543 24.5897 3.80712C24.583 3.81435 24.573 3.82495 24.5617 3.83622L24.5605 3.83746C24.5544 3.84354 24.5424 3.85561 24.5274 3.86902L24.526 3.87038C24.5236 3.87269 24.5205 3.8756 24.5168 3.87894C24.5105 3.88467 24.505 3.88935 24.5007 3.89291C24.4953 3.89737 24.4906 3.90106 24.4877 3.90327C24.473 3.91525 24.4587 3.9261 24.4446 3.93625L24.4416 3.93845L24.4403 3.93937L24.4361 3.9424C24.4318 3.94554 24.4228 3.95211 24.411 3.95976C24.3928 3.97194 24.3765 3.98176 24.3626 3.9898L24.3608 3.99087C24.3549 3.99419 24.3496 3.99718 24.3462 3.99907L24.3386 4.00328L24.3295 4.00847L24.2824 4.03204L24.2736 4.03592L24.2691 4.0379L24.2603 4.04175C24.2539 4.04455 24.2443 4.04865 24.2328 4.05305C24.2252 4.05599 24.2182 4.05857 24.2141 4.06012L24.2051 4.06348L24.1996 4.06564L24.194 4.06762C24.1759 4.07398 24.1591 4.07921 24.1419 4.08399C24.1345 4.08604 24.1278 4.08781 24.1235 4.08895L24.1138 4.09155C24.0984 4.09583 24.0853 4.09873 24.0775 4.10039L24.0666 4.10268C24.0466 4.10712 24.0237 4.11134 23.9986 4.11419L23.9956 4.11458L23.9904 4.11529C23.9841 4.11611 23.9738 4.11739 23.9611 4.11841C23.9518 4.11941 23.9322 4.1213 23.9099 4.12187C23.8931 4.12259 23.8785 4.12258 23.8714 4.12257L23.8684 4.12257C23.8587 4.12257 23.8402 4.12258 23.8198 4.12156L23.8165 4.12139L23.7906 4.11976L23.7829 4.11931L23.7737 4.11839C23.7638 4.1174 23.7467 4.1157 23.7279 4.11305C23.7115 4.1108 23.6965 4.10796 23.6877 4.10623C23.663 4.10196 23.6419 4.09663 23.6335 4.09451L23.6317 4.09405L23.6259 4.09262L23.5961 4.08459L23.5905 4.08292C23.5727 4.07758 23.5573 4.07242 23.543 4.06741L23.539 4.06603L23.5351 4.06456L23.5187 4.05826L23.5098 4.05485L23.5042 4.05274L23.497 4.0498C23.4892 4.04659 23.4741 4.0404 23.4577 4.0328C23.4473 4.02809 23.4386 4.0238 23.4322 4.02059L23.4185 4.01369L23.4141 4.01147L23.4097 4.00914C23.4034 4.00576 23.3979 4.0027 23.3938 4.00036L23.3847 3.99503L23.3833 3.99425L23.3762 3.99045L23.3668 3.98469L23.3648 3.98348C23.3597 3.98042 23.3474 3.97299 23.3346 3.96474C23.3125 3.9512 23.2955 3.93838 23.2871 3.93192C23.2736 3.92192 23.2595 3.9108 23.2554 3.90752L23.2357 3.8922L23.2329 3.88942L23.229 3.8861L23.218 3.87667L23.2117 3.87043L23.2085 3.86737C23.1969 3.85661 23.1865 3.84629 23.1794 3.83916C23.166 3.8263 23.1548 3.81447 23.1485 3.80771C23.1453 3.80444 23.1413 3.80033 23.137 3.79568C23.1329 3.79126 23.1278 3.78554 23.1221 3.7786C22.1188 2.62111 20.6664 1.95742 19.1356 1.95742C16.2273 1.95742 13.8611 4.3237 13.8611 7.23142C13.8611 7.87344 13.9746 8.49866 14.1984 9.09122L14.2156 9.13222C14.2948 9.3087 14.4638 9.66389 14.7512 10.165C14.7556 10.1719 14.76 10.1793 14.7645 10.1873C14.7663 10.1903 14.7686 10.1944 14.7686 10.1944L14.7695 10.196Z" fill="#F85454"/>
<path fill-rule="evenodd" clip-rule="evenodd" d="M38.3093 43.3942L38.3921 43.2457L38.3942 43.2421C39.995 40.5062 42.4084 36.3814 43.6427 31.5174L44.159 29.4134L47.5922 17.4295L47.5934 17.4247C47.7911 16.6605 47.9142 16.0692 47.6769 15.536C47.3635 14.8316 46.6358 14.6475 46.1455 14.5235L46.1297 14.5195C45.3116 14.2727 44.5286 14.4212 43.7677 14.8451L43.7625 14.8483C42.6171 15.5353 41.81 16.8371 41.5751 17.7611L39.6341 22.9882C39.5948 22.9744 39.5478 22.9592 39.4965 22.9489C38.036 22.5591 36.1562 23.4528 35.1699 25.792L35.1668 25.7994L33.9711 29.4574C33.6261 29.8254 32.2486 31.3064 30.8516 33.5442L30.85 33.5468C29.8045 35.2831 29.0704 37.8621 28.6493 40.3773C28.228 42.8934 28.1148 45.3766 28.3294 46.9306L28.3303 46.9361C28.3721 47.1855 28.5023 47.4484 28.7069 47.6118C28.9194 47.7815 29.1848 47.8228 29.4541 47.8014L29.458 47.801L29.4619 47.8006C30.0306 47.7317 30.3813 47.2509 30.3354 46.6749C29.8942 41.1401 31.2003 37.1572 32.6125 34.5577C33.3191 33.2571 34.053 32.3014 34.6098 31.6701C34.8882 31.3545 35.1224 31.1201 35.2867 30.9642C35.3688 30.8863 35.4336 30.8279 35.478 30.7886C35.4977 30.7712 35.5134 30.7575 35.5253 30.7472L35.5295 30.7435C35.5353 30.7384 35.5409 30.7335 35.5452 30.7297C35.5452 30.7297 35.5478 30.7274 35.5495 30.7258L35.5534 30.7222L35.5564 30.7193L35.7463 30.5456L37.0847 26.5319C37.3441 25.903 37.711 25.4457 38.0796 25.1667C38.455 24.8826 38.8077 24.7995 39.0498 24.8616L39.0537 24.8625C39.2189 24.9012 39.3912 24.964 39.5226 25.0237C39.5102 25.0734 39.4921 25.1352 39.4679 25.2079C39.42 25.3519 39.3542 25.5205 39.2808 25.686L39.2767 25.6952L37.5074 31.1596C37.2055 31.8732 36.7017 32.9482 36.1291 33.9251C35.8417 34.4153 35.5391 34.8774 35.2379 35.2555C34.9342 35.6368 34.6431 35.9186 34.3818 36.0646L34.3796 36.0658C34.1638 36.1901 33.9935 36.4189 33.9116 36.6467C33.8037 36.93 33.8506 37.2056 34.0067 37.4381C34.1317 37.6511 34.3581 37.8189 34.5835 37.9C34.8657 38.0076 35.1402 37.9614 35.372 37.8066C36.3033 37.3018 37.2185 36.1363 38.1688 34.4299C38.7964 33.303 39.2854 32.2159 39.406 31.9289L39.4091 31.9215L41.1935 26.4313C41.5036 25.7383 41.7987 24.9308 41.4054 24.144L43.5078 18.4676L43.5825 18.3335L43.588 18.3007C43.6038 18.2055 43.6691 18.0169 43.7872 17.7848C43.9032 17.5569 44.063 17.3012 44.2571 17.0715C44.6497 16.6069 45.1345 16.3 45.6591 16.4261C45.6758 16.4331 45.6919 16.4384 45.7031 16.442C45.7147 16.4458 45.7272 16.4495 45.7402 16.4531L45.7392 16.4578C45.7309 16.495 45.722 16.5355 45.7151 16.5715C45.6978 16.6358 45.6796 16.7035 45.6652 16.7648C45.6531 16.8167 45.6412 16.8738 45.6365 16.925L42.2363 28.9132L41.719 31.0213C40.5712 35.5603 38.2158 39.5854 36.6626 42.2358C35.6692 43.9506 34.8166 45.4776 34.5026 46.6102L34.5013 46.6155C34.3899 47.0669 34.5843 47.5575 34.9892 47.7832L34.9932 47.7855C35.0197 47.8003 35.0596 47.8226 35.1005 47.8383C35.1288 47.8491 35.1734 47.8634 35.2259 47.8631C35.6571 47.9902 36.1156 47.8184 36.351 47.3958L36.373 47.3562L36.3751 47.311C36.3757 47.2971 36.3784 47.2855 36.3853 47.2562L36.3879 47.245C36.3916 47.2294 36.3972 47.2048 36.3998 47.178C36.4002 47.1748 36.4004 47.1715 36.4007 47.168L36.4198 47.1337L36.4259 47.108C36.522 46.7072 36.751 46.1922 37.082 45.5633C37.3939 44.9708 37.7889 44.2906 38.2328 43.5261L38.3093 43.3942Z" fill="#F85454"/>
<path fill-rule="evenodd" clip-rule="evenodd" d="M9.49777 43.3942L9.41506 43.2457L9.41293 43.2421C7.81211 40.5062 5.39869 36.3814 4.16434 31.5174L3.64803 29.4134L0.214863 17.4295L0.213616 17.4247C0.0159848 16.6605 -0.107154 16.0692 0.130098 15.536C0.443519 14.8316 1.1712 14.6475 1.66159 14.5235L1.67732 14.5195C2.49552 14.2727 3.27842 14.4212 4.03934 14.8451L4.0446 14.8483C5.18994 15.5353 5.99712 16.8371 6.232 17.7611L8.17297 22.9882C8.21227 22.9744 8.25932 22.9592 8.31063 22.9489C9.77114 22.5591 11.6509 23.4528 12.6372 25.792L12.6403 25.7994L13.8361 29.4574C14.181 29.8254 15.5586 31.3064 16.9555 33.5442L16.9571 33.5468C18.0027 35.2831 18.7368 37.8621 19.1579 40.3773C19.5792 42.8934 19.6924 45.3766 19.4778 46.9306L19.4769 46.9361C19.4351 47.1855 19.3049 47.4484 19.1003 47.6118C18.8878 47.7815 18.6224 47.8228 18.3531 47.8014L18.3492 47.801L18.3453 47.8006C17.7766 47.7317 17.4259 47.2509 17.4718 46.6749C17.913 41.1401 16.6068 37.1572 15.1946 34.5577C14.4881 33.2571 13.7542 32.3014 13.1973 31.6701C12.9189 31.3545 12.6848 31.1201 12.5204 30.9642C12.4383 30.8863 12.3735 30.8279 12.3292 30.7886C12.3094 30.7712 12.2937 30.7575 12.2819 30.7472L12.2776 30.7435C12.2718 30.7384 12.2662 30.7335 12.262 30.7297C12.262 30.7297 12.2593 30.7274 12.2576 30.7258L12.2537 30.7222L12.2507 30.7193L12.0609 30.5456L10.7224 26.5319C10.463 25.903 10.0961 25.4457 9.7275 25.1667C9.35214 24.8826 8.99941 24.7995 8.75733 24.8616L8.75341 24.8625C8.58823 24.9012 8.41591 24.964 8.28451 25.0237C8.29694 25.0734 8.31498 25.1352 8.33917 25.2079C8.38708 25.3519 8.45292 25.5205 8.52634 25.686L8.53041 25.6952L10.2997 31.1596C10.6016 31.8732 11.1054 32.9482 11.678 33.9251C11.9654 34.4153 12.2681 34.8774 12.5692 35.2555C12.8729 35.6368 13.1641 35.9186 13.4254 36.0646L13.4275 36.0658C13.6434 36.1901 13.8136 36.4189 13.8955 36.6467C14.0035 36.93 13.9566 37.2056 13.8004 37.4381C13.6754 37.6511 13.449 37.8189 13.2236 37.9C12.9415 38.0076 12.6669 37.9614 12.4351 37.8066C11.5038 37.3018 10.5886 36.1363 9.63829 34.4299C9.01072 33.303 8.52167 32.2159 8.40114 31.9289L8.39805 31.9215L6.61358 26.4313C6.30352 25.7383 6.00838 24.9308 6.40169 24.144L4.29923 18.4676L4.22459 18.3335L4.21913 18.3007C4.20324 18.2055 4.13796 18.0169 4.01987 17.7848C3.90386 17.5569 3.74405 17.3012 3.55 17.0715C3.15741 16.6069 2.67259 16.3 2.14796 16.4261C2.13124 16.4331 2.11518 16.4384 2.10395 16.442C2.09235 16.4458 2.07988 16.4495 2.06689 16.4531L2.0679 16.4578C2.07611 16.495 2.08502 16.5355 2.09197 16.5715C2.1093 16.6358 2.12751 16.7035 2.14185 16.7648C2.154 16.8167 2.16583 16.8738 2.17055 16.925L5.5708 28.9132L6.08812 31.0213C7.23588 35.5603 9.59131 39.5854 11.1445 42.2358C12.138 43.9506 12.9906 45.4776 13.3045 46.6102L13.3058 46.6155C13.4173 47.0669 13.2228 47.5575 12.818 47.7832L12.8139 47.7855C12.7874 47.8003 12.7475 47.8226 12.7066 47.8383C12.6783 47.8491 12.6337 47.8634 12.5812 47.8631C12.1501 47.9902 11.6915 47.8184 11.4561 47.3958L11.4341 47.3562L11.4321 47.311C11.4315 47.2971 11.4287 47.2855 11.4218 47.2562L11.4192 47.245C11.4155 47.2294 11.4099 47.2048 11.4073 47.178C11.407 47.1748 11.4067 47.1715 11.4065 47.168L11.3873 47.1337L11.3812 47.108C11.2851 46.7072 11.0561 46.1922 10.7251 45.5633C10.4133 44.9708 10.0183 44.2906 9.57433 43.5261L9.49777 43.3942Z" fill="#F85454"/>
</svg>
