<svg width="11" height="12" viewBox="0 0 11 12" fill="none" xmlns="http://www.w3.org/2000/svg">
  <path d="M1.30293 2.82823C1.30293 1.73088 2.22844 0.837995 3.3659 0.837995H7.33245C7.18956 0.355729 6.73397 0 6.18891 0H1.19435C0.535504 0 0 0.516624 0 1.15224V7.6467C0 8.28232 0.535504 8.79894 1.19435 8.79894H1.30293V2.82823Z" fill="#65676B"/>
  <path d="M9.07991 2.20312H4.11973C3.46541 2.20312 2.93359 2.74558 2.93359 3.41298V9.79221C2.93359 10.4596 3.46541 11.0021 4.11973 11.0021H9.07991C9.73423 11.0021 10.266 10.4596 10.266 9.79221V3.41298C10.266 2.74558 9.73423 2.20312 9.07991 2.20312Z" fill="#65676B"/>
</svg>
