<svg width="48" height="48" viewBox="0 0 48 48" fill="none" xmlns="http://www.w3.org/2000/svg">
  <path d="M22.5991 8.80849H23.4851C24.0319 8.80849 24.4749 8.36549 24.4749 7.8188C24.4749 7.27211 24.0319 6.8291 23.4851 6.8291H22.5991C22.0524 6.8291 21.6094 7.27211 21.6094 7.8188C21.6094 8.36549 22.0524 8.80849 22.5991 8.80849Z" fill="#F85454"/>
  <path d="M30.0054 8.80752H30.8914C31.4381 8.80752 31.8811 8.36451 31.8811 7.81782C31.8811 7.27113 31.4381 6.82812 30.8914 6.82812H30.0054C29.4586 6.82812 29.0156 7.27113 29.0156 7.81782C29.0156 8.36451 29.4586 8.80752 30.0054 8.80752Z" fill="#F85454"/>
  <path d="M26.5139 20.396C26.5139 19.8493 26.0708 19.4062 25.5241 19.4062H23.771C23.2243 19.4062 22.7812 19.8493 22.7812 20.396C22.7812 20.9426 23.2243 21.3857 23.771 21.3857H25.5241C26.0708 21.3857 26.5139 20.9426 26.5139 20.396Z" fill="#F85454"/>
  <path d="M14.4077 8.80849H16.1608C16.7075 8.80849 17.1505 8.36549 17.1505 7.8188C17.1505 7.27211 16.7075 6.8291 16.1608 6.8291H14.4077C13.861 6.8291 13.418 7.27211 13.418 7.8188C13.418 8.36549 13.861 8.80849 14.4077 8.80849Z" fill="#F85454"/>
  <path d="M17.3327 19.4062H15.5795C15.0329 19.4062 14.5898 19.8493 14.5898 20.396C14.5898 20.9426 15.0329 21.3857 15.5795 21.3857H17.3327C17.8794 21.3857 18.3224 20.9426 18.3224 20.396C18.3224 19.8493 17.8794 19.4062 17.3327 19.4062Z" fill="#F85454"/>
  <path d="M24.4812 32.5078H22.728C22.1813 32.5078 21.7383 32.9508 21.7383 33.4975C21.7383 34.0442 22.1813 34.4872 22.728 34.4872H24.4812C25.0279 34.4872 25.4709 34.0442 25.4709 33.4975C25.4709 32.9508 25.0279 32.5078 24.4812 32.5078Z" fill="#F85454"/>
  <path d="M2.0083 10.5909C2.1921 10.7653 2.43246 10.8595 2.68696 10.8595C2.9603 10.8595 3.21951 10.7464 3.40803 10.5485C3.74735 10.1903 4.13852 9.87452 4.56268 9.62002C5.02926 9.33725 5.18007 8.72929 4.8973 8.26271C4.76062 8.03649 4.54383 7.87625 4.28934 7.81499C4.03013 7.74429 3.76621 7.78671 3.53999 7.92338C2.9603 8.27685 2.43246 8.70101 1.9706 9.18644C1.59357 9.58703 1.61242 10.2138 2.0083 10.5909Z" fill="#F85454"/>
  <path d="M46.1773 23.66C45.6636 23.8486 45.3997 24.4188 45.5882 24.9278C45.7579 25.3897 45.8569 25.8704 45.8899 26.3605C45.9228 26.8789 46.3564 27.289 46.8748 27.289H46.9361C47.2 27.2701 47.4404 27.1523 47.6148 26.9543C47.7891 26.7564 47.8787 26.5019 47.8598 26.238C47.8174 25.5593 47.676 24.8901 47.4451 24.2492C47.2566 23.7402 46.6863 23.4762 46.1773 23.66Z" fill="#F85454"/>
  <path d="M47.0069 27.6586C46.4791 27.5361 45.9418 27.8613 45.8146 28.3891C45.7015 28.8651 45.5177 29.3223 45.2726 29.7511C45.1406 29.9821 45.1076 30.246 45.1736 30.5005C45.2396 30.755 45.4045 30.9671 45.6355 31.099C45.7863 31.1839 45.956 31.231 46.1256 31.231C46.4791 31.231 46.809 31.0425 46.9834 30.7361C47.3227 30.1423 47.5772 29.5061 47.7327 28.851C47.8647 28.3231 47.5348 27.7859 47.0069 27.6586Z" fill="#F85454"/>
  <path d="M10.4883 20.396C10.4883 20.9426 10.9313 21.3857 11.478 21.3857H13.2312C13.7779 21.3857 14.2209 20.9426 14.2209 20.396C14.2209 19.8493 13.7779 19.4062 13.2312 19.4062H11.478C10.936 19.4063 10.4883 19.8493 10.4883 20.396Z" fill="#F85454"/>
  <path d="M36.7624 32.5078H35.0092C34.4625 32.5078 34.0195 32.9508 34.0195 33.4975C34.0195 34.0442 34.4625 34.4872 35.0092 34.4872H36.7624C37.3091 34.4872 37.7521 34.0442 37.7521 33.4975C37.7521 32.9508 37.3091 32.5078 36.7624 32.5078Z" fill="#F85454"/>
  <path d="M44.5806 20.6197C44.1234 20.3228 43.5107 20.4547 43.2138 20.9119C43.0725 21.1334 43.0206 21.3973 43.0772 21.6565C43.1337 21.9157 43.2845 22.1372 43.506 22.2786C43.9208 22.5473 44.3025 22.8725 44.6324 23.2401C44.8209 23.4521 45.0896 23.5747 45.3723 23.5747C45.6127 23.5747 45.8483 23.4851 46.0274 23.3249C46.4374 22.962 46.4704 22.3352 46.1123 21.9299C45.6692 21.4303 45.1508 20.9873 44.5806 20.6197Z" fill="#F85454"/>
  <path d="M38.8068 20.396C38.8068 19.8493 38.3638 19.4062 37.8171 19.4062H36.0639C35.5172 19.4062 35.0742 19.8493 35.0742 20.396C35.0742 20.9426 35.5172 21.3857 36.0639 21.3857H37.8171C38.3638 21.3857 38.8068 20.9426 38.8068 20.396Z" fill="#F85454"/>
  <path d="M6.22719 8.92226C6.28846 8.92226 6.34973 8.91755 6.41571 8.90341C6.76917 8.83743 7.13678 8.79972 7.50438 8.79972H7.97567C8.52237 8.79972 8.96538 8.35671 8.96538 7.81002C8.96538 7.26332 8.52237 6.82031 7.97567 6.82031H7.50438C7.01424 6.82031 6.51939 6.86744 6.04339 6.95699C5.50612 7.06067 5.15266 7.57909 5.25634 8.11636C5.34588 8.58293 5.75119 8.92226 6.22719 8.92226Z" fill="#F85454"/>
  <path d="M10.3139 8.80752H12.0671C12.6138 8.80752 13.0568 8.36451 13.0568 7.81782C13.0568 7.27113 12.6138 6.82812 12.0671 6.82812H10.3139C9.76723 6.82812 9.32422 7.27113 9.32422 7.81782C9.32422 8.36451 9.76723 8.80752 10.3139 8.80752Z" fill="#F85454"/>
  <path d="M6.39859 20.3818C6.38916 20.9285 6.82746 21.3762 7.37415 21.3857H9.1462C9.69289 21.3857 10.1359 20.9426 10.1359 20.396C10.1359 19.8493 9.69289 19.4062 9.1462 19.4062H7.38829C6.85102 19.4063 6.40801 19.8445 6.39859 20.3818Z" fill="#F85454"/>
  <path d="M2.98464 19.9065C3.52662 20.3024 4.12044 20.6276 4.75196 20.868C4.86507 20.9104 4.98289 20.9339 5.10543 20.9339C5.51074 20.9339 5.88305 20.6794 6.02915 20.2977C6.12341 20.0526 6.1187 19.784 6.0103 19.5389C5.9019 19.2986 5.70868 19.1148 5.45889 19.0205C4.99232 18.8414 4.55402 18.6011 4.15343 18.3089C3.94135 18.1533 3.68214 18.0874 3.41822 18.1298C3.1543 18.1675 2.92808 18.3089 2.76785 18.5257C2.44737 18.964 2.54163 19.5861 2.98464 19.9065Z" fill="#F85454"/>
  <path d="M40.7988 32.4873C40.6763 32.4967 40.5537 32.5014 40.4265 32.5014H39.1069C38.5602 32.5014 38.1172 32.9444 38.1172 33.4911C38.1172 34.0378 38.5602 34.4808 39.1069 34.4808H40.4265C40.5962 34.4808 40.7611 34.4761 40.9261 34.4667C41.4728 34.4337 41.8875 33.9624 41.8498 33.4157C41.8168 32.8737 41.3502 32.4449 40.7988 32.4873Z" fill="#F85454"/>
  <path d="M2.8051 16.8881C2.53647 16.4686 2.3291 16.0209 2.19243 15.5543C2.11702 15.2998 1.94736 15.0925 1.71643 14.9652C1.4855 14.838 1.21686 14.8097 0.962366 14.8851C0.439236 15.0406 0.142324 15.592 0.293137 16.1152C0.486365 16.7608 0.769138 17.3829 1.14146 17.9579C1.32526 18.2406 1.63631 18.4103 1.97564 18.4103C2.16415 18.4103 2.34795 18.3538 2.5129 18.2548C2.97005 17.9579 3.10201 17.3452 2.8051 16.8881Z" fill="#F85454"/>
  <path d="M28.5749 32.5078H26.8217C26.275 32.5078 25.832 32.9508 25.832 33.4975C25.832 34.0442 26.275 34.4872 26.8217 34.4872H28.5749C29.1216 34.4872 29.5646 34.0442 29.5646 33.4975C29.5646 32.9508 29.1216 32.5078 28.5749 32.5078Z" fill="#F85454"/>
  <path d="M18.5014 8.80752H20.2546C20.8013 8.80752 21.2443 8.36451 21.2443 7.81782C21.2443 7.27113 20.8013 6.82812 20.2546 6.82812H18.5014C17.9547 6.82812 17.5117 7.27113 17.5117 7.81782C17.5117 8.36451 17.9547 8.80752 18.5014 8.80752Z" fill="#F85454"/>
  <path d="M25.9116 8.80752H27.6648C28.2115 8.80752 28.6545 8.36451 28.6545 7.81782C28.6545 7.27113 28.2115 6.82812 27.6648 6.82812H25.9116C25.3649 6.82812 24.9219 7.27113 24.9219 7.81782C24.9219 8.36451 25.3649 8.80752 25.9116 8.80752Z" fill="#F85454"/>
  <path d="M30.6115 20.396C30.6115 19.8493 30.1685 19.4062 29.6218 19.4062H27.8686C27.3219 19.4062 26.8789 19.8493 26.8789 20.396C26.8789 20.9426 27.3219 21.3857 27.8686 21.3857H29.6218C30.1685 21.3857 30.6115 20.9426 30.6115 20.396Z" fill="#F85454"/>
  <path d="M34.7092 20.396C34.7092 19.8493 34.2662 19.4062 33.7195 19.4062H31.9663C31.4196 19.4062 30.9766 19.8493 30.9766 20.396C30.9766 20.9426 31.4196 21.3857 31.9663 21.3857H33.7195C34.2614 21.3857 34.7092 20.9426 34.7092 20.396Z" fill="#F85454"/>
  <path d="M32.6725 32.5078H30.9194C30.3727 32.5078 29.9297 32.9508 29.9297 33.4975C29.9297 34.0442 30.3727 34.4872 30.9194 34.4872H32.6725C33.2192 34.4872 33.6622 34.0442 33.6622 33.4975C33.6622 32.9508 33.2192 32.5078 32.6725 32.5078Z" fill="#F85454"/>
  <path d="M43.9957 31.2536C43.6093 31.5694 43.1804 31.8286 42.728 32.0265C42.2284 32.248 42.0022 32.8324 42.219 33.332C42.3745 33.6902 42.7327 33.9211 43.1238 33.9211C43.2605 33.9211 43.3925 33.8928 43.5197 33.8363C44.1371 33.5629 44.7168 33.2095 45.2399 32.7853C45.6641 32.4413 45.7301 31.8192 45.386 31.395C45.042 30.9709 44.4199 30.9096 43.9957 31.2536Z" fill="#F85454"/>
  <path d="M0.908156 14.5077C0.941146 14.5124 0.978849 14.5124 1.01184 14.5124C1.52554 14.5124 1.9497 14.126 1.99683 13.617C2.04396 13.1269 2.16178 12.6509 2.34558 12.1937C2.54824 11.6894 2.30317 11.1097 1.79889 10.9071C1.29461 10.7044 0.714928 10.9495 0.512274 11.4538C0.257778 12.0853 0.0928271 12.7498 0.0315597 13.4285C0.00799525 13.6924 0.0834014 13.9469 0.253065 14.1543C0.418016 14.3616 0.65366 14.4842 0.908156 14.5077Z" fill="#F85454"/>
  <path d="M42.8637 20.7673C42.9202 20.5081 42.8731 20.2442 42.7317 20.0227C42.5903 19.8012 42.3688 19.6456 42.1096 19.5891C41.5582 19.4665 40.9927 19.4053 40.4224 19.4053H40.1538C39.6071 19.4053 39.1641 19.8483 39.1641 20.395C39.1641 20.9417 39.6071 21.3847 40.1538 21.3847H40.4224C40.8466 21.3847 41.2707 21.4318 41.6807 21.5214C41.7514 21.5355 41.8268 21.5449 41.8975 21.5449C42.3594 21.5402 42.7647 21.215 42.8637 20.7673Z" fill="#F85454"/>
  <path d="M22.4201 20.396C22.4201 19.8493 21.9771 19.4062 21.4304 19.4062H19.6772C19.1305 19.4062 18.6875 19.8493 18.6875 20.396C18.6875 20.9426 19.1305 21.3857 19.6772 21.3857H21.4304C21.9771 21.3857 22.4201 20.9426 22.4201 20.396Z" fill="#F85454"/>
  <path d="M20.3523 32.5078H19.4663C18.9196 32.5078 18.4766 32.9508 18.4766 33.4975C18.4766 34.0442 18.9196 34.4872 19.4663 34.4872H20.3523C20.899 34.4872 21.342 34.0442 21.342 33.4975C21.342 32.9508 20.899 32.5078 20.3523 32.5078Z" fill="#F85454"/>
  <path d="M8.12972 25.7109C3.64777 25.7109 0 29.3587 0 33.8406C0 39.8071 7.11174 47.3383 7.41336 47.6588C7.59717 47.852 7.86109 47.9651 8.12972 47.9651H8.13915C8.41249 47.9651 8.67641 47.8473 8.86022 47.6446C9.16184 47.3147 16.2642 39.5149 16.2642 33.8406C16.2642 29.3587 12.6164 25.7109 8.12972 25.7109ZM14.2847 33.8406C14.2847 37.7664 9.89705 43.37 8.12029 45.4814C6.34354 43.436 1.97941 37.9832 1.97941 33.8406C1.97941 30.4474 4.74116 27.6856 8.13443 27.6856C11.5277 27.6856 14.2847 30.4474 14.2847 33.8406Z" fill="#F85454"/>
  <path d="M8.1268 29.9609C6.18509 29.9609 4.60156 31.5398 4.60156 33.4862C4.60156 35.4279 6.18038 37.0114 8.1268 37.0114C10.0732 37.0114 11.652 35.4326 11.652 33.4862C11.652 31.5445 10.0732 29.9609 8.1268 29.9609ZM9.67262 33.4862C9.67262 34.3392 8.97983 35.032 8.1268 35.032C7.27377 35.032 6.58097 34.3392 6.58097 33.4862C6.58097 32.6331 7.27377 31.9403 8.1268 31.9403C8.97983 31.9403 9.67262 32.6331 9.67262 33.4862Z" fill="#F85454"/>
  <path d="M41.6122 0.278689C38.2239 0.278689 35.4662 3.03639 35.4662 6.42473C35.4662 10.9354 40.8426 16.6289 41.0707 16.8712C41.2096 17.0173 41.4091 17.1028 41.6122 17.1028H41.6194C41.826 17.1028 42.0255 17.0137 42.1645 16.8605C42.3925 16.6111 47.7618 10.7145 47.7618 6.42473C47.7618 3.03639 45.0041 0.278689 41.6122 0.278689ZM46.2654 6.42473C46.2654 9.39265 42.9483 13.629 41.6051 15.2252C40.2619 13.6788 36.9626 9.55654 36.9626 6.42473C36.9626 3.85943 39.0505 1.77155 41.6158 1.77155C44.1811 1.77155 46.2654 3.85943 46.2654 6.42473Z" fill="#F85454"/>
  <path fill-rule="evenodd" clip-rule="evenodd" d="M40.897 17.0364L40.8962 17.0355L40.8933 17.0324C40.7578 16.8885 39.3575 15.4011 37.9848 13.3834C36.6095 11.3619 35.2266 8.75829 35.2266 6.42473C35.2266 2.90405 38.0915 0.0390625 41.6122 0.0390625C45.1364 0.0390625 48.0015 2.90396 48.0015 6.42473C48.0015 7.54352 47.6524 8.75096 47.1389 9.92596C46.6243 11.1034 45.9379 12.2634 45.2476 13.2914C43.8686 15.345 42.4618 16.8905 42.3417 17.0218C42.1577 17.2245 41.894 17.3424 41.6194 17.3424H41.6122C41.3438 17.3424 41.0814 17.2302 40.897 17.0364ZM42.1645 16.8605C42.3925 16.6111 47.7618 10.7145 47.7618 6.42473C47.7618 3.03639 45.0041 0.278689 41.6122 0.278689C38.2239 0.278689 35.4662 3.03639 35.4662 6.42473C35.4662 10.9181 40.8016 16.5854 41.0678 16.8682L41.0707 16.8712C41.2096 17.0173 41.4091 17.1028 41.6122 17.1028H41.6194C41.826 17.1028 42.0255 17.0137 42.1645 16.8605ZM44.2346 11.2143C45.2295 9.58827 46.0258 7.83687 46.0258 6.42473C46.0258 3.99153 44.0485 2.01118 41.6158 2.01118C39.1828 2.01118 37.2022 3.99177 37.2022 6.42473C37.2022 7.92021 37.9956 9.68521 38.9843 11.294C39.8823 12.7553 40.9206 14.0549 41.6023 14.8545C42.2852 14.0297 43.3303 12.692 44.2346 11.2143ZM41.7607 15.0389C43.1874 13.3197 46.2654 9.2837 46.2654 6.42473C46.2654 3.85943 44.1811 1.77155 41.6158 1.77155C39.0505 1.77155 36.9626 3.85943 36.9626 6.42473C36.9626 9.43955 40.02 13.3722 41.4466 15.0413C41.502 15.106 41.5549 15.1674 41.6051 15.2252C41.6544 15.1666 41.7064 15.1044 41.7607 15.0389Z" fill="#F85454"/>
  <path d="M41.6065 3.49219C40.1385 3.49219 38.9414 4.68577 38.9414 6.15726C38.9414 7.62518 40.135 8.82233 41.6065 8.82233C43.078 8.82233 44.2715 7.62875 44.2715 6.15726C44.2715 4.68933 43.078 3.49219 41.6065 3.49219ZM42.7751 6.15726C42.7751 6.80215 42.2514 7.3259 41.6065 7.3259C40.9616 7.3259 40.4378 6.80215 40.4378 6.15726C40.4378 5.51237 40.9616 4.98862 41.6065 4.98862C42.2514 4.98862 42.7751 5.51237 42.7751 6.15726Z" fill="#F85454"/>
  <path fill-rule="evenodd" clip-rule="evenodd" d="M38.7031 6.16251C38.7031 4.55847 40.0078 3.25781 41.6078 3.25781C43.2119 3.25781 44.5125 4.56245 44.5125 6.16251C44.5125 7.76634 43.2116 9.0672 41.6078 9.0672C40.0038 9.0672 38.7031 7.76257 38.7031 6.16251ZM41.6078 7.09152C42.1204 7.09152 42.5368 6.67506 42.5368 6.16251C42.5368 5.64996 42.1204 5.23349 41.6078 5.23349C41.0953 5.23349 40.6788 5.64996 40.6788 6.16251C40.6788 6.67506 41.0953 7.09152 41.6078 7.09152ZM38.9428 6.16251C38.9428 4.69102 40.1399 3.49744 41.6078 3.49744C43.0793 3.49744 44.2729 4.69458 44.2729 6.16251C44.2729 7.634 43.0793 8.82758 41.6078 8.82758C40.1363 8.82758 38.9428 7.63043 38.9428 6.16251ZM41.6078 7.33115C42.2527 7.33115 42.7765 6.8074 42.7765 6.16251C42.7765 5.51762 42.2527 4.99387 41.6078 4.99387C40.9629 4.99387 40.4392 5.51762 40.4392 6.16251C40.4392 6.8074 40.9629 7.33115 41.6078 7.33115Z" fill="#F85454"/>
</svg>
