<svg width="48" height="48" viewBox="0 0 48 48" fill="none" xmlns="http://www.w3.org/2000/svg">
  <path d="M9.19108 43.1475C7.10633 42.9106 5.35324 42.6263 4.12134 42.2947C3.12635 42.0104 2.5104 41.6787 2.2735 41.5366C2.2735 41.2997 2.22612 40.5416 2.5104 39.5466C2.84207 38.3147 3.41063 36.6564 4.2161 34.7138C5.77967 31.0181 8.1487 26.28 10.8968 21.4472C11.797 19.8836 12.7446 18.2727 13.8344 16.4722L13.9765 16.2353L12.1287 15.0508L11.9865 15.3351C10.802 17.2303 9.85441 18.8412 9.00155 20.4048C6.20609 25.2376 3.78968 30.0705 2.17874 33.8135C1.32588 35.8509 0.709935 37.604 0.37827 38.978C-0.000775641 40.4942 -0.237679 41.584 0.37827 42.6263C0.994219 43.6687 2.03659 44.0004 3.55278 44.3794C4.92682 44.7585 6.72728 45.0428 8.95417 45.2797C12.3656 45.6587 16.772 45.8482 21.6522 45.8956H21.9839V43.7161H21.6996C16.8667 43.7161 12.5551 43.4792 9.19108 43.1475Z" fill="#F85454"/>
  <path d="M14.6384 15.1455C14.9227 14.7191 15.1596 14.2927 15.4439 13.9136L15.6808 13.582L13.833 12.3975L13.5961 12.7291C13.3118 13.1556 13.0749 13.5346 12.7906 14.0084L12.6484 14.2453L14.4963 15.4298L14.6384 15.1455Z" fill="#F85454"/>
  <path d="M43.2086 33.3869C43.3508 33.7186 43.4929 34.0503 43.635 34.3346L43.7772 34.6662L45.625 33.4817L45.5303 33.2448C45.3881 32.8658 45.1986 32.4867 45.0091 32.1077L44.7248 31.4443L42.877 32.6762L43.2086 33.3869Z" fill="#F85454"/>
  <path d="M36.7685 21.2104C38.8532 24.7639 40.7958 28.3175 42.312 31.4446L42.4542 31.7763L44.302 30.5917L44.1599 30.3548C42.6437 27.2277 40.7485 23.7215 38.6163 20.168C35.7735 15.2878 32.7885 10.834 30.3247 7.51735C28.9981 5.76426 27.7662 4.34284 26.7712 3.34785C25.6814 2.21071 24.8759 1.5 23.6914 1.5C22.5069 1.5 21.654 2.30547 20.5643 3.34785C19.5693 4.34284 18.4322 5.71688 17.1055 7.56473C16.3948 8.55972 15.5419 9.79162 14.5469 11.2604L14.3574 11.4973L16.2053 12.6818L16.3948 12.4449C17.3898 10.9761 18.1479 9.79162 18.8586 8.84401C20.0905 7.1383 21.2276 5.81164 22.1279 4.86403C22.8386 4.15332 23.5019 3.77427 23.7388 3.67951C23.9757 3.77427 24.5917 4.15332 25.3497 4.86403C26.25 5.76426 27.4345 7.09092 28.6664 8.74924C31.0828 12.0185 33.973 16.4249 36.7685 21.2104Z" fill="#F85454"/>
  <path d="M24.4478 43.7168L24.4004 43.9537L24.4478 43.7168C24.3057 43.7168 24.1635 43.7168 24.0214 43.7168C23.8319 43.7168 23.6423 43.7168 23.5002 43.7168H22.9316V45.8963H23.2159H23.6424H24.0688C24.1635 45.8963 24.2583 45.8963 24.3531 45.8963H24.4004C24.5426 45.8963 24.6847 45.8963 24.7795 45.8963H25.1112V43.7168H24.7795C24.6847 43.7168 24.5426 43.7168 24.4478 43.7168Z" fill="#F85454"/>
  <path d="M47.568 38.5992C47.2837 37.6042 46.8573 36.3249 46.1466 34.6666L46.0044 34.335L44.1566 35.5669L44.2513 35.8038C44.8199 37.2726 45.2463 38.3623 45.4359 39.1678C45.7201 40.1628 45.7201 40.8735 45.6728 41.1578C45.4832 41.2999 44.8199 41.679 43.8723 41.9632C42.6404 42.2949 40.8873 42.6266 38.8026 42.9109C35.4385 43.3373 31.1269 43.6216 26.294 43.7163H26.0098V45.8958H26.3414C31.269 45.8011 35.6754 45.5168 39.1342 45.0904C41.3611 44.8061 43.1616 44.4744 44.4882 44.0954C46.0044 43.669 47.0468 43.2899 47.6627 42.2475C48.2313 41.2052 47.9944 40.1628 47.568 38.5992Z" fill="#F85454"/>
  <path d="M31.9564 22.2112C31.7941 22.1022 31.5868 22.0809 31.4044 22.1531C31.3641 22.1697 27.4612 23.7143 24.18 22.1673C21.3633 20.8371 18.261 21.459 16.8195 21.8795V21.5182C16.8195 21.1913 16.5541 20.926 16.2272 20.926C15.9003 20.926 15.6349 21.1913 15.6349 21.5182V39.286C15.6349 39.6129 15.9003 39.8782 16.2272 39.8782C16.5541 39.8782 16.8195 39.6129 16.8195 39.286V32.597C17.8689 32.2547 20.9795 31.4409 23.6743 32.7143C24.9547 33.3196 26.2944 33.5209 27.5109 33.5209C29.8503 33.5209 31.7313 32.7759 31.8486 32.7285C32.0713 32.6373 32.2182 32.4205 32.2182 32.1789V22.7027C32.2182 22.5061 32.1199 22.3225 31.9564 22.2112ZM31.0337 31.7596C29.9783 32.1019 26.8689 32.9121 24.1789 31.6423C21.3633 30.3133 18.261 30.9351 16.8195 31.3556V23.1221C17.8689 22.7797 20.9795 21.966 23.6743 23.2393C26.4875 24.5672 29.5921 23.9465 31.0337 23.5248V31.7596Z" fill="#F85454"/>
  <path fill-rule="evenodd" clip-rule="evenodd" d="M32.2205 21.8178L32.2231 21.8196C32.5141 22.0177 32.692 22.3468 32.692 22.7027V32.1789C32.692 32.6143 32.4275 33.0034 32.0282 33.1669L32.0261 33.1678C31.8864 33.2242 29.9394 33.9947 27.5109 33.9947C26.244 33.9947 24.8312 33.7852 23.4718 33.1427C21.1824 32.0609 18.5327 32.5888 17.2933 32.9471V39.286C17.2933 39.8746 16.8158 40.352 16.2272 40.352C15.6386 40.352 15.1611 39.8746 15.1611 39.286V21.5182C15.1611 20.9296 15.6386 20.4521 16.2272 20.4521C16.7304 20.4521 17.1524 20.8011 17.2642 21.2702C18.9036 20.87 21.7472 20.4946 24.3821 21.7388M17.2933 21.7511C17.1204 21.7945 16.9618 21.838 16.8195 21.8795V21.5182C16.8195 21.4744 16.8147 21.4317 16.8056 21.3906C16.7472 21.1249 16.5103 20.926 16.2272 20.926C15.9003 20.926 15.6349 21.1913 15.6349 21.5182V39.286C15.6349 39.6129 15.9003 39.8782 16.2272 39.8782C16.5541 39.8782 16.8195 39.6129 16.8195 39.286V32.597C17.8689 32.2547 20.9795 31.4409 23.6743 32.7143C24.9547 33.3196 26.2944 33.5209 27.5109 33.5209C29.8503 33.5209 31.7313 32.7759 31.8486 32.7285C32.0713 32.6373 32.2182 32.4205 32.2182 32.1789V22.7027C32.2182 22.5061 32.1199 22.3225 31.9564 22.2112C31.7941 22.1022 31.5868 22.0809 31.4044 22.1531C31.3641 22.1697 27.4612 23.7143 24.18 22.1673C21.6414 20.9685 18.871 21.3552 17.2933 21.7511ZM24.3821 21.7388C25.9054 22.4569 27.5965 22.4658 28.9418 22.2773C30.2596 22.0927 31.1964 21.7258 31.2234 21.7152L31.224 21.715L31.2299 21.7126C31.5554 21.5836 31.927 21.6207 32.2205 21.8178M23.4718 23.6677C21.1824 22.5859 18.5327 23.1138 17.2933 23.4722V30.7392C18.937 30.3418 21.7627 29.9778 24.3811 31.2138L24.1789 31.6423C21.6413 30.4445 18.871 30.8313 17.2933 31.2272C17.1204 31.2706 16.9618 31.3141 16.8195 31.3556V23.1221C17.8689 22.7797 20.9795 21.966 23.6743 23.2393C26.2097 24.436 28.9818 24.0501 30.5599 23.6535C30.7328 23.61 30.8913 23.5664 31.0337 23.5248V31.7596C29.9783 32.1019 26.8689 32.9121 24.1789 31.6423L24.3811 31.2138C26.6669 32.2928 29.3161 31.7669 30.5599 31.4089V24.1415C28.9154 24.5397 26.0881 24.9026 23.4718 23.6677Z" fill="#F85454"/>
</svg>
