<svg width="14" height="14" viewBox="0 0 14 14" fill="none" xmlns="http://www.w3.org/2000/svg">
  <path d="M9.60283 6.99673C9.60283 8.43391 8.43781 9.59892 7.00063 9.59892C5.56345 9.59892 4.39844 8.43391 4.39844 6.99673C4.39844 5.55954 5.56345 4.39453 7.00063 4.39453C8.43781 4.39453 9.60283 5.55954 9.60283 6.99673Z" fill="#65676B"/>
  <path d="M13.0873 2.39351C12.9622 2.05454 12.7626 1.74773 12.5033 1.49589C12.2515 1.23659 11.9449 1.03703 11.6057 0.911936C11.3306 0.805102 10.9174 0.677938 10.1563 0.643294C9.33294 0.605747 9.08608 0.597656 7.00167 0.597656C4.91705 0.597656 4.67019 0.605539 3.84705 0.643087C3.08593 0.677938 2.67249 0.805102 2.39762 0.911936C2.05845 1.03703 1.75164 1.23659 1.50001 1.49589C1.2407 1.74773 1.04114 2.05434 0.915842 2.39351C0.809008 2.66858 0.681844 3.08202 0.6472 3.84314C0.609653 4.66628 0.601562 4.91314 0.601562 6.99776C0.601562 9.08217 0.609653 9.32903 0.6472 10.1524C0.681844 10.9135 0.809008 11.3267 0.915842 11.6018C1.04114 11.941 1.24049 12.2476 1.4998 12.4994C1.75164 12.7587 2.05824 12.9583 2.39742 13.0834C2.67249 13.1904 3.08593 13.3176 3.84705 13.3522C4.67019 13.3898 4.91684 13.3977 7.00146 13.3977C9.08628 13.3977 9.33314 13.3898 10.1561 13.3522C10.9172 13.3176 11.3306 13.1904 11.6057 13.0834C12.2865 12.8208 12.8247 12.2826 13.0873 11.6018C13.1941 11.3267 13.3213 10.9135 13.3561 10.1524C13.3937 9.32903 13.4016 9.08217 13.4016 6.99776C13.4016 4.91314 13.3937 4.66628 13.3561 3.84314C13.3215 3.08202 13.1943 2.66858 13.0873 2.39351ZM7.00167 11.0062C4.7876 11.0062 2.99279 9.21162 2.99279 6.99755C2.99279 4.78349 4.7876 2.98888 7.00167 2.98888C9.21552 2.98888 11.0103 4.78349 11.0103 6.99755C11.0103 9.21162 9.21552 11.0062 7.00167 11.0062ZM11.1688 3.76721C10.6515 3.76721 10.232 3.34776 10.232 2.83039C10.232 2.31302 10.6515 1.89357 11.1688 1.89357C11.6862 1.89357 12.1057 2.31302 12.1057 2.83039C12.1054 3.34776 11.6862 3.76721 11.1688 3.76721Z" fill="#65676B"/>
</svg>
