<svg width="18" height="15" viewBox="0 0 18 15" fill="none" xmlns="http://www.w3.org/2000/svg">
  <path d="M8.1569 7.92613H5.86042L9.20184 0.227465H6.98747C6.52526 0.227465 6.10145 0.487046 5.89088 0.89893L0 14.4408H1.90579C2.61964 14.4408 3.12556 14.1309 3.42354 13.5124L4.82342 10.2888H9.98059L9.23231 8.55918C9.01378 8.16716 8.60322 7.92613 8.1569 7.92613Z" fill="white"/>
  <path d="M13.6322 0C11.2218 0 9.26167 1.96009 9.26167 4.37048C9.26167 4.91083 9.36233 5.44323 9.55834 5.95179L9.5782 6.00212L9.59939 6.05112L9.65105 6.16899L11.1887 9.70378C11.1887 9.70378 12.7157 13.2386 13.2362 14.4107C13.3223 14.5908 13.4547 14.6702 13.6308 14.6702C13.8083 14.6702 13.946 14.5894 14.0255 14.4107C14.55 13.2386 16.073 9.70378 16.073 9.70378L17.6106 6.16899L17.6398 6.10277L17.6623 6.05112L17.6835 6.00212L17.7033 5.95179C17.9007 5.44323 18 4.91215 18 4.3718C18.0026 1.96009 16.0425 0 13.6322 0ZM15.2214 4.98632C15.1976 5.04062 13.6322 8.75684 13.6322 8.75684L12.0429 4.98632C11.9687 4.79428 11.9263 4.58768 11.9263 4.37048C11.9263 3.42884 12.6905 2.66467 13.6322 2.66467C14.5738 2.66467 15.338 3.42884 15.338 4.37048C15.338 4.58768 15.2956 4.7956 15.2214 4.98632Z" fill="white"/>
</svg>
