<svg width="16" height="16" viewBox="0 0 16 16" fill="none" xmlns="http://www.w3.org/2000/svg">
  <path d="M11.2555 8.00274C11.2555 9.79922 9.79922 11.2555 8.00274 11.2555C6.20627 11.2555 4.75 9.79922 4.75 8.00274C4.75 6.20627 6.20627 4.75 8.00274 4.75C9.79922 4.75 11.2555 6.20627 11.2555 8.00274Z" fill="white"/>
  <path d="M15.6072 2.24482C15.4508 1.82111 15.2013 1.4376 14.8772 1.1228C14.5624 0.798665 14.1791 0.549212 13.7552 0.39285C13.4113 0.259307 12.8948 0.100352 11.9434 0.0570475C10.9142 0.010113 10.6056 0 8.00013 0C5.39436 0 5.08578 0.00985367 4.05685 0.0567882C3.10546 0.100352 2.58866 0.259307 2.24508 0.39285C1.82111 0.549212 1.4376 0.798665 1.12306 1.1228C0.798924 1.4376 0.549471 1.82085 0.39285 2.24482C0.259307 2.58866 0.100352 3.10546 0.0570475 4.05685C0.010113 5.08578 0 5.39436 0 8.00013C0 10.6056 0.010113 10.9142 0.0570475 11.9434C0.100352 12.8948 0.259307 13.4113 0.39285 13.7552C0.549471 14.1791 0.798665 14.5624 1.1228 14.8772C1.4376 15.2013 1.82085 15.4508 2.24482 15.6072C2.58866 15.741 3.10546 15.8999 4.05685 15.9432C5.08578 15.9901 5.3941 16 7.99987 16C10.6059 16 10.9145 15.9901 11.9431 15.9432C12.8945 15.8999 13.4113 15.741 13.7552 15.6072C14.6062 15.2789 15.2789 14.6062 15.6072 13.7552C15.7407 13.4113 15.8996 12.8948 15.9432 11.9434C15.9901 10.9142 16 10.6056 16 8.00013C16 5.39436 15.9901 5.08578 15.9432 4.05685C15.8999 3.10546 15.741 2.58866 15.6072 2.24482ZM8.00013 13.0107C5.23255 13.0107 2.98903 10.7675 2.98903 7.99987C2.98903 5.23229 5.23255 2.98903 8.00013 2.98903C10.7675 2.98903 13.011 5.23229 13.011 7.99987C13.011 10.7675 10.7675 13.0107 8.00013 13.0107ZM13.2091 3.96195C12.5624 3.96195 12.0381 3.43763 12.0381 2.79092C12.0381 2.14421 12.5624 1.61989 13.2091 1.61989C13.8558 1.61989 14.3801 2.14421 14.3801 2.79092C14.3799 3.43763 13.8558 3.96195 13.2091 3.96195Z" fill="white"/>
</svg>
