<svg width="16" height="16" viewBox="0 0 16 16" fill="none" xmlns="http://www.w3.org/2000/svg">
  <path d="M5.06666 14.4885C11.1111 14.4885 14.4 9.51075 14.4 5.15519C14.4 4.97741 14.4 4.88852 14.4 4.71074C15.0222 4.2663 15.5556 3.64408 16 3.02185C15.3778 3.28852 14.7556 3.4663 14.1333 3.55519C14.8444 3.11074 15.2889 2.48852 15.5556 1.77741C14.9333 2.13296 14.2222 2.39963 13.5111 2.57741C12.8889 1.8663 12 1.51074 11.1111 1.51074C9.33333 1.51074 7.82222 3.02185 7.82222 4.79963C7.82222 5.0663 7.82222 5.33297 7.91111 5.51074C5.15555 5.33297 2.75555 4.08852 1.15555 2.04408C0.888887 2.48852 0.711109 3.11074 0.711109 3.73296C0.711109 4.88852 1.33333 5.8663 2.13333 6.48852C1.6 6.48852 1.06667 6.31074 0.622216 6.04408C0.622216 7.64408 1.77777 8.97741 3.28888 9.24408C3.02222 9.33297 2.75555 9.33297 2.4 9.33297C2.22222 9.33297 1.95555 9.33297 1.77777 9.24408C2.22222 10.5774 3.37777 11.4663 4.88889 11.5552C3.73333 12.4441 2.31111 12.9774 0.8 12.9774C0.533328 12.9774 0.266666 12.9774 0 12.8885C1.42222 13.9552 3.2 14.4885 5.06666 14.4885Z" fill="white"/>
</svg>
