<svg width="48" height="39" viewBox="0 0 48 39" fill="none" xmlns="http://www.w3.org/2000/svg">
  <path d="M34.5 16.5C36.7255 16.5 38.6524 15.687 40.2272 14.0829C41.8015 12.4791 42.6 10.5168 42.6 8.24974C42.6 5.98347 41.8018 4.02086 40.227 2.41654C38.6521 0.813005 36.7253 0 34.5 0C32.2742 0 30.3476 0.813005 28.773 2.4168C27.1985 4.0206 26.4 5.9832 26.4 8.24974C26.4 10.5168 27.1985 12.4794 28.773 14.0832C30.3481 15.6867 32.275 16.5 34.5 16.5ZM30.1667 3.8361C31.3749 2.60548 32.7923 2.00729 34.5 2.00729C36.2075 2.00729 37.6251 2.60548 38.8335 3.8361C40.0417 5.06697 40.6293 6.51083 40.6293 8.24974C40.6293 9.98917 40.0417 11.4328 38.8335 12.6636C37.6251 13.8945 36.2075 14.4927 34.5 14.4927C32.7928 14.4927 31.3755 13.8943 30.1667 12.6636C28.9583 11.433 28.3707 9.98917 28.3707 8.24974C28.3707 6.51083 28.9583 5.06697 30.1667 3.8361Z" fill="#F85454"/>
  <path d="M47.9346 25.6255C47.8909 25.0036 47.8025 24.3252 47.6724 23.6088C47.541 22.887 47.3719 22.2047 47.1694 21.5811C46.96 20.9365 46.6758 20.3 46.324 19.69C45.9593 19.0569 45.5307 18.5056 45.0497 18.0519C44.5468 17.5773 43.931 17.1957 43.2189 16.9174C42.5093 16.6405 41.7229 16.5002 40.8817 16.5002C40.5514 16.5002 40.2319 16.6339 39.6149 17.0301C39.2351 17.2744 38.791 17.5568 38.2952 17.8693C37.8712 18.1357 37.2969 18.3853 36.5876 18.6112C35.8955 18.8321 35.1928 18.9441 34.499 18.9441C33.8057 18.9441 33.103 18.8321 32.4104 18.6112C31.7018 18.3855 31.1273 18.1359 30.7041 17.8695C30.213 17.56 29.7686 17.2775 29.3831 17.0299C28.7666 16.6337 28.4471 16.5 28.1168 16.5C27.2753 16.5 26.4892 16.6405 25.7798 16.9176C25.0682 17.1955 24.4522 17.577 23.9488 18.0521C23.4678 18.506 23.0392 19.0571 22.6748 19.69C22.3234 20.3 22.039 20.9363 21.8296 21.5813C21.9992 21.059 23.5349 22.0795 23.8218 21.5813C24.0956 21.1065 24.9125 19.7316 25.2601 19.4034C25.5853 19.0963 25.9951 18.845 26.4781 18.6565C26.9247 18.4822 27.4267 18.3867 27.9716 18.3724C28.038 18.4072 28.1563 18.4736 28.3479 18.5969C28.7377 18.8474 29.1871 19.1333 29.6839 19.4462C30.2439 19.7983 30.9653 20.1164 31.8273 20.3908C32.7085 20.6718 33.6072 20.8145 34.4993 20.8145C35.3913 20.8145 36.2903 20.6718 37.171 20.3911C38.0337 20.1161 38.7549 19.7983 39.3156 19.4457C39.824 19.1253 40.2608 18.8477 40.6506 18.5969C40.8422 18.4739 40.9605 18.4072 41.0269 18.3724C41.5721 18.3867 42.074 18.4822 42.5209 18.6565C43.0036 18.845 43.4135 19.0965 43.7387 19.4034C44.0863 19.7314 44.4014 20.1388 44.6752 20.6141C44.9623 21.1121 45.1939 21.6295 45.3633 22.1514C45.5403 22.6968 45.6892 23.2983 45.8058 23.939C45.9238 24.5894 46.0038 25.2006 46.0428 25.7558C46.083 26.3205 46.1033 26.9113 46.1035 27.511C46.1033 28.6611 45.7739 29.5295 45.0962 30.1655C44.4051 30.8143 43.4876 31.1296 42.2911 31.1296H28.4053C27.4944 31.1296 28.2181 32.5888 28.3112 33H42.2913C43.974 33 45.3576 32.5023 46.4038 31.5207C47.463 30.5267 48 29.1774 48 27.5108C47.9998 26.8677 47.9778 26.2333 47.9346 25.6255Z" fill="#F85454"/>
  <path d="M15 21C17.4728 21 19.6137 20.1131 21.3636 18.3632C23.1128 16.6136 24 14.4729 24 11.9997C24 9.52742 23.1131 7.38639 21.3633 5.63623C19.6135 3.88691 17.4725 3 15 3C12.5269 3 10.3863 3.88691 8.63671 5.63651C6.88717 7.38611 6 9.52713 6 11.9997C6 14.4729 6.88717 16.6139 8.63671 18.3635C10.3868 20.1128 12.5278 21 15 21ZM10.1853 7.18483C11.5277 5.84235 13.1025 5.18977 15 5.18977C16.8972 5.18977 18.4723 5.84235 19.815 7.18483C21.1575 8.52761 21.8103 10.1027 21.8103 11.9997C21.8103 13.8973 21.1575 15.4721 19.815 16.8149C18.4723 18.1577 16.8972 18.8102 15 18.8102C13.1031 18.8102 11.5283 18.1574 10.1853 16.8149C8.84254 15.4724 8.1897 13.8973 8.1897 11.9997C8.1897 10.1027 8.84254 8.52761 10.1853 7.18483Z" fill="#F85454"/>
  <path d="M29.9273 30.9551C29.8787 30.2767 29.7805 29.5366 29.636 28.755C29.49 27.9677 29.3021 27.2233 29.0771 26.543C28.8445 25.8398 28.5287 25.1454 28.1378 24.48C27.7326 23.7893 27.2563 23.1879 26.7219 22.693C26.1631 22.1752 25.4789 21.759 24.6877 21.4553C23.8993 21.1533 23.0255 21.0003 22.0908 21.0003C21.7238 21.0003 21.3688 21.1461 20.6832 21.5783C20.2613 21.8448 19.7677 22.1529 19.2169 22.4937C18.7458 22.7844 18.1077 23.0566 17.3195 23.3032C16.5506 23.5441 15.7698 23.6663 14.9989 23.6663C14.2286 23.6663 13.4478 23.5441 12.6783 23.3032C11.8909 23.0569 11.2525 22.7846 10.7823 22.494C10.2367 22.1564 9.74285 21.8482 9.31461 21.5781C8.62959 21.1458 8.27459 21 7.90753 21C6.97258 21 6.09909 21.1533 5.31092 21.4556C4.52027 21.7587 3.8358 22.175 3.27642 22.6932C2.74201 23.1884 2.26576 23.7896 1.86084 24.48C1.47045 25.1454 1.15442 25.8396 0.921777 26.5433C0.697094 27.2236 0.509172 27.9677 0.363224 28.755C0.218373 29.5355 0.120435 30.2759 0.0718767 30.9559C0.0241418 31.6208 0 32.3129 0 33.012C0 34.8296 0.596686 36.301 1.77332 37.3862C2.93542 38.457 4.47281 39 6.34298 39H23.657C25.5266 39 27.064 38.457 28.2264 37.3862C29.4033 36.3018 30 34.8299 30 33.0118C29.9997 32.3102 29.9753 31.6182 29.9273 30.9551ZM26.7735 35.9079C26.0056 36.6156 24.9862 36.9596 23.6567 36.9596H6.34298C5.01326 36.9596 3.99382 36.6156 3.22622 35.9081C2.47316 35.214 2.10719 34.2664 2.10719 33.012C2.10719 32.3596 2.12941 31.7154 2.17386 31.097C2.2172 30.4903 2.30581 29.8237 2.43722 29.1155C2.56698 28.4161 2.73214 27.7597 2.92856 27.1654C3.11703 26.5956 3.37409 26.0314 3.69287 25.4878C3.99711 24.9698 4.34717 24.5254 4.73343 24.1673C5.09474 23.8323 5.55014 23.5582 6.08675 23.3526C6.58302 23.1624 7.14075 23.0582 7.74622 23.0426C7.82002 23.0806 7.95142 23.1531 8.16431 23.2875C8.59749 23.5608 9.09679 23.8727 9.64876 24.2141C10.271 24.5982 11.0726 24.9451 12.0303 25.2445C13.0094 25.5511 14.008 25.7067 14.9992 25.7067C15.9904 25.7067 16.9892 25.5511 17.9678 25.2448C18.9263 24.9449 19.7277 24.5982 20.3507 24.2135C20.9156 23.8639 21.4009 23.5611 21.834 23.2875C22.0469 23.1533 22.1783 23.0806 22.2521 23.0426C22.8579 23.0582 23.4156 23.1624 23.9122 23.3526C24.4485 23.5582 24.9039 23.8326 25.2652 24.1673C25.6515 24.5251 26.0015 24.9696 26.3058 25.4881C26.6248 26.0314 26.8821 26.5959 27.0703 27.1651C27.267 27.7602 27.4325 28.4163 27.562 29.1153C27.6931 29.8248 27.782 30.4916 27.8253 31.0973C27.87 31.7133 27.8925 32.3578 27.8928 33.012C27.8925 34.2667 27.5266 35.214 26.7735 35.9079Z" fill="#F85454"/>
</svg>
