<svg width="14" height="14" viewBox="0 0 14 14" fill="none" xmlns="http://www.w3.org/2000/svg">
  <path d="M4.71823 12.0881C9.62934 12.0881 12.3016 8.26104 12.3016 4.91233C12.3016 4.77565 12.3016 4.70731 12.3016 4.57063C12.8071 4.22892 13.2405 3.75054 13.6016 3.27215C13.096 3.47717 12.5904 3.61385 12.0849 3.68219C12.6627 3.34049 13.0238 2.8621 13.2405 2.31537C12.7349 2.58874 12.1571 2.79376 11.5793 2.93044C11.0738 2.38372 10.3516 2.11035 9.62934 2.11035C8.18489 2.11035 6.95712 3.27215 6.95712 4.63897C6.95712 4.84399 6.95712 5.04901 7.02934 5.18569C4.79045 5.04901 2.84045 4.09224 1.54045 2.5204C1.32378 2.8621 1.17934 3.34049 1.17934 3.81888C1.17934 4.70731 1.68489 5.45906 2.33489 5.93745C1.90156 5.93745 1.46823 5.80076 1.10711 5.59574C1.10711 6.82588 2.046 7.85099 3.27378 8.05601C3.05711 8.12436 2.84045 8.12436 2.55156 8.12436C2.40711 8.12436 2.19045 8.12436 2.046 8.05601C2.40711 9.08113 3.346 9.76454 4.57378 9.83288C3.63489 10.5163 2.47934 10.9263 1.25156 10.9263C1.03489 10.9263 0.818228 10.9263 0.601562 10.858C1.75712 11.6781 3.20156 12.0881 4.71823 12.0881Z" fill="#65676B"/>
</svg>
