<svg width="219" height="128" viewBox="0 0 219 128" fill="none" xmlns="http://www.w3.org/2000/svg">
  <mask id="mask0_2173_287337" style="mask-type:alpha" maskUnits="userSpaceOnUse" x="0" y="0" width="219" height="128">
    <rect width="219" height="128" rx="10" fill="white"/>
  </mask>
  <g mask="url(#mask0_2173_287337)">
    <path opacity="0.1" d="M134.104 107.779C134.104 103.341 135.47 98.0506 138.2 91.9066L169.944 20.2266H195.032L174.04 77.5706C180.184 79.6186 185.475 83.5439 189.912 89.3466C194.35 94.8079 196.568 100.952 196.568 107.779C196.568 116.653 193.496 124.163 187.352 130.307C181.55 136.109 174.211 139.011 165.336 139.011C156.462 139.011 148.952 136.109 142.808 130.307C137.006 124.163 134.104 116.653 134.104 107.779ZM47.9922 107.779C47.9922 103.341 49.3575 98.0506 52.0882 91.9066L83.8322 20.2266H108.92L87.9282 77.5706C94.0722 79.6186 99.3629 83.5439 103.8 89.3466C108.238 94.8079 110.456 100.952 110.456 107.779C110.456 116.653 107.384 124.163 101.24 130.307C95.4375 136.109 88.0989 139.011 79.2242 139.011C70.3495 139.011 62.8402 136.109 56.6962 130.307C50.8935 124.163 47.9922 116.653 47.9922 107.779Z" fill="#0C353E"/>
  </g>
</svg>
