<svg width="32" height="32" viewBox="0 0 32 32" fill="none" xmlns="http://www.w3.org/2000/svg">
<g clip-path="url(#clip0)">
<path d="M15.9997 32.0004C24.8361 32.0004 31.9994 24.8371 31.9994 16.0007C31.9994 7.16429 24.8361 0.000976562 15.9997 0.000976562C7.16332 0.000976562 0 7.16429 0 16.0007C0 24.8371 7.16332 32.0004 15.9997 32.0004Z" fill="#65676B"/>
<path d="M10.7769 12.8571C10.7769 11.3606 12.0392 10.1429 13.5904 10.1429H19C18.8051 9.48514 18.1838 9 17.4404 9H10.6289C9.73032 9 9 9.70457 9 10.5714V19.4286C9 20.2954 9.73032 21 10.6289 21H10.7769V12.8571Z" fill="white"/>
<path d="M21.3824 12H14.6176C13.7253 12 13 12.7398 13 13.65V22.35C13 23.2602 13.7253 24 14.6176 24H21.3824C22.2747 24 23 23.2602 23 22.35V13.65C23 12.7398 22.2747 12 21.3824 12Z" fill="white"/>
</g>
<defs>
<clipPath id="clip0">
<rect width="32" height="32" fill="white"/>
</clipPath>
</defs>
</svg>