<svg width="24" height="24" viewBox="0 0 24 24" fill="none" xmlns="http://www.w3.org/2000/svg">
<g clip-path="url(#clip0)">
<path d="M5.31891 14.5039L4.4835 17.6226L1.43011 17.6872C0.517594 15.9947 0 14.0582 0 12.0004C0 10.0105 0.483938 8.13402 1.34175 6.48172H1.34241L4.06078 6.98009L5.25159 9.68216C5.00236 10.4088 4.86652 11.1888 4.86652 12.0004C4.86661 12.8813 5.02617 13.7253 5.31891 14.5039Z" fill="#FBBB00"/>
<path d="M23.7902 9.75845C23.928 10.4844 23.9999 11.234 23.9999 12.0002C23.9999 12.8593 23.9095 13.6974 23.7375 14.5057C23.1533 17.2565 21.6269 19.6585 19.5124 21.3582L19.5118 21.3576L16.0878 21.1829L15.6032 18.1578C17.0063 17.335 18.1028 16.0472 18.6804 14.5057H12.2637V9.75845H18.774H23.7902Z" fill="#518EF8"/>
<path d="M19.5124 21.3572L19.5131 21.3578C17.4566 23.0108 14.8443 23.9998 12.0006 23.9998C7.43066 23.9998 3.45749 21.4455 1.43066 17.6866L5.31946 14.5034C6.33285 17.208 8.94187 19.1332 12.0006 19.1332C13.3153 19.1332 14.5469 18.7778 15.6038 18.1574L19.5124 21.3572Z" fill="#28B446"/>
<path d="M19.6596 2.76262L15.7721 5.94525C14.6783 5.26153 13.3853 4.86656 12 4.86656C8.87213 4.86656 6.21431 6.88017 5.25169 9.68175L1.34245 6.48131H1.3418C3.33895 2.63077 7.36223 0 12 0C14.9117 0 17.5814 1.03716 19.6596 2.76262Z" fill="#F14336"/>
</g>
<defs>
<clipPath id="clip0">
<rect width="24" height="24" fill="white"/>
</clipPath>
</defs>
</svg>