<svg width="32" height="32" viewBox="0 0 32 32" fill="none" xmlns="http://www.w3.org/2000/svg">
<g clip-path="url(#clip0)">
<path d="M16 31.999C24.8366 31.999 32 24.8356 32 15.999C32 7.16247 24.8366 -0.000976562 16 -0.000976562C7.16344 -0.000976562 0 7.16247 0 15.999C0 24.8356 7.16344 31.999 16 31.999Z" fill="#007AB9"/>
<path d="M25.5596 17.2873V23.8837H21.7351V17.7294C21.7351 16.1841 21.183 15.1288 19.7982 15.1288C18.7415 15.1288 18.1138 15.8392 17.8365 16.5272C17.7358 16.773 17.7099 17.1144 17.7099 17.4593V23.8834H13.8852C13.8852 23.8834 13.9365 13.46 13.8852 12.381H17.7102V14.011C17.7025 14.0238 17.6916 14.0364 17.6848 14.0487H17.7102V14.011C18.2184 13.229 19.1248 12.1109 21.157 12.1109C23.6732 12.1109 25.5596 13.7549 25.5596 17.2873ZM9.88416 6.83643C8.57588 6.83643 7.71995 7.69521 7.71995 8.82352C7.71995 9.92787 8.55106 10.8115 9.83396 10.8115H9.85878C11.1927 10.8115 12.0221 9.92787 12.0221 8.82352C11.9967 7.69521 11.1927 6.83643 9.88416 6.83643ZM7.94726 23.8837H11.7706V12.381H7.94726V23.8837Z" fill="#F1F2F2"/>
</g>
<defs>
<clipPath id="clip0">
<rect width="32" height="32" fill="white"/>
</clipPath>
</defs>
</svg>
