<svg width="32" height="32" viewBox="0 0 32 32" fill="none" xmlns="http://www.w3.org/2000/svg">
<circle cx="16" cy="16" r="16" fill="#1DA1F2"/>
<path d="M12.3464 22.9999C18.7618 22.9999 22.2701 17.9989 22.2701 13.6624C22.2701 13.5203 22.267 13.3789 22.2602 13.2382C22.9411 12.7749 23.5331 12.1968 24 11.5388C23.3751 11.8002 22.7025 11.976 21.997 12.0555C22.7171 11.6491 23.2701 11.0064 23.5307 10.2403C22.8568 10.6162 22.1105 10.8893 21.316 11.0368C20.6796 10.3989 19.7733 10 18.77 10C16.8439 10 15.282 11.4697 15.282 13.2814C15.282 13.539 15.3126 13.7894 15.3724 14.0297C12.4736 13.8924 9.90307 12.5866 8.18299 10.6008C7.88351 11.0858 7.71075 11.6492 7.71075 12.2504C7.71075 13.3889 8.32657 14.3941 9.26287 14.9821C8.69064 14.9655 8.15316 14.8177 7.68326 14.5717C7.68274 14.5855 7.68274 14.5989 7.68274 14.6135C7.68274 16.203 8.88493 17.53 10.481 17.8307C10.1879 17.9058 9.87946 17.9462 9.56131 17.9462C9.33693 17.9462 9.11826 17.9254 8.90568 17.887C9.34977 19.1909 10.6374 20.1398 12.164 20.1664C10.9702 21.0468 9.46637 21.5712 7.83202 21.5712C7.55083 21.5712 7.27302 21.556 7 21.5258C8.54356 22.4567 10.3766 23 12.3465 23" fill="white"/>
</svg>
