<svg width="32" height="32" viewBox="0 0 32 36" fill="none" xmlns="http://www.w3.org/2000/svg">
<g filter="url(#filter0_d)">
<path fill-rule="evenodd" clip-rule="evenodd" d="M11.234 6.9V20.1807L15.1769 17.1708C15.6805 16.7864 16.3793 16.788 16.8811 17.1747L20.7673 20.17V6.9H11.234ZM21.6673 6.5C21.6673 6.22386 21.4435 6 21.1673 6H10.834C10.5578 6 10.334 6.22386 10.334 6.5V21.5957C10.334 21.7613 10.5237 21.8552 10.6553 21.7547L15.723 17.8861C15.9029 17.7489 16.1525 17.7494 16.3317 17.8876L21.3452 21.7517C21.4767 21.8531 21.6673 21.7594 21.6673 21.5933V6.5Z" fill="#9e9090"/>
</g>
<defs>
<filter id="filter0_d" x="0.333984" y="0" width="31.3333" height="35.7961" filterUnits="userSpaceOnUse" color-interpolation-filters="sRGB">
<feFlood flood-opacity="0" result="BackgroundImageFix"/>
<feColorMatrix in="SourceAlpha" type="matrix" values="0 0 0 0 0 0 0 0 0 0 0 0 0 0 0 0 0 0 127 0"/>
<feOffset dy="4"/>
<feGaussianBlur stdDeviation="5"/>
<feColorMatrix type="matrix" values="0 0 0 0 0.0403125 0 0 0 0 0.154173 0 0 0 0 0.179167 0 0 0 0.15 0"/>
<feBlend mode="normal" in2="BackgroundImageFix" result="effect1_dropShadow"/>
<feBlend mode="normal" in="SourceGraphic" in2="effect1_dropShadow" result="shape"/>
</filter>
</defs>
</svg>
