<svg width="16" height="16" viewBox="0 0 16 16" fill="none" xmlns="http://www.w3.org/2000/svg">
<path fill-rule="evenodd" clip-rule="evenodd" d="M3.85748 2.13679C3.85748 3.12596 3.11345 3.91888 1.91724 3.91888H1.89495C0.743317 3.9196 0 3.12524 0 2.13679C0 1.12389 0.76704 0.35254 1.93952 0.35254C3.11345 0.351821 3.83592 1.12389 3.85748 2.13679ZM0.20079 15.6466H3.63126V5.3286H0.20079V15.6466ZM12.0508 5.08691C10.2313 5.08691 9.41684 6.08615 8.95892 6.79064V6.82371H8.93663C8.94526 6.81365 8.95317 6.80215 8.95892 6.79064V5.32917H5.52917C5.57374 6.29606 5.52917 15.6472 5.52917 15.6472H8.95892V9.88468C8.95892 9.57413 8.97976 9.27004 9.07178 9.04791C9.32051 8.43399 9.88555 7.79204 10.8301 7.79204C12.0731 7.79204 12.5698 8.74023 12.5698 10.1262V15.6472H15.9996V9.73156C16.0003 6.55989 14.3066 5.08691 12.0508 5.08691Z" fill="#9e9090"/>
</svg>
