<svg width="12" height="12" viewBox="0 0 12 12" fill="none" xmlns="http://www.w3.org/2000/svg">
<path d="M5.9563 6.46594C5.96873 6.46594 5.98115 6.46594 5.99606 6.46594C6.00103 6.46594 6.006 6.46594 6.01097 6.46594C6.01843 6.46594 6.02837 6.46594 6.03582 6.46594C6.76392 6.45351 7.35286 6.19756 7.78774 5.70801C8.74446 4.62953 8.58542 2.7807 8.56802 2.60427C8.5059 1.27977 7.87968 0.646097 7.3628 0.350383C6.97763 0.129219 6.52785 0.00993995 6.02588 0H6.00849C6.006 0 6.00103 0 5.99855 0H5.98364C5.7078 0 5.16608 0.0447298 4.64671 0.340443C4.12487 0.636157 3.48871 1.26983 3.42659 2.60427C3.40919 2.7807 3.25015 4.62953 4.20687 5.70801C4.63926 6.19756 5.2282 6.45351 5.9563 6.46594ZM4.09008 2.66639C4.09008 2.65894 4.09256 2.65148 4.09256 2.64651C4.17457 0.864775 5.43943 0.673431 5.98115 0.673431H5.99109C5.99606 0.673431 6.00352 0.673431 6.01097 0.673431C6.68192 0.688341 7.82253 0.96169 7.89956 2.64651C7.89956 2.65397 7.89956 2.66142 7.90205 2.66639C7.90453 2.68379 8.07848 4.37358 7.28826 5.2632C6.97515 5.61607 6.55767 5.79002 6.00849 5.79499C6.00352 5.79499 6.00103 5.79499 5.99606 5.79499C5.99109 5.79499 5.98861 5.79499 5.98364 5.79499C5.43694 5.79002 5.01698 5.61607 4.70635 5.2632C3.91861 4.37855 4.08759 2.6813 4.09008 2.66639Z" fill="#0C353E"/>
<path d="M11.103 9.53164C11.103 9.52915 11.103 9.52667 11.103 9.52418C11.103 9.5043 11.1005 9.48442 11.1005 9.46206C11.0856 8.97003 11.0533 7.81948 9.97482 7.4517C9.96736 7.44922 9.95742 7.44673 9.94997 7.44425C8.82924 7.15847 7.89737 6.51237 7.88743 6.50492C7.73584 6.39806 7.5271 6.43534 7.42025 6.58692C7.3134 6.73851 7.35067 6.94725 7.50225 7.0541C7.5445 7.08392 8.53352 7.77226 9.77105 8.09034C10.35 8.2966 10.4147 8.91536 10.4321 9.48194C10.4321 9.5043 10.4321 9.52418 10.4345 9.54406C10.437 9.76771 10.4221 10.1131 10.3824 10.3119C9.97979 10.5405 8.40182 11.3308 6.00132 11.3308C3.61077 11.3308 2.02286 10.5381 1.61781 10.3094C1.57805 10.1106 1.56065 9.76523 1.56562 9.54158C1.56562 9.5217 1.56811 9.50182 1.56811 9.47945C1.5855 8.91287 1.65011 8.29411 2.22911 8.08786C3.46664 7.76978 4.45566 7.07895 4.49791 7.05162C4.64949 6.94476 4.68676 6.73602 4.57991 6.58444C4.47306 6.43285 4.26432 6.39558 4.11273 6.50243C4.10279 6.50989 3.17589 7.15599 2.05019 7.44176C2.04025 7.44425 2.0328 7.44673 2.02534 7.44922C0.94686 7.81948 0.914556 8.97003 0.899646 9.45957C0.899646 9.48194 0.899646 9.50182 0.897161 9.5217C0.897161 9.52418 0.897161 9.52667 0.897161 9.52915C0.894676 9.65837 0.892191 10.3219 1.0239 10.6549C1.04874 10.7195 1.09347 10.7741 1.15311 10.8114C1.22766 10.8611 3.01437 11.9992 6.00381 11.9992C8.99325 11.9992 10.78 10.8586 10.8545 10.8114C10.9117 10.7741 10.9589 10.7195 10.9837 10.6549C11.108 10.3243 11.1055 9.66086 11.103 9.53164Z" fill="#0C353E"/>
</svg>