<svg width="24" height="24" viewBox="0 0 24 24" fill="none" xmlns="http://www.w3.org/2000/svg">
<circle cx="12" cy="12" r="11.5" fill="white" fill-opacity="0.5" stroke="#C2C8C9"/>
<path fill-rule="evenodd" clip-rule="evenodd" d="M13.7888 8.89068C12.071 7.1729 9.28618 7.1729 7.56841 8.89068C5.85064 10.6085 5.85064 13.3933 7.56841 15.1111C9.28618 16.8288 12.071 16.8288 13.7888 15.1111C13.911 14.9889 14.1091 14.9889 14.2313 15.1111C14.3535 15.2333 14.3535 15.4314 14.2313 15.5536C12.2691 17.5157 9.08807 17.5157 7.12591 15.5536C5.16376 13.5914 5.16376 10.4103 7.12591 8.44818C9.08807 6.48602 12.2691 6.48602 14.2313 8.44818C14.3535 8.57037 14.3535 8.76849 14.2313 8.89068C14.1091 9.01287 13.911 9.01287 13.7888 8.89068Z" fill="#65676B"/>
<path fill-rule="evenodd" clip-rule="evenodd" d="M10.3657 12.0009C10.3657 11.8281 10.5058 11.688 10.6786 11.688H16.9341C17.1069 11.688 17.247 11.8281 17.247 12.0009C17.247 12.1737 17.1069 12.3138 16.9341 12.3138H10.6786C10.5058 12.3138 10.3657 12.1737 10.3657 12.0009Z" fill="#65676B"/>
<path fill-rule="evenodd" clip-rule="evenodd" d="M15.4545 10.114C15.5767 9.99183 15.7748 9.99183 15.897 10.114L17.5627 11.7797C17.6848 11.9019 17.6848 12.1 17.5627 12.2222L15.897 13.8879C15.7748 14.0101 15.5767 14.0101 15.4545 13.8879C15.3323 13.7657 15.3323 13.5676 15.4545 13.4454L16.8989 12.001L15.4545 10.5565C15.3323 10.4343 15.3323 10.2362 15.4545 10.114Z" fill="#65676B"/>
</svg>