<svg width="24" height="24" viewBox="0 0 24 24" fill="none" xmlns="http://www.w3.org/2000/svg">
<path d="M12.0151 24C9.94714 24 8.26514 22.318 8.26514 20.25C8.26514 19.836 8.60114 19.5 9.01514 19.5C9.42914 19.5 9.76514 19.836 9.76514 20.25C9.76514 21.4911 10.7742 22.5 12.0151 22.5C13.2562 22.5 14.2651 21.4911 14.2651 20.25C14.2651 19.836 14.6011 19.5 15.0151 19.5C15.4291 19.5 15.7651 19.836 15.7651 20.25C15.7651 22.318 14.0831 24 12.0151 24Z" fill="#ffffff"/>
<path d="M20.2656 21H3.76556C2.8006 21 2.01562 20.215 2.01562 19.2501C2.01562 18.7379 2.23865 18.2531 2.62756 17.92C4.14862 16.6349 5.01562 14.7671 5.01562 12.7881V9.99994C5.01562 6.14008 8.1557 3 12.0156 3C15.8756 3 19.0157 6.14008 19.0157 9.99994V12.7881C19.0157 14.7671 19.8827 16.6349 21.3937 17.913C21.7927 18.2531 22.0157 18.7379 22.0157 19.2501C22.0157 20.215 21.2307 21 20.2656 21ZM12.0156 4.5C8.9826 4.5 6.51562 6.96698 6.51562 9.99994V12.7881C6.51562 15.2089 5.45471 17.495 3.60571 19.058C3.57056 19.088 3.51562 19.1501 3.51562 19.2501C3.51562 19.3859 3.6297 19.5 3.76556 19.5H20.2656C20.4016 19.5 20.5157 19.3859 20.5157 19.2501C20.5157 19.1501 20.4606 19.088 20.4276 19.06C18.5766 17.495 17.5157 15.2089 17.5157 12.7881V9.99994C17.5157 6.96698 15.0487 4.5 12.0156 4.5Z" fill="#ffffff"/>
<path d="M12.0151 4.5C11.6011 4.5 11.2651 4.164 11.2651 3.75V0.75C11.2651 0.335999 11.6011 0 12.0151 0C12.4291 0 12.7651 0.335999 12.7651 0.75V3.75C12.7651 4.164 12.4291 4.5 12.0151 4.5Z" fill="#ffffff"/>
</svg>