<svg width="12" height="12" viewBox="0 0 12 12" fill="none" xmlns="http://www.w3.org/2000/svg">
<path d="M6.00732 12C4.97333 12 4.13232 11.159 4.13232 10.125C4.13232 9.918 4.30032 9.75 4.50732 9.75C4.71433 9.75 4.88232 9.918 4.88232 10.125C4.88232 10.7455 5.38687 11.25 6.00732 11.25C6.62787 11.25 7.13232 10.7455 7.13232 10.125C7.13232 9.918 7.30032 9.75 7.50732 9.75C7.71433 9.75 7.88233 9.918 7.88233 10.125C7.88233 11.159 7.04132 12 6.00732 12Z" fill="#0C353E"/>
<path d="M10.1328 10.5H1.88278C1.4003 10.5 1.00781 10.1075 1.00781 9.62503C1.00781 9.36896 1.11932 9.12653 1.31378 8.95999C2.07431 8.31747 2.50781 7.38354 2.50781 6.39404V4.99997C2.50781 3.07004 4.07785 1.5 6.00778 1.5C7.93781 1.5 9.50784 3.07004 9.50784 4.99997V6.39404C9.50784 7.38354 9.94135 8.31747 10.6968 8.95651C10.8963 9.12653 11.0078 9.36896 11.0078 9.62503C11.0078 10.1075 10.6154 10.5 10.1328 10.5ZM6.00778 2.25C4.4913 2.25 3.25781 3.48349 3.25781 4.99997V6.39404C3.25781 7.60446 2.72736 8.7475 1.80286 9.52899C1.78528 9.54401 1.75781 9.57504 1.75781 9.62503C1.75781 9.69296 1.81485 9.75 1.88278 9.75H10.1328C10.2008 9.75 10.2578 9.69296 10.2578 9.62503C10.2578 9.57504 10.2303 9.54401 10.2138 9.53C9.2883 8.7475 8.75784 7.60446 8.75784 6.39404V4.99997C8.75784 3.48349 7.52435 2.25 6.00778 2.25Z" fill="#0C353E"/>
<path d="M6.00732 2.25C5.80032 2.25 5.63232 2.082 5.63232 1.875V0.375C5.63232 0.167999 5.80032 0 6.00732 0C6.21433 0 6.38233 0.167999 6.38233 0.375V1.875C6.38233 2.082 6.21433 2.25 6.00732 2.25Z" fill="#0C353E"/>
</svg>