<svg width="12" height="12" viewBox="0 0 12 12" fill="none" xmlns="http://www.w3.org/2000/svg">
<path fill-rule="evenodd" clip-rule="evenodd" d="M10.3709 5.86341C10.9161 5.86341 11.3582 5.42062 11.3582 4.87441C11.3582 4.3282 10.9161 3.88542 10.3709 3.88542C9.82565 3.88542 9.38364 4.3282 9.38364 4.87441C9.38364 5.42062 9.82565 5.86341 10.3709 5.86341ZM10.3709 6.3234C11.1697 6.3234 11.8173 5.67467 11.8173 4.87441C11.8173 4.07416 11.1697 3.42542 10.3709 3.42542C9.57205 3.42542 8.92445 4.07416 8.92445 4.87441C8.92445 5.67467 9.57205 6.3234 10.3709 6.3234Z" fill="#0C353E"/>
<path fill-rule="evenodd" clip-rule="evenodd" d="M1.63484 5.86341C2.18009 5.86341 2.6221 5.42062 2.6221 4.87441C2.6221 4.3282 2.18009 3.88542 1.63484 3.88542C1.0896 3.88542 0.647589 4.3282 0.647589 4.87441C0.647589 5.42062 1.0896 5.86341 1.63484 5.86341ZM1.63484 6.3234C2.43369 6.3234 3.08129 5.67467 3.08129 4.87441C3.08129 4.07416 2.43369 3.42542 1.63484 3.42542C0.835995 3.42542 0.188401 4.07416 0.188401 4.87441C0.188401 5.67467 0.835995 6.3234 1.63484 6.3234Z" fill="#0C353E"/>
<path fill-rule="evenodd" clip-rule="evenodd" d="M3.6697 0.777903C3.75375 0.682792 3.89885 0.673944 3.99379 0.758141L5.0505 1.69523C5.14544 1.77943 5.15427 1.92478 5.07022 2.0199C4.98617 2.11501 4.84107 2.12386 4.74613 2.03966L3.68943 1.10257C3.59448 1.01837 3.58565 0.873015 3.6697 0.777903Z" fill="#0C353E"/>
<path fill-rule="evenodd" clip-rule="evenodd" d="M8.32456 0.777903C8.24051 0.682792 8.09541 0.673944 8.00047 0.758141L6.94376 1.69523C6.84882 1.77943 6.83999 1.92478 6.92404 2.0199C7.00809 2.11501 7.15319 2.12386 7.24813 2.03966L8.30483 1.10257C8.39978 1.01837 8.40861 0.873015 8.32456 0.777903Z" fill="#0C353E"/>
<path fill-rule="evenodd" clip-rule="evenodd" d="M6.00861 0.145119C6.13541 0.145119 6.2382 0.248093 6.2382 0.375118V1.36411C6.2382 1.49114 6.13541 1.59411 6.00861 1.59411C5.88181 1.59411 5.77902 1.49114 5.77902 1.36411V0.375118C5.77902 0.248093 5.88181 0.145119 6.00861 0.145119Z" fill="#0C353E"/>
<path fill-rule="evenodd" clip-rule="evenodd" d="M2.70245 11.8549H0.579202C0.318143 11.8549 0.0708784 11.6461 0.0741057 11.3449C0.0783623 10.9477 0.107508 8.19381 0.102441 7.99089C0.0964171 7.74966 0.203353 7.43231 0.419005 7.16794C0.651024 6.88351 1.01825 6.64704 1.53708 6.60118C1.72217 6.58482 1.91062 6.57772 2.08792 6.57104C2.11116 6.57017 2.13422 6.5693 2.15705 6.56842C2.35913 6.56062 2.54967 6.55171 2.73825 6.53031C3.1098 6.48815 3.45752 6.39894 3.79613 6.18653C4.39606 5.81019 4.79114 5.27512 4.96171 4.84319C5.10269 4.48619 5.12496 4.25604 5.15624 3.93267C5.16447 3.84762 5.17332 3.75613 5.18512 3.65418C5.21231 3.41929 5.32806 3.22007 5.50839 3.09106C5.67966 2.96852 5.88037 2.92925 6.05933 2.94487C6.40982 2.97547 6.81792 3.24913 6.81792 3.75891C6.81792 4.00836 6.78406 4.44762 6.66355 4.92991C6.54381 5.40917 6.32956 5.96723 5.94516 6.42012C5.61528 6.80877 5.37231 7.05725 5.14536 7.24681C4.92737 7.42888 4.73358 7.5481 4.5271 7.67512C4.51755 7.68099 4.50798 7.68688 4.49838 7.69279C4.28836 7.82209 4.00361 7.92522 3.75769 8.00169C3.56206 8.06252 3.36665 8.11371 3.20755 8.15232V11.3489C3.20755 11.6283 2.98141 11.8549 2.70245 11.8549ZM2.70245 11.3949H0.579202C0.553648 11.3949 0.532993 11.3755 0.533267 11.3499C0.537424 10.962 0.566825 8.19323 0.561485 7.97939C0.555742 7.74939 0.796817 7.12839 1.57744 7.05939C1.75016 7.04413 1.92634 7.03747 2.10499 7.03073C2.73376 7.00699 3.3931 6.9821 4.03984 6.5764C4.72273 6.14801 5.18206 5.53565 5.3887 5.0124C5.55517 4.59085 5.58364 4.29246 5.61556 3.95787C5.62326 3.87715 5.63116 3.79433 5.64125 3.70716C5.69316 3.25866 6.35873 3.32766 6.35873 3.75891C6.35873 4.19016 6.2382 5.36475 5.59533 6.12215C4.96329 6.8668 4.70853 7.02359 4.28011 7.28725C4.27277 7.29176 4.26539 7.29631 4.25795 7.30089C3.94201 7.4954 3.30636 7.65864 2.96953 7.73591C2.84124 7.76535 2.74837 7.87893 2.74837 8.01078V11.3489C2.74837 11.3743 2.72781 11.3949 2.70245 11.3949Z" fill="#0C353E"/>
<path fill-rule="evenodd" clip-rule="evenodd" d="M6.2209 4.90932L6.2173 4.92025C6.2149 4.92756 6.21135 4.9383 6.20686 4.95181C6.19789 4.97884 6.18521 5.01681 6.17047 5.06034C6.14063 5.14841 6.10362 5.25541 6.07194 5.34058C6.04755 5.40618 5.9994 5.51006 5.95058 5.60935C5.92744 5.65641 5.90618 5.69836 5.89071 5.72853C5.883 5.74357 5.87679 5.75557 5.87257 5.76368C5.87161 5.76551 5.87076 5.76715 5.87002 5.76858C5.86912 5.77029 5.86781 5.77279 5.86781 5.77279L5.86646 5.77538L5.72155 6.05074L5.92282 6.28788C6.59693 7.08209 7.01841 7.39522 7.50162 7.69272C7.71164 7.82202 7.99639 7.92515 8.24231 8.00162C8.43794 8.06245 8.63335 8.11364 8.79245 8.15225V11.3488C8.79245 11.6283 9.01859 11.8548 9.29755 11.8548H11.4208C11.6819 11.8548 11.9291 11.646 11.9259 11.3448C11.9216 10.9476 11.8925 8.19374 11.8976 7.99082C11.9036 7.74959 11.7966 7.43224 11.581 7.16787C11.349 6.88344 10.9818 6.64696 10.4629 6.6011C10.2778 6.58474 10.0894 6.57765 9.91208 6.57097C9.88883 6.5701 9.86578 6.56923 9.84295 6.56835C9.64087 6.56055 9.45033 6.55164 9.26175 6.53024C8.8902 6.48808 8.54248 6.39887 8.20387 6.18646C7.63447 5.82927 7.32281 5.28799 7.05984 4.83126L6.54127 3.93067L6.2209 4.90932ZM6.27265 5.98991C6.27265 5.98991 6.37886 5.78809 6.45482 5.61618C6.47298 5.57507 6.48941 5.53568 6.50225 5.50116C6.57041 5.31786 6.65722 5.05266 6.65722 5.05266C6.66316 5.06298 6.66916 5.0734 6.67521 5.08392C6.75919 5.22991 6.85422 5.39509 6.96736 5.56594C7.20062 5.91817 7.51089 6.2945 7.96016 6.57632C8.6069 6.98203 9.26624 7.00692 9.89501 7.03066C10.0737 7.0374 10.2498 7.04405 10.4226 7.05932C11.2032 7.12832 11.4443 7.74932 11.4385 7.97932C11.4332 8.19316 11.4626 10.9619 11.4667 11.3498C11.467 11.3754 11.4464 11.3948 11.4208 11.3948H9.29755C9.27219 11.3948 9.25163 11.3742 9.25163 11.3488V8.01071C9.25163 7.87886 9.15876 7.76528 9.03047 7.73584C8.69364 7.65857 8.05799 7.49533 7.74205 7.30082C7.30008 7.02872 6.91551 6.74731 6.27265 5.98991Z" fill="#0C353E"/>
<path fill-rule="evenodd" clip-rule="evenodd" d="M5.94186 6.424C5.61366 6.81043 5.37155 7.05788 5.14536 7.24681C4.92737 7.42888 4.73358 7.5481 4.5271 7.67512L4.49838 7.69279C4.28836 7.82209 4.00361 7.92522 3.75769 8.00169C3.56206 8.06252 3.36665 8.11371 3.20755 8.15232V11.3489C3.20755 11.6283 2.98141 11.8549 2.70245 11.8549H0.579202C0.318143 11.8549 0.0708784 11.6461 0.0741057 11.3449C0.0783623 10.9477 0.107508 8.19381 0.102441 7.99089C0.0964171 7.74966 0.203353 7.43231 0.419005 7.16794C0.651024 6.88351 1.01825 6.64704 1.53708 6.60118C1.72217 6.58482 1.91062 6.57772 2.08792 6.57104L2.15705 6.56842C2.35913 6.56062 2.54967 6.55171 2.73825 6.53031C3.1098 6.48815 3.45752 6.39894 3.79613 6.18653C4.39606 5.81019 4.79114 5.27512 4.96171 4.84319C5.10269 4.48619 5.12496 4.25604 5.15624 3.93267C5.16447 3.84762 5.17332 3.75613 5.18512 3.65418C5.21231 3.41929 5.32806 3.22007 5.50839 3.09106C5.67966 2.96852 5.88037 2.92925 6.05933 2.94487C6.40982 2.97547 6.81792 3.24913 6.81792 3.75891C6.81792 3.87491 6.8106 4.03196 6.79064 4.2153C6.78632 4.25503 6.7814 4.29599 6.77584 4.33804L7.05984 4.83126C7.32281 5.28799 7.63447 5.82927 8.20387 6.18646C8.54248 6.39887 8.8902 6.48808 9.26175 6.53024C9.45033 6.55164 9.64087 6.56055 9.84295 6.56835L9.91208 6.57097C10.0894 6.57765 10.2778 6.58474 10.4629 6.6011C10.9818 6.64696 11.349 6.88344 11.581 7.16787C11.7966 7.43224 11.9036 7.74959 11.8976 7.99082C11.8925 8.19374 11.9216 10.9476 11.9259 11.3448C11.9291 11.646 11.6819 11.8548 11.4208 11.8548H9.29755C9.01859 11.8548 8.79245 11.6283 8.79245 11.3488V8.15225C8.63335 8.11364 8.43794 8.06245 8.24231 8.00162C7.99639 7.92515 7.71164 7.82202 7.50162 7.69272C7.0468 7.4127 6.64667 7.11883 6.03908 6.42297C6.0228 6.40432 6.00637 6.38538 5.98978 6.36615C5.97517 6.38429 5.9603 6.40229 5.94516 6.42012C5.94406 6.42141 5.94296 6.42271 5.94186 6.424ZM5.99102 6.48054C5.66513 6.8637 5.42186 7.11238 5.19284 7.30366C4.97074 7.48917 4.77312 7.61074 4.56715 7.73745L4.53721 7.75587C4.31881 7.89033 4.02652 7.99567 3.77969 8.07242C3.6048 8.1268 3.43038 8.17347 3.28163 8.21041V11.3489C3.28163 11.6691 3.02244 11.9289 2.70245 11.9289H0.579202C0.28094 11.9289 -0.00367501 11.6904 3.58945e-05 11.3441C0.00430865 10.9454 0.0334129 8.1939 0.0283899 7.99274C0.0218585 7.73118 0.136556 7.39701 0.361606 7.12112C0.605678 6.82191 0.990934 6.57509 1.53056 6.52739C1.71752 6.51086 1.90754 6.50371 2.08429 6.49706L2.1542 6.4944C2.3562 6.48661 2.54432 6.47777 2.7299 6.45671C3.09455 6.41533 3.43052 6.32843 3.75677 6.12378C4.34331 5.75584 4.72804 5.23322 4.89281 4.81598C5.02979 4.46913 5.05135 4.24766 5.08251 3.92553C5.09073 3.84061 5.09966 3.74829 5.11154 3.64567C5.141 3.39109 5.26708 3.17262 5.46529 3.03081C5.65301 2.89652 5.87193 2.85415 6.06577 2.87108C6.4436 2.90407 6.892 3.20065 6.892 3.75891C6.892 3.89807 6.88172 4.094 6.85252 4.32277L7.12404 4.7943C7.3879 5.25258 7.69156 5.77764 8.24323 6.12371C8.56948 6.32836 8.90545 6.41526 9.2701 6.45664C9.45568 6.47769 9.6438 6.48654 9.8458 6.49433L9.91487 6.49695L9.91579 6.49698C10.0925 6.50364 10.2825 6.51079 10.4694 6.52732C11.0091 6.57502 11.3943 6.82184 11.6384 7.12105C11.8634 7.39694 11.9781 7.73111 11.9716 7.99267C11.9666 8.19383 11.9957 10.9453 12 11.3441C12.0037 11.6904 11.7191 11.9289 11.4208 11.9289H9.29755C8.97756 11.9289 8.71837 11.669 8.71837 11.3488V8.21034C8.56962 8.1734 8.3952 8.12673 8.22031 8.07235C7.97348 7.9956 7.68119 7.89026 7.46279 7.7558C7.00359 7.47308 6.59926 7.17574 5.99102 6.48054ZM6.30819 6.0316C6.29643 6.01787 6.28459 6.00397 6.27265 5.98991C6.27265 5.98991 6.37886 5.78809 6.45482 5.61618C6.47298 5.57507 6.48941 5.53568 6.50225 5.50116C6.54475 5.38684 6.59452 5.24067 6.62595 5.14684C6.63128 5.13094 6.63609 5.11653 6.64024 5.10404C6.65086 5.07208 6.65722 5.05266 6.65722 5.05266L6.67521 5.08392C6.68057 5.09324 6.68598 5.10263 6.69142 5.1121C6.6965 5.12091 6.70161 5.12979 6.70677 5.13873C6.78288 5.27069 6.86815 5.41614 6.96736 5.56594C7.20062 5.91817 7.51089 6.2945 7.96016 6.57632C8.6069 6.98203 9.26624 7.00692 9.89501 7.03066C10.0737 7.0374 10.2498 7.04405 10.4226 7.05932C11.2032 7.12832 11.4443 7.74932 11.4385 7.97932C11.4332 8.19316 11.4626 10.9619 11.4667 11.3498C11.467 11.3754 11.4464 11.3948 11.4208 11.3948H9.29755C9.27219 11.3948 9.25163 11.3742 9.25163 11.3488V8.01071C9.25163 7.87886 9.15876 7.76528 9.03047 7.73584C8.69364 7.65857 8.05799 7.49533 7.74205 7.30082C7.30829 7.03377 6.92981 6.75775 6.30819 6.0316ZM6.36134 5.97978C6.97981 6.70281 7.35296 6.97428 7.78089 7.23774C7.93046 7.32983 8.16079 7.41705 8.40042 7.49156C8.63845 7.56558 8.87958 7.62523 9.04703 7.66365C9.20808 7.70059 9.32571 7.84342 9.32571 8.01071V11.3207H11.3923C11.3872 10.84 11.3592 8.18819 11.3645 7.97747C11.3668 7.88276 11.3157 7.68683 11.168 7.50577C11.023 7.32793 10.7856 7.16577 10.416 7.13311C10.2455 7.11803 10.0712 7.11144 9.89221 7.10468L9.88638 7.10446C9.26072 7.08084 8.58433 7.05531 7.9208 6.63907C7.45925 6.34954 7.14202 5.96384 6.9056 5.60684C6.81923 5.47642 6.74337 5.34939 6.67533 5.2323C6.64506 5.32163 6.6061 5.43441 6.57167 5.52698C6.55813 5.56339 6.54106 5.60426 6.52257 5.64612C6.48389 5.73366 6.43774 5.82831 6.40148 5.90069C6.38589 5.9318 6.37206 5.95893 6.36134 5.97978ZM6.29621 4.44115C6.34376 4.15527 6.35873 3.91092 6.35873 3.75891C6.35873 3.32766 5.69316 3.25866 5.64125 3.70716C5.63116 3.79433 5.62326 3.87715 5.61556 3.95787C5.58364 4.29246 5.55517 4.59085 5.3887 5.0124C5.18206 5.53565 4.72273 6.14801 4.03984 6.5764C3.3931 6.9821 2.73376 7.00699 2.10499 7.03073C1.92634 7.03747 1.75016 7.04413 1.57744 7.05939C0.796817 7.12839 0.555742 7.74939 0.561485 7.97939C0.566825 8.19323 0.537424 10.962 0.533267 11.3499C0.532993 11.3755 0.553648 11.3949 0.579202 11.3949H2.70245C2.72781 11.3949 2.74837 11.3743 2.74837 11.3489V8.01078C2.74837 7.87893 2.84124 7.76535 2.96953 7.73591C3.30636 7.65864 3.94201 7.4954 4.25795 7.30089L4.28011 7.28725C4.70853 7.02359 4.96329 6.8668 5.59533 6.12215C5.61032 6.10449 5.62503 6.0866 5.63946 6.0685C5.65085 6.05421 5.66206 6.03979 5.67311 6.02524C5.73625 5.94208 5.79379 5.85484 5.8462 5.76486L5.84771 5.76227C5.8485 5.76091 5.84929 5.75954 5.85008 5.75818C5.851 5.75659 5.85192 5.755 5.85283 5.75341C5.8594 5.74201 5.86589 5.73057 5.8723 5.71909C5.89394 5.68029 5.91466 5.64104 5.9345 5.60144C5.97851 5.5136 6.01816 5.42402 6.05387 5.33386C6.09071 5.24082 6.12334 5.14716 6.1522 5.05415C6.16359 5.01745 6.17439 4.98085 6.18463 4.94443C6.18763 4.93374 6.19058 4.92307 6.19349 4.91242C6.19445 4.90892 6.1954 4.9054 6.19635 4.9019C6.23949 4.74225 6.27211 4.58608 6.29621 4.44115ZM10.3709 5.78933C10.8751 5.78933 11.2841 5.37983 11.2841 4.87441C11.2841 4.36899 10.8751 3.95949 10.3709 3.95949C9.86668 3.95949 9.45772 4.36899 9.45772 4.87441C9.45772 5.37983 9.86668 5.78933 10.3709 5.78933ZM11.8914 4.87441C11.8914 5.71545 11.2108 6.39748 10.3709 6.39748C9.53102 6.39748 8.85038 5.71545 8.85038 4.87441C8.85038 4.03337 9.53102 3.35135 10.3709 3.35135C11.2108 3.35135 11.8914 4.03337 11.8914 4.87441ZM1.63484 5.78933C2.13906 5.78933 2.54802 5.37983 2.54802 4.87441C2.54802 4.36899 2.13906 3.95949 1.63484 3.95949C1.13063 3.95949 0.721663 4.36899 0.721663 4.87441C0.721663 5.37983 1.13063 5.78933 1.63484 5.78933ZM3.15536 4.87441C3.15536 5.71545 2.47472 6.39748 1.63484 6.39748C0.794962 6.39748 0.114327 5.71545 0.114327 4.87441C0.114327 4.03337 0.794962 3.35135 1.63484 3.35135C2.47472 3.35135 3.15536 4.03337 3.15536 4.87441ZM3.61419 0.728853C3.72536 0.603059 3.91734 0.591336 4.04294 0.70272L5.09964 1.63981C5.22517 1.75113 5.23683 1.94323 5.12573 2.06895C5.01457 2.19474 4.82258 2.20646 4.69698 2.09508L3.64028 1.15799C3.51475 1.04667 3.5031 0.854571 3.61419 0.728853ZM7.95132 0.70272C8.07692 0.591336 8.26891 0.603059 8.38007 0.728853C8.49116 0.85457 8.47951 1.04667 8.35398 1.15799L7.29728 2.09508C7.17168 2.20646 6.97969 2.19474 6.86853 2.06895C6.75743 1.94323 6.76909 1.75113 6.89462 1.63981L7.95132 0.70272ZM6.00861 0.0710449C6.17644 0.0710449 6.31228 0.207306 6.31228 0.375118V1.36411C6.31228 1.53192 6.17644 1.66819 6.00861 1.66819C5.84078 1.66818 5.70494 1.53192 5.70494 1.36411V0.375118C5.70494 0.207306 5.84078 0.0710449 6.00861 0.0710449ZM2.67429 11.3208V8.01078C2.67429 7.84349 2.79192 7.70067 2.95297 7.66372C3.12042 7.6253 3.36155 7.56564 3.59958 7.49163C3.83921 7.41712 4.06954 7.3299 4.21911 7.23781L4.24128 7.22416C4.4557 7.09221 4.62212 6.98967 4.81365 6.82841C5.00548 6.66689 5.22417 6.44497 5.53886 6.07421C5.85015 5.70746 6.03724 5.23654 6.14624 4.80027C6.25513 4.36448 6.28466 3.9691 6.28466 3.75891C6.28466 3.59055 6.15714 3.48951 6.01302 3.47693C5.94153 3.47068 5.87166 3.4875 5.81836 3.52564C5.7665 3.56273 5.72553 3.62328 5.71483 3.71568C5.70484 3.80199 5.69701 3.8841 5.6893 3.9649L5.68919 3.96602C5.6572 4.30138 5.62792 4.60831 5.45759 5.03961C5.24516 5.57755 4.77548 6.20236 4.0792 6.63914C3.41567 7.05538 2.73928 7.08091 2.11362 7.10453L2.10779 7.10475C1.9288 7.11151 1.7545 7.1181 1.58396 7.13318C1.21442 7.16584 0.977038 7.328 0.831974 7.50584C0.684274 7.6869 0.633171 7.88283 0.635536 7.97754C0.640798 8.18826 0.612793 10.8401 0.607657 11.3208H2.67429ZM6.2382 0.375118C6.2382 0.248093 6.13541 0.145119 6.00861 0.145119C5.88181 0.145119 5.77902 0.248093 5.77902 0.375118V1.36411C5.77902 1.49114 5.88181 1.59411 6.00861 1.59411C6.13541 1.59411 6.2382 1.49114 6.2382 1.36411V0.375118ZM3.99379 0.758141C3.89885 0.673944 3.75375 0.682792 3.6697 0.777903C3.58565 0.873015 3.59448 1.01837 3.68943 1.10257L4.74613 2.03966C4.84107 2.12386 4.98617 2.11501 5.07022 2.0199C5.15427 1.92478 5.14544 1.77943 5.0505 1.69523L3.99379 0.758141ZM1.63484 5.86341C2.18009 5.86341 2.6221 5.42062 2.6221 4.87441C2.6221 4.3282 2.18009 3.88542 1.63484 3.88542C1.0896 3.88542 0.647589 4.3282 0.647589 4.87441C0.647589 5.42062 1.0896 5.86341 1.63484 5.86341ZM1.63484 6.3234C2.43369 6.3234 3.08129 5.67467 3.08129 4.87441C3.08129 4.07416 2.43369 3.42542 1.63484 3.42542C0.835995 3.42542 0.188401 4.07416 0.188401 4.87441C0.188401 5.67467 0.835995 6.3234 1.63484 6.3234ZM10.3709 5.86341C10.9161 5.86341 11.3582 5.42062 11.3582 4.87441C11.3582 4.3282 10.9161 3.88542 10.3709 3.88542C9.82565 3.88542 9.38364 4.3282 9.38364 4.87441C9.38364 5.42062 9.82565 5.86341 10.3709 5.86341ZM10.3709 6.3234C11.1697 6.3234 11.8173 5.67467 11.8173 4.87441C11.8173 4.07416 11.1697 3.42542 10.3709 3.42542C9.57205 3.42542 8.92445 4.07416 8.92445 4.87441C8.92445 5.67467 9.57205 6.3234 10.3709 6.3234ZM8.32456 0.777903C8.24051 0.682792 8.09541 0.673944 8.00047 0.758141L6.94376 1.69523C6.84882 1.77943 6.83999 1.92478 6.92404 2.0199C7.00809 2.11501 7.15319 2.12386 7.24813 2.03966L8.30483 1.10257C8.39978 1.01837 8.40861 0.873015 8.32456 0.777903Z" fill="#0C353E"/>
</svg>
