<svg width="24" height="24" viewBox="0 0 24 24" fill="none" xmlns="http://www.w3.org/2000/svg">
<path fill-rule="evenodd" clip-rule="evenodd" d="M9.96414 16.1714L9.61335 22.8364L8.21529 22.7628L8.57605 15.9083C8.60959 15.271 9.13616 14.7714 9.77439 14.7714H13.2019L12.9057 6.77232L9.76877 10.1505C9.50571 10.4338 9.06279 10.4502 8.7795 10.1872C8.4962 9.92411 8.4798 9.4812 8.74286 9.1979L13.0297 4.58131C13.2928 4.29801 13.7357 4.2816 14.019 4.54467L18.6356 8.83151C18.9189 9.09457 18.9353 9.53748 18.6722 9.82078C18.4091 10.1041 17.9662 10.1205 17.6829 9.85742L14.3047 6.72051L14.6087 14.927C14.6338 15.6067 14.0896 16.1714 13.4095 16.1714H9.96414Z" fill="#0C353E"/>
<path fill-rule="evenodd" clip-rule="evenodd" d="M19.4953 19.4953C23.6349 15.3558 23.6349 8.64422 19.4953 4.50467C15.3558 0.36511 8.64423 0.365111 4.50467 4.50467C0.365111 8.64423 0.365111 15.3558 4.50467 19.4953C8.64423 23.6349 15.3558 23.6349 19.4953 19.4953ZM20.4853 20.4853C25.1716 15.799 25.1716 8.20101 20.4853 3.51472C15.799 -1.17157 8.20101 -1.17157 3.51472 3.51472C-1.17157 8.20101 -1.17157 15.799 3.51472 20.4853C8.20101 25.1716 15.799 25.1716 20.4853 20.4853Z" fill="#0C353E"/>
</svg>