<svg width="16" height="16" viewBox="0 0 16 16" fill="none" xmlns="http://www.w3.org/2000/svg">
<g clip-path="url(#clip0)">
<path d="M6.17246 12.3731L5.44678 13.6301C5.21805 14.0267 4.84848 14.3103 4.40653 14.4284C3.96437 14.5469 3.50275 14.486 3.1063 14.2572L2.88997 14.1322C2.07179 13.6598 1.79033 12.6099 2.26276 11.7918L5.51192 6.16397C5.9844 5.34573 7.03423 5.06482 7.8524 5.53689L8.06872 5.6619C8.46518 5.8907 8.7486 6.26022 8.86714 6.7022C8.98556 7.14424 8.92478 7.60598 8.69599 8.00243L8.40852 8.50036C8.26731 8.74481 8.35106 9.05731 8.59562 9.19845C8.84023 9.33971 9.15264 9.25631 9.2937 9.01135L9.58123 8.51351C10.3354 7.20727 9.88623 5.53086 8.57982 4.77663L8.36337 4.65169C7.05731 3.89757 5.38118 4.34672 4.62666 5.65287L1.3775 11.2807C0.623328 12.5869 1.07243 14.2632 2.37886 15.0175L2.59518 15.1425C3.22798 15.5078 3.96518 15.6049 4.67102 15.4157C4.90671 15.3525 5.12937 15.2601 5.33513 15.1413C5.7456 14.9043 6.08861 14.5627 6.33201 14.1412L7.05777 12.8843C7.19892 12.6397 7.11516 12.3272 6.87072 12.186C6.62638 12.0452 6.31414 12.1287 6.17246 12.3731Z" fill="white"></path>
<path d="M13.4861 0.973077L13.2698 0.848081C12.637 0.482782 11.8997 0.385701 11.1939 0.574828C10.4879 0.764193 9.89815 1.21643 9.53292 1.84934L8.80714 3.10629C8.666 3.35085 8.74974 3.66335 8.99419 3.80456C9.23874 3.9457 9.55132 3.86205 9.69246 3.6175L10.4182 2.36042C10.6472 1.96414 11.0171 1.68051 11.4584 1.56219C11.9006 1.4437 12.3622 1.50454 12.7586 1.73335L12.975 1.85834C13.7933 2.33064 14.0745 3.38058 13.6022 4.19876L10.353 9.82661C9.88066 10.6446 8.83054 10.9258 8.0125 10.4537L7.79616 10.3287C7.39971 10.0999 7.11629 9.73037 6.99774 9.2884C6.87932 8.84635 6.9401 8.38462 7.1689 7.98816L7.45637 7.49022C7.59758 7.24578 7.51383 6.93328 7.26927 6.79214C7.02508 6.6511 6.7126 6.73438 6.57118 6.97924L6.28365 7.47708C5.52947 8.78332 5.97865 10.4597 7.28507 11.214L7.50151 11.3389C8.37806 11.845 9.42127 11.8093 10.2407 11.3361C10.6423 11.1043 10.9902 10.7673 11.2383 10.3377L14.4875 4.70986C14.8528 4.07718 14.9498 3.33985 14.7608 2.63413C14.5717 1.92828 14.1189 1.33838 13.4861 0.973077Z" fill="white"></path>
</g>
<defs>
<clipPath id="clip0">
<rect width="15.0588" height="15.0588" fill="white" transform="translate(0.46875 0.470703)"></rect>
</clipPath>
</defs>
</svg>