<svg width="14" height="14" viewBox="0 0 14 14" fill="none" xmlns="http://www.w3.org/2000/svg">
<path d="M0.303552 12.2828C0.303552 13.0626 0.938305 13.6946 1.71533 13.6946H12.2818C13.0615 13.6946 13.6935 13.0598 13.6935 12.2828V1.71636C13.6935 0.936597 13.0588 0.30458 12.2818 0.30458H1.71533C0.935569 0.30458 0.303552 0.939332 0.303552 1.71636V12.2828ZM12.2818 13.0243H1.71533C1.30767 13.0243 0.973873 12.6905 0.973873 12.2828V10.5181L3.51288 7.97907L5.68253 10.1487C5.81386 10.28 6.02453 10.28 6.15586 10.1487L10.0738 6.23076L13.0232 9.18017V12.2828C13.0232 12.6905 12.6894 13.0243 12.2818 13.0243ZM1.71533 0.974901H12.2818C12.6894 0.974901 13.0232 1.30869 13.0232 1.71636V8.23078L10.3091 5.5194C10.1778 5.38807 9.96711 5.38807 9.83579 5.5194L5.91783 9.43736L3.74818 7.26771C3.61685 7.13638 3.40618 7.13638 3.27485 7.26771L0.973873 9.56869V1.71636C0.973873 1.30869 1.30767 0.974901 1.71533 0.974901Z" fill="white"></path>
<path fill-rule="evenodd" clip-rule="evenodd" d="M1.71534 13.7364C0.915258 13.7364 0.261719 13.0857 0.261719 12.2828V1.71632C0.261719 0.916235 0.912417 0.262695 1.71534 0.262695H12.2818C13.0819 0.262695 13.7354 0.913393 13.7354 1.71632V12.2828C13.7354 13.0828 13.0847 13.7364 12.2818 13.7364H1.71534ZM1.71534 12.9824H12.2818C12.6663 12.9824 12.9814 12.6673 12.9814 12.2828V9.19746L10.0738 6.2899L6.18546 10.1783C6.03779 10.3259 5.80063 10.3259 5.65296 10.1783L3.51289 8.0382L1.01573 10.5354V12.2828C1.01573 12.6673 1.33079 12.9824 1.71534 12.9824ZM0.973873 10.5181L3.51288 7.97907L5.68253 10.1487C5.81386 10.28 6.02453 10.28 6.15586 10.1487L10.0738 6.23076L13.0232 9.18017V12.2828C13.0232 12.6905 12.6894 13.0243 12.2818 13.0243H1.71533C1.30767 13.0243 0.973873 12.6905 0.973873 12.2828V10.5181ZM12.2818 1.0167H1.71534C1.33079 1.0167 1.01573 1.33176 1.01573 1.71632V9.46762L3.24527 7.23808C3.39294 7.09041 3.63011 7.09041 3.77778 7.23808L5.91784 9.37814L9.80621 5.48977C9.95387 5.34211 10.191 5.3421 10.3387 5.48976C10.3387 5.48976 10.3387 5.48975 10.3387 5.48976L12.9814 8.12979V1.71632C12.9814 1.33176 12.6663 1.0167 12.2818 1.0167ZM13.0232 1.71636C13.0232 1.30869 12.6894 0.974901 12.2818 0.974901H1.71533C1.30767 0.974901 0.973873 1.30869 0.973873 1.71636V9.56869L3.27485 7.26771C3.40618 7.13638 3.61685 7.13638 3.74818 7.26771L5.91783 9.43736L9.83579 5.5194C9.96711 5.38807 10.1778 5.38807 10.3091 5.5194L13.0232 8.23078V1.71636ZM1.71533 13.6946C0.938305 13.6946 0.303552 13.0626 0.303552 12.2828V1.71636C0.303552 0.939332 0.935569 0.30458 1.71533 0.30458H12.2818C13.0588 0.30458 13.6935 0.936597 13.6935 1.71636V12.2828C13.6935 13.0598 13.0615 13.6946 12.2818 13.6946H1.71533Z" fill="white"></path>
<path d="M4.45404 5.66985C5.39523 5.66985 6.15858 4.90377 6.15858 3.96532C6.15858 3.02688 5.39249 2.2608 4.45404 2.2608C3.51559 2.2608 2.74951 3.02688 2.74951 3.96532C2.74951 4.90377 3.51286 5.66985 4.45404 5.66985ZM4.45404 2.93112C5.02587 2.93112 5.48825 3.39624 5.48825 3.96532C5.48825 4.53441 5.02313 4.99953 4.45404 4.99953C3.88495 4.99953 3.41983 4.53441 3.41983 3.96532C3.41983 3.39624 3.88222 2.93112 4.45404 2.93112Z" fill="white"></path>
<path fill-rule="evenodd" clip-rule="evenodd" d="M6.20043 3.96528C6.20043 4.9268 5.41839 5.71166 4.45405 5.71166C3.48971 5.71166 2.70768 4.9268 2.70768 3.96528C2.70768 3.00373 3.49249 2.21891 4.45405 2.21891C5.41561 2.21891 6.20043 3.00373 6.20043 3.96528ZM5.44642 3.96528C5.44642 3.41923 5.0027 2.97292 4.45405 2.97292C3.90541 2.97292 3.46169 3.41923 3.46169 3.96528C3.46169 4.51126 3.90807 4.95765 4.45405 4.95765C5.00003 4.95765 5.44642 4.51126 5.44642 3.96528ZM6.15858 3.96532C6.15858 4.90377 5.39523 5.66985 4.45404 5.66985C3.51286 5.66985 2.74951 4.90377 2.74951 3.96532C2.74951 3.02688 3.51559 2.2608 4.45404 2.2608C5.39249 2.2608 6.15858 3.02688 6.15858 3.96532ZM5.48825 3.96532C5.48825 3.39624 5.02587 2.93112 4.45404 2.93112C3.88222 2.93112 3.41983 3.39624 3.41983 3.96532C3.41983 4.53441 3.88495 4.99953 4.45404 4.99953C5.02313 4.99953 5.48825 4.53441 5.48825 3.96532Z" fill="white"></path>
</svg>