<svg width="16" height="16" viewBox="0 0 16 16" fill="none" xmlns="http://www.w3.org/2000/svg">
<path d="M14.5582 4.55643H13.8259C13.7623 4.30174 13.6455 4.00105 13.4757 3.65439C13.313 3.30064 13.1291 2.96813 12.9239 2.65683C12.7116 2.33139 12.4782 2.0484 12.2235 1.80785C11.9759 1.56023 11.7353 1.41873 11.5018 1.38336C11.2825 1.35506 11.0066 1.33384 10.6741 1.31969C10.3416 1.30554 10.0338 1.29846 9.75082 1.29846H9.13531V13.3434C9.13531 13.5769 9.18483 13.7927 9.28388 13.9907C9.38293 14.1818 9.55626 14.3303 9.80388 14.4365C9.93123 14.486 10.1965 14.5532 10.5998 14.6381C11.0101 14.723 11.3285 14.769 11.5549 14.7761V15.5295H4.44468V14.7761C4.64278 14.7619 4.94346 14.7336 5.34672 14.6912C5.75707 14.6487 6.04006 14.5956 6.19571 14.532C6.42918 14.44 6.59897 14.3091 6.7051 14.1393C6.81829 13.9624 6.87489 13.729 6.87489 13.4389V1.29846H6.25938C6.04006 1.29846 5.76768 1.30554 5.44224 1.31969C5.11679 1.32676 4.8055 1.34798 4.50835 1.38336C4.27488 1.41166 4.0308 1.55316 3.77611 1.80785C3.52849 2.05547 3.29856 2.33846 3.08631 2.65683C2.87406 2.9752 2.68658 3.31479 2.52386 3.67561C2.36114 4.02935 2.24794 4.32296 2.18427 4.55643H1.44141V0.470703H14.5582V4.55643Z" fill="white"></path>
</svg>