<svg width="14" height="14" viewBox="0 0 14 14" fill="none" xmlns="http://www.w3.org/2000/svg">
<path fill-rule="evenodd" clip-rule="evenodd" d="M13.7354 10.2003V3.81671C13.7354 3.67392 13.6601 3.54192 13.5374 3.46916C13.4147 3.39646 13.2627 3.39357 13.1374 3.46194L10.2862 5.01872V4.23337C10.2853 3.39159 9.60301 2.70945 8.76123 2.7085H1.7866C0.944817 2.70945 0.262672 3.39174 0.261719 4.23352V9.76553C0.262672 10.6073 0.944958 11.2895 1.78674 11.2904H8.76137C9.60315 11.2895 10.2853 10.6072 10.2862 9.76539V8.99823L13.1375 10.555C13.2627 10.6234 13.4148 10.6207 13.5375 10.5479C13.6602 10.475 13.7354 10.3429 13.7354 10.2003ZM9.47764 9.76538C9.47726 10.1611 9.15662 10.4817 8.76086 10.4821H1.78688C1.39116 10.4817 1.07058 10.1611 1.07011 9.76535V4.23362C1.0706 3.83801 1.39118 3.51736 1.78688 3.51689H8.76112C9.15672 3.51738 9.47739 3.83806 9.47786 4.23366L9.47764 9.76538ZM12.927 4.49797V9.51909L10.2862 8.07724V5.93972L12.927 4.49797Z" fill="white"></path>
</svg>