<svg width="52" height="52" viewBox="0 0 52 52" fill="none" xmlns="http://www.w3.org/2000/svg">
  <g filter="url(#filter0_d_882_207748)">
    <circle cx="26" cy="22" r="16" fill="white"/>
  </g>
  <path d="M25.3253 22.7393H23.4881L26.1613 16.5804H24.3898C24.02 16.5804 23.681 16.7881 23.5125 17.1176L18.7998 27.9511H20.3244C20.8955 27.9511 21.3002 27.7031 21.5386 27.2083L22.6585 24.6295H26.7843L26.1857 23.2458C26.0108 22.9322 25.6824 22.7393 25.3253 22.7393Z" fill="#65676B"/>
  <path d="M29.7055 16.3984C27.7772 16.3984 26.2091 17.9665 26.2091 19.8948C26.2091 20.3271 26.2897 20.753 26.4465 21.1599L26.4624 21.2001L26.4793 21.2393L26.5206 21.3336L27.7507 24.1615C27.7507 24.1615 28.9723 26.9893 29.3887 27.927C29.4576 28.0711 29.5636 28.1346 29.7045 28.1346C29.8464 28.1346 29.9566 28.07 30.0202 27.927C30.4398 26.9893 31.6582 24.1615 31.6582 24.1615L32.8883 21.3336L32.9116 21.2807L32.9296 21.2393L32.9466 21.2001L32.9625 21.1599C33.1203 20.753 33.1998 20.3282 33.1998 19.8959C33.2019 17.9665 31.6338 16.3984 29.7055 16.3984ZM30.9769 20.3875C30.9579 20.4309 29.7055 23.4039 29.7055 23.4039L28.4341 20.3875C28.3748 20.2339 28.3409 20.0686 28.3409 19.8948C28.3409 19.1415 28.9522 18.5302 29.7055 18.5302C30.4588 18.5302 31.0702 19.1415 31.0702 19.8948C31.0702 20.0686 31.0363 20.2349 30.9769 20.3875Z" fill="#65676B"/>
  <defs>
    <filter id="filter0_d_882_207748" x="0" y="0" width="52" height="52" filterUnits="userSpaceOnUse" color-interpolation-filters="sRGB">
      <feFlood flood-opacity="0" result="BackgroundImageFix"/>
      <feColorMatrix in="SourceAlpha" type="matrix" values="0 0 0 0 0 0 0 0 0 0 0 0 0 0 0 0 0 0 127 0" result="hardAlpha"/>
      <feOffset dy="4"/>
      <feGaussianBlur stdDeviation="5"/>
      <feColorMatrix type="matrix" values="0 0 0 0 0.0403125 0 0 0 0 0.154173 0 0 0 0 0.179167 0 0 0 0.15 0"/>
      <feBlend mode="normal" in2="BackgroundImageFix" result="effect1_dropShadow_882_207748"/>
      <feBlend mode="normal" in="SourceGraphic" in2="effect1_dropShadow_882_207748" result="shape"/>
    </filter>
  </defs>
</svg>
