<svg width="52" height="52" viewBox="0 0 52 52" fill="none" xmlns="http://www.w3.org/2000/svg">
  <g filter="url(#filter0_d_882_207753)">
    <circle cx="26" cy="22" r="16" fill="white"/>
  </g>
  <path d="M22.3029 18.8282C22.3029 17.7309 23.2284 16.838 24.3659 16.838H28.3325C28.1896 16.3557 27.734 16 27.1889 16H22.1944C21.5355 16 21 16.5166 21 17.1522V23.6467C21 24.2823 21.5355 24.7989 22.1944 24.7989H22.3029V18.8282Z" fill="#65676B"/>
  <path d="M30.0799 18.2031H25.1197C24.4654 18.2031 23.9336 18.7456 23.9336 19.413V25.7922C23.9336 26.4596 24.4654 27.0021 25.1197 27.0021H30.0799C30.7342 27.0021 31.266 26.4596 31.266 25.7922V19.413C31.266 18.7456 30.7342 18.2031 30.0799 18.2031Z" fill="#65676B"/>
  <defs>
    <filter id="filter0_d_882_207753" x="0" y="0" width="52" height="52" filterUnits="userSpaceOnUse" color-interpolation-filters="sRGB">
      <feFlood flood-opacity="0" result="BackgroundImageFix"/>
      <feColorMatrix in="SourceAlpha" type="matrix" values="0 0 0 0 0 0 0 0 0 0 0 0 0 0 0 0 0 0 127 0" result="hardAlpha"/>
      <feOffset dy="4"/>
      <feGaussianBlur stdDeviation="5"/>
      <feColorMatrix type="matrix" values="0 0 0 0 0.0403125 0 0 0 0 0.154173 0 0 0 0 0.179167 0 0 0 0.15 0"/>
      <feBlend mode="normal" in2="BackgroundImageFix" result="effect1_dropShadow_882_207753"/>
      <feBlend mode="normal" in="SourceGraphic" in2="effect1_dropShadow_882_207753" result="shape"/>
    </filter>
  </defs>
</svg>
