<svg width="52" height="52" viewBox="0 0 52 52" fill="none" xmlns="http://www.w3.org/2000/svg">
  <g filter="url(#filter0_d_882_207741)">
    <circle cx="26" cy="22" r="16" fill="white"/>
  </g>
  <path d="M28.6018 21.9967C28.6018 23.4339 27.4368 24.5989 25.9997 24.5989C24.5625 24.5989 23.3975 23.4339 23.3975 21.9967C23.3975 20.5595 24.5625 19.3945 25.9997 19.3945C27.4368 19.3945 28.6018 20.5595 28.6018 21.9967Z" fill="#65676B"/>
  <path d="M32.0853 17.3935C31.9602 17.0545 31.7607 16.7477 31.5014 16.4959C31.2495 16.2366 30.9429 16.037 30.6038 15.9119C30.3287 15.8051 29.9155 15.6779 29.1543 15.6433C28.331 15.6057 28.0841 15.5977 25.9997 15.5977C23.9151 15.5977 23.6682 15.6055 22.8451 15.6431C22.084 15.6779 21.6705 15.8051 21.3957 15.9119C21.0565 16.037 20.7497 16.2366 20.4981 16.4959C20.2387 16.7477 20.0392 17.0543 19.9139 17.3935C19.8071 17.6686 19.6799 18.082 19.6452 18.8431C19.6077 19.6663 19.5996 19.9131 19.5996 21.9978C19.5996 24.0822 19.6077 24.329 19.6452 25.1524C19.6799 25.9135 19.8071 26.3267 19.9139 26.6018C20.0392 26.941 20.2385 27.2476 20.4978 27.4994C20.7497 27.7587 21.0563 27.9583 21.3955 28.0834C21.6705 28.1904 22.084 28.3176 22.8451 28.3522C23.6682 28.3898 23.9149 28.3977 25.9995 28.3977C28.0843 28.3977 28.3312 28.3898 29.1541 28.3522C29.9152 28.3176 30.3287 28.1904 30.6038 28.0834C31.2846 27.8208 31.8227 27.2826 32.0853 26.6018C32.1922 26.3267 32.3193 25.9135 32.3542 25.1524C32.3917 24.329 32.3996 24.0822 32.3996 21.9978C32.3996 19.9131 32.3917 19.6663 32.3542 18.8431C32.3195 18.082 32.1924 17.6686 32.0853 17.3935ZM25.9997 26.0062C23.7856 26.0062 21.9908 24.2116 21.9908 21.9976C21.9908 19.7835 23.7856 17.9889 25.9997 17.9889C28.2136 17.9889 30.0084 19.7835 30.0084 21.9976C30.0084 24.2116 28.2136 26.0062 25.9997 26.0062ZM30.1669 18.7672C29.6495 18.7672 29.2301 18.3478 29.2301 17.8304C29.2301 17.313 29.6495 16.8936 30.1669 16.8936C30.6842 16.8936 31.1037 17.313 31.1037 17.8304C31.1035 18.3478 30.6842 18.7672 30.1669 18.7672Z" fill="#65676B"/>
  <defs>
    <filter id="filter0_d_882_207741" x="0" y="0" width="52" height="52" filterUnits="userSpaceOnUse" color-interpolation-filters="sRGB">
      <feFlood flood-opacity="0" result="BackgroundImageFix"/>
      <feColorMatrix in="SourceAlpha" type="matrix" values="0 0 0 0 0 0 0 0 0 0 0 0 0 0 0 0 0 0 127 0" result="hardAlpha"/>
      <feOffset dy="4"/>
      <feGaussianBlur stdDeviation="5"/>
      <feColorMatrix type="matrix" values="0 0 0 0 0.0403125 0 0 0 0 0.154173 0 0 0 0 0.179167 0 0 0 0.15 0"/>
      <feBlend mode="normal" in2="BackgroundImageFix" result="effect1_dropShadow_882_207741"/>
      <feBlend mode="normal" in="SourceGraphic" in2="effect1_dropShadow_882_207741" result="shape"/>
    </filter>
  </defs>
</svg>
