<svg width="52" height="52" viewBox="0 0 52 52" fill="none" xmlns="http://www.w3.org/2000/svg">
  <g filter="url(#filter0_d_882_207738)">
    <circle cx="26" cy="22" r="16" fill="white"/>
  </g>
  <path d="M23.7163 27.0911C28.6274 27.0911 31.2996 23.264 31.2996 19.9153C31.2996 19.7786 31.2996 19.7102 31.2996 19.5736C31.8052 19.2319 32.2385 18.7535 32.5996 18.2751C32.0941 18.4801 31.5885 18.6168 31.0829 18.6851C31.6607 18.3434 32.0218 17.865 32.2385 17.3183C31.7329 17.5917 31.1552 17.7967 30.5774 17.9334C30.0718 17.3866 29.3496 17.1133 28.6274 17.1133C27.1829 17.1133 25.9552 18.2751 25.9552 19.6419C25.9552 19.8469 25.9552 20.0519 26.0274 20.1886C23.7885 20.0519 21.8385 19.0952 20.5385 17.5233C20.3218 17.865 20.1774 18.3434 20.1774 18.8218C20.1774 19.7102 20.6829 20.462 21.3329 20.9404C20.8996 20.9404 20.4663 20.8037 20.1052 20.5987C20.1052 21.8288 21.0441 22.8539 22.2718 23.0589C22.0552 23.1273 21.8385 23.1273 21.5496 23.1273C21.4052 23.1273 21.1885 23.1273 21.0441 23.0589C21.4052 24.0841 22.344 24.7675 23.5718 24.8358C22.6329 25.5192 21.4774 25.9293 20.2496 25.9293C20.0329 25.9293 19.8163 25.9293 19.5996 25.8609C20.7552 26.681 22.1996 27.0911 23.7163 27.0911Z" fill="#65676B"/>
  <defs>
    <filter id="filter0_d_882_207738" x="0" y="0" width="52" height="52" filterUnits="userSpaceOnUse" color-interpolation-filters="sRGB">
      <feFlood flood-opacity="0" result="BackgroundImageFix"/>
      <feColorMatrix in="SourceAlpha" type="matrix" values="0 0 0 0 0 0 0 0 0 0 0 0 0 0 0 0 0 0 127 0" result="hardAlpha"/>
      <feOffset dy="4"/>
      <feGaussianBlur stdDeviation="5"/>
      <feColorMatrix type="matrix" values="0 0 0 0 0.0403125 0 0 0 0 0.154173 0 0 0 0 0.179167 0 0 0 0.15 0"/>
      <feBlend mode="normal" in2="BackgroundImageFix" result="effect1_dropShadow_882_207738"/>
      <feBlend mode="normal" in="SourceGraphic" in2="effect1_dropShadow_882_207738" result="shape"/>
    </filter>
  </defs>
</svg>
