<svg width="10" height="10" viewBox="0 0 10 10" fill="none" xmlns="http://www.w3.org/2000/svg">
<g clip-path="url(#clip0_21610_267763)">
<path d="M7.01291 6.29583C6.86749 6.29583 6.73708 6.19375 6.70708 6.04583C6.67249 5.87667 6.78166 5.71167 6.95083 5.67708C8.08874 5.44542 9.29499 4.04458 9.40165 1.875H8.02166C7.84916 1.875 7.70916 1.735 7.70916 1.5625C7.70916 1.39 7.84916 1.25 8.02166 1.25H9.72165C9.89415 1.25 10.0342 1.39 10.0342 1.5625C10.0342 4.27042 8.54582 5.99 7.07583 6.28958C7.05458 6.29375 7.03374 6.29583 7.01291 6.29583Z" fill="#FEA45C"/>
<path d="M2.98375 6.2875C2.96125 6.2875 2.93833 6.285 2.915 6.28C1.46667 5.955 0 4.23042 0 1.5625C0 1.39 0.14 1.25 0.3125 1.25H1.97917C2.15167 1.25 2.29167 1.39 2.29167 1.5625C2.29167 1.735 2.15167 1.875 1.97917 1.875H0.632917C0.739167 4.01417 1.92917 5.41833 3.05208 5.67C3.22042 5.70792 3.32625 5.875 3.28875 6.04333C3.25583 6.18875 3.12667 6.2875 2.98375 6.2875Z" fill="#FEA45C"/>
<path d="M5.52164 6.71094C5.34914 6.71094 5.20914 6.85094 5.20914 7.02344H4.79248C4.79248 6.85094 4.65248 6.71094 4.47998 6.71094C4.30748 6.71094 4.16748 6.85094 4.16748 7.02344V8.5401C4.16748 8.7126 4.30748 8.8526 4.47998 8.8526H5.52164C5.69414 8.8526 5.83414 8.7126 5.83414 8.5401V7.02344C5.83414 6.85094 5.69414 6.71094 5.52164 6.71094Z" fill="#FEA45C"/>
<path d="M5.93831 8.33203H4.06331C3.43123 8.33203 2.91748 8.84578 2.91748 9.47786V9.68619C2.91748 9.85869 3.05748 9.99869 3.22998 9.99869H6.77165C6.94415 9.99869 7.08415 9.85869 7.08415 9.68619V9.47786C7.08415 8.84578 6.5704 8.33203 5.93831 8.33203Z" fill="#FEA45C"/>
<path d="M7.60498 0H2.39665C1.99456 0 1.66748 0.327083 1.66748 0.729167V3.75208C1.6854 6.44208 4.76706 7.54167 4.89831 7.58708C4.93165 7.59875 4.96623 7.60458 5.00081 7.60458C5.0354 7.60458 5.06998 7.59875 5.1029 7.5875C5.23456 7.54167 8.33415 6.44167 8.33415 3.75V0.729167C8.33415 0.327083 8.00706 0 7.60498 0Z" fill="#FEA45C"/>
</g>
<defs>
<clipPath id="clip0_21610_267763">
<rect width="10" height="10" fill="white"/>
</clipPath>
</defs>
</svg>
