<svg width="16" height="13" viewBox="0 0 16 13" fill="none" xmlns="http://www.w3.org/2000/svg">
  <path d="M7.3263 6.73934H5.48911L8.16226 0.58041H6.39076C6.02099 0.58041 5.68194 0.788074 5.51348 1.11758L0.800781 11.9511H2.32542C2.89649 11.9511 3.30123 11.7031 3.53962 11.2083L4.65952 8.6295H8.78525L8.18663 7.24578C8.01181 6.93217 7.68336 6.73934 7.3263 6.73934Z" fill="#65676B"/>
  <path d="M11.7065 0.398438C9.7782 0.398438 8.21012 1.96651 8.21012 3.89482C8.21012 4.3271 8.29064 4.75302 8.44745 5.15987L8.46334 5.20013L8.4803 5.23934L8.52162 5.33363L9.75171 8.16146C9.75171 8.16146 10.9733 10.9893 11.3897 11.927C11.4586 12.0711 11.5645 12.1346 11.7055 12.1346C11.8474 12.1346 11.9576 12.07 12.0212 11.927C12.4407 10.9893 13.6592 8.16146 13.6592 8.16146L14.8893 5.33363L14.9126 5.28066L14.9306 5.23934L14.9476 5.20013L14.9634 5.15987C15.1213 4.75302 15.2008 4.32816 15.2008 3.89588C15.2029 1.96651 13.6348 0.398438 11.7065 0.398438ZM12.9779 4.38749C12.9588 4.43093 11.7065 7.40391 11.7065 7.40391L10.4351 4.38749C10.3758 4.23386 10.3419 4.06858 10.3419 3.89482C10.3419 3.14151 10.9532 2.53017 11.7065 2.53017C12.4598 2.53017 13.0712 3.14151 13.0712 3.89482C13.0712 4.06858 13.0373 4.23492 12.9779 4.38749Z" fill="#65676B"/>
</svg>
