<svg width="16" height="16" viewBox="0 0 16 16" fill="none" xmlns="http://www.w3.org/2000/svg">
  <path fill-rule="evenodd" clip-rule="evenodd" d="M16 8.00024C16 7.64677 15.7135 7.36024 15.36 7.36024H0.640001C0.286539 7.36024 2.48353e-07 7.64677 2.48353e-07 8.00024C2.48353e-07 8.3537 0.286539 8.64024 0.640001 8.64024H15.36C15.7135 8.64024 16 8.3537 16 8.00024Z" fill="black"/>
  <path fill-rule="evenodd" clip-rule="evenodd" d="M0.187452 7.54769C-0.062484 7.79762 -0.062484 8.20285 0.187452 8.45278L5.30745 13.5728C5.55739 13.8227 5.96261 13.8227 6.21255 13.5728C6.46248 13.3229 6.46248 12.9176 6.21255 12.6677L1.09255 7.54769C0.842615 7.29775 0.437387 7.29775 0.187452 7.54769Z" fill="black"/>
  <path fill-rule="evenodd" clip-rule="evenodd" d="M6.21255 2.42769C5.96261 2.17775 5.55739 2.17775 5.30745 2.42769L0.187452 7.54769C-0.062484 7.79762 -0.062484 8.20285 0.187452 8.45278C0.437387 8.70272 0.842615 8.70272 1.09255 8.45278L6.21255 3.33278C6.46248 3.08285 6.46248 2.67762 6.21255 2.42769Z" fill="black"/>
</svg>
