<svg width="16" height="16" viewBox="0 0 16 16" fill="none" xmlns="http://www.w3.org/2000/svg">
<path d="M14.6585 8.77119C14.288 8.40067 13.7583 8.34096 13.1266 8.64908L9.80297 10.493C9.68803 10.5569 9.53755 10.5124 9.47485 10.3987C9.4438 10.3425 9.43604 10.2774 9.45395 10.2156C9.47187 10.1538 9.51217 10.1028 9.5686 10.0717L10.7136 9.43699V2.52077C10.7136 1.9541 10.2526 1.49282 9.68594 1.49282C9.11956 1.49282 8.65858 1.9538 8.65858 2.52077V7.64949C8.65858 7.78265 8.5505 7.89102 8.41704 7.89102C8.28418 7.89102 8.17581 7.78295 8.17581 7.64949V1.02736C8.17581 0.460982 7.71482 0 7.14815 0C6.58148 0 6.1205 0.460683 6.1205 1.02736V7.64949C6.1205 7.78265 6.01242 7.89102 5.87926 7.89102C5.7461 7.89102 5.63802 7.78295 5.63802 7.64949V2.22161C5.63802 1.65523 5.17704 1.19425 4.61036 1.19425C4.04369 1.19425 3.58271 1.65494 3.58271 2.22161V7.64949C3.58271 7.78265 3.47463 7.89102 3.34147 7.89102C3.20831 7.89102 3.10023 7.78295 3.10023 7.64949V4.01358C3.10023 3.44691 2.63925 2.98563 2.07258 2.98563C1.5059 2.98563 1.04492 3.44661 1.04492 4.01358V10.2452C1.04492 13.4186 3.6263 16 6.79943 16C8.24209 16 9.67011 15.3673 10.8247 14.2146L14.6513 10.2327C15.0559 9.82721 15.0592 9.17186 14.6585 8.77119Z" fill="#ffffff"/>
</svg>
