<svg width="16" height="16" viewBox="0 0 16 16" fill="none" xmlns="http://www.w3.org/2000/svg">
<path d="M14.5678 8.20006C14.002 7.63346 13.2004 7.54044 12.3691 7.94573L11.1815 8.52539V3.00845C11.1815 2.09966 10.4424 1.36006 9.53364 1.36006C9.29426 1.36006 9.06741 1.41228 8.86204 1.5045C8.78887 0.662892 8.08164 0 7.22154 0C6.44902 0 5.80082 0.534775 5.62347 1.25289C5.40722 1.14816 5.1654 1.08805 4.90944 1.08805C4.00092 1.08805 3.26132 1.8271 3.26132 2.73589V2.86102C3.05785 2.77125 2.83372 2.72012 2.59734 2.72012C1.68882 2.72012 0.949219 3.45972 0.949219 4.36851V10.0457C0.949219 13.3288 3.62037 16 6.90383 16C8.49319 16 9.98735 15.3814 11.1118 14.2575C11.114 14.2553 14.5648 10.5339 14.5678 10.5312C15.2102 9.88817 15.2102 8.84283 14.5678 8.20006ZM13.8883 9.81908L10.412 13.566C9.47406 14.5012 8.22852 15.0167 6.9041 15.0167C4.16331 15.0167 1.93363 12.7867 1.93363 10.0459V4.36851C1.93363 4.00184 2.23148 3.70371 2.59761 3.70371C2.96374 3.70371 3.26159 4.00211 3.26159 4.36851V8.4971C3.26159 8.76857 3.48219 8.9889 3.75366 8.9889C4.02513 8.9889 4.24573 8.76857 4.24573 8.4971V2.73589C4.24573 2.36949 4.54358 2.07164 4.90971 2.07164C5.27584 2.07164 5.57369 2.36977 5.57369 2.73589V8.4971C5.57369 8.76857 5.79429 8.9889 6.06576 8.9889C6.33723 8.9889 6.55783 8.76857 6.55783 8.4971V1.64785C6.55783 1.28145 6.85568 0.983594 7.22181 0.983594C7.58794 0.983594 7.88579 1.28172 7.88579 1.64785V8.4971C7.88579 8.76857 8.10639 8.9889 8.37786 8.9889C8.64933 8.9889 8.86966 8.76857 8.86966 8.4971V3.00845C8.86966 2.64178 9.16778 2.34365 9.53391 2.34365C9.90003 2.34365 10.1982 2.64205 10.1982 3.00845V9.33898V9.33979V10.3087C10.1982 10.5802 10.4185 10.8005 10.69 10.8005C10.9614 10.8005 11.1818 10.5802 11.1818 10.3087V9.62024L12.8005 8.82977C13.109 8.67962 13.5458 8.56864 13.8719 8.89533C14.1255 9.14911 14.1312 9.55849 13.8883 9.81908Z" fill="#ffffff"/>
</svg>
