<svg width="14" height="15" viewBox="0 0 14 15" fill="none" xmlns="http://www.w3.org/2000/svg">
  <path d="M1.77694 3.85714C1.77694 2.36057 3.03915 1.14286 4.59042 1.14286H10C9.80513 0.485143 9.18379 0 8.44044 0H1.62886C0.73032 0 0 0.704571 0 1.57143V10.4286C0 11.2954 0.73032 12 1.62886 12H1.77694V3.85714Z" fill="white"/>
  <path d="M12.3824 3H5.61765C4.72529 3 4 3.7398 4 4.65V13.35C4 14.2602 4.72529 15 5.61765 15H12.3824C13.2747 15 14 14.2602 14 13.35V4.65C14 3.7398 13.2747 3 12.3824 3Z" fill="white"/>
</svg>
