<svg width="48" height="48" viewBox="0 0 48 48" fill="none" xmlns="http://www.w3.org/2000/svg">
  <path fill-rule="evenodd" clip-rule="evenodd" d="M24 2.2C12.5125 2.2 2.2 12.5125 2.2 24C2.2 35.4875 12.5125 45.8 24 45.8C35.4875 45.8 45.8 35.4875 45.8 24C45.8 12.5125 35.4875 2.2 24 2.2ZM0 24C0 10.7452 10.7452 0 24 0C37.2548 0 48 10.7452 48 24C48 37.2548 37.2548 48 24 48C10.7452 48 0 37.2548 0 24ZM23.7 10C24.5837 10 25 10.6763 25 11.56V24.5L33 29C33.7904 29.3952 34.3952 29.7096 34 30.5C33.6048 31.2904 32.7904 31.3952 32 31L23.2845 26.4311C22.7424 26.1601 22.4 25.606 22.4 25V11.56C22.4 10.6763 22.8163 10 23.7 10Z" fill="#F85454"/>
</svg>
