<svg width="24" height="24" viewBox="0 0 24 24" fill="none" xmlns="http://www.w3.org/2000/svg">
<path d="M9.59747 20.9225C8.87217 21.2812 8.16533 21.6311 7.45829 21.9805C7.19099 22.1127 6.9284 22.2545 6.65541 22.3745C6.13534 22.6027 5.72585 22.3659 5.68363 21.7976C5.61528 20.8712 5.56323 19.9435 5.51296 19.0159C5.48526 18.498 5.49273 18.5066 4.98602 18.4795C4.0761 18.4309 3.16618 18.3787 2.25744 18.3126C1.60088 18.265 1.37011 17.848 1.66039 17.2535C2.09246 16.3694 2.52454 15.4852 2.97292 14.6092C3.07132 14.4168 3.02379 14.3304 2.86353 14.2244C2.04219 13.6838 1.22713 13.134 0.408536 12.5892C-0.135294 12.2271 -0.136276 11.7398 0.406179 11.3776C1.2177 10.837 2.02765 10.2941 2.83741 9.75192C2.91027 9.70333 2.97862 9.64648 3.07053 9.57703C2.91557 9.25539 2.76572 8.93671 2.61017 8.62156C2.30654 8.0068 1.99937 7.39382 1.69397 6.77966C1.66156 6.71474 1.62739 6.65041 1.60088 6.58333C1.41626 6.11454 1.65292 5.70261 2.1561 5.65972C2.82248 5.60287 3.49181 5.57454 4.15976 5.53225C4.52998 5.50903 4.8996 5.47716 5.26981 5.45926C5.41849 5.45238 5.48094 5.40025 5.48899 5.24425C5.52199 4.63126 5.56775 4.01946 5.60644 3.40648C5.63138 3.01126 5.64631 2.61566 5.67813 2.22103C5.73017 1.56871 6.14791 1.33166 6.73908 1.62202C7.6213 2.05539 8.50333 2.48936 9.37731 2.93907C9.56998 3.03821 9.65737 2.98943 9.76264 2.82949C10.3029 2.00739 10.8692 1.20143 11.3875 0.365952C11.6905 -0.123098 12.3084 -0.118376 12.6051 0.358476C13.1199 1.18648 13.6786 1.98772 14.2207 2.79939C14.2733 2.87887 14.3352 2.95185 14.403 3.04156C14.9427 2.77441 15.4696 2.51434 15.9954 2.2529C16.4286 2.03789 16.8578 1.81539 17.2946 1.60805C17.858 1.33972 18.275 1.58248 18.319 2.21179C18.3826 3.12261 18.4317 4.03402 18.4867 4.94484C18.4885 4.96923 18.4879 4.99343 18.4891 5.01723C18.5075 5.44884 18.5168 5.45533 18.9368 5.47953C19.8623 5.53284 20.7885 5.58733 21.7139 5.64634C22.3919 5.68982 22.6319 6.11218 22.3295 6.73048C21.8968 7.61415 21.4576 8.49467 21.0216 9.37657C20.9933 9.43402 20.969 9.49362 20.9285 9.58451C21.1438 9.73343 21.3577 9.8853 21.5753 10.0307C22.2446 10.4792 22.9143 10.9269 23.5866 11.3713C24.1314 11.7311 24.135 12.2241 23.5952 12.5829C22.7763 13.1265 21.96 13.6745 21.1438 14.2214C21.0772 14.2661 21.0159 14.3182 20.935 14.3802C20.9894 14.5053 21.0385 14.631 21.0976 14.751C21.4869 15.5391 21.8785 16.3263 22.269 17.1138C22.3082 17.1933 22.3511 17.2714 22.3846 17.353C22.5895 17.849 22.3552 18.2621 21.8218 18.3032C20.9056 18.3732 19.9864 18.4122 19.07 18.4822C18.4551 18.5292 18.5274 18.408 18.4863 19.0559C18.429 19.9503 18.3834 20.8462 18.3209 21.7407C18.2752 22.3936 17.8565 22.6295 17.2612 22.3391C16.3634 21.901 15.4714 21.4521 14.5766 21.0083C14.5263 20.9833 14.4737 20.9637 14.392 20.9288C14.2335 21.1576 14.0714 21.3848 13.9171 21.6166C13.4699 22.2876 13.0274 22.9614 12.5808 23.6324C12.2504 24.1289 11.7431 24.1197 11.4106 23.6178C10.8623 22.791 10.3116 21.966 9.76088 21.1409C9.71728 21.0754 9.66582 21.0134 9.59747 20.9225Z" fill="#020F12"/>
<path d="M14.3466 8.36937C13.1553 8.36937 12.1864 9.33979 12.1864 10.5331C12.1864 10.8006 12.2361 11.0643 12.3333 11.3157L12.3428 11.3403L12.3532 11.3644L13.1388 13.1725C13.1388 13.1725 13.8929 14.9225 14.1508 15.5025C14.193 15.5916 14.2588 15.6309 14.3462 15.6309C14.4336 15.6309 14.5024 15.5906 14.5416 15.5025C14.8005 14.9225 15.5537 13.1725 15.5537 13.1725L16.3281 11.39L16.3395 11.3644L16.3499 11.3403L16.3593 11.3157C16.4565 11.0643 16.5062 10.8012 16.5062 10.5331C16.5062 9.33979 15.5374 8.36937 14.3466 8.36937ZM15.1318 10.838C15.12 10.8646 14.3462 12.7041 14.3462 12.7041L13.5606 10.838C13.5237 10.743 13.5031 10.6407 13.5031 10.5331C13.5031 10.0669 13.8808 9.68858 14.3462 9.68858C14.8117 9.68858 15.1894 10.0669 15.1894 10.5331C15.1898 10.6407 15.1686 10.7436 15.1318 10.838Z" fill="white"/>
<path d="M11.5226 12.293H10.3882L12.0395 8.4815H10.945C10.7166 8.4815 10.507 8.60996 10.4033 8.81356L7.49152 15.517H8.43345C8.78657 15.517 9.03639 15.3636 9.1833 15.0571L9.87462 13.4611H12.4231L12.0533 12.6048C11.9462 12.4124 11.743 12.293 11.5226 12.293Z" fill="white"/>
<path d="M8.60235 18.7419L8.53243 18.1175L8.17676 18.8355L7.97486 18.7352L8.51338 17.6481L8.69525 17.7386L8.77617 18.5172L9.44412 18.1108L9.62461 18.2005L9.08608 19.2876L8.88438 19.1873L9.24006 18.4692L8.70311 18.7919L8.60235 18.7419Z" fill="white"/>
<path d="M9.93315 18.2896L10.6846 18.4924L10.6331 18.6839L10.0993 18.5399L10.0198 18.8353L10.4597 18.9542L10.4082 19.1456L9.96831 19.0267L9.887 19.3287L10.4391 19.4776L10.3876 19.669L9.61813 19.4613L9.93315 18.2896Z" fill="white"/>
<path d="M11.9578 18.6288L11.8583 19.8382L11.666 19.8223L11.1333 18.9498L11.0656 19.7727L10.8411 19.7542L10.9407 18.5448L11.1329 18.5607L11.666 19.4281L11.7333 18.6103L11.9578 18.6288Z" fill="white"/>
<path d="M12.5211 18.7909L12.1762 18.8229L12.1578 18.6239L13.0736 18.5389L13.092 18.738L12.7454 18.77L12.8387 19.7794L12.6144 19.8003L12.5211 18.7909Z" fill="white"/>
<path d="M13.7879 18.3427C13.8743 18.3184 13.9585 18.3111 14.0406 18.3211C14.1227 18.3311 14.1983 18.3555 14.2679 18.3945C14.3374 18.4334 14.3977 18.4854 14.4491 18.5501C14.5004 18.615 14.5383 18.6902 14.5623 18.7757C14.5864 18.8613 14.5933 18.9451 14.5835 19.0273C14.5735 19.1096 14.5491 19.1853 14.5102 19.2549C14.4713 19.3246 14.4195 19.3852 14.3547 19.4365C14.2901 19.4881 14.2144 19.5258 14.1278 19.5504C14.0414 19.5748 13.957 19.5821 13.8751 19.5721C13.793 19.562 13.7174 19.5376 13.6478 19.4987C13.5783 19.4597 13.5178 19.4078 13.4666 19.3429C13.4151 19.2782 13.3774 19.2028 13.3534 19.1174C13.3295 19.0321 13.3222 18.9481 13.3322 18.8658C13.3422 18.7838 13.3666 18.7079 13.4055 18.6382C13.4444 18.5686 13.4962 18.5082 13.5608 18.4566C13.6256 18.4051 13.7013 18.3671 13.7879 18.3427ZM13.8462 18.5499C13.7926 18.565 13.7452 18.5894 13.7046 18.6229C13.6637 18.6563 13.6313 18.6955 13.6072 18.7401C13.5832 18.7848 13.5681 18.8344 13.5622 18.8886C13.5563 18.9429 13.5612 18.9982 13.5769 19.0541C13.5926 19.11 13.6172 19.1597 13.6508 19.2028C13.6842 19.2461 13.7229 19.2805 13.7667 19.3059C13.8105 19.3315 13.8586 19.3478 13.9108 19.3549C13.9631 19.3622 14.0161 19.358 14.0697 19.3429C14.1233 19.3277 14.1706 19.3035 14.2113 19.2701C14.2522 19.2366 14.2846 19.1975 14.3087 19.1528C14.3327 19.1082 14.3478 19.0586 14.3537 19.0043C14.3596 18.95 14.3547 18.8947 14.339 18.8389C14.3233 18.783 14.2987 18.7334 14.2651 18.6902C14.2317 18.6469 14.193 18.6126 14.1492 18.5871C14.1054 18.5615 14.0573 18.5452 14.0051 18.5381C13.9528 18.5308 13.8998 18.5347 13.8462 18.5499Z" fill="white"/>
<path d="M15.1595 19.1676L14.6116 18.0852L15.0605 17.8572C15.1112 17.8315 15.1625 17.8159 15.2141 17.8108C15.2658 17.8057 15.3147 17.8098 15.361 17.8234C15.4074 17.837 15.45 17.86 15.4889 17.8926C15.5278 17.9253 15.56 17.967 15.5857 18.0178C15.6042 18.0544 15.6163 18.0909 15.6222 18.1275C15.6281 18.1643 15.6281 18.2003 15.6224 18.2357C15.6167 18.2711 15.6061 18.3054 15.5902 18.3384C15.5743 18.3715 15.5541 18.4025 15.5293 18.4317L15.9632 18.7594L15.7411 18.8723L15.35 18.5611L15.1552 18.6601L15.3604 19.0657L15.1595 19.1676ZM15.2895 18.3811C15.3139 18.3687 15.3347 18.3532 15.3518 18.3341C15.3691 18.3152 15.3814 18.2944 15.3893 18.2719C15.397 18.2495 15.4001 18.2253 15.3983 18.1993C15.3966 18.1734 15.3893 18.1476 15.3765 18.1222C15.3642 18.0978 15.3486 18.078 15.33 18.0624C15.3113 18.0471 15.2905 18.0363 15.2675 18.03C15.2446 18.0237 15.2208 18.0221 15.1962 18.025C15.1715 18.028 15.1471 18.0357 15.1228 18.0481L14.902 18.1602L15.0704 18.4924L15.2895 18.3811Z" fill="white"/>
<path d="M8.61316 5.96602C8.61473 6.01461 8.6106 6.0634 8.60059 6.11238C8.59057 6.16137 8.57466 6.20819 8.55286 6.25284C8.53106 6.2975 8.50317 6.33999 8.46939 6.38051C8.43561 6.42104 8.39535 6.45724 8.34841 6.4893C8.27515 6.53947 8.19797 6.57311 8.11646 6.59022C8.03496 6.60734 7.95542 6.60852 7.87764 6.59337C7.79987 6.57842 7.72622 6.54832 7.65689 6.50347C7.58756 6.45842 7.52786 6.3994 7.47777 6.32602C7.42769 6.25265 7.39391 6.17573 7.37663 6.09488C7.35935 6.01422 7.35777 5.93475 7.37211 5.85665C7.38625 5.77855 7.41591 5.70478 7.46069 5.63534C7.50566 5.56589 7.56517 5.5057 7.63921 5.45494C7.68713 5.42209 7.73584 5.39671 7.78553 5.37842C7.83522 5.36032 7.88432 5.34891 7.93303 5.34458C7.98173 5.34025 8.02946 5.34202 8.0762 5.34989C8.12294 5.35796 8.16753 5.37153 8.20975 5.39081L8.15083 5.6011C8.12137 5.58812 8.09014 5.57848 8.05754 5.57199C8.02474 5.5655 7.99155 5.56333 7.95797 5.5657C7.92439 5.56806 7.8908 5.57475 7.85722 5.58616C7.82363 5.59756 7.79123 5.6137 7.76039 5.63494C7.71345 5.6672 7.67614 5.70537 7.64864 5.74983C7.62115 5.79429 7.60327 5.8413 7.59522 5.89107C7.58717 5.94084 7.58933 5.99179 7.60151 6.04412C7.61388 6.09645 7.63646 6.14661 7.66907 6.19461C7.70186 6.24261 7.74056 6.28156 7.78533 6.31166C7.82992 6.34176 7.87705 6.36202 7.92615 6.37245C7.97525 6.38288 8.02553 6.38327 8.07699 6.37363C8.12825 6.36399 8.17695 6.34333 8.22291 6.31186C8.28674 6.26799 8.3323 6.21547 8.3598 6.1537C8.3873 6.09212 8.40006 6.02465 8.39829 5.95127L8.61316 5.96602Z" fill="white"/>
<path d="M8.48942 4.97238L9.1998 4.65428L9.28052 4.83527L8.77577 5.0613L8.90049 5.34065L9.31646 5.15435L9.39718 5.33533L8.98121 5.52163L9.10867 5.80707L9.6305 5.57337L9.71142 5.75435L8.98396 6.08032L8.48942 4.97238Z" fill="white"/>
<path d="M9.97832 5.66445L9.68137 4.48786L10.1694 4.36432C10.2246 4.35035 10.2778 4.34661 10.3293 4.35291C10.3807 4.3592 10.4277 4.37415 10.4699 4.39756C10.5121 4.42097 10.5487 4.45284 10.5795 4.49317C10.6101 4.53369 10.6325 4.5815 10.6465 4.63658C10.6565 4.67632 10.6604 4.71488 10.6579 4.75186C10.6555 4.78884 10.6476 4.82406 10.6343 4.8575C10.6209 4.89074 10.6031 4.92183 10.5803 4.95055C10.5575 4.97927 10.531 5.00504 10.5003 5.02806L10.8515 5.44334L10.6099 5.50452L10.2969 5.11481L10.0852 5.16851L10.1963 5.60937L9.97832 5.66445ZM10.2776 4.92576C10.3041 4.91907 10.3279 4.90845 10.3487 4.8937C10.3697 4.87894 10.3864 4.86163 10.3988 4.84137C10.4114 4.8211 10.4196 4.79829 10.4238 4.77251C10.4279 4.74674 10.4263 4.72019 10.4194 4.69245C10.4128 4.66589 10.402 4.64307 10.3872 4.62399C10.3725 4.60491 10.3544 4.58976 10.3336 4.57855C10.3126 4.56733 10.2898 4.56065 10.2651 4.55809C10.2403 4.55553 10.2148 4.5575 10.1883 4.56419L9.94847 4.62497L10.0396 4.98615L10.2776 4.92576Z" fill="white"/>
<path d="M11.2744 4.38222L10.9291 4.40976L10.9134 4.21048L11.8304 4.1377L11.8461 4.33697L11.499 4.36451L11.5792 5.37487L11.3547 5.39278L11.2744 4.38222Z" fill="white"/>
<path d="M12.2463 4.15225L12.4714 4.16248L12.4162 5.37487L12.1911 5.36465L12.2463 4.15225Z" fill="white"/>
<path d="M13.0156 4.20851L13.7388 4.33265L13.7054 4.52799L13.2042 4.44202L13.1486 4.7672L13.5691 4.8394L13.5359 5.03317L13.1156 4.96097L13.0331 5.44274L12.8112 5.40458L13.0156 4.20851Z" fill="white"/>
<path d="M14.1675 4.45402L14.383 4.51973L14.0304 5.68078L13.815 5.61507L14.1675 4.45402Z" fill="white"/>
<path d="M14.9044 4.69973L15.6128 5.02215L15.5309 5.20274L15.0275 4.97356L14.9011 5.25212L15.3159 5.44097L15.234 5.62156L14.8192 5.43271L14.6899 5.71756L15.2104 5.95442L15.1285 6.13501L14.403 5.80471L14.9044 4.69973Z" fill="white"/>
<path d="M16.063 5.27258L16.42 5.52183C16.4938 5.57337 16.5524 5.63337 16.5962 5.70202C16.64 5.77068 16.6684 5.84307 16.6822 5.9194C16.6957 5.99553 16.6942 6.07265 16.6775 6.15055C16.6608 6.22845 16.6284 6.30202 16.5801 6.37107C16.5314 6.4411 16.4732 6.49776 16.4057 6.54104C16.3381 6.58432 16.2664 6.61265 16.1904 6.62622C16.1144 6.63979 16.0366 6.63802 15.9571 6.62071C15.8776 6.6034 15.801 6.56897 15.7273 6.51763L15.3703 6.26838L16.063 5.27258ZM15.8249 6.34412C15.8707 6.37599 15.9194 6.39763 15.9712 6.40884C16.0231 6.42006 16.0743 6.42104 16.125 6.41199C16.1757 6.40294 16.224 6.38386 16.27 6.35474C16.3157 6.32563 16.3556 6.28688 16.3896 6.23829C16.4228 6.19068 16.4448 6.14032 16.4559 6.0876C16.4669 6.03488 16.4681 5.98333 16.4597 5.93278C16.451 5.88242 16.4326 5.83461 16.4041 5.78976C16.3756 5.74491 16.3385 5.70655 16.2929 5.67468L16.1348 5.56432L15.6684 6.23455L15.8249 6.34412Z" fill="white"/>
<path d="M19.221 12.3789C19.4448 12.3789 19.6262 12.1972 19.6262 11.9731C19.6262 11.749 19.4448 11.5673 19.221 11.5673C18.9973 11.5673 18.8159 11.749 18.8159 11.9731C18.8159 12.1972 18.9973 12.3789 19.221 12.3789Z" fill="white"/>
<path d="M5.22744 12.3789C5.45121 12.3789 5.63261 12.1972 5.63261 11.9731C5.63261 11.749 5.45121 11.5673 5.22744 11.5673C5.00367 11.5673 4.82227 11.749 4.82227 11.9731C4.82227 12.1972 5.00367 12.3789 5.22744 12.3789Z" fill="white"/>
</svg>
