<svg width="24" height="24" viewBox="0 0 24 24" fill="none" xmlns="http://www.w3.org/2000/svg">
<path d="M9.59747 20.9225C8.87217 21.2812 8.16533 21.6311 7.45829 21.9805C7.19099 22.1127 6.9284 22.2545 6.65541 22.3745C6.13534 22.6027 5.72585 22.3659 5.68363 21.7976C5.61528 20.8712 5.56323 19.9435 5.51296 19.0159C5.48526 18.498 5.49273 18.5066 4.98602 18.4795C4.0761 18.4309 3.16618 18.3787 2.25744 18.3126C1.60088 18.265 1.37011 17.848 1.66039 17.2535C2.09246 16.3694 2.52454 15.4852 2.97292 14.6092C3.07132 14.4168 3.02379 14.3304 2.86353 14.2244C2.04219 13.6838 1.22713 13.134 0.408536 12.5892C-0.135294 12.2271 -0.136276 11.7398 0.406179 11.3776C1.2177 10.837 2.02765 10.2941 2.83741 9.75192C2.91027 9.70333 2.97862 9.64648 3.07053 9.57703C2.91557 9.25539 2.76572 8.93671 2.61017 8.62156C2.30654 8.0068 1.99937 7.39382 1.69397 6.77966C1.66156 6.71474 1.62739 6.65041 1.60088 6.58333C1.41626 6.11454 1.65292 5.70261 2.1561 5.65972C2.82248 5.60287 3.49181 5.57454 4.15976 5.53225C4.52998 5.50903 4.8996 5.47717 5.26981 5.45926C5.41849 5.45238 5.48094 5.40025 5.48899 5.24425C5.52199 4.63126 5.56775 4.01946 5.60644 3.40648C5.63138 3.01126 5.64631 2.61566 5.67813 2.22103C5.73017 1.56871 6.14791 1.33166 6.73908 1.62202C7.6213 2.05539 8.50333 2.48936 9.37731 2.93907C9.56998 3.03821 9.65737 2.98943 9.76264 2.82949C10.3029 2.00739 10.8692 1.20143 11.3875 0.365952C11.6905 -0.123098 12.3084 -0.118376 12.6051 0.358476C13.1199 1.18648 13.6786 1.98772 14.2207 2.79939C14.2733 2.87887 14.3352 2.95185 14.403 3.04156C14.9427 2.77441 15.4696 2.51434 15.9954 2.2529C16.4286 2.03789 16.8578 1.81539 17.2946 1.60805C17.858 1.33972 18.275 1.58248 18.319 2.21179C18.3826 3.12261 18.4317 4.03402 18.4867 4.94484C18.4885 4.96923 18.4879 4.99343 18.4891 5.01723C18.5075 5.44884 18.5168 5.45533 18.9368 5.47953C19.8623 5.53284 20.7885 5.58733 21.7139 5.64634C22.3919 5.68982 22.6319 6.11218 22.3295 6.73048C21.8968 7.61415 21.4576 8.49467 21.0216 9.37657C20.9933 9.43402 20.969 9.49362 20.9285 9.58451C21.1438 9.73343 21.3577 9.8853 21.5753 10.0307C22.2446 10.4792 22.9143 10.9269 23.5866 11.3713C24.1314 11.7311 24.1349 12.2241 23.5952 12.5829C22.7763 13.1265 21.96 13.6745 21.1438 14.2214C21.0772 14.2661 21.0159 14.3182 20.935 14.3802C20.9894 14.5053 21.0385 14.631 21.0976 14.751C21.4869 15.5391 21.8785 16.3263 22.269 17.1138C22.3082 17.1931 22.3511 17.2714 22.3846 17.353C22.5895 17.849 22.3552 18.2621 21.8218 18.3032C20.9056 18.3732 19.9864 18.4122 19.07 18.4822C18.4551 18.5292 18.5274 18.408 18.4863 19.0559C18.429 19.9503 18.3834 20.8462 18.3209 21.7407C18.2752 22.3936 17.8565 22.6295 17.2612 22.3391C16.3634 21.901 15.4714 21.4521 14.5766 21.0083C14.5263 20.9833 14.4737 20.9637 14.392 20.929C14.2335 21.1578 14.0714 21.385 13.9171 21.6168C13.4699 22.2878 13.0274 22.9616 12.5808 23.6326C12.2504 24.1291 11.7431 24.1199 11.4106 23.618C10.8623 22.7912 10.3116 21.9661 9.76088 21.1411C9.71728 21.0754 9.66562 21.0134 9.59747 20.9225Z" fill="#25A9E0"/>
<path d="M14.3298 8.40011C13.147 8.40011 12.1851 9.36365 12.1851 10.5483C12.1851 10.8139 12.2344 11.0757 12.3308 11.3254L12.34 11.3498L12.3503 11.3737L12.3756 11.4318L13.1304 13.1688C13.1304 13.1688 13.8792 14.9065 14.1351 15.4821C14.177 15.5704 14.2424 15.6096 14.3292 15.6096C14.416 15.6096 14.4841 15.5694 14.5232 15.4821C14.7801 14.9063 15.528 13.1688 15.528 13.1688L16.2828 11.4318L16.2969 11.3991L16.3081 11.3737L16.3183 11.3498L16.3275 11.3254C16.4242 11.0757 16.4733 10.8145 16.4733 10.5483C16.4741 9.36365 15.5121 8.40011 14.3298 8.40011ZM15.1093 10.8511C15.0975 10.8774 14.3292 12.7038 14.3292 12.7038L13.5491 10.8511C13.5125 10.7568 13.4921 10.6553 13.4921 10.5483C13.4921 10.0854 13.8671 9.70988 14.3292 9.70988C14.7913 9.70988 15.1662 10.0854 15.1662 10.5483C15.1668 10.6553 15.146 10.7574 15.1093 10.8511Z" fill="white"/>
<path d="M11.5258 12.2958H10.3996L12.0394 8.51145H10.9527C10.726 8.51145 10.5179 8.63893 10.4149 8.84116L7.52374 15.4968H8.4588C8.80937 15.4968 9.05743 15.3444 9.20335 15.0402L9.88977 13.4555H12.4202L12.0531 12.6052C11.9467 12.4144 11.7448 12.2958 11.5258 12.2958Z" fill="white"/>
<path d="M8.82332 18.7724L8.7534 18.1481L8.39772 18.8661L8.19602 18.7658L8.73454 17.6787L8.91641 17.7692L8.99733 18.5478L9.66528 18.1414L9.84557 18.2311L9.30705 19.3182L9.10535 19.2178L9.46102 18.4998L8.92407 18.8224L8.82332 18.7724Z" fill="white"/>
<path d="M10.1543 18.3202L10.9057 18.523L10.8543 18.7144L10.3205 18.5704L10.2409 18.8659L10.6809 18.9847L10.6294 19.1761L10.1895 19.0573L10.1082 19.3593L10.66 19.5082L10.6086 19.6996L9.83909 19.4919L10.1543 18.3202Z" fill="white"/>
<path d="M12.1788 18.6595L12.0792 19.869L11.8869 19.853L11.3543 18.9806L11.2866 19.8035L11.0621 19.785L11.1616 18.5755L11.3539 18.5915L11.8869 19.4588L11.9543 18.641L12.1788 18.6595Z" fill="white"/>
<path d="M12.7421 18.8214L12.3972 18.8535L12.3787 18.6544L13.2945 18.5694L13.313 18.7685L12.9664 18.8008L13.0597 19.8102L12.8354 19.831L12.7421 18.8214Z" fill="white"/>
<path d="M14.0088 18.3733C14.0953 18.3489 14.1795 18.3416 14.2616 18.3517C14.3435 18.3617 14.4193 18.3861 14.4888 18.425C14.5584 18.464 14.6187 18.5159 14.6701 18.5806C14.7214 18.6456 14.7593 18.7207 14.7833 18.8061C14.8074 18.8917 14.8145 18.9755 14.8045 19.0577C14.7944 19.1399 14.7701 19.2157 14.7312 19.2853C14.6923 19.3549 14.6405 19.4155 14.5757 19.4669C14.5108 19.5182 14.4352 19.5562 14.3488 19.5808C14.2624 19.6052 14.1779 19.6124 14.0961 19.6024C14.014 19.5924 13.9383 19.568 13.8688 19.529C13.7993 19.4901 13.739 19.4382 13.6875 19.3732C13.6361 19.3085 13.5984 19.2332 13.5744 19.1478C13.5503 19.0622 13.5432 18.9784 13.5532 18.8962C13.5632 18.8142 13.5876 18.7382 13.6265 18.6686C13.6653 18.5989 13.7172 18.5385 13.782 18.487C13.8466 18.4357 13.9222 18.3977 14.0088 18.3733ZM14.0672 18.5806C14.0136 18.5958 13.9662 18.6202 13.9256 18.6536C13.8847 18.6871 13.8523 18.7262 13.8282 18.7709C13.804 18.8155 13.7891 18.8651 13.7832 18.9194C13.7773 18.9737 13.7822 19.029 13.7979 19.0848C13.8136 19.1407 13.8382 19.1903 13.8718 19.2336C13.9051 19.2768 13.9438 19.3113 13.9876 19.3366C14.0314 19.3622 14.0796 19.3785 14.1318 19.3856C14.184 19.3927 14.2371 19.3888 14.2907 19.3736C14.3443 19.3585 14.3916 19.3343 14.4323 19.3006C14.4731 19.2672 14.5055 19.2282 14.5297 19.1834C14.5537 19.1387 14.5688 19.0892 14.5747 19.0349C14.5806 18.9806 14.5757 18.9253 14.5599 18.8694C14.5442 18.8136 14.5197 18.764 14.4861 18.7207C14.4527 18.6774 14.414 18.6432 14.3702 18.6176C14.3264 18.5921 14.2783 18.5757 14.2261 18.5686C14.1738 18.5614 14.1208 18.5655 14.0672 18.5806Z" fill="white"/>
<path d="M15.3807 19.1983L14.8327 18.116L15.2817 17.888C15.3324 17.8622 15.3836 17.8469 15.4353 17.8416C15.4869 17.8364 15.5359 17.8406 15.5822 17.8542C15.6286 17.8677 15.6712 17.8907 15.7101 17.9234C15.7489 17.9561 15.7812 17.9978 15.8069 18.0485C15.8253 18.0851 15.8375 18.1217 15.8434 18.1583C15.8493 18.1949 15.8493 18.2311 15.8436 18.2665C15.8379 18.3019 15.8273 18.3361 15.8114 18.3692C15.7955 18.4022 15.7753 18.4333 15.7505 18.4624L16.1844 18.7902L15.9622 18.9031L15.5712 18.5919L15.3764 18.6908L15.5816 19.0963L15.3807 19.1983ZM15.5105 18.4119C15.5349 18.3995 15.5557 18.3839 15.5728 18.3648C15.5901 18.346 15.6024 18.3251 15.6103 18.3027C15.6181 18.2802 15.6211 18.2561 15.6193 18.2301C15.6176 18.2041 15.6103 18.1783 15.5975 18.153C15.5851 18.1286 15.5696 18.1087 15.551 18.0932C15.5323 18.0778 15.5115 18.067 15.4885 18.0607C15.4655 18.0544 15.4418 18.0528 15.4172 18.0558C15.3925 18.0587 15.3681 18.0664 15.3438 18.0788L15.123 18.1909L15.2913 18.5232L15.5105 18.4119Z" fill="white"/>
<path d="M7.94541 6.59229C7.95445 6.64009 7.95778 6.68907 7.95543 6.73884C7.95307 6.78881 7.94463 6.8374 7.9299 6.88501C7.91517 6.93262 7.89435 6.97884 7.86724 7.02389C7.84014 7.06894 7.80577 7.11104 7.76453 7.15019C7.69991 7.21117 7.62882 7.25622 7.55104 7.28573C7.47327 7.31524 7.3949 7.32862 7.31556 7.32586C7.23641 7.32311 7.15903 7.30481 7.08361 7.27117C7.00819 7.23753 6.94004 7.18816 6.87916 7.12363C6.81827 7.05891 6.7731 6.98809 6.74364 6.91098C6.71418 6.83386 6.70044 6.75576 6.7024 6.67629C6.70436 6.59701 6.72224 6.5195 6.75582 6.44396C6.7894 6.36842 6.83909 6.29976 6.9045 6.23799C6.94672 6.19825 6.99091 6.1654 7.03726 6.13983C7.08342 6.11425 7.13035 6.09557 7.17769 6.08357C7.22521 6.07176 7.27255 6.06606 7.32008 6.06665C7.3676 6.06724 7.41356 6.07393 7.45834 6.08652L7.43242 6.3033C7.40119 6.29504 7.36898 6.29032 7.33559 6.28894C7.3022 6.28757 7.26921 6.29052 7.23641 6.29799C7.20361 6.30547 7.1714 6.31747 7.13998 6.33379C7.10855 6.35012 7.07909 6.37117 7.05179 6.39694C7.01035 6.43609 6.97952 6.47957 6.95909 6.52776C6.93867 6.57596 6.92846 6.62514 6.92806 6.6755C6.92767 6.72586 6.93769 6.77602 6.95792 6.8258C6.97814 6.87557 7.00819 6.9216 7.04787 6.96389C7.08754 7.00619 7.13193 7.03884 7.18063 7.06166C7.22954 7.08448 7.27903 7.09727 7.32911 7.10003C7.37939 7.10278 7.42908 7.0953 7.47818 7.07799C7.52747 7.06048 7.57225 7.03275 7.61291 6.99439C7.66927 6.94127 7.7062 6.88206 7.72387 6.81694C7.74155 6.75183 7.74371 6.68317 7.73075 6.61098L7.94541 6.59229Z" fill="white"/>
<path d="M8.13022 5.30848C8.20682 5.26147 8.28597 5.23156 8.36767 5.21878C8.44937 5.20599 8.52891 5.20894 8.60629 5.22763C8.68368 5.24632 8.75595 5.27976 8.82292 5.32815C8.8899 5.37655 8.94665 5.43871 8.993 5.51445C9.03935 5.59019 9.06901 5.66907 9.08158 5.75071C9.09435 5.83255 9.0914 5.91222 9.07274 5.98973C9.05428 6.06724 9.0207 6.13963 8.97238 6.20671C8.92407 6.2738 8.86161 6.33084 8.78502 6.37806C8.70842 6.42507 8.62927 6.45498 8.54757 6.46776C8.46587 6.48055 8.38633 6.4776 8.30895 6.45891C8.23157 6.44022 8.15929 6.40678 8.09232 6.35838C8.02535 6.30999 7.96859 6.24783 7.92224 6.17209C7.87589 6.09635 7.84623 6.01766 7.83366 5.93583C7.82089 5.85419 7.82384 5.77432 7.8425 5.69681C7.86096 5.6193 7.89454 5.54691 7.94286 5.47983C7.99117 5.41275 8.05363 5.3557 8.13022 5.30848ZM8.24276 5.49222C8.19523 5.52134 8.15634 5.55773 8.1261 5.60101C8.09585 5.64429 8.07523 5.69071 8.06423 5.74029C8.05323 5.78986 8.05225 5.8416 8.06129 5.8955C8.07032 5.9494 8.08996 6.00114 8.1204 6.05071C8.15065 6.10029 8.18796 6.1412 8.23176 6.17386C8.27576 6.20632 8.32211 6.22894 8.37121 6.24153C8.4203 6.25412 8.47098 6.25688 8.52322 6.2494C8.57546 6.24212 8.62535 6.22383 8.67287 6.19452C8.7204 6.1654 8.75929 6.12901 8.78954 6.08573C8.81978 6.04245 8.8404 5.99602 8.8514 5.94645C8.8624 5.89688 8.86338 5.84514 8.85435 5.79124C8.84531 5.73734 8.82567 5.6856 8.79523 5.63602C8.76499 5.58645 8.72767 5.54553 8.68387 5.51288C8.63988 5.48042 8.59333 5.45779 8.54443 5.4452C8.49533 5.43261 8.44466 5.43006 8.39242 5.43733C8.33998 5.44461 8.29029 5.46291 8.24276 5.49222Z" fill="white"/>
<path d="M9.98934 5.48612L9.50011 5.09288L9.75366 5.8532L9.53998 5.92461L9.15621 4.7736L9.34888 4.70927L9.95458 5.20402L10.1419 4.44389L10.3328 4.37996L10.7166 5.53097L10.5029 5.60239L10.2494 4.84206L10.096 5.45032L9.98934 5.48612Z" fill="white"/>
<path d="M11.5819 5.14461L11.1996 4.64671L11.2663 5.4456L11.0418 5.46448L10.9407 4.25524L11.143 4.23832L11.6147 4.86252L11.9761 4.16829L12.1768 4.15137L12.278 5.36081L12.0535 5.3797L11.9867 4.58081L11.6941 5.13537L11.5819 5.14461Z" fill="white"/>
<path d="M13.63 5.06219C13.6214 5.1277 13.6015 5.18711 13.5705 5.24061C13.5395 5.29393 13.4996 5.33898 13.4513 5.37576C13.4028 5.41255 13.3478 5.43911 13.2859 5.45563C13.224 5.47216 13.1577 5.4757 13.0866 5.46645C13.0155 5.45701 12.9522 5.43635 12.8968 5.40448C12.8414 5.37242 12.7949 5.33248 12.7578 5.28448C12.7205 5.23648 12.6938 5.18258 12.6775 5.12297C12.6612 5.06337 12.6574 5.00081 12.6659 4.9353L12.7651 4.1795L12.9884 4.20901L12.8911 4.94966C12.886 4.98802 12.8876 5.02442 12.8957 5.05884C12.9037 5.09327 12.9178 5.12416 12.9377 5.1515C12.9575 5.17884 12.9825 5.20166 13.0121 5.21996C13.0418 5.23825 13.0759 5.24986 13.1142 5.25498C13.1525 5.26009 13.1885 5.25753 13.2219 5.2475C13.2553 5.23747 13.2851 5.22193 13.3114 5.20068C13.3378 5.17943 13.3592 5.15327 13.376 5.12219C13.3927 5.09111 13.4037 5.05629 13.4087 5.01793L13.5059 4.27727L13.7292 4.30678L13.63 5.06219Z" fill="white"/>
<path d="M15.2597 4.77222L14.8632 5.91891L14.6809 5.85576L14.3814 4.87825L14.1118 5.65845L13.8989 5.58468L14.2954 4.43799L14.4777 4.50114L14.7787 5.47393L15.0468 4.69865L15.2597 4.77222Z" fill="white"/>
<path d="M15.7651 5.0252L15.9642 5.13065L15.3982 6.20357L15.199 6.09812L15.7651 5.0252Z" fill="white"/>
<path d="M16.4984 5.69229L16.215 5.49281L16.3299 5.32914L17.0823 5.85891L16.9674 6.02258L16.6826 5.82212L16.1007 6.6513L15.9165 6.52147L16.4984 5.69229Z" fill="white"/>
<path d="M17.1436 6.81852L17.3044 6.03517L17.4845 6.21242L17.3626 6.75616L17.9033 6.62455L18.0833 6.8018L17.304 6.97668L16.9248 7.36324L16.7641 7.20508L17.1436 6.81852Z" fill="white"/>
<path d="M19.008 12.4095C19.2318 12.4095 19.4132 12.2278 19.4132 12.0037C19.4132 11.7795 19.2318 11.5978 19.008 11.5978C18.7842 11.5978 18.6028 11.7795 18.6028 12.0037C18.6028 12.2278 18.7842 12.4095 19.008 12.4095Z" fill="white"/>
<path d="M5.01455 12.4095C5.23832 12.4095 5.41972 12.2278 5.41972 12.0037C5.41972 11.7795 5.23832 11.5978 5.01455 11.5978C4.79078 11.5978 4.60938 11.7795 4.60938 12.0037C4.60938 12.2278 4.79078 12.4095 5.01455 12.4095Z" fill="white"/>
</svg>
