<svg width="24" height="24" viewBox="0 0 24 24" fill="none" xmlns="http://www.w3.org/2000/svg">
<path d="M9.59747 20.9225C8.87217 21.2812 8.16533 21.6311 7.45829 21.9805C7.19099 22.1127 6.9284 22.2545 6.65541 22.3745C6.13534 22.6027 5.72585 22.3659 5.68363 21.7976C5.61528 20.8712 5.56323 19.9435 5.51295 19.0159C5.48526 18.498 5.49273 18.5066 4.98601 18.4795C4.0761 18.4309 3.16618 18.3787 2.25744 18.3126C1.60088 18.265 1.37011 17.848 1.66039 17.2535C2.09246 16.3694 2.52454 15.4852 2.97292 14.6092C3.07132 14.4168 3.02379 14.3304 2.86353 14.2244C2.04219 13.6838 1.22713 13.134 0.408536 12.5892C-0.135294 12.2271 -0.136276 11.7398 0.406179 11.3776C1.2177 10.837 2.02765 10.2941 2.83741 9.75192C2.91027 9.70333 2.97862 9.64648 3.07053 9.57703C2.91557 9.25539 2.76572 8.93671 2.61017 8.62156C2.30654 8.00681 1.99937 7.39382 1.69397 6.77966C1.66156 6.71474 1.62739 6.65041 1.60088 6.58333C1.41626 6.11454 1.65292 5.70261 2.1561 5.65972C2.82248 5.60287 3.49181 5.57454 4.15976 5.53225C4.52998 5.50903 4.8996 5.47717 5.26981 5.45926C5.41849 5.45238 5.48094 5.40025 5.48899 5.24425C5.52199 4.63126 5.56775 4.01946 5.60644 3.40648C5.63138 3.01126 5.64631 2.61566 5.67813 2.22103C5.73017 1.56871 6.14791 1.33166 6.73908 1.62202C7.6213 2.05539 8.50333 2.48936 9.37731 2.93907C9.56998 3.03821 9.65737 2.98943 9.76264 2.82949C10.3029 2.00739 10.8692 1.20143 11.3875 0.365952C11.6905 -0.123098 12.3084 -0.118376 12.6051 0.358476C13.1199 1.18648 13.6786 1.98772 14.2207 2.79939C14.2733 2.87887 14.3352 2.95185 14.403 3.04156C14.9427 2.77441 15.4696 2.51435 15.9954 2.2529C16.4286 2.03789 16.8578 1.81539 17.2946 1.60805C17.858 1.33972 18.275 1.58248 18.319 2.21179C18.3826 3.12261 18.4317 4.03402 18.4867 4.94484C18.4885 4.96923 18.4879 4.99343 18.4891 5.01723C18.5075 5.44884 18.5168 5.45533 18.9368 5.47953C19.8623 5.53284 20.7885 5.58733 21.7139 5.64635C22.3919 5.68982 22.6319 6.11218 22.3295 6.73048C21.8968 7.61415 21.4576 8.49467 21.0216 9.37658C20.9933 9.43402 20.969 9.49362 20.9285 9.58451C21.1438 9.73343 21.3577 9.8853 21.5753 10.0307C22.2446 10.4792 22.9143 10.9269 23.5866 11.3713C24.1314 11.7311 24.1349 12.2241 23.5952 12.5829C22.7763 13.1265 21.96 13.6745 21.1438 14.2214C21.0772 14.2661 21.0159 14.3182 20.935 14.3802C20.9894 14.5053 21.0385 14.631 21.0976 14.751C21.4869 15.5391 21.8785 16.3263 22.269 17.1138C22.3082 17.1933 22.3511 17.2714 22.3846 17.353C22.5895 17.849 22.3552 18.2621 21.8218 18.3032C20.9056 18.3732 19.9864 18.4122 19.07 18.4822C18.4551 18.5292 18.5274 18.4081 18.4863 19.0559C18.429 19.9503 18.3834 20.8462 18.3209 21.7407C18.2752 22.3936 17.8565 22.6295 17.2612 22.3391C16.3634 21.901 15.4714 21.4521 14.5766 21.0083C14.5263 20.9833 14.4737 20.9637 14.392 20.9288C14.2335 21.1576 14.0714 21.3848 13.9171 21.6166C13.4699 22.2876 13.0274 22.9614 12.5808 23.6324C12.2504 24.1289 11.7431 24.1197 11.4106 23.6178C10.8623 22.791 10.3116 21.966 9.76088 21.1409C9.71727 21.0754 9.66582 21.0134 9.59747 20.9225Z" fill="#F85454"/>
<path d="M14.3467 8.37006C13.1553 8.37006 12.1865 9.34048 12.1865 10.5338C12.1865 10.8013 12.2362 11.0649 12.3334 11.3164L12.3428 11.3409L12.3532 11.3651L13.1388 13.1732C13.1388 13.1732 13.893 14.9232 14.1508 15.5032C14.1931 15.5923 14.2589 15.6316 14.3463 15.6316C14.4337 15.6316 14.5024 15.5913 14.5417 15.5032C14.8005 14.9232 15.5537 13.1732 15.5537 13.1732L16.3281 11.3907L16.3395 11.3651L16.3499 11.3409L16.3592 11.3164C16.4564 11.0649 16.5061 10.8019 16.5061 10.5338C16.5065 9.34048 15.5376 8.37006 14.3467 8.37006ZM15.1319 10.8387C15.1201 10.8653 14.3463 12.7048 14.3463 12.7048L13.5607 10.8387C13.5237 10.7437 13.5031 10.6414 13.5031 10.5338C13.5031 10.0676 13.8808 9.68927 14.3463 9.68927C14.8117 9.68927 15.1894 10.0676 15.1894 10.5338C15.1898 10.6414 15.1688 10.7443 15.1319 10.8387Z" fill="white"/>
<path d="M11.5226 12.2937H10.3884L12.0398 8.48219H10.9452C10.7168 8.48219 10.5072 8.61065 10.4035 8.81425L7.49153 15.5177H8.43347C8.78659 15.5177 9.03641 15.3643 9.18332 15.0578L9.87464 13.4618H12.4231L12.0533 12.6055C11.9465 12.4131 11.7432 12.2937 11.5226 12.2937Z" fill="white"/>
<path d="M8.79013 18.7426L8.72021 18.1182L8.36453 18.8362L8.16283 18.7359L8.70136 17.6488L8.88322 17.7393L8.96414 18.5179L9.63209 18.1115L9.81239 18.2012L9.27406 19.2883L9.07235 19.188L9.42803 18.4697L8.89108 18.7925L8.79013 18.7426Z" fill="white"/>
<path d="M10.1211 18.2903L10.8726 18.4931L10.8211 18.6845L10.2873 18.5405L10.2079 18.836L10.6479 18.9548L10.5964 19.1463L10.1565 19.0274L10.0752 19.3294L10.6272 19.4783L10.5758 19.6697L9.8063 19.462L10.1211 18.2903Z" fill="white"/>
<path d="M12.1456 18.6295L12.046 19.8389L11.8538 19.823L11.3213 18.9507L11.2536 19.7736L11.0291 19.7551L11.1287 18.5457L11.3209 18.5616L11.854 19.4289L11.9213 18.6112L12.1456 18.6295Z" fill="white"/>
<path d="M12.7089 18.7916L12.364 18.8236L12.3455 18.6245L13.2614 18.5396L13.2798 18.7386L12.9332 18.7707L13.0265 19.7801L12.8022 19.8009L12.7089 18.7916Z" fill="white"/>
<path d="M13.9757 18.3434C14.0621 18.319 14.1463 18.3118 14.2284 18.3218C14.3103 18.3318 14.3861 18.3562 14.4557 18.3952C14.5252 18.4341 14.5855 18.4861 14.6369 18.5508C14.6882 18.6157 14.7261 18.6908 14.7501 18.7762C14.7742 18.8618 14.7811 18.9456 14.7713 19.0278C14.7613 19.1101 14.7369 19.1858 14.698 19.2554C14.6591 19.3251 14.6073 19.3857 14.5425 19.437C14.4777 19.4884 14.402 19.5263 14.3156 19.5509C14.229 19.5753 14.1448 19.5826 14.0629 19.5725C13.9808 19.5625 13.9052 19.5381 13.8356 19.4992C13.7661 19.4602 13.7058 19.4083 13.6544 19.3436C13.6029 19.2788 13.5654 19.2035 13.5412 19.1179C13.5171 19.0324 13.51 18.9485 13.52 18.8663C13.53 18.7843 13.5544 18.7084 13.5933 18.6387C13.6322 18.5691 13.684 18.5087 13.7486 18.4571C13.8136 18.4058 13.8892 18.3678 13.9757 18.3434ZM14.034 18.5506C13.9804 18.5657 13.933 18.5901 13.8922 18.6234C13.8513 18.6568 13.8189 18.696 13.7948 18.7406C13.7708 18.7853 13.7557 18.8348 13.7498 18.8891C13.7439 18.9434 13.7488 18.9987 13.7645 19.0546C13.7802 19.1104 13.8048 19.1602 13.8384 19.2033C13.8718 19.2466 13.9105 19.281 13.9543 19.3064C13.9981 19.332 14.0462 19.3483 14.0984 19.3554C14.1507 19.3626 14.2035 19.3585 14.2573 19.3434C14.3109 19.3282 14.3582 19.304 14.3989 19.2704C14.4398 19.2369 14.4722 19.198 14.4963 19.1531C14.5205 19.1083 14.5354 19.0589 14.5413 19.0046C14.5472 18.9503 14.5423 18.895 14.5266 18.8392C14.5108 18.7833 14.4863 18.7337 14.4527 18.6904C14.4193 18.6472 14.3806 18.6129 14.3368 18.5874C14.293 18.5618 14.2449 18.5455 14.1927 18.5384C14.1406 18.5315 14.0876 18.5354 14.034 18.5506Z" fill="white"/>
<path d="M15.3475 19.1683L14.7996 18.0859L15.2485 17.8579C15.2992 17.8322 15.3505 17.8166 15.4021 17.8115C15.4538 17.8064 15.5027 17.8105 15.549 17.8241C15.5954 17.8377 15.638 17.8607 15.6769 17.8933C15.7158 17.926 15.748 17.9677 15.7737 18.0184C15.7922 18.055 15.8043 18.0916 15.8102 18.1282C15.8159 18.1648 15.8161 18.201 15.8104 18.2364C15.8047 18.2718 15.7939 18.3061 15.7782 18.3391C15.7623 18.3722 15.7421 18.4032 15.7173 18.4324L16.1512 18.7601L15.929 18.873L15.538 18.5618L15.3432 18.6607L15.5484 19.0662L15.3475 19.1683ZM15.4773 18.3818C15.5017 18.3694 15.5225 18.3539 15.5396 18.3348C15.5569 18.3159 15.5692 18.295 15.5771 18.2726C15.5848 18.2502 15.5879 18.226 15.5861 18.2C15.5844 18.1741 15.5771 18.1483 15.5643 18.1229C15.552 18.0985 15.5364 18.0786 15.5178 18.0631C15.4991 18.0478 15.4783 18.0369 15.4553 18.0306C15.4324 18.0244 15.4086 18.0228 15.384 18.0257C15.3593 18.0287 15.3349 18.0364 15.3106 18.0487L15.0898 18.1609L15.2581 18.4931L15.4773 18.3818Z" fill="white"/>
<path d="M10.1757 4.41084L10.3941 4.35596L11.1404 5.41983L10.9187 5.4755L10.7357 5.21484L10.2788 5.32953L10.2401 5.64586L10.0166 5.70192L10.1757 4.41084ZM10.6196 5.03956L10.3458 4.62724L10.2985 5.12022L10.6196 5.03956Z" fill="white"/>
<path d="M11.5749 5.38973L11.352 5.40527L11.2677 4.19465L11.712 4.16356C11.7687 4.15963 11.8221 4.16612 11.8724 4.18324C11.9227 4.20035 11.9669 4.22514 12.005 4.25799C12.0433 4.29084 12.0745 4.33058 12.0989 4.3774C12.1232 4.42422 12.1374 4.47497 12.1411 4.52947C12.145 4.58632 12.1381 4.63983 12.1207 4.69019C12.103 4.74055 12.0773 4.78481 12.0435 4.82317C12.0097 4.86153 11.969 4.89261 11.9217 4.91642C11.8744 4.94022 11.8235 4.95419 11.7689 4.95792L11.546 4.97347L11.5749 5.38973ZM11.7214 4.76612C11.7497 4.76415 11.7758 4.75688 11.7994 4.74448C11.8229 4.73189 11.8431 4.71596 11.86 4.69648C11.8769 4.67701 11.8899 4.65419 11.8989 4.62783C11.908 4.60147 11.9115 4.57412 11.9095 4.54579C11.9076 4.51747 11.9003 4.4917 11.8879 4.46848C11.8756 4.44527 11.8594 4.4256 11.8402 4.40927C11.8208 4.39294 11.7986 4.38074 11.7734 4.37288C11.7483 4.36501 11.7216 4.36186 11.6933 4.36383L11.5044 4.37701L11.5324 4.7795L11.7214 4.76612Z" fill="white"/>
<path d="M12.5738 4.15137L13.3485 4.22455L13.3299 4.42186L12.7794 4.36993L12.7507 4.67445L13.2044 4.71733L13.1857 4.91484L12.7321 4.87196L12.7028 5.18337L13.272 5.23707L13.2533 5.43458L12.4598 5.35963L12.5738 4.15137Z" fill="white"/>
<path d="M13.9171 4.95596L13.7156 4.28258L13.9629 4.34888L14.1031 4.82888L14.4641 4.48343L14.7114 4.54973L14.2007 5.03209L14.4111 5.72553L14.1671 5.66002L14.0153 5.1574L13.6331 5.51661L13.3892 5.4511L13.9171 4.95596Z" fill="white"/>
<path d="M19.2211 12.4066C19.4449 12.4066 19.6263 12.2249 19.6263 12.0007C19.6263 11.7766 19.4449 11.5949 19.2211 11.5949C18.9973 11.5949 18.8159 11.7766 18.8159 12.0007C18.8159 12.2249 18.9973 12.4066 19.2211 12.4066Z" fill="white"/>
<path d="M5.22744 12.4066C5.45121 12.4066 5.63261 12.2249 5.63261 12.0007C5.63261 11.7766 5.45121 11.5949 5.22744 11.5949C5.00367 11.5949 4.82227 11.7766 4.82227 12.0007C4.82227 12.2249 5.00367 12.4066 5.22744 12.4066Z" fill="white"/>
</svg>
