<?xml version="1.0" encoding="UTF-8"?>
<svg xmlns="http://www.w3.org/2000/svg" xmlns:xlink="http://www.w3.org/1999/xlink" width="24pt" height="24pt" viewBox="0 0 24 24" version="1.1">
  <g id="surface1">
    <path style="fill-rule:nonzero;fill:rgb(100%,100%,100%);fill-opacity:1;stroke-width:22.2204;stroke-linecap:butt;stroke-linejoin:miter;stroke:rgb(13.72549%,12.156863%,12.54902%);stroke-opacity:1;stroke-miterlimit:10;" d="M 799.804688 1724.934896 C 740.559896 1754.231771 682.617188 1782.877604 624.674479 1811.523438 C 602.864583 1822.265625 581.380208 1833.658854 558.919271 1843.75 C 516.276042 1862.304688 482.747396 1842.773438 479.492188 1796.549479 C 473.958333 1720.703125 469.401042 1644.856771 465.494792 1569.010417 C 463.216146 1526.692708 463.541667 1527.34375 422.200521 1525.390625 C 347.65625 1521.158854 273.4375 1517.252604 198.893229 1511.71875 C 145.182292 1507.8125 126.302083 1473.632812 150.065104 1425.130208 C 185.546875 1352.864583 220.703125 1280.598958 257.486979 1208.984375 C 265.625 1193.359375 261.71875 1186.197917 248.372396 1177.734375 C 181.315104 1133.463542 114.257812 1088.541667 47.526042 1043.945312 C 2.929688 1014.322917 2.929688 974.609375 47.200521 944.986979 C 113.606771 900.716146 180.013021 856.445312 246.09375 812.174479 C 252.278646 807.942708 257.8125 803.385417 265.299479 797.851562 C 252.604167 771.484375 240.234375 745.442708 227.539062 719.726562 C 202.799479 669.596354 177.734375 619.466146 152.669271 569.335938 C 149.739583 563.802083 147.135417 558.59375 144.856771 553.059896 C 129.882812 514.973958 149.414062 481.119792 190.429688 477.539062 C 245.117188 472.981771 299.804688 470.703125 354.492188 467.447917 C 384.765625 465.494792 415.039062 462.890625 445.3125 461.263021 C 457.682292 460.611979 462.565104 456.380208 463.216146 443.684896 C 466.145833 393.554688 469.726562 343.75 472.981771 293.619792 C 474.934896 261.067708 476.236979 228.841146 478.841146 196.614583 C 483.072917 143.229167 517.252604 124.023438 565.755208 147.460938 C 638.020833 182.942708 709.960938 218.424479 781.575521 255.208333 C 797.526042 263.346354 804.6875 259.440104 813.151042 246.09375 C 857.421875 179.036458 903.645833 112.955729 946.289062 44.921875 C 971.028646 4.882812 1021.484375 5.208333 1045.898438 44.270833 C 1087.890625 111.979167 1133.789062 177.408854 1178.059896 243.815104 C 1182.617188 250.325521 1187.5 256.184896 1193.033854 263.671875 C 1237.304688 241.861979 1280.273438 220.377604 1323.567708 199.21875 C 1359.049479 181.640625 1394.205729 163.411458 1430.013021 146.484375 C 1475.911458 124.348958 1510.091146 144.205729 1513.671875 195.638021 C 1518.880208 270.182292 1523.111979 344.726562 1527.34375 418.945312 C 1527.669271 421.223958 1527.669271 423.177083 1527.669271 425.130208 C 1529.296875 460.286458 1529.947917 460.9375 1564.453125 462.890625 C 1640.299479 467.122396 1716.145833 471.679688 1791.666667 476.5625 C 1847.330729 480.143229 1866.861979 514.648438 1842.122396 565.104167 C 1806.640625 637.044271 1770.833333 709.309896 1735.026042 781.25 C 1732.747396 786.132812 1730.794271 791.015625 1727.539062 798.177083 C 1745.117188 810.546875 1762.369792 822.916667 1780.273438 834.960938 C 1834.960938 871.419271 1889.973958 907.877604 1944.986979 944.335938 C 1989.583333 973.958333 1989.908854 1013.997396 1945.638021 1043.294271 C 1878.580729 1087.890625 1811.848958 1132.486979 1745.117188 1177.408854 C 1739.583333 1180.989583 1734.375 1185.221354 1727.864583 1190.429688 C 1732.421875 1200.520833 1736.328125 1210.9375 1741.210938 1220.703125 C 1773.111979 1285.15625 1805.013021 1349.283854 1837.239583 1413.736979 C 1840.169271 1420.247396 1843.75 1426.757812 1846.679688 1433.268229 C 1863.28125 1473.958333 1844.075521 1507.486979 1800.455729 1511.067708 C 1725.585938 1516.601562 1650.390625 1519.856771 1575.195312 1525.716146 C 1524.739583 1529.296875 1530.924479 1519.53125 1527.34375 1572.591146 C 1522.786458 1645.507812 1518.880208 1718.75 1513.997396 1791.992188 C 1510.091146 1845.377604 1475.911458 1864.583333 1427.083333 1840.820312 C 1353.515625 1805.013021 1280.598958 1768.229167 1207.356771 1732.096354 C 1203.125 1730.143229 1198.893229 1728.515625 1192.057292 1725.585938 C 1179.361979 1744.140625 1166.015625 1762.695312 1153.320312 1781.575521 C 1116.861979 1836.588542 1080.403646 1891.601562 1043.945312 1946.289062 C 1016.927083 1986.979167 975.260417 1986.328125 948.242188 1945.3125 C 903.320312 1877.604167 858.072917 1810.221354 813.151042 1742.838542 C 809.570312 1737.304688 805.338542 1732.421875 799.804688 1724.934896 Z M 799.804688 1724.934896 " transform="matrix(0.012,0,0,0.012,0,0)"/>
    <path style=" stroke:none;fill-rule:nonzero;fill:rgb(13.72549%,12.156863%,12.54902%);fill-opacity:1;" d="M 14.246094 8.414062 C 13.085938 8.414062 12.140625 9.359375 12.140625 10.523438 C 12.140625 10.78125 12.1875 11.039062 12.28125 11.285156 L 12.292969 11.308594 L 12.300781 11.332031 L 12.328125 11.386719 L 13.066406 13.09375 C 13.066406 13.09375 13.804688 14.796875 14.054688 15.359375 C 14.097656 15.449219 14.160156 15.484375 14.246094 15.484375 C 14.332031 15.484375 14.398438 15.445312 14.4375 15.359375 C 14.6875 14.796875 15.425781 13.09375 15.425781 13.09375 L 16.167969 11.386719 L 16.179688 11.355469 L 16.191406 11.332031 L 16.203125 11.304688 L 16.210938 11.28125 C 16.304688 11.039062 16.355469 10.78125 16.355469 10.519531 C 16.355469 9.359375 15.40625 8.414062 14.246094 8.414062 Z M 15.011719 10.816406 C 15 10.84375 14.246094 12.636719 14.246094 12.636719 L 13.476562 10.816406 C 13.441406 10.726562 13.421875 10.625 13.421875 10.523438 C 13.421875 10.066406 13.789062 9.699219 14.242188 9.699219 C 14.699219 9.699219 15.066406 10.066406 15.066406 10.523438 C 15.070312 10.625 15.046875 10.726562 15.011719 10.816406 Z M 15.011719 10.816406 "/>
    <path style=" stroke:none;fill-rule:nonzero;fill:rgb(13.72549%,12.156863%,12.54902%);fill-opacity:1;" d="M 11.492188 12.234375 L 10.386719 12.234375 L 11.996094 8.523438 L 10.929688 8.523438 C 10.707031 8.523438 10.5 8.648438 10.402344 8.84375 L 7.558594 15.375 L 8.476562 15.375 C 8.824219 15.375 9.066406 15.222656 9.210938 14.925781 L 9.882812 13.371094 L 12.371094 13.371094 L 12.007812 12.539062 C 11.90625 12.351562 11.707031 12.234375 11.492188 12.234375 Z M 11.492188 12.234375 "/>
    <path style=" stroke:none;fill-rule:nonzero;fill:rgb(13.72549%,12.156863%,12.54902%);fill-opacity:1;" d="M 8.386719 17.253906 L 8.761719 17.488281 C 8.808594 17.515625 8.847656 17.550781 8.875 17.585938 C 8.90625 17.621094 8.929688 17.660156 8.941406 17.703125 C 8.953125 17.742188 8.957031 17.785156 8.949219 17.828125 C 8.945312 17.871094 8.929688 17.914062 8.902344 17.957031 C 8.886719 17.984375 8.863281 18.007812 8.839844 18.027344 C 8.820312 18.046875 8.792969 18.0625 8.769531 18.074219 C 8.746094 18.085938 8.71875 18.089844 8.695312 18.09375 C 8.671875 18.097656 8.648438 18.097656 8.625 18.09375 C 8.640625 18.113281 8.65625 18.132812 8.667969 18.160156 C 8.679688 18.183594 8.6875 18.210938 8.691406 18.242188 C 8.695312 18.269531 8.695312 18.300781 8.6875 18.335938 C 8.683594 18.371094 8.667969 18.402344 8.644531 18.4375 C 8.621094 18.480469 8.585938 18.511719 8.546875 18.535156 C 8.511719 18.558594 8.46875 18.574219 8.425781 18.578125 C 8.378906 18.582031 8.332031 18.578125 8.285156 18.566406 C 8.234375 18.554688 8.1875 18.53125 8.136719 18.5 L 7.753906 18.257812 Z M 8.238281 18.335938 C 8.257812 18.347656 8.28125 18.359375 8.304688 18.359375 C 8.324219 18.363281 8.347656 18.363281 8.367188 18.359375 C 8.386719 18.355469 8.40625 18.347656 8.421875 18.335938 C 8.441406 18.324219 8.457031 18.308594 8.46875 18.289062 C 8.480469 18.269531 8.488281 18.25 8.488281 18.226562 C 8.492188 18.207031 8.488281 18.1875 8.480469 18.164062 C 8.472656 18.144531 8.464844 18.125 8.449219 18.105469 C 8.4375 18.085938 8.417969 18.070312 8.394531 18.054688 L 8.214844 17.941406 L 8.042969 18.210938 Z M 8.484375 17.898438 C 8.503906 17.910156 8.527344 17.921875 8.546875 17.925781 C 8.570312 17.929688 8.589844 17.925781 8.609375 17.921875 C 8.628906 17.917969 8.644531 17.910156 8.660156 17.894531 C 8.679688 17.882812 8.691406 17.867188 8.703125 17.851562 C 8.722656 17.816406 8.730469 17.78125 8.722656 17.742188 C 8.714844 17.703125 8.6875 17.667969 8.640625 17.640625 L 8.472656 17.53125 L 8.3125 17.789062 Z M 8.484375 17.898438 "/>
    <path style=" stroke:none;fill-rule:nonzero;fill:rgb(13.72549%,12.156863%,12.54902%);fill-opacity:1;" d="M 9.925781 18.863281 C 9.902344 18.925781 9.867188 18.976562 9.824219 19.019531 C 9.78125 19.0625 9.734375 19.09375 9.679688 19.117188 C 9.625 19.140625 9.566406 19.152344 9.503906 19.15625 C 9.441406 19.15625 9.375 19.140625 9.3125 19.117188 C 9.246094 19.089844 9.191406 19.054688 9.144531 19.011719 C 9.101562 18.964844 9.066406 18.917969 9.042969 18.863281 C 9.019531 18.808594 9.007812 18.75 9.003906 18.691406 C 9.003906 18.628906 9.015625 18.570312 9.039062 18.507812 L 9.316406 17.816406 L 9.523438 17.898438 L 9.25 18.578125 C 9.238281 18.613281 9.230469 18.648438 9.230469 18.683594 C 9.226562 18.71875 9.234375 18.75 9.246094 18.78125 C 9.257812 18.8125 9.277344 18.839844 9.300781 18.863281 C 9.324219 18.890625 9.355469 18.910156 9.390625 18.921875 C 9.425781 18.9375 9.460938 18.941406 9.496094 18.941406 C 9.527344 18.941406 9.558594 18.933594 9.589844 18.917969 C 9.621094 18.90625 9.648438 18.882812 9.671875 18.859375 C 9.695312 18.835938 9.714844 18.804688 9.726562 18.769531 L 10 18.085938 L 10.207031 18.171875 Z M 9.925781 18.863281 "/>
    <path style=" stroke:none;fill-rule:nonzero;fill:rgb(13.72549%,12.156863%,12.54902%);fill-opacity:1;" d="M 10.984375 18.671875 C 10.96875 18.621094 10.941406 18.578125 10.90625 18.550781 C 10.875 18.523438 10.835938 18.503906 10.796875 18.496094 C 10.769531 18.488281 10.746094 18.488281 10.722656 18.488281 C 10.699219 18.488281 10.679688 18.496094 10.664062 18.503906 C 10.644531 18.511719 10.628906 18.523438 10.617188 18.535156 C 10.605469 18.550781 10.597656 18.566406 10.59375 18.585938 C 10.589844 18.609375 10.59375 18.632812 10.601562 18.652344 C 10.609375 18.667969 10.625 18.6875 10.644531 18.707031 C 10.660156 18.726562 10.683594 18.742188 10.710938 18.761719 C 10.738281 18.78125 10.765625 18.800781 10.796875 18.824219 C 10.839844 18.855469 10.878906 18.882812 10.917969 18.914062 C 10.953125 18.941406 10.980469 18.972656 11.007812 19.007812 C 11.03125 19.039062 11.046875 19.078125 11.058594 19.113281 C 11.066406 19.15625 11.066406 19.199219 11.054688 19.25 C 11.042969 19.292969 11.027344 19.335938 11 19.371094 C 10.972656 19.40625 10.941406 19.4375 10.898438 19.460938 C 10.855469 19.484375 10.808594 19.5 10.753906 19.507812 C 10.703125 19.511719 10.640625 19.511719 10.574219 19.496094 C 10.53125 19.488281 10.492188 19.472656 10.453125 19.457031 C 10.414062 19.4375 10.378906 19.414062 10.347656 19.386719 C 10.3125 19.359375 10.285156 19.328125 10.261719 19.292969 C 10.238281 19.261719 10.222656 19.222656 10.210938 19.179688 L 10.402344 19.089844 C 10.417969 19.144531 10.445312 19.191406 10.480469 19.226562 C 10.519531 19.261719 10.566406 19.289062 10.621094 19.300781 C 10.652344 19.304688 10.675781 19.308594 10.703125 19.304688 C 10.726562 19.304688 10.75 19.296875 10.769531 19.289062 C 10.789062 19.28125 10.800781 19.269531 10.8125 19.257812 C 10.828125 19.246094 10.835938 19.230469 10.839844 19.210938 C 10.84375 19.1875 10.84375 19.164062 10.835938 19.144531 C 10.828125 19.125 10.8125 19.105469 10.792969 19.085938 C 10.773438 19.066406 10.75 19.046875 10.722656 19.027344 C 10.691406 19.007812 10.660156 18.984375 10.625 18.957031 C 10.589844 18.929688 10.554688 18.90625 10.519531 18.878906 C 10.484375 18.851562 10.453125 18.820312 10.429688 18.789062 C 10.40625 18.757812 10.390625 18.722656 10.378906 18.683594 C 10.367188 18.644531 10.367188 18.597656 10.378906 18.546875 C 10.390625 18.496094 10.40625 18.457031 10.4375 18.421875 C 10.464844 18.382812 10.5 18.355469 10.539062 18.332031 C 10.582031 18.3125 10.628906 18.296875 10.679688 18.289062 C 10.730469 18.28125 10.785156 18.285156 10.84375 18.296875 C 10.882812 18.304688 10.917969 18.316406 10.953125 18.332031 C 10.988281 18.347656 11.019531 18.367188 11.046875 18.390625 C 11.074219 18.417969 11.101562 18.445312 11.125 18.476562 C 11.144531 18.507812 11.164062 18.542969 11.175781 18.582031 Z M 10.984375 18.671875 "/>
    <path style=" stroke:none;fill-rule:nonzero;fill:rgb(13.72549%,12.156863%,12.54902%);fill-opacity:1;" d="M 11.503906 18.421875 L 11.722656 18.441406 L 11.621094 19.628906 L 11.398438 19.609375 Z M 11.503906 18.421875 "/>
    <path style=" stroke:none;fill-rule:nonzero;fill:rgb(13.72549%,12.156863%,12.54902%);fill-opacity:1;" d="M 13.066406 18.414062 L 13.136719 19.601562 L 12.949219 19.613281 L 12.308594 18.839844 L 12.359375 19.648438 L 12.136719 19.660156 L 12.066406 18.472656 L 12.253906 18.464844 L 12.894531 19.230469 L 12.847656 18.429688 Z M 13.066406 18.414062 "/>
    <path style=" stroke:none;fill-rule:nonzero;fill:rgb(13.72549%,12.156863%,12.54902%);fill-opacity:1;" d="M 13.386719 18.355469 L 14.128906 18.171875 L 14.175781 18.359375 L 13.644531 18.488281 L 13.71875 18.78125 L 14.152344 18.675781 L 14.199219 18.863281 L 13.765625 18.96875 L 13.835938 19.265625 L 14.382812 19.132812 L 14.429688 19.324219 L 13.667969 19.507812 Z M 13.386719 18.355469 "/>
    <path style=" stroke:none;fill-rule:nonzero;fill:rgb(13.72549%,12.156863%,12.54902%);fill-opacity:1;" d="M 15.015625 18.152344 C 14.972656 18.121094 14.925781 18.105469 14.882812 18.097656 C 14.839844 18.09375 14.796875 18.101562 14.757812 18.117188 C 14.734375 18.128906 14.714844 18.140625 14.695312 18.152344 C 14.679688 18.167969 14.664062 18.183594 14.65625 18.199219 C 14.644531 18.21875 14.640625 18.234375 14.636719 18.253906 C 14.636719 18.269531 14.640625 18.289062 14.644531 18.308594 C 14.65625 18.328125 14.667969 18.347656 14.6875 18.359375 C 14.707031 18.367188 14.730469 18.375 14.753906 18.378906 C 14.78125 18.386719 14.808594 18.386719 14.84375 18.386719 C 14.875 18.386719 14.910156 18.390625 14.949219 18.390625 C 15.003906 18.390625 15.050781 18.390625 15.097656 18.394531 C 15.144531 18.398438 15.1875 18.40625 15.226562 18.421875 C 15.265625 18.433594 15.296875 18.453125 15.328125 18.480469 C 15.359375 18.507812 15.382812 18.546875 15.40625 18.59375 C 15.421875 18.636719 15.429688 18.679688 15.429688 18.722656 C 15.425781 18.769531 15.417969 18.8125 15.394531 18.855469 C 15.375 18.898438 15.34375 18.9375 15.304688 18.976562 C 15.265625 19.011719 15.214844 19.042969 15.152344 19.070312 C 15.113281 19.085938 15.070312 19.097656 15.027344 19.105469 C 14.984375 19.113281 14.941406 19.113281 14.902344 19.109375 C 14.859375 19.105469 14.820312 19.09375 14.78125 19.082031 C 14.742188 19.066406 14.703125 19.046875 14.671875 19.019531 L 14.777344 18.835938 C 14.820312 18.871094 14.871094 18.894531 14.921875 18.902344 C 14.972656 18.910156 15.023438 18.90625 15.078125 18.882812 C 15.101562 18.871094 15.125 18.855469 15.144531 18.839844 C 15.164062 18.824219 15.179688 18.808594 15.191406 18.789062 C 15.203125 18.773438 15.207031 18.757812 15.210938 18.738281 C 15.214844 18.71875 15.210938 18.703125 15.203125 18.6875 C 15.195312 18.664062 15.179688 18.644531 15.160156 18.632812 C 15.144531 18.621094 15.121094 18.613281 15.097656 18.609375 C 15.070312 18.605469 15.039062 18.601562 15.003906 18.601562 C 14.96875 18.601562 14.929688 18.601562 14.886719 18.601562 C 14.839844 18.601562 14.792969 18.597656 14.75 18.59375 C 14.707031 18.59375 14.667969 18.585938 14.628906 18.574219 C 14.589844 18.558594 14.558594 18.539062 14.523438 18.511719 C 14.492188 18.488281 14.46875 18.449219 14.449219 18.402344 C 14.429688 18.355469 14.421875 18.308594 14.421875 18.265625 C 14.425781 18.21875 14.4375 18.175781 14.457031 18.132812 C 14.480469 18.089844 14.511719 18.054688 14.546875 18.019531 C 14.585938 17.984375 14.632812 17.953125 14.6875 17.929688 C 14.722656 17.914062 14.761719 17.90625 14.796875 17.898438 C 14.835938 17.894531 14.871094 17.890625 14.910156 17.894531 C 14.949219 17.898438 14.984375 17.90625 15.019531 17.917969 C 15.054688 17.933594 15.089844 17.953125 15.121094 17.976562 Z M 15.015625 18.152344 "/>
    <path style=" stroke:none;fill-rule:nonzero;fill:rgb(13.72549%,12.156863%,12.54902%);fill-opacity:1;" d="M 15.925781 17.648438 C 15.875 17.625 15.828125 17.613281 15.785156 17.613281 C 15.742188 17.617188 15.699219 17.628906 15.664062 17.652344 C 15.644531 17.664062 15.625 17.679688 15.609375 17.695312 C 15.59375 17.714844 15.582031 17.730469 15.574219 17.75 C 15.566406 17.769531 15.5625 17.785156 15.566406 17.804688 C 15.566406 17.824219 15.570312 17.839844 15.582031 17.859375 C 15.59375 17.878906 15.609375 17.890625 15.628906 17.902344 C 15.652344 17.910156 15.671875 17.914062 15.699219 17.914062 C 15.726562 17.914062 15.753906 17.910156 15.789062 17.90625 C 15.820312 17.902344 15.855469 17.898438 15.890625 17.890625 C 15.945312 17.886719 15.996094 17.878906 16.039062 17.875 C 16.085938 17.871094 16.128906 17.875 16.171875 17.882812 C 16.210938 17.886719 16.246094 17.902344 16.28125 17.925781 C 16.3125 17.945312 16.34375 17.980469 16.371094 18.023438 C 16.394531 18.0625 16.410156 18.105469 16.417969 18.148438 C 16.421875 18.195312 16.417969 18.238281 16.40625 18.285156 C 16.390625 18.332031 16.367188 18.375 16.332031 18.417969 C 16.300781 18.460938 16.253906 18.5 16.195312 18.535156 C 16.160156 18.558594 16.121094 18.574219 16.078125 18.589844 C 16.039062 18.601562 15.996094 18.609375 15.953125 18.609375 C 15.910156 18.613281 15.871094 18.609375 15.828125 18.601562 C 15.789062 18.59375 15.75 18.578125 15.710938 18.554688 L 15.785156 18.359375 C 15.835938 18.386719 15.886719 18.402344 15.941406 18.402344 C 15.992188 18.402344 16.042969 18.386719 16.089844 18.359375 C 16.117188 18.34375 16.136719 18.328125 16.152344 18.308594 C 16.171875 18.289062 16.183594 18.269531 16.191406 18.253906 C 16.199219 18.234375 16.203125 18.214844 16.203125 18.195312 C 16.203125 18.179688 16.195312 18.160156 16.1875 18.148438 C 16.171875 18.125 16.15625 18.109375 16.136719 18.101562 C 16.117188 18.089844 16.09375 18.085938 16.066406 18.085938 C 16.042969 18.085938 16.011719 18.089844 15.976562 18.09375 C 15.941406 18.097656 15.902344 18.105469 15.859375 18.113281 C 15.8125 18.117188 15.769531 18.121094 15.726562 18.125 C 15.679688 18.128906 15.640625 18.128906 15.601562 18.121094 C 15.5625 18.117188 15.523438 18.101562 15.488281 18.082031 C 15.453125 18.058594 15.421875 18.023438 15.394531 17.980469 C 15.371094 17.9375 15.355469 17.894531 15.351562 17.851562 C 15.34375 17.804688 15.351562 17.757812 15.367188 17.714844 C 15.378906 17.671875 15.40625 17.628906 15.4375 17.585938 C 15.46875 17.546875 15.511719 17.511719 15.558594 17.480469 C 15.59375 17.460938 15.628906 17.441406 15.664062 17.429688 C 15.699219 17.417969 15.738281 17.410156 15.773438 17.410156 C 15.8125 17.40625 15.847656 17.410156 15.886719 17.417969 C 15.925781 17.425781 15.960938 17.441406 15.996094 17.460938 Z M 15.925781 17.648438 "/>
    <path style=" stroke:none;fill-rule:nonzero;fill:rgb(13.72549%,12.156863%,12.54902%);fill-opacity:1;" d="M 8.847656 6.054688 C 8.847656 6.105469 8.84375 6.152344 8.835938 6.199219 C 8.824219 6.25 8.808594 6.292969 8.789062 6.339844 C 8.765625 6.382812 8.738281 6.421875 8.707031 6.464844 C 8.671875 6.503906 8.632812 6.539062 8.589844 6.570312 C 8.515625 6.621094 8.441406 6.652344 8.359375 6.667969 C 8.28125 6.683594 8.203125 6.6875 8.125 6.671875 C 8.046875 6.65625 7.976562 6.628906 7.90625 6.585938 C 7.839844 6.539062 7.78125 6.480469 7.730469 6.410156 C 7.683594 6.339844 7.648438 6.261719 7.632812 6.183594 C 7.613281 6.105469 7.613281 6.027344 7.628906 5.949219 C 7.640625 5.871094 7.671875 5.800781 7.714844 5.730469 C 7.757812 5.664062 7.816406 5.605469 7.890625 5.554688 C 7.9375 5.523438 7.984375 5.5 8.035156 5.480469 C 8.082031 5.460938 8.132812 5.453125 8.179688 5.445312 C 8.226562 5.441406 8.273438 5.445312 8.320312 5.453125 C 8.363281 5.460938 8.410156 5.472656 8.449219 5.492188 L 8.394531 5.699219 C 8.363281 5.6875 8.332031 5.675781 8.300781 5.671875 C 8.269531 5.664062 8.238281 5.660156 8.203125 5.664062 C 8.167969 5.667969 8.136719 5.671875 8.105469 5.683594 C 8.074219 5.695312 8.039062 5.710938 8.011719 5.730469 C 7.964844 5.761719 7.925781 5.800781 7.902344 5.84375 C 7.875 5.886719 7.855469 5.933594 7.847656 5.984375 C 7.839844 6.03125 7.84375 6.082031 7.855469 6.132812 C 7.867188 6.183594 7.890625 6.234375 7.921875 6.28125 C 7.953125 6.328125 7.992188 6.367188 8.035156 6.394531 C 8.078125 6.425781 8.125 6.445312 8.171875 6.457031 C 8.21875 6.46875 8.269531 6.46875 8.320312 6.457031 C 8.371094 6.449219 8.417969 6.425781 8.460938 6.398438 C 8.523438 6.355469 8.570312 6.300781 8.597656 6.242188 C 8.625 6.183594 8.636719 6.117188 8.636719 6.042969 Z M 8.847656 6.054688 "/>
    <path style=" stroke:none;fill-rule:nonzero;fill:rgb(13.72549%,12.156863%,12.54902%);fill-opacity:1;" d="M 8.726562 5.082031 L 9.425781 4.769531 L 9.503906 4.949219 L 9.007812 5.167969 L 9.128906 5.441406 L 9.539062 5.261719 L 9.621094 5.4375 L 9.210938 5.621094 L 9.335938 5.902344 L 9.847656 5.671875 L 9.925781 5.847656 L 9.210938 6.167969 Z M 8.726562 5.082031 "/>
    <path style=" stroke:none;fill-rule:nonzero;fill:rgb(13.72549%,12.156863%,12.54902%);fill-opacity:1;" d="M 10.1875 5.761719 L 9.898438 4.605469 L 10.378906 4.484375 C 10.429688 4.472656 10.484375 4.46875 10.535156 4.476562 C 10.585938 4.480469 10.632812 4.496094 10.671875 4.519531 C 10.714844 4.539062 10.75 4.570312 10.78125 4.613281 C 10.8125 4.652344 10.832031 4.699219 10.847656 4.753906 C 10.855469 4.789062 10.859375 4.828125 10.859375 4.863281 C 10.855469 4.902344 10.847656 4.9375 10.835938 4.96875 C 10.820312 5 10.804688 5.03125 10.78125 5.058594 C 10.757812 5.085938 10.734375 5.113281 10.703125 5.136719 L 11.046875 5.542969 L 10.8125 5.601562 L 10.503906 5.21875 L 10.296875 5.273438 L 10.40625 5.703125 Z M 10.484375 5.035156 C 10.507812 5.03125 10.53125 5.019531 10.554688 5.003906 C 10.574219 4.992188 10.589844 4.972656 10.601562 4.953125 C 10.613281 4.933594 10.621094 4.910156 10.625 4.886719 C 10.628906 4.859375 10.628906 4.835938 10.621094 4.808594 C 10.613281 4.78125 10.605469 4.761719 10.589844 4.742188 C 10.574219 4.722656 10.558594 4.707031 10.539062 4.695312 C 10.515625 4.6875 10.492188 4.679688 10.46875 4.675781 C 10.445312 4.675781 10.421875 4.675781 10.394531 4.683594 L 10.160156 4.742188 L 10.25 5.097656 Z M 10.484375 5.035156 "/>
    <path style=" stroke:none;fill-rule:nonzero;fill:rgb(13.72549%,12.156863%,12.54902%);fill-opacity:1;" d="M 11.464844 4.503906 L 11.125 4.53125 L 11.109375 4.335938 L 12.007812 4.261719 L 12.023438 4.460938 L 11.683594 4.488281 L 11.761719 5.476562 L 11.542969 5.496094 Z M 11.464844 4.503906 "/>
    <path style=" stroke:none;fill-rule:nonzero;fill:rgb(13.72549%,12.156863%,12.54902%);fill-opacity:1;" d="M 12.417969 4.277344 L 12.636719 4.289062 L 12.582031 5.476562 L 12.363281 5.46875 Z M 12.417969 4.277344 "/>
    <path style=" stroke:none;fill-rule:nonzero;fill:rgb(13.72549%,12.156863%,12.54902%);fill-opacity:1;" d="M 13.171875 4.332031 L 13.882812 4.453125 L 13.851562 4.644531 L 13.359375 4.5625 L 13.304688 4.882812 L 13.71875 4.953125 L 13.6875 5.140625 L 13.273438 5.070312 L 13.191406 5.542969 L 12.972656 5.507812 Z M 13.171875 4.332031 "/>
    <path style=" stroke:none;fill-rule:nonzero;fill:rgb(13.72549%,12.156863%,12.54902%);fill-opacity:1;" d="M 14.304688 4.574219 L 14.515625 4.640625 L 14.167969 5.777344 L 13.957031 5.714844 Z M 14.304688 4.574219 "/>
    <path style=" stroke:none;fill-rule:nonzero;fill:rgb(13.72549%,12.156863%,12.54902%);fill-opacity:1;" d="M 15.027344 4.8125 L 15.726562 5.132812 L 15.644531 5.308594 L 15.148438 5.085938 L 15.023438 5.359375 L 15.433594 5.542969 L 15.351562 5.71875 L 14.945312 5.535156 L 14.816406 5.816406 L 15.328125 6.046875 L 15.25 6.226562 L 14.535156 5.902344 Z M 15.027344 4.8125 "/>
    <path style=" stroke:none;fill-rule:nonzero;fill:rgb(13.72549%,12.156863%,12.54902%);fill-opacity:1;" d="M 16.167969 5.378906 L 16.515625 5.621094 C 16.589844 5.671875 16.644531 5.730469 16.691406 5.796875 C 16.734375 5.867188 16.761719 5.9375 16.773438 6.011719 C 16.785156 6.085938 16.785156 6.160156 16.769531 6.238281 C 16.753906 6.316406 16.722656 6.386719 16.671875 6.453125 C 16.625 6.523438 16.570312 6.578125 16.5 6.621094 C 16.433594 6.664062 16.363281 6.691406 16.289062 6.707031 C 16.214844 6.71875 16.140625 6.71875 16.0625 6.699219 C 15.984375 6.683594 15.90625 6.648438 15.835938 6.597656 L 15.484375 6.355469 Z M 15.933594 6.425781 C 15.976562 6.457031 16.023438 6.480469 16.078125 6.492188 C 16.125 6.5 16.175781 6.503906 16.226562 6.496094 C 16.277344 6.484375 16.324219 6.46875 16.371094 6.4375 C 16.414062 6.410156 16.453125 6.371094 16.488281 6.324219 C 16.519531 6.277344 16.542969 6.226562 16.554688 6.175781 C 16.5625 6.125 16.566406 6.074219 16.554688 6.023438 C 16.546875 5.976562 16.53125 5.929688 16.503906 5.882812 C 16.476562 5.839844 16.4375 5.800781 16.394531 5.769531 L 16.238281 5.664062 L 15.777344 6.320312 Z M 15.933594 6.425781 "/>
    <path style=" stroke:none;fill-rule:nonzero;fill:rgb(13.72549%,12.156863%,12.54902%);fill-opacity:1;" d="M 19.242188 11.949219 C 19.242188 12.167969 19.0625 12.347656 18.84375 12.347656 C 18.621094 12.347656 18.445312 12.167969 18.445312 11.949219 C 18.445312 11.726562 18.621094 11.550781 18.84375 11.550781 C 19.0625 11.550781 19.242188 11.726562 19.242188 11.949219 Z M 19.242188 11.949219 "/>
    <path style=" stroke:none;fill-rule:nonzero;fill:rgb(13.72549%,12.156863%,12.54902%);fill-opacity:1;" d="M 5.492188 11.949219 C 5.492188 12.167969 5.316406 12.347656 5.09375 12.347656 C 4.875 12.347656 4.695312 12.167969 4.695312 11.949219 C 4.695312 11.726562 4.875 11.550781 5.09375 11.550781 C 5.316406 11.550781 5.492188 11.726562 5.492188 11.949219 Z M 5.492188 11.949219 "/>
  </g>
</svg>
