<svg width="40" height="40" viewBox="0 0 40 40" fill="none" xmlns="http://www.w3.org/2000/svg">
<circle cx="20" cy="20" r="19.5" stroke="#848484"/>
<path d="M20.4523 19.4523L27.5477 19.4523C27.7975 19.4523 28 19.2498 28 19C28 18.7502 27.7975 18.5477 27.5477 18.5477L20.4523 18.5477L20.4523 11.4523C20.4523 11.2025 20.2498 11 20 11C19.7502 11 19.5477 11.2025 19.5477 11.4523L19.5477 18.5477L12.4523 18.5477C12.2025 18.5477 12 18.7502 12 19C12 19.1249 12.0506 19.238 12.1325 19.3198C12.2144 19.4017 12.3274 19.4523 12.4523 19.4523L19.5477 19.4523L19.5477 26.5477C19.5477 26.6726 19.5983 26.7856 19.6802 26.8675C19.762 26.9494 19.8751 27 20 27C20.2498 27 20.4523 26.7975 20.4523 26.5477L20.4523 19.4523Z" fill="#848484"/>
</svg>
