<svg width="60" height="60" viewBox="0 0 60 60" fill="none" xmlns="http://www.w3.org/2000/svg">
<g filter="url(#filter0_d)">
<circle cx="30" cy="26" r="20" fill="white"/>
</g>
<g clip-path="url(#clip0)">
<path fill-rule="evenodd" clip-rule="evenodd" d="M31.951 19.7083C29.2112 22.4663 26.4755 25.2198 23.7376 27.9756C24.8079 29.0451 25.8895 30.1258 26.951 31.1865C29.6852 28.4403 32.4269 25.6861 35.1574 22.9438C34.0933 21.8699 33.0204 20.7871 31.951 19.7083ZM36.0462 22.084C36.5984 21.5315 37.1584 20.999 37.6854 20.4351C38.1031 19.9881 38.1016 19.3588 37.6993 18.936C37.1948 18.4057 36.68 17.8841 36.1492 17.3806C35.6021 16.8618 34.7711 16.8792 34.2195 17.3973C34.0063 17.5976 33.8042 17.8101 33.5975 18.0175C33.3305 18.2852 33.064 18.5533 32.8053 18.8132C33.8892 19.9072 34.9648 20.9925 36.0462 22.084Z" fill="#0C353E"/>
<path d="M22 32.1346C22.1038 31.691 22.2103 31.2481 22.3105 30.804C22.4919 29.9993 22.6696 29.1937 22.8429 28.416C23.9387 29.5129 25.043 30.618 26.1444 31.7204C25.7748 31.8107 25.3736 31.9097 24.9721 32.0066C24.1803 32.1979 23.3881 32.3877 22.5962 32.5787C22.2659 32.6583 22.1775 32.6254 22 32.3528V32.1346Z" fill="#0C353E"/>
<path d="M32.2674 18.9792C33.3707 20.0861 34.4778 21.1972 35.5757 22.299C32.7584 25.1128 29.9295 27.9385 27.1084 30.7563C26.0131 29.6679 24.8972 28.559 23.7928 27.4618C26.6178 24.6343 29.4405 21.8091 32.2674 18.9792Z" fill="#0C353E"/>
<path d="M35.6929 22.2163C34.577 21.0964 33.4674 19.9828 32.3488 18.8604C32.6158 18.5937 32.891 18.3187 33.1665 18.044C33.3797 17.8312 33.5882 17.6131 33.8082 17.4077C34.3771 16.876 35.2346 16.8582 35.799 17.3905C36.3469 17.9071 36.878 18.4423 37.3984 18.9864C37.8136 19.4202 37.8152 20.0659 37.3842 20.5245C36.8406 21.1031 36.2628 21.6494 35.6929 22.2163Z" fill="#0C353E"/>
</g>
<defs>
<filter id="filter0_d" x="0" y="0" width="60" height="60" filterUnits="userSpaceOnUse" color-interpolation-filters="sRGB">
<feFlood flood-opacity="0" result="BackgroundImageFix"/>
<feColorMatrix in="SourceAlpha" type="matrix" values="0 0 0 0 0 0 0 0 0 0 0 0 0 0 0 0 0 0 127 0"/>
<feOffset dy="4"/>
<feGaussianBlur stdDeviation="5"/>
<feColorMatrix type="matrix" values="0 0 0 0 0.0403125 0 0 0 0 0.154173 0 0 0 0 0.179167 0 0 0 0.15 0"/>
<feBlend mode="normal" in2="BackgroundImageFix" result="effect1_dropShadow"/>
<feBlend mode="normal" in="SourceGraphic" in2="effect1_dropShadow" result="shape"/>
</filter>
<clipPath id="clip0">
<rect width="16" height="16" fill="white" transform="translate(22 17)"/>
</clipPath>
</defs>
</svg>
