<svg width="105" height="114" viewBox="0 0 105 114" fill="none" xmlns="http://www.w3.org/2000/svg">
<path d="M73.7073 0.0642059C73.7073 0.0642059 73.5605 0.0642059 73.2779 0.0642059C72.8651 0.0396472 72.4513 0.0396472 72.0385 0.0642059C70.442 0.157848 68.8736 0.526304 67.402 1.15342C65.0692 2.13311 63.0392 3.71781 61.5206 5.74448C60.5843 7.00994 59.8879 8.43686 59.4659 9.95431C58.5146 13.569 59.0285 17.4139 60.8955 20.6504C61.4044 21.5465 62.0254 22.3737 62.7436 23.1121C63.4681 23.8943 64.3121 24.5561 65.244 25.0727C66.2003 25.6119 67.2833 25.8845 68.3804 25.8623C69.5115 25.8487 70.5961 25.4094 71.4189 24.6315C71.8166 24.214 72.1284 23.7221 72.3363 23.1838C72.5443 22.6456 72.6444 22.0716 72.631 21.4946C72.6227 20.2958 72.2428 19.1292 71.5439 18.1561C70.1361 16.1683 67.8531 14.834 65.4234 14.1151C62.9039 13.4061 60.2433 13.3686 57.7048 14.0062C56.4091 14.3439 55.1602 14.8415 53.9868 15.4875C52.8023 16.1573 51.7264 17.0039 50.7961 17.9982C50.5733 18.2542 50.3178 18.4883 50.1167 18.7715L49.5025 19.5993C49.129 20.1827 48.7949 20.7903 48.5023 21.4183C47.9209 22.6933 47.5237 24.0448 47.3228 25.4321C46.9282 28.2035 47.3044 31.0302 48.4099 33.6012C49.4666 36.1134 51.3068 38.2152 53.6553 39.5919C54.7939 40.2438 56.0649 40.6292 57.3732 40.7193C58.6561 40.7912 59.9317 40.4844 61.0423 39.837C62.1445 39.2267 63.0155 38.2697 63.5209 37.114C63.9976 35.9749 64.0306 34.6981 63.6133 33.5359C63.1837 32.4145 62.4812 31.4186 61.5695 30.6386C60.6853 29.8729 59.6657 29.28 58.5636 28.8904C56.4143 28.2114 54.1145 28.1716 51.9431 28.776C49.9113 29.3276 48.0451 30.3691 46.5074 31.8095C45.1069 33.1538 44.0401 34.8083 43.3928 36.6402C42.2605 39.8187 42.3127 43.3001 43.5396 46.4431C44.4965 48.7896 46.0365 50.8518 48.0131 52.4338C49.2582 53.4344 50.645 54.2438 52.1279 54.8356C52.6388 55.0262 53.0356 55.1678 53.3074 55.244L53.7096 55.3747C53.7096 55.3747 53.5683 55.3475 53.2965 55.2712C52.8949 55.1636 52.4994 55.0345 52.1116 54.8846C50.6092 54.3189 49.2044 53.5214 47.9479 52.521C45.9378 50.94 44.3673 48.8677 43.3874 46.503C42.1388 43.3303 42.0751 39.8126 43.208 36.5966C43.8565 34.7369 44.935 33.0574 46.3552 31.6951C47.9147 30.2258 49.8085 29.1602 51.8724 28.5908C54.0894 27.9711 56.4383 28.0089 58.6343 28.6998C59.7688 29.0962 60.8183 29.7041 61.7272 30.4915C62.6746 31.2971 63.4038 32.3292 63.8471 33.4923C64.2941 34.7066 64.2747 36.0439 63.7927 37.2447C63.2565 38.4459 62.347 39.4413 61.1999 40.0821C60.0483 40.7545 58.7261 41.0762 57.395 41.0079C56.0547 40.9142 54.7535 40.5156 53.59 39.8425C51.1879 38.4464 49.3019 36.3083 48.2142 33.7483C47.085 31.1302 46.6975 28.2509 47.0945 25.4267C47.302 24.0113 47.7083 22.6325 48.3012 21.3312C48.5998 20.6899 48.9412 20.0694 49.3231 19.4741L49.9536 18.6299C50.1547 18.3413 50.4157 18.0853 50.6439 17.8348C51.596 16.8217 52.6956 15.9587 53.9053 15.2751C55.106 14.6168 56.3842 14.1118 57.7103 13.772C60.2971 13.1225 63.0086 13.1619 65.5756 13.8864C68.0542 14.6271 70.3752 15.9831 71.8374 18.0418C72.5723 19.0554 72.9715 20.2744 72.9789 21.5273C73.0053 22.7602 72.542 23.9532 71.6906 24.8439C70.821 25.6619 69.6764 26.1225 68.4836 26.1346C67.3423 26.1606 66.2153 25.8764 65.2223 25.3123C64.2681 24.7848 63.4054 24.1062 62.6675 23.3027C61.9399 22.5478 61.3099 21.7043 60.7922 20.792C58.8919 17.4954 58.3758 13.5776 59.3572 9.89985C59.7923 8.36485 60.5053 6.92307 61.4608 5.64645C63.0073 3.6044 65.0721 2.01523 67.44 1.0445C68.9238 0.429492 70.5046 0.0828444 72.1092 0.0206362C72.5255 -0.00687872 72.9431 -0.00687872 73.3594 0.0206362L73.7073 0.0642059Z" fill="#4D5662"></path>
<path d="M92.2128 55.106H16V111C16 112.657 17.3431 114 19 114H89.2128C90.8697 114 92.2128 112.657 92.2128 111V55.106Z" fill="#848484"></path>
<path d="M15.6433 54.5577L29.7216 67.7155H104.641L91.8561 54.5577H15.6433Z" fill="#CFD4D5"></path>
<path d="M15.6433 54.5578L91.8779 54.4216H91.9376L91.9811 54.4597L104.635 67.4814L104.766 67.6175L104.999 67.8571H104.662L29.7433 67.7972H29.7107L15.6433 54.5578L29.7759 67.6284H29.7161L104.635 67.5739L104.537 67.8136L104.402 67.6774L91.7528 54.6558L91.8507 54.6994L15.6433 54.5578Z" fill="#263238"></path>
<path opacity="0.5" d="M15.8179 55.2058L29.2982 72.3283H91.8567V67.7155H29.7222L15.8179 55.2058Z" fill="black"></path>
<path opacity="0.4" d="M15.6437 54.5577L2.09882 65.9502C1.38478 66.5508 1.80947 67.7155 2.7425 67.7155H15.6437V54.5577Z" fill="#CFD4D5"></path>
</svg>