<svg width="44" height="44" viewBox="0 0 44 44" fill="none" xmlns="http://www.w3.org/2000/svg">
<g filter="url(#filter0_d)">
<circle cx="22" cy="18" r="12" fill="white"/>
</g>
<g clip-path="url(#clip0)">
<path d="M26.5661 12.5511C25.9288 11.9149 24.8969 11.9149 24.2597 12.5511L23.6823 13.1316L17.5365 19.2741L17.5235 19.2873C17.5203 19.2904 17.5203 19.2938 17.5169 19.2938C17.5104 19.3036 17.5006 19.3133 17.4942 19.3231C17.4942 19.3263 17.4908 19.3263 17.4908 19.3296C17.4843 19.3394 17.4811 19.3459 17.4745 19.3557C17.4713 19.359 17.4713 19.3621 17.4681 19.3655C17.4648 19.3753 17.4615 19.3818 17.4582 19.3916C17.4582 19.3948 17.455 19.3948 17.455 19.3982L16.0914 23.4986C16.0514 23.6153 16.0818 23.7446 16.1697 23.8312C16.2314 23.8921 16.3147 23.9262 16.4013 23.9259C16.4367 23.9253 16.4718 23.9198 16.5057 23.9096L20.6029 22.5427C20.6061 22.5427 20.6061 22.5427 20.6095 22.5396C20.6198 22.5365 20.6297 22.5321 20.6388 22.5264C20.6413 22.5261 20.6436 22.525 20.6454 22.5233C20.6551 22.5167 20.6681 22.5101 20.6779 22.5036C20.6876 22.4971 20.6975 22.4873 20.7073 22.4808C20.7106 22.4774 20.7138 22.4774 20.7138 22.4743C20.7171 22.471 20.7237 22.4678 20.7269 22.4612L27.4501 15.7381C28.0862 15.1008 28.0862 14.0689 27.4501 13.4318L26.5661 12.5511ZM20.4986 21.7761L18.2282 19.5058L23.9107 13.8233L26.1811 16.0936L20.4986 21.7761ZM17.9084 20.1093L19.8918 22.0926L16.9135 23.0843L17.9084 20.1093ZM26.9902 15.2813L26.6443 15.6304L24.3738 13.3599L24.723 13.011C25.105 12.6293 25.724 12.6293 26.1061 13.011L26.9933 13.8982C27.3724 14.2819 27.371 14.8995 26.9902 15.2813Z" fill="#0C353E"/>
<path fill-rule="evenodd" clip-rule="evenodd" d="M24.2597 12.5511C24.8969 11.9149 25.9288 11.9149 26.5661 12.5511L27.4501 13.4318C28.0862 14.0689 28.0862 15.1008 27.4501 15.7381L20.7269 22.4612C20.7246 22.4659 20.7207 22.4689 20.7174 22.4713C20.716 22.4724 20.7148 22.4733 20.7138 22.4743C20.7138 22.4762 20.7126 22.477 20.7109 22.478C20.7099 22.4787 20.7086 22.4795 20.7073 22.4808C20.7024 22.4841 20.6975 22.4881 20.6926 22.4922C20.6877 22.4963 20.6828 22.5003 20.6779 22.5036C20.6731 22.5068 20.6675 22.51 20.6619 22.5133C20.6561 22.5166 20.6503 22.5199 20.6454 22.5233C20.6436 22.525 20.6413 22.5261 20.6388 22.5264C20.6297 22.5321 20.6198 22.5365 20.6095 22.5396C20.6075 22.5414 20.6067 22.5422 20.6057 22.5425C20.605 22.5428 20.6043 22.5427 20.6029 22.5427L16.5057 23.9096C16.4718 23.9198 16.4367 23.9253 16.4013 23.9259C16.3147 23.9262 16.2314 23.8921 16.1697 23.8312C16.0818 23.7446 16.0514 23.6153 16.0914 23.4986L17.455 19.3982C17.455 19.3965 17.4558 19.3956 17.4566 19.3948C17.4574 19.394 17.4582 19.3932 17.4582 19.3916C17.4598 19.3869 17.4614 19.383 17.4629 19.3791C17.4647 19.3748 17.4664 19.3706 17.4681 19.3655C17.4697 19.3638 17.4705 19.3622 17.4713 19.3606C17.4721 19.3589 17.4729 19.3573 17.4745 19.3557C17.4779 19.3507 17.4804 19.3465 17.4829 19.3422C17.4853 19.3383 17.4877 19.3343 17.4908 19.3296C17.4908 19.328 17.4917 19.3272 17.4925 19.3263C17.4933 19.3255 17.4942 19.3247 17.4942 19.3231C17.4974 19.3181 17.5016 19.3132 17.5057 19.3082C17.5097 19.3034 17.5137 19.2986 17.5169 19.2938C17.519 19.2938 17.5198 19.2925 17.5209 19.2907C17.5215 19.2897 17.5223 19.2884 17.5235 19.2873L17.5365 19.2741L23.6823 13.1316L24.2597 12.5511ZM23.6299 13.0792L24.2071 12.4988C24.8733 11.8338 25.9522 11.8337 26.6184 12.4986L27.5023 13.3793C28.1673 14.0454 28.1675 15.1243 27.5025 15.7904L20.7846 22.5083C20.779 22.5159 20.7732 22.5214 20.769 22.5249C20.7642 22.5305 20.7595 22.5343 20.7564 22.5366L20.755 22.5381L20.7484 22.5425C20.7473 22.5432 20.7455 22.5446 20.7399 22.5493L20.7391 22.5499C20.7347 22.5535 20.7271 22.5598 20.7189 22.5653C20.712 22.5699 20.7047 22.5741 20.6995 22.5771L20.6987 22.5776C20.6941 22.5802 20.6911 22.582 20.6889 22.5834C20.683 22.5878 20.6764 22.5916 20.6691 22.5945C20.6609 22.599 20.6524 22.6029 20.6438 22.6062C20.6421 22.6071 20.6403 22.6081 20.6384 22.609C20.6316 22.6123 20.625 22.6143 20.6194 22.6154L16.5271 23.9805C16.4867 23.9927 16.4449 23.9992 16.4026 24L16.4016 24C16.2953 24.0004 16.1933 23.9586 16.1177 23.884C16.0096 23.7774 15.9722 23.6185 16.0212 23.4749C16.0213 23.4748 16.0212 23.475 16.0212 23.4749L17.3832 19.3792C17.3833 19.3789 17.3834 19.3785 17.3835 19.3782C17.3853 19.3714 17.3879 19.3653 17.3908 19.36C17.3921 19.3567 17.3932 19.3539 17.3942 19.3516L17.3944 19.3509C17.3961 19.3469 17.3969 19.3446 17.3978 19.3421L17.4031 19.3261L17.4093 19.3197C17.4107 19.3174 17.4125 19.3146 17.4148 19.3118C17.4161 19.3097 17.4174 19.3076 17.4191 19.3047C17.4194 19.3042 17.4197 19.3036 17.4201 19.303V19.3009L17.4322 19.2824C17.4379 19.2738 17.4444 19.266 17.4481 19.2616L17.4487 19.261C17.4534 19.2553 17.4547 19.2536 17.4553 19.2527L17.4773 19.2197H17.4861L23.6299 13.0792ZM17.4709 19.2351C17.4655 19.2405 17.4618 19.2457 17.4596 19.2491L17.4576 19.2523C17.4572 19.2529 17.4577 19.252 17.4584 19.2509C17.4595 19.2493 17.4639 19.2427 17.4718 19.236M26.9377 15.2291C27.2897 14.8761 27.2911 14.3052 26.9408 13.9504C26.9407 13.9504 26.9408 13.9505 26.9408 13.9504L26.0537 13.0634C26.0537 13.0634 26.0537 13.0634 26.0537 13.0634C25.7006 12.7107 25.1284 12.7106 24.7754 13.0634C24.7754 13.0634 24.7754 13.0634 24.7754 13.0634L24.4786 13.36L26.6441 15.5254L26.9377 15.2291ZM26.6443 15.6304L24.3738 13.3599L24.723 13.011C25.105 12.6293 25.724 12.6293 26.1061 13.011L26.9933 13.8982C27.3724 14.2819 27.371 14.8995 26.9902 15.2813L26.6443 15.6304ZM20.4986 21.7761L18.2282 19.5058L23.9107 13.8233L26.1811 16.0936L20.4986 21.7761ZM26.0763 16.0936L20.4986 21.6714L18.3329 19.5058L23.9107 13.9281L26.0763 16.0936ZM17.9084 20.1093L16.9135 23.0843L19.8918 22.0926L17.9084 20.1093ZM17.9406 20.2463L17.0307 22.9672L19.7547 22.0603L17.9406 20.2463Z" fill="#0C353E"/>
</g>
<defs>
<filter id="filter0_d" x="0" y="0" width="44" height="44" filterUnits="userSpaceOnUse" color-interpolation-filters="sRGB">
<feFlood flood-opacity="0" result="BackgroundImageFix"/>
<feColorMatrix in="SourceAlpha" type="matrix" values="0 0 0 0 0 0 0 0 0 0 0 0 0 0 0 0 0 0 127 0"/>
<feOffset dy="4"/>
<feGaussianBlur stdDeviation="5"/>
<feColorMatrix type="matrix" values="0 0 0 0 0.0403125 0 0 0 0 0.154173 0 0 0 0 0.179167 0 0 0 0.15 0"/>
<feBlend mode="normal" in2="BackgroundImageFix" result="effect1_dropShadow"/>
<feBlend mode="normal" in="SourceGraphic" in2="effect1_dropShadow" result="shape"/>
</filter>
<clipPath id="clip0">
<rect width="12" height="12" fill="white" transform="translate(16 12)"/>
</clipPath>
</defs>
</svg>
