<svg width="12" height="12" viewBox="0 0 12 12" fill="none" xmlns="http://www.w3.org/2000/svg">
<path d="M6.33923 6.33924L11.6608 6.33922C11.8481 6.33922 12 6.18734 12 5.99999C12 5.81265 11.8481 5.66075 11.6608 5.66077L6.33922 5.66077L6.33923 0.339226C6.33923 0.151869 6.18735 -1.22277e-05 6.00001 7.37903e-10C5.81266 1.22291e-05 5.66077 0.151882 5.66078 0.339227L5.66077 5.66076L0.339227 5.66078C0.15187 5.66078 -1.17555e-05 5.81266 6.81489e-10 6.00001C-1.17359e-07 6.09367 0.0379822 6.17848 0.0993751 6.23987C0.160768 6.30126 0.24556 6.33923 0.339238 6.33925L5.66076 6.33923L5.66075 11.6608C5.66075 11.7544 5.69874 11.8392 5.76013 11.9006C5.82152 11.962 5.90631 12 5.99999 12C6.18735 12 6.33923 11.8481 6.33922 11.6608L6.33923 6.33924Z" fill="#0C353E"/>
</svg>
