<svg width="200" height="158" viewBox="0 0 200 158" fill="none" xmlns="http://www.w3.org/2000/svg">
<path d="M95.993 158C120.837 158 140.976 137.853 140.976 113C140.976 88.1472 120.837 68 95.993 68C71.1494 68 51.0098 88.1472 51.0098 113C51.0098 137.853 71.1494 158 95.993 158Z" fill="#C2C8C9"/>
<path d="M118.142 93.9355C118.657 94.4507 110.244 105.615 99.4275 119.184C97.0238 121.932 94.7918 124.68 92.7315 127.256L91.873 128.287L90.8429 127.256C82.2583 118.497 76.4208 111.97 76.9359 111.455C77.2792 111.111 83.8035 116.951 92.7315 125.367L90.8429 125.539C92.9032 122.962 95.1352 120.214 97.3672 117.466C108.184 104.069 117.627 93.5919 118.142 93.9355Z" fill="#0C353E"/>
<path d="M161.175 94.9005C159.796 90.078 153.592 90.5947 153.592 90.5947L153.764 93.8671C157.383 93.1782 159.624 97.484 159.624 97.484L161.175 94.9005Z" fill="#0C353E"/>
<path d="M30.5345 104.89C29.1558 100.067 22.9512 100.584 22.9512 100.584L23.1235 103.856C26.7429 103.167 28.9834 107.473 28.9834 107.473L30.5345 104.89Z" fill="#C2C8C9"/>
<path d="M102.576 39.4414C109.642 41.6804 114.123 33.4132 114.123 33.4132L109.815 31.002C107.746 35.9967 100.508 35.48 100.508 35.48L102.576 39.4414Z" fill="#C2C8C9"/>
<path d="M62.7643 48.2251C59.4897 48.5696 58.9727 52.7032 58.9727 52.7032L61.2132 53.0476C61.2132 50.6364 64.3155 49.603 64.3155 49.603L62.7643 48.2251Z" fill="#0C353E"/>
<path d="M199.953 78.7104C200.47 75.4379 196.506 74.0601 196.506 74.0601L195.645 76.1269C198.057 76.8158 198.23 79.916 198.23 79.916L199.953 78.7104Z" fill="#C2C8C9"/>
<path d="M82.2384 4.65029C82.7555 1.37786 78.7914 0 78.7914 0L77.9297 2.0668C80.3426 2.75573 80.5149 5.85593 80.5149 5.85593L82.2384 4.65029Z" fill="#0C353E"/>
<path d="M0.0283703 58.0427C-0.488678 63.2097 6.23295 64.4154 6.23295 64.4154L7.4394 60.9707C3.30301 60.6262 2.78596 55.8037 2.78596 55.8037L0.0283703 58.0427Z" fill="#0C353E"/>
<path d="M153.074 39.2691C156.348 39.4413 157.555 35.4799 157.555 35.4799L155.487 34.791C155.142 37.2023 151.867 37.719 151.867 37.719L153.074 39.2691Z" fill="#0C353E"/>
<path d="M171.343 52.8757C171.343 53.048 170.137 53.2202 168.586 53.2202C167.035 53.2202 165.828 53.048 165.828 52.8757C165.828 52.7035 167.035 52.5312 168.586 52.5312C169.965 52.5312 171.343 52.7035 171.343 52.8757Z" fill="#C2C8C9"/>
<path d="M174.275 45.4697C174.447 45.4697 174.619 46.6754 174.619 48.2255C174.619 49.7756 174.447 50.9812 174.275 50.9812C174.102 50.9812 173.93 49.7756 173.93 48.2255C173.93 46.6754 174.102 45.4697 174.275 45.4697Z" fill="#C2C8C9"/>
<path d="M177.375 52.7034C177.375 52.5311 178.581 52.3589 180.133 52.3589C181.684 52.3589 182.89 52.5311 182.89 52.7034C182.89 52.8756 181.684 53.0478 180.133 53.0478C178.581 53.0478 177.375 52.8756 177.375 52.7034Z" fill="#C2C8C9"/>
<path d="M174.446 60.2815C174.274 60.2815 174.102 59.0759 174.102 57.5258C174.102 55.9757 174.274 54.77 174.446 54.77C174.619 54.77 174.791 55.9757 174.791 57.5258C174.619 58.9036 174.619 60.2815 174.446 60.2815Z" fill="#C2C8C9"/>
<path d="M178.928 57.0091C178.755 57.1813 178.238 56.6646 177.721 55.9757C177.204 55.2868 176.859 54.7701 177.031 54.5978C177.204 54.4256 177.721 54.9423 178.238 55.6312C178.583 56.3202 178.928 56.8369 178.928 57.0091Z" fill="#C2C8C9"/>
<path d="M178.583 48.5698C178.756 48.742 178.238 49.2587 177.721 49.7754C177.204 50.2921 176.687 50.6366 176.514 50.6366C176.342 50.4643 176.859 49.9476 177.376 49.4309C177.894 48.742 178.411 48.3975 178.583 48.5698Z" fill="#C2C8C9"/>
<path d="M172.206 50.6364C172.033 50.8087 171.516 50.4642 170.999 50.1197C170.482 49.603 170.137 49.2586 170.137 49.0863C170.309 48.9141 170.826 49.2586 171.344 49.603C172.033 50.1197 172.378 50.4642 172.206 50.6364Z" fill="#C2C8C9"/>
<path d="M172.033 54.4257C172.206 54.598 171.861 55.1147 171.344 55.6314C170.826 56.1481 170.309 56.4925 170.137 56.4925C169.964 56.3203 170.309 55.8036 170.826 55.2869C171.344 54.598 171.861 54.2535 172.033 54.4257Z" fill="#C2C8C9"/>
<path d="M21.2261 37.5466C21.2261 37.7188 20.0197 37.8911 18.4685 37.8911C16.9174 37.8911 15.7109 37.7188 15.7109 37.5466C15.7109 37.3744 16.9174 37.2021 18.4685 37.2021C19.8473 37.2021 21.2261 37.3744 21.2261 37.5466Z" fill="#0C353E"/>
<path d="M23.9855 29.9688C24.1579 29.9688 24.3303 31.1744 24.3303 32.7245C24.3303 34.2746 24.1579 35.4802 23.9855 35.4802C23.813 35.4802 23.6406 34.2746 23.6406 32.7245C23.813 31.3466 23.9855 29.9688 23.9855 29.9688Z" fill="#0C353E"/>
<path d="M27.2598 37.3747C27.2598 37.2025 28.4662 37.0303 30.0174 37.0303C31.5685 37.0303 32.7749 37.2025 32.7749 37.3747C32.7749 37.547 31.5685 37.7192 30.0174 37.7192C28.4662 37.547 27.2598 37.547 27.2598 37.3747Z" fill="#0C353E"/>
<path d="M24.3292 44.7805C24.1568 44.7805 23.9844 43.5749 23.9844 42.0248C23.9844 40.4747 24.1568 39.269 24.3292 39.269C24.5016 39.269 24.674 40.4747 24.674 42.0248C24.5016 43.5749 24.3292 44.7805 24.3292 44.7805Z" fill="#0C353E"/>
<path d="M28.6387 41.6805C28.4663 41.8527 27.949 41.336 27.4318 40.6471C26.9145 39.9582 26.5697 39.4415 26.7421 39.2692C26.9145 39.097 27.4318 39.6137 27.949 40.3026C28.4663 40.9915 28.8111 41.5082 28.6387 41.6805Z" fill="#0C353E"/>
<path d="M28.4661 33.0684C28.6385 33.2406 28.1212 33.7573 27.604 34.274C27.0868 34.7907 26.5695 35.1352 26.3971 35.1352C26.2247 34.9629 26.7419 34.4462 27.2592 33.9295C27.7764 33.4128 28.2937 33.0684 28.4661 33.0684Z" fill="#0C353E"/>
<path d="M22.0905 35.3078C21.918 35.4801 21.4008 35.1356 20.8836 34.7911C20.3663 34.2744 20.0215 33.93 20.0215 33.7577C20.1939 33.5855 20.7111 33.93 21.2284 34.2744C21.918 34.7911 22.2629 35.1356 22.0905 35.3078Z" fill="#0C353E"/>
<path d="M21.918 39.0966C22.0904 39.2689 21.7455 39.7856 21.2283 40.3023C20.7111 40.819 20.1938 41.1634 20.0214 41.1634C19.849 40.9912 20.1938 40.4745 20.7111 39.9578C21.2283 39.2689 21.7455 38.9244 21.918 39.0966Z" fill="#0C353E"/>
</svg>