<svg width="14" height="14" viewBox="0 0 14 14" fill="none" xmlns="http://www.w3.org/2000/svg">
<path fill-rule="evenodd" clip-rule="evenodd" d="M14 10.3258V3.69288C14 3.54451 13.9217 3.40736 13.7943 3.33176C13.6668 3.25622 13.5089 3.25321 13.3786 3.32426L10.4161 4.94185V4.12583C10.4151 3.25116 9.70618 2.54237 8.83152 2.54138H1.58444C0.709782 2.54237 0.000990364 3.25131 0 4.12597V9.87408C0.000990364 10.7487 0.709928 11.4575 1.58459 11.4585H8.83167C9.70633 11.4575 10.4151 10.7486 10.4161 9.87393V9.07681L13.3787 10.6944C13.5088 10.7654 13.6668 10.7626 13.7943 10.687C13.9219 10.6112 14 10.474 14 10.3258ZM9.57591 9.87392C9.57553 10.2851 9.24236 10.6182 8.83114 10.6187H1.58474C1.17356 10.6182 0.840456 10.2851 0.839971 9.87389V4.12608C0.840479 3.71502 1.17358 3.38184 1.58474 3.38135H8.83141C9.24246 3.38186 9.57566 3.71507 9.57614 4.12612L9.57591 9.87392ZM13.16 4.40076V9.61802L10.4161 8.11984V5.89883L13.16 4.40076Z" fill="#0C353E"/>
</svg>
