<svg width="14" height="14" viewBox="0 0 14 14" fill="none" xmlns="http://www.w3.org/2000/svg">
<path d="M0.0434676 12.4896C0.0434676 13.2999 0.703015 13.9566 1.51039 13.9566H12.4896C13.2998 13.9566 13.9565 13.297 13.9565 12.4896V1.51045C13.9565 0.700225 13.297 0.0435207 12.4896 0.0435207H1.51039C0.700172 0.0435207 0.0434676 0.703068 0.0434676 1.51045V12.4896ZM12.4896 13.2601H1.51039C1.0868 13.2601 0.739973 12.9132 0.739973 12.4896V10.656L3.37816 8.01779L5.63257 10.2722C5.76902 10.4087 5.98793 10.4087 6.12438 10.2722L10.1954 6.20119L13.26 9.26582V12.4896C13.26 12.9132 12.9132 13.2601 12.4896 13.2601ZM1.51039 0.740026H12.4896C12.9132 0.740026 13.26 1.08686 13.26 1.51045V8.27934L10.4399 5.46205C10.3034 5.32559 10.0845 5.32559 9.94805 5.46205L5.87705 9.53305L3.62265 7.27864C3.48619 7.14219 3.26729 7.14219 3.13083 7.27864L0.739973 9.66951V1.51045C0.739973 1.08686 1.0868 0.740026 1.51039 0.740026Z" fill="#0C353E"/>
<path fill-rule="evenodd" clip-rule="evenodd" d="M1.5104 14C0.679068 14 0 13.3239 0 12.4896V1.5104C0 0.679068 0.676116 0 1.5104 0H12.4896C13.3209 0 14 0.676116 14 1.5104V12.4896C14 13.3209 13.3239 14 12.4896 14H1.5104ZM1.5104 13.2165H12.4896C12.8892 13.2165 13.2165 12.8892 13.2165 12.4896V9.28378L10.1954 6.26264L6.15514 10.3029C6.0017 10.4563 5.75527 10.4563 5.60183 10.3029L3.37817 8.07924L0.783462 10.674V12.4896C0.783462 12.8892 1.11083 13.2165 1.5104 13.2165ZM0.739973 10.656L3.37816 8.01779L5.63257 10.2722C5.76902 10.4087 5.98793 10.4087 6.12438 10.2722L10.1954 6.20119L13.26 9.26582V12.4896C13.26 12.9132 12.9132 13.2601 12.4896 13.2601H1.51039C1.0868 13.2601 0.739973 12.9132 0.739973 12.4896V10.656ZM12.4896 0.783462H1.5104C1.11083 0.783462 0.783462 1.11083 0.783462 1.5104V9.5645L3.1001 7.24786C3.25354 7.09442 3.49997 7.09442 3.65341 7.24786L5.87706 9.47152L9.91732 5.43126C10.0708 5.27783 10.3172 5.27782 10.4706 5.43124C10.4706 5.43125 10.4706 5.43124 10.4706 5.43124L13.2165 8.1744V1.5104C13.2165 1.11083 12.8892 0.783462 12.4896 0.783462ZM13.26 1.51045C13.26 1.08686 12.9132 0.740026 12.4896 0.740026H1.51039C1.0868 0.740026 0.739973 1.08686 0.739973 1.51045V9.66951L3.13083 7.27864C3.26729 7.14219 3.48619 7.14219 3.62265 7.27864L5.87705 9.53305L9.94805 5.46205C10.0845 5.32559 10.3034 5.32559 10.4399 5.46205L13.26 8.27934V1.51045ZM1.51039 13.9566C0.703015 13.9566 0.0434676 13.2999 0.0434676 12.4896V1.51045C0.0434676 0.703068 0.700172 0.0435207 1.51039 0.0435207H12.4896C13.297 0.0435207 13.9565 0.700225 13.9565 1.51045V12.4896C13.9565 13.297 13.2998 13.9566 12.4896 13.9566H1.51039Z" fill="#0C353E"/>
<path d="M4.35609 5.61838C5.33404 5.61838 6.1272 4.82237 6.1272 3.84726C6.1272 2.87216 5.3312 2.07615 4.35609 2.07615C3.38098 2.07615 2.58497 2.87216 2.58497 3.84726C2.58497 4.82237 3.37814 5.61838 4.35609 5.61838ZM4.35609 2.77266C4.95025 2.77266 5.4307 3.25594 5.4307 3.84726C5.4307 4.43858 4.94741 4.92187 4.35609 4.92187C3.76477 4.92187 3.28148 4.43858 3.28148 3.84726C3.28148 3.25594 3.76192 2.77266 4.35609 2.77266Z" fill="#0C353E"/>
<path fill-rule="evenodd" clip-rule="evenodd" d="M6.17069 3.84722C6.17069 4.84629 5.35811 5.66181 4.3561 5.66181C3.35409 5.66181 2.5415 4.84629 2.5415 3.84722C2.5415 2.8481 3.35698 2.03263 4.3561 2.03263C5.35522 2.03263 6.17069 2.8481 6.17069 3.84722ZM5.38723 3.84722C5.38723 3.27984 4.92617 2.81609 4.3561 2.81609C3.78602 2.81609 3.32497 3.27984 3.32497 3.84722C3.32497 4.41453 3.78879 4.87835 4.3561 4.87835C4.92341 4.87835 5.38723 4.41453 5.38723 3.84722ZM6.1272 3.84726C6.1272 4.82237 5.33404 5.61838 4.35609 5.61838C3.37814 5.61838 2.58497 4.82237 2.58497 3.84726C2.58497 2.87216 3.38098 2.07615 4.35609 2.07615C5.3312 2.07615 6.1272 2.87216 6.1272 3.84726ZM5.4307 3.84726C5.4307 3.25594 4.95025 2.77266 4.35609 2.77266C3.76192 2.77266 3.28148 3.25594 3.28148 3.84726C3.28148 4.43858 3.76477 4.92187 4.35609 4.92187C4.94741 4.92187 5.4307 4.43858 5.4307 3.84726Z" fill="#0C353E"/>
</svg>
