<svg width="16" height="16" viewBox="0 0 16 16" fill="none" xmlns="http://www.w3.org/2000/svg">
  <path d="M15.4037 1.78882C15.1056 1.49068 14.7081 1.29193 14.2112 1.29193H13.2174V0.496894C13.2174 0.198758 13.0186 0 12.8199 0C12.6211 0 12.4224 0.198758 12.4224 0.496894V1.29193H8.4472V0.496894C8.4472 0.198758 8.24845 0 7.95031 0C7.65217 0 7.55279 0.198758 7.55279 0.496894V1.29193H3.47826V0.496894C3.47826 0.198758 3.2795 0 3.08075 0C2.78261 0 2.58385 0.198758 2.58385 0.496894V1.29193H1.68944C0.795031 1.29193 0 2.08696 0 3.08075V14.2112C0 15.205 0.795031 16 1.68944 16H14.3106C15.205 16 16 15.205 16 14.2112V3.08075C16 2.58385 15.8012 2.08696 15.4037 1.78882ZM3.08075 3.2795C3.2795 3.2795 3.47826 3.08075 3.47826 2.78261V2.18634H7.55279V2.78261C7.55279 3.08075 7.75155 3.2795 7.95031 3.2795C8.14907 3.2795 8.34783 3.08075 8.34783 2.78261V2.18634H12.323V2.78261C12.323 3.08075 12.5217 3.2795 12.7205 3.2795C12.9193 3.2795 13.118 3.08075 13.118 2.78261V2.18634H14.1118C14.5093 2.18634 15.1056 2.58385 15.1056 3.08075V14.2112C15.1056 14.7081 14.5093 15.0062 14.1118 15.0062H1.68944C1.29193 15.0062 0.89441 14.6087 0.89441 14.2112V3.08075C0.89441 2.58385 1.29193 2.18634 1.68944 2.18634H2.58385V2.78261C2.58385 3.08075 2.78261 3.2795 3.08075 3.2795Z" fill="#848484"/>
  <path d="M6.16119 6.5587H6.85684C7.0556 6.5587 7.25436 6.35994 7.25436 6.16119C7.25436 5.96243 7.15498 5.76367 6.85684 5.76367H6.16119C5.96243 5.76367 5.76367 5.96243 5.76367 6.16119C5.76367 6.35994 5.96243 6.5587 6.16119 6.5587Z" fill="#848484"/>
  <path d="M9.044 6.5587H9.73965C9.93841 6.5587 10.1372 6.35994 10.1372 6.16119C10.1372 5.96243 9.93841 5.76367 9.73965 5.76367H9.044C8.84524 5.76367 8.64648 5.96243 8.64648 6.16119C8.64648 6.35994 8.84524 6.5587 9.044 6.5587Z" fill="#848484"/>
  <path d="M11.9249 6.5587H12.6205C12.8193 6.5587 13.018 6.35994 13.018 6.16119C13.018 5.96243 12.9186 5.76367 12.7199 5.76367H11.9249C11.7261 5.76367 11.5273 5.96243 11.5273 6.16119C11.5273 6.35994 11.7261 6.5587 11.9249 6.5587Z" fill="#848484"/>
  <path d="M6.16119 9.441H6.85684C7.0556 9.441 7.25436 9.24224 7.25436 9.04348C7.25436 8.84473 7.0556 8.64597 6.85684 8.64597H6.16119C5.96243 8.54659 5.76367 8.74535 5.76367 9.04348C5.76367 9.24224 5.96243 9.441 6.16119 9.441Z" fill="#848484"/>
  <path d="M3.2801 9.441H3.97575C4.17451 9.441 4.37327 9.24224 4.37327 9.04348C4.37327 8.84473 4.17451 8.64597 3.97575 8.64597H3.2801C2.98196 8.54659 2.7832 8.74535 2.7832 9.04348C2.7832 9.24224 2.98196 9.441 3.2801 9.441Z" fill="#848484"/>
  <path d="M9.044 9.44151H9.73965C9.93841 9.44151 10.1372 9.24276 10.1372 9.044C10.1372 8.84524 9.93841 8.64648 9.73965 8.64648H9.044C8.84524 8.64648 8.64648 8.84524 8.64648 9.044C8.64648 9.24276 8.84524 9.44151 9.044 9.44151Z" fill="#848484"/>
  <path d="M11.9249 9.44151H12.6205C12.8193 9.44151 13.018 9.24276 13.018 9.044C13.018 8.84524 12.8193 8.64648 12.6205 8.64648H11.9249C11.7261 8.64648 11.5273 8.84524 11.5273 9.044C11.5273 9.24276 11.7261 9.44151 11.9249 9.44151Z" fill="#848484"/>
  <path d="M6.16119 12.2237H6.85684C7.0556 12.2237 7.25436 12.025 7.25436 11.8262C7.25436 11.6275 7.0556 11.4287 6.85684 11.4287H6.16119C5.96243 11.4287 5.76367 11.6275 5.76367 11.8262C5.76367 12.025 5.96243 12.2237 6.16119 12.2237Z" fill="#848484"/>
  <path d="M3.27884 12.2237H3.97449C4.17325 12.2237 4.372 12.025 4.372 11.8262C4.372 11.6275 4.17325 11.4287 3.97449 11.4287H3.27884C3.08008 11.4287 2.88132 11.6275 2.88132 11.8262C2.78194 12.025 2.9807 12.2237 3.27884 12.2237Z" fill="#848484"/>
  <path d="M9.044 12.2237H9.73965C9.93841 12.2237 10.1372 12.025 10.1372 11.8262C10.1372 11.6275 9.93841 11.4287 9.73965 11.4287H9.044C8.84524 11.4287 8.64648 11.6275 8.64648 11.8262C8.64648 12.025 8.84524 12.2237 9.044 12.2237Z" fill="#848484"/>
</svg>
