<svg width="18" height="18" viewBox="0 0 18 18" fill="none" xmlns="http://www.w3.org/2000/svg">
<path d="M4.5 0C3.88125 0 3.375 0.50625 3.375 1.125V16.875C3.375 17.4937 3.88125 18 4.5 18H15.75C16.3687 18 16.875 17.4937 16.875 16.875V4.5L12.375 0H4.5Z" fill="#E2E5E7"/>
<path d="M13.5 4.5H16.875L12.375 0V3.375C12.375 3.99375 12.8812 4.5 13.5 4.5Z" fill="#B0B7BD"/>
<path d="M16.875 7.875L13.5 4.5H16.875V7.875Z" fill="#CAD1D8"/>
<path d="M14.625 14.625C14.625 14.9344 14.3719 15.1875 14.0625 15.1875H1.6875C1.37812 15.1875 1.125 14.9344 1.125 14.625V9C1.125 8.69062 1.37812 8.4375 1.6875 8.4375H14.0625C14.3719 8.4375 14.625 8.69062 14.625 9V14.625Z" fill="#23B880"/>
<path d="M14.0625 15.1875H3.375V15.75H14.0625C14.3719 15.75 14.625 15.4969 14.625 15.1875V14.625C14.625 14.9344 14.3719 15.1875 14.0625 15.1875Z" fill="#CAD1D8"/>
<path d="M9.41988 10C9.2154 10 9.07268 10.2026 9.14154 10.3952L10.0967 13.0658C10.1577 13.2363 10.3192 13.35 10.5002 13.35C10.6812 13.35 10.8427 13.2363 10.9037 13.0658L11.859 10.3949C11.9278 10.2025 11.7851 10 11.5808 10C11.4543 10 11.3419 10.0805 11.3011 10.2001L10.5025 12.5432L9.69952 10.1998C9.65858 10.0803 9.54621 10 9.41988 10Z" fill="white"/>
<path d="M6.47996 10.8174C6.58346 9.94493 7.90083 9.78799 8.52183 10.265C8.82783 10.5119 8.50383 10.9034 8.23383 10.7054C7.90083 10.4939 7.14539 10.3949 7.05089 10.8624C6.92939 11.6004 8.88576 11.1779 8.85426 12.3738C8.82276 13.5162 7.16789 13.5432 6.5469 13.0302C6.39783 12.9093 6.4029 12.7119 6.4839 12.5898C6.6009 12.4734 6.73083 12.4329 6.88439 12.5583C7.25283 12.8103 8.20233 12.9993 8.26927 12.3597C8.21133 11.6949 6.3399 12.0954 6.47996 10.8174Z" fill="white"/>
<path d="M3 11.6144C3 10.7464 3.5445 10 4.57895 10C4.97045 10 5.28095 10.117 5.60889 10.4005C5.73039 10.5124 5.74389 10.7104 5.62239 10.8364C5.50089 10.9439 5.31639 10.9309 5.20838 10.8229C5.02445 10.6294 4.83545 10.576 4.57895 10.576C3.8865 10.576 3.55407 11.0665 3.55407 11.6149C3.55407 12.1729 3.882 12.6854 4.57895 12.6854C4.83545 12.6854 5.07395 12.5813 5.28095 12.3974C5.41989 12.2894 5.61339 12.3428 5.69439 12.4514C5.76639 12.5504 5.80182 12.7169 5.64489 12.8738C5.32989 13.1669 4.95245 13.2254 4.57838 13.2254C3.4905 13.2254 3 12.4823 3 11.6144Z" fill="white"/>
</svg>
