<svg width="18" height="18" viewBox="0 0 18 18" fill="none" xmlns="http://www.w3.org/2000/svg">
<path d="M4.5 0C3.88125 0 3.375 0.50625 3.375 1.125V16.875C3.375 17.4937 3.88125 18 4.5 18H15.75C16.3687 18 16.875 17.4937 16.875 16.875V4.5L12.375 0H4.5Z" fill="#E2E5E7"/>
<path d="M13.5 4.5H16.875L12.375 0V3.375C12.375 3.99375 12.8812 4.5 13.5 4.5Z" fill="#B0B7BD"/>
<path d="M16.875 7.875L13.5 4.5H16.875V7.875Z" fill="#CAD1D8"/>
<path d="M14.625 14.625C14.625 14.9344 14.3719 15.1875 14.0625 15.1875H1.6875C1.37812 15.1875 1.125 14.9344 1.125 14.625V9C1.125 8.69062 1.37812 8.4375 1.6875 8.4375H14.0625C14.3719 8.4375 14.625 8.69062 14.625 9V14.625Z" fill="#DA8383"/>
<path d="M3.25484 13.501C3.10634 13.501 2.94434 13.4194 2.94434 13.222V10.6677C2.94434 10.5057 3.10634 10.3887 3.25484 10.3887H4.28477C6.34015 10.3887 6.29459 13.501 4.32471 13.501H3.25484ZM3.53834 10.9371V12.952H4.28477C5.49921 12.952 5.55265 10.9371 4.28477 10.9371H3.53834Z" fill="white"/>
<path d="M8.01626 13.5452C7.18432 13.5812 6.32031 13.0277 6.32031 11.9258C6.32031 10.8193 7.18375 10.2754 8.01626 10.2754C8.8032 10.3153 9.62614 10.8598 9.62614 11.9258C9.62614 12.9923 8.8032 13.5452 8.01626 13.5452ZM7.96676 10.8604C7.46275 10.8604 6.91431 11.2159 6.91431 11.9263C6.91431 12.6328 7.46332 12.9928 7.96676 12.9928C8.48426 12.9928 9.0372 12.6328 9.0372 11.9263C9.0372 11.2153 8.48426 10.8604 7.96676 10.8604Z" fill="white"/>
<path d="M10.1553 11.921C10.1553 11.0531 10.6998 10.3066 11.7342 10.3066C12.1257 10.3066 12.4362 10.4236 12.7642 10.7071C12.8857 10.8191 12.8992 11.0171 12.7777 11.1431C12.6562 11.2505 12.4717 11.2376 12.3637 11.1296C12.1797 10.9361 11.9907 10.8826 11.7342 10.8826C11.0418 10.8826 10.7093 11.3731 10.7093 11.9216C10.7093 12.4796 11.0373 12.992 11.7342 12.992C11.9907 12.992 12.2292 12.888 12.4362 12.704C12.5752 12.596 12.7687 12.6495 12.8497 12.758C12.9217 12.857 12.9571 13.0235 12.8002 13.1805C12.4852 13.4735 12.1077 13.532 11.7337 13.532C10.6458 13.532 10.1553 12.789 10.1553 11.921Z" fill="white"/>
<path d="M14.0625 15.1875H3.375V15.75H14.0625C14.3719 15.75 14.625 15.4969 14.625 15.1875V14.625C14.625 14.9344 14.3719 15.1875 14.0625 15.1875Z" fill="#CAD1D8"/>
</svg>
