<svg width="16" height="16" viewBox="0 0 16 16" fill="none" xmlns="http://www.w3.org/2000/svg">
  <path d="M11.5828 9.86478C13.7423 9.27582 16 6.52736 16 2.40466C16 2.20834 15.8037 2.01202 15.6074 2.01202H13.3497V1.12858C13.2515 0.539626 12.7607 0.0488281 12.1718 0.0488281H3.73006C3.1411 0.0488281 2.65031 0.539626 2.65031 1.12858V2.01202H0.392638C0.196319 2.01202 0 2.20834 0 2.40466C0 6.52736 2.25767 9.27582 4.41718 9.86478C5.10429 10.5519 5.88957 11.0427 6.57669 11.4353V13.104H6.28221C5.30061 13.104 4.51534 13.8893 4.51534 14.8709V15.558C4.51534 15.7544 4.71166 15.9507 4.90798 15.9507H10.7975C10.9939 15.9507 11.1902 15.7544 11.1902 15.558V14.8709C11.1902 13.8893 10.4049 13.104 9.42331 13.104H9.32515V11.4353C10.0123 11.1409 10.7975 10.5519 11.5828 9.86478ZM7.36196 13.104V11.828C7.55828 11.9261 7.7546 12.0243 7.7546 12.0243H7.85276H7.95092C7.95092 12.0243 8.14724 11.9261 8.34356 11.828V13.104H7.36196ZM3.43558 6.03656V2.60098C3.43558 2.60098 3.43558 2.50282 3.43558 2.40466V2.3065V1.12858C3.43558 1.03042 3.53374 0.932264 3.6319 0.932264H12.1718C12.2699 0.932264 12.3681 1.03042 12.3681 1.12858V6.03656C12.3681 9.27582 8.7362 10.8464 7.85276 11.1409C7.16564 10.8464 3.53374 9.27582 3.43558 6.03656ZM3.1411 8.19607C1.96319 7.11631 0.981595 5.25128 0.883436 2.89545H2.65031V6.03656C2.65031 6.82183 2.84663 7.60711 3.1411 8.19607ZM13.2515 6.03656V2.89545H15.0184C14.9202 5.34944 13.8405 7.31263 12.6626 8.29423C13.0552 7.60711 13.2515 6.91999 13.2515 6.03656ZM10.5031 15.0672H5.39877V14.8709C5.39877 14.3801 5.79141 13.9875 6.28221 13.9875H6.96933H8.93252H9.61963C10.1104 13.9875 10.5031 14.3801 10.5031 14.8709V15.0672V15.0672Z" fill="white"/>
</svg>
