<svg width="18" height="18" viewBox="0 0 18 18" fill="none" xmlns="http://www.w3.org/2000/svg">
<path d="M4.125 0C3.50625 0 3 0.50625 3 1.125V16.875C3 17.4937 3.50625 18 4.125 18H15.375C15.9937 18 16.5 17.4937 16.5 16.875V4.5L12 0H4.125Z" fill="#E2E5E7"/>
<path d="M13.5 4.5H16.875L12.375 0V3.375C12.375 3.99375 12.8812 4.5 13.5 4.5Z" fill="#B0B7BD"/>
<path d="M16.875 7.875L13.5 4.5H16.875V7.875Z" fill="#CAD1D8"/>
<path d="M14.625 14.625C14.625 14.9344 14.3719 15.1875 14.0625 15.1875H1.6875C1.37812 15.1875 1.125 14.9344 1.125 14.625V9C1.125 8.69062 1.37812 8.4375 1.6875 8.4375H14.0625C14.3719 8.4375 14.625 8.69062 14.625 9V14.625Z" fill="#50BEE8"/>
<path d="M4.9909 10.6585C4.9909 10.2805 5.5849 10.2805 5.5849 10.6585V12.4349C5.5849 13.1414 5.2474 13.5689 4.46946 13.5689C4.08696 13.5689 3.76802 13.4648 3.48902 13.1054C3.25953 12.8309 3.69152 12.4354 3.92552 12.7229C4.11452 12.9569 4.31702 13.0109 4.51446 13.0019C4.7659 12.9929 4.98696 12.8798 4.99146 12.4349V10.6585H4.9909Z" fill="white"/>
<path d="M6.375 10.6582C6.375 10.5097 6.492 10.3477 6.681 10.3477H7.71994C8.30494 10.3477 8.83144 10.7392 8.83144 11.4895C8.83144 12.2005 8.30494 12.5965 7.71994 12.5965H6.969V13.1905C6.969 13.3885 6.843 13.5005 6.681 13.5005C6.5325 13.5005 6.375 13.3885 6.375 13.1905V10.6582ZM6.969 10.9141V12.0346H7.71994C8.02144 12.0346 8.25994 11.7685 8.25994 11.4895C8.25994 11.1751 8.02144 10.9141 7.71994 10.9141H6.969Z" fill="white"/>
<path d="M12.0436 13.1548C11.7241 13.4203 11.3326 13.5328 10.9372 13.5328C9.9922 13.5328 9.32227 12.9934 9.32227 11.9224C9.32227 11.0145 10.0288 10.3086 10.9771 10.3086C11.3326 10.3086 11.7236 10.4295 12.0026 10.704C12.2765 10.9735 11.8811 11.374 11.6116 11.136C11.4451 10.974 11.2111 10.8525 10.9771 10.8525C10.4332 10.8525 9.90727 11.2885 9.90727 11.9224C9.90727 12.5884 10.3477 12.9934 10.9372 12.9934C11.2111 12.9934 11.4451 12.9118 11.6116 12.7909V12.238H10.9372C10.5367 12.238 10.5772 11.689 10.9372 11.689H11.8366C12.0031 11.689 12.1556 11.815 12.1556 11.9545V12.9124C12.1556 12.9934 12.1201 13.0688 12.0436 13.1548Z" fill="white"/>
<path d="M14.0625 15.1875H3.375V15.75H14.0625C14.3719 15.75 14.625 15.4969 14.625 15.1875V14.625C14.625 14.9344 14.3719 15.1875 14.0625 15.1875Z" fill="#CAD1D8"/>
</svg>
