<svg width="12" height="12" viewBox="0 0 12 12" fill="none" xmlns="http://www.w3.org/2000/svg">
  <g clip-path="url(#clip0_21053_253932)">
    <path d="M10.9418 1.49319C10.8541 1.44891 10.7481 1.46309 10.6751 1.52892C10.0296 2.10772 9.43647 2.38878 8.86005 2.38878C8.28363 2.38878 7.72388 2.12201 7.02837 1.51939C5.51824 0.23078 4.03432 0.233162 2.3003 1.4646C2.17882 1.55035 2.17882 1.55035 2.20026 4.02991C2.20026 5.00411 2.21693 6.21173 2.20026 6.38085C2.16733 6.50822 2.24388 6.63815 2.37122 6.67108C2.4478 6.69088 2.5292 6.67138 2.58851 6.61904C3.19295 6.15272 3.93086 5.89229 4.69411 5.87588C5.19112 5.87859 5.68057 5.99772 6.12325 6.22364C6.60698 6.48294 7.14431 6.62645 7.69292 6.64286C10.5702 6.64286 11.0442 1.93384 11.0633 1.73376C11.0764 1.63616 11.0282 1.54056 10.9418 1.49319Z" fill="#65676B"/>
    <path d="M1.46695 0H1.24305C0.970743 0 0.75 0.220742 0.75 0.493053V11.5069C0.75 11.7793 0.970743 12 1.24305 12H1.46695C1.73926 12 1.96001 11.7793 1.96001 11.5069V0.493053C1.96001 0.220742 1.73926 0 1.46695 0Z" fill="#65676B"/>
  </g>
  <defs>
    <clipPath id="clip0_21053_253932">
      <rect width="12" height="12" fill="white" transform="translate(0 12) rotate(-90)"/>
    </clipPath>
  </defs>
</svg>
