<svg width="18" height="18" viewBox="0 0 18 18" fill="none" xmlns="http://www.w3.org/2000/svg">
<path d="M4.5 0C3.88125 0 3.375 0.50625 3.375 1.125V16.875C3.375 17.4937 3.88125 18 4.5 18H15.75C16.3687 18 16.875 17.4937 16.875 16.875V4.5L12.375 0H4.5Z" fill="#E2E5E7"/>
<path d="M13.5 4.5H16.875L12.375 0V3.375C12.375 3.99375 12.8812 4.5 13.5 4.5Z" fill="#B0B7BD"/>
<path d="M16.875 7.875L13.5 4.5H16.875V7.875Z" fill="#CAD1D8"/>
<path d="M14.625 14.625C14.625 14.9344 14.3719 15.1875 14.0625 15.1875H1.6875C1.37812 15.1875 1.125 14.9344 1.125 14.625V9C1.125 8.69062 1.37812 8.4375 1.6875 8.4375H14.0625C14.3719 8.4375 14.625 8.69062 14.625 9V14.625Z" fill="#F15642"/>
<path d="M3.57715 10.6582C3.57715 10.5097 3.69415 10.3477 3.88259 10.3477H4.92152C5.50652 10.3477 6.03302 10.7392 6.03302 11.4895C6.03302 12.2005 5.50652 12.5965 4.92152 12.5965H4.17059V13.1905C4.17059 13.3885 4.04459 13.5005 3.88259 13.5005C3.73409 13.5005 3.57715 13.3885 3.57715 13.1905V10.6582ZM4.17059 10.9141V12.0346H4.92152C5.22302 12.0346 5.46152 11.7685 5.46152 11.4895C5.46152 11.1751 5.22302 10.9141 4.92152 10.9141H4.17059Z" fill="white"/>
<path d="M6.91401 13.501C6.76552 13.501 6.60352 13.42 6.60352 13.2225V10.6677C6.60352 10.5062 6.76552 10.3887 6.91401 10.3887H7.94395C9.99932 10.3887 9.95432 13.501 7.98445 13.501H6.91401ZM7.19751 10.9377V12.9525H7.94395C9.15838 12.9525 9.21238 10.9377 7.94395 10.9377H7.19751Z" fill="white"/>
<path d="M10.6831 10.9742V11.6892H11.83C11.992 11.6892 12.154 11.8512 12.154 12.0081C12.154 12.1566 11.992 12.2781 11.83 12.2781H10.6831V13.2225C10.6831 13.38 10.5712 13.501 10.4137 13.501C10.2157 13.501 10.0947 13.38 10.0947 13.2225V10.6677C10.0947 10.5062 10.2162 10.3887 10.4137 10.3887H11.9926C12.1906 10.3887 12.3076 10.5062 12.3076 10.6677C12.3076 10.8117 12.1906 10.9737 11.9926 10.9737H10.6831V10.9742Z" fill="white"/>
<path d="M14.0625 15.1875H3.375V15.75H14.0625C14.3719 15.75 14.625 15.4969 14.625 15.1875V14.625C14.625 14.9344 14.3719 15.1875 14.0625 15.1875Z" fill="#CAD1D8"/>
</svg>
