<svg width="18" height="18" viewBox="0 0 18 18" fill="none" xmlns="http://www.w3.org/2000/svg">
<path d="M4.5 0C3.88125 0 3.375 0.50625 3.375 1.125V16.875C3.375 17.4937 3.88125 18 4.5 18H15.75C16.3687 18 16.875 17.4937 16.875 16.875V4.5L12.375 0H4.5Z" fill="#E2E5E7"/>
<path d="M13.5 4.5H16.875L12.375 0V3.375C12.375 3.99375 12.8812 4.5 13.5 4.5Z" fill="#B0B7BD"/>
<path d="M16.875 7.875L13.5 4.5H16.875V7.875Z" fill="#CAD1D8"/>
<path d="M14.625 14.625C14.625 14.9344 14.3719 15.1875 14.0625 15.1875H1.6875C1.37812 15.1875 1.125 14.9344 1.125 14.625V9C1.125 8.69062 1.37812 8.4375 1.6875 8.4375H14.0625C14.3719 8.4375 14.625 8.69062 14.625 9V14.625Z" fill="#A066AA"/>
<path d="M3.26367 10.6568C3.26367 10.5083 3.38011 10.3457 3.56911 10.3457H4.60861C5.19305 10.3457 5.71955 10.7372 5.71955 11.4881C5.71955 12.1991 5.19305 12.5946 4.60861 12.5946H3.85655V13.1886C3.85655 13.3871 3.73167 13.4991 3.56911 13.4991C3.42061 13.4991 3.26367 13.3871 3.26367 13.1886V10.6568ZM3.85655 10.9127V12.0326H4.60805C4.90899 12.0326 5.14749 11.7671 5.14749 11.4881C5.14749 11.1731 4.90899 10.9127 4.60805 10.9127H3.85655Z" fill="white"/>
<path d="M6.29255 10.7018C6.29255 10.5392 6.32855 10.3823 6.56255 10.3823C6.72399 10.3823 6.76055 10.4228 6.88149 10.5392L8.36987 12.4016V10.6568C8.36987 10.5083 8.4998 10.3457 8.65337 10.3457C8.81537 10.3457 8.9723 10.5083 8.9723 10.6568V13.1886C8.9723 13.3871 8.8508 13.4625 8.7338 13.4991C8.57687 13.4991 8.4998 13.4631 8.36987 13.3421L6.88149 11.4527V13.1891C6.88149 13.3877 6.75999 13.4996 6.59799 13.4996C6.43599 13.4996 6.29199 13.3877 6.29199 13.1891V10.7018H6.29255Z" fill="white"/>
<path d="M12.3561 13.1535C12.0366 13.4184 11.6451 13.5315 11.2497 13.5315C10.3047 13.5315 9.63477 12.9915 9.63477 11.921C9.63477 11.0126 10.3413 10.3066 11.2896 10.3066C11.6451 10.3066 12.0361 10.4281 12.3151 10.7026C12.5896 10.9721 12.1936 11.3726 11.9241 11.1346C11.7576 10.9721 11.5236 10.8511 11.2896 10.8511C10.7457 10.8511 10.2198 11.2871 10.2198 11.921C10.2198 12.587 10.6602 12.9915 11.2497 12.9915C11.5236 12.9915 11.7576 12.9105 11.9241 12.789V12.2366H11.2497C10.8492 12.2366 10.8897 11.687 11.2497 11.687H12.1491C12.3156 11.687 12.4681 11.8136 12.4681 11.9531V12.911C12.4681 12.9915 12.4326 13.0674 12.3561 13.1535Z" fill="white"/>
<path d="M14.0625 15.1875H3.375V15.75H14.0625C14.3719 15.75 14.625 15.4969 14.625 15.1875V14.625C14.625 14.9344 14.3719 15.1875 14.0625 15.1875Z" fill="#CAD1D8"/>
</svg>
