<svg width="48" height="40" viewBox="0 0 48 40" fill="none" xmlns="http://www.w3.org/2000/svg">
<path d="M47.3333 20.4079C47.3306 15.4123 43.8449 11.095 38.963 10.0405C37.75 3.39295 31.379 -1.01231 24.7331 0.20097C21.0271 0.87761 17.8395 3.22447 16.0923 6.56288C15.8965 6.54818 15.7022 6.53022 15.5039 6.53022C10.5938 6.53237 6.44527 10.1729 5.80409 15.0422C1.48916 16.3455 -0.952424 20.9009 0.350644 25.217C1.39051 28.6611 4.56182 31.0182 8.15865 31.0203H36.7235C42.5831 31.0203 47.3333 26.269 47.3333 20.4079Z" fill="#C2C8C9"/>
<path d="M24.4814 36.7346V18.2968L27.9851 21.8013L29.1391 20.647L24.2423 15.749C23.9236 15.4303 23.4069 15.4303 23.0882 15.749L18.1914 20.647L19.3454 21.8013L22.8491 18.2968V36.7346H24.4814Z" fill="#0C353E"/>
<path d="M30.1937 38.3678H17.1355V37.5515H15.5032V39.1842C15.5032 39.635 15.8686 40.0005 16.3193 40.0005H31.0098C31.4605 40.0005 31.826 39.635 31.826 39.1842V37.5515H30.1937V38.3678Z" fill="#0C353E"/>
</svg>
