<svg width="20" height="20" viewBox="0 0 20 20" fill="none" xmlns="http://www.w3.org/2000/svg">
<path d="M2.66745 12.5006C2.66745 12.5006 5.83985 11.9959 9.66115 15.3846V4.35335C9.44485 4.20915 9.15645 3.99285 8.86805 3.77655C6.12825 2.11825 2.81165 2.55085 2.81165 2.55085C2.37905 2.55085 2.01855 2.76715 2.01855 3.12765V11.8517C2.01855 12.1401 2.01855 12.5727 2.66745 12.5006Z" fill="#F85454"/>
<path d="M17.1599 12.861C17.8088 12.861 17.8088 12.7168 17.8088 12.4284V3.12748C17.8088 2.83908 17.4483 2.55068 17.0157 2.55068C17.0157 2.55068 13.6991 2.19018 11.0314 3.84848C10.8151 3.99268 10.4546 4.20898 10.2383 4.42528V15.4566C13.1944 12.5726 17.1599 12.861 17.1599 12.861Z" fill="#F85454"/>
<path d="M19.9714 13.3663V3.63282C19.9714 3.56072 19.9715 3.48862 19.8994 3.48862C19.8994 3.48862 19.3947 3.12812 18.6737 3.41652V13.0058V13.0779C18.6016 13.6547 18.3132 13.871 17.5201 13.871C17.5201 13.871 17.448 13.871 17.3038 13.871C16.3665 13.871 13.122 14.0873 10.5985 16.4666L10.3101 16.755V16.8992C10.3822 16.8992 10.4543 16.8271 10.4543 16.8271L11.4637 16.3224C15.285 14.7362 18.6016 14.8804 18.6016 14.8804C19.1784 14.8804 19.5389 14.7362 19.8273 14.5199C19.9715 14.2315 20.0435 13.871 19.9714 13.3663Z" fill="#F85454"/>
<path d="M2.884 13.5099C2.5956 13.5099 2.4514 13.5099 2.4514 13.5099C2.0909 13.5099 1.8746 13.4378 1.6583 13.2215C1.3699 12.9331 1.3699 12.5726 1.3699 12.3563V3.34382C0.648899 2.98332 0.2163 3.34382 0.1442 3.34382C0.0721 3.34382 0 3.41592 0 3.48802V14.0146C0 14.5193 0.4326 14.8077 1.0815 14.8077C1.1536 14.8077 5.1191 14.6635 8.79619 16.466L9.58929 16.8265C9.66139 16.8265 9.66139 16.8986 9.73349 16.8986V16.8265L9.44509 16.5381C6.48899 13.7983 3.8934 13.5099 2.884 13.5099Z" fill="#F85454"/>
</svg>