<svg width="60" height="60" viewBox="0 0 60 60" fill="none" xmlns="http://www.w3.org/2000/svg">
<g filter="url(#filter0_d)">
<circle cx="30" cy="26" r="20" fill="white"></circle>
</g>
<path fill-rule="evenodd" clip-rule="evenodd" d="M29.9949 16C32.6672 16 35.1746 17.0402 37.0647 18.9302C38.9547 20.8203 39.9991 23.3277 39.9991 26C39.9991 28.6723 38.959 31.1797 37.0689 33.0698C35.1408 34.9979 32.5784 36 29.9907 36C28.3797 36 26.756 35.611 25.2719 34.8118C23.9399 35.7717 22.6376 35.9789 21.7539 35.9789C21.4241 35.9789 21.1535 35.9493 20.9632 35.9197C20.5573 35.8562 20.2444 35.5391 20.181 35.1332C20.1175 34.7273 20.3247 34.334 20.6926 34.1522C21.4579 33.7759 21.9738 33.0233 22.2951 32.3763C19.0182 28.4313 19.2719 22.5835 22.9251 18.9302C24.8152 17.0402 27.3226 16 29.9949 16ZM23.9174 23.8333H28.9174C29.24 23.8333 29.5007 23.5719 29.5007 23.25C29.5007 22.9281 29.24 22.6667 28.9174 22.6667H23.9174C23.5948 22.6667 23.3341 22.9281 23.3341 23.25C23.3341 23.5719 23.5948 23.8333 23.9174 23.8333ZM35.2507 25.3333H23.9174C23.5948 25.3333 23.3341 25.5947 23.3341 25.9166C23.3341 26.2385 23.5948 26.5 23.9174 26.5H35.2507C35.5733 26.5 35.8341 26.2385 35.8341 25.9166C35.8341 25.5947 35.5733 25.3333 35.2507 25.3333ZM23.9174 27.9999H35.2507C35.5733 27.9999 35.8341 28.2613 35.8341 28.5833C35.8341 28.9052 35.5733 29.1666 35.2507 29.1666H23.9174C23.5948 29.1666 23.3341 28.9052 23.3341 28.5833C23.3341 28.2613 23.5948 27.9999 23.9174 27.9999Z" fill="#F85454"></path>
<defs>
<filter id="filter0_d" x="0" y="0" width="60" height="60" filterUnits="userSpaceOnUse" color-interpolation-filters="sRGB">
<feFlood flood-opacity="0" result="BackgroundImageFix"></feFlood>
<feColorMatrix in="SourceAlpha" type="matrix" values="0 0 0 0 0 0 0 0 0 0 0 0 0 0 0 0 0 0 127 0"></feColorMatrix>
<feOffset dy="4"></feOffset>
<feGaussianBlur stdDeviation="5"></feGaussianBlur>
<feColorMatrix type="matrix" values="0 0 0 0 0.0403125 0 0 0 0 0.154173 0 0 0 0 0.179167 0 0 0 0.15 0"></feColorMatrix>
<feBlend mode="normal" in2="BackgroundImageFix" result="effect1_dropShadow"></feBlend>
<feBlend mode="normal" in="SourceGraphic" in2="effect1_dropShadow" result="shape"></feBlend>
</filter>
</defs>
</svg>