<svg width="60" height="60" viewBox="0 0 60 60" fill="none" xmlns="http://www.w3.org/2000/svg">
<g filter="url(#filter0_d)">
<circle cx="30" cy="26" r="20" fill="white"></circle>
</g>
<path d="M40 23.5C40 23.6833 39.9215 23.8665 39.7906 23.9974L34.0838 29.7042C33.9529 29.8351 33.7696 29.9137 33.5864 29.9137C33.4031 29.9137 33.2199 29.8351 33.089 29.7042C32.9581 29.5733 32.8796 29.3901 32.8796 29.2068V26.3534H30.3927C29.6597 26.3534 29.0052 26.3796 28.4293 26.432C27.8534 26.4843 27.2775 26.5629 26.7016 26.6676C26.1256 26.7723 25.6283 26.9294 25.2094 27.1388C24.7906 27.3482 24.3979 27.61 24.0314 27.9241C23.6649 28.2383 23.377 28.6048 23.1414 29.0498C22.9058 29.4948 22.7225 29.9922 22.5916 30.5943C22.4607 31.1964 22.4084 31.8508 22.4084 32.61C22.4084 33.0288 22.4346 33.4739 22.4607 33.9712C22.4607 34.0236 22.4607 34.1021 22.4869 34.233C22.5131 34.3639 22.5131 34.4686 22.5131 34.521C22.5131 34.6257 22.4869 34.7304 22.4084 34.8089C22.356 34.8875 22.2513 34.9137 22.1466 34.9137C22.0157 34.9137 21.911 34.8613 21.8325 34.7304C21.7801 34.6519 21.7277 34.5733 21.6754 34.4948C21.623 34.3901 21.5707 34.2854 21.5183 34.1545C21.466 34.0236 21.4136 33.9451 21.4136 33.8927C20.4712 31.7723 20 30.0969 20 28.8665C20 27.4006 20.2094 26.144 20.6021 25.1493C21.8063 22.165 25.0524 20.6466 30.3403 20.6466H32.8272V17.7932C32.8272 17.61 32.9058 17.4267 33.0366 17.2959C33.1675 17.165 33.3508 17.0864 33.534 17.0864C33.7173 17.0864 33.9005 17.165 34.0314 17.2959L39.7382 23.0027C39.9476 23.1335 40 23.2906 40 23.5Z" fill="#F85454"></path>
<defs>
<filter id="filter0_d" x="0" y="0" width="60" height="60" filterUnits="userSpaceOnUse" color-interpolation-filters="sRGB">
<feFlood flood-opacity="0" result="BackgroundImageFix"></feFlood>
<feColorMatrix in="SourceAlpha" type="matrix" values="0 0 0 0 0 0 0 0 0 0 0 0 0 0 0 0 0 0 127 0"></feColorMatrix>
<feOffset dy="4"></feOffset>
<feGaussianBlur stdDeviation="5"></feGaussianBlur>
<feColorMatrix type="matrix" values="0 0 0 0 0.0403125 0 0 0 0 0.154173 0 0 0 0 0.179167 0 0 0 0.15 0"></feColorMatrix>
<feBlend mode="normal" in2="BackgroundImageFix" result="effect1_dropShadow"></feBlend>
<feBlend mode="normal" in="SourceGraphic" in2="effect1_dropShadow" result="shape"></feBlend>
</filter>
</defs>
</svg>