<svg width="16" height="16" viewBox="0 0 16 16" fill="none" xmlns="http://www.w3.org/2000/svg">
<path fill-rule="evenodd" clip-rule="evenodd" d="M7.99595 0C10.1338 0 12.1397 0.832136 13.6518 2.34419C15.1638 3.85624 15.9993 5.86216 15.9993 8C15.9993 10.1378 15.1672 12.1438 13.6551 13.6558C12.1127 15.1983 10.0628 16 7.99257 16C6.70377 16 5.40483 15.6888 4.21752 15.0495C3.15198 15.8173 2.11012 15.9831 1.40314 15.9831C1.13929 15.9831 0.922801 15.9594 0.770581 15.9357C0.445845 15.885 0.195528 15.6313 0.144788 15.3066C0.0940481 14.9818 0.259799 14.6672 0.55409 14.5218C1.16635 14.2207 1.57904 13.6186 1.83612 13.1011C-0.785445 9.94503 -0.582485 5.26681 2.34014 2.34419C3.85219 0.832136 5.85811 0 7.99595 0ZM3.13394 6.26667H7.13394C7.392 6.26667 7.60061 6.05753 7.60061 5.8C7.60061 5.54247 7.392 5.33333 7.13394 5.33333H3.13394C2.87589 5.33333 2.66728 5.54247 2.66728 5.8C2.66728 6.05753 2.87589 6.26667 3.13394 6.26667ZM12.2006 7.46663H3.13394C2.87589 7.46663 2.66728 7.67577 2.66728 7.9333C2.66728 8.19083 2.87589 8.39997 3.13394 8.39997H12.2006C12.4587 8.39997 12.6673 8.19083 12.6673 7.9333C12.6673 7.67577 12.4587 7.46663 12.2006 7.46663ZM3.13394 9.59994H12.2006C12.4587 9.59994 12.6673 9.80908 12.6673 10.0666C12.6673 10.3241 12.4587 10.5333 12.2006 10.5333H3.13394C2.87589 10.5333 2.66728 10.3241 2.66728 10.0666C2.66728 9.80908 2.87589 9.59994 3.13394 9.59994Z" fill="#F85454"/>
</svg>
