<svg width="281" height="49" viewBox="0 0 281 49" fill="none" xmlns="http://www.w3.org/2000/svg">
  <path fill-rule="evenodd" clip-rule="evenodd" d="M48.9477 16.4356C48.9505 18.2786 48.4774 20.0032 47.7427 21.6847C45.0763 27.7865 42.4397 33.901 39.7891 40.0098C39.2515 41.2494 38.7062 42.486 38.1586 43.7214C37.8842 44.341 37.3767 44.5907 36.7379 44.4341C36.3496 44.3392 36.1194 44.0705 35.9655 43.7198C35.5104 42.6824 35.0512 41.6467 34.6003 40.6074C31.7599 34.061 28.9187 27.5148 26.0848 20.9655C25.5831 19.8065 25.3049 18.5879 25.2164 17.3267C25.006 14.3294 25.7892 11.6165 27.6067 9.23088C29.4726 6.78149 31.9336 5.24325 34.9709 4.71687C38.5927 4.08936 41.8558 4.95978 44.6861 7.30814C46.877 9.12626 48.232 11.4696 48.7447 14.279C48.874 14.9877 48.916 15.7124 48.9983 16.4298L48.9477 16.4356ZM37.0618 28.3507C37.0985 28.2723 37.1193 28.2314 37.1371 28.1891C38.5518 24.8318 39.9709 21.4761 41.3772 18.115C41.7263 17.2804 41.8002 16.4034 41.6148 15.5166C41.0974 13.0417 38.8145 11.4606 36.3271 11.8441C33.3696 12.3002 31.6268 15.4718 32.8019 18.2402C33.9461 20.9354 35.0758 23.6367 36.2121 26.3352C36.4895 26.9938 36.7672 27.6522 37.0618 28.3507Z" fill="#F85454"/>
  <path d="M25.0083 5.15283C21.979 12.1449 18.9616 19.1088 15.9335 26.0975H16.2005C18.1447 26.0975 20.0888 26.0968 22.0329 26.0979C22.7653 26.0984 23.4503 26.2672 24.0583 26.6925C24.5631 27.0458 24.9527 27.492 25.1976 28.0673C25.8025 29.488 26.4188 30.9036 27.0305 32.3214C27.056 32.3808 27.0787 32.4414 27.1184 32.5403H26.844C22.3453 32.5403 17.8468 32.5416 13.3481 32.5355C13.1599 32.5352 13.0725 32.5948 12.9997 32.7639C11.7778 35.5995 10.5634 38.4385 9.31761 41.2636C8.66871 42.7353 7.53518 43.6074 5.91737 43.7972C5.64805 43.8287 5.37553 43.845 5.10456 43.8457C3.49218 43.85 1.87969 43.8479 0.267548 43.8479C0.188843 43.8479 0.110493 43.8479 0 43.8479C0.0314345 43.7607 0.0498698 43.6996 0.075041 43.6417C2.76044 37.4611 5.44727 31.2812 8.13208 25.1003C10.7378 19.1016 13.3326 13.0982 15.953 7.10592C16.4877 5.88282 17.4849 5.19557 18.8185 5.1619C20.8277 5.11125 22.8388 5.14276 24.8491 5.13988C24.8881 5.13974 24.9272 5.14607 25.0083 5.15283Z" fill="#F85454"/>
  <path d="M82.056 22.234C82.056 26.81 85.576 30.264 89.954 30.264C92.946 30.264 95.278 28.702 96.708 26.634V21.904H90.746V23.796H94.662V25.798C93.65 27.14 92.198 28.13 89.954 28.13C86.742 28.13 84.3 25.6 84.3 22.234C84.3 18.868 86.742 16.338 89.954 16.338C92.198 16.338 93.76 17.46 94.75 18.846L96.356 17.372C95.08 15.7 92.99 14.204 89.954 14.204C85.576 14.204 82.056 17.658 82.056 22.234ZM98.1947 24.456C98.1947 27.734 100.593 30.264 104.157 30.264C105.939 30.264 107.391 29.67 108.645 28.394L107.347 26.898C106.577 27.734 105.499 28.306 104.201 28.306C102.265 28.306 100.637 27.096 100.439 24.984H108.865C108.931 24.632 108.975 24.192 108.975 23.774C108.975 20.914 107.017 18.604 103.827 18.604C100.483 18.604 98.1947 21.178 98.1947 24.456ZM103.849 20.518C105.477 20.518 106.731 21.574 106.885 23.224V23.246H100.505C100.835 21.552 102.133 20.518 103.849 20.518ZM109.795 18.868V20.65H111.467V26.722C111.467 28.966 112.765 30.264 114.943 30.264C115.713 30.264 116.307 30.132 116.725 29.89V27.932C116.197 28.24 115.647 28.284 115.405 28.284C114.173 28.284 113.601 27.712 113.601 26.458V20.65H116.461V18.868H113.601V15.81H111.533V18.868H109.795ZM122.185 27.8C122.955 29.318 124.649 30.264 126.563 30.264C128.961 30.264 130.677 28.9 130.677 27.074C130.677 25.16 129.445 24.302 127.003 23.466C125.265 22.872 124.715 22.476 124.715 21.772C124.715 21.002 125.441 20.474 126.519 20.474C127.619 20.474 128.367 21.046 128.917 21.904L130.457 20.76C129.709 19.418 128.389 18.604 126.607 18.604C124.297 18.604 122.625 20.122 122.625 21.816C122.625 23.664 123.835 24.544 126.101 25.27C128.147 25.93 128.587 26.326 128.587 27.118C128.587 27.866 127.817 28.372 126.541 28.372C125.309 28.372 124.429 27.712 123.747 26.678L122.185 27.8ZM131.619 18.868V20.65H133.291V26.722C133.291 28.966 134.589 30.264 136.767 30.264C137.537 30.264 138.131 30.132 138.549 29.89V27.932C138.021 28.24 137.471 28.284 137.229 28.284C135.997 28.284 135.425 27.712 135.425 26.458V20.65H138.285V18.868H135.425V15.81H133.357V18.868H131.619ZM139.388 27.052C139.388 28.9 140.928 30.264 142.996 30.264C144.536 30.264 145.834 29.604 146.626 28.284V30H148.606V22.894C148.606 20.254 146.846 18.604 144.074 18.604C142.248 18.604 140.774 19.242 139.674 20.518L140.774 21.926C141.566 21.024 142.71 20.496 143.876 20.496C145.504 20.496 146.472 21.354 146.472 22.806V23.026L142.996 23.708C140.62 24.17 139.388 25.314 139.388 27.052ZM141.478 26.92C141.478 26.062 142.028 25.578 143.37 25.314L146.56 24.698V25.402C146.56 26.964 145.152 28.46 143.348 28.46C142.248 28.46 141.478 27.822 141.478 26.92ZM151.382 18.868V30H153.516V24.478C153.516 22.212 154.858 20.738 156.904 20.738C157.036 20.738 157.256 20.76 157.344 20.782V18.692C157.212 18.648 156.926 18.604 156.662 18.604C155.166 18.604 154.022 19.462 153.472 20.826V18.868H151.382ZM157.848 18.868V20.65H159.52V26.722C159.52 28.966 160.818 30.264 162.996 30.264C163.766 30.264 164.36 30.132 164.778 29.89V27.932C164.25 28.24 163.7 28.284 163.458 28.284C162.226 28.284 161.654 27.712 161.654 26.458V20.65H164.514V18.868H161.654V15.81H159.586V18.868H157.848ZM165.51 24.456C165.51 27.734 167.908 30.264 171.472 30.264C173.254 30.264 174.706 29.67 175.96 28.394L174.662 26.898C173.892 27.734 172.814 28.306 171.516 28.306C169.58 28.306 167.952 27.096 167.754 24.984H176.18C176.246 24.632 176.29 24.192 176.29 23.774C176.29 20.914 174.332 18.604 171.142 18.604C167.798 18.604 165.51 21.178 165.51 24.456ZM171.164 20.518C172.792 20.518 174.046 21.574 174.2 23.224V23.246H167.82C168.15 21.552 169.448 20.518 171.164 20.518ZM182.85 30.264C184.39 30.264 185.996 29.428 186.612 28.35V30H188.658V14.468H186.524V20.408C185.886 19.418 184.39 18.604 182.85 18.604C179.88 18.604 177.57 21.046 177.57 24.434C177.57 27.822 179.88 30.264 182.85 30.264ZM183.202 20.562C185.05 20.562 186.656 22.102 186.656 24.434C186.656 26.744 185.05 28.306 183.202 28.306C181.354 28.306 179.726 26.744 179.726 24.434C179.726 22.124 181.354 20.562 183.202 20.562ZM195.432 18.868V20.65H196.972V30H199.106V20.65H201.768V18.868H199.106V17.922C199.106 16.58 200.074 16.096 201.108 16.096C201.526 16.096 201.944 16.184 202.318 16.36V14.512C201.878 14.27 201.35 14.204 200.778 14.204C198.556 14.204 196.972 15.612 196.972 17.856V18.868H195.432ZM207.951 30.264C211.251 30.264 213.715 27.712 213.715 24.434C213.715 21.156 211.251 18.604 207.951 18.604C204.651 18.604 202.187 21.156 202.187 24.434C202.187 27.712 204.651 30.264 207.951 30.264ZM204.365 24.434C204.365 22.366 205.839 20.628 207.951 20.628C210.063 20.628 211.537 22.366 211.537 24.434C211.537 26.502 210.063 28.24 207.951 28.24C205.839 28.24 204.365 26.502 204.365 24.434ZM215.856 18.868V30H217.99V24.478C217.99 22.212 219.332 20.738 221.378 20.738C221.51 20.738 221.73 20.76 221.818 20.782V18.692C221.686 18.648 221.4 18.604 221.136 18.604C219.64 18.604 218.496 19.462 217.946 20.826V18.868H215.856ZM226.78 18.868V20.65H228.32V30H230.454V20.65H233.116V18.868H230.454V17.922C230.454 16.58 231.422 16.096 232.456 16.096C232.874 16.096 233.292 16.184 233.666 16.36V14.512C233.226 14.27 232.698 14.204 232.126 14.204C229.904 14.204 228.32 15.612 228.32 17.856V18.868H226.78ZM234.672 18.868V30H236.806V24.478C236.806 22.212 238.148 20.738 240.194 20.738C240.326 20.738 240.546 20.76 240.634 20.782V18.692C240.502 18.648 240.216 18.604 239.952 18.604C238.456 18.604 237.312 19.462 236.762 20.826V18.868H234.672ZM241.082 24.456C241.082 27.734 243.48 30.264 247.044 30.264C248.826 30.264 250.278 29.67 251.532 28.394L250.234 26.898C249.464 27.734 248.386 28.306 247.088 28.306C245.152 28.306 243.524 27.096 243.326 24.984H251.752C251.818 24.632 251.862 24.192 251.862 23.774C251.862 20.914 249.904 18.604 246.714 18.604C243.37 18.604 241.082 21.178 241.082 24.456ZM246.736 20.518C248.364 20.518 249.618 21.574 249.772 23.224V23.246H243.392C243.722 21.552 245.02 20.518 246.736 20.518ZM253.119 24.456C253.119 27.734 255.517 30.264 259.081 30.264C260.863 30.264 262.315 29.67 263.569 28.394L262.271 26.898C261.501 27.734 260.423 28.306 259.125 28.306C257.189 28.306 255.561 27.096 255.363 24.984H263.789C263.855 24.632 263.899 24.192 263.899 23.774C263.899 20.914 261.941 18.604 258.751 18.604C255.407 18.604 253.119 21.178 253.119 24.456ZM258.773 20.518C260.401 20.518 261.655 21.574 261.809 23.224V23.246H255.429C255.759 21.552 257.057 20.518 258.773 20.518ZM265.333 28.9C265.333 29.648 265.949 30.264 266.675 30.264C267.401 30.264 268.017 29.648 268.017 28.9C268.017 28.152 267.401 27.558 266.675 27.558C265.949 27.558 265.333 28.152 265.333 28.9Z" fill="#F85454"/>
  <line x1="65.5" y1="2.18557e-08" x2="65.5" y2="49" stroke="#F85454"/>
</svg>
