<svg width="42" height="41" viewBox="0 0 42 41" fill="none" xmlns="http://www.w3.org/2000/svg">
  <path fill-rule="evenodd" clip-rule="evenodd" d="M40.8377 9.42723C40.84 10.8853 40.4566 12.2497 39.8611 13.58C37.7002 18.4073 35.5634 23.2448 33.4153 28.0777C32.9796 29.0584 32.5377 30.0367 32.0939 31.0141C31.8715 31.5043 31.4602 31.7018 30.9425 31.578C30.6278 31.5028 30.4412 31.2903 30.3165 31.0128C29.9477 30.1921 29.5755 29.3727 29.2102 28.5505C26.9082 23.3714 24.6056 18.1924 22.3089 13.0111C21.9023 12.0941 21.6769 11.1301 21.6051 10.1322C21.4345 7.76094 22.0693 5.61469 23.5423 3.72732C25.0545 1.78952 27.0489 0.572561 29.5105 0.156125C32.4457 -0.340324 35.0902 0.348295 37.384 2.20618C39.1596 3.64456 40.2577 5.49846 40.6732 7.7211C40.778 8.28176 40.8121 8.85507 40.8787 9.42268L40.8377 9.42723ZM31.202 18.8541C31.2318 18.792 31.2486 18.7597 31.263 18.7262C32.4096 16.0701 33.5596 13.4153 34.6993 10.7562C34.9822 10.0959 35.0422 9.40207 34.8919 8.70047C34.4726 6.74252 32.6225 5.49163 30.6066 5.79502C28.2098 6.1559 26.7973 8.66506 27.7497 10.8553C28.6769 12.9875 29.5925 15.1246 30.5134 17.2595C30.7382 17.7805 30.9632 18.3015 31.202 18.8541Z" fill="#F85454"/>
  <path d="M21.4358 0.50119C18.9807 6.03284 16.5354 11.5423 14.0813 17.0713H14.2976C15.8733 17.0713 17.4489 17.0707 19.0244 17.0717C19.618 17.072 20.1731 17.2055 20.6659 17.542C21.075 17.8215 21.3908 18.1745 21.5892 18.6297C22.0795 19.7536 22.5789 20.8736 23.0747 21.9953C23.0953 22.0423 23.1137 22.0902 23.1459 22.1684H22.9235C19.2776 22.1684 15.6319 22.1695 11.986 22.1647C11.8335 22.1644 11.7626 22.2116 11.7036 22.3453C10.7133 24.5887 9.72919 26.8348 8.71955 29.0698C8.19366 30.2341 7.27501 30.9241 5.96388 31.0742C5.74561 31.0991 5.52476 31.112 5.30515 31.1126C3.99843 31.116 2.69161 31.1143 1.38507 31.1143C1.32129 31.1143 1.25779 31.1143 1.16824 31.1143C1.19372 31.0453 1.20866 30.997 1.22906 30.9512C3.4054 26.0615 5.58289 21.1723 7.75876 16.2824C9.87055 11.5366 11.9734 6.78703 14.0971 2.04635C14.5305 1.07871 15.3386 0.535 16.4194 0.50836C18.0477 0.468293 19.6776 0.493223 21.3068 0.490946C21.3384 0.490829 21.3701 0.49584 21.4358 0.50119Z" fill="#F85454"/>
  <path d="M19.2959 40.1919C19.6934 40.1919 20.069 40.1919 20.4445 40.1919C20.7241 40.1919 21.0035 40.1891 21.283 40.1928C21.5104 40.1959 21.665 40.3487 21.6711 40.5704C21.6741 40.6795 21.6715 40.7887 21.6715 40.906H18.479V36.668H21.6598C21.6598 36.8207 21.6774 36.9831 21.6548 37.1399C21.6317 37.3016 21.4922 37.3746 21.2693 37.375C20.678 37.3761 20.0867 37.3754 19.4955 37.3754H19.298C19.298 37.717 19.2948 38.0463 19.3045 38.3751C19.3055 38.3997 19.3995 38.4413 19.4506 38.4419C19.9504 38.4469 20.4504 38.4449 20.9502 38.4449C21.0137 38.4449 21.0775 38.4449 21.1719 38.4449C21.1631 38.6186 21.1698 38.7809 21.1424 38.9373C21.1166 39.085 20.9825 39.1571 20.7785 39.1584C20.3485 39.1611 19.9182 39.166 19.4886 39.1558C19.3318 39.1521 19.2857 39.1981 19.2925 39.3495C19.3047 39.6216 19.2959 39.8946 19.2959 40.1919Z" fill="#F85454"/>
  <path d="M38.8103 36.6602H41.9956C41.9956 36.8062 42.0069 36.9474 41.9929 37.0862C41.9738 37.2782 41.8377 37.3732 41.6002 37.3737C41.0033 37.3753 40.4065 37.3743 39.8096 37.3743C39.7516 37.3743 39.6937 37.3743 39.6253 37.3743V38.4385H41.4781C41.4781 38.6056 41.4932 38.7578 41.4742 38.9058C41.4527 39.0735 41.321 39.1554 41.1019 39.1571C40.6717 39.1603 40.2416 39.1582 39.8114 39.1583C39.7535 39.1583 39.6956 39.1583 39.6264 39.1583V40.1908H39.8373C40.4127 40.1908 40.9881 40.1903 41.5634 40.1911C41.847 40.1915 41.9967 40.3404 41.9989 40.6215C41.9996 40.7106 41.9991 40.7998 41.9991 40.9011H38.8103V36.6602Z" fill="#F85454"/>
  <path fill-rule="evenodd" clip-rule="evenodd" d="M22.4906 36.655C22.859 36.655 23.2182 36.6505 23.577 36.6562C23.9635 36.6624 24.354 36.6468 24.7349 36.6966C25.4484 36.79 25.9439 37.3895 25.9706 38.0813C26.0076 39.0316 25.4117 39.6218 24.3866 39.6458C24.038 39.654 23.6888 39.6472 23.3173 39.6472C23.3173 39.9226 23.3173 40.1888 23.3173 40.455C23.3171 40.8164 23.2179 40.9145 22.8509 40.9146C22.7338 40.9147 22.6166 40.9146 22.4906 40.9146V36.655ZM23.3232 38.9266C23.398 38.9266 23.456 38.9267 23.5141 38.9265C23.8144 38.9252 24.1163 38.9408 24.4149 38.9185C24.8327 38.8874 25.1073 38.6132 25.1302 38.2423C25.1567 37.8099 24.9334 37.4557 24.5259 37.4076C24.1323 37.3611 23.7286 37.3976 23.3232 37.3976V38.9266Z" fill="#F85454"/>
  <path d="M7.82687 39.8643C7.54549 40.631 6.48395 41.1282 5.4882 40.9706C4.43968 40.8046 3.64926 39.9345 3.61134 38.9048C3.57111 37.8109 4.2805 36.8761 5.33477 36.6343C6.34613 36.4023 7.44618 36.8713 7.83568 37.7178C7.63753 37.792 7.44512 37.8925 7.24074 37.9288C7.13779 37.9471 6.97545 37.8807 6.90439 37.7989C6.44784 37.2745 5.72217 37.2565 5.27386 37.4711C4.73839 37.7274 4.38212 38.345 4.45079 38.9086C4.53229 39.5775 4.96145 40.0834 5.5834 40.2033C6.07854 40.2988 6.52187 40.1822 6.87403 39.8075C7.04891 39.6214 7.14995 39.5961 7.38555 39.6871C7.53371 39.7444 7.68044 39.8054 7.82687 39.8643Z" fill="#F85454"/>
  <path d="M38.0726 37.7206C37.884 37.7923 37.6988 37.8738 37.5062 37.9327C37.3397 37.9836 37.2213 37.8824 37.1152 37.7704C36.8454 37.4853 36.5141 37.3404 36.1141 37.3431C35.4447 37.3477 34.8816 37.8022 34.7284 38.4666C34.5736 39.138 34.9175 39.8329 35.5461 40.1188C36.055 40.3502 36.6775 40.2392 37.0781 39.8454C37.3327 39.5952 37.3778 39.5861 37.7122 39.72C37.8303 39.7671 37.9481 39.8151 38.0654 39.8623C37.8622 40.4401 37.0339 41.1316 35.7718 40.9758C34.7708 40.8521 33.9024 39.9901 33.8558 38.8979C33.8018 37.6348 34.738 36.7964 35.6178 36.6288C36.9168 36.3816 37.796 37.0855 38.0726 37.7206Z" fill="#F85454"/>
  <path d="M15.7947 39.1048C15.8279 39.0391 15.852 38.994 15.8738 38.948C16.1816 38.3015 16.4942 37.6571 16.7945 37.0071C16.9107 36.7553 17.085 36.631 17.3719 36.6528C17.5318 36.665 17.6935 36.655 17.8915 36.655C17.1948 38.09 16.5079 39.5044 15.8211 40.9187L15.7741 40.9228C15.0895 39.5105 14.4049 38.0981 13.7127 36.6699C13.9739 36.6699 14.2179 36.6536 14.4584 36.6756C14.6178 36.6902 14.708 36.822 14.7742 36.963C15.0834 37.6204 15.3953 38.2766 15.7068 38.933C15.7308 38.9835 15.7576 39.0327 15.7947 39.1048Z" fill="#F85454"/>
  <path d="M11.6035 36.6538C11.6035 36.7885 11.6088 36.9034 11.6024 37.0176C11.5891 37.2539 11.4652 37.3705 11.2221 37.3734C10.9384 37.3769 10.6546 37.3742 10.3496 37.3742V37.5723C10.3496 38.5495 10.35 39.5266 10.3496 40.5038C10.3494 40.8054 10.2416 40.9118 9.9352 40.9132C9.80198 40.9139 9.66876 40.9133 9.51811 40.9133V37.3776H8.28781C8.28781 37.2018 8.27172 37.0398 8.2926 36.8828C8.31214 36.735 8.44641 36.6557 8.63278 36.6547C9.08416 36.6522 9.53544 36.6538 9.98682 36.6538C10.5182 36.6537 11.0497 36.6538 11.6035 36.6538Z" fill="#F85454"/>
  <path d="M27.4472 40.191C28.0766 40.191 28.6833 40.1908 29.2899 40.191C29.6424 40.191 29.741 40.2867 29.7416 40.629C29.7418 40.7174 29.7417 40.8059 29.7417 40.9037H26.6173V36.668C26.8106 36.668 27.0096 36.6473 27.2002 36.6777C27.2822 36.6908 27.3672 36.7992 27.4129 36.8837C27.4522 36.9566 27.4459 37.0573 27.4461 37.1456C27.448 38.0969 27.4472 39.0482 27.4472 39.9995C27.4472 40.0564 27.4472 40.1134 27.4472 40.191Z" fill="#F85454"/>
  <path d="M1.80082 38.9605C2.03824 38.9605 2.25133 38.9648 2.46424 38.9593C2.66153 38.9541 2.78929 39.0407 2.86342 39.2153C2.9226 39.3551 2.98505 39.4935 3.05573 39.6546C2.98534 39.6579 2.92988 39.6628 2.87472 39.6629C2.46098 39.6635 2.04714 39.6676 1.6336 39.6605C1.51762 39.6585 1.46149 39.6986 1.41897 39.8002C1.30548 40.0718 1.18002 40.3385 1.06289 40.6087C0.972477 40.8168 0.811675 40.9135 0.584406 40.9134C0.397266 40.9133 0.210126 40.9134 0 40.9134C0.0829393 40.7241 0.157451 40.5518 0.233686 40.3802C0.742623 39.237 1.2552 38.0953 1.75839 36.9497C1.85196 36.7366 1.99016 36.6378 2.22739 36.6517C2.41424 36.6626 2.60234 36.654 2.82166 36.654C2.47879 37.4283 2.14455 38.1837 1.80082 38.9605Z" fill="#F85454"/>
  <path d="M30.2436 40.914C30.4077 40.5418 30.561 40.1916 30.7165 39.8422C31.1439 38.8814 31.5754 37.9223 31.9978 36.9593C32.0927 36.7429 32.2327 36.6359 32.4783 36.652C32.6653 36.6643 32.8536 36.6544 33.0663 36.6544C32.7248 37.4259 32.3901 38.1816 32.0451 38.961C32.2785 38.961 32.4861 38.9667 32.6934 38.9594C32.9042 38.9521 33.039 39.0425 33.1154 39.2309C33.1702 39.3664 33.2314 39.4994 33.3028 39.6637C33.2191 39.6637 33.1582 39.6637 33.0974 39.6637C32.689 39.6637 32.2805 39.6669 31.8723 39.6616C31.7664 39.6601 31.7103 39.6885 31.6691 39.7902C31.5626 40.0531 31.436 40.3082 31.3264 40.5699C31.2269 40.8076 31.0557 40.9234 30.7919 40.915C30.6203 40.9096 30.4485 40.914 30.2436 40.914Z" fill="#F85454"/>
  <path d="M12.2818 36.6538C12.4449 36.6538 12.584 36.6526 12.723 36.654C12.994 36.6565 13.1139 36.7726 13.1148 37.0411C13.1168 37.6296 13.1154 38.2181 13.1154 38.8065C13.1154 39.4475 13.1154 40.0884 13.1154 40.7295V40.9106C12.9265 40.9106 12.7547 40.9222 12.5855 40.9076C12.3799 40.89 12.2828 40.7626 12.2824 40.5337C12.2811 39.5828 12.2818 38.6317 12.2818 37.6807C12.2818 37.3455 12.2818 37.0101 12.2818 36.6538Z" fill="#F85454"/>
</svg>
