<svg width="18" height="18" style=" position: relative;top:2px;" viewBox="0 0 16 16" fill="none" xmlns="http://www.w3.org/2000/svg"><path d="M14.5684 8.20006C14.0026 7.63346 13.201 7.54044 12.3697 7.94573L11.1821 8.52539V3.00845C11.1821 2.09966 10.443 1.36006 9.53425 1.36006C9.29488 1.36006 9.06802 1.41228 8.86265 1.5045C8.78948 0.662892 8.08225 0 7.22215 0C6.44963 0 5.80143 0.534775 5.62408 1.25289C5.40783 1.14816 5.16601 1.08805 4.91005 1.08805C4.00153 1.08805 3.26193 1.8271 3.26193 2.73589V2.86102C3.05846 2.77125 2.83433 2.72012 2.59795 2.72012C1.68943 2.72012 0.949829 3.45972 0.949829 4.36851V10.0457C0.949829 13.3288 3.62098 16 6.90444 16C8.4938 16 9.98796 15.3814 11.1125 14.2575C11.1146 14.2553 14.5654 10.5339 14.5684 10.5312C15.2109 9.88817 15.2109 8.84283 14.5684 8.20006ZM13.8889 9.81908L10.4126 13.566C9.47468 14.5012 8.22913 15.0167 6.90471 15.0167C4.16392 15.0167 1.93424 12.7867 1.93424 10.0459V4.36851C1.93424 4.00184 2.23209 3.70371 2.59822 3.70371C2.96435 3.70371 3.2622 4.00211 3.2622 4.36851V8.4971C3.2622 8.76857 3.4828 8.9889 3.75427 8.9889C4.02574 8.9889 4.24634 8.76857 4.24634 8.4971V2.73589C4.24634 2.36949 4.54419 2.07164 4.91032 2.07164C5.27645 2.07164 5.5743 2.36977 5.5743 2.73589V8.4971C5.5743 8.76857 5.7949 8.9889 6.06637 8.9889C6.33784 8.9889 6.55844 8.76857 6.55844 8.4971V1.64785C6.55844 1.28145 6.85629 0.983594 7.22242 0.983594C7.58855 0.983594 7.8864 1.28172 7.8864 1.64785V8.4971C7.8864 8.76857 8.107 8.9889 8.37847 8.9889C8.64994 8.9889 8.87027 8.76857 8.87027 8.4971V3.00845C8.87027 2.64178 9.16839 2.34365 9.53452 2.34365C9.90065 2.34365 10.1988 2.64205 10.1988 3.00845V9.33898V9.33979V10.3087C10.1988 10.5802 10.4191 10.8005 10.6906 10.8005C10.962 10.8005 11.1824 10.5802 11.1824 10.3087V9.62024L12.8011 8.82977C13.1096 8.67962 13.5464 8.56864 13.8726 8.89533C14.1261 9.14911 14.1318 9.55849 13.8889 9.81908Z" fill="#65676B"></path></svg>