<svg width="16" height="18" style=" position: relative;top:2px;" viewBox="0 0 14 16" fill="none" xmlns="http://www.w3.org/2000/svg"> <path d="M13.6575 8.77119C13.287 8.40067 12.7574 8.34096 12.1256 8.64908L8.802 10.493C8.68705 10.5569 8.53657 10.5124 8.47388 10.3987C8.44283 10.3425 8.43506 10.2774 8.45298 10.2156C8.47089 10.1538 8.5112 10.1028 8.56763 10.0717L9.71262 9.43699V2.52077C9.71262 1.9541 9.25163 1.49282 8.68496 1.49282C8.11859 1.49282 7.65761 1.9538 7.65761 2.52077V7.64949C7.65761 7.78265 7.54952 7.89102 7.41607 7.89102C7.28321 7.89102 7.17483 7.78295 7.17483 7.64949V1.02736C7.17483 0.460982 6.71385 0 6.14717 0C5.5805 0 5.11952 0.460683 5.11952 1.02736V7.64949C5.11952 7.78265 5.01144 7.89102 4.87828 7.89102C4.74512 7.89102 4.63704 7.78295 4.63704 7.64949V2.22161C4.63704 1.65523 4.17606 1.19425 3.60939 1.19425C3.04271 1.19425 2.58173 1.65494 2.58173 2.22161V7.64949C2.58173 7.78265 2.47365 7.89102 2.34049 7.89102C2.20733 7.89102 2.09925 7.78295 2.09925 7.64949V4.01358C2.09925 3.44691 1.63827 2.98563 1.0716 2.98563C0.504927 2.98563 0.0439453 3.44661 0.0439453 4.01358V10.2452C0.0439453 13.4186 2.62532 16 5.79845 16C7.24111 16 8.66914 15.3673 9.82368 14.2146L13.6504 10.2327C14.0549 9.82721 14.0582 9.17186 13.6575 8.77119Z" fill="#65676B"></path></svg>