<svg width="24" height="24" viewBox="0 0 24 24" fill="none" xmlns="http://www.w3.org/2000/svg"> <path d="M17.0933 2.43883C16.2074 2.43883 15.3621 2.78108 14.7275 3.38709C14.0929 2.78108 13.2477 2.43883 12.362 2.43883C10.4722 2.43883 8.93492 3.97611 8.93492 5.86589C8.93492 6.28446 9.00963 6.69306 9.15688 7.08116C9.15904 7.08709 9.16174 7.09329 9.16443 7.09976C9.16443 7.09976 9.16443 7.09977 9.16443 7.10004L9.16497 7.10138C9.16551 7.103 9.16632 7.10462 9.16686 7.10624C9.16821 7.1092 9.16929 7.11217 9.17091 7.11568C9.17091 7.11568 9.17091 7.11568 9.17091 7.11595C9.25667 7.3371 9.36725 7.55043 9.49913 7.75082C9.49913 7.75082 9.49913 7.75109 9.4994 7.75109C10.1089 8.804 11.5731 10.8607 14.556 12.8676C14.5571 12.8681 14.5576 12.8686 14.5584 12.8692C14.559 12.8694 14.5595 12.8697 14.5598 12.8702C14.5611 12.8708 14.5619 12.8713 14.563 12.8719C14.5735 12.8789 14.584 12.8851 14.5954 12.8902C14.5997 12.8924 14.604 12.8942 14.6083 12.8959C14.6164 12.8994 14.6248 12.9026 14.6328 12.9053C14.6382 12.9069 14.6434 12.9088 14.6488 12.9102C14.6569 12.9123 14.6652 12.9142 14.6733 12.9158C14.6784 12.9166 14.6833 12.918 14.6884 12.9185C14.7005 12.9201 14.7127 12.9212 14.7251 12.9212C14.7259 12.9212 14.727 12.9215 14.7278 12.9215C14.7281 12.9215 14.7281 12.9215 14.7281 12.9215C14.7283 12.9215 14.7283 12.9215 14.7286 12.9215C14.7294 12.9215 14.7302 12.9212 14.7313 12.9212C14.7434 12.9212 14.7556 12.9201 14.768 12.9185C14.7728 12.918 14.7777 12.9166 14.7828 12.9158C14.7912 12.9142 14.7995 12.9126 14.8076 12.9102C14.813 12.9088 14.8179 12.9069 14.8233 12.9053C14.8316 12.9023 14.8402 12.8994 14.8483 12.8959C14.8527 12.8937 14.8567 12.8921 14.861 12.8902C14.8721 12.8845 14.8829 12.8786 14.8934 12.8719C14.8945 12.8713 14.8955 12.8708 14.8966 12.8702C14.8969 12.8697 14.8974 12.8694 14.898 12.8692C14.8988 12.8686 14.8996 12.8681 14.9004 12.8676C17.8833 10.861 19.3472 8.80427 19.9567 7.75109C19.957 7.75109 19.957 7.75082 19.957 7.75082C20.0891 7.5507 20.1994 7.3371 20.2855 7.11595C20.2879 7.11082 20.2901 7.10597 20.2917 7.10111C20.2946 7.09437 20.2973 7.08763 20.2998 7.08116C20.447 6.69333 20.5215 6.28473 20.5215 5.86643C20.5201 3.97638 18.9831 2.43883 17.0933 2.43883ZM14.7275 12.2567C11.9488 10.3491 10.5857 8.42911 10.0159 7.44255C10.0151 7.4412 10.0143 7.43959 10.0132 7.43797C10.0121 7.43581 10.0107 7.43365 10.0094 7.43177C9.85621 7.16503 9.76721 6.97678 9.72649 6.88535C9.72514 6.88158 9.72352 6.87834 9.7219 6.87484C9.7219 6.87457 9.7219 6.87457 9.7219 6.8743V6.87403L9.7184 6.86567C9.59757 6.54688 9.53635 6.21057 9.53635 5.86589C9.53635 4.30784 10.8039 3.04025 12.3623 3.04025C13.1838 3.04025 13.9632 3.39706 14.5007 4.01899C14.5018 4.02061 14.5037 4.02196 14.5047 4.02331C14.5085 4.02735 14.5118 4.03086 14.5158 4.03464C14.5196 4.03841 14.5234 4.04219 14.5274 4.04596C14.529 4.04731 14.5304 4.04866 14.5317 4.05001C14.5336 4.05163 14.5358 4.05297 14.5374 4.05459C14.5422 4.05837 14.5465 4.06188 14.5514 4.06538C14.5549 4.06808 14.5581 4.0705 14.5619 4.07266C14.5668 4.0759 14.5714 4.0786 14.5762 4.08156C14.5803 4.08372 14.584 4.08615 14.5881 4.0883C14.5929 4.09073 14.597 4.09289 14.6018 4.09505C14.6064 4.09721 14.611 4.09909 14.6156 4.10098C14.6199 4.1026 14.6239 4.10422 14.6283 4.10584C14.6337 4.10772 14.6385 4.10934 14.6439 4.11096C14.648 4.11204 14.652 4.11312 14.656 4.1142C14.6614 4.11555 14.6668 4.11689 14.6722 4.1177C14.6763 4.11851 14.6803 4.11932 14.6844 4.11986C14.69 4.12067 14.6954 4.12121 14.7008 4.12175C14.7054 4.12202 14.7092 4.12229 14.7138 4.12256C14.7192 4.12283 14.7243 4.12283 14.7294 4.12283C14.734 4.12283 14.7386 4.12283 14.7432 4.12256C14.7483 4.12256 14.7529 4.12202 14.758 4.12148C14.7631 4.12121 14.7674 4.1204 14.7723 4.11986C14.7771 4.11932 14.7817 4.11851 14.7866 4.11743C14.7914 4.11635 14.796 4.11555 14.8009 4.1142C14.8057 4.11285 14.81 4.11177 14.8149 4.11042C14.8198 4.10907 14.8241 4.10773 14.8287 4.10611C14.8335 4.10422 14.8381 4.1026 14.8429 4.10071C14.8473 4.09909 14.8513 4.0972 14.8556 4.09532C14.8605 4.09289 14.8653 4.09046 14.8702 4.08804C14.874 4.08588 14.8775 4.08399 14.8812 4.08183C14.8864 4.07886 14.8912 4.0759 14.8963 4.07239C14.8999 4.07024 14.9028 4.06781 14.9063 4.06538C14.9112 4.06188 14.9158 4.05837 14.9204 4.05459C14.9222 4.05297 14.9244 4.05163 14.926 4.05001C14.9276 4.04866 14.929 4.04704 14.9306 4.04569C14.9346 4.04219 14.9382 4.03868 14.9419 4.0349C14.946 4.03086 14.9495 4.02709 14.9533 4.02304C14.9546 4.02169 14.956 4.02034 14.957 4.01899C15.4945 3.39706 16.2742 3.04025 17.0957 3.04025C18.6538 3.04025 19.9214 4.30784 19.9214 5.86616C19.9214 6.21111 19.8599 6.54742 19.7391 6.86674V6.86702C19.7385 6.86783 19.7383 6.8689 19.7377 6.86971C19.7377 6.87025 19.7375 6.87079 19.7372 6.87106C19.7372 6.87133 19.7369 6.8716 19.7369 6.87187C19.7372 6.87052 19.7377 6.86917 19.7385 6.86728L19.738 6.86863L19.7356 6.8743C19.7339 6.87834 19.732 6.88212 19.7304 6.88589C19.6897 6.97786 19.6007 7.16611 19.4478 7.43177C19.4462 7.43419 19.4446 7.43662 19.4432 7.43904C19.4424 7.44012 19.4419 7.4412 19.441 7.44255C18.8693 8.42911 17.5062 10.3491 14.7275 12.2567Z" fill="#ffffff"></path> <path fill-rule="evenodd" clip-rule="evenodd" d="M9.16668 7.10605C9.16641 7.10524 9.16607 7.10443 9.16573 7.10363C9.16539 7.10282 9.16506 7.10201 9.16479 7.1012L9.16443 7.09976L9.16425 7.09958C9.16368 7.09822 9.16311 7.09687 9.16255 7.09553C9.16044 7.09051 9.1584 7.08566 9.1567 7.08097C9.00944 6.69287 8.93474 6.28428 8.93474 5.86571C8.93474 3.97593 10.472 2.43864 12.3618 2.43864C13.2475 2.43864 14.0927 2.78089 14.7273 3.38691C15.3619 2.78089 16.2072 2.43864 17.0931 2.43864C18.9829 2.43864 20.5199 3.9762 20.5213 5.86625C20.5213 6.28455 20.4468 6.69314 20.2996 7.08097C20.2972 7.08744 20.2945 7.09419 20.2915 7.10093C20.2899 7.10578 20.2877 7.11064 20.2853 7.11576C20.1993 7.33691 20.089 7.55052 19.9568 7.75063C19.9568 7.75063 19.9568 7.75091 19.9565 7.75091C19.347 8.80408 17.8831 10.8608 14.9002 12.8674L14.8978 12.869C14.8972 12.8693 14.8967 12.8695 14.8964 12.8701L14.8932 12.8717C14.8827 12.8784 14.8719 12.8844 14.8608 12.89C14.8565 12.8919 14.8525 12.8935 14.8482 12.8957C14.841 12.8988 14.8334 12.9015 14.8259 12.9041L14.8231 12.9051C14.821 12.9057 14.819 12.9064 14.817 12.9071C14.8139 12.9081 14.8108 12.9091 14.8074 12.91C14.7994 12.9124 14.7911 12.9142 14.7828 12.9158C14.7777 12.9166 14.7726 12.9178 14.7678 12.9183C14.7554 12.92 14.7432 12.921 14.7311 12.921C14.7305 12.921 14.73 12.9211 14.7296 12.9212C14.7292 12.9212 14.7288 12.9213 14.7284 12.9213H14.7276C14.7268 12.9213 14.7257 12.921 14.7249 12.921C14.7125 12.921 14.7004 12.92 14.6882 12.9183C14.6852 12.918 14.6823 12.9174 14.6793 12.9168C14.6773 12.9164 14.6752 12.916 14.6731 12.9156C14.665 12.914 14.6567 12.9121 14.6486 12.91C14.6451 12.9091 14.6418 12.908 14.6385 12.907C14.6365 12.9063 14.6346 12.9057 14.6327 12.9051C14.6246 12.9024 14.6162 12.8992 14.6081 12.8957C14.6038 12.8941 14.5995 12.8922 14.5952 12.89C14.5839 12.8849 14.5733 12.8787 14.5628 12.8717C14.5625 12.8715 14.5621 12.8713 14.5618 12.8711C14.5611 12.8708 14.5605 12.8704 14.5596 12.8701C14.5593 12.8695 14.5588 12.8693 14.5582 12.869C14.558 12.8688 14.5577 12.8686 14.5575 12.8684C14.557 12.8681 14.5565 12.8677 14.5558 12.8674C11.5729 10.8605 10.1086 8.80372 9.49913 7.75082C9.49886 7.75082 9.49894 7.75063 9.49894 7.75063C9.37461 7.56171 9.26921 7.36128 9.18568 7.15364C9.18062 7.14104 9.17581 7.12833 9.17091 7.11568L9.17072 7.11549C9.16985 7.1136 9.16913 7.11186 9.16845 7.1102C9.16786 7.10878 9.1673 7.10742 9.16668 7.10605ZM8.97561 7.13539C8.82331 6.72949 8.74609 6.3025 8.74609 5.86571C8.74609 3.87174 10.3678 2.25 12.3618 2.25C13.2369 2.25 14.0746 2.5667 14.7273 3.13199C15.3801 2.56669 16.2178 2.25 17.0931 2.25C19.0872 2.25 20.7085 3.87206 20.7099 5.86611C20.7099 6.30693 20.6315 6.73827 20.4761 7.14764C20.4734 7.15473 20.4704 7.1624 20.467 7.17043C20.4641 7.17803 20.4612 7.18466 20.4589 7.18981C20.3688 7.42021 20.2538 7.64269 20.1164 7.85133C20.1164 7.85134 20.1164 7.85132 20.1164 7.85133C19.4949 8.92334 18.0219 10.9858 15.0431 12.9985L15.037 13.0107L14.9854 13.0365C14.9715 13.0449 14.9584 13.052 14.9468 13.0579L14.9417 13.0605L14.9364 13.0628L14.9319 13.0648L14.9306 13.0653L14.9279 13.0667L14.9232 13.0688C14.9094 13.0747 14.8951 13.0798 14.8883 13.0822C14.8875 13.0824 14.8867 13.0827 14.8862 13.0829L14.8818 13.0845L14.8779 13.0856L14.8742 13.0868C14.8712 13.0878 14.8652 13.0898 14.8578 13.0918C14.8417 13.0964 14.8269 13.0992 14.8199 13.1006L14.8185 13.1008L14.8153 13.1015L14.8143 13.1016L14.8131 13.1019C14.8114 13.1022 14.8081 13.1029 14.8043 13.1036C14.8009 13.1042 14.7966 13.1049 14.7915 13.1055C14.7768 13.1074 14.7596 13.1091 14.7406 13.1096C14.737 13.1098 14.7329 13.1099 14.7284 13.1099H14.7277C14.723 13.1099 14.7188 13.1098 14.7155 13.1096C14.6968 13.1091 14.6797 13.1075 14.665 13.1056C14.6547 13.1043 14.6465 13.1026 14.6433 13.102L14.6415 13.1016L14.6399 13.1014L14.6361 13.1006C14.6252 13.0984 14.6131 13.0957 14.6006 13.0924C14.5928 13.0904 14.5864 13.0884 14.5831 13.0873L14.5805 13.0865L14.5789 13.086C14.5786 13.0858 14.5784 13.0858 14.5783 13.0858L14.5757 13.085L14.573 13.0841C14.5605 13.0799 14.5484 13.0753 14.537 13.0704C14.5292 13.0673 14.5216 13.064 14.5142 13.0604C14.4997 13.0537 14.4867 13.0465 14.4751 13.0394L14.4229 13.0186L14.4129 12.9985C11.4341 10.9855 9.96086 8.92311 9.33941 7.85138C9.33935 7.85128 9.33929 7.85118 9.33922 7.85108C9.20132 7.64106 9.0854 7.41729 8.9952 7.18489C8.99482 7.18397 8.99451 7.18323 8.99429 7.18271L8.99419 7.18245L8.99085 7.1751L8.98934 7.17058C8.98914 7.17007 8.98893 7.16951 8.9887 7.16892L8.98744 7.16577C8.98562 7.16141 8.98319 7.15547 8.98095 7.14957L8.97561 7.13623V7.13539ZM10.0157 7.44237C10.5856 8.42893 11.9486 10.3489 14.7273 12.2565C17.506 10.3489 18.8691 8.42893 19.4409 7.44237C19.4417 7.44102 19.4422 7.43994 19.443 7.43886C19.4444 7.43643 19.446 7.43401 19.4476 7.43158C19.5984 7.16958 19.6871 6.98286 19.7285 6.88955C19.7291 6.88825 19.7297 6.88697 19.7302 6.88571C19.7309 6.88417 19.7316 6.88263 19.7323 6.88107C19.7334 6.87881 19.7344 6.87651 19.7354 6.87411L19.7368 6.87088L19.7373 6.86953C19.7373 6.86956 19.7374 6.8695 19.7373 6.86953C19.7372 6.86998 19.7369 6.87046 19.7368 6.87088C19.7368 6.8709 19.7368 6.87086 19.7368 6.87088C19.7369 6.87046 19.7372 6.86998 19.7373 6.86953C19.7375 6.86923 19.7378 6.86898 19.738 6.86863C19.738 6.86863 19.738 6.86864 19.738 6.86863C19.738 6.86851 19.7382 6.8683 19.7382 6.86818C19.7383 6.86786 19.7384 6.86759 19.7385 6.86728C19.7385 6.86728 19.7385 6.86729 19.7385 6.86728C19.7386 6.86715 19.739 6.86687 19.7391 6.86674L19.7389 6.86656C19.7391 6.86597 19.7393 6.86538 19.7395 6.86479C19.8599 6.54599 19.9212 6.21029 19.9212 5.86598C19.9212 4.30766 18.6536 3.04007 17.0956 3.04007C16.2741 3.04007 15.4944 3.39688 14.9568 4.01881C14.9558 4.02016 14.9544 4.02151 14.9531 4.02286L14.9524 4.02356C14.9489 4.02734 14.9456 4.03091 14.9417 4.03472C14.938 4.0385 14.9345 4.042 14.9304 4.04551C14.9296 4.04619 14.9289 4.04693 14.9281 4.04767C14.9274 4.04841 14.9266 4.04915 14.9258 4.04982C14.9249 4.05078 14.9237 4.05163 14.9226 4.05251C14.9218 4.05312 14.9209 4.05374 14.9202 4.05441C14.9156 4.05818 14.911 4.06169 14.9061 4.0652C14.9048 4.06611 14.9036 4.06701 14.9024 4.0679C14.9003 4.0694 14.8984 4.07086 14.8962 4.07221C14.891 4.07572 14.8862 4.07868 14.8811 4.08165C14.8773 4.0838 14.8738 4.0857 14.87 4.08785L14.8554 4.09513C14.8544 4.09558 14.8534 4.09603 14.8524 4.09647C14.8492 4.0979 14.8461 4.09929 14.8428 4.10053C14.8403 4.10147 14.838 4.10235 14.8356 4.10322C14.8333 4.1041 14.8309 4.10498 14.8285 4.10592C14.8239 4.10754 14.8196 4.10889 14.8147 4.11024C14.8123 4.11091 14.81 4.11152 14.8077 4.11212C14.8054 4.11273 14.8031 4.11334 14.8007 4.11401C14.7973 4.11495 14.7941 4.11562 14.7908 4.11631C14.7894 4.11661 14.7879 4.11692 14.7864 4.11725C14.7815 4.11833 14.777 4.11914 14.7721 4.11968C14.7704 4.11986 14.7688 4.12008 14.7672 4.1203C14.7642 4.12071 14.7612 4.12112 14.7578 4.12129L14.7565 4.12143C14.7519 4.12192 14.7477 4.12237 14.743 4.12237C14.7384 4.12264 14.7338 4.12264 14.7292 4.12264C14.7241 4.12264 14.719 4.12264 14.7136 4.12237L14.7006 4.12157C14.6952 4.12103 14.6898 4.12049 14.6842 4.11968C14.6801 4.11914 14.6761 4.11833 14.672 4.11752C14.6667 4.11671 14.6613 4.11536 14.6559 4.11401L14.6437 4.11077C14.6383 4.10916 14.6335 4.10754 14.6281 4.10565C14.6259 4.10484 14.6238 4.10404 14.6218 4.10323C14.6197 4.10242 14.6176 4.10161 14.6154 4.1008C14.6109 4.09893 14.6062 4.097 14.6017 4.09487C14.598 4.09326 14.5949 4.09166 14.5915 4.08995C14.5903 4.08936 14.5892 4.08875 14.5879 4.08812C14.5859 4.08704 14.5839 4.0859 14.582 4.08475C14.58 4.0836 14.5781 4.08246 14.576 4.08138C14.575 4.08073 14.5739 4.08009 14.5729 4.07945C14.5691 4.0772 14.5655 4.075 14.5617 4.07248C14.558 4.07032 14.5547 4.0679 14.5512 4.0652C14.5477 4.06265 14.5445 4.06011 14.5411 4.05746C14.5398 4.05646 14.5385 4.05544 14.5372 4.05441C14.5362 4.05346 14.5351 4.0526 14.5339 4.05173C14.5331 4.05111 14.5323 4.05049 14.5315 4.04982C14.5302 4.04848 14.5288 4.04713 14.5272 4.04578C14.5232 4.042 14.5194 4.03823 14.5156 4.03445C14.5116 4.03068 14.5083 4.02717 14.5046 4.02312C14.5041 4.02255 14.5035 4.02198 14.5029 4.02138C14.502 4.02058 14.5011 4.01974 14.5005 4.01881C13.963 3.39688 13.1836 3.04007 12.3621 3.04007C10.8038 3.04007 9.53616 4.30766 9.53616 5.86571C9.53616 6.21038 9.59739 6.5467 9.71821 6.86548L9.72172 6.87384V6.87465C9.72203 6.87533 9.72234 6.876 9.72266 6.87667C9.72395 6.87943 9.72521 6.88213 9.7263 6.88517C9.76703 6.9766 9.85603 7.16485 10.0092 7.43158C10.0106 7.43347 10.0119 7.43562 10.013 7.43778C10.0137 7.43882 10.0143 7.43986 10.0148 7.44082C10.0151 7.44136 10.0154 7.44188 10.0157 7.44237ZM10.179 7.34801C10.7293 8.30054 12.0463 10.1618 14.7273 12.0272C17.4083 10.1619 18.7255 8.30053 19.2776 7.34778L19.2779 7.34737C19.2777 7.34774 19.2784 7.3465 19.2791 7.3453C19.2792 7.34518 19.2792 7.34506 19.2793 7.34493C19.2801 7.34359 19.2813 7.34152 19.283 7.33893C19.2844 7.33656 19.2858 7.33442 19.2869 7.33261C19.4235 7.09493 19.5066 6.92264 19.5484 6.83035V6.79274L19.5749 6.76619C19.6794 6.47836 19.7326 6.17614 19.7326 5.86598C19.7326 4.41183 18.5494 3.22871 17.0956 3.22871C16.3295 3.22871 15.6024 3.56117 15.1007 4.14087C15.0971 4.14518 15.0939 4.14855 15.0919 4.15071C15.0909 4.15174 15.0899 4.15272 15.0891 4.15356C15.0858 4.15717 15.0808 4.16247 15.0751 4.16811L15.0745 4.16873C15.0715 4.17177 15.0655 4.17781 15.058 4.18451L15.0573 4.18519C15.0561 4.18634 15.0545 4.1878 15.0527 4.18947C15.0495 4.19233 15.0468 4.19468 15.0446 4.19645C15.0419 4.19869 15.0396 4.20053 15.0381 4.20163C15.0308 4.20762 15.0236 4.21305 15.0166 4.21813L15.0151 4.21923L15.0144 4.21969L15.0123 4.2212C15.0102 4.22277 15.0057 4.22605 14.9998 4.22988C14.9907 4.23597 14.9825 4.24088 14.9756 4.2449L14.9747 4.24544C14.9717 4.24709 14.9691 4.24859 14.9674 4.24953L14.9636 4.25164L14.959 4.25424L14.9355 4.26602L14.9311 4.26796L14.9288 4.26895L14.9244 4.27087C14.9212 4.27227 14.9164 4.27432 14.9107 4.27652C14.9069 4.278 14.9034 4.27929 14.9013 4.28006L14.8968 4.28174L14.8941 4.28282L14.8913 4.28381C14.8822 4.28699 14.8738 4.28961 14.8652 4.292C14.8615 4.29302 14.8582 4.2939 14.856 4.29448L14.8512 4.29577C14.8435 4.29792 14.8369 4.29936 14.833 4.3002L14.8276 4.30134L14.8273 4.3014C14.8173 4.30362 14.8061 4.30567 14.7936 4.30709L14.7921 4.30729L14.7895 4.30764C14.7863 4.30805 14.7812 4.30869 14.7748 4.3092C14.7702 4.3097 14.7604 4.31065 14.7492 4.31093C14.7408 4.31129 14.7335 4.31129 14.73 4.31129L14.7285 4.31129C14.7236 4.31129 14.7144 4.31129 14.7042 4.31078L14.7025 4.3107L14.6896 4.30988L14.6857 4.30965L14.6811 4.3092C14.6762 4.3087 14.6676 4.30785 14.6582 4.30652C14.65 4.3054 14.6425 4.30398 14.6381 4.30312C14.6258 4.30098 14.6152 4.29831 14.611 4.29726L14.6101 4.29702L14.6072 4.29631L14.5923 4.2923L14.5895 4.29146C14.5806 4.28879 14.5729 4.28621 14.5658 4.2837L14.5638 4.28301L14.5618 4.28228L14.5536 4.27913L14.5492 4.27743L14.5464 4.27637L14.5428 4.2749C14.5389 4.2733 14.5313 4.2702 14.5231 4.2664C14.5179 4.26404 14.5136 4.2619 14.5104 4.2603L14.5035 4.25685L14.5013 4.25574L14.4991 4.25457C14.496 4.25288 14.4932 4.25135 14.4912 4.25018L14.4866 4.24751L14.4859 4.24712L14.4824 4.24523L14.4777 4.24234C14.4775 4.24222 14.4771 4.24202 14.4767 4.24174C14.4741 4.24021 14.468 4.2365 14.4616 4.23237C14.4505 4.2256 14.442 4.21919 14.4378 4.21596C14.4311 4.21096 14.424 4.2054 14.422 4.20376L14.4214 4.20331L14.4121 4.1961L14.4107 4.19471C14.4101 4.19418 14.4094 4.19363 14.4088 4.19305L14.4033 4.18834L14.4001 4.18521L14.3985 4.18369C14.3927 4.1783 14.3875 4.17315 14.384 4.16958C14.3773 4.16315 14.3717 4.15724 14.3685 4.15386C14.3669 4.15222 14.3649 4.15017 14.3628 4.14784C14.3607 4.14563 14.3582 4.14277 14.3553 4.1393C13.8537 3.56055 13.1275 3.22871 12.3621 3.22871C10.9079 3.22871 9.7248 4.41185 9.7248 5.86571C9.7248 6.18672 9.78159 6.49933 9.89347 6.79561L9.90206 6.81611C9.94166 6.90435 10.0262 7.08194 10.1699 7.33252C10.1721 7.33595 10.1743 7.33967 10.1765 7.34365C10.1774 7.34516 10.1781 7.34638 10.1786 7.34718C10.1786 7.34726 10.1787 7.34733 10.1787 7.3474L10.179 7.34801ZM15.0366 4.20275L15.0363 4.20298L15.036 4.20322C15.0361 4.20316 15.0363 4.20298 15.0366 4.20275ZM19.7374 6.86931C19.7375 6.86903 19.7377 6.86874 19.7378 6.86844L19.7374 6.86931ZM19.7378 6.86844C19.7379 6.86802 19.7381 6.86758 19.7383 6.8671L19.7378 6.86844Z" fill="#ffffff"></path> <path d="M23.919 17.5121C23.7752 16.985 23.4638 16.6017 23.0086 16.3142C22.2899 15.883 21.2597 15.8351 20.6368 16.0028L16.4682 16.6257C16.4442 16.5059 16.4203 16.3861 16.3963 16.2903C16.1807 15.4038 15.1026 14.6132 13.4256 14.8049H13.4016L10.6944 15.332C10.5028 15.284 9.06533 14.8768 7.07686 14.8049C4.27383 14.7091 1.90204 15.332 0.1771 16.6496C0.0812705 16.7215 0.00939877 16.8173 0.00939877 16.9371C-0.0145587 17.0569 0.0333548 17.1527 0.105227 17.2725C0.248972 17.4642 0.512505 17.5121 0.704165 17.3683C4.46549 14.4695 10.5267 16.1944 10.5746 16.2184L10.6705 16.2423L13.5454 15.6913C14.6714 15.5715 15.438 16.0267 15.5578 16.5538C15.6776 16.985 15.6297 17.1048 15.6057 17.1527C15.6057 17.1527 15.6057 17.1527 15.6057 17.1767C15.5578 17.2246 15.1745 17.3204 14.887 17.3444L10.8621 18.135C10.7184 18.1589 7.62788 18.4943 6.57375 17.8475C6.47792 17.7996 6.35813 17.7756 6.23835 17.7996C6.11856 17.8235 6.02273 17.8954 5.97481 17.9912C5.85502 18.2069 5.9269 18.4943 6.11856 18.5902C6.69354 18.9495 7.6758 19.1172 9.04137 19.1172C10.0476 19.1172 10.8621 19.0454 10.9819 19.0214H11.0059L15.0307 18.2308C15.5578 18.1829 16.0609 18.0871 16.3484 17.6798C16.3484 17.6558 16.3724 17.6319 16.3724 17.6319C16.3724 17.6079 16.3724 17.6079 16.3963 17.6079L20.8045 16.9132H20.8524C21.2357 16.8173 22.8169 16.7455 23.1044 17.7756C23.1523 17.9194 23.1763 18.0392 23.1763 18.0871C23.1044 18.111 22.9607 18.1589 22.8409 18.1829C22.7451 18.2069 22.6492 18.2308 22.6013 18.2548L14.0006 20.2912L12.5152 20.6984C9.25699 21.5609 5.9269 21.489 3.72281 21.4411C2.30932 21.4172 1.08748 21.4172 0.320843 21.6088C0.201056 21.6328 0.105228 21.7047 0.057313 21.8244C0.00939804 21.9203 -0.0145587 22.064 0.00939877 22.1598C0.0333563 22.3515 0.201058 22.4953 0.416675 22.4953C0.440633 22.4953 0.464591 22.4953 0.488549 22.4713C0.512506 22.4713 0.512505 22.4713 0.536463 22.4713C1.15936 22.2796 2.23744 22.3036 3.57906 22.3275H3.69885C5.9269 22.3755 9.3049 22.4473 12.7069 21.5609L14.1922 21.1536L22.793 19.1172C23.2961 18.9735 23.6554 18.8777 23.8471 18.6141C24.0867 18.2308 23.9908 17.8235 23.919 17.5121Z" fill="#ffffff"></path> </svg>