<svg width="24" height="24" viewBox="0 0 24 24" fill="none" xmlns="http://www.w3.org/2000/svg">
<g clip-path="url(#clip0)">
<path d="M4.44381 14.6137L4.44381 14.6137C4.60819 14.756 4.78465 14.8815 4.97011 14.9905C6.08564 14.6144 9.85866 13.3434 11.8793 12.6775C12.1066 12.6025 12.2778 12.4292 12.3499 12.2008C12.4219 11.9723 12.3811 11.732 12.2378 11.5401L11.7502 10.887L8.90597 11.3689C8.49156 11.4393 8.07561 11.3416 7.73571 11.0943C7.39577 10.8471 7.1748 10.4815 7.11395 10.0657C6.99165 9.22993 7.5705 8.443 8.40465 8.31086L11.8034 7.77228C12.6599 7.63647 13.5127 7.98544 14.0284 8.68277L15.6267 10.8437C16.2353 10.2143 17.0882 9.822 18.0312 9.822C19.876 9.822 21.3767 11.323 21.3767 13.1681C21.3767 13.8814 21.1573 14.5565 20.7418 15.1291C21.6097 15.5484 22.6239 15.6037 23.5516 15.2533C23.5516 15.2533 23.5516 15.2533 23.5516 15.2533L23.5781 15.3234L4.44381 14.6137ZM4.44381 14.6137C4.29854 14.488 4.08302 14.488 3.93776 14.6137M4.44381 14.6137H3.93776M9.61524 14.6137L9.61526 14.6137C10.263 15.1743 11.0914 15.4829 11.948 15.4829C12.8045 15.4829 13.6331 15.1743 14.2808 14.6137C14.426 14.488 14.6415 14.488 14.7868 14.6137C14.9093 14.7197 15.0383 14.8166 15.1728 14.9042C14.8604 14.3899 14.685 13.7915 14.685 13.1681C14.685 12.5553 14.8508 11.9804 15.1396 11.4859L13.4065 9.14261C13.0629 8.67807 12.495 8.44588 11.9244 8.5361C11.9243 8.5361 11.9243 8.5361 11.9243 8.5361L8.52559 9.07468C8.10803 9.14087 7.81787 9.53537 7.87909 9.95367C7.90962 10.1622 8.02007 10.3449 8.19049 10.4689C8.36102 10.5929 8.56875 10.6416 8.7767 10.6064L11.8539 10.0851L11.8539 10.0851L11.8664 10.159L9.61524 14.6137ZM9.61524 14.6137C9.46989 14.488 9.25444 14.488 9.10916 14.6137C8.46146 15.1743 7.63294 15.4829 6.77638 15.4829C6.54715 15.4829 6.31996 15.4607 6.09769 15.4175C7.51586 14.943 10.3779 13.9866 12.1212 13.412L12.0977 13.3408L12.1212 13.412C12.5872 13.2584 12.9397 12.9013 13.0873 12.4334C13.2349 11.9654 13.151 11.4706 12.8574 11.0774L12.2284 10.235M9.61524 14.6137L12.2284 10.235M12.2284 10.235C12.2284 10.235 12.2283 10.235 12.2283 10.235L12.2284 10.235ZM3.93776 14.6137C2.97859 15.4438 1.63759 15.7019 0.438276 15.2872M3.93776 14.6137C3.93776 14.6137 3.93776 14.6137 3.93776 14.6137L0.438276 15.2872M0.438276 15.2872C0.236173 15.2169 0.0161111 15.3245 -0.0536469 15.5262L0.438276 15.2872ZM24.05 15.4784L24.05 15.4784L0.185386 16.018C1.54211 16.4874 3.0476 16.2488 4.19071 15.4013C4.93615 15.9547 5.84258 16.2562 6.77654 16.2562C7.71043 16.2562 8.6169 15.9548 9.36229 15.4014C10.1077 15.9548 11.0141 16.2562 11.948 16.2562C12.8819 16.2562 13.7884 15.9548 14.5338 15.4014C15.2792 15.9548 16.1856 16.2562 17.1196 16.2562C18.0534 16.2562 18.9598 15.9548 19.7052 15.4015C20.4618 15.9637 21.3701 16.2571 22.2909 16.2571C22.8065 16.2571 23.3259 16.1651 23.8248 15.9767C24.0246 15.9013 24.1254 15.6782 24.05 15.4784ZM9.56618 14.6704C9.44899 14.5691 9.27533 14.5691 9.15825 14.6704H9.56618ZM20.6033 13.1681C20.6033 13.7346 20.4242 14.2691 20.0847 14.718C20.0419 14.6843 19.9998 14.6496 19.9584 14.6137L19.9584 14.6137C19.813 14.488 19.5976 14.488 19.4523 14.6137C18.8046 15.1743 17.9761 15.4829 17.1196 15.4829C17.0435 15.4829 16.9674 15.4797 16.8909 15.4747C16.0185 15.0424 15.4584 14.1447 15.4584 13.1681C15.4584 11.7495 16.6126 10.5953 18.0311 10.5953C19.4494 10.5953 20.6033 11.7495 20.6033 13.1681ZM19.9093 14.6704C19.7921 14.5691 19.6185 14.5691 19.5014 14.6704H19.9093ZM-0.0536563 15.5262C-0.123506 15.728 -0.0164431 15.9482 0.185375 16.018L-0.0536563 15.5262Z" fill="none" stroke="#FFFFFF" stroke-width="0.6"/>
</g>
<defs>
<clipPath id="clip0">
<rect width="24" height="24" fill="white"/>
</clipPath>
</defs>
</svg>
