<svg width="24" height="24" viewBox="0 0 24 24" fill="none" xmlns="http://www.w3.org/2000/svg">
<mask id="path-1-outside-1" maskUnits="userSpaceOnUse" x="-0.25" y="1.25" width="24" height="21" fill="black">
<rect fill="white" x="-0.25" y="1.25" width="24" height="21"/>
<path d="M23.25 14.2555C23.25 14.0608 23.0868 13.9031 22.8855 13.9031H14.6971V12.006L19.8864 10.2126C20.289 10.0735 20.6159 9.77515 20.7832 9.39422C20.9494 9.01583 20.9448 8.58486 20.7705 8.21173C19.8897 6.32635 18.4534 4.76462 16.6169 3.69527C14.7207 2.59121 12.5391 2.10451 10.3079 2.28771C7.79381 2.49422 5.43428 3.5951 3.66393 5.38758C1.89504 7.17856 0.863489 9.5084 0.759251 11.9479C0.640385 14.7301 1.67028 17.3676 3.65965 19.3762C3.74994 19.4757 3.89204 19.519 4.02709 19.4842C5.66579 19.0632 6.50402 19.4545 7.56536 19.95C7.70478 20.0151 7.84892 20.0824 7.9984 20.1496C8.40918 20.3341 8.84742 20.4255 9.28425 20.4255C9.85787 20.4255 10.4292 20.268 10.9329 19.9572C11.8293 19.4042 12.3645 18.4614 12.3645 17.435V16.8633H13.9682V18.7663C13.9682 20.4115 15.3525 21.75 17.054 21.75H21.1074C21.8684 21.75 22.5047 21.2222 22.6204 20.495L23.2458 16.5644C23.246 16.5627 23.2459 16.561 23.2462 16.5594C23.2484 16.5435 23.25 16.5274 23.25 16.5109V14.2555ZM22.5211 14.6079V16.1585H14.6971V14.6079H22.5211ZM13.9682 13.9031H12.4862C12.7144 13.1881 13.2495 12.5867 13.9682 12.2686V13.9031ZM20.1123 9.11873C20.023 9.322 19.8556 9.47476 19.6411 9.5489L13.9407 11.519C12.821 11.9059 11.9996 12.8167 11.7305 13.9031H9.66057C9.79387 12.622 10.6772 11.4991 11.9423 11.0461L19.9519 8.18743C20.0051 8.29118 20.0566 8.39597 20.1061 8.50192C20.1982 8.69904 20.2004 8.91809 20.1123 9.11873ZM11.6356 16.1585H10.0562C9.82842 16.1585 9.64313 15.9793 9.64313 15.7591V14.6079H11.6371C11.6365 14.6323 11.6356 14.6566 11.6356 14.681V16.1585ZM1.48756 11.977C1.58446 9.70876 2.54462 7.54145 4.1911 5.87437C5.8386 4.20631 8.0328 3.18198 10.3695 2.99004C12.4467 2.81947 14.477 3.2721 16.2408 4.29907C17.6343 5.11045 18.78 6.22645 19.6 7.56175L11.6895 10.385C10.0295 10.9794 8.91419 12.5288 8.91419 14.2404V15.759C8.91419 16.3679 9.42649 16.8632 10.0562 16.8632H10.0805V17.435C10.0805 17.919 9.66645 18.2185 9.28284 18.2185C9.1752 18.2185 9.06683 18.1944 8.96079 18.1468C8.82642 18.0864 8.69453 18.0248 8.56702 17.9653L8.55832 17.9612C7.68918 17.5555 6.70409 17.0956 5.31196 17.0956C5.03589 17.0956 4.75049 17.1141 4.46338 17.1507C4.42961 17.155 3.72205 17.2491 3.09856 17.5775C1.96662 15.9354 1.4012 13.9973 1.48756 11.977ZM11.6356 17.435C11.6356 18.2194 11.2263 18.9402 10.5408 19.363C9.86448 19.7802 9.02892 19.8354 8.30557 19.5104C8.161 19.4454 8.01929 19.3793 7.88225 19.3153C7.10195 18.9511 6.3525 18.6011 5.30681 18.6011C4.93199 18.6011 4.51883 18.6461 4.05289 18.7516C3.86896 18.5585 3.69484 18.3591 3.52966 18.1546C4.01061 17.9236 4.55314 17.8502 4.55892 17.8495C4.81429 17.8169 5.06767 17.8005 5.31201 17.8005C6.53736 17.8005 7.44265 18.2231 8.24138 18.596L8.25003 18.6C8.37997 18.6607 8.51434 18.7235 8.65367 18.786C8.8566 18.8772 9.06829 18.9234 9.28284 18.9234C10.017 18.9234 10.8094 18.3544 10.8094 17.435V16.8633H11.6356V17.435ZM12.3645 16.1585V14.681C12.3645 14.6565 12.3653 14.6322 12.366 14.6079H13.9682V16.1585H12.3645ZM22.4607 16.8633L22.214 18.4139H14.6971V16.8633H22.4607ZM21.1074 21.0452H17.054C15.8783 21.0452 14.9011 20.2085 14.7254 19.1187H22.1018L21.8999 20.3878C21.8393 20.7687 21.506 21.0452 21.1074 21.0452Z"/>
<path d="M5.97375 16.1113C6.92501 16.1113 7.6989 15.363 7.6989 14.4432C7.6989 13.5234 6.92501 12.7752 5.97375 12.7752C5.02248 12.7752 4.24859 13.5234 4.24859 14.4432C4.24859 15.363 5.02248 16.1113 5.97375 16.1113ZM5.97375 13.48C6.52308 13.48 6.96997 13.9121 6.96997 14.4432C6.96997 14.9744 6.52308 15.4065 5.97375 15.4065C5.42442 15.4065 4.97753 14.9744 4.97753 14.4432C4.97753 13.9121 5.42442 13.48 5.97375 13.48Z"/>
</mask>
<path d="M23.25 14.2555C23.25 14.0608 23.0868 13.9031 22.8855 13.9031H14.6971V12.006L19.8864 10.2126C20.289 10.0735 20.6159 9.77515 20.7832 9.39422C20.9494 9.01583 20.9448 8.58486 20.7705 8.21173C19.8897 6.32635 18.4534 4.76462 16.6169 3.69527C14.7207 2.59121 12.5391 2.10451 10.3079 2.28771C7.79381 2.49422 5.43428 3.5951 3.66393 5.38758C1.89504 7.17856 0.863489 9.5084 0.759251 11.9479C0.640385 14.7301 1.67028 17.3676 3.65965 19.3762C3.74994 19.4757 3.89204 19.519 4.02709 19.4842C5.66579 19.0632 6.50402 19.4545 7.56536 19.95C7.70478 20.0151 7.84892 20.0824 7.9984 20.1496C8.40918 20.3341 8.84742 20.4255 9.28425 20.4255C9.85787 20.4255 10.4292 20.268 10.9329 19.9572C11.8293 19.4042 12.3645 18.4614 12.3645 17.435V16.8633H13.9682V18.7663C13.9682 20.4115 15.3525 21.75 17.054 21.75H21.1074C21.8684 21.75 22.5047 21.2222 22.6204 20.495L23.2458 16.5644C23.246 16.5627 23.2459 16.561 23.2462 16.5594C23.2484 16.5435 23.25 16.5274 23.25 16.5109V14.2555ZM22.5211 14.6079V16.1585H14.6971V14.6079H22.5211ZM13.9682 13.9031H12.4862C12.7144 13.1881 13.2495 12.5867 13.9682 12.2686V13.9031ZM20.1123 9.11873C20.023 9.322 19.8556 9.47476 19.6411 9.5489L13.9407 11.519C12.821 11.9059 11.9996 12.8167 11.7305 13.9031H9.66057C9.79387 12.622 10.6772 11.4991 11.9423 11.0461L19.9519 8.18743C20.0051 8.29118 20.0566 8.39597 20.1061 8.50192C20.1982 8.69904 20.2004 8.91809 20.1123 9.11873ZM11.6356 16.1585H10.0562C9.82842 16.1585 9.64313 15.9793 9.64313 15.7591V14.6079H11.6371C11.6365 14.6323 11.6356 14.6566 11.6356 14.681V16.1585ZM1.48756 11.977C1.58446 9.70876 2.54462 7.54145 4.1911 5.87437C5.8386 4.20631 8.0328 3.18198 10.3695 2.99004C12.4467 2.81947 14.477 3.2721 16.2408 4.29907C17.6343 5.11045 18.78 6.22645 19.6 7.56175L11.6895 10.385C10.0295 10.9794 8.91419 12.5288 8.91419 14.2404V15.759C8.91419 16.3679 9.42649 16.8632 10.0562 16.8632H10.0805V17.435C10.0805 17.919 9.66645 18.2185 9.28284 18.2185C9.1752 18.2185 9.06683 18.1944 8.96079 18.1468C8.82642 18.0864 8.69453 18.0248 8.56702 17.9653L8.55832 17.9612C7.68918 17.5555 6.70409 17.0956 5.31196 17.0956C5.03589 17.0956 4.75049 17.1141 4.46338 17.1507C4.42961 17.155 3.72205 17.2491 3.09856 17.5775C1.96662 15.9354 1.4012 13.9973 1.48756 11.977ZM11.6356 17.435C11.6356 18.2194 11.2263 18.9402 10.5408 19.363C9.86448 19.7802 9.02892 19.8354 8.30557 19.5104C8.161 19.4454 8.01929 19.3793 7.88225 19.3153C7.10195 18.9511 6.3525 18.6011 5.30681 18.6011C4.93199 18.6011 4.51883 18.6461 4.05289 18.7516C3.86896 18.5585 3.69484 18.3591 3.52966 18.1546C4.01061 17.9236 4.55314 17.8502 4.55892 17.8495C4.81429 17.8169 5.06767 17.8005 5.31201 17.8005C6.53736 17.8005 7.44265 18.2231 8.24138 18.596L8.25003 18.6C8.37997 18.6607 8.51434 18.7235 8.65367 18.786C8.8566 18.8772 9.06829 18.9234 9.28284 18.9234C10.017 18.9234 10.8094 18.3544 10.8094 17.435V16.8633H11.6356V17.435ZM12.3645 16.1585V14.681C12.3645 14.6565 12.3653 14.6322 12.366 14.6079H13.9682V16.1585H12.3645ZM22.4607 16.8633L22.214 18.4139H14.6971V16.8633H22.4607ZM21.1074 21.0452H17.054C15.8783 21.0452 14.9011 20.2085 14.7254 19.1187H22.1018L21.8999 20.3878C21.8393 20.7687 21.506 21.0452 21.1074 21.0452Z" fill="#FFFFFF"/>
<path d="M5.97375 16.1113C6.92501 16.1113 7.6989 15.363 7.6989 14.4432C7.6989 13.5234 6.92501 12.7752 5.97375 12.7752C5.02248 12.7752 4.24859 13.5234 4.24859 14.4432C4.24859 15.363 5.02248 16.1113 5.97375 16.1113ZM5.97375 13.48C6.52308 13.48 6.96997 13.9121 6.96997 14.4432C6.96997 14.9744 6.52308 15.4065 5.97375 15.4065C5.42442 15.4065 4.97753 14.9744 4.97753 14.4432C4.97753 13.9121 5.42442 13.48 5.97375 13.48Z" fill="#FFFFFF"/>
<path d="M23.25 14.2555C23.25 14.0608 23.0868 13.9031 22.8855 13.9031H14.6971V12.006L19.8864 10.2126C20.289 10.0735 20.6159 9.77515 20.7832 9.39422C20.9494 9.01583 20.9448 8.58486 20.7705 8.21173C19.8897 6.32635 18.4534 4.76462 16.6169 3.69527C14.7207 2.59121 12.5391 2.10451 10.3079 2.28771C7.79381 2.49422 5.43428 3.5951 3.66393 5.38758C1.89504 7.17856 0.863489 9.5084 0.759251 11.9479C0.640385 14.7301 1.67028 17.3676 3.65965 19.3762C3.74994 19.4757 3.89204 19.519 4.02709 19.4842C5.66579 19.0632 6.50402 19.4545 7.56536 19.95C7.70478 20.0151 7.84892 20.0824 7.9984 20.1496C8.40918 20.3341 8.84742 20.4255 9.28425 20.4255C9.85787 20.4255 10.4292 20.268 10.9329 19.9572C11.8293 19.4042 12.3645 18.4614 12.3645 17.435V16.8633H13.9682V18.7663C13.9682 20.4115 15.3525 21.75 17.054 21.75H21.1074C21.8684 21.75 22.5047 21.2222 22.6204 20.495L23.2458 16.5644C23.246 16.5627 23.2459 16.561 23.2462 16.5594C23.2484 16.5435 23.25 16.5274 23.25 16.5109V14.2555ZM22.5211 14.6079V16.1585H14.6971V14.6079H22.5211ZM13.9682 13.9031H12.4862C12.7144 13.1881 13.2495 12.5867 13.9682 12.2686V13.9031ZM20.1123 9.11873C20.023 9.322 19.8556 9.47476 19.6411 9.5489L13.9407 11.519C12.821 11.9059 11.9996 12.8167 11.7305 13.9031H9.66057C9.79387 12.622 10.6772 11.4991 11.9423 11.0461L19.9519 8.18743C20.0051 8.29118 20.0566 8.39597 20.1061 8.50192C20.1982 8.69904 20.2004 8.91809 20.1123 9.11873ZM11.6356 16.1585H10.0562C9.82842 16.1585 9.64313 15.9793 9.64313 15.7591V14.6079H11.6371C11.6365 14.6323 11.6356 14.6566 11.6356 14.681V16.1585ZM1.48756 11.977C1.58446 9.70876 2.54462 7.54145 4.1911 5.87437C5.8386 4.20631 8.0328 3.18198 10.3695 2.99004C12.4467 2.81947 14.477 3.2721 16.2408 4.29907C17.6343 5.11045 18.78 6.22645 19.6 7.56175L11.6895 10.385C10.0295 10.9794 8.91419 12.5288 8.91419 14.2404V15.759C8.91419 16.3679 9.42649 16.8632 10.0562 16.8632H10.0805V17.435C10.0805 17.919 9.66645 18.2185 9.28284 18.2185C9.1752 18.2185 9.06683 18.1944 8.96079 18.1468C8.82642 18.0864 8.69453 18.0248 8.56702 17.9653L8.55832 17.9612C7.68918 17.5555 6.70409 17.0956 5.31196 17.0956C5.03589 17.0956 4.75049 17.1141 4.46338 17.1507C4.42961 17.155 3.72205 17.2491 3.09856 17.5775C1.96662 15.9354 1.4012 13.9973 1.48756 11.977ZM11.6356 17.435C11.6356 18.2194 11.2263 18.9402 10.5408 19.363C9.86448 19.7802 9.02892 19.8354 8.30557 19.5104C8.161 19.4454 8.01929 19.3793 7.88225 19.3153C7.10195 18.9511 6.3525 18.6011 5.30681 18.6011C4.93199 18.6011 4.51883 18.6461 4.05289 18.7516C3.86896 18.5585 3.69484 18.3591 3.52966 18.1546C4.01061 17.9236 4.55314 17.8502 4.55892 17.8495C4.81429 17.8169 5.06767 17.8005 5.31201 17.8005C6.53736 17.8005 7.44265 18.2231 8.24138 18.596L8.25003 18.6C8.37997 18.6607 8.51434 18.7235 8.65367 18.786C8.8566 18.8772 9.06829 18.9234 9.28284 18.9234C10.017 18.9234 10.8094 18.3544 10.8094 17.435V16.8633H11.6356V17.435ZM12.3645 16.1585V14.681C12.3645 14.6565 12.3653 14.6322 12.366 14.6079H13.9682V16.1585H12.3645ZM22.4607 16.8633L22.214 18.4139H14.6971V16.8633H22.4607ZM21.1074 21.0452H17.054C15.8783 21.0452 14.9011 20.2085 14.7254 19.1187H22.1018L21.8999 20.3878C21.8393 20.7687 21.506 21.0452 21.1074 21.0452Z" stroke="#FFFFFF" stroke-width="0.2" mask="url(#path-1-outside-1)"/>
<path d="M5.97375 16.1113C6.92501 16.1113 7.6989 15.363 7.6989 14.4432C7.6989 13.5234 6.92501 12.7752 5.97375 12.7752C5.02248 12.7752 4.24859 13.5234 4.24859 14.4432C4.24859 15.363 5.02248 16.1113 5.97375 16.1113ZM5.97375 13.48C6.52308 13.48 6.96997 13.9121 6.96997 14.4432C6.96997 14.9744 6.52308 15.4065 5.97375 15.4065C5.42442 15.4065 4.97753 14.9744 4.97753 14.4432C4.97753 13.9121 5.42442 13.48 5.97375 13.48Z" stroke="#FFFFFF" stroke-width="0.2" mask="url(#path-1-outside-1)"/>
</svg>
