<svg width="24" height="24" viewBox="0 0 24 24" fill="none" xmlns="http://www.w3.org/2000/svg">
<path d="M22.2064 12.262L18.0802 11.7462C17.4266 11.6645 16.7999 11.4668 16.2176 11.1585L10.1192 7.92999C9.55895 7.59254 8.63704 6.89084 7.72017 5.92654C7.64413 5.84655 7.5375 5.8028 7.4273 5.80581C7.31694 5.80902 7.21311 5.85889 7.14179 5.94312C6.74068 6.41664 6.22787 7.56823 7.15817 8.5373C7.16765 8.5471 7.52957 8.90912 8.2333 9.61253L7.62682 10.3056C7.13147 10.8718 6.41588 11.1965 5.66359 11.1965C4.82291 11.1965 4.02936 10.7881 3.5407 10.104L2.70858 8.93908C2.41996 8.53497 1.95115 8.29372 1.45451 8.29372C0.65251 8.29372 0 8.94623 0 9.74824V14.4881C0 15.7135 0.899871 16.7323 2.07343 16.9193V17.3909C2.07343 17.834 2.43385 18.1944 2.87689 18.1944H3.70626C4.1493 18.1944 4.50972 17.834 4.50972 17.3909V16.9503H5.39093V17.3909C5.39093 17.834 5.75134 18.1944 6.19438 18.1944H7.02376C7.4668 18.1944 7.82721 17.834 7.82721 17.3909V16.9503H12.8553V17.3909C12.8553 17.834 13.2157 18.1944 13.6587 18.1944H14.4881C14.9312 18.1944 15.2916 17.834 15.2916 17.3909V16.9503H16.1728V17.3909C16.1728 17.834 16.5332 18.1944 16.9762 18.1944H17.8056C18.2487 18.1944 18.6091 17.834 18.6091 17.3909V16.9503H19.4903V17.3909C19.4903 17.834 19.8507 18.1944 20.2937 18.1944H21.1231C21.5662 18.1944 21.9266 17.834 21.9266 17.3909V16.9503H22.3672C23.2675 16.9503 24 16.2178 24 15.3175V14.2937C24 13.2632 23.2289 12.3897 22.2064 12.262ZM7.71888 7.99857C7.31793 7.58082 7.3821 7.13146 7.51107 6.82267C8.17923 7.48 8.83169 8.00106 9.33833 8.3496L8.74642 9.02611C8.34899 8.62879 7.74148 8.02138 7.71888 7.99857ZM0.777538 9.74824C0.777538 9.37497 1.08124 9.07126 1.45457 9.07126C1.70058 9.07126 1.93291 9.19079 2.07587 9.39098L2.90799 10.556C3.54225 11.4439 4.57234 11.9741 5.66359 11.9741C6.64012 11.9741 7.56902 11.5526 8.21204 10.8177L10.0166 8.75532L11.2035 9.38373L10.7262 10.0997C10.6071 10.2783 10.6554 10.5197 10.8341 10.6388C10.9003 10.683 10.9753 10.7041 11.0493 10.7041C11.175 10.7041 11.2982 10.6433 11.3731 10.531L11.8942 9.74938L12.541 10.0918L12.0481 10.8311C11.9289 11.0098 11.9772 11.2512 12.1559 11.3702C12.2221 11.4144 12.2971 11.4356 12.3711 11.4356C12.4968 11.4356 12.6201 11.3748 12.695 11.2624L13.2306 10.459L13.2315 10.4574L13.8784 10.7998L13.3699 11.5625C13.2507 11.7412 13.2991 11.9826 13.4777 12.1016C13.5439 12.1459 13.6189 12.167 13.693 12.167C13.8186 12.167 13.9419 12.1062 14.0168 11.9938L14.569 11.1654L15.2157 11.5078L14.6916 12.294C14.5725 12.4727 14.6208 12.714 14.7994 12.8331C14.8657 12.8773 14.9406 12.8985 15.0147 12.8985C15.1404 12.8985 15.2636 12.8377 15.3385 12.7253L15.9068 11.8729C16.5576 12.2096 17.2559 12.4267 17.9838 12.5176L22.11 13.0334C22.7442 13.1127 23.2225 13.6545 23.2225 14.2937V14.514H0.803456C0.794955 14.514 0.786609 14.5147 0.778212 14.5153C0.778056 14.5062 0.777538 14.4972 0.777538 14.4881V9.74824ZM3.73218 17.3909C3.73218 17.4052 3.72052 17.4168 3.70626 17.4168H2.87689C2.86263 17.4168 2.85097 17.4052 2.85097 17.3909V16.9503H3.73218V17.3909ZM7.04968 17.3909C7.04968 17.4052 7.03801 17.4168 7.02376 17.4168H6.19438C6.18013 17.4168 6.16847 17.4052 6.16847 17.3909V16.9503H7.04968V17.3909ZM14.514 17.3909C14.514 17.4052 14.5024 17.4168 14.4881 17.4168H13.6587C13.6445 17.4168 13.6328 17.4052 13.6328 17.3909V16.9503H14.514V17.3909ZM17.8315 17.3909C17.8315 17.4052 17.8199 17.4168 17.8056 17.4168H16.9762C16.962 17.4168 16.9503 17.4052 16.9503 17.3909V16.9503H17.8315V17.3909ZM21.149 17.3909C21.149 17.4052 21.1374 17.4168 21.1231 17.4168H20.2937C20.2795 17.4168 20.2678 17.4052 20.2678 17.3909V16.9503H21.149V17.3909ZM22.3672 16.1728H2.4622C1.824 16.1728 1.26759 15.816 0.981823 15.2916H23.2225V15.3175C23.2225 15.7891 22.8388 16.1728 22.3672 16.1728Z" fill="#FFFFFF"/>
</svg>
