<svg width="32" height="32" viewBox="0 0 32 32" fill="none" xmlns="http://www.w3.org/2000/svg"> <path d="M19.1296 0.251768C17.9483 0.251768 16.8214 0.708101 15.9752 1.51612C15.1291 0.708101 14.0021 0.251768 12.8212 0.251768C10.3015 0.251768 8.25177 2.30148 8.25177 4.82119C8.25177 5.37929 8.35138 5.92408 8.54772 6.44154C8.55059 6.44945 8.55419 6.45772 8.55779 6.46635C8.55779 6.46635 8.55779 6.46636 8.55779 6.46671L8.5585 6.46851C8.55922 6.47067 8.5603 6.47283 8.56102 6.47498C8.56282 6.47894 8.56426 6.4829 8.56642 6.48757C8.56642 6.48757 8.56642 6.48757 8.56642 6.48793C8.68077 6.7828 8.8282 7.06724 9.00405 7.33442C9.00405 7.33442 9.00405 7.33479 9.00441 7.33479C9.8171 8.73866 11.7694 11.481 15.7465 14.1567C15.748 14.1575 15.7487 14.1582 15.7498 14.1589C15.7505 14.1592 15.7512 14.1596 15.7516 14.1603C15.7534 14.161 15.7544 14.1618 15.7559 14.1625C15.7699 14.1718 15.7839 14.1801 15.799 14.1869C15.8048 14.1898 15.8105 14.1923 15.8163 14.1945C15.8271 14.1992 15.8382 14.2035 15.849 14.2071C15.8562 14.2092 15.863 14.2118 15.8702 14.2136C15.881 14.2164 15.8922 14.2189 15.903 14.2211C15.9098 14.2222 15.9163 14.224 15.9231 14.2247C15.9393 14.2269 15.9555 14.2283 15.972 14.2283C15.9731 14.2283 15.9745 14.2287 15.9756 14.2287C15.976 14.2287 15.976 14.2287 15.976 14.2287C15.9763 14.2287 15.9763 14.2287 15.9767 14.2287C15.9777 14.2287 15.9788 14.2283 15.9803 14.2283C15.9964 14.2283 16.0126 14.2269 16.0292 14.2247C16.0356 14.224 16.0421 14.2222 16.0489 14.2211C16.0601 14.2189 16.0712 14.2168 16.082 14.2136C16.0892 14.2118 16.0957 14.2092 16.1029 14.2071C16.114 14.2031 16.1255 14.1992 16.1363 14.1945C16.1421 14.1916 16.1475 14.1895 16.1532 14.1869C16.168 14.1794 16.1824 14.1715 16.1964 14.1625C16.1978 14.1618 16.1993 14.161 16.2007 14.1603C16.2011 14.1596 16.2018 14.1592 16.2025 14.1589C16.2036 14.1582 16.2047 14.1575 16.2057 14.1567C20.1829 11.4813 22.1348 8.73902 22.9475 7.33479C22.9479 7.33479 22.9479 7.33442 22.9479 7.33442C23.1241 7.0676 23.2711 6.7828 23.3858 6.48793C23.3891 6.4811 23.392 6.47463 23.3941 6.46815C23.3981 6.45916 23.4017 6.45017 23.4049 6.44154C23.6012 5.92444 23.7005 5.37965 23.7005 4.82191C23.6987 2.30184 21.6493 0.251768 19.1296 0.251768ZM15.9752 13.3422C12.2703 10.7988 10.4529 8.23881 9.69304 6.9234C9.69196 6.9216 9.69088 6.91945 9.68944 6.91729C9.68801 6.91441 9.6862 6.91154 9.68441 6.90902C9.48015 6.55338 9.36149 6.30238 9.30719 6.18047C9.30539 6.17544 9.30323 6.17112 9.30108 6.16645C9.30108 6.16609 9.30108 6.16609 9.30108 6.16573V6.16537L9.2964 6.15422C9.1353 5.72918 9.05367 5.28076 9.05367 4.82119C9.05367 2.74379 10.7438 1.05367 12.8216 1.05367C13.9169 1.05367 14.9561 1.52942 15.6728 2.35865C15.6742 2.36081 15.6768 2.36261 15.6782 2.36441C15.6832 2.3698 15.6875 2.37448 15.6929 2.37952C15.698 2.38455 15.703 2.38958 15.7084 2.39462C15.7106 2.39641 15.7124 2.39821 15.7142 2.40001C15.7167 2.40217 15.7196 2.40397 15.7217 2.40612C15.7282 2.41116 15.7339 2.41584 15.7404 2.42051C15.7451 2.42411 15.7494 2.42734 15.7544 2.43022C15.7609 2.43453 15.767 2.43813 15.7735 2.44209C15.7789 2.44496 15.7839 2.4482 15.7893 2.45107C15.7958 2.45431 15.8012 2.45719 15.8077 2.46007C15.8138 2.46294 15.8199 2.46546 15.826 2.46797C15.8317 2.47013 15.8371 2.47229 15.8429 2.47445C15.8501 2.47696 15.8566 2.47912 15.8638 2.48128C15.8691 2.48272 15.8745 2.48416 15.8799 2.4856C15.8871 2.4874 15.8943 2.48919 15.9015 2.49027C15.9069 2.49135 15.9123 2.49243 15.9177 2.49315C15.9252 2.49423 15.9324 2.49495 15.9396 2.49567C15.9457 2.49603 15.9508 2.49638 15.9569 2.49674C15.9641 2.4971 15.9709 2.4971 15.9777 2.4971C15.9839 2.4971 15.99 2.4971 15.9961 2.49674C16.0029 2.49674 16.009 2.49602 16.0159 2.4953C16.0227 2.49494 16.0284 2.49387 16.0349 2.49315C16.0414 2.49243 16.0475 2.49135 16.054 2.48991C16.0605 2.48847 16.0666 2.4874 16.073 2.4856C16.0795 2.4838 16.0853 2.48236 16.0917 2.48056C16.0982 2.47876 16.104 2.47697 16.1101 2.47481C16.1166 2.47229 16.1227 2.47013 16.1291 2.46762C16.1349 2.46546 16.1403 2.46294 16.146 2.46042C16.1525 2.45719 16.159 2.45395 16.1655 2.45072C16.1705 2.44784 16.1752 2.44532 16.1802 2.44244C16.187 2.43849 16.1935 2.43453 16.2003 2.42986C16.205 2.42698 16.209 2.42375 16.2136 2.42051C16.2201 2.41584 16.2262 2.41116 16.2323 2.40612C16.2349 2.40397 16.2377 2.40217 16.2399 2.40001C16.242 2.39821 16.2438 2.39606 16.246 2.39426C16.2514 2.38959 16.2561 2.38491 16.2611 2.37987C16.2665 2.37448 16.2712 2.36945 16.2762 2.36405C16.278 2.36226 16.2798 2.36045 16.2813 2.35865C16.9979 1.52942 18.0375 1.05367 19.1329 1.05367C21.2103 1.05367 22.9004 2.74379 22.9004 4.82155C22.9004 5.28148 22.8184 5.7299 22.6573 6.15566V6.15602C22.6566 6.1571 22.6562 6.15854 22.6555 6.15962C22.6555 6.16034 22.6551 6.16106 22.6548 6.16142C22.6548 6.16178 22.6544 6.16213 22.6544 6.16249C22.6548 6.16069 22.6555 6.1589 22.6566 6.15638L22.6559 6.15818L22.6526 6.16573C22.6505 6.17112 22.6479 6.17616 22.6458 6.18119C22.5915 6.30381 22.4728 6.55482 22.2689 6.90902C22.2668 6.91226 22.2646 6.91549 22.2628 6.91873C22.2617 6.92017 22.261 6.9216 22.2599 6.9234C21.4976 8.23881 19.6802 10.7988 15.9752 13.3422Z" fill="#ffffff"></path> <path fill-rule="evenodd" clip-rule="evenodd" d="M8.56078 6.47474C8.56042 6.47366 8.55997 6.47258 8.55952 6.4715C8.55907 6.47042 8.55862 6.46934 8.55826 6.46826L8.55779 6.46635L8.55754 6.46611C8.55678 6.46429 8.55603 6.4625 8.55528 6.46071C8.55246 6.45402 8.54974 6.44754 8.54747 6.44129C8.35113 5.92383 8.25152 5.37904 8.25152 4.82094C8.25152 2.30124 10.3012 0.251522 12.8209 0.251522C14.0019 0.251522 15.1288 0.707855 15.975 1.51587C16.8211 0.707855 17.9481 0.251522 19.1294 0.251522C21.6491 0.251522 23.6984 2.30159 23.7002 4.82166C23.7002 5.3794 23.601 5.92419 23.4047 6.44129C23.4014 6.44992 23.3978 6.45892 23.3939 6.46791C23.3917 6.47438 23.3888 6.48085 23.3856 6.48768C23.2709 6.78255 23.1238 7.06736 22.9476 7.33418C22.9476 7.33418 22.9476 7.33454 22.9472 7.33454C22.1346 8.73877 20.1826 11.4811 16.2055 14.1565L16.2022 14.1586C16.2015 14.159 16.2008 14.1594 16.2005 14.1601L16.1961 14.1622C16.1821 14.1712 16.1677 14.1791 16.153 14.1867C16.1472 14.1892 16.1418 14.1914 16.1361 14.1942C16.1265 14.1984 16.1164 14.202 16.1065 14.2055L16.1026 14.2068C16.0999 14.2077 16.0972 14.2085 16.0946 14.2094C16.0904 14.2108 16.0862 14.2122 16.0818 14.2133C16.071 14.2165 16.0601 14.2189 16.0489 14.2211C16.0421 14.2222 16.0354 14.2237 16.0289 14.2245C16.0124 14.2266 15.9962 14.228 15.98 14.228C15.9792 14.228 15.9786 14.2281 15.978 14.2282C15.9774 14.2283 15.9769 14.2284 15.9764 14.2284H15.9753C15.9743 14.2284 15.9728 14.228 15.9717 14.228C15.9552 14.228 15.939 14.2266 15.9228 14.2245C15.9188 14.224 15.9149 14.2232 15.9109 14.2224C15.9082 14.2219 15.9055 14.2213 15.9027 14.2209C15.8919 14.2187 15.8808 14.2162 15.87 14.2133C15.8654 14.2122 15.861 14.2107 15.8565 14.2093C15.8539 14.2084 15.8514 14.2076 15.8488 14.2068C15.838 14.2032 15.8268 14.1989 15.816 14.1942C15.8103 14.1921 15.8045 14.1896 15.7988 14.1867C15.7837 14.1799 15.7697 14.1716 15.7556 14.1622C15.7552 14.162 15.7547 14.1618 15.7543 14.1615C15.7534 14.161 15.7525 14.1606 15.7513 14.1601C15.7509 14.1594 15.7502 14.159 15.7495 14.1586C15.7492 14.1584 15.7488 14.1582 15.7485 14.1579C15.7479 14.1574 15.7472 14.157 15.7463 14.1565C11.7691 11.4807 9.81674 8.7383 9.00405 7.33442C9.00369 7.33442 9.0038 7.33418 9.0038 7.33418C8.83802 7.08228 8.69749 6.81504 8.58612 6.53819C8.57936 6.52139 8.57296 6.50444 8.56642 6.48757L8.56617 6.48733C8.56501 6.4848 8.56405 6.48249 8.56314 6.48027C8.56236 6.47838 8.5616 6.47656 8.56078 6.47474ZM8.30602 6.51385C8.10295 5.97266 8 5.40333 8 4.82094C8 2.16232 10.1623 0 12.8209 0C13.9877 0 15.1047 0.422262 15.975 1.17598C16.8453 0.422256 17.9623 0 19.1294 0C21.7881 0 23.9499 2.16274 23.9518 4.82148C23.9518 5.40924 23.8471 5.98436 23.64 6.53018C23.6364 6.53963 23.6324 6.54987 23.6278 6.56058C23.624 6.57071 23.6202 6.57955 23.6171 6.58642C23.4969 6.89362 23.3436 7.19025 23.1604 7.46844C23.1604 7.46845 23.1604 7.46843 23.1604 7.46844C22.3318 8.89778 20.3677 11.6477 16.396 14.3314L16.3879 14.3476L16.3191 14.382C16.3006 14.3932 16.283 14.4027 16.2676 14.4106L16.2608 14.4141L16.2538 14.4171L16.2477 14.4198L16.2461 14.4205L16.2424 14.4223L16.2361 14.425C16.2177 14.433 16.1986 14.4397 16.1896 14.4429C16.1885 14.4433 16.1875 14.4436 16.1868 14.4439L16.1809 14.446L16.1757 14.4475L16.1708 14.4491C16.1668 14.4505 16.1588 14.4531 16.1489 14.4557C16.1275 14.4618 16.1077 14.4656 16.0984 14.4674L16.0965 14.4678L16.0922 14.4686L16.091 14.4688L16.0894 14.4691C16.0871 14.4696 16.0827 14.4705 16.0775 14.4714C16.0731 14.4722 16.0673 14.4731 16.0605 14.474C16.041 14.4765 16.018 14.4788 15.9926 14.4794C15.9879 14.4797 15.9825 14.4799 15.9764 14.4799H15.9755C15.9692 14.4799 15.9636 14.4797 15.9592 14.4794C15.9342 14.4788 15.9115 14.4766 15.8919 14.4741C15.8782 14.4724 15.8672 14.4702 15.863 14.4693L15.8606 14.4688L15.8584 14.4685L15.8534 14.4675C15.8388 14.4646 15.8227 14.461 15.806 14.4566C15.7956 14.4539 15.7871 14.4512 15.7826 14.4497L15.7792 14.4486L15.7771 14.4479C15.7766 14.4478 15.7764 14.4477 15.7762 14.4477L15.7728 14.4466L15.7692 14.4454C15.7526 14.4399 15.7364 14.4337 15.7212 14.4272C15.7108 14.4231 15.7006 14.4187 15.6908 14.4139C15.6715 14.4049 15.6541 14.3953 15.6387 14.3859L15.5691 14.3581L15.5557 14.3314C11.5841 11.6474 9.61969 8.89748 8.79109 7.46851C8.79101 7.46837 8.79092 7.46824 8.79084 7.46811C8.60697 7.18808 8.45241 6.88971 8.33214 6.57985C8.33163 6.57863 8.33122 6.57764 8.33093 6.57694L8.33079 6.5766L8.32634 6.5668L8.32433 6.56077C8.32406 6.56009 8.32378 6.55935 8.32348 6.55856L8.32179 6.55436C8.31937 6.54854 8.31613 6.54063 8.31314 6.53276L8.30602 6.51498V6.51385ZM9.69279 6.92316C10.4526 8.23857 12.27 10.7986 15.975 13.342C19.6799 10.7986 21.4973 8.23857 22.2597 6.92316C22.2608 6.92136 22.2615 6.91992 22.2626 6.91848C22.2644 6.91524 22.2665 6.91201 22.2687 6.90877C22.4698 6.55943 22.588 6.31048 22.6433 6.18607C22.644 6.18434 22.6448 6.18263 22.6455 6.18095C22.6464 6.17889 22.6474 6.17684 22.6483 6.17477C22.6497 6.17175 22.6511 6.16868 22.6524 6.16548L22.6542 6.16117L22.655 6.15937C22.655 6.15941 22.655 6.15933 22.655 6.15937C22.6548 6.15997 22.6544 6.16062 22.6542 6.16117C22.6542 6.1612 22.6542 6.16114 22.6542 6.16117C22.6544 6.16062 22.6548 6.15997 22.655 6.15937C22.6553 6.15897 22.6557 6.15864 22.6559 6.15818C22.6559 6.15818 22.6559 6.15818 22.6559 6.15818C22.6559 6.15802 22.6561 6.15774 22.6561 6.15757C22.6563 6.15714 22.6564 6.15678 22.6566 6.15638C22.6566 6.15637 22.6566 6.15638 22.6566 6.15638C22.6567 6.1562 22.6572 6.15583 22.6573 6.15566L22.657 6.15541C22.6573 6.15463 22.6576 6.15384 22.6579 6.15305C22.8185 5.72799 22.9001 5.28038 22.9001 4.82131C22.9001 2.74354 21.21 1.05343 19.1326 1.05343C18.0373 1.05343 16.9977 1.52917 16.281 2.35841C16.2796 2.36021 16.2778 2.36201 16.276 2.36381L16.2751 2.36475C16.2704 2.36979 16.2659 2.37455 16.2609 2.37963C16.2558 2.38466 16.2512 2.38934 16.2458 2.39401C16.2447 2.39491 16.2437 2.3959 16.2427 2.39689C16.2417 2.39788 16.2407 2.39887 16.2396 2.39976C16.2384 2.40103 16.2369 2.40218 16.2353 2.40335C16.2342 2.40416 16.2331 2.40499 16.2321 2.40588C16.226 2.41091 16.2199 2.41559 16.2134 2.42026C16.2116 2.42147 16.21 2.42268 16.2084 2.42387C16.2057 2.42587 16.203 2.42781 16.2001 2.42961C16.1933 2.43429 16.1868 2.43824 16.18 2.4422C16.1749 2.44507 16.1702 2.44759 16.1652 2.45047L16.1458 2.46018C16.1444 2.46077 16.1431 2.46137 16.1418 2.46196C16.1375 2.46387 16.1333 2.46572 16.1289 2.46737C16.1257 2.46863 16.1225 2.4698 16.1194 2.47097C16.1162 2.47214 16.1131 2.4733 16.1098 2.47456C16.1037 2.47672 16.098 2.47852 16.0915 2.48031C16.0883 2.48121 16.0852 2.48202 16.0821 2.48283C16.0791 2.48364 16.076 2.48445 16.0728 2.48535C16.0683 2.4866 16.064 2.4875 16.0596 2.48841C16.0577 2.48881 16.0557 2.48922 16.0537 2.48966C16.0473 2.4911 16.0411 2.49218 16.0347 2.4929C16.0324 2.49315 16.0303 2.49344 16.0281 2.49373C16.0241 2.49428 16.0201 2.49482 16.0156 2.49506L16.0138 2.49525C16.0077 2.4959 16.0021 2.4965 15.9958 2.4965C15.9897 2.49686 15.9836 2.49686 15.9775 2.49686C15.9707 2.49686 15.9638 2.49686 15.9566 2.4965L15.9394 2.49542C15.9322 2.4947 15.925 2.49398 15.9174 2.4929C15.9121 2.49218 15.9067 2.49111 15.9013 2.49003C15.8941 2.48895 15.8869 2.48715 15.8797 2.48535L15.8635 2.48103C15.8563 2.47888 15.8498 2.47672 15.8426 2.4742C15.8398 2.47312 15.837 2.47205 15.8342 2.47097C15.8314 2.46989 15.8286 2.46881 15.8257 2.46773C15.8197 2.46524 15.8135 2.46267 15.8074 2.45982C15.8026 2.45769 15.7984 2.45555 15.7939 2.45327C15.7923 2.45247 15.7907 2.45166 15.7891 2.45083C15.7864 2.44939 15.7838 2.44786 15.7812 2.44633C15.7786 2.44481 15.7759 2.44328 15.7732 2.44184C15.7718 2.44097 15.7704 2.44011 15.769 2.43927C15.7641 2.43626 15.7592 2.43334 15.7542 2.42997C15.7492 2.42709 15.7448 2.42386 15.7402 2.42026C15.7355 2.41687 15.7311 2.41347 15.7267 2.40994C15.725 2.40861 15.7232 2.40726 15.7215 2.40588C15.7202 2.40461 15.7187 2.40347 15.7171 2.4023C15.7161 2.40148 15.7149 2.40066 15.7139 2.39976C15.7121 2.39797 15.7103 2.39617 15.7082 2.39437C15.7028 2.38934 15.6977 2.38431 15.6927 2.37927C15.6873 2.37424 15.683 2.36956 15.678 2.36416C15.6773 2.3634 15.6765 2.36263 15.6757 2.36184C15.6746 2.36077 15.6734 2.35965 15.6726 2.35841C14.9559 1.52917 13.9166 1.05343 12.8213 1.05343C10.7435 1.05343 9.05343 2.74354 9.05343 4.82094C9.05343 5.28051 9.13506 5.72893 9.29616 6.15398L9.30083 6.16513V6.1662C9.30125 6.16711 9.30167 6.168 9.30208 6.16889C9.30381 6.17258 9.30549 6.17617 9.30694 6.18023C9.36124 6.30213 9.47991 6.55313 9.68416 6.90877C9.68596 6.91129 9.68776 6.91417 9.6892 6.91704C9.69012 6.91843 9.69089 6.91981 9.69161 6.92109C9.69202 6.92182 9.6924 6.92251 9.69279 6.92316ZM9.91059 6.79735C10.6442 8.06738 12.4003 10.5491 15.975 13.0363C19.5496 10.5492 21.3058 8.06737 22.0421 6.79704L22.0424 6.7965C22.0421 6.79698 22.043 6.79534 22.044 6.79373C22.0441 6.79357 22.0442 6.79341 22.0443 6.79324C22.0453 6.79145 22.047 6.78869 22.0492 6.78524C22.0511 6.78208 22.0529 6.77922 22.0544 6.77682C22.2366 6.4599 22.3474 6.23019 22.403 6.10713V6.05699L22.4384 6.02158C22.5777 5.63781 22.6486 5.23486 22.6486 4.82131C22.6486 2.88244 21.0711 1.30495 19.1326 1.30495C18.1112 1.30495 17.1417 1.74823 16.4728 2.52116C16.4679 2.52691 16.4638 2.53141 16.461 2.53428C16.4597 2.53565 16.4585 2.53696 16.4574 2.53808C16.4529 2.5429 16.4462 2.54996 16.4387 2.55748L16.4379 2.55831C16.4338 2.56236 16.4258 2.57041 16.4159 2.57934L16.4149 2.58025C16.4133 2.58179 16.4112 2.58374 16.4088 2.58596C16.4046 2.58978 16.4009 2.5929 16.3981 2.59527C16.3945 2.59825 16.3913 2.6007 16.3894 2.60218C16.3796 2.61017 16.37 2.6174 16.3607 2.62417L16.3586 2.62564L16.3577 2.62625L16.355 2.62826C16.3521 2.63036 16.3461 2.63474 16.3382 2.63984C16.3261 2.64796 16.3152 2.65451 16.306 2.65987L16.3047 2.66058C16.3009 2.66279 16.2973 2.66478 16.295 2.66605L16.29 2.66885L16.2839 2.67232L16.2525 2.68803L16.2466 2.69061L16.2436 2.69193L16.2378 2.6945C16.2335 2.69636 16.2271 2.6991 16.2194 2.70203C16.2144 2.70399 16.2097 2.70572 16.2069 2.70675L16.201 2.70898L16.1973 2.71042L16.1935 2.71175C16.1815 2.71598 16.1703 2.71947 16.1588 2.72266C16.1539 2.72402 16.1494 2.72521 16.1466 2.72597L16.1401 2.7277C16.1298 2.73056 16.1211 2.73249 16.1159 2.73359L16.1086 2.73512L16.1083 2.7352C16.095 2.73816 16.0801 2.74089 16.0633 2.74279L16.0613 2.74306L16.0578 2.74352C16.0536 2.74407 16.0468 2.74492 16.0383 2.7456C16.0321 2.74627 16.019 2.74753 16.0042 2.74791C15.993 2.74839 15.9833 2.74838 15.9785 2.74838L15.9765 2.74838C15.97 2.74838 15.9577 2.74839 15.9441 2.7477L15.9419 2.74759L15.9246 2.74651L15.9195 2.74621L15.9134 2.74559C15.9068 2.74494 15.8954 2.7438 15.8828 2.74203C15.8719 2.74053 15.8619 2.73864 15.8561 2.73749C15.8396 2.73464 15.8255 2.73109 15.8199 2.72967L15.8187 2.72936L15.8149 2.72841L15.795 2.72306L15.7912 2.72195C15.7794 2.71838 15.7691 2.71495 15.7596 2.7116L15.7569 2.71069L15.7543 2.70971L15.7434 2.70551L15.7374 2.70323L15.7337 2.70183L15.7289 2.69987C15.7237 2.69773 15.7137 2.6936 15.7027 2.68853C15.6958 2.68539 15.69 2.68254 15.6857 2.68039L15.6766 2.6758L15.6736 2.67432L15.6707 2.67276C15.6665 2.67051 15.6629 2.66847 15.6601 2.6669L15.654 2.66335L15.6531 2.66283L15.6484 2.6603L15.6421 2.65646C15.6418 2.65629 15.6414 2.65602 15.6408 2.65565C15.6374 2.65361 15.6292 2.64866 15.6206 2.64316C15.6059 2.63413 15.5946 2.62558 15.5889 2.62128C15.5799 2.61461 15.5706 2.6072 15.5678 2.60502L15.5671 2.60442L15.5547 2.5948L15.5528 2.59295C15.552 2.59224 15.5511 2.5915 15.5502 2.59073L15.5429 2.58445L15.5387 2.58028L15.5365 2.57825C15.5289 2.57107 15.5219 2.56419 15.5172 2.55944C15.5082 2.55087 15.5008 2.54298 15.4966 2.53848C15.4944 2.5363 15.4917 2.53356 15.4889 2.53045C15.4862 2.52751 15.4828 2.52369 15.479 2.51906C14.8101 1.74741 13.8418 1.30495 12.8213 1.30495C10.8824 1.30495 9.30495 2.88247 9.30495 4.82094C9.30495 5.24896 9.38066 5.66577 9.52983 6.06081L9.54129 6.08815C9.59408 6.2058 9.70679 6.44259 9.89836 6.7767C9.90128 6.78127 9.90427 6.78622 9.90725 6.79153C9.90844 6.79355 9.90936 6.79517 9.90996 6.79624C9.91002 6.79634 9.91008 6.79644 9.91013 6.79654L9.91059 6.79735ZM16.3874 2.60367L16.387 2.60398L16.3866 2.6043C16.3867 2.60421 16.387 2.60397 16.3874 2.60367ZM22.6551 6.15908C22.6553 6.15871 22.6554 6.15832 22.6556 6.15792L22.6551 6.15908ZM22.6556 6.15792C22.6558 6.15736 22.656 6.15677 22.6563 6.15613L22.6556 6.15792Z" fill="#ffffff"></path> <path fill-rule="evenodd" clip-rule="evenodd" d="M25.6029 28.9291L25.6581 28.8301L25.6595 28.8277C26.7267 27.0037 28.3356 24.2539 29.1585 21.0112L29.5027 19.6085L31.7915 11.6193L31.7923 11.6161C31.9241 11.1066 32.0062 10.7124 31.848 10.3569C31.639 9.88733 31.1539 9.76463 30.827 9.68195L30.8165 9.67929C30.2711 9.51474 29.7491 9.61371 29.2418 9.89637L29.2383 9.89847C28.4748 10.3564 27.9367 11.2243 27.7801 11.8403L26.4861 15.3251C26.4599 15.3159 26.4286 15.3058 26.3943 15.2989C25.4207 15.039 24.1675 15.6348 23.51 17.1943L23.5079 17.1992L22.7107 19.6379C22.4808 19.8832 21.5624 20.8706 20.6311 22.3624L20.63 22.3641C19.933 23.5217 19.4436 25.241 19.1629 26.9178C18.882 28.5952 18.8066 30.2506 18.9496 31.2867L18.9502 31.2903C18.9781 31.4566 19.0649 31.6318 19.2013 31.7408C19.343 31.8539 19.5199 31.8815 19.6994 31.8672L19.702 31.867L19.7046 31.8667C20.0837 31.8208 20.3176 31.5002 20.287 31.1162C19.9928 27.4263 20.8636 24.7711 21.8051 23.0381C22.2761 22.171 22.7653 21.5339 23.1366 21.113C23.3222 20.9026 23.4783 20.7463 23.5878 20.6424C23.6426 20.5904 23.6858 20.5515 23.7153 20.5254C23.7285 20.5137 23.739 20.5046 23.7469 20.4977L23.7497 20.4953C23.7536 20.4919 23.7573 20.4886 23.7601 20.4861C23.7609 20.4854 23.7619 20.4845 23.763 20.4835C23.7639 20.4827 23.7647 20.4819 23.7656 20.4811L23.7677 20.4791L23.8942 20.3633L24.7865 17.6876C24.9594 17.2683 25.2041 16.9634 25.4498 16.7774C25.7 16.588 25.9352 16.5326 26.0965 16.574L26.0992 16.5746C26.2093 16.6004 26.3242 16.6423 26.4118 16.682C26.4035 16.7152 26.3914 16.7564 26.3753 16.8049C26.3434 16.9009 26.2995 17.0133 26.2505 17.1236L26.2478 17.1297L25.0683 20.7727C24.867 21.2484 24.5312 21.9651 24.1494 22.6163C23.9578 22.9432 23.7561 23.2512 23.5553 23.5033C23.3528 23.7575 23.1587 23.9454 22.9845 24.0427L22.9831 24.0435C22.8392 24.1263 22.7257 24.2789 22.6711 24.4307C22.5991 24.6196 22.6304 24.8034 22.7345 24.9584C22.8178 25.1003 22.9688 25.2122 23.119 25.2663C23.3071 25.338 23.4902 25.3072 23.6447 25.204C24.2656 24.8674 24.8757 24.0905 25.5092 22.9529C25.9276 22.2016 26.2537 21.4769 26.334 21.2855L26.3361 21.2806L27.5257 17.6205C27.7324 17.1585 27.9292 16.6201 27.667 16.0956L29.0686 12.3113L29.1183 12.222L29.122 12.2001C29.1326 12.1366 29.1761 12.0109 29.2548 11.8562C29.3322 11.7042 29.4387 11.5337 29.5681 11.3806C29.8298 11.0709 30.153 10.8663 30.5028 10.9503C30.5139 10.955 30.5246 10.9586 30.5321 10.961C30.5398 10.9635 30.5482 10.9659 30.5568 10.9684L30.5561 10.9715C30.5507 10.9963 30.5447 11.0233 30.5401 11.0473C30.5285 11.0901 30.5164 11.1353 30.5068 11.1762C30.4987 11.2108 30.4909 11.2488 30.4877 11.2829L28.2209 19.2751L27.876 20.6805L27.8759 20.6809C27.1107 23.7069 25.5406 26.3899 24.5051 28.1568L24.5048 28.1573C23.8425 29.3006 23.2744 30.318 23.0651 31.0731L23.0642 31.0766C22.9899 31.3776 23.1196 31.7046 23.3895 31.8551L23.3922 31.8566C23.4098 31.8665 23.4365 31.8813 23.4637 31.8918C23.4826 31.899 23.5123 31.9085 23.5473 31.9083C23.8347 31.993 24.1405 31.8786 24.2974 31.5968L24.312 31.5704L24.3134 31.5403C24.3138 31.531 24.3156 31.5233 24.3202 31.5038L24.322 31.4963C24.3244 31.4859 24.3282 31.4694 24.3299 31.4516C24.3301 31.4495 24.3303 31.4472 24.3305 31.4449L24.3432 31.4221L24.3473 31.405C24.4114 31.1377 24.564 30.7944 24.7847 30.3751C24.9926 29.9801 25.2559 29.5266 25.5519 29.017L25.6029 28.9291ZM30.7044 10.8662C30.7044 10.8662 30.7044 10.8663 30.7044 10.8662V10.8662ZM26.5538 16.6099C26.5538 16.6099 26.5538 16.61 26.5538 16.6099V16.6099Z" fill="#ffffff"></path> <path fill-rule="evenodd" clip-rule="evenodd" d="M6.39703 28.9291L6.34188 28.8301L6.34047 28.8277C5.27325 27.0037 3.6643 24.2539 2.8414 21.0112L2.4972 19.6085L0.208421 11.6193L0.207589 11.6161C0.0758352 11.1066 -0.00625706 10.7124 0.151911 10.3569C0.360858 9.88733 0.845981 9.76463 1.17291 9.68195L1.18339 9.67929C1.72886 9.51474 2.25079 9.61371 2.75807 9.89637L2.76158 9.89847C3.52514 10.3564 4.06326 11.2243 4.21985 11.8403L5.51383 15.3251C5.54003 15.3159 5.57139 15.3058 5.6056 15.2989C6.57927 15.039 7.83246 15.6348 8.49 17.1943L8.49207 17.1992L9.28923 19.6379C9.51919 19.8832 10.4376 20.8706 11.3689 22.3624L11.3699 22.3641C12.067 23.5217 12.5564 25.241 12.8371 26.9178C13.118 28.5952 13.1934 30.2506 13.0504 31.2867L13.0498 31.2903C13.0219 31.4566 12.9351 31.6318 12.7987 31.7408C12.657 31.8539 12.4801 31.8815 12.3006 31.8672L12.298 31.867L12.2954 31.8667C11.9162 31.8208 11.6824 31.5002 11.713 31.1162C12.0072 27.4263 11.1364 24.7711 10.1949 23.0381C9.72389 22.171 9.23462 21.5339 8.86338 21.113C8.67778 20.9026 8.52169 20.7463 8.41214 20.6424C8.35738 20.5904 8.31418 20.5515 8.28462 20.5254C8.27146 20.5137 8.26098 20.5046 8.2531 20.4977L8.25026 20.4953C8.24638 20.4919 8.24265 20.4886 8.23981 20.4861C8.23906 20.4854 8.23805 20.4845 8.23692 20.4835C8.2361 20.4827 8.23522 20.4819 8.23433 20.4811L8.23231 20.4791L8.10577 20.3633L7.21347 17.6876C7.04052 17.2683 6.7959 16.9634 6.55018 16.7774C6.29994 16.588 6.06479 16.5326 5.9034 16.574L5.90078 16.5746C5.79066 16.6004 5.67579 16.6423 5.58819 16.682C5.59648 16.7152 5.6085 16.7564 5.62463 16.8049C5.65657 16.9009 5.70046 17.0133 5.7494 17.1236L5.75212 17.1297L6.93163 20.7727C7.13294 21.2484 7.46879 21.9651 7.85053 22.6163C8.04212 22.9432 8.24389 23.2512 8.44465 23.5033C8.64712 23.7575 8.84123 23.9454 9.01543 24.0427L9.01686 24.0435C9.16077 24.1263 9.27427 24.2789 9.32886 24.4307C9.40083 24.6196 9.36956 24.8034 9.26545 24.9584C9.18214 25.1003 9.03118 25.2122 8.88093 25.2663C8.69282 25.338 8.50981 25.3072 8.35524 25.204C7.7344 24.8674 7.12426 24.0905 6.49071 22.9529C6.07233 22.2016 5.74629 21.4769 5.66594 21.2855L5.66388 21.2806L4.47423 17.6205C4.26752 17.1585 4.07076 16.6201 4.33297 16.0956L2.93133 12.3113L2.88157 12.222L2.87793 12.2001C2.86734 12.1366 2.82382 12.0109 2.7451 11.8562C2.66775 11.7042 2.56121 11.5337 2.43184 11.3806C2.17012 11.0709 1.8469 10.8663 1.49716 10.9503C1.486 10.955 1.4753 10.9586 1.46781 10.961C1.46008 10.9635 1.45176 10.9659 1.4431 10.9684L1.44378 10.9715C1.44925 10.9963 1.4552 11.0233 1.45983 11.0473C1.47138 11.0901 1.48352 11.1353 1.49308 11.1762C1.50118 11.2108 1.50906 11.2488 1.51221 11.2829L3.77904 19.2751L4.12393 20.6805L4.12402 20.6809C4.88919 23.7069 6.45938 26.3899 7.49487 28.1568L7.49519 28.1573C8.15749 29.3006 8.72557 30.318 8.93487 31.0731L8.93574 31.0766C9.01002 31.3776 8.88038 31.7046 8.61051 31.8551L8.60778 31.8566C8.59013 31.8665 8.56351 31.8813 8.53625 31.8918C8.51739 31.899 8.48768 31.9085 8.45267 31.9083C8.16523 31.993 7.85951 31.8786 7.70261 31.5968L7.68791 31.5704L7.68656 31.5403C7.68615 31.531 7.68432 31.5233 7.67973 31.5038L7.67798 31.4963C7.67555 31.4859 7.6718 31.4694 7.67004 31.4516C7.66983 31.4495 7.66964 31.4472 7.66948 31.4449L7.65674 31.4221L7.65264 31.405C7.58858 31.1377 7.43593 30.7944 7.21524 30.3751C7.00735 29.9801 6.74402 29.5266 6.44807 29.017L6.39703 28.9291ZM1.29549 10.8662C1.29549 10.8662 1.29549 10.8663 1.29549 10.8662V10.8662ZM5.44618 16.6099C5.44618 16.6099 5.44618 16.61 5.44618 16.6099V16.6099Z" fill="#ffffff"></path> </svg>