<svg width="24" height="24" viewBox="0 0 24 24" fill="none" xmlns="http://www.w3.org/2000/svg"> <path d="M21.1003 9.56491C20.2355 8.11583 19.0201 7.15757 17.5944 6.78361C15.935 6.36291 14.1821 6.73687 12.6161 7.81199C12.8966 6.76024 13.5277 4.89046 14.7664 3.18429L14.8599 3.06743C14.8599 3.06743 15.2636 2.61785 14.879 2.25361C14.4945 1.88937 13.9484 2.38964 13.9484 2.38964L13.8549 2.5065C12.8031 3.95558 12.1721 5.47477 11.8215 6.57326C11.0736 4.51651 10.0218 2.81034 8.71298 1.50149C8.61949 1.408 8.38577 1.17428 8.1053 0.917188C7.66123 0.51986 7.2639 0.262765 6.96006 0.0991599C6.81983 0.0290433 6.63285 -0.0410734 6.37576 0.0290433C6.09529 0.0757877 5.8382 0.286138 5.60447 0.589976C4.76307 1.71184 4.71633 3.27778 5.51098 4.39965C6.11866 5.26442 7.42751 6.2928 10.2322 6.2928C10.3023 6.2928 10.3724 6.2928 10.4659 6.2928C10.6762 6.85373 10.8398 7.36792 10.9567 7.69513C9.41414 6.66675 7.6846 6.33954 6.09529 6.73687C4.59947 7.1342 3.38411 8.09246 2.58946 9.51816C1.44422 11.4814 1.18712 14.0991 1.88829 16.6701C3.12702 21.2276 7.05355 24.1492 10.6061 23.2377C11.0502 23.1208 11.4475 22.9572 11.8215 22.7468C12.1954 22.9338 12.5928 23.0974 13.0368 23.2377C13.4809 23.3545 13.9484 23.4013 14.3924 23.4013C15.6078 23.4013 16.7764 23.0273 17.8749 22.2794C18.132 22.0924 18.2021 21.7185 18.0151 21.4614C17.8281 21.2276 17.5009 21.1809 17.2672 21.3211C16.0051 22.1625 14.6261 22.443 13.3173 22.1158C12.92 22.0223 12.5226 21.8353 12.1253 21.5782L11.8215 21.3912L11.541 21.6016C11.1437 21.8587 10.7464 22.0223 10.349 22.1392C8.92333 22.5131 7.35739 22.1158 5.97843 21.0407C4.5761 19.9422 3.52435 18.2827 2.98678 16.3662C2.35574 14.0991 2.58946 11.8086 3.57109 10.0791C4.27226 8.88711 5.25389 8.11583 6.39913 7.83536C8.1053 7.41466 9.92833 8.02234 11.4475 9.54153L11.8449 9.91549L12.2422 9.54153C13.7614 8.02234 15.5844 7.41466 17.2906 7.83536C18.4358 8.11583 19.4174 8.91048 20.1186 10.0791C21.1236 11.8086 21.334 14.0991 20.7029 16.3662C20.4225 17.4647 19.9083 18.5165 19.2538 19.428C19.0435 19.6851 19.1604 20.0123 19.3707 20.1993C19.6278 20.3862 20.0018 20.3395 20.1887 20.0824C20.9133 19.0774 21.4508 17.9322 21.8248 16.6701C22.526 14.0991 22.2455 11.5282 21.1003 9.56491ZM9.97508 5.17093C8.29228 5.12419 7.07692 4.63337 6.46924 3.7686C5.95506 3.04406 5.97843 1.99231 6.51599 1.26777C6.53936 1.22103 6.56273 1.19765 6.58611 1.17428C6.77308 1.29114 6.98343 1.45475 7.2639 1.68847C7.49762 1.87545 7.70797 2.0858 7.84821 2.20266L7.91832 2.27278C8.75972 3.0908 9.43752 4.07244 9.97508 5.17093Z" fill="#ffffff"></path> <path d="M19.37 16.2026C19.37 13.398 17.0796 11.1075 14.2749 11.1075C11.4702 11.1075 9.20312 13.398 9.20312 16.2026C9.20312 19.0073 11.4936 21.2978 14.2983 21.2978C15.4201 21.2978 16.4719 20.9472 17.36 20.2694L20.6321 23.7752C20.6321 23.7752 21.1436 24.2146 21.5278 23.8645C21.912 23.5144 21.4735 23.0039 21.4735 23.0039L18.1781 19.4981C18.9493 18.5632 19.37 17.418 19.37 16.2026ZM18.2248 16.2026C18.2248 18.3762 16.4485 20.1292 14.2983 20.1292C12.148 20.1292 10.3717 18.3529 10.3717 16.2026C10.3717 14.029 12.148 12.2761 14.2983 12.2761C16.4485 12.2761 18.2248 14.029 18.2248 16.2026Z" fill="#ffffff"></path> </svg>