<svg width="24" height="24" viewBox="0 0 24 24" fill="none" xmlns="http://www.w3.org/2000/svg"> <path d="M22.6877 13.9596C22.5861 13.7776 22.3509 13.7209 22.1775 13.8366C21.802 12.7106 20.8369 11.7991 20.4884 11.6383C20.3813 11.5846 20.0863 11.4507 18.2631 12.0404L17.1638 11.8796C17.1638 11.8259 17.1638 11.7724 17.1638 11.7454L17.1905 11.397L16.8421 11.3703C16.0378 11.2898 15.2335 11.1023 14.5096 10.8073L14.6184 10.5787C14.7064 10.3938 14.6283 10.1726 14.4437 10.0839C14.2582 9.99487 14.0356 10.0735 13.9472 10.2592L13.8395 10.4855C13.5178 10.298 13.2228 10.1371 12.928 9.92253L13.1477 9.66164C13.2652 9.52216 13.2535 9.31529 13.1212 9.18987C12.9742 9.05064 12.7395 9.06757 12.6141 9.22643L12.4455 9.43996C12.1505 9.17195 11.9092 8.90366 11.6412 8.60893L11.827 8.47476C11.9907 8.35654 12.0272 8.1278 11.9085 7.96448C11.7903 7.80206 11.5632 7.76567 11.4002 7.88307L11.212 8.01867C10.9975 7.72368 10.8366 7.42895 10.7027 7.08024L10.8726 7.00868C11.0592 6.93007 11.1452 6.71386 11.0636 6.52854C10.9827 6.34482 10.768 6.26179 10.5845 6.34334L10.4344 6.41008C10.3273 6.08836 10.2199 5.79336 10.1394 5.44492C10.1083 5.27409 9.95954 5.14993 9.7859 5.14993H2.12442C1.92102 5.14993 1.76032 5.32247 1.77476 5.52536C1.93562 8.82297 1.45305 9.81512 1.02418 10.7533C0.568588 11.7184 0.112726 12.6301 0.380736 15.5793C0.23272 15.5793 0.112728 15.6993 0.112728 15.8473V18.0987C0.112728 18.5138 0.449197 18.8502 0.864252 18.8502H2.20391C2.45567 18.8502 2.65976 18.6461 2.65976 18.3944H3.75905C3.75905 18.6461 3.96314 18.8502 4.21491 18.8502H5.85023C6.10199 18.8502 6.30608 18.6461 6.30608 18.3944H7.40537C7.40537 18.6461 7.60947 18.8502 7.86123 18.8502H9.49655C9.74831 18.8502 9.95241 18.6461 9.95241 18.3944H11.0517C11.0517 18.6461 11.2558 18.8502 11.5076 18.8502H13.1429C13.3946 18.8502 13.5987 18.6461 13.5987 18.3944H14.698C14.698 18.6461 14.9021 18.8502 15.1539 18.8502H16.7625C17.029 18.8502 17.2451 18.6342 17.2451 18.3676L18.4248 18.2605C18.5006 18.5028 18.7496 18.6465 18.9973 18.5908L20.4628 18.2615C20.7294 18.2016 20.8972 17.9372 20.8379 17.6705L21.8835 17.2684C22.034 17.5091 22.3461 17.5908 22.5952 17.4546L23.4962 16.9618C23.8627 16.7614 23.9954 16.3006 23.7917 15.9359L22.6877 13.9596ZM18.3435 12.764L18.424 12.7373C19.1211 12.496 20.0058 12.2814 20.2201 12.3084C20.4614 12.4426 21.2657 13.2736 21.5607 14.2387C20.381 14.9626 18.8798 15.606 16.735 15.606H11.6679C11.775 15.2039 11.9896 14.8822 12.2576 14.6946C13.0082 14.1853 14.3755 14.4266 15.7965 14.775L15.9574 14.8018L16.0915 14.6946C16.6278 14.3192 16.9225 13.3273 17.0567 12.6034L18.3435 12.764ZM1.6946 11.075C2.12347 10.1098 2.65976 9.06426 2.55261 5.90051H9.49655C9.8987 7.50911 10.7834 8.90313 11.9631 10.0024L12.5262 10.4583C13.6254 11.3163 14.9658 11.8793 16.4135 12.0669C16.3063 12.7907 16.0918 13.6755 15.7968 14.0239C14.2686 13.7022 12.8209 13.4609 11.8824 14.1043C11.4266 14.4261 11.1049 14.9354 10.944 15.6058H1.15831C0.890303 12.8177 1.23875 12.0134 1.6946 11.075ZM22.4727 16.7321C22.3306 16.5271 22.0676 16.4447 21.834 16.532L20.3957 17.0691C20.1745 17.1516 20.0522 17.3887 20.113 17.6168L19.0941 17.8581C19.0318 17.6554 18.8353 17.5246 18.6242 17.5455L16.9742 17.7087C16.7319 17.7327 16.5474 17.9364 16.5474 18.1798H15.4481C15.4481 17.928 15.244 17.7239 14.9922 17.7239H13.3572C13.1054 17.7239 12.9013 17.928 12.9013 18.1798H11.802C11.802 17.928 11.5979 17.7239 11.3462 17.7239H9.68414C9.43237 17.7239 9.22827 17.928 9.22827 18.1798H8.1557C8.1557 17.928 7.9516 17.7239 7.69983 17.7239H6.06453C5.81276 17.7239 5.60867 17.928 5.60867 18.1798H4.50938C4.50938 17.928 4.30528 17.7239 4.05351 17.7239H2.41821C2.16644 17.7239 1.96234 17.928 1.96234 18.1798H0.890305V16.3299H16.7352C19.2285 16.3299 20.9446 15.5256 22.2581 14.6676L23.2233 16.3299L22.4727 16.7321Z" fill="#ffffff"></path> <path fill-rule="evenodd" clip-rule="evenodd" d="M17.1638 11.7454V11.8796L18.2631 12.0404C20.0863 11.4507 20.3813 11.5846 20.4884 11.6383C20.8256 11.7939 21.74 12.6522 22.1391 13.7277C22.1525 13.7638 22.1653 13.8001 22.1775 13.8366C22.21 13.8149 22.2448 13.7992 22.2805 13.7893C22.4346 13.7467 22.6052 13.8118 22.6877 13.9596L23.7917 15.9359C23.9954 16.3006 23.8627 16.7614 23.4962 16.9618L22.5952 17.4546C22.3461 17.5908 22.034 17.5091 21.8835 17.2684L20.8379 17.6705C20.8972 17.9372 20.7294 18.2016 20.4628 18.2615L18.9973 18.5908C18.7496 18.6465 18.5006 18.5028 18.4248 18.2605L17.2451 18.3676C17.2451 18.6342 17.029 18.8502 16.7625 18.8502H15.1539C14.9021 18.8502 14.698 18.6461 14.698 18.3944H13.5987C13.5987 18.6461 13.3946 18.8502 13.1429 18.8502H11.5076C11.2558 18.8502 11.0517 18.6461 11.0517 18.3944H9.95241C9.95241 18.6461 9.74831 18.8502 9.49655 18.8502H7.86123C7.60947 18.8502 7.40537 18.6461 7.40537 18.3944H6.30608C6.30608 18.6461 6.10199 18.8502 5.85023 18.8502H4.21491C3.96314 18.8502 3.75905 18.6461 3.75905 18.3944H2.65976C2.65976 18.6461 2.45567 18.8502 2.20391 18.8502H0.864252C0.449197 18.8502 0.112728 18.5138 0.112728 18.0987V15.8473C0.112728 15.716 0.207206 15.6067 0.331909 15.5838C0.347741 15.5808 0.364061 15.5793 0.380736 15.5793C0.377295 15.5415 0.373973 15.5039 0.370769 15.4667C0.128153 12.6499 0.561004 11.7337 1.0038 10.7964C1.01059 10.7821 1.01739 10.7677 1.02418 10.7533C1.03138 10.7375 1.03859 10.7218 1.04582 10.706C1.46907 9.78115 1.93292 8.76761 1.77476 5.52536C1.76032 5.32247 1.92102 5.14993 2.12442 5.14993H9.7859C9.95954 5.14993 10.1083 5.27409 10.1394 5.44492C10.2061 5.73374 10.2913 5.98585 10.3796 6.24689C10.3858 6.26545 10.3921 6.28406 10.3984 6.30272C10.4104 6.33825 10.4224 6.37399 10.4344 6.41008L10.5845 6.34334C10.768 6.26179 10.9827 6.34482 11.0636 6.52854C11.1452 6.71386 11.0592 6.93007 10.8726 7.00868L10.7027 7.08024C10.8227 7.39272 10.9643 7.66186 11.1469 7.92668C11.1604 7.9463 11.1741 7.9659 11.1881 7.98548C11.196 7.99655 11.204 8.00761 11.212 8.01867L11.4002 7.88307C11.5632 7.76567 11.7903 7.80206 11.9085 7.96448C12.0272 8.1278 11.9907 8.35654 11.827 8.47476L11.6412 8.60893C11.6539 8.62292 11.6665 8.63684 11.6791 8.65071C11.692 8.66482 11.7047 8.67888 11.7175 8.69288C11.9307 8.92737 12.1315 9.1462 12.3624 9.36321C12.3897 9.38881 12.4173 9.41438 12.4455 9.43996L12.6141 9.22643C12.7395 9.06757 12.9742 9.05064 13.1212 9.18987C13.2535 9.31529 13.2652 9.52216 13.1477 9.66164L12.928 9.92253C12.9588 9.94491 12.9895 9.9667 13.0203 9.988C13.2334 10.1355 13.4481 10.2594 13.6743 10.3899C13.6966 10.4028 13.7191 10.4157 13.7417 10.4288C13.774 10.4475 13.8066 10.4664 13.8395 10.4855L13.9472 10.2592C14.0356 10.0735 14.2582 9.99487 14.4437 10.0839C14.6283 10.1726 14.7064 10.3938 14.6184 10.5787L14.5096 10.8073C14.5444 10.8214 14.5794 10.8354 14.6146 10.8491C15.3108 11.12 16.0765 11.2937 16.8421 11.3703L17.1905 11.397L17.1638 11.7454ZM16.852 11.258L17.3116 11.2932L17.2766 11.7496V11.7821L18.2535 11.9251C19.1524 11.6353 19.6838 11.5204 20.0073 11.486C20.1711 11.4685 20.2852 11.4713 20.3689 11.4841C20.4543 11.4971 20.5042 11.5201 20.5374 11.5367C20.6386 11.5838 20.773 11.6787 20.9203 11.806C21.0702 11.9356 21.2392 12.1039 21.4086 12.3023C21.7236 12.6714 22.0438 13.1496 22.2427 13.6829C22.4474 13.6224 22.6762 13.7078 22.7862 13.9047L23.8901 15.881C24.1243 16.3003 23.9717 16.8302 23.5503 17.0607L22.6493 17.5535C22.3759 17.703 22.0397 17.6356 21.8437 17.4045L20.9616 17.7437C20.9784 18.0357 20.7821 18.3053 20.4875 18.3715L19.0221 18.7008C18.7477 18.7625 18.4721 18.6256 18.3516 18.3803L17.3488 18.4714C17.2997 18.7507 17.0559 18.9629 16.7625 18.9629H15.1539C14.8785 18.9629 14.6488 18.7671 14.5965 18.5071H13.7003C13.648 18.7671 13.4183 18.9629 13.1429 18.9629H11.5076C11.2321 18.9629 11.0024 18.7671 10.9501 18.5071H10.054C10.0017 18.7671 9.77198 18.9629 9.49655 18.9629H7.86123C7.5858 18.9629 7.35612 18.7671 7.30382 18.5071H6.40764C6.35534 18.7671 6.12565 18.9629 5.85023 18.9629H4.21491C3.93948 18.9629 3.70979 18.7671 3.6575 18.5071H2.76132C2.70902 18.7671 2.47933 18.9629 2.20391 18.9629H0.864252C0.386939 18.9629 0 18.576 0 18.0987V15.8473C0 15.6795 0.108578 15.5371 0.259317 15.4864C0.136122 14.0631 0.183608 13.115 0.320392 12.4011C0.456421 11.6911 0.680059 11.2178 0.901119 10.7499C0.908065 10.7352 0.915008 10.7205 0.921947 10.7058C0.928922 10.6905 0.935907 10.6753 0.942897 10.66C1.15042 10.2065 1.36366 9.74053 1.51004 9.00219C1.66177 8.23689 1.74229 7.17464 1.66223 5.53202C1.64394 5.26447 1.85606 5.0372 2.12442 5.0372H9.7859C10.0131 5.0372 10.2079 5.19896 10.2498 5.42194C10.3151 5.70385 10.398 5.94926 10.4859 6.20934C10.4912 6.22507 10.4965 6.24087 10.5019 6.25673L10.5387 6.24034C10.7792 6.13342 11.0608 6.24227 11.1668 6.48313C11.2737 6.72607 11.161 7.00951 10.9163 7.11257L10.8483 7.14123C10.956 7.40216 11.0815 7.63297 11.2383 7.86077L11.3343 7.79161C11.5476 7.63793 11.845 7.68556 11.9996 7.89818C12.1551 8.11197 12.1073 8.41141 11.893 8.56615L11.8095 8.62647C12.0173 8.85494 12.2112 9.06579 12.4325 9.27441L12.5256 9.15657C12.6921 8.94571 13.0037 8.92324 13.1987 9.10804C13.3744 9.27452 13.3899 9.54911 13.234 9.73425L13.0932 9.90138C13.2988 10.0431 13.5062 10.1627 13.7291 10.2914C13.7494 10.303 13.7697 10.3148 13.7903 10.3267L13.8454 10.2108C13.9607 9.96866 14.2507 9.86624 14.4925 9.98229C14.7331 10.0978 14.8349 10.3862 14.7202 10.6272L14.6632 10.747C15.3464 11.012 16.0986 11.1825 16.852 11.258ZM18.3549 12.879L17.1474 12.7284C17.0788 13.0717 16.9756 13.4643 16.8293 13.8223C16.6698 14.2125 16.4528 14.5779 16.1592 14.7849L15.9885 14.9212L15.7696 14.8848C15.0599 14.7108 14.371 14.5652 13.7683 14.5257C13.1629 14.486 12.6652 14.5546 12.3216 14.7874C12.1105 14.9354 11.9304 15.1801 11.8204 15.4933H16.735C18.8087 15.4933 20.2713 14.8854 21.4262 14.1887C21.2789 13.7546 21.0285 13.3494 20.7813 13.0311C20.6502 12.8623 20.5211 12.7195 20.411 12.6114C20.3129 12.5151 20.2344 12.4509 20.1851 12.4189C20.1431 12.418 20.0697 12.4245 19.9652 12.4414C19.8449 12.4609 19.6953 12.4921 19.5294 12.5319C19.1977 12.6115 18.8058 12.7244 18.4608 12.8438L18.4595 12.8443L18.3549 12.879ZM20.2201 12.3084C20.4614 12.4426 21.2657 13.2736 21.5607 14.2387C20.381 14.9626 18.8798 15.606 16.735 15.606H11.6679C11.6781 15.5677 11.6893 15.5301 11.7014 15.4933C11.8164 15.1438 12.0151 14.8643 12.2576 14.6946C13.0082 14.1853 14.3755 14.4266 15.7965 14.775L15.9574 14.8018L16.0915 14.6946C16.6278 14.3192 16.9225 13.3273 17.0567 12.6034L18.3435 12.764L18.424 12.7373C19.1211 12.496 20.0058 12.2814 20.2201 12.3084ZM1.796 11.1243C1.56934 11.5909 1.37409 12.0147 1.26622 12.6652C1.16056 13.3024 1.13806 14.162 1.26092 15.4931H10.8562C11.0286 14.8436 11.355 14.3386 11.8174 14.0122L11.8187 14.0114C12.3161 13.6703 12.9406 13.5691 13.6218 13.5895C14.2828 13.6093 15.0109 13.7443 15.7509 13.8991C15.8667 13.7363 15.9746 13.4717 16.0674 13.1545C16.1589 12.8418 16.2322 12.4905 16.2846 12.163C14.861 11.9586 13.5432 11.3951 12.4568 10.5472L12.4552 10.5459L11.8861 10.0851C10.7131 8.99202 9.82663 7.60907 9.40903 6.01324H2.66896C2.71373 7.53738 2.6072 8.56698 2.43461 9.33688C2.27275 10.059 2.05328 10.5493 1.85348 10.9957C1.83466 11.0377 1.81602 11.0794 1.79762 11.1208L1.796 11.1243ZM2.55618 6.01324C2.55508 5.97597 2.55389 5.93839 2.55261 5.90051H9.49655C9.8987 7.50911 10.7834 8.90313 11.9631 10.0024L12.5262 10.4583C13.5971 11.2942 14.8969 11.8501 16.3018 12.0516C16.339 12.057 16.3762 12.062 16.4135 12.0669C16.4081 12.1036 16.4023 12.1408 16.3963 12.1783C16.2843 12.8792 16.0768 13.6932 15.7968 14.0239C14.2686 13.7022 12.8209 13.4609 11.8824 14.1043C11.4266 14.4261 11.1049 14.9354 10.944 15.6058H1.15831C0.890303 12.8177 1.23875 12.0134 1.6946 11.075C1.71303 11.0335 1.73165 10.9919 1.7504 10.95C2.16313 10.0278 2.64299 8.95556 2.55618 6.01324ZM22.4727 16.7321L23.2233 16.3299L22.2581 14.6676C22.2268 14.6881 22.1952 14.7085 22.1634 14.7289C20.8622 15.5636 19.169 16.3299 16.7352 16.3299H0.890305V18.1798H1.96234C1.96234 17.928 2.16644 17.7239 2.41821 17.7239H4.05351C4.30528 17.7239 4.50938 17.928 4.50938 18.1798H5.60867C5.60867 17.928 5.81276 17.7239 6.06453 17.7239H7.69983C7.9516 17.7239 8.1557 17.928 8.1557 18.1798H9.22827C9.22827 17.928 9.43237 17.7239 9.68414 17.7239H11.3462C11.5979 17.7239 11.802 17.928 11.802 18.1798H12.9013C12.9013 17.928 13.1054 17.7239 13.3572 17.7239H14.9922C15.244 17.7239 15.4481 17.928 15.4481 18.1798H16.5474C16.5474 17.9364 16.7319 17.7327 16.9742 17.7087L18.6242 17.5455C18.8353 17.5246 19.0318 17.6554 19.0941 17.8581L20.113 17.6168C20.1108 17.6084 20.1088 17.6 20.107 17.5916C20.0613 17.3714 20.1827 17.1486 20.3957 17.0691L21.834 16.532C22.0676 16.4447 22.3306 16.5271 22.4727 16.7321ZM19.9856 17.5311C19.9715 17.2857 20.1178 17.0525 20.3563 16.9634L21.7945 16.4263C22.0443 16.3331 22.3218 16.4005 22.5011 16.5889L23.0672 16.2856L22.2201 14.8265C20.9064 15.6684 19.1935 16.4426 16.7352 16.4426H1.00303V18.0671H1.86079C1.91309 17.807 2.14278 17.6112 2.41821 17.6112H4.05351C4.32894 17.6112 4.55863 17.807 4.61093 18.0671H5.50711C5.55941 17.807 5.7891 17.6112 6.06453 17.6112H7.69983C7.97526 17.6112 8.20495 17.807 8.25725 18.0671H9.12672C9.17902 17.807 9.40871 17.6112 9.68414 17.6112H11.3462C11.6216 17.6112 11.8513 17.807 11.9036 18.0671H12.7998C12.8521 17.807 13.0817 17.6112 13.3572 17.6112H14.9922C15.2676 17.6112 15.4973 17.807 15.5496 18.0671H16.4455C16.4942 17.8176 16.7015 17.6224 16.9631 17.5965L18.6131 17.4333C18.8415 17.4107 19.0563 17.5299 19.161 17.7264L19.9856 17.5311Z" fill="#ffffff"></path> <path fill-rule="evenodd" clip-rule="evenodd" d="M8.71892 6.5145C8.1515 6.5145 7.72412 6.94188 7.72412 7.50929C7.72412 8.04866 8.15045 8.50409 8.71892 8.50409C9.28739 8.50409 9.71372 8.04866 9.71372 7.50929C9.71372 6.96993 9.28739 6.5145 8.71892 6.5145ZM8.56071 7.4823C8.56071 7.44705 8.57891 7.40702 8.61122 7.37468C8.64353 7.34235 8.68355 7.3241 8.71892 7.3241C8.75433 7.3241 8.79435 7.34232 8.82663 7.3746C8.85891 7.40687 8.87712 7.44689 8.87712 7.4823C8.87712 7.58081 8.79991 7.64051 8.71892 7.64051C8.68366 7.64051 8.64363 7.62231 8.61129 7.59C8.57896 7.55769 8.56071 7.51767 8.56071 7.4823Z" fill="#ffffff"></path> <path fill-rule="evenodd" clip-rule="evenodd" d="M9.76042 8.55283C9.19301 8.55283 8.76562 8.98021 8.76562 9.54762C8.76562 10.087 9.19195 10.5424 9.76042 10.5424C10.3289 10.5424 10.7552 10.087 10.7552 9.54762C10.7552 9.00826 10.3289 8.55283 9.76042 8.55283ZM9.60222 9.52063C9.60222 9.48538 9.62042 9.44535 9.65273 9.41301C9.68503 9.38068 9.72506 9.36243 9.76042 9.36243C9.79583 9.36243 9.83586 9.38065 9.86814 9.41293C9.90041 9.4452 9.91863 9.48522 9.91863 9.52063C9.91863 9.61914 9.84141 9.67884 9.76042 9.67884C9.72517 9.67884 9.68513 9.66064 9.65279 9.62833C9.62046 9.59602 9.60222 9.556 9.60222 9.52063Z" fill="#ffffff"></path> <path fill-rule="evenodd" clip-rule="evenodd" d="M11.4069 10.3026C10.8395 10.3026 10.4121 10.73 10.4121 11.2974C10.4121 11.8367 10.8384 12.2922 11.4069 12.2922C11.9754 12.2922 12.4017 11.8367 12.4017 11.2974C12.4017 10.758 11.9754 10.3026 11.4069 10.3026ZM11.2487 11.2704C11.2487 11.2351 11.2669 11.1951 11.2992 11.1628C11.3315 11.1304 11.3715 11.1122 11.4069 11.1122C11.4423 11.1122 11.4823 11.1304 11.5146 11.1627C11.5469 11.195 11.5651 11.235 11.5651 11.2704C11.5651 11.3689 11.4879 11.4286 11.4069 11.4286C11.3717 11.4286 11.3316 11.4104 11.2993 11.3781C11.2669 11.3458 11.2487 11.3058 11.2487 11.2704Z" fill="#ffffff"></path> <path fill-rule="evenodd" clip-rule="evenodd" d="M13.465 11.5374C12.8976 11.5374 12.4702 11.9648 12.4702 12.5322C12.4702 13.0716 12.8965 13.527 13.465 13.527C14.0335 13.527 14.4598 13.0716 14.4598 12.5322C14.4598 11.9929 14.0335 11.5374 13.465 11.5374ZM13.3068 12.5053C13.3068 12.47 13.325 12.43 13.3573 12.3976C13.3896 12.3653 13.4296 12.3471 13.465 12.3471C13.5004 12.3471 13.5404 12.3653 13.5727 12.3975C13.605 12.4298 13.6232 12.4698 13.6232 12.5053C13.6232 12.6038 13.546 12.6635 13.465 12.6635C13.4298 12.6635 13.3897 12.6453 13.3574 12.6129C13.3251 12.5806 13.3068 12.5406 13.3068 12.5053Z" fill="#ffffff"></path> </svg>