<svg width="24" height="24" viewBox="0 0 24 24" fill="none" xmlns="http://www.w3.org/2000/svg">
<path d="M21.375 13.9232H21.3751C22.4401 13.9246 23.2987 14.8321 23.3 15.9467V15.9469C23.298 17.933 21.7681 19.5471 19.8751 19.5493H19.875H15.375H15.3749C14.6507 19.5479 13.9459 19.305 13.3618 18.8564C11.8238 19.3315 10.2277 19.565 8.6248 19.5493C8.6247 19.5493 8.62461 19.5493 8.62451 19.5493L8.625 19.4993C4.20905 19.4993 0.75 17.9389 0.75 15.9468C0.75 14.5608 2.42786 13.3867 4.93376 12.7987L21.375 13.9232ZM21.375 13.9232H18.05M21.375 13.9232L18.05 13.9732M11.9866 12.6644C13.1342 12.8719 14.2365 13.2985 15.2394 13.9232H17.2V13.1842C16.3236 12.9747 15.7009 12.1554 15.7 11.2102V11.2102V11.075V11.0749H15.75C15.7487 10.5512 15.9463 10.0488 16.299 9.67951L11.9866 12.6644ZM11.9866 12.6644C12.6617 12.4256 13.2187 12.1198 13.6169 11.7623C14.0518 11.372 14.3 10.9173 14.3 10.4208C14.3 9.84697 13.9687 9.32864 13.3994 8.90028C12.8586 8.49339 12.0986 8.16381 11.1865 7.93968C11.9163 7.60514 12.425 7.11592 12.425 6.47359C12.425 5.8007 11.8677 5.29501 11.0821 4.96003C10.293 4.62358 9.25474 4.45 8.25 4.45C7.24526 4.45 6.20696 4.62358 5.41793 4.96003C4.63235 5.29501 4.075 5.8007 4.075 6.47359C4.075 7.11592 4.58369 7.60514 5.31346 7.93968C4.40137 8.16381 3.64137 8.49339 3.10061 8.90028C2.5313 9.32864 2.2 9.84697 2.2 10.4208C2.2 10.951 2.4826 11.4333 2.97392 11.8408C3.42947 12.2186 4.06752 12.5349 4.83804 12.7701C3.63474 13.0609 2.62364 13.4882 1.90224 14.0115L11.9866 12.6644ZM19.55 11.075C19.5513 10.5388 19.349 10.0239 18.9872 9.64497L17.6613 8.2493L17.625 8.21114L17.5888 8.2493L16.2628 9.64497C16.2628 9.645 16.2627 9.64503 16.2627 9.64506L19.5 11.0749M19.55 11.075L19.5 11.0749M19.55 11.075V11.0749H19.5M19.55 11.075V11.2102V11.2102C19.5491 12.1554 18.9264 12.9747 18.05 13.1842M19.5 11.0749V11.2102C19.4991 12.1476 18.8725 12.9556 18 13.1443M18.05 13.1842V13.1443H18M18.05 13.1842C18.0369 13.1873 18.0238 13.1903 18.0106 13.1931L18 13.1443M18.05 13.1842V13.9232M18 13.1443V13.9232H18.05M17.625 8.28373L17.6595 8.32003L17.6613 8.31817L17.625 8.28373ZM17.625 8.28373L17.5905 8.32003L17.5888 8.31817L17.625 8.28373ZM18.05 13.9232V13.9732M18.05 13.9732H21.375C22.4101 13.9746 23.2487 14.8573 23.25 15.9468L18.05 13.9732ZM8.625 18.6598H8.62539C9.98671 18.6704 11.3435 18.4977 12.6629 18.1462C12.6516 18.1303 12.6406 18.1143 12.6298 18.0987L8.625 18.6598ZM8.625 18.6598C6.53024 18.6598 4.75579 18.2966 3.50683 17.7723C2.88218 17.5101 2.39105 17.2084 2.05694 16.8935C1.72229 16.5781 1.55 16.2543 1.55 15.9468C1.55 15.6393 1.72229 15.3155 2.05694 15.0001C2.39105 14.6852 2.88218 14.3835 3.50683 14.1213C4.75579 13.597 6.53024 13.2338 8.625 13.2338L8.62579 13.2338C10.2487 13.2081 11.8642 13.4643 13.4074 13.9915M8.625 18.6598L13.4074 13.9915M12.4773 17.8652C12.52 17.9367 12.5653 18.0065 12.613 18.0744L12.1206 17.0694C12.1256 17.0875 12.1312 17.1075 12.1372 17.1251C12.1735 17.2359 12.2151 17.3447 12.2616 17.4514L12.2617 17.4517C12.2681 17.4661 12.2762 17.4824 12.2836 17.4974C12.2883 17.5068 12.2927 17.5158 12.2964 17.5235M12.4773 17.8652C12.4576 17.8325 12.4383 17.7997 12.4195 17.7665L12.4194 17.7662C12.3754 17.687 12.3344 17.6058 12.2964 17.5235M12.4773 17.8652C12.4773 17.8651 12.4773 17.8651 12.4773 17.8651L12.5202 17.8394L12.4774 17.8653C12.4774 17.8653 12.4774 17.8652 12.4773 17.8652ZM12.2964 17.5235C12.2963 17.5234 12.2963 17.5234 12.2963 17.5233L12.3417 17.5023L12.2964 17.5237C12.2964 17.5236 12.2964 17.5235 12.2964 17.5235ZM13.4074 13.9915C13.3994 13.9939 13.3914 13.9962 13.3837 13.9984C13.3143 14.0168 13.2457 14.0392 13.1786 14.0657L13.1779 14.066C13.1308 14.0854 13.086 14.1067 13.0402 14.1319C12.9784 14.1627 12.9183 14.1972 12.8602 14.2348L12.86 14.2349C12.8163 14.2635 12.7754 14.2936 12.7354 14.325M13.4074 13.9915L12.5797 14.4603C12.5795 14.4605 12.5794 14.4606 12.5792 14.4608C12.6288 14.4127 12.681 14.3673 12.7354 14.325M12.7354 14.325C12.7354 14.325 12.7354 14.325 12.7354 14.325L12.7661 14.3645L12.7353 14.3251C12.7353 14.3251 12.7353 14.3251 12.7354 14.325ZM12.1521 15.0627C12.1522 15.0625 12.1522 15.0624 12.1523 15.0623L12.1976 15.0835L12.152 15.063C12.1521 15.0629 12.1521 15.0628 12.1521 15.0627ZM12.1521 15.0627C12.147 15.0736 12.1414 15.0851 12.1357 15.0968C12.1206 15.1277 12.1044 15.1611 12.0913 15.1952L12.0911 15.196C12.0624 15.275 12.0387 15.3557 12.0197 15.438M12.1521 15.0627L12.0197 15.438M12.0197 15.438C12.0169 15.4489 12.0133 15.4611 12.0096 15.4741C12.0017 15.5011 11.9929 15.5313 11.9877 15.5589C11.9877 15.5589 11.9877 15.5589 11.9877 15.5589L12.0368 15.5683C12.013 15.693 12.0005 15.8196 12 15.9468C12 16.0651 12.0075 16.1837 12.0183 16.302C12.0209 16.3287 12.0244 16.3552 12.0279 16.3817C12.0291 16.3909 12.0303 16.4001 12.0315 16.4094M12.0197 15.438L12.0435 16.7814L12.0434 16.7812C12.0351 16.743 12.0275 16.7062 12.0199 16.6662L12.0198 16.6654C12.0054 16.5831 11.9924 16.4998 11.9819 16.4156M12.0315 16.4094L11.9819 16.4156M12.0315 16.4094C12.0419 16.4926 12.0547 16.5751 12.069 16.6568L11.9819 16.4156M12.0315 16.4094L11.9819 16.4157C11.9819 16.4157 11.9819 16.4156 11.9819 16.4156M16.55 11.075V11.2102C16.55 11.839 17.0337 12.3443 17.625 12.3443C18.2163 12.3443 18.7 11.839 18.7 11.2102V11.075C18.6991 10.7734 18.5855 10.4851 18.3844 10.272L17.625 9.47264L16.8656 10.272L16.55 11.075ZM16.55 11.075C16.5509 10.7735 16.6645 10.4852 16.8655 10.2721L16.55 11.075ZM17.25 13.9232V13.9732H17.2L17.25 13.9232ZM4.925 6.47359C4.925 6.375 4.99339 6.25332 5.14521 6.1228C5.29522 5.99383 5.51866 5.8634 5.80854 5.74685C6.38788 5.51392 7.22515 5.33943 8.25 5.33943C9.27485 5.33943 10.1121 5.51392 10.6915 5.74685C10.9813 5.8634 11.2048 5.99383 11.3548 6.1228C11.5066 6.25332 11.575 6.375 11.575 6.47359C11.575 6.57217 11.5066 6.69385 11.3548 6.82438C11.2048 6.95335 10.9813 7.08377 10.6915 7.20032C10.1121 7.43325 9.27485 7.60774 8.25 7.60774C7.22515 7.60774 6.38788 7.43325 5.80854 7.20032C5.51866 7.08377 5.29522 6.95335 5.14521 6.82438C4.99339 6.69385 4.925 6.57217 4.925 6.47359ZM3.05 10.4208C3.05 10.2072 3.1736 9.97956 3.41897 9.75544C3.6637 9.53192 4.02418 9.31715 4.48369 9.13018C5.40234 8.75638 6.70823 8.49717 8.25 8.49717C9.79177 8.49717 11.0977 8.75638 12.0163 9.13018C12.4758 9.31715 12.8363 9.53192 13.081 9.75544C13.3264 9.97956 13.45 10.2072 13.45 10.4208C13.45 10.6343 13.3264 10.862 13.081 11.0861C12.8363 11.3096 12.4758 11.5244 12.0163 11.7113C11.0977 12.0851 9.79177 12.3443 8.25 12.3443C6.70823 12.3443 5.40234 12.0851 4.48369 11.7113C4.02418 11.5244 3.6637 11.3096 3.41897 11.0861C3.1736 10.862 3.05 10.6343 3.05 10.4208ZM15.3751 18.6598C13.9559 18.6583 12.8014 17.4469 12.8 15.9468C12.8 15.318 13.2837 14.8126 13.875 14.8126H21.375C21.9663 14.8126 22.45 15.318 22.45 15.9467C22.4484 17.4469 21.2941 18.6581 19.8749 18.6598H15.3751Z" fill="none" stroke="#FFFFFF" stroke-width="0.7"/>
</svg>
