<svg width="24" height="24" viewBox="0 0 24 24" fill="none" xmlns="http://www.w3.org/2000/svg"> <path d="M6.70284 4.79118L3.89823 2.59163L1.09363 4.79118C0.798758 5.02243 0.351115 5.27741 0.096727 5.00224C-0.184846 4.69767 0.20645 4.24358 0.53284 3.98762L3.59449 1.58662C3.75823 1.45388 4.00739 1.45151 4.18062 1.5724L5.05387 2.26453L5.78949 2.85237L8.72961 1.1007C9.05234 0.906339 9.42252 0.783083 9.79982 0.747528C10.1771 0.711973 10.5615 0.76175 10.9175 0.889747L13.1481 1.79995L14.4888 0.529459C14.8329 0.202355 15.2838 0.0151006 15.7584 0.000878677C16.233 -0.0133432 16.6933 0.145468 17.0564 0.448868L18.8741 1.90661C18.8741 1.90661 18.9283 1.87183 19.0019 1.7865C19.0754 1.70117 19.2925 1.53248 19.4891 1.54289C19.7752 1.55803 20.1549 1.90661 20.1549 1.90661L20.7084 2.34038L22.8554 4.03571C23.181 4.29284 23.5718 4.74736 23.2902 5.05202C23.0359 5.32706 22.5887 5.07122 22.2953 4.83842L19.529 2.64378L17.8119 4.63052C17.5456 4.9386 17.0901 5.30213 16.7954 5.02121C16.5181 4.75697 16.7995 4.30529 17.0492 4.01491L18.2286 2.64378L16.437 1.205C16.2543 1.05093 16.0241 0.967967 15.7892 0.977448C15.5543 0.984559 15.3289 1.077 15.158 1.23818L12.6551 3.60708C12.3714 3.87562 11.9175 4.18224 11.6436 3.9036C11.3635 3.61858 11.7026 3.16373 11.9944 2.89069L12.3698 2.53949L10.5639 1.80232C10.3527 1.72647 10.1154 1.69802 9.88525 1.72173C9.65744 1.74306 9.42964 1.81891 9.23268 1.9398L6.60817 3.5042L7.25715 3.99602C7.58721 4.24616 7.98088 4.69815 7.69974 5.00224C7.44535 5.27741 6.99771 5.02243 6.70284 4.79118Z" fill="#ffffff"></path> <path d="M19.4393 14.6659C18.9907 14.6659 18.5421 14.7407 18.1682 14.8902L16.7477 11.3014L18.6168 10.5537C18.8411 10.479 18.9159 10.2547 18.8411 10.0304C18.7664 9.95561 18.6916 9.88084 18.6168 9.80607C18.5421 9.73131 18.3925 9.73131 18.3178 9.80607L16.0748 10.778L16.2991 11.3762L10.6916 13.993L9.34579 13.8435L8.37383 10.8528H9.86916C10.0935 10.8528 10.3178 10.7033 10.3178 10.4042C10.3178 10.1051 10.1682 9.95561 9.86916 9.95561H6.50467C6.28037 9.95561 6.05608 10.1051 6.05608 10.4042C6.05608 10.7033 6.20561 10.8528 6.50467 10.8528H7.47664L8.82243 15.1893L8 15.7874C7.1028 14.8154 5.90654 14.2173 4.56075 14.2173C2.01869 14.2173 0 16.236 0 18.778C0 21.3201 2.01869 23.3388 4.56075 23.3388C5.60748 23.3388 6.57944 22.965 7.40187 22.3668C8.2243 21.7687 8.74766 20.8715 8.97196 19.8995L9.34579 19.9743C9.42056 20.2734 9.5701 20.4977 9.79439 20.722L9.64486 21.4696C9.5701 21.6939 9.71963 21.9182 9.94393 21.993C9.94393 21.993 10.0187 21.993 10.0935 21.993C10.243 21.993 10.4673 21.8435 10.4673 21.6939L10.6916 20.7967C11.3645 20.7967 11.8879 20.1986 11.8879 19.5257C11.8879 19.3762 11.8131 19.1519 11.7383 19.0023L16.4486 12.8715L17.3458 15.1145C15.7757 15.9369 14.8785 17.4322 14.8785 19.1519C14.8785 21.6939 16.8972 23.7126 19.4393 23.7126C21.9813 23.7126 24 21.6939 24 19.1519C24 16.6098 21.9813 14.6659 19.4393 14.6659ZM19.5888 19.6005C19.6636 19.5257 19.7383 19.4509 19.8131 19.3762C19.8879 19.3014 19.8879 19.1519 19.8131 19.0771L18.4673 15.6379C18.7664 15.5631 19.1402 15.4883 19.4393 15.4883C21.5327 15.4883 23.1776 17.1332 23.1776 19.2266C23.1776 21.3201 21.5327 22.965 19.4393 22.965C17.3458 22.965 15.7009 21.3201 15.7009 19.2266C15.7009 17.8808 16.4486 16.6098 17.6449 15.9369L18.9907 19.3762C19.0654 19.5257 19.215 19.6005 19.3645 19.6005C19.514 19.6005 19.5888 19.6005 19.5888 19.6005ZM8.52337 16.4603L9.19626 16.0117L10.0187 18.5537C9.79439 18.7033 9.64486 18.8528 9.5701 19.0771L9.19626 19.0023C9.19626 19.0023 9.19626 19.0023 9.19626 18.9276C9.19626 18.8528 9.19626 18.778 9.19626 18.7033C9.19626 17.9556 8.97196 17.2079 8.52337 16.4603ZM11.6636 17.7313C11.6636 17.6565 11.6636 17.507 11.6636 17.4322C11.5888 17.3575 11.514 17.2827 11.4393 17.2079C11.3645 17.2079 11.215 17.2079 11.1402 17.2079C11.0654 17.2827 10.9907 17.3575 10.9159 17.4322L10.7664 17.9556L9.94393 15.4136L10.9907 14.6659L15.4766 12.8715L11.5888 17.8808L11.6636 17.7313ZM10.6168 19.2266C10.6916 19.2266 10.8411 19.3014 10.9159 19.3762C10.9907 19.4509 11.0654 19.5257 11.0654 19.6752C11.0654 19.8995 10.8411 20.1238 10.6168 20.1238C10.3925 20.1238 10.1682 19.8995 10.1682 19.6752C10.1682 19.4509 10.3925 19.2266 10.6168 19.2266ZM8.37383 18.778V18.8528C8.37383 18.8528 8.37383 18.8528 8.37383 18.9276L5.68224 18.479L7.85047 16.9089C8.14953 17.507 8.37383 18.1799 8.37383 18.778ZM4.18692 18.8528C4.26168 19.0023 4.33645 19.1519 4.56075 19.1519L8.2243 19.6752C7.7757 21.3201 6.28037 22.4416 4.63551 22.4416C2.54206 22.4416 0.897197 20.7967 0.897197 18.7033C0.897197 16.6098 2.54206 14.965 4.63551 14.965C5.68224 14.965 6.72897 15.4136 7.40187 16.236L4.41122 18.3294C4.26168 18.479 4.18692 18.7033 4.18692 18.8528Z" fill="#ffffff"></path> <path fill-rule="evenodd" clip-rule="evenodd" d="M0 7.05004C0 6.80151 0.201472 6.60004 0.45 6.60004H1.5675C1.81603 6.60004 2.0175 6.80151 2.0175 7.05004C2.0175 7.29856 1.81603 7.50004 1.5675 7.50004H0.45C0.201472 7.50004 0 7.29856 0 7.05004ZM3.3525 7.05004C3.3525 6.80151 3.55397 6.60004 3.8025 6.60004H6.0375C6.28603 6.60004 6.4875 6.80151 6.4875 7.05004C6.4875 7.29856 6.28603 7.50004 6.0375 7.50004H3.8025C3.55397 7.50004 3.3525 7.29856 3.3525 7.05004ZM7.8225 7.05004C7.8225 6.80151 8.02397 6.60004 8.2725 6.60004H10.5075C10.756 6.60004 10.9575 6.80151 10.9575 7.05004C10.9575 7.29856 10.756 7.50004 10.5075 7.50004H8.2725C8.02397 7.50004 7.8225 7.29856 7.8225 7.05004ZM12.2925 7.05004C12.2925 6.80151 12.494 6.60004 12.7425 6.60004H14.9775C15.226 6.60004 15.4275 6.80151 15.4275 7.05004C15.4275 7.29856 15.226 7.50004 14.9775 7.50004H12.7425C12.494 7.50004 12.2925 7.29856 12.2925 7.05004ZM16.7625 7.05004C16.7625 6.80151 16.964 6.60004 17.2125 6.60004H19.4475C19.696 6.60004 19.8975 6.80151 19.8975 7.05004C19.8975 7.29856 19.696 7.50004 19.4475 7.50004H17.2125C16.964 7.50004 16.7625 7.29856 16.7625 7.05004ZM21.2325 7.05004C21.2325 6.80151 21.434 6.60004 21.6825 6.60004H22.8C23.0485 6.60004 23.25 6.80151 23.25 7.05004C23.25 7.29856 23.0485 7.50004 22.8 7.50004H21.6825C21.434 7.50004 21.2325 7.29856 21.2325 7.05004Z" fill="#ffffff"></path> </svg>