<svg width="24" height="24" viewBox="0 0 24 24" fill="none" xmlns="http://www.w3.org/2000/svg">
<path fill-rule="evenodd" clip-rule="evenodd" d="M12 6.90516L11.2434 9.23365C11.0125 9.94439 10.3502 10.4256 9.60285 10.4256H7.15452L9.13526 11.8647C9.73985 12.304 9.99283 13.0826 9.7619 13.7933L9.00533 16.1218L10.9861 14.6827C11.5907 14.2434 12.4093 14.2434 13.0139 14.6827L14.9947 16.1218L14.2381 13.7933C14.0072 13.0826 14.2601 12.304 14.8647 11.8647L16.8455 10.4256H14.3971C13.6498 10.4256 12.9875 9.94439 12.7566 9.23365L12 6.90516ZM12.7133 5.94528C12.4888 5.2543 11.5112 5.25429 11.2867 5.94528L10.3161 8.93236C10.2157 9.24138 9.92777 9.4506 9.60285 9.4506H6.46204C5.7355 9.4506 5.43341 10.3803 6.0212 10.8074L8.56217 12.6535C8.82503 12.8445 8.93503 13.183 8.83462 13.492L7.86406 16.4791C7.63954 17.1701 8.4304 17.7447 9.01819 17.3176L11.5592 15.4715C11.822 15.2805 12.178 15.2805 12.4408 15.4715L14.9818 17.3176C15.5696 17.7447 16.3604 17.1701 16.1359 16.4791L15.1654 13.492C15.065 13.183 15.175 12.8445 15.4378 12.6535L17.9788 10.8074C18.5666 10.3803 18.2645 9.4506 17.538 9.4506H14.3971C14.0722 9.4506 13.7843 9.24138 13.6838 8.93236L12.7133 5.94528Z" fill="#FFFFFF"/>
<path fill-rule="evenodd" clip-rule="evenodd" d="M12 22.95C18.0475 22.95 22.95 18.0475 22.95 12C22.95 5.95248 18.0475 1.05 12 1.05C5.95248 1.05 1.05 5.95248 1.05 12C1.05 18.0475 5.95248 22.95 12 22.95ZM12 24C18.6274 24 24 18.6274 24 12C24 5.37258 18.6274 0 12 0C5.37258 0 0 5.37258 0 12C0 18.6274 5.37258 24 12 24Z" fill="#FFFFFF"/>
</svg>
