<svg width="32" height="32" viewBox="0 0 32 32" fill="none" xmlns="http://www.w3.org/2000/svg"> <path d="M25.2 7.5C24.2 7 23.6 6 23.6 4.9H23.9C24.5 4.9 25 4.4 25 3.8V1.1C25 0.5 24.5 0 23.9 0H7.9C7.1 0 6.6 0.5 6.6 1.1V3.8C6.6 4.4 7.1 4.9 7.7 4.9H8C8 6 7.4 7 6.4 7.5C4.9 8.2 4 9.7 4 11.3V28.3C4 30 5.4 31.4 7.1 31.4H24.4C26.1 31.4 27.5 30 27.5 28.3V11.3C27.5 9.7 26.6 8.2 25.2 7.5ZM9.2 3.1C9.6 3.1 9.9 2.8 9.9 2.5V1.3H10.8V2.5C10.8 2.9 11.1 3.1 11.5 3.1C11.9 3.1 12 2.8 12 2.5V1.3H12.9V2.5C12.9 2.9 13.2 3.1 13.6 3.1C14 3.1 14.3 2.8 14.3 2.5V1.3H15.2V2.5C15.2 2.9 15.5 3.1 15.9 3.1C16.3 3.1 16.6 2.8 16.6 2.5V1.3H17.5V2.5C17.5 2.9 17.8 3.1 18.2 3.1C18.6 3.1 18.9 2.8 18.9 2.5V1.3H19.8V2.5C19.8 2.9 20.1 3.1 20.5 3.1C20.9 3.1 21.2 2.8 21.2 2.5V1.3H22.1V2.5C22.1 2.9 22.4 3.1 22.8 3.1C23.2 3.1 23 2.8 23 2.5V1.3H23.6V3.6H7.9V1.3H8.5V2.5C8.5 2.8 8.8 3.1 9.2 3.1ZM9.3 4.9H22.2C22.2 6.5 23.1 7.9 24.6 8.7C25.6 9.2 26.2 10.2 26.2 11.3V12.1H5.3V11.3C5.3 10.2 5.9 9.2 6.9 8.7C8.4 8 9.3 6.5 9.3 4.9ZM5.3 26.5V13.4H26.2V26.5H5.3ZM26.2 28.2C26.2 29.2 25.4 30 24.4 30H7.1C6.1 30 5.3 29.2 5.3 28.2V27.7H26.2V28.2Z" fill="#ffffff"></path> <path d="M12.8 15.1C12.7 15.1 12.7 15.1 12.6 15.1H12.5C12.4 15.1 12.4 15.2 12.4 15.2C12.4 15.2 12.4 15.2 12.3 15.2C12.2 15.3 12.2 15.3 12.2 15.4C12.2 15.5 12.2 15.6 12.2 15.7C12.2 16.4 12.3 22.5 15.1 23.9C15.5 24.1 15.9 24.2 16.3 24.2C17.1 24.2 17.9 23.9 18.5 23.4C18.6 23.7 18.7 24 18.7 24.2C18.8 24.5 19 24.8 19.4 24.8H19.5C19.9 24.7 20.1 24.4 20 24C19.9 23.5 19.8 23 19.6 22.6C20.3 22 21.7 20.6 21.3 19.1C20.7 17.1 18 15.8 12.8 15.1ZM17.8 22.1C16.9 22.8 16.1 23 15.5 22.7C14 22 13.6 18.3 13.5 17C15.4 18.2 16.9 20 17.8 22.1ZM18.9 21.2C18.2 19.6 17.2 18.3 15.9 17.1C19 17.9 19.7 18.8 19.8 19.3C20 20 19.3 20.8 18.9 21.2Z" fill="#ffffff"></path> </svg>