<svg width="33" height="32" viewBox="0 0 33 32" fill="none" xmlns="http://www.w3.org/2000/svg"> <path d="M29.4752 11.2517C30.1836 10.1485 30.1836 8.70049 29.4846 7.59412C30.0394 7.35906 30.5002 7.06445 30.8575 6.70715C31.5972 5.96435 32.0078 4.98022 32.0078 3.92713C32.0078 2.87718 31.6004 1.88991 30.8575 1.14711C30.1115 0.407444 29.1241 0 28.0741 0C27.024 0 26.0366 0.407444 25.2938 1.15024C24.9333 1.51068 24.6355 1.96827 24.4036 2.51675C23.3002 1.82096 21.8552 1.82096 20.7519 2.52928L19.1658 0.943389C18.8931 0.670715 18.4167 0.670715 18.1471 0.943389L0.211578 18.8772C-0.070526 19.1593 -0.070526 19.6168 0.211578 19.8958L12.1038 31.7869C12.2417 31.9248 12.4204 32 12.6148 32C12.8091 32 12.9878 31.9248 13.1257 31.79L31.0612 13.8562C31.3433 13.5741 31.3433 13.1166 31.0612 12.8376L29.4752 11.2517ZM28.4439 6.44074L25.5602 3.56043C25.742 2.95867 25.9928 2.49167 26.3125 2.17199C26.7826 1.70186 27.4064 1.44486 28.0709 1.44486C28.7354 1.44486 29.3592 1.705 29.8294 2.17199C30.7979 3.14045 30.7979 4.72008 29.8294 5.68854C29.5128 6.00823 29.0489 6.25896 28.4439 6.44074ZM19.0937 22.7604C18.959 22.8983 18.8837 23.077 18.8837 23.2713C18.8837 23.4656 18.959 23.6443 19.0937 23.779L13.3217 29.5505C12.9312 29.9409 12.2982 29.941 11.9077 29.5506L2.44862 20.0952C2.05796 19.7047 2.05791 19.0714 2.44852 18.6808L8.2202 12.9097C8.49603 13.1855 8.96307 13.1855 9.23891 12.9097C9.52101 12.6276 9.52101 12.1732 9.23891 11.8911L17.951 3.18277C18.3415 2.7924 18.9745 2.79246 19.365 3.18289L20.1877 4.00548C20.451 4.26876 20.9462 4.26876 21.2064 4.00548C21.5763 3.63565 22.0652 3.43506 22.5856 3.43506C23.1059 3.43506 23.598 3.63879 23.9647 4.00548L23.971 4.01175C23.8268 4.8047 23.7986 5.58511 23.8017 6.1712C22.8959 5.96121 21.9587 6.22449 21.291 6.88893C20.7832 7.39667 20.5011 8.07679 20.5011 8.79765C20.5011 9.51851 20.7832 10.1955 21.291 10.7064C21.7988 11.2141 22.479 11.4962 23.1999 11.4962C23.9209 11.4962 24.5979 11.2172 25.1088 10.7064C25.6166 10.1955 25.8987 9.51851 25.8987 8.79765C25.8987 8.18022 25.6824 7.57845 25.2938 7.09892C25.2656 6.77297 25.2217 6.09598 25.2687 5.3093L27.9926 8.03291C28.7542 8.79451 28.7542 10.0325 27.9926 10.7941C27.8546 10.9289 27.7794 11.1107 27.7794 11.305C27.7794 11.4962 27.8546 11.678 27.9894 11.8159L28.8122 12.6386C29.2026 13.029 29.2028 13.6619 28.8126 14.0525L20.1125 22.7604C19.8366 22.4846 19.3696 22.4846 19.0937 22.7604ZM24.0933 9.68462C23.8582 9.91969 23.5416 10.0513 23.2062 10.0513C22.8708 10.0513 22.5542 9.91969 22.3191 9.68462C22.0809 9.44642 21.9524 9.13301 21.9524 8.79765C21.9524 8.46229 22.084 8.14574 22.3191 7.91068C22.5542 7.67561 22.8708 7.54398 23.2062 7.54398C23.5416 7.54398 23.8582 7.67561 24.0933 7.91068C24.3315 8.14887 24.46 8.46229 24.46 8.79765C24.46 9.13301 24.3283 9.44956 24.0933 9.68462Z" fill="#ffffff"></path> <path d="M15.4102 18.0619C15.1282 17.7799 14.6706 17.783 14.3916 18.0619C14.2569 18.1967 14.1816 18.3785 14.1816 18.5728C14.1816 18.7671 14.2569 18.9458 14.3916 19.0837L15.2723 19.9644C15.4102 20.0992 15.5889 20.1744 15.7832 20.1744C15.9775 20.1744 16.1562 20.0992 16.2941 19.9613C16.432 19.8234 16.5041 19.6447 16.5041 19.4504C16.5041 19.2561 16.4289 19.0774 16.2941 18.9427L15.4102 18.0619Z" fill="#ffffff"></path> <path d="M17.7606 20.4127C17.4786 20.1307 17.021 20.1307 16.7389 20.4127C16.4568 20.6948 16.4568 21.1524 16.7389 21.4313L17.6196 22.312C17.7575 22.4468 17.9362 22.522 18.1305 22.522C18.3248 22.522 18.5034 22.4468 18.6413 22.312C18.7793 22.1741 18.8513 21.9924 18.8513 21.8012C18.8513 21.6069 18.7761 21.4282 18.6413 21.2903L17.7606 20.4127Z" fill="#ffffff"></path> <path d="M13.0627 15.7113C12.79 15.4387 12.3136 15.4387 12.0441 15.7113C11.9062 15.8492 11.8309 16.0279 11.8341 16.2222C11.8341 16.4165 11.9093 16.5952 12.0441 16.73L12.9248 17.6107C13.0627 17.7454 13.2413 17.8206 13.4356 17.8206C13.63 17.8206 13.8086 17.7454 13.9465 17.6075C14.0844 17.4696 14.1565 17.291 14.1565 17.0966C14.1565 16.9023 14.0813 16.7237 13.9465 16.5889L13.0627 15.7113Z" fill="#ffffff"></path> <path d="M10.7149 13.3578C10.4423 13.0852 9.96586 13.0852 9.69632 13.3578C9.55841 13.4926 9.48633 13.6744 9.48633 13.8687C9.48633 14.063 9.56155 14.2417 9.69632 14.3796L10.577 15.2603C10.7118 15.3982 10.8936 15.4734 11.0879 15.4734C11.2822 15.4734 11.4609 15.3982 11.5988 15.2634C11.7367 15.1286 11.8088 14.9469 11.8088 14.7525C11.8088 14.5582 11.7335 14.3796 11.5988 14.2417L10.7149 13.3578Z" fill="#ffffff"></path> </svg>