<svg width="32" height="32" viewBox="0 0 32 32" fill="none" xmlns="http://www.w3.org/2000/svg"> <path d="M25.6148 13.2409V10.6176C25.6148 10.5447 25.6148 10.456 25.5737 10.3609C25.4279 9.80649 24.9653 9.40729 24.4172 9.34393C24.3412 8.19703 23.7519 7.15467 22.8426 6.55271C22.7666 6.47667 22.6906 6.40063 22.5987 6.35628L22.5638 6.33727H22.5448C22.3674 6.20103 21.8383 5.67511 21.664 4.16703C21.6292 3.75832 21.5943 3.3813 21.5627 3.08032C21.4613 1.46452 21.2839 0.460187 19.0059 0.206728C16.6994 -0.0689092 14.7319 -0.0689092 12.4255 0.206728C10.1443 0.495037 9.96691 1.4867 9.86552 3.07081C9.85285 3.18804 9.84334 3.3116 9.83701 3.44467C9.82434 3.66011 9.80849 3.90406 9.76414 4.16069C9.56454 5.92223 8.86753 6.34994 8.86119 6.35311C8.79466 6.38796 8.70595 6.43232 8.64575 6.51786C7.63191 7.18636 7.00143 8.3491 7.00143 9.56254V22.4351C6.96658 23.6834 7.56855 24.8208 8.6109 25.4829C8.6711 25.5685 8.75981 25.6128 8.82634 25.6445C8.83268 25.6477 9.52969 26.0786 9.76414 27.8338C9.79899 28.2456 9.83384 28.6195 9.86552 28.9205C9.96691 30.5363 10.1443 31.5406 12.4223 31.7941C13.6135 31.9335 14.6591 32 15.7109 32C16.7691 32 17.8748 31.9303 19.0027 31.7941C21.2807 31.5058 21.4581 30.5141 21.5595 28.93C21.5722 28.8159 21.5817 28.6924 21.588 28.5593C21.6007 28.3439 21.6165 28.0999 21.6609 27.8401C21.8605 26.0786 22.5575 25.6509 22.5607 25.6477C22.6272 25.6128 22.7159 25.5685 22.7761 25.4829C23.8058 24.7954 24.4172 23.6612 24.4172 22.4414V22.0201H24.4299C24.7911 22.0201 25.0984 21.7127 25.0984 21.3516V17.2645C25.0984 16.9002 24.7911 16.596 24.4299 16.596L24.4172 15.4396C24.8006 15.3921 25.0604 15.1893 25.1871 15.0626C25.6909 14.5588 25.6465 13.7921 25.6148 13.2409ZM24.2778 13.488C24.281 13.6559 24.2873 14.1058 24.243 14.1692C24.2335 14.1723 24.2113 14.1723 24.2145 14.1755C24.1701 14.1565 24.0117 13.9981 23.8406 13.5482C23.6981 12.905 23.6854 12.2429 23.8058 11.6377C23.8945 11.191 24.0466 10.8583 24.2176 10.7126C24.2271 10.7094 24.2493 10.7094 24.2493 10.7094C24.2557 10.7126 24.2715 10.7221 24.281 10.7601C24.3095 10.8742 24.3095 11.0263 24.2778 11.2322V13.0032V13.488ZM20.6851 26.1071C20.5013 26.576 20.3777 27.1114 20.3239 27.7007C20.2795 27.9827 20.2637 28.2361 20.251 28.4579C20.2415 28.591 20.2352 28.7114 20.2225 28.8318L20.2193 28.8761C20.1211 30.2575 20.1148 30.3398 18.8285 30.4919C16.6329 30.7612 14.7605 30.7612 12.5649 30.4919C11.2754 30.3335 11.2691 30.2511 11.1708 28.8286C11.1582 28.7114 11.1518 28.5878 11.1423 28.4611C11.1265 28.2171 11.1106 27.9668 11.0663 27.7007C10.9871 27.1273 10.8667 26.6045 10.6924 26.1102H20.6851V26.1071ZM10.3217 24.7701C10.1221 24.7384 9.93522 24.7067 9.75463 24.6148L9.5487 24.5135L9.53603 24.4944H9.49801C9.48217 24.4881 9.45999 24.4754 9.43147 24.4691C8.73763 24.0477 8.30675 23.2842 8.30675 22.4731V9.59739C8.30675 8.33326 9.33643 7.30358 10.6006 7.30358H20.7864C22.0506 7.30358 23.0802 8.33326 23.0802 9.59739V9.98708C22.8046 10.3483 22.605 10.7981 22.4688 11.3748C22.2945 12.2492 22.3294 13.0983 22.5765 13.9094C22.7064 14.2991 22.8711 14.6159 23.0802 14.8693V22.4763C23.0802 23.2969 22.6399 24.0667 21.9365 24.4849C21.5405 24.7004 21.1635 24.8049 20.7864 24.8049H10.6006C10.5087 24.8018 10.4231 24.8018 10.3217 24.7701ZM18.8285 1.57857C20.1179 1.73699 20.1243 1.81936 20.2225 3.2419C20.2352 3.35912 20.2415 3.48269 20.251 3.60942C20.2669 3.85337 20.2827 4.10366 20.327 4.36979C20.4031 4.93691 20.5298 5.46917 20.7009 5.96025H10.7051C10.8889 5.49135 11.0124 4.95592 11.0663 4.36662C11.1106 4.08465 11.1265 3.83119 11.1392 3.60625C11.1487 3.47318 11.155 3.35279 11.1677 3.23239L11.1708 3.18804C11.2691 1.80669 11.2754 1.72431 12.5617 1.57224C14.7573 1.30611 16.6329 1.30611 18.8285 1.57857Z" fill="#ffffff"></path> <path d="M22.3776 14.2393C22.3396 13.9827 22.2319 13.7292 22.1337 13.4979C22.0956 13.3807 22.0196 13.2318 21.9499 13.1304C21.2339 11.8409 19.9349 11.0742 18.4743 11.0742C17.5049 11.0742 16.5259 11.4544 15.8194 12.1007L15.7528 12.0342C15.0653 11.4132 14.1434 11.0742 13.1612 11.0742C11.6848 11.0742 10.3541 11.8631 9.69199 13.1209C9.64446 13.1938 9.60961 13.2666 9.57159 13.3522C9.55259 13.3902 9.53358 13.4346 9.50823 13.4884C9.40368 13.7355 9.33081 13.9795 9.26428 14.2234C9.19141 14.4832 9.19141 14.7652 9.19141 15.0155C9.19141 17.8067 13.7188 21.1587 15.116 22.125C15.2871 22.2613 15.5089 22.3373 15.7053 22.3373C15.7465 22.3373 15.7845 22.3341 15.8225 22.3278H15.8891C16.1203 22.3278 16.3611 22.2518 16.5259 22.1282C17.9167 21.1651 22.4537 17.8067 22.4537 15.0155C22.4473 14.7272 22.4125 14.4801 22.3776 14.2393ZM10.7122 14.027C10.7312 13.989 10.7502 13.9415 10.7692 13.8971C10.785 13.8591 10.8009 13.8211 10.8135 13.7926C11.2666 12.953 12.1727 12.4112 13.1264 12.4112C13.779 12.4112 14.381 12.6393 14.834 13.0575C14.9893 13.1843 15.1192 13.3427 15.2491 13.5043C15.3821 13.6817 15.5976 13.7831 15.8257 13.7704C16.038 13.7609 16.2217 13.6595 16.3199 13.5011C16.8015 12.8263 17.6126 12.408 18.4395 12.408C19.409 12.408 20.2739 12.9245 20.7491 13.7862C20.765 13.8179 20.7808 13.8559 20.7967 13.8939C20.8157 13.9415 20.8347 13.9858 20.8474 14.0112C20.9139 14.1791 20.9773 14.3375 21.0089 14.4959C21.0533 14.7145 21.0755 14.8824 21.0755 15.0092C21.0755 16.6535 18.2367 19.2388 15.7845 20.9718C13.1359 19.1152 10.4872 16.5648 10.4872 15.0409C10.5062 14.949 10.5157 14.8508 10.5252 14.7494C10.5347 14.6607 10.5411 14.5751 10.5569 14.4927C10.5854 14.3407 10.652 14.1728 10.7122 14.027Z" fill="#ffffff"></path> </svg>