<svg width="16" height="16" viewBox="0 0 16 16" fill="none" xmlns="http://www.w3.org/2000/svg">
  <path d="M15.4037 1.78882C15.1056 1.49068 14.7081 1.29193 14.2112 1.29193H13.2174V0.496894C13.2174 0.198758 13.0186 0 12.8199 0C12.6211 0 12.4224 0.198758 12.4224 0.496894V1.29193H8.4472V0.496894C8.4472 0.198758 8.24845 0 7.95031 0C7.65217 0 7.55279 0.198758 7.55279 0.496894V1.29193H3.47826V0.496894C3.47826 0.198758 3.2795 0 3.08075 0C2.78261 0 2.58385 0.198758 2.58385 0.496894V1.29193H1.68944C0.795031 1.29193 0 2.08696 0 3.08075V14.2112C0 15.205 0.795031 16 1.68944 16H14.3106C15.205 16 16 15.205 16 14.2112V3.08075C16 2.58385 15.8012 2.08696 15.4037 1.78882ZM3.08075 3.2795C3.2795 3.2795 3.47826 3.08075 3.47826 2.78261V2.18634H7.55279V2.78261C7.55279 3.08075 7.75155 3.2795 7.95031 3.2795C8.14907 3.2795 8.34783 3.08075 8.34783 2.78261V2.18634H12.323V2.78261C12.323 3.08075 12.5217 3.2795 12.7205 3.2795C12.9193 3.2795 13.118 3.08075 13.118 2.78261V2.18634H14.1118C14.5093 2.18634 15.1056 2.58385 15.1056 3.08075V14.2112C15.1056 14.7081 14.5093 15.0062 14.1118 15.0062H1.68944C1.29193 15.0062 0.89441 14.6087 0.89441 14.2112V3.08075C0.89441 2.58385 1.29193 2.18634 1.68944 2.18634H2.58385V2.78261C2.58385 3.08075 2.78261 3.2795 3.08075 3.2795Z" fill="#050505"/>
  <path d="M6.16119 6.56066H6.85684C7.0556 6.56066 7.25436 6.3619 7.25436 6.16314C7.25436 5.96438 7.15498 5.76562 6.85684 5.76562H6.16119C5.96243 5.76562 5.76367 5.96438 5.76367 6.16314C5.76367 6.3619 5.96243 6.56066 6.16119 6.56066Z" fill="#050505"/>
  <path d="M9.044 6.56066H9.73965C9.93841 6.56066 10.1372 6.3619 10.1372 6.16314C10.1372 5.96438 9.93841 5.76562 9.73965 5.76562H9.044C8.84524 5.76563 8.64648 5.96438 8.64648 6.16314C8.64648 6.3619 8.84524 6.56066 9.044 6.56066Z" fill="#050505"/>
  <path d="M11.9258 6.56066H12.6215C12.8202 6.56066 13.019 6.3619 13.019 6.16314C13.019 5.96438 12.9196 5.76562 12.7209 5.76562H11.9258C11.7271 5.76562 11.5283 5.96438 11.5283 6.16314C11.5283 6.3619 11.7271 6.56066 11.9258 6.56066Z" fill="#050505"/>
  <path d="M6.16119 9.44197H6.85684C7.0556 9.44197 7.25436 9.24322 7.25436 9.04446C7.25436 8.8457 7.0556 8.64695 6.85684 8.64695H6.16119C5.96243 8.54757 5.76367 8.74632 5.76367 9.04446C5.76367 9.24322 5.96243 9.44197 6.16119 9.44197Z" fill="#050505"/>
  <path d="M3.27912 9.44197H3.97477C4.17353 9.44197 4.37229 9.24322 4.37229 9.04446C4.37229 8.8457 4.17353 8.64695 3.97477 8.64695H3.27912C2.98098 8.54757 2.78223 8.74632 2.78223 9.04446C2.78223 9.24322 2.98098 9.44197 3.27912 9.44197Z" fill="#050505"/>
  <path d="M9.044 9.43956H9.73965C9.93841 9.43956 10.1372 9.2408 10.1372 9.04205C10.1372 8.84329 9.93841 8.64453 9.73965 8.64453H9.044C8.84524 8.64453 8.64648 8.84329 8.64648 9.04205C8.64648 9.2408 8.84524 9.43956 9.044 9.43956Z" fill="#050505"/>
  <path d="M11.9258 9.43956H12.6215C12.8202 9.43956 13.019 9.2408 13.019 9.04205C13.019 8.84329 12.8202 8.64453 12.6215 8.64453H11.9258C11.7271 8.64453 11.5283 8.84329 11.5283 9.04205C11.5283 9.2408 11.7271 9.43956 11.9258 9.43956Z" fill="#050505"/>
  <path d="M6.16119 12.2247H6.85684C7.0556 12.2247 7.25436 12.026 7.25436 11.8272C7.25436 11.6284 7.0556 11.4297 6.85684 11.4297H6.16119C5.96243 11.4297 5.76367 11.6284 5.76367 11.8272C5.76367 12.026 5.96243 12.2247 6.16119 12.2247Z" fill="#050505"/>
  <path d="M3.27981 12.2247H3.97546C4.17422 12.2247 4.37298 12.026 4.37298 11.8272C4.37298 11.6284 4.17422 11.4297 3.97546 11.4297H3.27981C3.08105 11.4297 2.8823 11.6284 2.8823 11.8272C2.78292 12.026 2.98168 12.2247 3.27981 12.2247Z" fill="#050505"/>
  <path d="M9.044 12.2247H9.73965C9.93841 12.2247 10.1372 12.026 10.1372 11.8272C10.1372 11.6284 9.93841 11.4297 9.73965 11.4297H9.044C8.84524 11.4297 8.64648 11.6284 8.64648 11.8272C8.64648 12.026 8.84524 12.2247 9.044 12.2247Z" fill="#050505"/>
</svg>
