<svg width="16" height="16" viewBox="0 0 16 16" fill="none" xmlns="http://www.w3.org/2000/svg">
  <path fill-rule="evenodd" clip-rule="evenodd" d="M8 1.5C4.41015 1.5 1.5 4.41015 1.5 8C1.5 11.5899 4.41015 14.5 8 14.5C11.5899 14.5 14.5 11.5899 14.5 8C14.5 4.41015 11.5899 1.5 8 1.5ZM0.5 8C0.5 3.85786 3.85786 0.5 8 0.5C12.1421 0.5 15.5 3.85786 15.5 8C15.5 12.1421 12.1421 15.5 8 15.5C3.85786 15.5 0.5 12.1421 0.5 8ZM8 3.3C8.27614 3.3 8.5 3.52386 8.5 3.8V7.69098L11.0236 8.95279C11.2706 9.07628 11.3707 9.37662 11.2472 9.62361C11.1237 9.8706 10.8234 9.97071 10.5764 9.84721L7.77639 8.44721C7.607 8.36252 7.5 8.18939 7.5 8V3.8C7.5 3.52386 7.72386 3.3 8 3.3Z" fill="#0C353E"/>
</svg>
