<svg width="27" height="26" viewBox="0 0 27 26" fill="none" xmlns="http://www.w3.org/2000/svg">
  <g clip-path="url(#clip0)">
    <path fill-rule="evenodd" clip-rule="evenodd" d="M26.2529 6.4124C26.2543 7.31552 26.0078 8.16061 25.6251 8.98462C24.2359 11.9746 22.8622 14.9709 21.4813 17.9644C21.2012 18.5718 20.9171 19.1777 20.6318 19.7832C20.4888 20.0868 20.2245 20.2091 19.8916 20.1324C19.6893 20.0859 19.5694 19.9542 19.4892 19.7824C19.2521 19.274 19.0129 18.7665 18.778 18.2572C17.2981 15.0493 15.8179 11.8415 14.3414 8.6322C14.0801 8.06422 13.9352 7.46712 13.889 6.84908C13.7794 5.38031 14.1875 4.05094 15.1344 2.88192C16.1065 1.68166 17.3886 0.927882 18.9711 0.669945C20.858 0.362448 22.558 0.788974 24.0326 1.93973C25.1741 2.83066 25.88 3.97895 26.1471 5.35564C26.2144 5.70291 26.2364 6.05801 26.2792 6.40958L26.2529 6.4124ZM20.0585 12.2515C20.0777 12.2131 20.0885 12.193 20.0978 12.1723C20.8349 10.5271 21.5742 8.88277 22.3068 7.23574C22.4887 6.82677 22.5272 6.397 22.4306 5.96243C22.1611 4.74969 20.9717 3.9749 19.6758 4.16282C18.135 4.38634 17.227 5.9405 17.8392 7.29709C18.4353 8.61778 19.0239 9.94151 19.6159 11.2638C19.7604 11.5866 19.9051 11.9092 20.0585 12.2515Z" fill="white"/>
    <path d="M13.7802 0.883345C12.2019 4.30961 10.6299 7.72212 9.05229 11.1468H9.19137C10.2043 11.1468 11.2171 11.1464 12.23 11.147C12.6116 11.1472 12.9685 11.2299 13.2852 11.4383C13.5482 11.6114 13.7512 11.8301 13.8788 12.112C14.194 12.8082 14.5151 13.5019 14.8337 14.1966C14.847 14.2258 14.8588 14.2554 14.8795 14.3039H14.7366C12.3928 14.3039 10.0491 14.3045 7.7053 14.3016C7.60728 14.3014 7.56172 14.3306 7.52379 14.4135C6.88718 15.803 6.2545 17.1942 5.60545 18.5785C5.26738 19.2997 4.67681 19.7271 3.83395 19.8201C3.69363 19.8355 3.55165 19.8435 3.41048 19.8438C2.57044 19.8459 1.73034 19.8449 0.890428 19.8449C0.849424 19.8449 0.808604 19.8449 0.751038 19.8449C0.767415 19.8021 0.777019 19.7723 0.790133 19.7438C2.18921 16.7152 3.58903 13.6869 4.9878 10.6581C6.34538 7.7186 7.69723 4.77675 9.06244 1.84041C9.34104 1.24106 9.86055 0.904287 10.5554 0.887787C11.6021 0.862969 12.6499 0.878411 13.6972 0.877C13.7176 0.876928 13.7379 0.880032 13.7802 0.883345Z" fill="white"/>
    <path d="M12.4045 25.4674C12.66 25.4674 12.9015 25.4674 13.1429 25.4674C13.3226 25.4674 13.5023 25.4656 13.6819 25.4679C13.8281 25.4698 13.9275 25.5645 13.9314 25.7018C13.9334 25.7694 13.9317 25.837 13.9317 25.9096H11.8793V23.2847H13.9241C13.9241 23.3793 13.9355 23.4798 13.9209 23.577C13.9061 23.6771 13.8164 23.7224 13.6731 23.7226C13.293 23.7233 12.9129 23.7228 12.5328 23.7228H12.4059C12.4059 23.9344 12.4038 24.1384 12.4101 24.3421C12.4107 24.3573 12.4711 24.3831 12.5039 24.3834C12.8253 24.3865 13.1467 24.3853 13.468 24.3853C13.5088 24.3853 13.5498 24.3853 13.6105 24.3853C13.6048 24.4929 13.6092 24.5934 13.5915 24.6902C13.5749 24.7817 13.4887 24.8264 13.3576 24.8272C13.0811 24.8289 12.8046 24.8319 12.5284 24.8256C12.4276 24.8233 12.3979 24.8518 12.4023 24.9456C12.4102 25.1141 12.4045 25.2832 12.4045 25.4674Z" fill="white"/>
    <path d="M24.9493 23.2803H26.997C26.997 23.3707 27.0043 23.4582 26.9953 23.5441C26.983 23.6631 26.8955 23.7219 26.7428 23.7223C26.3591 23.7232 25.9754 23.7226 25.5917 23.7226C25.5544 23.7226 25.5172 23.7226 25.4733 23.7226V24.3818H26.6644C26.6644 24.4853 26.6741 24.5795 26.6619 24.6712C26.648 24.7751 26.5634 24.8258 26.4225 24.8269C26.146 24.8289 25.8695 24.8275 25.5929 24.8276C25.5557 24.8276 25.5185 24.8276 25.474 24.8276V25.4671H25.6095C25.9794 25.4671 26.3493 25.4668 26.7192 25.4673C26.9015 25.4676 26.9977 25.5598 26.9991 25.7339C26.9996 25.7891 26.9993 25.8443 26.9993 25.9071H24.9493V23.2803Z" fill="white"/>
    <path fill-rule="evenodd" clip-rule="evenodd" d="M14.4584 23.2769C14.6952 23.2769 14.9261 23.2742 15.1568 23.2777C15.4052 23.2815 15.6562 23.2718 15.9012 23.3027C16.3598 23.3605 16.6783 23.7319 16.6955 24.1603C16.7193 24.749 16.3362 25.1145 15.6772 25.1294C15.4531 25.1345 15.2287 25.1302 14.9898 25.1302C14.9898 25.3009 14.9898 25.4657 14.9898 25.6306C14.9897 25.8545 14.9259 25.9152 14.69 25.9153C14.6147 25.9153 14.5394 25.9153 14.4584 25.9153V23.2769ZM14.9936 24.6837C15.0417 24.6837 15.079 24.6838 15.1163 24.6837C15.3094 24.6829 15.5035 24.6926 15.6955 24.6788C15.9641 24.6595 16.1406 24.4896 16.1553 24.2599C16.1724 23.9921 16.0288 23.7727 15.7668 23.7429C15.5138 23.7141 15.2543 23.7367 14.9936 23.7367V24.6837Z" fill="white"/>
    <path d="M5.03141 25.2648C4.85052 25.7397 4.1681 26.0476 3.52797 25.95C2.85392 25.8472 2.3458 25.3082 2.32142 24.6705C2.29556 23.9929 2.7516 23.4139 3.42934 23.2642C4.0795 23.1205 4.78667 23.411 5.03707 23.9352C4.90969 23.9812 4.786 24.0435 4.65461 24.066C4.58842 24.0773 4.48407 24.0361 4.43838 23.9855C4.14489 23.6607 3.67838 23.6495 3.39018 23.7824C3.04595 23.9412 2.81692 24.3238 2.86106 24.6728C2.91346 25.0871 3.18935 25.4005 3.58917 25.4747C3.90748 25.5339 4.19248 25.4617 4.41886 25.2296C4.53129 25.1143 4.59624 25.0987 4.7477 25.155C4.84295 25.1905 4.93727 25.2283 5.03141 25.2648Z" fill="white"/>
    <path d="M24.4754 23.9366C24.3542 23.9811 24.2351 24.0315 24.1113 24.068C24.0043 24.0995 23.9281 24.0369 23.86 23.9675C23.6865 23.7909 23.4735 23.7011 23.2164 23.7028C22.786 23.7057 22.4241 23.9872 22.3256 24.3987C22.2261 24.8146 22.4472 25.245 22.8512 25.422C23.1784 25.5654 23.5785 25.4966 23.8361 25.2527C23.9998 25.0978 24.0287 25.0921 24.2437 25.175C24.3196 25.2042 24.3954 25.2339 24.4708 25.2632C24.3401 25.6211 23.8077 26.0494 22.9964 25.9529C22.3528 25.8763 21.7946 25.3424 21.7646 24.6659C21.7299 23.8835 22.3317 23.3642 22.8974 23.2604C23.7324 23.1073 24.2976 23.5432 24.4754 23.9366Z" fill="white"/>
    <path d="M10.1536 24.7941C10.175 24.7535 10.1905 24.7255 10.2045 24.6971C10.4024 24.2966 10.6033 23.8974 10.7964 23.4949C10.8711 23.3389 10.9832 23.2619 11.1676 23.2754C11.2704 23.283 11.3743 23.2768 11.5016 23.2768C11.0537 24.1656 10.6121 25.0416 10.1706 25.9177L10.1404 25.9202C9.70032 25.0454 9.26023 24.1706 8.81522 23.286C8.98317 23.286 9.13999 23.2759 9.29459 23.2896C9.3971 23.2986 9.4551 23.3802 9.49764 23.4675C9.69638 23.8747 9.89691 24.2812 10.0971 24.6877C10.1126 24.719 10.1298 24.7495 10.1536 24.7941Z" fill="white"/>
    <path d="M7.45927 23.2767C7.45927 23.3601 7.46272 23.4312 7.4586 23.502C7.45004 23.6483 7.37037 23.7206 7.21411 23.7224C7.03174 23.7246 6.84932 23.7229 6.65322 23.7229V23.8456C6.65322 24.4508 6.65347 25.0561 6.65322 25.6613C6.6531 25.8481 6.58377 25.914 6.38681 25.9149C6.30117 25.9153 6.21553 25.915 6.11869 25.915V23.725H5.32778C5.32778 23.6161 5.31744 23.5158 5.33086 23.4185C5.34342 23.327 5.42974 23.2779 5.54955 23.2772C5.83972 23.2757 6.12983 23.2767 6.42 23.2767C6.76158 23.2766 7.10328 23.2767 7.45927 23.2767Z" fill="white"/>
    <path d="M17.6445 25.4671C18.0491 25.4671 18.4391 25.467 18.8291 25.4671C19.0557 25.4671 19.1191 25.5264 19.1195 25.7384C19.1196 25.7932 19.1195 25.848 19.1195 25.9086H17.111V23.285C17.2353 23.285 17.3632 23.2722 17.4857 23.291C17.5385 23.2991 17.5931 23.3663 17.6224 23.4186C17.6477 23.4638 17.6437 23.5261 17.6438 23.5808C17.645 24.1701 17.6445 24.7593 17.6445 25.3485C17.6445 25.3837 17.6445 25.4191 17.6445 25.4671Z" fill="white"/>
    <path d="M1.15767 24.7053C1.3103 24.7053 1.44728 24.708 1.58415 24.7045C1.71098 24.7013 1.79311 24.7549 1.84077 24.8631C1.87882 24.9497 1.91896 25.0354 1.9644 25.1352C1.91914 25.1372 1.8835 25.1403 1.84803 25.1403C1.58206 25.1407 1.31602 25.1432 1.05017 25.1389C0.97561 25.1376 0.939532 25.1625 0.912195 25.2254C0.839237 25.3936 0.758582 25.5588 0.683284 25.7262C0.625164 25.8551 0.521791 25.915 0.375689 25.9149C0.255385 25.9148 0.135081 25.9149 0 25.9149C0.0533181 25.7977 0.101218 25.6909 0.150227 25.5846C0.4774 24.8766 0.806913 24.1694 1.13039 23.4598C1.19055 23.3278 1.27939 23.2666 1.43189 23.2752C1.55201 23.282 1.67293 23.2766 1.81392 23.2766C1.59351 23.7563 1.37864 24.2241 1.15767 24.7053Z" fill="white"/>
    <path d="M19.4423 25.9152C19.5478 25.6847 19.6464 25.4678 19.7463 25.2514C20.0211 24.6563 20.2985 24.0622 20.57 23.4658C20.631 23.3317 20.721 23.2654 20.8789 23.2754C20.9991 23.283 21.1202 23.2769 21.2569 23.2769C21.0374 23.7547 20.8222 24.2229 20.6004 24.7056C20.7505 24.7056 20.8839 24.7091 21.0172 24.7046C21.1527 24.7001 21.2394 24.7561 21.2884 24.8728C21.3237 24.9567 21.363 25.039 21.4089 25.1409C21.3551 25.1409 21.316 25.1409 21.2769 25.1409C21.0143 25.1409 20.7518 25.1428 20.4894 25.1395C20.4213 25.1386 20.3852 25.1562 20.3587 25.2192C20.2902 25.382 20.2088 25.54 20.1384 25.7021C20.0744 25.8494 19.9644 25.9211 19.7948 25.9159C19.6845 25.9126 19.574 25.9152 19.4423 25.9152Z" fill="white"/>
    <path d="M7.89535 23.2767C8.0002 23.2767 8.0896 23.2759 8.17899 23.2768C8.35317 23.2783 8.43025 23.3503 8.43087 23.5166C8.43216 23.8811 8.43124 24.2456 8.43124 24.61C8.43124 25.0071 8.43124 25.404 8.43124 25.8011V25.9133C8.30983 25.9133 8.19937 25.9205 8.09058 25.9115C7.95839 25.9005 7.89596 25.8216 7.89572 25.6798C7.89492 25.0909 7.89535 24.5018 7.89535 23.9127C7.89535 23.7051 7.89535 23.4973 7.89535 23.2767Z" fill="white"/>
  </g>
  <defs>
    <clipPath id="clip0">
      <rect width="27" height="25.3951" fill="white" transform="translate(0 0.573242)"/>
    </clipPath>
  </defs>
</svg>
