<svg width="16" height="16" viewBox="0 0 16 16" fill="none" xmlns="http://www.w3.org/2000/svg">
  <path fill-rule="evenodd" clip-rule="evenodd" d="M11.2037 7.3808V9.75199L14.9366 6.01902L11.1618 2.24417V4.61536H8.27225C4.15418 4.61536 2.06883 5.79372 1.31756 7.65108C1.05667 8.31356 0.9 9.1991 0.9 10.2913C0.9 10.6797 0.975565 11.1668 1.14018 11.7591C1.1561 11.6661 1.17394 11.5738 1.19384 11.4823C1.31443 10.9276 1.48761 10.4514 1.71768 10.0168C1.95536 9.56782 2.25479 9.18369 2.63942 8.85401C2.98676 8.55629 3.36215 8.30554 3.76505 8.10409C4.19266 7.89028 4.6756 7.74202 5.20025 7.64663C5.687 7.55813 6.17426 7.49166 6.66197 7.44733C7.15581 7.40243 7.70735 7.3808 8.31413 7.3808H11.2037ZM1.9454 13.9288C1.94573 13.9358 1.94607 13.9428 1.94641 13.9498C1.95077 14.0389 1.95557 14.1299 1.96054 14.2233C1.96111 14.234 1.96168 14.2448 1.96225 14.2556C1.96275 14.2649 1.96325 14.2742 1.96374 14.2836C1.96425 14.2931 1.96476 14.3027 1.96526 14.3122C1.96637 14.333 1.96748 14.354 1.96859 14.375C1.96859 14.4002 1.96859 14.4328 1.9731 14.4775C1.97612 14.5073 1.98114 14.5425 1.98953 14.5845C1.99253 14.5995 1.9951 14.6141 1.99731 14.6281C1.99906 14.6394 2.00058 14.6503 2.0019 14.6608C2.01047 14.7295 2.01047 14.7837 2.01047 14.8148C2.01047 14.8986 1.98953 14.9824 1.9267 15.0452C1.88481 15.108 1.80104 15.129 1.71727 15.129C1.61256 15.129 1.5288 15.0871 1.46597 14.9824L1.34031 14.7939C1.32834 14.7699 1.31634 14.7459 1.30436 14.7215C1.28388 14.6797 1.2634 14.6365 1.24292 14.5893C1.2335 14.5677 1.22408 14.5452 1.21466 14.5216C1.21278 14.517 1.2109 14.5123 1.20903 14.5078L1.20761 14.5044L1.20682 14.5025C1.19349 14.4707 1.18043 14.443 1.169 14.4188L1.16822 14.4172C1.16095 14.4018 1.15437 14.3878 1.14882 14.375C1.1378 14.3497 1.13089 14.3292 1.13089 14.3122C1.1051 14.2542 1.07975 14.1966 1.05484 14.1394C0.351612 12.5246 0 11.2419 0 10.2913C0 9.1185 0.167537 8.11326 0.481673 7.31745C1.44502 4.93001 4.04188 3.71536 8.27225 3.71536H10.2618V1.43263C10.2618 1.28604 10.3246 1.13944 10.4293 1.03473C10.534 0.930015 10.6806 0.867188 10.8272 0.867188C10.9738 0.867188 11.1204 0.930015 11.2251 1.03473L15.7906 5.60017C15.9581 5.70489 16 5.83054 16 5.99808C16 6.14468 15.9372 6.29127 15.8325 6.39598L11.267 10.9614C11.1623 11.0661 11.0157 11.129 10.8691 11.129C10.7225 11.129 10.5759 11.0661 10.4712 10.9614C10.3665 10.8567 10.3037 10.7101 10.3037 10.5635V8.2808H8.31413C7.72775 8.2808 7.20419 8.30175 6.74345 8.34363C6.28272 8.38552 5.82198 8.44834 5.36125 8.53211C4.90052 8.61588 4.50262 8.74153 4.16754 8.90907C3.83246 9.07661 3.51832 9.28604 3.22513 9.53734C2.93194 9.78865 2.70157 10.0819 2.51309 10.4379C2.32461 10.7939 2.17801 11.1918 2.0733 11.6735C1.96859 12.1551 1.9267 12.6787 1.9267 13.286C1.9267 13.4909 1.93453 13.7036 1.9454 13.9288Z" fill="white"/>
</svg>
