<svg width="26" height="26" viewBox="0 0 26 26" fill="none" xmlns="http://www.w3.org/2000/svg">
<g clip-path="url(#clip0_20549_223900)">
<path d="M25.7482 13.2998C25.7482 12.4161 25.6766 11.5276 25.5237 10.6582H13.2617V15.6643H20.2836C19.9922 17.2788 19.056 18.7071 17.685 19.6147V22.8629H21.8743C24.3343 20.5987 25.7482 17.2549 25.7482 13.2998Z" fill="#4285F4"/>
<path d="M13.2617 26.0011C16.7678 26.0011 19.7246 24.8499 21.879 22.8628L17.6897 19.6145C16.5242 20.4075 15.0195 20.8565 13.2664 20.8565C9.87492 20.8565 6.9993 18.5684 5.96752 15.4922H1.64453V18.8407C3.8514 23.2306 8.34635 26.0011 13.2617 26.0011V26.0011Z" fill="#34A853"/>
<path d="M5.9628 15.4919C5.41825 13.8774 5.41825 12.1291 5.9628 10.5145V7.16602H1.6446C-0.19924 10.8394 -0.19924 15.1671 1.6446 18.8405L5.9628 15.4919V15.4919Z" fill="#FBBC04"/>
<path d="M13.2617 5.14547C15.115 5.1168 16.9063 5.81421 18.2486 7.09439L21.9602 3.38283C19.61 1.17596 16.4908 -0.0373382 13.2617 0.000876055C8.34635 0.000876055 3.8514 2.77141 1.64453 7.16604L5.96274 10.5146C6.98974 7.43354 9.87014 5.14547 13.2617 5.14547V5.14547Z" fill="#EA4335"/>
</g>
<defs>
<clipPath id="clip0_20549_223900">
<rect width="26" height="26" fill="white"/>
</clipPath>
</defs>
</svg>
