<svg width="73" height="60" viewBox="0 0 73 60" fill="none" xmlns="http://www.w3.org/2000/svg">
<g clip-path="url(#clip0)">
<path d="M72.4303 14.7109C71.7174 10.5282 69.7213 6.92246 66.442 4.18207C62.3072 0.720536 57.4596 -0.721772 52.0416 0.287844C47.4791 1.009 43.9147 3.46092 41.0631 7.06669C38.3542 10.6725 37.2135 14.7109 37.4987 19.1821C37.6413 21.0571 38.069 22.9321 38.7819 24.6628C43.0592 34.4705 47.194 44.2782 51.4713 54.2301C52.1842 55.8167 52.7545 57.4032 53.4674 58.8455C53.7526 59.4225 54.0377 59.7109 54.608 59.8551C55.6061 60.1436 56.319 59.7109 56.7467 58.8455C57.6022 56.9705 58.315 55.0955 59.1705 53.2205C63.1627 43.9898 67.0123 34.9032 71.0045 25.6725C72.1451 23.0763 72.858 20.6244 72.858 17.7398C72.858 17.7398 72.858 17.4357 72.858 17.265C72.858 17.0943 72.5728 15.7205 72.4303 14.7109ZM61.4518 20.4802C59.3131 25.5282 57.317 30.5763 55.1783 35.6244C55.1783 35.6244 55.1783 35.7686 55.0358 35.9128C54.608 34.9032 54.1803 33.8936 53.7526 32.884C52.0416 28.8455 50.3307 24.8071 48.6198 20.7686C46.9088 16.5859 49.4752 11.8263 53.8951 11.1052C57.6022 10.5282 61.024 12.8359 61.7369 16.5859C62.1646 17.884 62.0221 19.1821 61.4518 20.4802Z" fill="#CFF1F8"/>
<path d="M37.2118 1.01039C32.6493 11.5392 28.2294 21.9239 23.6669 32.4527H24.0946C26.9462 32.4527 29.9403 32.4527 32.7919 32.4527C33.9325 32.4527 34.9305 32.7412 35.786 33.3181C36.4989 33.895 37.0692 34.4719 37.4969 35.3373C38.3524 37.5008 39.3504 39.6642 40.2059 41.6835C40.2059 41.8277 40.3485 41.8277 40.3485 41.9719H39.9207C33.2196 41.9719 26.5185 41.9719 19.8173 41.9719C19.5322 41.9719 19.3896 42.1162 19.247 42.2604C17.3935 46.5873 15.6826 50.77 13.829 55.0969C12.831 57.2604 11.1201 58.5585 8.83883 58.8469C8.4111 58.8469 7.98337 58.8469 7.69821 58.9912C5.27439 58.9912 2.85058 58.9912 0.569334 58.9912C0.426757 58.9912 0.284179 58.9912 0.141602 58.9912C0.141602 58.8469 0.284179 58.7027 0.284179 58.7027C4.27635 49.4719 8.26852 40.0969 12.2607 30.8662C16.1103 21.7796 19.9599 12.8373 23.8095 3.89501C24.6649 2.02001 26.0907 1.01039 28.0868 1.01039C31.0809 0.866161 34.0751 1.01039 37.0692 1.01039C36.9266 0.866161 37.0692 1.01039 37.2118 1.01039Z" fill="#0C353E"/>
<path d="M53.4658 58.8458C53.7509 59.4228 54.0361 59.7112 54.6064 59.8555C55.6044 60.1439 56.3173 59.7112 56.7451 58.8458C57.6005 56.9708 58.3134 55.0958 59.1689 53.2209C62.8759 44.4228 66.7255 35.6247 70.4325 26.8267H58.7412C57.6005 29.7113 56.3173 32.5959 55.1767 35.4805C55.1767 35.4805 55.1767 35.6247 55.0341 35.769C54.6064 34.7593 54.1787 33.7497 53.7509 32.7401C52.8955 30.8651 52.1826 28.8459 51.3271 26.9709H39.6357C43.4853 36.0574 47.4775 45.1439 51.3271 54.2305C52.04 55.817 52.7529 57.4035 53.4658 58.8458Z" fill="#0C353E"/>
</g>
<defs>
<clipPath id="clip0">
<rect width="72.8571" height="60" fill="white"/>
</clipPath>
</defs>
</svg>