<svg width="32" height="32" viewBox="0 0 32 32" fill="none" xmlns="http://www.w3.org/2000/svg">
  <path d="M25.6148 13.2409V10.6176C25.6148 10.5447 25.6148 10.456 25.5737 10.3609C25.4279 9.80649 24.9653 9.40729 24.4172 9.34393C24.3412 8.19703 23.7519 7.15467 22.8426 6.55271C22.7666 6.47667 22.6906 6.40063 22.5987 6.35628L22.5638 6.33727H22.5448C22.3674 6.20103 21.8383 5.67511 21.664 4.16703C21.6292 3.75832 21.5943 3.3813 21.5627 3.08032C21.4613 1.46452 21.2839 0.460187 19.0059 0.206728C16.6994 -0.0689092 14.7319 -0.0689092 12.4255 0.206728C10.1443 0.495037 9.96691 1.4867 9.86552 3.07081C9.85285 3.18804 9.84334 3.3116 9.83701 3.44467C9.82434 3.66011 9.80849 3.90406 9.76414 4.16069C9.56454 5.92223 8.86753 6.34994 8.86119 6.35311C8.79466 6.38796 8.70595 6.43232 8.64575 6.51786C7.63191 7.18636 7.00143 8.3491 7.00143 9.56254V22.4351C6.96658 23.6834 7.56855 24.8208 8.6109 25.4829C8.6711 25.5685 8.75981 25.6128 8.82634 25.6445C8.83268 25.6477 9.52969 26.0786 9.76414 27.8338C9.79899 28.2456 9.83384 28.6195 9.86552 28.9205C9.96691 30.5363 10.1443 31.5406 12.4223 31.7941C13.6135 31.9335 14.6591 32 15.7109 32C16.7691 32 17.8748 31.9303 19.0027 31.7941C21.2807 31.5058 21.4581 30.5141 21.5595 28.93C21.5722 28.8159 21.5817 28.6924 21.588 28.5593C21.6007 28.3439 21.6165 28.0999 21.6609 27.8401C21.8605 26.0786 22.5575 25.6509 22.5607 25.6477C22.6272 25.6128 22.7159 25.5685 22.7761 25.4829C23.8058 24.7954 24.4172 23.6612 24.4172 22.4414V22.0201H24.4299C24.7911 22.0201 25.0984 21.7127 25.0984 21.3516V17.2645C25.0984 16.9002 24.7911 16.596 24.4299 16.596L24.4172 15.4396C24.8006 15.3921 25.0604 15.1893 25.1871 15.0626C25.6909 14.5588 25.6465 13.7921 25.6148 13.2409ZM24.2778 13.488C24.281 13.6559 24.2873 14.1058 24.243 14.1692C24.2335 14.1723 24.2113 14.1723 24.2145 14.1755C24.1701 14.1565 24.0117 13.9981 23.8406 13.5482C23.6981 12.905 23.6854 12.2429 23.8058 11.6377C23.8945 11.191 24.0466 10.8583 24.2176 10.7126C24.2271 10.7094 24.2493 10.7094 24.2493 10.7094C24.2557 10.7126 24.2715 10.7221 24.281 10.7601C24.3095 10.8742 24.3095 11.0263 24.2778 11.2322V13.488ZM20.6851 26.1071C20.5013 26.576 20.3777 27.1114 20.3239 27.7007C20.2795 27.9827 20.2637 28.2361 20.251 28.4579C20.2415 28.591 20.2352 28.7114 20.2225 28.8318L20.2193 28.8761C20.1211 30.2575 20.1148 30.3398 18.8285 30.4919C16.6329 30.7612 14.7605 30.7612 12.5649 30.4919C11.2754 30.3335 11.2691 30.2511 11.1708 28.8286C11.1582 28.7114 11.1518 28.5878 11.1423 28.4611C11.1265 28.2171 11.1106 27.9668 11.0663 27.7007C10.9871 27.1272 10.8667 26.6045 10.6924 26.1102H20.6851V26.1071ZM10.3217 24.7701C10.1221 24.7384 9.93522 24.7067 9.75463 24.6148L9.5487 24.5135L9.53603 24.4944H9.49801C9.48217 24.4881 9.45999 24.4754 9.43147 24.4691C8.73763 24.0477 8.30675 23.2842 8.30675 22.4731V9.59739C8.30675 8.33326 9.33643 7.30358 10.6006 7.30358H20.7864C22.0506 7.30358 23.0802 8.33326 23.0802 9.59739V9.98708C22.8046 10.3483 22.605 10.7981 22.4688 11.3748C22.2945 12.2492 22.3294 13.0983 22.5765 13.9094C22.7064 14.2991 22.8711 14.6159 23.0802 14.8693V22.4763C23.0802 23.2969 22.6399 24.0667 21.9365 24.4849C21.5405 24.7004 21.1635 24.8049 20.7864 24.8049H10.6006C10.5087 24.8018 10.4231 24.8018 10.3217 24.7701ZM18.8285 1.57857C20.1179 1.73699 20.1243 1.81936 20.2225 3.2419C20.2352 3.35912 20.2415 3.48269 20.251 3.60942C20.2669 3.85337 20.2827 4.10366 20.327 4.36979C20.4031 4.93691 20.5298 5.46917 20.7009 5.96025H10.7051C10.8889 5.49135 11.0124 4.95592 11.0663 4.36662C11.1106 4.08465 11.1265 3.83119 11.1392 3.60625C11.1487 3.47318 11.155 3.35279 11.1677 3.23239L11.1708 3.18804C11.2691 1.80669 11.2754 1.72431 12.5617 1.57224C14.7573 1.30611 16.6329 1.30611 18.8285 1.57857Z" fill="#fff"/>
  <path d="M22.3767 14.239C22.3387 13.9824 22.231 13.729 22.1328 13.4977C22.0948 13.3805 22.0187 13.2315 21.949 13.1302C21.233 11.8407 19.934 11.074 18.4735 11.074C17.504 11.074 16.525 11.4542 15.8185 12.1005L15.7519 12.034C15.0644 11.413 14.1425 11.074 13.1603 11.074C11.6839 11.074 10.3533 11.8629 9.6911 13.1207C9.64358 13.1935 9.60873 13.2664 9.57071 13.3519C9.5517 13.39 9.53269 13.4343 9.50735 13.4882C9.4028 13.7353 9.32993 13.9793 9.26339 14.2232C9.19052 14.483 9.19052 14.765 9.19052 15.0153C9.19052 17.8065 13.7179 21.1585 15.1151 22.1248C15.2862 22.261 15.508 22.3371 15.7044 22.3371C15.7456 22.3371 15.7836 22.3339 15.8216 22.3276H15.8882C16.1195 22.3276 16.3602 22.2515 16.525 22.128C17.9159 21.1648 22.4528 17.8065 22.4528 15.0153C22.4464 14.727 22.4116 14.4798 22.3767 14.239ZM10.7113 14.0268C10.7303 13.9888 10.7493 13.9412 10.7683 13.8969C10.7841 13.8589 10.8 13.8208 10.8127 13.7923C11.2657 12.9527 12.1718 12.411 13.1255 12.411C13.7781 12.411 14.3801 12.6391 14.8332 13.0573C14.9884 13.184 15.1183 13.3424 15.2482 13.504C15.3813 13.6814 15.5967 13.7828 15.8248 13.7702C16.0371 13.7606 16.2208 13.6593 16.3191 13.5009C16.8006 12.826 17.6117 12.4078 18.4386 12.4078C19.4081 12.4078 20.273 12.9242 20.7483 13.786C20.7641 13.8177 20.7799 13.8557 20.7958 13.8937C20.8148 13.9412 20.8338 13.9856 20.8465 14.0109C20.913 14.1789 20.9764 14.3373 21.0081 14.4957C21.0524 14.7143 21.0746 14.8822 21.0746 15.0089C21.0746 16.6532 18.2358 19.2385 15.7836 20.9716C13.135 19.115 10.4863 16.5645 10.4863 15.0406C10.5053 14.9487 10.5148 14.8505 10.5244 14.7491C10.5339 14.6604 10.5402 14.5749 10.556 14.4925C10.5845 14.3404 10.6511 14.1725 10.7113 14.0268Z" fill="#fff"/>
</svg>
