<svg width="24" height="24" viewBox="0 0 24 24" fill="none" xmlns="http://www.w3.org/2000/svg"> <path d="M19.9141 5.165C19.3404 4.83037 18.5995 4.80647 17.7151 5.1411C17.6912 4.1133 17.3326 3.13331 16.7112 2.32063C14.7751 -0.0935021 10.8312 0.00210708 10.401 0.00210708C10.2576 0.00210708 6.74393 -0.141306 4.59272 1.93819C3.46931 3.0616 2.94346 4.56744 2.99127 6.45572C3.01517 7.07718 3.13468 7.69864 3.3737 8.2723C3.46931 11.1645 3.87565 15.2279 5.3815 18.0722V22.7571C5.3815 23.4502 5.93125 24 6.62441 24H14.2014C14.8946 24 15.4444 23.4502 15.4444 22.7571V18.1917C16.4244 17.3791 21.0136 13.2679 21.0136 8.00937C21.0136 6.57524 20.6551 5.61914 19.9141 5.165ZM14.56 20.0083V21.5142H9.06245V20.0083H14.56ZM6.28978 18.4308H14.56V19.1239H9.01464C8.5605 19.1239 8.17806 19.5064 8.17806 19.9605V21.562C8.17806 22.0161 8.5605 22.3985 9.01464 22.3985H14.5361V22.7571C14.5361 22.9483 14.3688 23.1156 14.1775 23.1156H6.62441C6.4332 23.1156 6.26588 22.9483 6.26588 22.7571V18.4308H6.28978ZM12.2175 17.5225H6.09856C4.92735 15.2279 4.49711 12.0967 4.3537 9.80204C5.83564 11.5469 8.34538 12.6703 10.8312 12.6703C12.4088 12.6703 16.2092 12.1923 17.4043 7.74645C17.5478 7.2206 17.6434 6.67084 17.6912 6.12109C18.2409 5.85817 18.958 5.64305 19.436 5.92987C19.8663 6.1928 20.1053 6.90987 20.1053 8.00937C20.1053 10.065 19.3165 12.2162 17.739 14.3674C16.52 16.0405 15.2053 17.1878 14.8229 17.5225H12.2175ZM16.5439 7.50742C15.5878 11.0689 12.4805 12.025 9.92293 11.7142C6.09856 11.284 3.97126 8.65473 3.89955 6.40792C3.85175 4.78256 4.28199 3.49184 5.23808 2.58355C6.81563 1.006 9.42098 0.886492 10.1859 0.886492C12.1219 0.886492 14.6795 1.24503 16.018 2.89428C16.9024 3.99379 17.0697 5.54744 16.5439 7.50742Z" fill="#ffffff"></path> <path d="M12.8606 16.0172L11.4026 14.9894L12.8606 13.9616C12.9562 13.8899 13.0279 13.7943 13.0518 13.6748C13.0757 13.5553 13.0518 13.4358 12.9801 13.3402C12.8367 13.1489 12.5499 13.1011 12.3586 13.2207L10.6138 14.4397L8.86891 13.2207C8.65379 13.0772 8.39086 13.1489 8.24745 13.3402C8.10404 13.5314 8.15184 13.8182 8.34306 13.9616L9.8011 14.9894L8.36696 16.0172C8.22355 16.1128 8.15184 16.2562 8.17574 16.4236C8.19965 16.5909 8.29525 16.7343 8.43867 16.806C8.58208 16.8777 8.7494 16.8538 8.89281 16.7582L10.6377 15.5392L12.3825 16.7582C12.4543 16.806 12.5499 16.8538 12.6455 16.8538C12.7172 16.8538 12.765 16.8299 12.8367 16.806C12.9801 16.7343 13.0757 16.5909 13.0996 16.4236C13.0757 16.2562 13.004 16.1128 12.8606 16.0172Z" fill="#ffffff"></path> </svg>