<svg width="32" height="32" viewBox="0 0 32 32" fill="none" xmlns="http://www.w3.org/2000/svg">
  <path d="M12.484 11.9331C12.1673 11.9331 11.8729 11.9434 11.5794 11.9308C11.0348 11.9075 10.5761 11.5547 10.4291 11.067C10.3902 10.9383 10.3785 10.7979 10.3754 10.6624C10.3681 10.3325 10.3791 10.0023 10.3718 9.67188C10.3565 9.01492 10.8442 8.52406 11.392 8.43537C11.4011 8.43385 11.4092 8.42546 11.4277 8.41449V3.50501C11.3981 3.49632 11.3618 3.48261 11.3243 3.47453C10.8175 3.37106 10.3701 2.87319 10.373 2.30598C10.3748 1.93537 10.3695 1.56459 10.3742 1.19352C10.3821 0.572517 10.8355 0.116406 11.4333 0.0048546C11.4776 -0.00337461 11.5247 0.00134956 11.5704 0.00134956H14.7839C15.2551 0.00134956 15.7363 0.306135 15.9167 0.799278C15.9527 0.897723 15.981 1.00516 15.9824 1.10894C15.9884 1.54524 15.9986 1.98261 15.9765 2.41815C15.9554 2.83311 15.7275 3.13927 15.3714 3.34164C15.2368 3.41784 15.0818 3.4596 14.9294 3.5201V8.41129C14.9599 8.4212 14.9904 8.43369 15.0236 8.44177C15.5065 8.56368 15.8216 8.86131 15.9556 9.34348C15.9748 9.41155 15.9851 9.48184 15.9861 9.55256C15.9888 9.96402 16.0013 10.3755 15.9839 10.7869C15.9664 11.2203 15.7413 11.5422 15.3729 11.7607C15.175 11.8776 14.9487 11.9375 14.719 11.934C14.4505 11.9322 14.1818 11.934 13.9051 11.934C13.8979 11.9773 13.8899 12.0102 13.8874 12.0434C13.8847 12.0739 13.8874 12.1044 13.8874 12.1349C13.8874 15.6841 13.8877 19.2334 13.8882 22.7827C13.8882 23.3596 14.0711 23.8799 14.4293 24.3296C14.7705 24.7585 15.2161 25.035 15.7503 25.1687C15.9616 25.2213 16.1785 25.2474 16.3961 25.2466C16.7363 25.2466 17.0765 25.2501 17.4171 25.2449C17.8828 25.2377 18.3198 25.1132 18.7098 24.8624C19.2157 24.5369 19.5685 24.0887 19.7393 23.5012C19.8184 23.2289 19.8582 22.9466 19.8574 22.6631C19.8574 20.9468 19.8574 19.2306 19.8574 17.5143C19.8574 16.9631 19.94 16.4258 20.1265 15.9076C20.3455 15.2948 20.6819 14.7305 21.117 14.2466C21.5009 13.8183 21.9486 13.4767 22.4453 13.1951C22.5857 13.1157 22.7361 13.052 22.886 12.9916C23.2873 12.8301 23.6998 12.7075 24.1304 12.6534C24.6493 12.5876 25.1755 12.6077 25.6879 12.7129C26.1154 12.8006 26.5298 12.9428 26.921 13.1361C27.2476 13.2972 27.5514 13.5018 27.8353 13.7335C28.3124 14.1212 28.7151 14.5923 29.0239 15.1239C29.3019 15.6025 29.4952 16.1254 29.5953 16.6698C29.6629 17.0291 29.6883 17.3916 29.688 17.7571C29.6866 20.4786 29.6861 23.2002 29.6865 25.922C29.6865 26.4657 29.6089 26.9997 29.4716 27.527C29.3497 27.9965 29.1594 28.4375 28.9253 28.8575C28.6813 29.2911 28.3834 29.692 28.0386 30.0506C27.6434 30.4671 27.191 30.8253 26.6949 31.1143C26.1561 31.4296 25.5693 31.6543 24.9577 31.7795C24.5146 31.8699 24.0676 31.9043 23.6149 31.904C19.0502 31.9007 14.4856 31.9001 9.92118 31.9022C9.27903 31.9022 8.66416 31.7629 8.07733 31.5111C7.71772 31.3582 7.37899 31.1602 7.06931 30.9218C6.58762 30.5486 6.17954 30.1114 5.85298 29.596C5.47522 28.9997 5.24664 28.3502 5.14653 27.6547C5.12294 27.4841 5.11158 27.312 5.11254 27.1397C5.11072 22.1485 5.11016 17.1572 5.11087 12.1658V11.9463C5.06073 11.9412 5.02203 11.934 4.98348 11.9337C4.76008 11.9326 4.53653 11.9287 4.31298 11.9337C3.93126 11.9431 3.60028 11.8081 3.33773 11.5445C3.1477 11.3534 3.01863 11.1068 3.01101 10.8269C2.99974 10.406 2.99425 9.98414 3.00873 9.56353C3.02793 9.00242 3.45186 8.53702 4.00502 8.43781C4.02204 8.4324 4.03852 8.42541 4.05424 8.41693V3.50836C4.02481 3.49612 3.99456 3.48594 3.96372 3.47788C3.4319 3.36923 3.01985 2.88218 3.00812 2.36298C2.99898 1.95731 2.99639 1.55088 3.00919 1.14536C3.02564 0.622045 3.4034 0.181173 3.92151 0.0406669C4.01988 0.0151634 4.12116 0.00261191 4.22277 0.00333067C5.27372 0.00119717 6.32471 0.00119717 7.37575 0.00333067C7.84388 0.00333067 8.19863 0.209823 8.45128 0.603758C8.57182 0.791048 8.61723 0.991902 8.61586 1.20891C8.61311 1.60985 8.60824 2.01095 8.60885 2.4119C8.60885 2.59111 8.54667 2.74472 8.45646 2.8962C8.32116 3.13119 8.11061 3.31373 7.85881 3.41434C7.77089 3.45015 7.67763 3.47301 7.57873 3.50425V8.42653C7.77256 8.46158 7.95238 8.52909 8.10705 8.64567C8.42705 8.88706 8.61967 9.19916 8.6157 9.61337C8.61159 10.0401 8.6119 10.4668 8.60367 10.8924C8.60054 10.9732 8.58175 11.0527 8.54835 11.1263C8.3821 11.5023 8.11756 11.7757 7.70841 11.8793C7.58131 11.9103 7.45123 11.9276 7.32044 11.9308C7.05681 11.9386 6.79304 11.9331 6.51844 11.9331C6.51356 11.98 6.50777 12.0186 6.50595 12.0574C6.50412 12.0963 6.50595 12.1387 6.50595 12.1794C6.50595 17.0741 6.50681 21.9689 6.50854 26.8638C6.50854 27.4191 6.59829 27.9637 6.84378 28.4709C7.03959 28.875 7.29194 29.2365 7.62094 29.5485C8.1267 30.0285 8.72771 30.3104 9.40246 30.4476C9.5608 30.4799 9.72194 30.4965 9.88354 30.4971C14.5496 30.4997 19.2157 30.4991 23.8819 30.4951C24.6086 30.4939 25.2896 30.2807 25.9262 29.9258C26.205 29.7703 26.4675 29.5873 26.7098 29.3795C27.1549 28.9985 27.5001 28.5413 27.7705 28.0232C28.0029 27.5791 28.1422 27.1048 28.225 26.6137C28.2523 26.4436 28.2655 26.2716 28.2644 26.0994C28.2667 23.2204 28.2667 20.3414 28.2644 17.4624C28.2635 16.8726 28.0846 16.3253 27.7951 15.8165C27.6395 15.5422 27.4556 15.2866 27.2267 15.0678C26.7016 14.5658 26.0917 14.2263 25.3708 14.0925C24.7415 13.9752 24.1275 14.0265 23.5329 14.254C23.0069 14.4553 22.5479 14.7586 22.166 15.1836C21.6371 15.7716 21.3626 16.4637 21.2631 17.237C21.2555 17.297 21.2601 17.3589 21.2601 17.4198C21.2601 19.2123 21.2595 21.0047 21.2584 22.797C21.2575 23.3343 21.1563 23.8561 20.937 24.3465C20.7792 24.6986 20.5701 25.0254 20.3167 25.3164C19.9442 25.7455 19.4972 26.0716 18.9888 26.3123C18.6344 26.4779 18.2544 26.5819 17.8651 26.6201C17.2775 26.681 16.6876 26.6614 16.1007 26.6417C15.5064 26.6218 14.9468 26.4436 14.4261 26.1442C13.9813 25.8875 13.5911 25.5461 13.2774 25.1394C13.0349 24.8326 12.8448 24.4878 12.7148 24.1189C12.6082 23.8122 12.525 23.5014 12.4863 23.1791C12.4827 23.1334 12.4819 23.0876 12.4837 23.0419L12.4828 12.1504L12.484 11.9331ZM7.20798 1.41373H4.41462V2.09568H7.20798V1.41373ZM11.7819 2.09629H14.5654V1.41312H11.7819V2.09629ZM4.40838 10.5044H7.20615V9.84912C7.0175 9.81452 4.51779 9.82321 4.40838 9.85857V10.5044ZM11.7853 9.83906V10.5032C12.1186 10.5346 14.4598 10.5209 14.5764 10.4854C14.5764 10.3822 14.5764 10.2761 14.5764 10.1702C14.5753 10.0611 14.5726 9.95183 14.5706 9.83906H11.7853ZM6.1675 4.13866C6.1675 4.02711 6.16841 3.92622 6.1675 3.82549C6.16643 3.72156 6.16339 3.61763 6.16125 3.5172H5.46135V4.25051L6.1675 4.13866ZM6.15836 8.40428V7.67676C5.91668 7.71608 5.68231 7.73772 5.45968 7.79654V8.40428H6.15836ZM12.848 4.24945L13.5324 4.13805V3.51796H12.8473L12.848 4.24945ZM5.45754 6.34972L6.16125 6.23893V5.57374L5.45754 5.69017V6.34972ZM13.5403 8.40322C13.5403 8.2746 13.5403 8.15939 13.5403 8.04296C13.5403 7.9244 13.5385 7.80568 13.5373 7.67158L12.8482 7.78618V8.40322H13.5403ZM13.5318 5.5678C13.298 5.62464 13.0662 5.62875 12.85 5.69718V6.34759L13.5318 6.23863V5.5678Z" fill="#fff"/>
</svg>
