<svg width="32" height="32" viewBox="0 0 32 32" fill="none" xmlns="http://www.w3.org/2000/svg">
  <path d="M32 17.5552C31.9966 16.7686 31.6911 16.0119 31.1438 15.4347C30.5966 14.8576 29.8475 14.502 29.0447 14.4384L27.3501 14.311C25.5811 14.1794 23.852 13.7314 22.2488 12.9894L22.1873 12.9588L22.2412 12.9062C22.3413 12.8085 22.3975 12.676 22.3975 12.5378C22.3975 12.3996 22.3413 12.2671 22.2412 12.1694C22.1412 12.0717 22.0055 12.0168 21.864 12.0168C21.7225 12.0168 21.5868 12.0717 21.4867 12.1694L21.1876 12.4615L20.0666 11.9039L20.1073 11.8642C20.1569 11.8158 20.1962 11.7584 20.223 11.6951C20.2498 11.6319 20.2636 11.5642 20.2636 11.4958C20.2636 11.4273 20.2498 11.3596 20.223 11.2964C20.1962 11.2332 20.1569 11.1757 20.1073 11.1273C20.0578 11.079 19.999 11.0406 19.9342 11.0144C19.8695 10.9882 19.8001 10.9747 19.7301 10.9747C19.66 10.9747 19.5907 10.9882 19.5259 11.0144C19.4612 11.0406 19.4024 11.079 19.3528 11.1273L19.067 11.4065L17.946 10.8489L17.9734 10.8222C18.023 10.7738 18.0623 10.7163 18.0891 10.6531C18.1159 10.5899 18.1297 10.5222 18.1297 10.4537C18.1297 10.3853 18.1159 10.3176 18.0891 10.2544C18.0623 10.1911 18.023 10.1337 17.9734 10.0853C17.9239 10.0369 17.8651 9.99856 17.8003 9.97238C17.7356 9.9462 17.6662 9.93272 17.5962 9.93272C17.5261 9.93272 17.4568 9.9462 17.392 9.97238C17.3273 9.99856 17.2685 10.0369 17.219 10.0853L16.9463 10.3516L16.1072 9.93423L13.5747 8.25671C13.3455 8.10487 13.0783 8.01688 12.8017 8.0022C12.5251 7.98751 12.2497 8.04669 12.005 8.17338C11.7603 8.30006 11.5555 8.48946 11.4127 8.72124C11.2699 8.95301 11.1945 9.2184 11.1945 9.4889V12.0168C11.1947 12.0458 11.1973 12.0747 11.2024 12.1033L10.59 12.5685C10.2822 12.8023 9.92038 12.9588 9.53625 13.0242C9.15212 13.0896 8.75743 13.062 8.38678 12.9437C8.01613 12.8255 7.68085 12.6202 7.41034 12.346C7.13982 12.0717 6.94234 11.7368 6.8352 11.3707L6.76365 11.126C6.62627 10.6568 6.34354 10.2406 5.95428 9.93459C5.56502 9.62857 5.08831 9.44772 4.5896 9.41687C4.09089 9.38602 3.59462 9.50669 3.16894 9.7623C2.74325 10.0179 2.40902 10.3959 2.21211 10.8445C1.44628 12.588 1.36154 14.5453 1.97392 16.3457C1.71614 16.4847 1.51259 16.703 1.39491 16.9666C1.27723 17.2302 1.252 17.5244 1.32315 17.8035L1.5348 18.6303L0.449248 19.6901C0.291733 19.8439 0.170417 20.0294 0.0937371 20.2336C0.0170571 20.4379 -0.0131467 20.656 0.00522601 20.8728C0.0235987 21.0896 0.090107 21.2999 0.200126 21.4891C0.310145 21.6783 0.461033 21.8417 0.642299 21.9682L3.41577 23.903C3.50625 23.9661 3.61466 24 3.72585 24H10.1888C10.5821 23.9995 10.97 23.9101 11.322 23.7387L12.3244 23.2492C12.6392 23.0955 13.0062 23.0806 13.3329 23.2083L14.9065 23.823C15.2057 23.9402 15.5251 24.0003 15.8475 24H18.4242C21.4703 23.9984 24.4648 23.2323 27.1204 21.7752L30.7981 19.7548C31.1584 19.5565 31.4589 19.2692 31.6697 18.9217C31.8805 18.5743 31.9941 18.1788 31.9991 17.775C31.9997 17.767 32 17.7582 32 17.7482V17.5552ZM15.6185 12.3852C15.6681 12.4336 15.7269 12.472 15.7916 12.4981C15.8563 12.5243 15.9257 12.5378 15.9958 12.5378C16.0658 12.5378 16.1352 12.5243 16.1999 12.4981C16.2646 12.472 16.3235 12.4336 16.373 12.3852L17.1527 11.6237L18.2736 12.1813L17.7524 12.6904C17.6524 12.7881 17.5962 12.9206 17.5962 13.0588C17.5962 13.197 17.6524 13.3295 17.7524 13.4272C17.8525 13.5249 17.9882 13.5798 18.1297 13.5798C18.2712 13.5798 18.4068 13.5249 18.5069 13.4272L19.2734 12.6786L20.3943 13.2363L19.8863 13.7324C19.8368 13.7808 19.7975 13.8382 19.7707 13.9014C19.7439 13.9646 19.7301 14.0324 19.7301 14.1008C19.7301 14.1692 19.7439 14.237 19.7707 14.3002C19.7975 14.3634 19.8368 14.4208 19.8863 14.4692C19.9359 14.5176 19.9947 14.556 20.0594 14.5822C20.1241 14.6084 20.1935 14.6218 20.2636 14.6218C20.3336 14.6218 20.403 14.6084 20.4677 14.5822C20.5324 14.556 20.5913 14.5176 20.6408 14.4692L21.3943 13.7333L21.7717 13.921L21.7854 13.9275C22.4783 14.2479 23.1943 14.5181 23.9277 14.7358L23.3029 15.1428H20.3821L13.23 11.8833L14.4536 10.9538C14.6138 10.8327 14.8059 10.7584 15.0075 10.7397C15.2092 10.7209 15.4121 10.7584 15.5929 10.8478L16.153 11.1264L15.6186 11.6484C15.5691 11.6967 15.5297 11.7542 15.5029 11.8174C15.4761 11.8806 15.4623 11.9483 15.4623 12.0168C15.4623 12.0852 15.4761 12.1529 15.5029 12.2162C15.5297 12.2794 15.569 12.3368 15.6185 12.3852ZM12.2614 9.4889C12.2614 9.40772 12.2841 9.32808 12.3269 9.25853C12.3698 9.18897 12.4312 9.13214 12.5047 9.09412C12.5781 9.0561 12.6608 9.03834 12.7438 9.04274C12.8268 9.04715 12.907 9.07355 12.9758 9.11911L14.1663 9.90772C14.0362 9.96974 13.913 10.0447 13.7985 10.1313L12.2614 11.2989V9.4889ZM3.09061 16.3231L2.98939 16.0265C2.67373 15.101 2.56841 14.1193 2.68077 13.15L3.32441 13.5091C4.0533 13.9172 4.66626 14.4966 5.10762 15.1948C5.54899 15.893 5.80477 16.6878 5.85174 17.507C5.70917 17.4539 5.56754 17.398 5.42777 17.3373L3.09061 16.3231ZM30.275 18.8466L26.5974 20.867C24.1014 22.2364 21.287 22.9564 18.4242 22.958H15.8475C15.6609 22.9581 15.4759 22.9234 15.3027 22.8555L12.993 21.9532C12.9231 21.9259 12.848 21.9133 12.7727 21.9164C12.6975 21.9195 12.6237 21.9381 12.5563 21.971L10.8448 22.8068C10.641 22.906 10.4165 22.9577 10.1888 22.958H4.29161C4.03481 22.958 3.78443 22.8796 3.57547 22.7338L1.26273 21.1202C1.20757 21.0818 1.16165 21.032 1.12817 20.9745C1.09469 20.9169 1.07445 20.8529 1.06885 20.7869C1.06325 20.7209 1.07243 20.6546 1.09576 20.5924C1.11908 20.5303 1.15599 20.4738 1.20391 20.427L2.50292 19.1583C2.56805 19.0947 2.61518 19.0156 2.63972 18.9289C2.66426 18.8421 2.66538 18.7506 2.64296 18.6634L2.35809 17.5504C2.34947 17.5166 2.34786 17.4815 2.35335 17.4471C2.35883 17.4127 2.37131 17.3797 2.39003 17.3501C2.40876 17.3205 2.43336 17.2948 2.46239 17.2746C2.49142 17.2544 2.52429 17.2401 2.55907 17.2325L4.99425 18.2895C6.55384 18.9659 8.26941 19.2256 9.9655 19.0421C11.3837 18.8852 12.8162 19.175 14.0539 19.8692C15.2338 20.527 16.5688 20.8733 17.9274 20.8739H20.2119C21.5701 20.874 22.9215 20.6881 24.2268 20.3217L30.6667 18.5145C30.5606 18.65 30.4273 18.763 30.275 18.8466ZM23.9321 19.3203C22.7226 19.6597 21.4704 19.832 20.2119 19.8319H17.9274C16.7545 19.8314 15.6019 19.5325 14.5833 18.9646C13.1496 18.1605 11.4903 17.8249 9.84747 18.0066C8.86969 18.1122 7.8806 18.0524 6.92363 17.8298C6.92553 17.8119 6.92648 17.794 6.9265 17.776V17.7479C6.9265 17.7438 6.9265 17.7399 6.9265 17.7358C6.91792 16.6929 6.62971 15.6704 6.09058 14.77C5.55145 13.8697 4.78022 13.1231 3.85368 12.6045L2.9235 12.0854C2.91483 12.0805 2.9059 12.0766 2.89683 12.0724C2.97725 11.7939 3.07597 11.5208 3.19237 11.2548C3.3026 11.0041 3.48955 10.7928 3.72758 10.65C3.96561 10.5072 4.24305 10.4398 4.52186 10.457C4.80067 10.4743 5.06718 10.5754 5.28484 10.7464C5.5025 10.9174 5.66064 11.15 5.73758 11.4123L5.80913 11.6569C5.96422 12.1871 6.25011 12.6719 6.64175 13.069C7.03338 13.466 7.51879 13.7632 8.0554 13.9343C8.59201 14.1055 9.16343 14.1455 9.71954 14.0507C10.2757 13.956 10.7995 13.7294 11.245 13.3909L12.2838 12.6019L20.038 16.1359C20.1086 16.1681 20.1856 16.1848 20.2636 16.1848H23.4644C23.5697 16.1848 23.6727 16.1544 23.7603 16.0973L25.3199 15.0819C25.9629 15.2111 26.6137 15.3006 27.2682 15.35L28.9629 15.4773C29.4634 15.5171 29.9338 15.7272 30.292 16.0709C30.6503 16.4146 30.8737 16.8702 30.9234 17.3582L23.9321 19.3203Z" fill="#fff"/>
  <path d="M17.5961 17.7478H16.5291C16.3877 17.7478 16.252 17.8027 16.1519 17.9004C16.0519 17.9981 15.9957 18.1306 15.9957 18.2688C15.9957 18.407 16.0519 18.5395 16.1519 18.6372C16.252 18.7349 16.3877 18.7898 16.5291 18.7898H17.5961C17.7376 18.7898 17.8733 18.7349 17.9733 18.6372C18.0734 18.5395 18.1296 18.407 18.1296 18.2688C18.1296 18.1306 18.0734 17.9981 17.9733 17.9004C17.8733 17.8027 17.7376 17.7478 17.5961 17.7478Z" fill="#fff"/>
  <path d="M20.2635 17.7478H19.7301C19.5886 17.7478 19.4529 17.8027 19.3528 17.9004C19.2528 17.9981 19.1966 18.1306 19.1966 18.2688C19.1966 18.407 19.2528 18.5395 19.3528 18.6372C19.4529 18.7349 19.5886 18.7898 19.7301 18.7898H20.2635C20.405 18.7898 20.5407 18.7349 20.6408 18.6372C20.7408 18.5395 20.797 18.407 20.797 18.2688C20.797 18.1306 20.7408 17.9981 20.6408 17.9004C20.5407 17.8027 20.405 17.7478 20.2635 17.7478Z" fill="#fff"/>
  <path d="M22.9311 17.7478H22.3976C22.2561 17.7478 22.1204 17.8027 22.0204 17.9004C21.9203 17.9981 21.8641 18.1306 21.8641 18.2688C21.8641 18.407 21.9203 18.5395 22.0204 18.6372C22.1204 18.7349 22.2561 18.7898 22.3976 18.7898H22.9311C23.0726 18.7898 23.2083 18.7349 23.3083 18.6372C23.4083 18.5395 23.4646 18.407 23.4646 18.2688C23.4646 18.1306 23.4083 17.9981 23.3083 17.9004C23.2083 17.8027 23.0726 17.7478 22.9311 17.7478Z" fill="#fff"/>
</svg>
