<svg width="24" height="24" viewBox="0 0 24 24" fill="none" xmlns="http://www.w3.org/2000/svg"> <path d="M21.0907 18.2985C21.0907 17.7021 20.8747 17.1534 20.4667 16.7479C21.0667 16.3184 21.4268 15.6505 21.4268 14.911C21.4268 14.1953 21.0667 13.5273 20.4667 13.0741C20.8747 12.6447 21.0907 12.096 21.0907 11.5234C21.0907 10.2829 20.0827 9.28101 18.8347 9.28101H10.6503L10.9623 5.01083C10.9623 3.74648 10.7223 2.00501 9.54629 0.907642C8.80226 0.215825 7.79422 -0.0942997 6.52217 0.0249791C6.23416 0.0726906 6.01815 0.287392 6.01815 0.573661C6.01815 0.573661 6.32594 3.44953 6.01815 5.24939C5.85239 6.21869 5.37012 7.68267 5.37012 7.68267C5.37012 7.70653 4.29008 10.2829 2.65802 10.7362C2.37 10.8316 2.226 11.1418 2.298 11.428C2.39401 11.7143 2.70602 11.8574 2.99403 11.7859C5.15411 11.1656 6.42616 8.06436 6.42616 8.06436C6.42616 8.06436 6.44053 8.03563 6.46307 7.96126C6.48562 7.88689 7.13136 5.46247 7.13136 5.46247C7.16041 5.31719 7.16041 5.25388 7.16041 5.23002L7.19419 1.09849C7.89022 1.09849 8.44224 1.31319 8.87426 1.69488C9.8583 2.55369 9.9543 4.2713 9.9543 4.96312L9.59429 9.78198C9.49829 11.3803 9.06627 11.8574 9.06627 11.8574C8.85026 12.0721 8.85026 12.3823 9.04227 12.6208C9.16227 12.7401 9.30628 12.8117 9.45028 12.8117C9.52229 12.8117 9.69029 12.7878 9.8103 12.6685C10.0023 12.4777 10.4343 11.9051 10.6263 10.3784H12.2824C12.0664 10.7362 11.9704 11.1418 11.9704 11.5234C11.9704 12.1914 12.2344 12.7639 12.6904 13.1933C12.1624 13.5989 11.8504 14.243 11.8504 14.9348C11.8504 15.6028 12.1624 16.223 12.6904 16.6763C12.2344 17.1057 11.9704 17.7259 11.9704 18.3462C11.9704 18.9664 12.2344 19.5628 12.6904 20.0161C12.1624 20.4455 11.8504 21.0896 11.8504 21.7576C11.8504 22.1154 11.9704 22.5209 12.1624 22.8788C8.27424 22.8072 6.57017 22.1154 5.44213 21.6621C4.65009 21.352 3.90607 21.0419 2.82602 21.0419C2.53801 21.0419 2.25 21.3282 2.25 21.6144C2.25 21.9007 2.51401 22.1631 2.80202 22.1631C3.57005 22.1631 4.09807 22.3778 4.8661 22.6402L5.03411 22.7118C6.42616 23.2605 8.34624 24 12.8104 24H18.1626C19.4107 24 20.4187 22.9981 20.4187 21.7576C20.4187 21.2089 20.2507 20.7079 19.9387 20.3501C20.6347 19.873 21.0907 19.1334 21.0907 18.2985ZM18.9787 22.4971C18.7626 22.7118 18.4746 22.8072 18.1866 22.8072H13.9865C13.3864 22.7834 12.9304 22.2824 12.9304 21.686C12.9304 21.0657 13.4584 20.5409 14.0825 20.5409H18.1866C18.8107 20.5409 19.3387 21.0657 19.3387 21.686C19.3387 21.9961 19.2187 22.2824 18.9787 22.4971ZM18.8587 12.7401H14.2025C13.5784 12.7401 13.0504 12.2153 13.0504 11.595C13.0504 10.9986 13.4584 10.4977 14.0105 10.4499H18.8827C19.5067 10.4499 20.0347 10.9748 20.0347 11.595C20.0107 12.2153 19.4827 12.7401 18.8587 12.7401ZM13.0264 18.2985C13.0264 17.7259 13.4584 17.2488 14.0105 17.1773H18.8587C19.5067 17.1773 20.0107 17.6782 20.0107 18.2985C20.0107 18.9187 19.4827 19.4436 18.8587 19.4436H14.2025C13.5544 19.4436 13.0264 18.9187 13.0264 18.2985ZM19.2427 16.0799H19.2082L14.1305 16.056C13.5064 16.056 12.9784 15.5312 12.9784 14.911C12.9784 14.3384 13.4104 13.8613 13.9625 13.7897H19.2187C19.8427 13.7897 20.3707 14.3146 20.3707 14.9348C20.3707 15.5551 19.8427 16.0799 19.2427 16.0799Z" fill="#ffffff"></path> </svg>