<svg width="24" height="24" viewBox="0 0 24 24" fill="none" xmlns="http://www.w3.org/2000/svg"> <path d="M17.0436 14.7417C16.8287 14.5492 16.4984 14.568 16.3069 14.7824C15.2186 15.9986 13.6492 16.6956 12 16.6956C10.3513 16.6956 8.78136 15.9986 7.69302 14.7824C7.50049 14.568 7.17128 14.5492 6.95632 14.7417C6.74136 14.9337 6.72362 15.2635 6.91562 15.4784C8.20171 16.9153 10.0549 17.7391 12 17.7391C13.9455 17.7391 15.7988 16.9148 17.0843 15.4784C17.2763 15.2635 17.2581 14.9337 17.0436 14.7417Z" fill="#ffffff"></path> <path fill-rule="evenodd" clip-rule="evenodd" d="M7.69302 14.7824C8.78136 15.9986 10.3513 16.6956 12 16.6956C13.6492 16.6956 15.2186 15.9986 16.3069 14.7824C16.4984 14.568 16.8287 14.5492 17.0436 14.7417C17.2581 14.9337 17.2763 15.2635 17.0843 15.4784C15.7988 16.9148 13.9455 17.7391 12 17.7391C10.0549 17.7391 8.20171 16.9153 6.91562 15.4784C6.72362 15.2635 6.74136 14.9337 6.95632 14.7417C7.17128 14.5492 7.50049 14.568 7.69302 14.7824ZM6.89232 14.6702C7.14692 14.4422 7.53672 14.4646 7.76445 14.7183C8.83436 15.9139 10.3782 16.5996 12 16.5996C13.6222 16.5996 15.1654 15.914 16.2353 14.7185C16.4622 14.4645 16.8532 14.4423 17.1077 14.6702M6.89232 14.6702C6.63765 14.8977 6.61692 15.2881 6.84403 15.5424C8.14851 16.9998 10.0279 17.8351 12 17.8351C13.9726 17.8351 15.8519 16.9993 17.1559 15.5424C17.3831 15.2881 17.3616 14.8976 17.1077 14.6702" fill="#ffffff"></path> <path fill-rule="evenodd" clip-rule="evenodd" d="M12 1.2C6.04605 1.2 1.2 6.04605 1.2 12C1.2 17.954 6.04605 22.8 12 22.8C17.954 22.8 22.8 17.954 22.8 12C22.8 6.04605 17.954 1.2 12 1.2ZM12 0C5.3833 0 0 5.3833 0 12C0 18.6167 5.3833 24 12 24C18.6167 24 24 18.6167 24 12C24 5.3833 18.6167 0 12 0Z" fill="#ffffff"></path> <path d="M16.1739 8.34785C14.7354 8.34785 13.5652 9.51811 13.5652 10.9565C13.5652 11.2445 13.7989 11.4783 14.0869 11.4783C14.3749 11.4783 14.6086 11.2445 14.6086 10.9565C14.6086 10.0936 15.3109 9.39133 16.1739 9.39133C17.0368 9.39133 17.7391 10.0936 17.7391 10.9565C17.7391 11.2445 17.9728 11.4783 18.2608 11.4783C18.5488 11.4783 18.7825 11.2445 18.7825 10.9565C18.7825 9.51811 17.6123 8.34785 16.1739 8.34785Z" fill="#ffffff"></path> <path fill-rule="evenodd" clip-rule="evenodd" d="M13.4692 10.9565C13.4692 9.46509 14.6824 8.25185 16.1739 8.25185C17.6653 8.25185 18.8786 9.46509 18.8786 10.9565C18.8786 11.2976 18.6018 11.5743 18.2608 11.5743C17.9198 11.5743 17.6431 11.2976 17.6431 10.9565C17.6431 10.1466 16.9838 9.48732 16.1739 9.48732C15.3639 9.48732 14.7046 10.1466 14.7046 10.9565C14.7046 11.2976 14.4279 11.5743 14.0869 11.5743C13.7459 11.5743 13.4692 11.2976 13.4692 10.9565ZM13.5652 10.9565C13.5652 9.51811 14.7354 8.34785 16.1739 8.34785C17.6123 8.34785 18.7825 9.51811 18.7825 10.9565C18.7825 11.2445 18.5488 11.4783 18.2608 11.4783C17.9728 11.4783 17.7391 11.2445 17.7391 10.9565C17.7391 10.0936 17.0368 9.39133 16.1739 9.39133C15.3109 9.39133 14.6086 10.0936 14.6086 10.9565C14.6086 11.2445 14.3749 11.4783 14.0869 11.4783C13.7989 11.4783 13.5652 11.2445 13.5652 10.9565Z" fill="#ffffff"></path> <path d="M9.39133 10.9565C9.39133 11.2445 9.62507 11.4783 9.91307 11.4783C10.2011 11.4783 10.4348 11.2445 10.4348 10.9565C10.4348 9.51811 9.26455 8.34785 7.82612 8.34785C6.38768 8.34785 5.21742 9.51811 5.21742 10.9565C5.21742 11.2445 5.45116 11.4783 5.73916 11.4783C6.02716 11.4783 6.2609 11.2445 6.2609 10.9565C6.2609 10.0936 6.96316 9.39133 7.82612 9.39133C8.68907 9.39133 9.39133 10.0936 9.39133 10.9565Z" fill="#ffffff"></path> <path fill-rule="evenodd" clip-rule="evenodd" d="M9.91308 11.5743C9.57206 11.5743 9.29534 11.2976 9.29534 10.9565C9.29534 10.1466 8.63606 9.48732 7.82612 9.48732C7.01618 9.48732 6.3569 10.1466 6.3569 10.9565C6.3569 11.2976 6.08018 11.5743 5.73916 11.5743C5.39814 11.5743 5.12142 11.2976 5.12142 10.9565C5.12142 9.46509 6.33466 8.25185 7.82612 8.25185C9.31757 8.25185 10.5308 9.46509 10.5308 10.9565C10.5308 11.2976 10.2541 11.5743 9.91308 11.5743ZM9.91307 11.4783C9.62507 11.4783 9.39133 11.2445 9.39133 10.9565C9.39133 10.0936 8.68907 9.39133 7.82612 9.39133C6.96316 9.39133 6.2609 10.0936 6.2609 10.9565C6.2609 11.2445 6.02716 11.4783 5.73916 11.4783C5.45116 11.4783 5.21742 11.2445 5.21742 10.9565C5.21742 9.51811 6.38768 8.34785 7.82612 8.34785C9.26455 8.34785 10.4348 9.51811 10.4348 10.9565C10.4348 11.2445 10.2011 11.4783 9.91307 11.4783Z" fill="#ffffff"></path> </svg>