<svg width="32" height="32" viewBox="0 0 32 32" fill="none" xmlns="http://www.w3.org/2000/svg"> <path d="M15.0661 5.87135H15.6568C16.0212 5.87135 16.3166 5.57601 16.3166 5.21155C16.3166 4.8471 16.0212 4.55176 15.6568 4.55176H15.0661C14.7016 4.55176 14.4062 4.8471 14.4062 5.21155C14.4062 5.57601 14.7016 5.87135 15.0661 5.87135Z" fill="#ffffff"></path> <path d="M20.0055 5.87135H20.5962C20.9607 5.87135 21.256 5.57601 21.256 5.21155C21.256 4.8471 20.9607 4.55176 20.5962 4.55176H20.0055C19.6411 4.55176 19.3457 4.8471 19.3457 5.21155C19.3457 5.57601 19.6411 5.87135 20.0055 5.87135Z" fill="#ffffff"></path> <path d="M17.6779 13.5934C17.6779 13.2289 17.3825 12.9336 17.0181 12.9336H15.8493C15.4848 12.9336 15.1895 13.2289 15.1895 13.5934C15.1895 13.9579 15.4848 14.2532 15.8493 14.2532H17.0181C17.3825 14.2532 17.6779 13.9579 17.6779 13.5934Z" fill="#ffffff"></path> <path d="M9.60511 5.87135H10.7739C11.1384 5.87135 11.4337 5.57601 11.4337 5.21155C11.4337 4.8471 11.1384 4.55176 10.7739 4.55176H9.60511C9.24065 4.55176 8.94531 4.8471 8.94531 5.21155C8.94531 5.57601 9.24065 5.87135 9.60511 5.87135Z" fill="#ffffff"></path> <path d="M11.5552 12.9336H10.3864C10.0219 12.9336 9.72656 13.2289 9.72656 13.5934C9.72656 13.9579 10.0219 14.2532 10.3864 14.2532H11.5552C11.9196 14.2532 12.215 13.9579 12.215 13.5934C12.215 13.2289 11.9196 12.9336 11.5552 12.9336Z" fill="#ffffff"></path> <path d="M16.3188 21.6689H15.15C14.7856 21.6689 14.4902 21.9643 14.4902 22.3287C14.4902 22.6932 14.7856 22.9885 15.15 22.9885H16.3188C16.6833 22.9885 16.9786 22.6932 16.9786 22.3287C16.9786 21.9643 16.6833 21.6689 16.3188 21.6689Z" fill="#ffffff"></path> <path d="M1.34082 7.05863C1.46336 7.17488 1.62359 7.23772 1.79326 7.23772C1.97549 7.23772 2.14829 7.16231 2.27397 7.03035C2.50019 6.79157 2.76097 6.58106 3.04374 6.41139C3.35479 6.22288 3.45533 5.81757 3.26682 5.50652C3.1757 5.35571 3.03117 5.24888 2.86151 5.20804C2.6887 5.16091 2.51276 5.18919 2.36194 5.2803C1.97549 5.51595 1.62359 5.79872 1.31568 6.12234C1.06433 6.3894 1.0769 6.80728 1.34082 7.05863Z" fill="#ffffff"></path> <path d="M30.7868 15.7714C30.4444 15.8971 30.2684 16.2773 30.3941 16.6166C30.5072 16.9245 30.5732 17.245 30.5952 17.5717C30.6172 17.9173 30.9062 18.1907 31.2519 18.1907H31.2927C31.4686 18.1781 31.6289 18.0996 31.7451 17.9676C31.8614 17.8357 31.9211 17.666 31.9085 17.49C31.8802 17.0376 31.786 16.5914 31.632 16.1641C31.5063 15.8248 31.1262 15.6489 30.7868 15.7714Z" fill="#ffffff"></path> <path d="M31.338 18.442C30.9861 18.3603 30.6279 18.5771 30.543 18.929C30.4676 19.2463 30.3451 19.5511 30.1817 19.837C30.0937 19.991 30.0718 20.1669 30.1157 20.3366C30.1597 20.5063 30.2697 20.6476 30.4237 20.7356C30.5242 20.7922 30.6373 20.8236 30.7504 20.8236C30.9861 20.8236 31.206 20.6979 31.3222 20.4937C31.5485 20.0978 31.7181 19.6736 31.8218 19.2369C31.9098 18.885 31.6899 18.5268 31.338 18.442Z" fill="#ffffff"></path> <path d="M6.99414 13.5934C6.99414 13.9579 7.28948 14.2532 7.65394 14.2532H8.82274C9.1872 14.2532 9.48254 13.9579 9.48254 13.5934C9.48254 13.2289 9.1872 12.9336 8.82274 12.9336H7.65394C7.29262 12.9336 6.99414 13.2289 6.99414 13.5934Z" fill="#ffffff"></path> <path d="M24.5102 21.6689H23.3414C22.977 21.6689 22.6816 21.9643 22.6816 22.3287C22.6816 22.6932 22.977 22.9885 23.3414 22.9885H24.5102C24.8747 22.9885 25.17 22.6932 25.17 22.3287C25.17 21.9643 24.8747 21.6689 24.5102 21.6689Z" fill="#ffffff"></path> <path d="M29.7184 13.7445C29.4137 13.5466 29.0052 13.6345 28.8073 13.9393C28.713 14.087 28.6785 14.2629 28.7162 14.4357C28.7539 14.6085 28.8544 14.7562 29.0021 14.8505C29.2786 15.0296 29.5331 15.2464 29.753 15.4914C29.8787 15.6328 30.0578 15.7145 30.2463 15.7145C30.4065 15.7145 30.5636 15.6548 30.683 15.548C30.9563 15.306 30.9783 14.8882 30.7395 14.618C30.4442 14.2849 30.0986 13.9896 29.7184 13.7445Z" fill="#ffffff"></path> <path d="M25.8712 13.5934C25.8712 13.2289 25.5759 12.9336 25.2114 12.9336H24.0426C23.6782 12.9336 23.3828 13.2289 23.3828 13.5934C23.3828 13.9579 23.6782 14.2532 24.0426 14.2532H25.2114C25.5759 14.2532 25.8712 13.9579 25.8712 13.5934Z" fill="#ffffff"></path> <path d="M4.14951 5.95013C4.19035 5.95013 4.2312 5.94698 4.27519 5.93756C4.51083 5.89357 4.7559 5.86844 5.00097 5.86844H5.31516C5.67962 5.86844 5.97497 5.57309 5.97497 5.20863C5.97497 4.84417 5.67962 4.54883 5.31516 4.54883H5.00097C4.67421 4.54883 4.34431 4.58025 4.02697 4.63994C3.66879 4.70907 3.43315 5.05468 3.50227 5.41286C3.56197 5.72391 3.83217 5.95013 4.14951 5.95013Z" fill="#ffffff"></path> <path d="M6.87465 5.87135H8.04344C8.40791 5.87135 8.70325 5.57601 8.70325 5.21155C8.70325 4.8471 8.40791 4.55176 8.04344 4.55176H6.87465C6.51018 4.55176 6.21484 4.8471 6.21484 5.21155C6.21484 5.57601 6.51018 5.87135 6.87465 5.87135Z" fill="#ffffff"></path> <path d="M4.26377 13.584C4.25749 13.9484 4.54969 14.2469 4.91415 14.2532H6.09551C6.45997 14.2532 6.75531 13.9579 6.75531 13.5934C6.75531 13.2289 6.45997 12.9336 6.09551 12.9336H4.92357C4.5654 12.9336 4.27006 13.2258 4.26377 13.584Z" fill="#ffffff"></path> <path d="M1.98781 13.273C2.34913 13.5369 2.74501 13.7537 3.16602 13.9139C3.24143 13.9422 3.31998 13.9579 3.40167 13.9579C3.67187 13.9579 3.92008 13.7882 4.01748 13.5338C4.08032 13.3704 4.07718 13.1913 4.00491 13.0279C3.93265 12.8677 3.80383 12.7451 3.63731 12.6823C3.32626 12.5629 3.03406 12.4027 2.767 12.2079C2.62561 12.1042 2.45281 12.0602 2.27686 12.0885C2.10092 12.1136 1.9501 12.2079 1.84328 12.3524C1.62963 12.6446 1.69247 13.0593 1.98781 13.273Z" fill="#ffffff"></path> <path d="M27.1979 21.6562C27.1162 21.6625 27.0345 21.6657 26.9497 21.6657H26.07C25.7055 21.6657 25.4102 21.961 25.4102 22.3255C25.4102 22.6899 25.7055 22.9853 26.07 22.9853H26.9497C27.0628 22.9853 27.1728 22.9821 27.2827 22.9758C27.6472 22.9538 27.9237 22.6396 27.8986 22.2752C27.8766 21.9139 27.5655 21.628 27.1979 21.6562Z" fill="#ffffff"></path> <path d="M1.86877 11.2594C1.68968 10.9797 1.55143 10.6813 1.46032 10.3702C1.41005 10.2005 1.29694 10.0623 1.14298 9.97747C0.989029 9.89264 0.809939 9.87379 0.640275 9.92406C0.291522 10.0277 0.0935809 10.3953 0.194122 10.7441C0.322941 11.1745 0.511456 11.5893 0.759668 11.9726C0.882203 12.1611 1.08957 12.2742 1.31579 12.2742C1.44147 12.2742 1.564 12.2365 1.67397 12.1705C1.97873 11.9726 2.06671 11.5641 1.86877 11.2594Z" fill="#ffffff"></path> <path d="M19.0513 21.6689H17.8825C17.518 21.6689 17.2227 21.9643 17.2227 22.3287C17.2227 22.6932 17.518 22.9885 17.8825 22.9885H19.0513C19.4157 22.9885 19.7111 22.6932 19.7111 22.3287C19.7111 21.9643 19.4157 21.6689 19.0513 21.6689Z" fill="#ffffff"></path> <path d="M12.3356 5.87135H13.5044C13.8688 5.87135 14.1642 5.57601 14.1642 5.21155C14.1642 4.8471 13.8688 4.55176 13.5044 4.55176H12.3356C11.9711 4.55176 11.6758 4.8471 11.6758 5.21155C11.6758 5.57601 11.9711 5.87135 12.3356 5.87135Z" fill="#ffffff"></path> <path d="M17.2731 5.87135H18.4419C18.8064 5.87135 19.1017 5.57601 19.1017 5.21155C19.1017 4.8471 18.8064 4.55176 18.4419 4.55176H17.2731C16.9086 4.55176 16.6133 4.8471 16.6133 5.21155C16.6133 5.57601 16.9086 5.87135 17.2731 5.87135Z" fill="#ffffff"></path> <path d="M20.4064 13.5934C20.4064 13.2289 20.111 12.9336 19.7466 12.9336H18.5778C18.2133 12.9336 17.918 13.2289 17.918 13.5934C17.918 13.9579 18.2133 14.2532 18.5778 14.2532H19.7466C20.111 14.2532 20.4064 13.9579 20.4064 13.5934Z" fill="#ffffff"></path> <path d="M23.1407 13.5934C23.1407 13.2289 22.8454 12.9336 22.4809 12.9336H21.3121C20.9477 12.9336 20.6523 13.2289 20.6523 13.5934C20.6523 13.9579 20.9477 14.2532 21.3121 14.2532H22.4809C22.8423 14.2532 23.1407 13.9579 23.1407 13.5934Z" fill="#ffffff"></path> <path d="M21.7797 21.6689H20.611C20.2465 21.6689 19.9512 21.9643 19.9512 22.3287C19.9512 22.6932 20.2465 22.9885 20.611 22.9885H21.7797C22.1442 22.9885 22.4395 22.6932 22.4395 22.3287C22.4395 21.9643 22.1442 21.6689 21.7797 21.6689Z" fill="#ffffff"></path> <path d="M29.3292 20.8358C29.0715 21.0463 28.7856 21.2191 28.484 21.351C28.151 21.4987 28.0001 21.8883 28.1447 22.2213C28.2484 22.4601 28.4871 22.6141 28.7479 22.6141C28.839 22.6141 28.927 22.5952 29.0118 22.5575C29.4234 22.3753 29.8099 22.1397 30.1586 21.8569C30.4414 21.6275 30.4854 21.2128 30.256 20.93C30.0267 20.6472 29.612 20.6064 29.3292 20.8358Z" fill="#ffffff"></path> <path d="M0.606739 9.67248C0.628733 9.67562 0.653868 9.67562 0.675862 9.67562C1.01833 9.67562 1.3011 9.41798 1.33252 9.07865C1.36394 8.75189 1.44249 8.43456 1.56503 8.12979C1.70013 7.7936 1.53675 7.40715 1.20056 7.27205C0.864377 7.13694 0.477921 7.30032 0.342818 7.63651C0.173154 8.05753 0.0631868 8.50054 0.0223419 8.95297C0.00663225 9.12892 0.056903 9.29859 0.170012 9.43683C0.279979 9.57508 0.437076 9.65677 0.606739 9.67248Z" fill="#ffffff"></path> <path d="M28.5758 13.8445C28.6135 13.6717 28.5821 13.4958 28.4878 13.3481C28.3936 13.2004 28.2459 13.0968 28.0731 13.0591C27.7055 12.9774 27.3284 12.9365 26.9483 12.9365H26.7692C26.4047 12.9365 26.1094 13.2319 26.1094 13.5963C26.1094 13.9608 26.4047 14.2561 26.7692 14.2561H26.9483C27.231 14.2561 27.5138 14.2876 27.7872 14.3472C27.8343 14.3567 27.8846 14.363 27.9317 14.363C28.2396 14.3598 28.5098 14.143 28.5758 13.8445Z" fill="#ffffff"></path> <path d="M14.9454 13.5934C14.9454 13.2289 14.6501 12.9336 14.2856 12.9336H13.1168C12.7524 12.9336 12.457 13.2289 12.457 13.5934C12.457 13.9579 12.7524 14.2532 13.1168 14.2532H14.2856C14.6501 14.2532 14.9454 13.9579 14.9454 13.5934Z" fill="#ffffff"></path> <path d="M13.5669 21.6689H12.9762C12.6117 21.6689 12.3164 21.9643 12.3164 22.3287C12.3164 22.6932 12.6117 22.9885 12.9762 22.9885H13.5669C13.9314 22.9885 14.2267 22.6932 14.2267 22.3287C14.2267 21.9643 13.9314 21.6689 13.5669 21.6689Z" fill="#ffffff"></path> <path d="M5.41981 17.1377C2.43185 17.1377 0 19.5695 0 22.5575C0 26.5352 4.74116 31.5559 4.94224 31.7696C5.06478 31.8984 5.24072 31.9738 5.41981 31.9738H5.4261C5.60833 31.9738 5.78428 31.8953 5.90681 31.7601C6.10789 31.5402 10.8428 26.3404 10.8428 22.5575C10.8428 19.5695 8.41092 17.1377 5.41981 17.1377ZM9.52316 22.5575C9.52316 25.1747 6.59803 28.9104 5.41353 30.318C4.22903 28.9544 1.31961 25.3192 1.31961 22.5575C1.31961 20.2953 3.16077 18.4542 5.42296 18.4542C7.68514 18.4542 9.52316 20.2953 9.52316 22.5575Z" fill="#ffffff"></path> <path d="M5.41656 19.9746C4.12209 19.9746 3.06641 21.0272 3.06641 22.3248C3.06641 23.6192 4.11895 24.6749 5.41656 24.6749C6.71418 24.6749 7.76672 23.6224 7.76672 22.3248C7.76672 21.0303 6.71418 19.9746 5.41656 19.9746ZM6.44711 22.3248C6.44711 22.8935 5.98525 23.3553 5.41656 23.3553C4.84788 23.3553 4.38601 22.8935 4.38601 22.3248C4.38601 21.7561 4.84788 21.2942 5.41656 21.2942C5.98525 21.2942 6.44711 21.7561 6.44711 22.3248Z" fill="#ffffff"></path> <path d="M27.7395 0.186118C25.4806 0.186118 23.6422 2.02459 23.6422 4.28348C23.6422 7.29059 27.2265 11.0863 27.3785 11.2478C27.4711 11.3452 27.6041 11.4022 27.7395 11.4022H27.7443C27.8821 11.4022 28.0151 11.3428 28.1077 11.2407C28.2597 11.0744 31.8393 7.14332 31.8393 4.28348C31.8393 2.02459 30.0008 0.186118 27.7395 0.186118ZM30.8417 4.28348C30.8417 6.26209 28.6303 9.0863 27.7348 10.1504C26.8393 9.11956 24.6398 6.37135 24.6398 4.28348C24.6398 2.57328 26.0317 1.18136 27.7419 1.18136C29.4521 1.18136 30.8417 2.57328 30.8417 4.28348Z" fill="#ffffff"></path> <path fill-rule="evenodd" clip-rule="evenodd" d="M27.2627 11.3579L27.2622 11.3573L27.2602 11.3553C27.1699 11.2593 26.2364 10.2677 25.3212 8.9226C24.4044 7.57496 23.4824 5.83919 23.4824 4.28348C23.4824 1.93636 25.3924 0.0263672 27.7395 0.0263672C30.089 0.0263672 31.999 1.9363 31.999 4.28348C31.999 5.02934 31.7663 5.8343 31.424 6.61763C31.0809 7.40256 30.6233 8.17589 30.1631 8.86123C29.2438 10.2304 28.3059 11.2607 28.2259 11.3482C28.1032 11.4833 27.9274 11.562 27.7443 11.562H27.7395C27.5606 11.562 27.3857 11.4871 27.2627 11.3579ZM28.1077 11.2407C28.2597 11.0744 31.8393 7.14332 31.8393 4.28348C31.8393 2.02459 30.0008 0.186118 27.7395 0.186118C25.4806 0.186118 23.6422 2.02459 23.6422 4.28348C23.6422 7.27908 27.1991 11.0573 27.3766 11.2458L27.3785 11.2478C27.4711 11.3452 27.6041 11.4022 27.7395 11.4022H27.7443C27.8821 11.4022 28.0151 11.3428 28.1077 11.2407ZM29.4878 7.4765C30.1511 6.3925 30.6819 5.22491 30.6819 4.28348C30.6819 2.66135 29.3637 1.34111 27.7419 1.34111C26.1199 1.34111 24.7995 2.66151 24.7995 4.28348C24.7995 5.28047 25.3284 6.45714 25.9876 7.52969C26.5863 8.50383 27.2785 9.37029 27.7329 9.90335C28.1882 9.35343 28.8849 8.46164 29.4878 7.4765ZM27.8385 10.0263C28.7896 8.88009 30.8417 6.18946 30.8417 4.28348C30.8417 2.57328 29.4521 1.18136 27.7419 1.18136C26.0317 1.18136 24.6398 2.57328 24.6398 4.28348C24.6398 6.29336 26.678 8.91514 27.6291 10.0278C27.6661 10.071 27.7013 10.1119 27.7348 10.1504C27.7677 10.1114 27.8023 10.0699 27.8385 10.0263Z" fill="#ffffff"></path> <path d="M27.7376 2.33105C26.759 2.33105 25.9609 3.12678 25.9609 4.10777C25.9609 5.08639 26.7567 5.88448 27.7376 5.88448C28.7186 5.88448 29.5144 5.08876 29.5144 4.10777C29.5144 3.12915 28.7186 2.33105 27.7376 2.33105ZM28.5167 4.10777C28.5167 4.53769 28.1676 4.88686 27.7376 4.88686C27.3077 4.88686 26.9586 4.53769 26.9586 4.10777C26.9586 3.67784 27.3077 3.32867 27.7376 3.32867C28.1676 3.32867 28.5167 3.67784 28.5167 4.10777Z" fill="#ffffff"></path> <path fill-rule="evenodd" clip-rule="evenodd" d="M25.8008 4.10639C25.8008 3.03703 26.6705 2.16992 27.7372 2.16992C28.8066 2.16992 29.6737 3.03968 29.6737 4.10639C29.6737 5.17561 28.8065 6.04285 27.7372 6.04285C26.6679 6.04285 25.8008 5.17309 25.8008 4.10639ZM27.7372 4.72573C28.0789 4.72573 28.3566 4.44808 28.3566 4.10639C28.3566 3.76469 28.0789 3.48704 27.7372 3.48704C27.3955 3.48704 27.1179 3.76469 27.1179 4.10639C27.1179 4.44808 27.3955 4.72573 27.7372 4.72573ZM25.9605 4.10639C25.9605 3.12539 26.7586 2.32967 27.7372 2.32967C28.7182 2.32967 29.514 3.12777 29.514 4.10639C29.514 5.08738 28.7182 5.8831 27.7372 5.8831C26.7563 5.8831 25.9605 5.085 25.9605 4.10639ZM27.7372 4.88548C28.1672 4.88548 28.5163 4.53631 28.5163 4.10639C28.5163 3.67646 28.1672 3.32729 27.7372 3.32729C27.3073 3.32729 26.9581 3.67646 26.9581 4.10639C26.9581 4.53631 27.3073 4.88548 27.7372 4.88548Z" fill="#ffffff"></path> </svg>