<svg width="33" height="33" viewBox="0 0 33 33" fill="none" xmlns="http://www.w3.org/2000/svg"> <path d="M24 7.3C22.4 7.3 20.8 7.8 19.5 8.7V5.7H21.1C23.9 5.7 26.3 3.4 26.3 0.5C26.3 0.3 26 0 25.7 0H23.5C21.6 0 19.8 1.1 18.9 2.8C17.9 1.1 16.1 0 14.1 0C13.8 0 13.5 0.3 13.5 0.6C13.5 0.9 13.8 1.2 14.1 1.2C16.4 1.2 18.3 3.1 18.3 5.4V8.7C16.6 7.6 14.6 7.1 12.6 7.4C10.5 7.7 8.6 8.8 7.3 10.6C6.5 11.6 6 12.9 5.8 14.1H2.1C0.9 14.1 0 15 0 16.2V23.5C0 24.6 0.9 25.6 2.1 25.6H10L13.6 30.3C14.5 31.4 15.9 32.1 17.3 32.1C17.9 32.1 18.4 32 19 31.8C19.5 32 20.1 32.1 20.7 32.1C22.1 32.1 23.5 31.4 24.4 30.3L29.5 23.6C31.3 21.3 32.2 18.4 32.2 15.4C32.1 11 28.5 7.4 24 7.3ZM9.6 22.5C9.3 22.5 9 22.8 9 23.1V24.3H8.1V21.7C8.1 21.4 7.8 21.1 7.5 21.1C7.2 21.1 6.9 21.4 6.9 21.7V24.3H6V23.1C6 22.8 5.7 22.5 5.4 22.5C5.1 22.5 4.8 22.8 4.8 23.1V24.3H3.9V21.7C3.9 21.4 3.6 21.1 3.3 21.1C3 21.1 2.7 21.4 2.7 21.7V24.3H2.1C1.6 24.3 1.3 23.9 1.3 23.5V18.1C1.6 18.2 1.9 18.3 2.1 18.3H22.4V24.4H20.7V21.8C20.7 21.5 20.4 21.2 20.1 21.2C19.8 21.2 19.5 21.5 19.5 21.8V24.4H18.6V23.2C18.6 22.9 18.3 22.6 18 22.6C17.7 22.6 17.4 22.9 17.4 23.2V24.4H16.5V21.8C16.5 21.5 16.2 21.2 15.9 21.2C15.6 21.2 15.3 21.5 15.3 21.8V24.4H14.4V23.2C14.4 22.9 14.1 22.6 13.8 22.6C13.5 22.6 13.2 22.9 13.2 23.2V24.4H12.3V21.8C12.3 21.5 12 21.2 11.7 21.2C11.4 21.2 11.1 21.5 11.1 21.8V24.4H10.2V23.2C10.2 22.8 9.9 22.5 9.6 22.5ZM23 25.5C23.3 25.5 23.6 25.2 23.6 24.9V17.6C23.6 17.3 23.3 17 23 17H7.1C7 16.3 6.9 15.5 7 14.8C7.2 13 8 11.3 9.4 10.2C10.8 9 12.6 8.5 14.4 8.6C15.9 8.7 17.4 9.4 18.5 10.5C18.7 10.7 19.1 10.7 19.3 10.5C20.6 9.3 22.2 8.6 24 8.6C24.1 8.6 24.1 8.6 24.2 8.6C26 8.6 27.7 9.4 29 10.7C30.2 12 30.9 13.6 30.9 15.4C30.9 18 30 20.6 28.5 22.7L23.4 29.5C22.7 30.4 21.7 30.9 20.7 30.9C20.2 30.9 19.7 30.8 19.3 30.6C19.2 30.6 19.1 30.5 19.1 30.5C19 30.5 18.9 30.5 18.9 30.6C18.5 30.8 18 30.9 17.5 30.9C16.4 30.9 15.4 30.4 14.8 29.5L11.8 25.5H23ZM2.1 17.1C1.6 17.1 1.3 16.6 1.3 16.2C1.3 15.8 1.7 15.4 2.1 15.4H5.8C5.8 16 5.8 16.6 5.9 17.1H2.1ZM19.6 4.6C19.9 2.7 21.6 1.3 23.5 1.3H25C24.7 3.2 23 4.6 21.1 4.6H19.6Z" fill="#ffffff"></path> </svg>