<svg width="32" height="32" viewBox="0 0 32 32" fill="none" xmlns="http://www.w3.org/2000/svg"> <path d="M16.3395 24.6965C16.1736 24.5032 15.8331 24.5032 15.6673 24.6965C14.6193 25.9178 12.5327 26.1687 10.1846 26.0708C7.09212 25.9677 3.80603 25.2839 0.689884 25.6552C0.434036 25.6857 0.237983 25.4217 0.355326 25.1923C1.39951 23.1511 2.52829 21.8382 4.71433 21.2536C4.94942 21.1907 5.04899 20.9 4.9033 20.705C2.83691 17.9405 3.54034 15.1079 2.50132 12.6032C2.40978 12.3826 2.5654 12.1275 2.80429 12.1286C3.92456 12.1336 5.08653 12.1705 6.13802 12.4422C6.34842 12.4965 6.56177 12.3425 6.56758 12.1252C6.59938 10.9358 6.75654 9.75266 6.98808 8.62681C7.03845 8.38186 7.34098 8.29403 7.5234 8.46508C7.92214 8.83895 8.32089 9.18101 8.71963 9.51559C8.89383 9.66175 9.16066 9.58211 9.23591 9.36753C9.62831 8.24853 10.1315 7.40374 11.0035 6.5752C11.1031 6.48057 11.2537 6.46428 11.3709 6.53595C11.9242 6.87429 12.4176 7.27249 12.8512 7.73053C13.0019 7.8897 13.268 7.86965 13.3982 7.69333C14.029 6.83896 14.9645 6.11316 15.7906 5.39764C15.9126 5.29197 16.0941 5.29197 16.2161 5.39764C17.0422 6.11316 17.9777 6.83896 18.6086 7.69333C18.7388 7.86965 19.0048 7.8897 19.1555 7.73053C19.5862 7.27555 20.076 6.87961 20.6248 6.54273C20.7472 6.46762 20.9049 6.48894 21.0043 6.59251C21.8019 7.42311 22.3718 8.26731 22.779 9.32009C22.8547 9.51589 23.09 9.59417 23.2532 9.46212C23.4616 9.29347 23.6537 9.12599 23.7983 9.05371C24.1277 8.83413 24.3473 8.61455 24.457 8.50477C24.6402 8.32165 24.9553 8.42044 24.9979 8.67588L25.006 8.72434C25.2952 9.97774 25.4151 11.0618 25.4401 12.1252C25.4451 12.3425 25.6583 12.4965 25.8687 12.4422C26.9084 12.1735 28.056 12.1344 29.1646 12.1287C29.412 12.1275 29.5676 12.4001 29.4631 12.6244C28.3046 15.1096 29.3406 17.7766 27.1091 20.7046C26.9611 20.8988 27.06 21.1913 27.2958 21.2545C29.4747 21.8382 30.6027 23.1462 31.6444 25.1786C31.7633 25.4105 31.5615 25.6763 31.3034 25.6402C28.0441 25.184 25.1275 25.9675 21.8221 26.0708C19.474 26.1687 17.3875 25.9178 16.3395 24.6965ZM19.6196 14.0395C19.7485 13.9487 19.7967 13.7782 19.7254 13.6376C18.8862 11.983 17.6838 10.8507 16.202 9.65259C16.0862 9.55896 15.9205 9.55896 15.8047 9.65259C14.323 10.8507 13.1205 11.983 12.2814 13.6376C12.2101 13.7782 12.2582 13.9487 12.3872 14.0395C13.7539 15.0019 14.8814 16.2711 15.7034 17.7143C15.8332 17.9423 16.1736 17.9423 16.3034 17.7143C17.1254 16.2711 18.2529 15.0019 19.6196 14.0395ZM20.4321 13.3C20.4706 13.3771 20.568 13.4029 20.6409 13.3569C21.2285 12.9862 21.8942 12.6934 22.5647 12.4055C22.6508 12.3686 22.749 12.3712 22.8319 12.4148C23.3362 12.6798 23.7643 12.981 24.1162 13.296C24.3321 13.4892 24.7083 13.3614 24.715 13.0717C24.7418 11.9233 24.6515 10.8277 24.4933 9.73566C24.4759 9.61558 24.346 9.54838 24.2375 9.60265C23.2632 10.2522 21.5418 11.5421 20.4413 13.1567C20.4124 13.1992 20.4091 13.254 20.4321 13.3ZM25.3359 14.8025C25.3352 14.8486 25.3457 14.8945 25.3643 14.9366C26.4186 17.3298 24.8864 20.1691 22.9451 21.9175C22.6928 22.1448 22.8883 22.6281 23.2195 22.5529C23.565 22.4744 23.9012 22.3724 24.2375 22.2283C28.1386 20.4358 27.8882 16.4158 28.4457 13.2798C28.481 13.0812 28.33 12.896 28.1283 12.9021C27.3214 12.9263 26.463 13.0293 25.664 13.2665C25.5326 13.3055 25.4458 13.4279 25.4369 13.5647C25.4128 13.9383 25.343 14.3689 25.3359 14.8025ZM20.687 23.4429C20.6394 23.4385 20.5912 23.4445 20.5462 23.4605C19.5539 23.8133 18.4894 24.0175 17.413 24.0128C17.1497 24.0116 16.9936 24.2947 17.1956 24.4636C18.1398 25.2534 19.8619 25.4121 21.8221 25.4121C24.4816 25.4121 27.3317 24.745 30.0172 24.8314C30.2701 24.8396 30.4408 24.5692 30.3035 24.3566C29.1808 22.6175 27.804 22.0267 26.2505 21.8085C26.1576 21.7955 26.0643 21.8262 25.994 21.8882C24.5974 23.1199 22.7956 23.6381 20.687 23.4429ZM15.0333 23.263C15.2063 23.2422 15.321 23.0782 15.2989 22.9054C15.1476 21.7222 15.255 20.5391 15.5416 19.356C15.5561 19.2959 15.5536 19.2326 15.5326 19.1745C14.5421 16.4208 12.1155 14.4929 9.45892 13.1899C9.36371 13.1432 9.2473 13.1499 9.15742 13.2062C3.91984 16.486 9.67722 23.9059 15.0333 23.263ZM15.9686 22.9139C15.9882 23.0318 16.0764 23.1284 16.1923 23.1574C21.8113 24.5604 28.3404 16.622 22.848 13.2049C22.7589 13.1494 22.6442 13.1421 22.5498 13.1878C18.9185 14.9471 15.245 18.5591 15.9686 22.9139ZM14.7744 24.4745C14.9844 24.3063 14.8302 24.0127 14.5612 24.0128C13.4962 24.0133 12.4434 23.8098 11.4614 23.4608C11.4159 23.4446 11.3672 23.4387 11.3191 23.4433C9.31309 23.6374 7.41368 23.119 6.01284 21.8881C5.94238 21.8262 5.84911 21.7955 5.75623 21.8085C4.20332 22.0266 2.82688 22.6171 1.70439 24.3548C1.56682 24.5677 1.73814 24.8384 1.99149 24.8292C4.59592 24.7342 7.53244 25.3101 10.1846 25.4121C11.5208 25.4121 13.6037 25.4121 14.7744 24.4745ZM8.88284 22.5739C9.20963 22.6438 9.3975 22.1876 9.14796 21.9653C7.16514 20.1992 5.57086 17.4535 6.64421 14.9349C6.66168 14.894 6.67158 14.8494 6.67087 14.8049C6.66404 14.3705 6.59405 13.9389 6.56982 13.5647C6.56097 13.4279 6.47414 13.3055 6.34276 13.2665C5.54293 13.0291 4.68351 12.9261 3.87585 12.902C3.67502 12.896 3.52424 13.0798 3.55908 13.2777C4.12737 16.5055 3.96803 20.4332 7.76929 22.2283C8.13648 22.3856 8.50367 22.4929 8.88284 22.5739ZM7.29229 13.0951C7.29935 13.3816 7.66653 13.509 7.88203 13.32C8.26817 12.9813 8.69715 12.7014 9.16897 12.4266C9.25525 12.3763 9.36034 12.3703 9.45185 12.4103C10.1133 12.6991 10.7013 12.9932 11.3633 13.3664C11.4388 13.409 11.5347 13.38 11.5734 13.3025C11.5973 13.2549 11.5943 13.1981 11.5649 13.1536C10.6673 11.7933 9.33891 10.7777 7.97048 9.79404C7.77785 9.65557 7.50741 9.76987 7.47585 10.005C7.34024 11.0155 7.2661 12.0326 7.29229 13.0951ZM11.7491 12.188C11.8969 12.3629 12.1785 12.3453 12.3045 12.154C12.6553 11.6214 13.0648 11.1475 13.533 10.7324C13.6311 10.6454 13.6713 10.5086 13.6254 10.3858C13.2034 9.25831 12.4569 8.29737 11.5311 7.50301C11.3963 7.3874 11.1929 7.41155 11.0864 7.55358C10.4601 8.38842 10.0028 9.17058 9.78397 10.1781C9.75837 10.2959 9.80655 10.4167 9.90245 10.4898C10.5867 11.0114 11.2022 11.5413 11.7491 12.188ZM14.0582 9.59731C14.1523 9.80561 14.4269 9.86222 14.5954 9.7078C14.9824 9.35326 15.3806 9.04099 15.8276 8.73356C15.9335 8.66072 16.0733 8.66072 16.1792 8.73356C16.6262 9.04099 17.0244 9.35326 17.4113 9.7078C17.5798 9.86222 17.8545 9.80561 17.9486 9.59731C18.0707 9.32704 18.1928 9.09071 18.3149 8.88832C18.3764 8.78624 18.3831 8.65843 18.3208 8.55676C17.8004 7.70674 16.97 6.94487 16.1933 6.34384C16.0813 6.25725 15.9254 6.25725 15.8135 6.34384C15.0367 6.94487 14.2064 7.70674 13.6859 8.55676C13.6237 8.65843 13.6303 8.78624 13.6919 8.88832C13.814 9.09071 13.9361 9.32704 14.0582 9.59731ZM18.3814 10.3858C18.3355 10.5086 18.3757 10.6454 18.4737 10.7324C18.942 11.1475 19.3515 11.6214 19.7023 12.154C19.8283 12.3453 20.1101 12.3632 20.2581 12.1883C20.8209 11.5231 21.4896 10.9258 22.1042 10.3963C22.1996 10.3141 22.2383 10.1835 22.2003 10.0634C21.9078 9.13968 21.526 8.29559 20.9193 7.53113C20.8134 7.39767 20.619 7.38053 20.4895 7.49122C19.5573 8.28785 18.8055 9.25272 18.3814 10.3858Z" fill="#ffffff"></path> <path fill-rule="evenodd" clip-rule="evenodd" d="M10.1727 26.389C9.07679 26.3524 7.95128 26.2431 6.82942 26.1341C6.35776 26.0883 5.88674 26.0426 5.41883 26.0023C3.82636 25.8654 2.25223 25.7897 0.727551 25.9713C0.238828 26.0296 -0.170621 25.5214 0.0718761 25.0473C0.601372 24.0122 1.16382 23.1383 1.88651 22.4467C2.61363 21.7509 3.49068 21.2512 4.63208 20.946C4.63603 20.945 4.63859 20.9434 4.64117 20.9409C4.64431 20.9378 4.64802 20.9326 4.65052 20.9253C4.65302 20.918 4.65339 20.9114 4.65275 20.9066C4.6522 20.9025 4.65094 20.8992 4.64828 20.8957C3.56941 19.4523 3.21792 17.9927 3.00244 16.6056C2.95404 16.294 2.91259 15.9891 2.87195 15.6901C2.72927 14.6405 2.59648 13.6636 2.20723 12.7252C2.03738 12.3158 2.31648 11.808 2.80572 11.8102C3.9262 11.8152 5.12386 11.8513 6.21767 12.1339C6.22474 12.1357 6.23319 12.1347 6.24137 12.1287C6.2452 12.1259 6.24726 12.1231 6.24816 12.1214C6.2488 12.1203 6.24924 12.1191 6.24931 12.1167C6.28169 10.9053 6.44163 9.70335 6.67622 8.56267C6.77985 8.05879 7.38857 7.90221 7.74117 8.23282C8.13348 8.60066 8.52694 8.93828 8.92408 9.27152C8.92456 9.27146 8.9252 9.27134 8.92598 9.27111C8.92845 9.2704 8.93062 9.2691 8.93208 9.26775C8.93274 9.26714 8.93327 9.26652 8.93373 9.26582C8.93416 9.26517 8.9348 9.26406 8.93546 9.26217C9.34219 8.10232 9.87071 7.21237 10.7842 6.34439C10.9877 6.15102 11.2962 6.11712 11.537 6.26432C12.1135 6.61689 12.629 7.03266 13.0825 7.51165C13.0865 7.51596 13.0948 7.52121 13.11 7.52014C13.1257 7.51903 13.1364 7.51188 13.142 7.5042C13.6863 6.76717 14.4486 6.12078 15.1511 5.52502C15.2983 5.40024 15.4428 5.27768 15.5822 5.15697C15.8238 4.94768 16.1829 4.94768 16.4246 5.15697C16.5639 5.27768 16.7085 5.40024 16.8556 5.52502C17.5582 6.12078 18.3205 6.76717 18.8647 7.5042C18.8704 7.51188 18.881 7.51903 18.8967 7.52014C18.912 7.52121 18.9202 7.51596 18.9243 7.51165C19.3747 7.03586 19.8864 6.62244 20.4583 6.27139C20.7101 6.11682 21.0324 6.16202 21.234 6.37199C22.0547 7.22671 22.6489 8.10396 23.0732 9.19813C23.1003 9.17607 23.1282 9.15324 23.1563 9.13025C23.2234 9.07524 23.2916 9.01934 23.3537 8.97085C23.4417 8.90215 23.5397 8.83021 23.6361 8.77913C23.9305 8.58081 24.1274 8.38416 24.2319 8.27963C24.5951 7.91649 25.2261 8.10836 25.312 8.62354L25.3184 8.66239C25.6111 9.93368 25.733 11.0364 25.7584 12.1178C25.7584 12.1201 25.7588 12.121 25.7593 12.122C25.7601 12.1235 25.7621 12.1261 25.7658 12.1288C25.7737 12.1347 25.782 12.1357 25.7891 12.1339C26.8707 11.8544 28.0536 11.816 29.1629 11.8104C29.6723 11.8077 29.9427 12.3491 29.7517 12.7589C29.3061 13.7148 29.2036 14.6891 29.0911 15.7581C29.0644 16.0121 29.0371 16.2715 29.0045 16.5372C28.8367 17.9059 28.5272 19.3692 27.3623 20.8976C27.3597 20.9011 27.3585 20.9042 27.3579 20.908C27.3573 20.9127 27.3576 20.9193 27.3601 20.9265C27.3625 20.9337 27.3662 20.9389 27.3692 20.9419C27.3718 20.9444 27.3742 20.9459 27.3782 20.9469C28.5159 21.2517 29.3908 21.7498 30.1165 22.4431C30.8378 23.1322 31.3994 24.0026 31.9277 25.0334C32.1738 25.5134 31.7517 26.0244 31.2593 25.9555C29.6671 25.7326 28.1527 25.8116 26.6111 25.9626C26.1897 26.0038 25.7646 26.0507 25.335 26.0981C24.2036 26.2229 23.0412 26.3512 21.8337 26.389C20.6486 26.4383 19.5101 26.4008 18.5264 26.1896C17.5433 25.9785 16.6843 25.5872 16.0979 24.9039C16.0857 24.8897 16.0541 24.8699 16.0034 24.8699C15.9526 24.8699 15.921 24.8897 15.9089 24.9039C15.3225 25.5872 14.4635 25.9785 13.4803 26.1896C12.4966 26.4008 11.3579 26.4383 10.1727 26.389ZM21.8221 26.0708C23.0168 26.0335 24.1607 25.9073 25.2884 25.7829C27.2806 25.5631 29.2222 25.3489 31.3034 25.6402C31.5615 25.6763 31.7633 25.4105 31.6444 25.1786C30.6027 23.1462 29.4747 21.8382 27.2958 21.2545C27.06 21.1913 26.9611 20.8988 27.1091 20.7046C28.4349 18.965 28.6073 17.3175 28.7719 15.7455C28.8842 14.6717 28.9929 13.6331 29.4631 12.6244C29.5676 12.4001 29.412 12.1275 29.1646 12.1287C28.056 12.1344 26.9084 12.1735 25.8687 12.4422C25.6583 12.4965 25.4451 12.3425 25.4401 12.1252C25.4151 11.0618 25.2952 9.97774 25.006 8.72434L24.9979 8.67588C24.9553 8.42044 24.6402 8.32165 24.457 8.50477C24.3473 8.61455 24.1277 8.83413 23.7983 9.05371C23.6794 9.11314 23.5284 9.23694 23.3626 9.37282C23.3267 9.4022 23.2902 9.43214 23.2532 9.46212C23.09 9.59417 22.8547 9.51589 22.779 9.32009C22.3718 8.26731 21.8019 7.42311 21.0043 6.59251C20.9049 6.48894 20.7472 6.46762 20.6248 6.54273C20.076 6.87961 19.5862 7.27555 19.1555 7.73053C19.0048 7.8897 18.7388 7.86965 18.6086 7.69333C18.0886 6.98911 17.3616 6.37224 16.6596 5.77648C16.5099 5.64945 16.3613 5.52338 16.2161 5.39764C16.0941 5.29197 15.9126 5.29197 15.7906 5.39764C15.6454 5.52338 15.4969 5.64945 15.3472 5.77647C14.6451 6.37224 13.9182 6.98911 13.3982 7.69333C13.268 7.86965 13.0019 7.8897 12.8512 7.73053C12.4176 7.27249 11.9242 6.87429 11.3709 6.53595C11.2537 6.46428 11.1031 6.48057 11.0035 6.5752C10.1315 7.40374 9.62831 8.24853 9.23591 9.36753C9.16066 9.58211 8.89383 9.66175 8.71963 9.51559C8.32089 9.18101 7.92214 8.83895 7.5234 8.46508C7.34098 8.29403 7.03845 8.38186 6.98808 8.62681C6.75654 9.75266 6.59938 10.9358 6.56758 12.1252C6.56177 12.3425 6.34842 12.4965 6.13802 12.4422C5.08653 12.1705 3.92456 12.1336 2.80429 12.1286C2.5654 12.1275 2.40978 12.3826 2.50132 12.6032C2.90795 13.5835 3.0477 14.6139 3.19105 15.6708C3.41398 17.3146 3.64561 19.0224 4.9033 20.705C5.04899 20.9 4.94942 21.1907 4.71433 21.2536C2.52829 21.8382 1.39951 23.1511 0.355326 25.1923C0.237983 25.4217 0.434036 25.6857 0.689884 25.6552C2.71196 25.4143 4.8056 25.6176 6.87146 25.8183C7.98922 25.9269 9.09886 26.0346 10.1846 26.0708C12.5327 26.1687 14.6193 25.9178 15.6673 24.6965C15.8331 24.5032 16.1736 24.5032 16.3395 24.6965C17.3875 25.9178 19.474 26.1687 21.8221 26.0708ZM16.0034 9.90141C17.4735 11.0902 18.6314 12.1868 19.4389 13.7767C19.4383 13.7775 19.4375 13.7783 19.4363 13.7792C18.0294 14.7699 16.8707 16.0749 16.0267 17.5567C16.0247 17.5604 16.0229 17.5618 16.0206 17.5631C16.0172 17.5649 16.0113 17.5669 16.0034 17.5669C15.9955 17.5669 15.9895 17.5649 15.9862 17.5631C15.9839 17.5618 15.9821 17.5604 15.98 17.5567C15.1361 16.0749 13.9774 14.7699 12.5705 13.7792C12.5693 13.7783 12.5684 13.7775 12.5678 13.7767C13.3754 12.1868 14.5333 11.0902 16.0034 9.90141ZM24.2098 10.0059C23.3782 10.5774 22.1585 11.5201 21.2011 12.6778C21.6062 12.473 22.0263 12.2902 22.4391 12.113C22.6104 12.0395 22.8093 12.0432 22.9801 12.1329C23.5065 12.4096 23.9563 12.7256 24.3286 13.0587C24.3342 13.0638 24.3411 13.0673 24.3509 13.0689C24.3619 13.0707 24.3746 13.0696 24.3859 13.0655C24.3911 13.0636 24.3946 13.0617 24.3968 13.0602C24.421 12.0132 24.346 11.0086 24.2098 10.0059ZM20.7266 13.3037C21.2929 12.9579 21.9266 12.6795 22.5647 12.4055C22.6508 12.3686 22.749 12.3712 22.8319 12.4148C23.3362 12.6798 23.7643 12.981 24.1162 13.296C24.3321 13.4892 24.7083 13.3614 24.715 13.0717C24.7418 11.9233 24.6515 10.8277 24.4933 9.73566C24.4759 9.61558 24.346 9.54838 24.2375 9.60265C23.2812 10.2402 21.6051 11.4947 20.503 13.0676C20.5016 13.0696 20.5002 13.0715 20.4988 13.0735C20.4924 13.0827 20.4859 13.0919 20.4795 13.1012C20.4667 13.1197 20.454 13.1382 20.4413 13.1567C20.4124 13.1992 20.4091 13.254 20.4321 13.3C20.4706 13.3771 20.568 13.4029 20.6409 13.3569C20.6572 13.3466 20.6736 13.3364 20.69 13.3262C20.7001 13.32 20.7102 13.3138 20.7203 13.3076C20.7224 13.3063 20.7245 13.305 20.7266 13.3037ZM25.5734 18.7877C25.0584 20.0677 24.1583 21.2533 23.1582 22.1541C23.1547 22.1572 23.1513 22.1614 23.1495 22.1727C23.1473 22.1867 23.1491 22.2064 23.157 22.2253C23.1594 22.2311 23.1619 22.2355 23.1641 22.2389C23.4878 22.1647 23.7991 22.0694 24.1083 21.9372C25.9533 21.0882 26.8157 19.722 27.2909 18.1649C27.5307 17.3794 27.6709 16.5472 27.7861 15.7057C27.8214 15.4482 27.8545 15.1883 27.8876 14.9286C27.9614 14.3491 28.035 13.771 28.1322 13.2241C28.1325 13.2228 28.1325 13.222 28.1324 13.2214C28.1324 13.2211 28.1324 13.2208 28.1323 13.2205C27.347 13.2445 26.5212 13.3447 25.7589 13.5705C25.7583 13.5715 25.7575 13.5731 25.7567 13.5751C25.7557 13.578 25.7549 13.5814 25.7547 13.5852C25.7449 13.7364 25.7278 13.8979 25.711 14.0571C25.7062 14.1029 25.7014 14.1484 25.6967 14.1935C25.6757 14.3992 25.6577 14.6031 25.6543 14.8047C25.6546 14.8055 25.655 14.8067 25.6557 14.8083C26.2273 16.1058 26.0889 17.5066 25.5734 18.7877ZM24.2375 22.2283C23.9012 22.3724 23.565 22.4744 23.2195 22.5529C22.8883 22.6281 22.6928 22.1448 22.9451 21.9175C24.8864 20.1691 26.4186 17.3298 25.3643 14.9366C25.3457 14.8945 25.3352 14.8486 25.3359 14.8025C25.3403 14.5362 25.3683 14.2709 25.3948 14.0193C25.4115 13.8613 25.4276 13.7088 25.4369 13.5647C25.4458 13.4279 25.5326 13.3055 25.664 13.2665C26.463 13.0293 27.3214 12.9263 28.1283 12.9021C28.33 12.896 28.481 13.0812 28.4457 13.2798C28.3499 13.8188 28.2779 14.3839 28.2047 14.9593C27.8517 17.7318 27.4681 20.7439 24.2375 22.2283ZM17.5456 24.3307C17.9477 24.6116 18.4993 24.8012 19.1826 24.9204C19.9488 25.054 20.8475 25.0937 21.8221 25.0937C23.047 25.0937 24.3152 24.9498 25.6104 24.8029C25.6982 24.7929 25.7861 24.7829 25.8742 24.773C27.2522 24.6173 28.6572 24.4693 30.0256 24.5132C28.9664 22.8818 27.6863 22.3321 26.2088 22.1242C26.2079 22.1246 26.2063 22.1255 26.2046 22.127C24.7316 23.426 22.8386 23.9619 20.6577 23.7599C20.6558 23.7598 20.654 23.76 20.6528 23.7605C19.6708 24.1096 18.6168 24.3188 17.5456 24.3307ZM17.4027 24.3323C17.4027 24.3323 17.4028 24.3323 17.4031 24.3321L17.4027 24.3323ZM14.9831 22.9458C14.8259 21.7165 14.9384 20.4937 15.2322 19.281C15.2322 19.2807 15.2323 19.2804 15.2323 19.2802C14.2824 16.6417 11.9448 14.7646 9.32331 13.478C8.0918 14.2502 7.53203 15.244 7.42957 16.2829C7.32568 17.3365 7.68862 18.4788 8.38778 19.5292C9.79192 21.6386 12.4583 23.2452 14.9832 22.9483C14.9832 22.9475 14.9832 22.9467 14.9831 22.9458ZM22.6829 13.4771C23.9738 14.2814 24.5318 15.3277 24.5975 16.418C24.6642 17.5254 24.2248 18.7222 23.4306 19.7998C21.8349 21.965 18.9239 23.5047 16.2809 22.8513C15.9413 20.7872 16.6372 18.8862 17.8785 17.2716C19.1229 15.6532 20.9039 14.34 22.6829 13.4771ZM14.4345 24.3304C13.3728 24.3154 12.3284 24.1068 11.3548 23.7608C11.3535 23.7603 11.3517 23.76 11.3497 23.7602C9.27148 23.9613 7.28033 23.4257 5.80268 22.1273C5.80072 22.1256 5.79904 22.1246 5.79802 22.1242C4.32119 22.332 3.04152 22.8813 1.98257 24.5109C3.30843 24.4628 4.71232 24.5853 6.10312 24.7301C6.35293 24.7561 6.60218 24.7828 6.85057 24.8094C7.99148 24.9317 9.11437 25.052 10.1908 25.0937C10.8605 25.0937 11.691 25.0929 12.4973 24.9796C13.2403 24.8752 13.9261 24.6796 14.4345 24.3304ZM14.571 24.3326C14.571 24.3326 14.5708 24.3325 14.5707 24.3324L14.571 24.3326ZM10.1846 25.4121C9.09443 25.3702 7.95619 25.2482 6.81273 25.1256C5.17441 24.95 3.52536 24.7732 1.99149 24.8292C1.73814 24.8384 1.56682 24.5677 1.70439 24.3548C2.82688 22.6171 4.20332 22.0266 5.75623 21.8085C5.84911 21.7955 5.94238 21.8262 6.01284 21.8881C7.41368 23.119 9.31309 23.6374 11.3191 23.4433C11.3672 23.4387 11.4159 23.4446 11.4614 23.4608C12.4434 23.8098 13.4962 24.0133 14.5612 24.0128C14.8302 24.0127 14.9844 24.3063 14.7744 24.4745C13.6037 25.4121 11.5208 25.4121 10.1846 25.4121ZM6.45639 18.8554C5.92013 17.5761 5.77256 16.1682 6.35132 14.8101C6.3519 14.8087 6.35227 14.8077 6.35248 14.807C6.34916 14.605 6.33122 14.4007 6.31014 14.1946C6.30549 14.1492 6.30063 14.1032 6.29576 14.0571C6.27895 13.8979 6.26189 13.7364 6.2521 13.5852C6.25186 13.5814 6.25108 13.578 6.25003 13.5751C6.24928 13.5731 6.24848 13.5715 6.24782 13.5705C5.48496 13.3445 4.65833 13.2443 3.87244 13.2205C3.87244 13.2209 3.87247 13.2215 3.87264 13.2225C3.96577 13.7515 4.04043 14.3052 4.11495 14.8579C4.15479 15.1533 4.19459 15.4485 4.23715 15.7394C4.36081 16.5848 4.51008 17.4144 4.75553 18.1947C5.24213 19.7417 6.10302 21.0875 7.9 21.9379C8.23824 22.0824 8.579 22.1827 8.93609 22.2597C8.93689 22.2582 8.93771 22.2565 8.93855 22.2545C8.94439 22.2408 8.94547 22.2267 8.94386 22.2173C8.94316 22.2131 8.9421 22.2106 8.94132 22.2091C8.94097 22.2085 8.94045 22.2076 8.93956 22.2065C8.93878 22.2056 8.9377 22.2044 8.93619 22.2031C7.91843 21.2965 6.99124 20.1313 6.45639 18.8554ZM7.76929 22.2283C4.58429 20.7242 4.1798 17.723 3.79808 14.8907C3.72422 14.3427 3.65121 13.801 3.55908 13.2777C3.52424 13.0798 3.67502 12.896 3.87585 12.902C4.68351 12.9261 5.54293 13.0291 6.34276 13.2665C6.47414 13.3055 6.56097 13.4279 6.56982 13.5647C6.57915 13.7088 6.59526 13.8613 6.61194 14.0193C6.63858 14.2717 6.66667 14.5377 6.67087 14.8049C6.67158 14.8494 6.66168 14.894 6.64421 14.9349C5.57086 17.4535 7.16514 20.1992 9.14796 21.9653C9.3975 22.1876 9.20963 22.6438 8.88284 22.5739C8.50367 22.4929 8.13648 22.3856 7.76929 22.2283ZM7.67211 13.0806C8.08034 12.7226 8.52913 12.4308 9.00872 12.1514C9.18299 12.0499 9.39495 12.038 9.57924 12.1185C10.0237 12.3125 10.4357 12.5091 10.8578 12.7294C10.0291 11.7116 8.94077 10.8837 7.79018 10.0565C7.65727 11.0497 7.58516 12.0454 7.61047 13.083C7.61237 13.0842 7.61513 13.0857 7.61897 13.0871C7.62901 13.0908 7.64056 13.0919 7.65066 13.0903C7.65962 13.0889 7.66631 13.0857 7.67211 13.0806ZM12.0386 11.9789C12.4044 11.4234 12.8322 10.9282 13.3218 10.4941C13.3229 10.4932 13.3238 10.4922 13.3244 10.4914C13.3245 10.4912 13.3246 10.4911 13.3247 10.4909C12.9266 9.43101 12.2219 8.51764 11.3343 7.75369C10.7269 8.56457 10.3019 9.30037 10.0968 10.2377C10.7896 10.7659 11.4247 11.3114 11.9922 11.9824C11.9947 11.9854 11.9972 11.9871 12.0003 11.9883C12.0039 11.9898 12.0091 11.9909 12.0154 11.9905C12.0285 11.9897 12.0352 11.9841 12.0386 11.9789ZM14.3804 9.47306C14.7794 9.10739 15.1895 8.78603 15.6472 8.47123C15.8617 8.32365 16.145 8.32365 16.3596 8.47123C16.8173 8.78603 17.2273 9.10739 17.6264 9.47306C17.629 9.47542 17.6309 9.47622 17.6328 9.47671C17.6353 9.47736 17.6391 9.47767 17.6437 9.47673C17.6483 9.47579 17.6517 9.47397 17.6538 9.47232C17.6555 9.47106 17.657 9.46949 17.6584 9.46623C17.7845 9.18724 17.9123 8.93932 18.0422 8.72386C18.0438 8.72128 18.0448 8.71889 18.0454 8.71693C18.0454 8.71685 18.0453 8.717 18.0454 8.71693C17.5558 7.92037 16.7662 7.19023 16.0034 6.59949C15.2406 7.19023 14.4509 7.92013 13.9613 8.71669C13.9614 8.71676 13.9613 8.7166 13.9613 8.71669C13.9619 8.71865 13.963 8.72129 13.9645 8.72386C14.0945 8.93932 14.2223 9.18724 14.3483 9.46624C14.3498 9.46949 14.3513 9.47106 14.3529 9.47232C14.355 9.47397 14.3585 9.47579 14.3631 9.47673C14.3677 9.47767 14.3715 9.47736 14.374 9.47671C14.3759 9.47622 14.3778 9.47542 14.3804 9.47306ZM18.6849 10.4941C19.1745 10.9282 19.6023 11.4234 19.9682 11.9789C19.9716 11.9841 19.9784 11.9899 19.9917 11.9907C20.0049 11.9915 20.0116 11.9867 20.015 11.9827C20.595 11.2971 21.28 10.6861 21.8956 10.1558C21.6126 9.26324 21.2495 8.46434 20.6826 7.74502C19.7903 8.51071 19.0817 9.427 18.682 10.4909C18.6827 10.4919 18.6837 10.493 18.6849 10.4941ZM19.7254 13.6376C19.7967 13.7782 19.7485 13.9487 19.6196 14.0395C18.2529 15.0019 17.1254 16.2711 16.3034 17.7143C16.1736 17.9423 15.8332 17.9423 15.7034 17.7143C14.8814 16.2711 13.7539 15.0019 12.3872 14.0395C12.2582 13.9487 12.2101 13.7782 12.2814 13.6376C13.1205 11.983 14.323 10.8507 15.8047 9.65259C15.9205 9.55896 16.0862 9.55896 16.202 9.65259C17.6838 10.8507 18.8862 11.983 19.7254 13.6376ZM20.5462 23.4605C20.5912 23.4445 20.6394 23.4385 20.687 23.4429C22.7956 23.6381 24.5974 23.1199 25.994 21.8882C26.0643 21.8262 26.1576 21.7955 26.2505 21.8085C27.804 22.0267 29.1808 22.6175 30.3035 24.3566C30.4408 24.5692 30.2701 24.8396 30.0172 24.8314C28.5875 24.7854 27.1111 24.953 25.6417 25.1197C24.3511 25.2662 23.0658 25.4121 21.8221 25.4121C19.8619 25.4121 18.1398 25.2534 17.1956 24.4636C16.9936 24.2947 17.1497 24.0116 17.413 24.0128C18.4894 24.0175 19.5539 23.8133 20.5462 23.4605ZM15.2989 22.9054C15.321 23.0782 15.2063 23.2422 15.0333 23.263C9.67722 23.9059 3.91984 16.486 9.15742 13.2062C9.2473 13.1499 9.36371 13.1432 9.45892 13.1899C12.1155 14.4929 14.5421 16.4208 15.5326 19.1745C15.5536 19.2326 15.5561 19.2959 15.5416 19.356C15.255 20.5391 15.1476 21.7222 15.2989 22.9054ZM16.1923 23.1574C16.0764 23.1284 15.9882 23.0318 15.9686 22.9139C15.245 18.5591 18.9185 14.9471 22.5498 13.1878C22.6442 13.1421 22.7589 13.1494 22.848 13.2049C28.3404 16.622 21.8113 24.5604 16.1923 23.1574ZM7.88203 13.32C7.66653 13.509 7.29935 13.3816 7.29229 13.0951C7.2661 12.0326 7.34024 11.0155 7.47585 10.005C7.50741 9.76987 7.77785 9.65557 7.97048 9.79404C9.33891 10.7777 10.6673 11.7933 11.5649 13.1536C11.5943 13.1981 11.5973 13.2549 11.5734 13.3025C11.5347 13.38 11.4388 13.409 11.3633 13.3664C10.7013 12.9932 10.1133 12.6991 9.45185 12.4103C9.36034 12.3703 9.25525 12.3763 9.16897 12.4266C8.69715 12.7014 8.26817 12.9813 7.88203 13.32ZM12.3045 12.154C12.1785 12.3453 11.8969 12.3629 11.7491 12.188C11.2022 11.5413 10.5867 11.0114 9.90245 10.4898C9.80655 10.4167 9.75837 10.2959 9.78397 10.1781C10.0028 9.17058 10.4601 8.38842 11.0864 7.55358C11.1929 7.41155 11.3963 7.3874 11.5311 7.50301C12.4569 8.29737 13.2034 9.25831 13.6254 10.3858C13.6713 10.5086 13.6311 10.6454 13.533 10.7324C13.0648 11.1475 12.6553 11.6214 12.3045 12.154ZM14.5954 9.7078C14.4269 9.86222 14.1523 9.80561 14.0582 9.59731C13.9361 9.32704 13.814 9.09071 13.6919 8.88832C13.6303 8.78624 13.6237 8.65843 13.6859 8.55676C14.2064 7.70674 15.0367 6.94487 15.8135 6.34384C15.9254 6.25725 16.0813 6.25725 16.1933 6.34384C16.97 6.94487 17.8004 7.70674 18.3208 8.55676C18.3831 8.65843 18.3764 8.78624 18.3149 8.88832C18.1928 9.09071 18.0707 9.32704 17.9486 9.59731C17.8545 9.80561 17.5798 9.86222 17.4113 9.7078C17.0244 9.35326 16.6262 9.04099 16.1792 8.73356C16.0733 8.66072 15.9335 8.66072 15.8276 8.73356C15.3806 9.04099 14.9824 9.35326 14.5954 9.7078ZM18.4737 10.7324C18.3757 10.6454 18.3355 10.5086 18.3814 10.3858C18.8055 9.25272 19.5573 8.28785 20.4895 7.49122C20.619 7.38053 20.8134 7.39767 20.9193 7.53113C21.526 8.29559 21.9078 9.13968 22.2003 10.0634C22.2383 10.1835 22.1996 10.3141 22.1042 10.3963C21.4896 10.9258 20.8209 11.5231 20.2581 12.1883C20.1101 12.3632 19.8283 12.3453 19.7023 12.154C19.3515 11.6214 18.942 11.1475 18.4737 10.7324Z" fill="#ffffff"></path> </svg>