<svg xmlns="http://www.w3.org/2000/svg" width="70" height="70" viewBox="0 0 70 70" fill="none">
<path fill-rule="evenodd" clip-rule="evenodd" d="M69.9253 23.4792C69.9294 26.1121 69.2534 28.5758 68.2039 30.978C64.3947 39.6948 60.6282 48.4298 56.8417 57.1567C56.0736 58.9276 55.2946 60.694 54.5123 62.459C54.1203 63.3442 53.3954 63.7008 52.4827 63.4772C51.928 63.3415 51.5991 62.9577 51.3793 62.4567C50.7292 60.9746 50.0731 59.4952 49.4291 58.0104C45.3713 48.6584 41.3125 39.3067 37.264 29.9506C36.5474 28.2948 36.15 26.554 36.0235 24.7523C35.7229 20.4704 36.8418 16.5948 39.4383 13.1868C42.1038 9.68767 45.6195 7.49018 49.9585 6.73822C55.1325 5.84177 59.794 7.08522 63.8373 10.44C66.9672 13.0373 68.9029 16.385 69.6353 20.3984C69.82 21.4108 69.8801 22.446 69.9976 23.471L69.9253 23.4792ZM52.9453 40.5009C52.9978 40.3889 53.0275 40.3305 53.0528 40.27C55.074 35.4738 57.1012 30.6801 59.1101 25.8785C59.6088 24.6862 59.7145 23.4333 59.4496 22.1664C58.7105 18.6309 55.4493 16.3721 51.8957 16.92C47.6708 17.5716 45.1811 22.1024 46.8598 26.0573C48.4943 29.9075 50.1083 33.7666 51.7315 37.6216C52.1277 38.5624 52.5244 39.5031 52.9453 40.5009Z" fill="#F85454"/>
<path d="M35.7261 7.36039C31.3985 17.349 27.088 27.2975 22.7622 37.2814H23.1435C25.921 37.2814 28.6982 37.2803 31.4755 37.282C32.5219 37.2826 33.5004 37.5237 34.3689 38.1314C35.0901 38.636 35.6468 39.2735 35.9965 40.0953C36.8607 42.1249 37.7411 44.1472 38.615 46.1726C38.6514 46.2575 38.6838 46.3441 38.7406 46.4853H38.3486C31.9219 46.4853 25.4954 46.4872 19.0687 46.4785C18.7999 46.4781 18.675 46.5632 18.571 46.8048C16.8254 50.8556 15.0906 54.9114 13.3109 58.9473C12.3839 61.0496 10.7645 62.2955 8.45338 62.5666C8.06864 62.6117 7.67934 62.6349 7.29223 62.6359C4.98883 62.6421 2.68527 62.639 0.382211 62.639C0.269776 62.639 0.157848 62.639 0 62.639C0.0449064 62.5144 0.0712425 62.4273 0.107201 62.3444C3.94349 53.515 7.78181 44.6866 11.6173 35.8568C15.3398 27.2872 19.0466 18.7108 22.79 10.1505C23.5539 8.40322 24.9784 7.42144 26.8836 7.37333C29.7539 7.30098 32.6269 7.346 35.4987 7.34189C35.5544 7.34168 35.6103 7.35073 35.7261 7.36039Z" fill="#F85454"/>
</svg>