<svg xmlns="http://www.w3.org/2000/svg" width="445" height="47" viewBox="0 0 445 47" fill="none">
<path d="M204.443 38.4114C208.655 38.4114 212.634 38.4114 216.614 38.4114C219.575 38.4114 222.536 38.3813 225.497 38.421C227.906 38.4536 229.543 40.0765 229.608 42.4321C229.641 43.5906 229.613 44.7505 229.613 45.996H195.788V0.977783H229.488C229.488 2.6005 229.676 4.32502 229.436 5.99141C229.192 7.70884 227.713 8.4839 225.351 8.48872C219.087 8.49963 212.822 8.4924 206.558 8.4924H204.466C204.466 12.1214 204.432 15.6188 204.535 19.1124C204.544 19.3735 205.541 19.8148 206.082 19.8211C211.378 19.8741 216.674 19.8535 221.97 19.8535C222.644 19.8535 223.319 19.8535 224.32 19.8535C224.226 21.6989 224.298 23.4221 224.007 25.0837C223.733 26.6521 222.313 27.4189 220.152 27.4321C215.595 27.461 211.037 27.5132 206.485 27.4044C204.824 27.3657 204.335 27.8542 204.407 29.4625C204.537 32.3528 204.443 35.2526 204.443 38.4114Z" fill="white"/>
<path d="M411.206 0.90625H444.954C444.954 2.45778 445.073 3.95713 444.926 5.43124C444.722 7.47141 443.281 8.48 440.765 8.4861C434.44 8.50283 428.117 8.49191 421.793 8.49191C421.178 8.49191 420.565 8.49191 419.841 8.49191V19.7966H439.472C439.472 21.5716 439.63 23.1885 439.43 24.7606C439.201 26.5421 437.806 27.4126 435.485 27.4308C430.927 27.4646 426.37 27.4415 421.813 27.4429C421.199 27.4429 420.586 27.4429 419.852 27.4429V38.4112H422.086C428.183 38.4112 434.279 38.4049 440.375 38.4134C443.379 38.4182 444.966 40.0001 444.989 42.9858C444.997 43.9327 444.99 44.8795 444.99 45.9558H411.206V0.90625Z" fill="white"/>
<path fill-rule="evenodd" clip-rule="evenodd" d="M238.292 0.83705C242.196 0.83705 246.002 0.789973 249.803 0.850379C253.898 0.915747 258.034 0.749987 262.071 1.27974C269.631 2.27132 274.881 8.63937 275.164 15.9882C275.556 26.0834 269.241 32.3523 258.381 32.6076C254.687 32.6946 250.988 32.622 247.051 32.622C247.051 35.5484 247.051 38.3758 247.051 41.2033C247.05 45.0428 245.998 46.084 242.11 46.0851C240.869 46.0863 239.627 46.0851 238.292 46.0851V0.83705ZM247.113 24.9692C247.906 24.9692 248.522 24.9703 249.136 24.9678C252.319 24.9546 255.516 25.1202 258.681 24.8833C263.108 24.5532 266.016 21.64 266.259 17.7002C266.541 13.107 264.175 9.34512 259.857 8.83352C255.686 8.34035 251.408 8.72703 247.113 8.72703V24.9692Z" fill="white"/>
<path d="M82.9279 34.9393C79.9466 43.0828 68.6998 48.3648 58.1496 46.6901C47.0406 44.9267 38.6658 35.6843 38.2641 24.7463C37.8377 13.1262 45.3537 3.1967 56.5235 0.628347C67.2394 -1.83635 78.8949 3.14593 83.0219 12.1369C80.9222 12.9253 78.8833 13.9932 76.7185 14.379C75.6269 14.5738 73.9076 13.8674 73.1538 12.9993C68.3177 7.42803 60.6282 7.23703 55.8784 9.51655C50.205 12.2396 46.4303 18.8002 47.1589 24.7863C48.0217 31.892 52.5685 37.266 59.1585 38.5394C64.4041 39.554 69.1016 38.3157 72.8324 34.3361C74.6859 32.3587 75.7565 32.0902 78.2524 33.0565C79.8225 33.6648 81.3769 34.313 82.9279 34.9393Z" fill="white"/>
<path d="M403.388 12.1614C401.389 12.9231 399.428 13.7891 397.387 14.4142C395.623 14.9549 394.368 13.8797 393.244 12.69C390.385 9.6618 386.875 8.12232 382.637 8.15125C375.544 8.20088 369.578 13.0283 367.955 20.0858C366.316 27.2181 369.959 34.5996 376.62 37.636C382.011 40.0948 388.606 38.9156 392.85 34.7328C395.549 32.0748 396.026 31.9778 399.57 33.4C400.82 33.9006 402.069 34.41 403.312 34.9117C401.158 41.05 392.383 48.3952 379.012 46.7398C368.405 45.4263 359.205 36.2695 358.711 24.6678C358.137 11.2494 368.056 2.34442 377.38 0.564172C391.142 -2.06232 400.457 5.41459 403.388 12.1614Z" fill="white"/>
<path d="M167.344 26.8616C167.696 26.1639 167.95 25.6851 168.182 25.1964C171.443 18.3288 174.755 11.4831 177.937 4.57931C179.168 1.90433 181.015 0.583784 184.055 0.815904C185.748 0.945364 187.462 0.839017 189.56 0.839017C182.178 16.0821 174.901 31.1064 167.623 46.1306L167.126 46.1739C159.872 31.1716 152.618 16.1677 145.285 0.997261C148.052 0.997261 150.638 0.824412 153.185 1.05781C154.875 1.21265 155.831 2.61303 156.532 4.11011C159.807 11.0936 163.113 18.0641 166.412 25.0368C166.666 25.5736 166.951 26.0961 167.344 26.8616Z" fill="white"/>
<path d="M122.942 0.838686C122.942 2.26912 122.998 3.48928 122.931 4.70334C122.789 7.2127 121.476 8.451 118.902 8.48234C115.896 8.51992 112.889 8.49085 109.657 8.49085V10.5951C109.657 20.9754 109.66 31.355 109.656 41.7355C109.655 44.9388 108.512 46.0695 105.266 46.0841C103.854 46.0915 102.443 46.0854 100.846 46.0854V8.52729H87.8121C87.8121 6.65899 87.6406 4.93928 87.8633 3.27049C88.0701 1.70066 89.4926 0.858963 91.4668 0.848187C96.249 0.821529 101.03 0.838686 105.813 0.838686C111.443 0.837268 117.074 0.838686 122.942 0.838686Z" fill="white"/>
<path d="M290.809 38.4114C297.477 38.4114 303.906 38.4101 310.333 38.4114C314.068 38.4114 315.113 39.4286 315.119 43.0648C315.121 44.0044 315.12 44.9439 315.12 45.9827H282.016V0.988842C284.064 0.988842 286.173 0.768633 288.191 1.0915C289.061 1.23075 289.961 2.38185 290.445 3.28012C290.862 4.05433 290.795 5.12333 290.797 6.06174C290.818 16.1677 290.809 26.2723 290.809 36.3773C290.809 36.9819 290.809 37.588 290.809 38.4114Z" fill="white"/>
<path d="M19.0806 25.3402C21.5953 25.3402 23.8538 25.3863 26.1091 25.3271C28.1996 25.2726 29.5541 26.1916 30.338 28.0467C30.9657 29.5317 31.6272 31.0023 32.3764 32.7135C31.631 32.7482 31.0438 32.8003 30.458 32.8017C26.0744 32.8077 21.6902 32.8512 17.3083 32.7763C16.0793 32.7545 15.4849 33.1813 15.0348 34.2601C13.8327 37.1455 12.5032 39.9787 11.2615 42.8485C10.3041 45.0591 8.60036 46.0868 6.1929 46.0857C4.20892 46.0844 2.22754 46.0857 0 46.0857C0.879329 44.0746 1.6687 42.2439 2.47629 40.4214C7.86855 28.2778 13.299 16.1496 18.6305 3.98067C19.6226 1.71689 21.0862 0.667177 23.6004 0.814645C25.5795 0.930918 27.5727 0.839034 29.896 0.839034C26.2639 9.06448 22.7228 17.088 19.0806 25.3402Z" fill="white"/>
<path d="M320.436 46.0868C322.174 42.1334 323.798 38.4137 325.445 34.7024C329.974 24.4961 334.547 14.3079 339.022 4.07819C340.027 1.7794 341.51 0.642903 344.113 0.813342C346.094 0.943936 348.089 0.838723 350.343 0.838723C346.725 9.03425 343.178 17.0625 339.522 25.3414C341.996 25.3414 344.197 25.4019 346.392 25.3245C348.624 25.2471 350.054 26.2072 350.862 28.2086C351.444 29.6476 352.091 31.06 352.848 32.8064C351.961 32.8064 351.316 32.8064 350.672 32.8064C346.344 32.8064 342.017 32.8401 337.692 32.7834C336.569 32.7675 335.975 33.0688 335.538 34.1499C334.411 36.942 333.069 39.652 331.908 42.4322C330.854 44.9573 329.039 46.1872 326.245 46.0976C324.426 46.0407 322.606 46.0868 320.436 46.0868Z" fill="white"/>
<path d="M130.126 0.838057C131.854 0.838057 133.327 0.825863 134.801 0.840326C137.671 0.867125 138.943 2.10033 138.952 4.95312C138.974 11.2039 138.959 17.4548 138.959 23.7056C138.959 30.5151 138.959 37.3233 138.959 44.1329V46.0569C136.957 46.0569 135.137 46.1803 133.344 46.0253C131.165 45.8379 130.135 44.4846 130.132 42.0529C130.119 31.9516 130.126 21.8494 130.126 11.7468C130.126 8.18564 130.126 4.62288 130.126 0.838057Z" fill="white"/>
</svg>