<svg width="42" height="36" viewBox="0 0 42 36" fill="none" xmlns="http://www.w3.org/2000/svg">
<path fill-rule="evenodd" clip-rule="evenodd" d="M41.9551 11.0875C41.9576 12.6672 41.552 14.1455 40.9223 15.5868C38.6368 20.8169 36.3769 26.0579 34.105 31.294C33.6441 32.3566 33.1767 33.4164 32.7073 34.4754C32.4721 35.0065 32.0372 35.2205 31.4896 35.0863C31.1567 35.0049 30.9594 34.7746 30.8275 34.4741C30.4375 33.5848 30.0438 32.6971 29.6574 31.8062C27.2227 26.1951 24.7875 20.584 22.3584 14.9704C21.9284 13.9769 21.6899 12.9324 21.6141 11.8514C21.4337 9.28222 22.105 6.95691 23.6629 4.91208C25.2622 2.8126 27.3716 1.49411 29.9751 1.04293C33.0795 0.505062 35.8764 1.25113 38.3023 3.26402C40.1803 4.82241 41.3417 6.83098 41.7811 9.23905C41.8919 9.84649 41.928 10.4676 41.9985 11.0826L41.9551 11.0875ZM31.7673 21.3005C31.7988 21.2333 31.8166 21.1982 31.8318 21.162C33.0445 18.2842 34.2608 15.408 35.4662 12.527C35.7654 11.8117 35.8288 11.0599 35.6699 10.2998C35.2264 8.17848 33.2696 6.82324 31.1375 7.15193C28.6026 7.54292 27.1087 10.2614 28.116 12.6343C29.0967 14.9445 30.065 17.2599 31.039 19.5729C31.2767 20.1374 31.5147 20.7018 31.7673 21.3005Z" fill="white"></path>
<path d="M21.4357 1.41633C18.8391 7.40949 16.2528 13.3786 13.6573 19.3689H13.8861C15.5526 19.3689 17.2189 19.3683 18.8853 19.3693C19.5131 19.3697 20.1002 19.5143 20.6214 19.8789C21.0541 20.1817 21.3881 20.5642 21.5979 21.0573C22.1164 22.275 22.6447 23.4884 23.169 24.7037C23.1909 24.7546 23.2103 24.8065 23.2443 24.8913H23.0091C19.1531 24.8913 15.2972 24.8924 11.4412 24.8872C11.28 24.887 11.205 24.938 11.1426 25.083C10.0952 27.5135 9.05435 29.9469 7.98652 32.3685C7.43032 33.6298 6.45872 34.3774 5.07203 34.5401C4.84118 34.5671 4.6076 34.581 4.37534 34.5816C2.9933 34.5853 1.61116 34.5835 0.229327 34.5835C0.161866 34.5835 0.0947087 34.5835 0 34.5835C0.0269439 34.5088 0.0427455 34.4565 0.0643208 34.4068C2.3661 29.1091 4.66909 23.8121 6.97035 18.5142C9.20386 13.3724 11.4279 8.2266 13.674 3.09041C14.1324 2.04203 14.9871 1.45296 16.1301 1.4241C17.8523 1.38069 19.5761 1.4077 21.2992 1.40523C21.3326 1.4051 21.3662 1.41053 21.4357 1.41633Z" fill="white"></path>
</svg>