<svg width="48" height="48" viewBox="0 0 48 48" fill="none" xmlns="http://www.w3.org/2000/svg">
<g opacity="0.6" clip-path="url(#clip0_22148_275319)">
<path d="M9.19108 43.1436C7.10633 42.9067 5.35324 42.6224 4.12134 42.2908C3.12635 42.0065 2.5104 41.6748 2.2735 41.5327C2.2735 41.2958 2.22612 40.5377 2.5104 39.5427C2.84207 38.3108 3.41063 36.6525 4.2161 34.7099C5.77967 31.0142 8.1487 26.2761 10.8968 21.4433C11.797 19.8797 12.7446 18.2688 13.8344 16.4683L13.9765 16.2314L12.1287 15.0469L11.9865 15.3312C10.802 17.2264 9.85441 18.8373 9.00155 20.4009C6.20609 25.2337 3.78968 30.0666 2.17874 33.8096C1.32588 35.847 0.709935 37.6001 0.37827 38.9741C-0.000775641 40.4903 -0.237679 41.5801 0.37827 42.6224C0.994219 43.6648 2.03659 43.9965 3.55278 44.3755C4.92681 44.7546 6.72728 45.0389 8.95417 45.2758C12.3656 45.6548 16.772 45.8443 21.6522 45.8917H21.9839V43.7122H21.6996C16.8667 43.7122 12.5551 43.4753 9.19108 43.1436Z" fill="white"/>
<path d="M14.6462 15.1387C14.9305 14.7123 15.1674 14.2859 15.4517 13.9068L15.6886 13.5751L13.8408 12.3906L13.6039 12.7223C13.3196 13.1487 13.0827 13.5278 12.7984 14.0016L12.6562 14.2385L14.5041 15.423L14.6462 15.1387Z" fill="white"/>
<path d="M43.2067 33.3801C43.3488 33.7118 43.4909 34.0434 43.6331 34.3277L43.7752 34.6594L45.6231 33.4749L45.5283 33.238C45.3862 32.8589 45.1966 32.4799 45.0071 32.1008L44.7228 31.4375L42.875 32.6694L43.2067 33.3801Z" fill="white"/>
<path d="M36.7704 21.2104C38.8552 24.7639 40.7978 28.3175 42.314 31.4446L42.4561 31.7763L44.304 30.5917L44.1618 30.3548C42.6456 27.2277 40.7504 23.7215 38.6183 20.168C35.7754 15.2878 32.7905 10.834 30.3267 7.51735C29 5.76426 27.7681 4.34284 26.7731 3.34785C25.6834 2.21071 24.8779 1.5 23.6934 1.5C22.5089 1.5 21.656 2.30547 20.5662 3.34785C19.5713 4.34284 18.4341 5.71688 17.1075 7.56473C16.3967 8.55972 15.5439 9.79162 14.5489 11.2604L14.3594 11.4973L16.2072 12.6818L16.3967 12.4449C17.3917 10.9761 18.1498 9.79162 18.8605 8.844C20.0924 7.1383 21.2296 5.81164 22.1298 4.86403C22.8405 4.15332 23.5038 3.77427 23.7408 3.67951C23.9777 3.77427 24.5936 4.15332 25.3517 4.86403C26.2519 5.76426 27.4364 7.09092 28.6683 8.74924C31.0848 12.0185 33.975 16.4249 36.7704 21.2104Z" fill="white"/>
<path d="M24.4537 43.7188L24.4063 43.9557L24.4537 43.7188C24.3115 43.7188 24.1694 43.7188 24.0273 43.7188C23.8377 43.7188 23.6482 43.7188 23.5061 43.7188H22.9375V45.8983H23.2218H23.6482H24.0746C24.1694 45.8983 24.2642 45.8983 24.3589 45.8983H24.4063C24.5484 45.8983 24.6906 45.8983 24.7853 45.8983H25.117V43.7188H24.7853C24.6906 43.7188 24.5484 43.7188 24.4537 43.7188Z" fill="white"/>
<path d="M47.5738 38.5924C47.2896 37.5974 46.8631 36.3181 46.1524 34.6598L46.0103 34.3281L44.1624 35.56L44.2572 35.7969C44.8258 37.2657 45.2522 38.3555 45.4417 39.161C45.726 40.1559 45.726 40.8667 45.6786 41.1509C45.4891 41.2931 44.8258 41.6721 43.8781 41.9564C42.6462 42.2881 40.8932 42.6197 38.8084 42.904C35.4444 43.3305 31.1327 43.6147 26.2999 43.7095H26.0156V45.889H26.3473C31.2749 45.7942 35.6813 45.51 39.1401 45.0835C41.367 44.7993 43.1674 44.4676 44.4941 44.0885C46.0103 43.6621 47.0527 43.2831 47.6686 42.2407C48.2372 41.1983 48.0003 40.1559 47.5738 38.5924Z" fill="white"/>
<path d="M31.9515 22.2121C31.7892 22.1032 31.582 22.0818 31.3995 22.1541C31.3593 22.1707 27.4563 23.7153 24.1752 22.1683C21.3584 20.8381 18.2561 21.46 16.8146 21.8805V21.5192C16.8146 21.1923 16.5492 20.9269 16.2223 20.9269C15.8954 20.9269 15.6301 21.1923 15.6301 21.5192V39.2869C15.6301 39.6139 15.8954 39.8792 16.2223 39.8792C16.5492 39.8792 16.8146 39.6139 16.8146 39.2869V32.598C17.8641 32.2557 20.9746 31.4419 23.6694 32.7152C24.9498 33.3205 26.2895 33.5219 27.506 33.5219C29.8455 33.5219 31.7265 32.7768 31.8437 32.7295C32.0664 32.6383 32.2133 32.4215 32.2133 32.1798V22.7037C32.2133 22.5071 32.115 22.3235 31.9515 22.2121ZM31.0288 31.7605C29.9734 32.1029 26.864 32.9131 24.174 31.6433C21.3584 30.3142 18.2561 30.9361 16.8146 31.3566V23.123C17.8641 22.7807 20.9746 21.9669 23.6694 23.2403C26.4826 24.5681 29.5872 23.9475 31.0288 23.5258V31.7605Z" fill="white"/>
<path fill-rule="evenodd" clip-rule="evenodd" d="M32.2157 21.8188L32.2183 21.8205C32.5092 22.0187 32.6871 22.3478 32.6871 22.7037V32.1798C32.6871 32.6153 32.4226 33.0044 32.0233 33.1679L32.0212 33.1688C31.8815 33.2252 29.9345 33.9957 27.506 33.9957C26.2391 33.9957 24.8263 33.7862 23.467 33.1436C21.1776 32.0618 18.5278 32.5898 17.2884 32.9481V39.2869C17.2884 39.8756 16.8109 40.353 16.2223 40.353C15.6337 40.353 15.1562 39.8756 15.1562 39.2869V21.5192C15.1562 20.9306 15.6337 20.4531 16.2223 20.4531C16.7255 20.4531 17.1475 20.8021 17.2593 21.2711C18.8987 20.871 21.7423 20.4955 24.3772 21.7397M17.2884 21.7521C17.1155 21.7954 16.9569 21.8389 16.8146 21.8805V21.5192C16.8146 21.4754 16.8098 21.4327 16.8008 21.3916C16.7423 21.1259 16.5054 20.9269 16.2223 20.9269C15.8954 20.9269 15.6301 21.1923 15.6301 21.5192V39.2869C15.6301 39.6139 15.8954 39.8792 16.2223 39.8792C16.5492 39.8792 16.8146 39.6139 16.8146 39.2869V32.598C17.8641 32.2557 20.9746 31.4419 23.6694 32.7152C24.9498 33.3205 26.2895 33.5219 27.506 33.5219C29.8455 33.5219 31.7265 32.7768 31.8437 32.7295C32.0664 32.6383 32.2133 32.4215 32.2133 32.1798V22.7037C32.2133 22.5071 32.115 22.3235 31.9515 22.2121C31.7892 22.1032 31.582 22.0818 31.3995 22.1541C31.3593 22.1707 27.4563 23.7153 24.1752 22.1683C21.6366 20.9695 18.8661 21.3562 17.2884 21.7521ZM24.3772 21.7397C25.9006 22.4579 27.5917 22.4668 28.9369 22.2783C30.2547 22.0937 31.1915 21.7268 31.2186 21.7162L31.2191 21.716L31.225 21.7135C31.5505 21.5846 31.9221 21.6217 32.2157 21.8188M23.467 23.6687C21.1776 22.5869 18.5278 23.1148 17.2884 23.4731V30.7402C18.9321 30.3427 21.7578 29.9788 24.3762 31.2148L24.174 31.6433C21.6364 30.4455 18.8661 30.8323 17.2884 31.2282C17.1155 31.2716 16.9569 31.3151 16.8146 31.3566V23.123C17.8641 22.7807 20.9746 21.9669 23.6694 23.2403C26.2048 24.437 28.9769 24.051 30.555 23.6544C30.7279 23.611 30.8864 23.5674 31.0288 23.5258V31.7605C29.9734 32.1029 26.864 32.9131 24.174 31.6433L24.3762 31.2148C26.662 32.2938 29.3112 31.7679 30.555 31.4099V24.1425C28.9105 24.5406 26.0832 24.9036 23.467 23.6687Z" fill="white"/>
</g>
<defs>
<clipPath id="clip0_22148_275319">
<rect width="48" height="48" fill="white"/>
</clipPath>
</defs>
</svg>
