<svg width="50" height="50" viewBox="0 0 50 50" fill="none" xmlns="http://www.w3.org/2000/svg">
<path d="M17.3205 38.1171C17.3205 37.637 17.0004 37.3169 16.5203 37.3169H2.59742C2.11732 37.3169 1.79725 37.637 1.79725 38.1171C1.79725 38.5972 2.11732 38.9173 2.59742 38.9173H16.5203C17.0004 38.9173 17.3205 38.5172 17.3205 38.1171Z" fill="#F85454"/>
<path fill-rule="evenodd" clip-rule="evenodd" d="M17.2408 37.3967C17.423 37.5789 17.5189 37.832 17.5189 38.1171C17.5189 38.6136 17.1227 39.1157 16.5203 39.1157H2.59742C2.31228 39.1157 2.05925 39.0198 1.877 38.8375C1.69475 38.6553 1.59884 38.4022 1.59884 38.1171C1.59884 37.832 1.69475 37.5789 1.877 37.3967C2.05925 37.2144 2.31228 37.1185 2.59742 37.1185H16.5203C16.8055 37.1185 17.0585 37.2144 17.2408 37.3967ZM16.5203 37.3169C17.0004 37.3169 17.3205 37.637 17.3205 38.1171C17.3205 38.5172 17.0004 38.9173 16.5203 38.9173H2.59742C2.11732 38.9173 1.79725 38.5972 1.79725 38.1171C1.79725 37.637 2.11732 37.3169 2.59742 37.3169H16.5203Z" fill="#F85454"/>
<path d="M9.56038 34.1098C9.56038 33.6297 9.24031 33.3097 8.76021 33.3097H0.998582C0.518481 33.3097 0.198414 33.6297 0.198414 34.1098C0.198414 34.5899 0.518481 34.91 0.998582 34.91H8.76021C9.24031 34.91 9.56038 34.5099 9.56038 34.1098Z" fill="#F85454"/>
<path fill-rule="evenodd" clip-rule="evenodd" d="M9.48063 33.3894C9.66288 33.5717 9.75879 33.8247 9.75879 34.1098C9.75879 34.6064 9.36257 35.1084 8.76021 35.1084H0.998582C0.713443 35.1084 0.460408 35.0125 0.27816 34.8302C0.0959125 34.648 0 34.395 0 34.1098C0 33.8247 0.0959125 33.5717 0.27816 33.3894C0.460408 33.2072 0.713443 33.1112 0.998582 33.1112H8.76021C9.04535 33.1112 9.29839 33.2072 9.48063 33.3894ZM8.76021 33.3097C9.24031 33.3097 9.56038 33.6297 9.56038 34.1098C9.56038 34.5099 9.24031 34.91 8.76021 34.91H0.998582C0.518481 34.91 0.198414 34.5899 0.198414 34.1098C0.198414 33.6297 0.518481 33.3097 0.998582 33.3097H8.76021Z" fill="#F85454"/>
<path d="M49.3292 35.4707C49.0891 34.9906 48.609 34.5905 48.1289 34.3504L42.0476 32.0299L39.5671 31.1498C38.847 30.8297 38.2068 30.3496 37.8067 29.7095L35.7263 26.2687C36.1264 26.1887 36.3664 25.8687 36.3664 25.4686C36.3664 24.9885 36.0464 24.6684 35.5663 24.6684H34.7661L33.8059 23.0681C34.206 22.988 34.446 22.668 34.446 22.2679C34.446 21.7878 34.126 21.4677 33.6459 21.4677H32.8457L32.0455 20.1875C32.3656 20.1074 32.6056 19.7874 32.6056 19.4673C32.6056 18.9872 32.2856 18.6671 31.8055 18.6671H31.0853L30.0451 16.9868C30.0451 16.9868 30.0451 16.9068 29.9651 16.9068C29.0049 15.7865 27.7246 15.2264 26.3643 15.3864C25.1641 15.5465 24.2039 16.2666 23.8038 17.1468C23.7238 17.3869 23.7238 17.6269 23.8838 17.867L30.5252 29.2294C30.6052 29.3894 30.7653 29.5494 30.9253 29.5494L39.087 32.6701H39.167L41.5675 33.5503L47.5688 35.8708C47.7288 35.9508 47.8889 36.0308 47.9689 36.2708C48.2889 36.911 48.2889 37.5511 47.8889 38.1912H34.8461C34.0459 38.1912 33.2458 37.9512 32.6056 37.4711L10.2809 20.9076C10.2809 20.9076 10.601 20.7476 11.0011 20.1875C11.4012 19.6273 11.5612 18.9072 11.5612 18.187L10.8411 11.4656L11.8013 9.9453C12.0413 9.62524 12.5214 9.54522 12.8415 9.78527C13.0815 10.0253 14.0417 10.8255 16.3622 14.5863C17.5625 16.3466 19.4829 17.6269 21.6433 17.947C22.0434 18.027 22.5235 17.7069 22.6035 17.3069C22.6836 16.9068 22.3635 16.4267 21.9634 16.3466C20.2831 16.0266 18.6827 15.0664 17.7225 13.6261C14.9219 9.30517 14.1218 8.66504 13.8017 8.42498C12.7615 7.70483 11.3212 7.94488 10.521 8.9851L5.63997 16.7467C5.31991 17.2268 5.23989 17.787 5.31991 18.3471C4.8398 18.5071 4.3597 18.7472 4.11965 19.2273L2.83938 21.2277C2.11923 22.2679 2.4393 23.7082 3.47952 24.4283C4.19967 24.9885 5.71999 25.9487 7.96046 27.389C8.12049 27.469 8.28053 27.549 8.36054 27.549C8.60059 27.549 8.84065 27.389 9.00068 27.1489C9.24073 26.7488 9.16071 26.2687 8.76063 26.0287C6.60017 24.5884 5.07985 23.6282 4.3597 23.0681C4.03964 22.828 3.95962 22.4279 4.19967 22.0278L5.39992 20.1875C5.63997 19.8674 6.12007 19.7874 6.44014 20.0274L31.5654 38.7514C32.5256 39.4715 33.6459 39.7916 34.7661 39.7916H45.8084C44.1281 40.5917 41.8076 41.3119 39.8072 41.3119H34.6861C33.3258 41.3119 31.9655 40.9118 30.8453 40.1917C26.2043 37.231 15.082 30.1095 8.76063 26.0287C8.36054 25.7886 7.88607 25.4483 7.39004 26.0117C6.894 26.5751 7.56038 27.1489 7.96046 27.389C14.1218 31.3898 24.924 38.3513 29.645 41.3919H1.00068C0.520578 41.3919 0.200511 41.712 0.200511 42.1921C0.200511 42.6722 0.520578 42.9922 1.00068 42.9922H39.7271C43.0078 42.9922 47.7288 41.2319 48.9291 39.5515C49.9693 38.1112 50.0493 36.7509 49.3292 35.4707ZM31.6454 28.2692L25.4041 17.6269C25.6442 17.3869 26.0443 17.1468 26.5244 17.0668C27.0045 16.9868 27.8846 17.0668 28.6848 17.947L29.1649 18.7472H28.4448C27.9647 18.7472 27.6446 19.0672 27.6446 19.5473C27.6446 20.0274 27.9647 20.3475 28.4448 20.3475H30.1251L30.9253 21.6278H30.2852C29.805 21.6278 29.485 21.9478 29.485 22.4279C29.485 22.908 29.805 23.2281 30.2852 23.2281H31.8855L32.8457 24.7484H32.2056C31.7255 24.7484 31.4054 25.0685 31.4054 25.5486C31.4054 26.0287 31.7255 26.3487 32.2056 26.3487H33.8059L36.0464 29.8695L31.6454 28.2692ZM7.00026 17.6269L9.48078 13.7061L9.96088 18.3471C9.96088 18.6671 9.88086 18.9872 9.72083 19.2273C9.5608 19.4673 9.24073 20.1074 8.52058 19.5473C8.52058 19.5473 8.12049 19.3073 7.40034 18.7472C6.92024 18.3471 6.84023 17.947 7.00026 17.6269Z" fill="#F85454"/>
<path fill-rule="evenodd" clip-rule="evenodd" d="M48.1289 34.3504C48.609 34.5905 49.0891 34.9906 49.3292 35.4707C50.0493 36.7509 49.9693 38.1112 48.9291 39.5515C47.7288 41.2319 43.0078 42.9922 39.7271 42.9922H1.00068C0.520578 42.9922 0.200511 42.6722 0.200511 42.1921C0.200511 41.712 0.520578 41.3919 1.00068 41.3919H29.645C29.545 41.3275 29.4423 41.2614 29.337 41.1935C24.6093 38.1484 14.5923 31.6925 8.4944 27.7356C8.44957 27.7065 8.40495 27.6775 8.36054 27.6487C8.22514 27.5608 8.09175 27.4742 7.96046 27.389C7.92262 27.3663 7.88239 27.3406 7.84098 27.3122C7.59466 27.1539 7.35725 27.0015 7.12889 26.855C7.11367 26.8452 7.0985 26.8355 7.08337 26.8258C5.31982 25.694 4.10136 24.912 3.47952 24.4283C2.4393 23.7082 2.11923 22.2679 2.83938 21.2277L4.11965 19.2273C4.3597 18.7472 4.8398 18.5071 5.31991 18.3471C5.23989 17.787 5.31991 17.2268 5.63997 16.7467L10.521 8.9851C11.3212 7.94488 12.7615 7.70483 13.8017 8.42498C14.1218 8.66504 14.9219 9.30517 17.7225 13.6261C18.6827 15.0664 20.2831 16.0266 21.9634 16.3466C22.3635 16.4267 22.6836 16.9068 22.6035 17.3069C22.5235 17.7069 22.0434 18.027 21.6433 17.947C19.4829 17.6269 17.5625 16.3466 16.3622 14.5863C14.2121 11.1016 13.2299 10.1588 12.9063 9.84816C12.8806 9.82354 12.8591 9.8029 12.8415 9.78527C12.5214 9.54522 12.0413 9.62524 11.8013 9.9453L10.8411 11.4656L11.5612 18.187C11.5612 18.9072 11.4012 19.6273 11.0011 20.1875C10.781 20.4956 10.5852 20.6826 10.4535 20.7885C10.3457 20.8752 10.2809 20.9076 10.2809 20.9076L32.6056 37.4711C33.2458 37.9512 34.0459 38.1912 34.8461 38.1912H47.8889C48.2889 37.5511 48.2889 36.911 47.9689 36.2708C47.8889 36.0308 47.7288 35.9508 47.5688 35.8708L41.5675 33.5503L39.167 32.6701H39.087L30.9253 29.5494C30.7653 29.5494 30.6052 29.3894 30.5252 29.2294L23.8838 17.867C23.7238 17.6269 23.7238 17.3869 23.8038 17.1468C24.2039 16.2666 25.1641 15.5465 26.3643 15.3864C27.7246 15.2264 29.0049 15.7865 29.9651 16.9068C30.0451 16.9068 30.0451 16.9868 30.0451 16.9868L31.0853 18.6671H31.8055C32.2856 18.6671 32.6056 18.9872 32.6056 19.4673C32.6056 19.7217 32.454 19.9761 32.2311 20.11C32.1735 20.1445 32.1112 20.171 32.0455 20.1875L32.8457 21.4677H33.6459C34.126 21.4677 34.446 21.7878 34.446 22.2679C34.446 22.5984 34.2822 22.8743 33.9997 23.0054C33.9402 23.033 33.8755 23.0541 33.8059 23.0681L34.7661 24.6684H35.5663C36.0464 24.6684 36.3664 24.9885 36.3664 25.4686C36.3664 25.799 36.2027 26.0749 35.9202 26.206C35.8607 26.2336 35.7959 26.2548 35.7263 26.2687L37.8067 29.7095C38.2068 30.3496 38.847 30.8297 39.5671 31.1498L42.0476 32.0299L48.1289 34.3504ZM39.6407 30.9653L42.1184 31.8445L48.2088 34.1686L48.2176 34.173C48.7214 34.4248 49.2388 34.8496 49.5044 35.3775C49.8799 36.0467 50.0507 36.7451 49.9869 37.4685C49.9231 38.1919 49.626 38.9253 49.0902 39.6673C48.7673 40.1191 48.221 40.5608 47.5491 40.9677C46.8736 41.3769 46.0567 41.7595 45.1777 42.0879C43.4221 42.7437 41.3976 43.1907 39.7271 43.1907H1.00068C0.715539 43.1907 0.462504 43.0947 0.280256 42.9125C0.0980085 42.7303 0.00209618 42.4772 0.00209618 42.1921C0.00209618 41.9069 0.0980089 41.6539 0.280257 41.4717C0.462505 41.2894 0.71554 41.1935 1.00068 41.1935H28.9705C23.9989 37.9911 13.782 31.4058 7.85532 27.5573C7.8164 27.5338 7.77464 27.5072 7.73129 27.4775C7.46951 27.3093 7.21762 27.1477 6.97577 26.9925C5.21911 25.8652 3.99283 25.0782 3.36198 24.5883C2.24381 23.8106 1.89034 22.2536 2.67416 21.1178L3.94707 19.1288C4.19704 18.6376 4.65997 18.3781 5.10454 18.2126C5.05569 17.669 5.15349 17.12 5.47338 16.6389L10.358 8.87155L10.3637 8.86413C11.2254 7.74394 12.7836 7.47882 13.9146 8.26185L13.9177 8.26399L13.9207 8.26625C14.2717 8.52949 15.0881 9.19687 17.8883 13.517C18.8154 14.9071 20.3662 15.8404 22.0005 16.1517L22.0023 16.1521C22.2656 16.2048 22.4867 16.3839 22.6286 16.5967C22.7705 16.8095 22.8508 17.0824 22.7981 17.3458C22.7454 17.6091 22.5663 17.8302 22.3535 17.972C22.1421 18.113 21.8713 18.1932 21.6096 18.1426C19.3927 17.8127 17.4268 16.4998 16.1983 14.6981L16.1957 14.6943L16.1934 14.6905C15.036 12.8148 14.2205 11.6816 13.6668 10.9894C13.1972 10.4025 12.9164 10.1329 12.7675 9.99C12.7466 9.96989 12.7282 9.95228 12.7124 9.93665C12.4859 9.77597 12.1409 9.83005 11.9644 10.0585L11.0457 11.5132L11.7596 18.1764V18.187C11.7596 18.9331 11.5943 19.6983 11.1626 20.3028C10.9531 20.5961 10.7619 20.7883 10.6192 20.909L10.6176 20.9103L32.7247 37.3124C33.327 37.7641 34.0843 37.9928 34.8461 37.9928H47.7758C48.0808 37.4476 48.0671 36.9109 47.7914 36.3596L47.7851 36.347L47.7806 36.3336C47.7291 36.1791 47.6407 36.1287 47.4884 36.0524L41.4992 33.7365L41.496 33.7353L39.1318 32.8685H39.0504L30.8835 29.7459C30.7562 29.734 30.647 29.6694 30.5661 29.6C30.4761 29.5229 30.4016 29.4237 30.3508 29.3242L23.7153 17.9719C23.517 17.671 23.5216 17.3659 23.6156 17.0841L23.6189 17.0742L23.6232 17.0647C24.0545 16.1157 25.0776 15.3578 26.3381 15.1898L26.3411 15.1894C27.7557 15.023 29.0808 15.5978 30.0734 16.7288C30.09 16.7355 30.1061 16.7439 30.1214 16.7542C30.1675 16.7849 30.1958 16.8245 30.2126 16.858C30.2228 16.8784 30.2294 16.8979 30.2338 16.9146L31.1958 18.4687H31.8055C32.0906 18.4687 32.3436 18.5646 32.5259 18.7469C32.7081 18.9291 32.8041 19.1822 32.8041 19.4673C32.8041 19.7901 32.6172 20.1082 32.3363 20.2783L32.9557 21.2693H33.6459C33.931 21.2693 34.184 21.3652 34.3663 21.5475C34.5485 21.7297 34.6444 21.9828 34.6444 22.2679C34.6444 22.6647 34.4457 23.0084 34.1023 23.1764L34.8784 24.47H35.5663C35.8514 24.47 36.1044 24.5659 36.2867 24.7481C36.4689 24.9304 36.5648 25.1834 36.5648 25.4686C36.5648 25.8651 36.3664 26.2085 36.0235 26.3767L37.975 29.6043L37.9757 29.6054C38.3481 30.2006 38.9492 30.6567 39.6407 30.9653ZM8.80845 26.0596C8.96339 26.1596 9.12117 26.2614 9.28163 26.3649C15.6764 30.4901 26.3293 37.3108 30.8453 40.1917C31.9655 40.9118 33.3258 41.3119 34.6861 41.3119H39.8072C41.6405 41.3119 43.7427 40.707 45.3746 39.99C45.5233 39.9247 45.6681 39.8584 45.8084 39.7916H34.7661C33.6459 39.7916 32.5256 39.4715 31.5654 38.7514L6.44014 20.0274C6.12007 19.7874 5.63997 19.8674 5.39992 20.1875L4.19967 22.0278C3.95962 22.4279 4.03964 22.828 4.3597 23.0681C4.85101 23.4502 5.71475 24.0185 6.90009 24.7985C7.2332 25.0177 7.5917 25.2536 7.97447 25.5067C8.22614 25.6732 8.4883 25.8471 8.76063 26.0287C8.77711 26.0386 8.79305 26.0489 8.80845 26.0596ZM8.91997 25.8954C15.2497 29.9813 26.3238 37.0719 30.952 40.0244L30.9526 40.0248C32.0405 40.7241 33.3635 41.1135 34.6861 41.1135H39.8072C41.4489 41.1135 43.3218 40.6169 44.8649 39.99H34.7661C33.6077 39.99 32.4446 39.6587 31.4464 38.9101L6.32109 20.1862C6.0946 20.0163 5.74109 20.0689 5.56227 20.3017L4.36799 22.133C4.26968 22.2982 4.24444 22.4498 4.26536 22.5753C4.28627 22.7008 4.35599 22.8173 4.47875 22.9093L4.48154 22.9114C4.96643 23.2886 5.81908 23.8496 6.99824 24.6255C7.55085 24.9891 8.17517 25.3999 8.86695 25.8611C8.88517 25.8721 8.90284 25.8836 8.91997 25.8954ZM8.52058 19.5473C9.18652 20.0653 9.51034 19.5569 9.68187 19.2876C9.69583 19.2657 9.70878 19.2453 9.72083 19.2273C9.88086 18.9872 9.96088 18.6671 9.96088 18.3471L9.48078 13.7061L7.00026 17.6269C6.84023 17.947 6.92024 18.3471 7.40034 18.7472C8.12049 19.3073 8.52058 19.5473 8.52058 19.5473ZM7.52486 18.5926C7.88042 18.8691 8.15629 19.0661 8.34256 19.1935C8.43593 19.2574 8.50679 19.3038 8.55389 19.334C8.57744 19.3491 8.59505 19.3602 8.60656 19.3673L8.61924 19.3751L8.62212 19.3769L8.62266 19.3772L8.63293 19.3833L8.64239 19.3907C8.80341 19.5159 8.92476 19.5605 9.01154 19.5702C9.09449 19.5795 9.1624 19.559 9.2248 19.5196C9.34516 19.4436 9.42836 19.3143 9.50843 19.1899C9.52423 19.1653 9.53992 19.1409 9.55574 19.1172C9.68768 18.9193 9.76078 18.6441 9.76244 18.357L9.34233 14.296L7.17367 17.7239C7.11939 17.8371 7.10647 17.9612 7.14945 18.0973C7.1946 18.2403 7.30602 18.4097 7.52486 18.5926ZM31.7804 28.1071L35.5656 29.4835L33.697 26.5472H32.2056C31.9204 26.5472 31.6674 26.4513 31.4851 26.269C31.3029 26.0868 31.207 25.8337 31.207 25.5486C31.207 25.2634 31.3029 25.0104 31.4851 24.8282C31.6674 24.6459 31.9204 24.55 32.2056 24.55H32.4857L31.7761 23.4265H30.2852C30 23.4265 29.747 23.3306 29.5647 23.1483C29.3825 22.9661 29.2866 22.7131 29.2866 22.4279C29.2866 22.1428 29.3825 21.8898 29.5647 21.7075C29.747 21.5253 30 21.4293 30.2852 21.4293H30.5673L30.0152 20.5459H28.4448C28.1596 20.5459 27.9066 20.45 27.7243 20.2677C27.5421 20.0855 27.4462 19.8325 27.4462 19.5473C27.4462 19.2622 27.5421 19.0091 27.7243 18.8269C27.9066 18.6447 28.1596 18.5487 28.4448 18.5487H28.8145L28.5249 18.0662C27.7793 17.2555 26.9767 17.1926 26.557 17.2625C26.1896 17.3237 25.8744 17.4885 25.657 17.6659L31.7804 28.1071ZM25.4041 17.6269L31.6454 28.2692L36.0464 29.8695L33.8059 26.3487H32.2056C31.7255 26.3487 31.4054 26.0287 31.4054 25.5486C31.4054 25.0685 31.7255 24.7484 32.2056 24.7484H32.8457L31.8855 23.2281H30.2852C29.805 23.2281 29.485 22.908 29.485 22.4279C29.485 21.9478 29.805 21.6278 30.2852 21.6278H30.9253L30.1251 20.3475H28.4448C27.9647 20.3475 27.6446 20.0274 27.6446 19.5473C27.6446 19.0672 27.9647 18.7472 28.4448 18.7472H29.1649L28.6848 17.947C27.8846 17.0668 27.0045 16.9868 26.5244 17.0668C26.0443 17.1468 25.6442 17.3869 25.4041 17.6269Z" fill="#F85454"/>
</svg>
