<svg width="14" height="16" viewBox="0 0 14 16" fill="none" xmlns="http://www.w3.org/2000/svg">
<path d="M13.6136 8.77119C13.2431 8.40067 12.7134 8.34096 12.0817 8.64908L8.75805 10.493C8.6431 10.5569 8.49263 10.5124 8.42993 10.3987C8.39888 10.3425 8.39112 10.2774 8.40903 10.2156C8.42695 10.1538 8.46725 10.1028 8.52368 10.0717L9.66867 9.43699V2.52077C9.66867 1.9541 9.20769 1.49282 8.64102 1.49282C8.07464 1.49282 7.61366 1.9538 7.61366 2.52077V7.64949C7.61366 7.78265 7.50558 7.89102 7.37212 7.89102C7.23926 7.89102 7.13088 7.78295 7.13088 7.64949V1.02736C7.13088 0.460982 6.6699 0 6.10323 0C5.53656 0 5.07557 0.460683 5.07557 1.02736V7.64949C5.07557 7.78265 4.96749 7.89102 4.83433 7.89102C4.70118 7.89102 4.5931 7.78295 4.5931 7.64949V2.22161C4.5931 1.65523 4.13211 1.19425 3.56544 1.19425C2.99877 1.19425 2.53779 1.65494 2.53779 2.22161V7.64949C2.53779 7.78265 2.42971 7.89102 2.29655 7.89102C2.16339 7.89102 2.05531 7.78295 2.05531 7.64949V4.01358C2.05531 3.44691 1.59433 2.98563 1.02765 2.98563C0.460981 2.98563 0 3.44661 0 4.01358V10.2452C0 13.4186 2.58138 16 5.75451 16C7.19716 16 8.62519 15.3673 9.77973 14.2146L13.6064 10.2327C14.011 9.82721 14.0143 9.17186 13.6136 8.77119Z" fill="#0C353E"/>
</svg>
