<svg width="17" height="16" viewBox="0 0 17 16" fill="none" xmlns="http://www.w3.org/2000/svg">
<path fill-rule="evenodd" clip-rule="evenodd" d="M8.94846 0C11.0863 0 13.0922 0.832136 14.6043 2.34419C16.1163 3.85624 16.9518 5.86216 16.9518 8C16.9518 10.1378 16.1197 12.1438 14.6077 13.6558C13.0652 15.1983 11.0153 16 8.94508 16C7.65629 16 6.35735 15.6888 5.17003 15.0495C4.10449 15.8173 3.06263 15.9831 2.35565 15.9831C2.09181 15.9831 1.87532 15.9594 1.7231 15.9357C1.39836 15.885 1.14804 15.6313 1.0973 15.3066C1.04656 14.9818 1.21231 14.6672 1.50661 14.5218C2.11887 14.2207 2.53155 13.6186 2.78863 13.1011C0.16707 9.94503 0.37003 5.26681 3.29265 2.34419C4.8047 0.832136 6.81062 0 8.94846 0ZM4.08646 6.26667H8.08646C8.34451 6.26667 8.55312 6.05753 8.55312 5.8C8.55312 5.54247 8.34451 5.33333 8.08646 5.33333H4.08646C3.8284 5.33333 3.61979 5.54247 3.61979 5.8C3.61979 6.05753 3.8284 6.26667 4.08646 6.26667ZM13.1531 7.46663H4.08646C3.8284 7.46663 3.61979 7.67577 3.61979 7.9333C3.61979 8.19083 3.8284 8.39997 4.08646 8.39997H13.1531C13.4112 8.39997 13.6198 8.19083 13.6198 7.9333C13.6198 7.67577 13.4112 7.46663 13.1531 7.46663ZM4.08646 9.59994H13.1531C13.4112 9.59994 13.6198 9.80908 13.6198 10.0666C13.6198 10.3241 13.4112 10.5333 13.1531 10.5333H4.08646C3.8284 10.5333 3.61979 10.3241 3.61979 10.0666C3.61979 9.80908 3.8284 9.59994 4.08646 9.59994Z" fill="#0C353E"/>
</svg>
