<svg width="45" height="45" viewBox="0 0 45 45" fill="none" xmlns="http://www.w3.org/2000/svg">
  <path d="M9.74803 16H20.9989C21.7248 16 22.3115 15.7555 22.3115 15.0312C22.3115 14.307 21.7248 14.0625 20.9989 14.0625H9.74803C9.0222 14.0625 8.43543 14.307 8.43543 15.0312C8.43543 15.7555 9.0222 16 9.74803 16Z" fill="#F85454"/>
  <path d="M35.2501 20.0624H9.74803C9.0222 20.0624 8.43543 20.3069 8.43543 21.0312C8.43543 21.7555 9.0222 22 9.74803 22H35.2501C35.9759 22 36.5627 21.7555 36.5627 21.0312C36.5627 20.3069 35.9759 20.0624 35.2501 20.0624Z" fill="#F85454"/>
  <path d="M35.2501 26.0623H9.74803C9.0222 26.0623 8.43543 26.3069 8.43543 27.0312C8.43543 27.7555 9.0222 28 9.74803 28H35.2501C35.9759 28 36.5627 27.7555 36.5627 27.0312C36.5627 26.3069 35.9759 26.0623 35.2501 26.0623Z" fill="#F85454"/>
  <path fill-rule="evenodd" clip-rule="evenodd" d="M22.4887 0C28.5019 0 34.144 2.34038 38.3969 6.59302C42.6499 10.8457 45 16.4873 45 22.5C45 28.5127 42.6594 34.1543 38.4065 38.407C34.0678 42.7452 28.302 45 22.4792 45C18.8542 45 15.2006 44.1247 11.861 42.3266C10.2367 43.4971 8.63188 44.1701 7.18602 44.5411C5.96412 44.8546 4.85572 44.9524 3.94493 44.9524C3.2028 44.9524 2.59387 44.8858 2.16571 44.8192C1.25232 44.6765 0.405532 44 0.405532 43.0497C0.5 42.5 0.5 42 2 41C3.72213 40.1533 4.43968 38.3023 5.16278 36.8467C1.44015 32.3655 -0.257612 26.7931 0.0315466 21.3158C0.315149 15.9437 2.51005 10.6631 6.58044 6.59302C10.8334 2.34038 16.4755 0 22.4887 0ZM12.3938 40C15.5352 41.8457 19.0188 43.0015 22.4792 43C27.6339 42.9978 33.1573 40.8424 37 37C40.8867 33.1136 43.0012 27.6017 43 22.5C42.9988 17.3983 40.8914 11.8864 37 8C33.1196 4.11515 27.59 2.00151 22.4887 2C17.3834 1.99849 11.8882 4.11213 8 8C4.4267 11.573 2.31045 16.6051 2.03 21.3158C1.72649 26.4138 3.56623 31.6158 7.18602 35.7051C7.3668 35.9144 7.47146 36.1712 7.5 36.4281C7.5666 36.6945 7.54757 36.9799 7.4334 37.2558C6.71981 38.8827 4.43144 41.592 2.5 43H2.50951C3.51101 43 5.33223 43.1362 7.18602 42.5C8.43186 42.0724 9.69242 41.0789 10.7288 40.2759C10.7573 40.2474 10.7954 40.2188 10.8334 40.1998C11.2425 39.7907 11.88 39.6956 12.3938 40Z" fill="#F85454"/>
</svg>
