<svg width="42" height="48" viewBox="0 0 42 48" fill="none" xmlns="http://www.w3.org/2000/svg">
<path d="M41.4285 13.0236L41.427 12.9863C41.4061 12.5252 41.3922 12.0374 41.3838 11.4947C41.3446 8.84809 39.2407 6.65889 36.5938 6.51094C31.075 6.20296 26.8057 4.4034 23.1579 0.847868L23.1268 0.818204C21.9369 -0.272735 20.1421 -0.272735 18.952 0.818204L18.9208 0.847868C15.273 4.4034 11.0037 6.20296 5.48495 6.5113C2.83836 6.65889 0.734113 8.84809 0.694929 11.4951C0.686872 12.0341 0.67259 12.5219 0.651716 12.9863L0.649519 13.0731C0.542219 18.7006 0.408919 25.7044 2.75193 32.0614C4.04026 35.5572 5.99142 38.5961 8.55086 41.094C11.4659 43.9387 15.284 46.1971 19.899 47.8062C20.0491 47.8586 20.2051 47.9011 20.3641 47.9329C20.5882 47.9776 20.8138 48 21.0394 48C21.2649 48 21.4909 47.9776 21.7146 47.9329C21.8736 47.9011 22.0307 47.8582 22.1816 47.8055C26.791 46.1934 30.6051 43.9339 33.5176 41.0896C36.0759 38.5909 38.0271 35.5514 39.3165 32.0548C41.6683 25.6787 41.5354 18.6618 41.4285 13.0236ZM37.674 31.0803C35.2028 37.7805 29.1582 43.3819 21.2521 46.1468C21.2239 46.1563 21.1939 46.1648 21.1628 46.171C21.0811 46.1871 20.998 46.1871 20.9152 46.1706C20.8844 46.1644 20.8544 46.1563 20.8266 46.1468C12.9121 43.3871 6.86422 37.7882 4.39487 31.0877C2.23533 25.2279 2.35764 18.7987 2.46567 13.1269L2.46641 13.0954C2.48838 12.608 2.50303 12.0975 2.51108 11.5364C2.52866 10.3613 4.46469 8.38898 5.64206 8.32343C8.7651 8.14911 11.5087 7.5456 14.0297 6.47846C16.5474 5.41279 18.7835 3.9106 20.865 1.88619C20.9709 1.79684 21.1082 1.79647 21.2137 1.88619C23.2956 3.9106 25.5317 5.41279 28.049 6.47846C30.57 7.5456 33.3136 8.14911 36.437 8.32343C37.6144 8.38898 39.5504 10.3613 39.5676 11.5368C39.576 12.1008 39.5907 12.6113 39.6127 13.0954C39.7203 18.7738 39.8397 25.2082 37.674 31.0803Z" fill="#F85454"/>
<path d="M21.0404 12.0312C14.4442 12.0312 9.07812 17.3977 9.07812 23.9935C9.07812 30.5897 14.4442 35.9562 21.0404 35.9562C27.6362 35.9562 33.0027 30.5897 33.0027 23.9935C33.0027 17.3977 27.6362 12.0312 21.0404 12.0312ZM21.0404 34.1393C15.9973 34.1393 10.8947 29.0366 10.8947 23.9935C10.8947 18.9504 15.9973 13.8478 21.0404 13.8478C26.0831 13.8478 31.1858 18.9504 31.1858 23.9935C31.1858 29.0366 26.0831 34.1393 21.0404 34.1393Z" fill="#F85454"/>
<path d="M19.9218 25.8444L25.3522 20.6222C25.7185 20.27 26.2932 20.2557 26.6765 20.5893C27.1054 20.9626 27.1282 21.6212 26.7261 22.0233L20.9175 27.8319C20.6425 28.107 20.2821 28.2443 19.9218 28.2443C19.5614 28.2443 19.2011 28.107 18.926 27.8319L16.2176 25.1235C15.7896 24.6955 15.8196 23.9928 16.2826 23.6029C16.6886 23.2609 17.2878 23.2824 17.6683 23.6525L19.9218 25.8444Z" fill="#F85454"/>
</svg>
