<svg width="24" height="20" viewBox="0 0 24 20" fill="none" xmlns="http://www.w3.org/2000/svg">
<path fill-rule="evenodd" clip-rule="evenodd" d="M5.59235 2.40351C5.85748 2.36117 6.14428 2.33911 6.45436 2.33911C7.32843 2.33911 8.02457 2.65701 8.57574 3.06263C8.44151 2.23339 7.76663 1.64961 6.95833 1.64961C6.38626 1.64961 5.87892 1.94717 5.59235 2.40351ZM9.77681 4.25295C9.85318 3.97373 9.9 3.67419 9.9 3.36803C9.9 1.70308 8.62067 0.349609 6.95833 0.349609C5.50361 0.349609 4.27721 1.41847 4.07482 2.85288C4.05674 2.91761 4.04428 2.97778 4.03569 3.03394C3.91004 3.12928 3.79403 3.23331 3.68701 3.34533C3.11679 3.9421 2.87655 4.69414 2.71478 5.26633C2.38649 6.31069 1.86773 8.33795 1.43487 10.0862C1.21671 10.9673 1.01869 11.7844 0.875229 12.3812C0.855883 12.4617 0.837527 12.5381 0.820246 12.6102C0.781448 12.6934 0.744897 12.7777 0.71065 12.8632C0.472382 13.4577 0.349998 14.0942 0.349998 14.7365C0.349998 15.3787 0.472382 16.0152 0.71065 16.6097C0.948931 17.2042 1.29872 17.7458 1.74106 18.2029C2.18344 18.6601 2.70978 19.024 3.29063 19.2726C3.87152 19.5213 4.49491 19.6496 5.125 19.6496C5.75509 19.6496 6.37848 19.5213 6.95937 19.2726C7.54021 19.024 8.06656 18.6601 8.50894 18.2029C8.95127 17.7458 9.30107 17.2042 9.53935 16.6097C9.70916 16.186 9.82011 15.741 9.86984 15.2877C10.3948 15.6069 11.0985 15.8602 12.0002 15.8602C12.9017 15.8602 13.6052 15.607 14.1302 15.2879C14.1799 15.7411 14.2909 16.1861 14.4606 16.6097C14.6989 17.2042 15.0487 17.7458 15.4911 18.2029C15.9334 18.6601 16.4598 19.024 17.0406 19.2726C17.6215 19.5213 18.2449 19.6496 18.875 19.6496C19.5051 19.6496 20.1285 19.5213 20.7094 19.2726C21.2902 19.024 21.8166 18.6601 22.2589 18.2029C22.7013 17.7458 23.0511 17.2042 23.2893 16.6097C23.5276 16.0152 23.65 15.3787 23.65 14.7365C23.65 14.2184 23.5704 13.7041 23.4146 13.2126L23.384 13.0878C23.3427 12.9191 23.283 12.6758 23.2095 12.3776C23.0625 11.7812 22.8604 10.9646 22.6395 10.0842C22.1992 8.3289 21.6804 6.30268 21.3782 5.26977L21.3757 5.26122L21.373 5.25274C21.1916 4.69028 20.9379 3.93898 20.3707 3.34533C20.2448 3.21363 20.1069 3.09279 19.9558 2.98408C19.948 2.94252 19.938 2.89886 19.9252 2.85289C19.7228 1.41848 18.4964 0.349609 17.0417 0.349609C15.3793 0.349609 14.1 1.70308 14.1 3.36803C14.1 3.69823 14.1545 4.02074 14.2417 4.31836C14.2168 4.34832 14.1925 4.37758 14.169 4.40593C14.14 4.44088 14.1121 4.47445 14.0856 4.50627C13.9971 4.61237 13.9244 4.69731 13.862 4.76471C13.3388 4.40777 12.701 4.18648 12.046 4.18648C11.4115 4.18648 10.7344 4.39623 10.2122 4.76708C10.1495 4.69995 10.0764 4.61459 9.98705 4.50715C9.95684 4.47082 9.9248 4.43197 9.89123 4.39128C9.85476 4.34707 9.81648 4.30068 9.77681 4.25295ZM8.40048 4.65161C8.45341 4.82049 8.57461 4.96672 8.74594 5.04653C8.79111 5.10065 8.83531 5.15422 8.87948 5.20776C8.91531 5.25119 8.95113 5.2946 8.98742 5.33825C9.11156 5.48757 9.24593 5.64541 9.38066 5.77525C9.50509 5.89515 9.69421 6.05634 9.93867 6.13117C10.244 6.22462 10.5585 6.1613 10.8102 5.95322L10.8233 5.94241L10.8358 5.93094C11.118 5.67163 11.5985 5.48648 12.046 5.48648C12.4726 5.48648 12.9224 5.65823 13.2759 5.94836C13.3833 6.04079 13.5193 6.11884 13.6835 6.15393C13.8537 6.1903 14.0126 6.17162 14.1463 6.12929C14.3874 6.05291 14.5739 5.89024 14.6944 5.77294C14.8265 5.6444 14.9598 5.48767 15.0838 5.33914C15.1147 5.30202 15.1455 5.26495 15.1763 5.2278C15.2588 5.12837 15.3418 5.02842 15.4302 4.92581C15.4575 4.89952 15.4822 4.87103 15.5043 4.84076C16.0792 4.18849 16.7328 3.63911 17.6377 3.63911C18.2242 3.63911 18.6405 3.74013 18.9461 3.89012C18.9926 3.92472 19.044 3.95323 19.0989 3.97449C19.2316 4.05651 19.3398 4.14826 19.4308 4.24341C19.7671 4.5954 19.9487 5.07269 20.133 5.64332C20.4271 6.65003 20.9379 8.64378 21.3786 10.4006C21.3938 10.4613 21.409 10.5218 21.424 10.5818C21.1974 10.4346 20.9584 10.3069 20.7094 10.2003C20.1285 9.95158 19.5051 9.82329 18.875 9.82329C18.2449 9.82329 17.6215 9.95158 17.0406 10.2003C16.4598 10.4489 15.9334 10.8128 15.4911 11.27C15.0487 11.7271 14.6989 12.2687 14.4606 12.8632C14.401 13.0121 14.3485 13.1637 14.3035 13.3174C14.2737 13.352 14.2472 13.3902 14.2246 13.432L14.2236 13.4336C14.2214 13.4375 14.2163 13.4462 14.2083 13.4589C14.1923 13.4844 14.1648 13.5258 14.1251 13.578C14.0455 13.683 13.9193 13.8278 13.7418 13.9737C13.3931 14.2601 12.8362 14.5602 12.0002 14.5602C11.1642 14.5602 10.6073 14.2601 10.2586 13.9737C10.0811 13.8278 9.95492 13.683 9.87524 13.578C9.83559 13.5258 9.80809 13.4844 9.79206 13.4589C9.78406 13.4462 9.77899 13.4375 9.77675 13.4336M9.77739 13.4349L9.77675 13.4336L9.77553 13.4315M9.77553 13.4315C9.73053 13.2781 9.59895 13.0119 9.53935 12.8632C9.30107 12.2687 8.95127 11.7271 8.50894 11.27C8.06656 10.8128 7.54021 10.4489 6.95937 10.2003C6.37847 9.95158 5.75509 9.82329 5.125 9.82329C4.49491 9.82329 3.87152 9.95158 3.29063 10.2003C3.07417 10.2929 2.86527 10.4016 2.66547 10.5251C2.67585 10.4831 2.68629 10.4409 2.69676 10.3986C3.13344 8.63498 3.64412 6.64284 3.95766 5.64757L3.9606 5.63823L3.96326 5.62881C4.12229 5.0653 4.29505 4.59074 4.62692 4.24341C4.93121 3.92495 5.4451 3.63911 6.45436 3.63911C7.26936 3.63911 7.87187 4.08474 8.40048 4.65161M1.9078 13.6543L1.96983 13.393C1.99188 13.3003 2.01936 13.1851 2.05156 13.0505C2.21561 12.7273 2.42592 12.4317 2.67531 12.1739C2.99901 11.8394 3.38214 11.5752 3.80223 11.3954C4.22227 11.2155 4.67168 11.1233 5.125 11.1233C5.57831 11.1233 6.02772 11.2155 6.44776 11.3954C6.86786 11.5752 7.25098 11.8394 7.57469 12.1739C7.89844 12.5085 8.15634 12.9069 8.33266 13.3468C8.50899 13.7868 8.6 14.259 8.6 14.7365C8.6 15.2139 8.50899 15.6861 8.33266 16.1261C8.15634 16.566 7.89844 16.9644 7.57469 17.299C7.25098 17.6335 6.86786 17.8977 6.44776 18.0775C6.02772 18.2574 5.57831 18.3496 5.125 18.3496C4.67169 18.3496 4.22227 18.2574 3.80223 18.0775C3.38214 17.8977 2.99901 17.6335 2.67531 17.299C2.35156 16.9644 2.09366 16.566 1.91734 16.1261C1.74101 15.6861 1.65 15.2139 1.65 14.7365C1.65 14.4781 1.67664 14.2213 1.72903 13.9703C1.81463 13.887 1.87831 13.7791 1.9078 13.6543ZM14.2222 13.4365L14.223 13.4349L14.2236 13.4336M22.1629 13.5671C22.1385 13.4929 22.1117 13.4194 22.0827 13.3468C21.9063 12.9069 21.6484 12.5085 21.3247 12.1739C21.001 11.8394 20.6179 11.5752 20.1978 11.3954C19.7777 11.2155 19.3283 11.1233 18.875 11.1233C18.4217 11.1233 17.9723 11.2155 17.5522 11.3954C17.1321 11.5752 16.749 11.8394 16.4253 12.1739C16.1016 12.5085 15.8437 12.9069 15.6673 13.3468C15.491 13.7868 15.4 14.259 15.4 14.7365C15.4 15.2139 15.491 15.6861 15.6673 16.1261C15.8437 16.566 16.1016 16.9644 16.4253 17.299C16.749 17.6335 17.1321 17.8977 17.5522 18.0775C17.9723 18.2574 18.4217 18.3496 18.875 18.3496C19.3283 18.3496 19.7777 18.2574 20.1978 18.0775C20.6179 17.8977 21.001 17.6335 21.3247 17.299C21.6484 16.9644 21.9063 16.566 22.0827 16.1261C22.259 15.6861 22.35 15.2139 22.35 14.7365C22.35 14.4091 22.3072 14.0843 22.2235 13.7705C22.2077 13.7351 22.1949 13.6979 22.1854 13.6589L22.1629 13.5671ZM18.3993 2.39044C18.1629 2.35667 17.9094 2.33911 17.6377 2.33911C16.7138 2.33911 15.9843 2.69434 15.4142 3.13306C15.5207 2.26664 16.2107 1.64961 17.0417 1.64961C17.6083 1.64961 18.1113 1.94149 18.3993 2.39044ZM10.5606 10.4375C10.9386 10.0469 11.4559 9.82329 12 9.82329C12.5441 9.82329 13.0614 10.0469 13.4394 10.4375C13.8167 10.8274 14.025 11.3518 14.025 11.8943C14.025 12.4368 13.8167 12.9613 13.4394 13.3512C13.0614 13.7418 12.5441 13.9654 12 13.9654C11.4559 13.9654 10.9386 13.7418 10.5606 13.3512C10.1833 12.9613 9.975 12.4368 9.975 11.8943C9.975 11.3518 10.1833 10.8274 10.5606 10.4375ZM12 11.1233C11.8148 11.1233 11.6326 11.1991 11.4949 11.3415C11.3564 11.4846 11.275 11.6831 11.275 11.8943C11.275 12.1056 11.3564 12.3041 11.4949 12.4472C11.6326 12.5895 11.8148 12.6654 12 12.6654C12.1852 12.6654 12.3674 12.5895 12.5051 12.4472C12.6436 12.3041 12.725 12.1056 12.725 11.8943C12.725 11.6831 12.6436 11.4846 12.5051 11.3415C12.3674 11.1991 12.1852 11.1233 12 11.1233Z" fill="#0C353E"/>
</svg>
