<svg width="24" height="24" viewBox="0 0 24 24" fill="none" xmlns="http://www.w3.org/2000/svg">
<path fill-rule="evenodd" clip-rule="evenodd" d="M11.499 0.499634C11.7567 0.289197 12.2413 0.289188 12.499 0.499624L21.4378 8.80345L23.4329 10.3746C23.7366 10.6138 23.789 11.0539 23.5498 11.3577C23.3106 11.6614 22.8705 11.7137 22.5668 11.4745L21.6998 10.7918V22.9987C21.6998 23.3853 21.3864 23.6996 20.9998 23.6996H3.00053C2.61406 23.6996 2.30071 23.3864 2.30053 22.9999L2.29983 10.7918L1.43292 11.4745C1.12919 11.7137 0.689073 11.6614 0.449889 11.3577C0.210704 11.0539 0.263025 10.6138 0.566752 10.3746L2.56187 8.80348L11.499 0.499634ZM3.69983 9.68169L3.70024 22.2996H8.29983V13.9996C8.29983 13.613 8.61323 13.2996 8.99983 13.2996H14.9998C15.1855 13.2996 15.3635 13.3733 15.4948 13.5046C15.6261 13.6359 15.6998 13.8139 15.6998 13.9996L15.6998 22.2996H20.299L20.2998 9.68169L11.999 1.99963L3.69983 9.68169ZM14.2998 22.2996L14.2998 14.6996H9.69983V22.2996H14.2998Z" fill="#0C353E"/>
</svg>
