<svg width="22" height="22" viewBox="0 0 22 22" fill="none" xmlns="http://www.w3.org/2000/svg">
<path fill-rule="evenodd" clip-rule="evenodd" d="M4.19775 0.319877C4.32072 0.158898 4.51172 0.0644531 4.71429 0.0644531H17.2857C17.4883 0.0644531 17.6793 0.158898 17.8023 0.319877L20.9451 4.43416C21.0317 4.54749 21.0786 4.68613 21.0786 4.82874V19.2287C21.0786 19.9506 20.7864 20.6404 20.2703 21.1472C19.7546 21.6535 19.0576 21.9359 18.3333 21.9359H3.66667C2.9424 21.9359 2.24544 21.6535 1.72973 21.1472C1.21362 20.6404 0.921432 19.9506 0.921432 19.2287V4.82874C0.921432 4.68613 0.968329 4.54749 1.0549 4.43416L4.19775 0.319877ZM5.03571 1.36445L2.88591 4.17874H19.1141L16.9643 1.36445H5.03571ZM19.7786 5.47874H2.22143V19.2287C2.22143 19.598 2.37074 19.9547 2.6405 20.2195C2.91065 20.4848 3.27956 20.6359 3.66667 20.6359H18.3333C18.7204 20.6359 19.0894 20.4848 19.3595 20.2195C19.6293 19.9547 19.7786 19.598 19.7786 19.2287V5.47874ZM6.80953 8.29302C7.16851 8.29302 7.45953 8.58404 7.45953 8.94302C7.45953 9.85792 7.82959 10.7378 8.49227 11.3884C9.15536 12.0395 10.0572 12.4073 11 12.4073C11.9428 12.4073 12.8446 12.0395 13.5077 11.3884C14.1704 10.7378 14.5405 9.85792 14.5405 8.94302C14.5405 8.58404 14.8315 8.29302 15.1905 8.29302C15.5495 8.29302 15.8405 8.58404 15.8405 8.94302C15.8405 10.2105 15.3275 11.4236 14.4185 12.3161C13.5099 13.2082 12.28 13.7073 11 13.7073C9.72004 13.7073 8.49015 13.2082 7.58151 12.3161C6.67246 11.4236 6.15953 10.2105 6.15953 8.94302C6.15953 8.58404 6.45054 8.29302 6.80953 8.29302Z" fill="#0C353E"/>
</svg>
