<svg width="32" height="32" viewBox="0 0 32 32" fill="none" xmlns="http://www.w3.org/2000/svg">
<path d="M15.9997 31.9994C24.8361 31.9994 31.9994 24.8361 31.9994 15.9997C31.9994 7.16332 24.8361 0 15.9997 0C7.16332 0 0 7.16332 0 15.9997C0 24.8361 7.16332 31.9994 15.9997 31.9994Z" fill="#CB2027"/>
<path d="M17.2918 21.4251C16.0822 21.3316 15.574 20.7318 14.6254 20.1559C14.104 22.8914 13.4669 25.5136 11.5796 26.8835C10.9964 22.7491 12.4347 19.6437 13.1026 16.3475C11.9641 14.4309 13.2395 10.5732 15.641 11.5238C18.5966 12.6926 13.0821 18.6503 16.7841 19.3944C20.649 20.1713 22.2268 12.6883 19.8299 10.2543C16.3669 6.74023 9.74972 10.1744 10.5634 15.205C10.7616 16.4348 12.0325 16.8081 11.0711 18.5051C8.85473 18.0143 8.19361 16.2662 8.2786 13.9358C8.41579 10.1211 11.7063 7.45012 15.0067 7.08049C19.1808 6.61331 23.0984 8.61321 23.6392 12.5394C24.2475 16.9707 21.7548 21.7697 17.2918 21.4251Z" fill="#F1F2F2"/>
</svg>
