<svg width="24" height="24" viewBox="0 0 24 24" fill="none" xmlns="http://www.w3.org/2000/svg">
<mask id="path-1-outside-1" maskUnits="userSpaceOnUse" x="-0.25" y="-0.25" width="24" height="24" fill="black">
<rect fill="white" x="-0.25" y="-0.25" width="24" height="24"/>
<path d="M7.28226 13.8094C5.68149 13.8094 4.37903 15.1125 4.37903 16.7141C4.37903 18.3158 5.68149 19.6189 7.28226 19.6189C8.88302 19.6189 10.1855 18.3158 10.1855 16.7141C10.1855 15.1125 8.88302 13.8094 7.28226 13.8094ZM7.28226 18.8927C6.08141 18.8927 5.10484 17.9156 5.10484 16.7141C5.10484 15.5127 6.08141 14.5356 7.28226 14.5356C8.48311 14.5356 9.45968 15.5127 9.45968 16.7141C9.45968 17.9156 8.48311 18.8927 7.28226 18.8927Z"/>
<path d="M22.8871 17.2902L21.9486 16.3512L22.5242 15.7754C22.7583 15.5412 22.8871 15.23 22.8871 14.8988C22.8871 14.5677 22.7583 14.2562 22.5242 14.0223L21.9486 13.4465L22.1613 13.2337C22.3954 12.9995 22.5242 12.6883 22.5242 12.3572C22.5242 12.0261 22.3954 11.7145 22.1613 11.4807L21.2228 10.5417C20.755 10.0733 19.9385 10.0733 19.4707 10.5417L17.8065 12.2069L11.7873 6.1846L13.4516 4.51946C13.6857 4.28562 13.8145 3.97409 13.8145 3.64295C13.8145 3.31181 13.6857 3.00027 13.4516 2.76644L12.5131 1.82748C12.0454 1.35909 11.2288 1.35909 10.761 1.82748L10.5484 2.04025L9.97282 1.46439C9.50504 0.995996 8.68851 0.995996 8.22073 1.46439L7.64516 2.04025L6.70669 1.10129C6.23891 0.632902 5.42238 0.632902 4.9546 1.10129L3.29032 2.76644C3.05625 3.00027 2.92742 3.31181 2.92742 3.64295C2.92742 3.97409 3.05625 4.28562 3.29032 4.51946L4.22879 5.45842L3.65323 6.03428C3.41915 6.26811 3.29032 6.57965 3.29032 6.91079C3.29032 7.24193 3.41915 7.55347 3.65323 7.7873L4.22879 8.36316L4.01613 8.57594C3.78206 8.80977 3.65323 9.1213 3.65323 9.45245C3.65323 9.78359 3.78206 10.0951 4.01613 10.329L4.4977 10.8108C2.28653 11.8594 0.75 14.1077 0.75 16.7143C0.75 20.318 3.68044 23.25 7.28226 23.25C9.88754 23.25 12.1346 21.7127 13.1827 19.5003L13.6643 19.9822C13.8983 20.2164 14.2094 20.3453 14.5403 20.3453C14.8713 20.3453 15.1827 20.2164 15.4164 19.9822L15.629 19.7694L16.2046 20.3453C16.4387 20.5794 16.7497 20.7083 17.0806 20.7083C17.4116 20.7083 17.723 20.5794 17.9567 20.3453L18.5323 19.7694L19.4707 20.7083C19.7048 20.9425 20.0158 21.0714 20.3468 21.0714C20.6777 21.0714 20.9891 20.9425 21.2228 20.7083L22.8871 19.0432C23.1212 18.809 23.25 18.4978 23.25 18.1667C23.25 17.8355 23.1212 17.524 22.8871 17.2902ZM17.2933 12.7203L14.9032 15.1116L12.0076 12.2145C11.9336 12.1364 11.8577 12.0609 11.7797 11.9865L8.88411 9.08935L11.2742 6.69802L17.2933 12.7203ZM13.7898 16.2256C13.7517 15.7136 13.6596 15.2169 13.51 14.7445L14.3901 15.625L13.7898 16.2256ZM8.37097 9.60277L9.25101 10.4833C8.77851 10.3337 8.28206 10.2414 7.77073 10.2033L8.37097 9.60277ZM3.80347 4.00604C3.70802 3.91055 3.65323 3.77802 3.65323 3.64295C3.65323 3.50788 3.70802 3.37535 3.80347 3.27985L5.46774 1.61471C5.65863 1.42372 6.00266 1.42372 6.19355 1.61471L7.13202 2.55367L4.74194 4.945L3.80347 4.00604ZM4.16637 7.27388C4.07093 7.17839 4.01613 7.04586 4.01613 6.91079C4.01613 6.77572 4.07093 6.64319 4.16637 6.5477L8.73387 1.9778C8.92476 1.78681 9.26879 1.78681 9.45968 1.9778L10.0352 2.55367L4.74194 7.84975L4.16637 7.27388ZM4.52927 9.81554C4.43383 9.72005 4.37903 9.58752 4.37903 9.45245C4.37903 9.31737 4.43383 9.18484 4.52927 9.08935L11.2742 2.34089C11.4651 2.14991 11.8091 2.14991 12 2.34089L12.9385 3.27985C13.0339 3.37535 13.0887 3.50788 13.0887 3.64295C13.0887 3.77802 13.0339 3.91055 12.9385 4.00604L6.74153 10.2059C6.21677 10.2491 5.71052 10.354 5.22786 10.5145L4.52927 9.81554ZM7.28226 22.5238C4.08073 22.5238 1.47581 19.9175 1.47581 16.7143C1.47581 13.5111 4.08073 10.9048 7.28226 10.9048C8.82351 10.9048 10.2229 11.513 11.2633 12.4966L11.4977 12.7312C12.4808 13.7722 13.0887 15.1723 13.0887 16.7143C13.0887 19.9175 10.4838 22.5238 7.28226 22.5238ZM14.1774 19.4687L13.4785 18.7694C13.6389 18.2869 13.7438 17.78 13.7869 17.255L19.9839 11.0551C20.1748 10.8642 20.5188 10.8642 20.7097 11.0551L21.6481 11.9941C21.7436 12.0896 21.7984 12.2221 21.7984 12.3572C21.7984 12.4923 21.7436 12.6248 21.6481 12.7203L14.9032 19.4687C14.7123 19.6597 14.3683 19.6597 14.1774 19.4687ZM17.4435 19.8318C17.2527 20.0228 16.9086 20.0228 16.7177 19.8318L16.1422 19.256L21.4355 13.9599L22.011 14.5358C22.1065 14.6312 22.1613 14.7638 22.1613 14.8988C22.1613 15.0339 22.1065 15.1664 22.011 15.2619L17.4435 19.8318ZM22.374 18.5298L20.7097 20.1949C20.5188 20.3859 20.1748 20.3859 19.9839 20.1949L19.0454 19.256L21.4355 16.8646L22.374 17.8036C22.4694 17.8991 22.5242 18.0316 22.5242 18.1667C22.5242 18.3018 22.4694 18.4343 22.374 18.5298Z"/>
</mask>
<path d="M7.28226 13.8094C5.68149 13.8094 4.37903 15.1125 4.37903 16.7141C4.37903 18.3158 5.68149 19.6189 7.28226 19.6189C8.88302 19.6189 10.1855 18.3158 10.1855 16.7141C10.1855 15.1125 8.88302 13.8094 7.28226 13.8094ZM7.28226 18.8927C6.08141 18.8927 5.10484 17.9156 5.10484 16.7141C5.10484 15.5127 6.08141 14.5356 7.28226 14.5356C8.48311 14.5356 9.45968 15.5127 9.45968 16.7141C9.45968 17.9156 8.48311 18.8927 7.28226 18.8927Z" fill="#0C353E"/>
<path d="M22.8871 17.2902L21.9486 16.3512L22.5242 15.7754C22.7583 15.5412 22.8871 15.23 22.8871 14.8988C22.8871 14.5677 22.7583 14.2562 22.5242 14.0223L21.9486 13.4465L22.1613 13.2337C22.3954 12.9995 22.5242 12.6883 22.5242 12.3572C22.5242 12.0261 22.3954 11.7145 22.1613 11.4807L21.2228 10.5417C20.755 10.0733 19.9385 10.0733 19.4707 10.5417L17.8065 12.2069L11.7873 6.1846L13.4516 4.51946C13.6857 4.28562 13.8145 3.97409 13.8145 3.64295C13.8145 3.31181 13.6857 3.00027 13.4516 2.76644L12.5131 1.82748C12.0454 1.35909 11.2288 1.35909 10.761 1.82748L10.5484 2.04025L9.97282 1.46439C9.50504 0.995996 8.68851 0.995996 8.22073 1.46439L7.64516 2.04025L6.70669 1.10129C6.23891 0.632902 5.42238 0.632902 4.9546 1.10129L3.29032 2.76644C3.05625 3.00027 2.92742 3.31181 2.92742 3.64295C2.92742 3.97409 3.05625 4.28562 3.29032 4.51946L4.22879 5.45842L3.65323 6.03428C3.41915 6.26811 3.29032 6.57965 3.29032 6.91079C3.29032 7.24193 3.41915 7.55347 3.65323 7.7873L4.22879 8.36316L4.01613 8.57594C3.78206 8.80977 3.65323 9.1213 3.65323 9.45245C3.65323 9.78359 3.78206 10.0951 4.01613 10.329L4.4977 10.8108C2.28653 11.8594 0.75 14.1077 0.75 16.7143C0.75 20.318 3.68044 23.25 7.28226 23.25C9.88754 23.25 12.1346 21.7127 13.1827 19.5003L13.6643 19.9822C13.8983 20.2164 14.2094 20.3453 14.5403 20.3453C14.8713 20.3453 15.1827 20.2164 15.4164 19.9822L15.629 19.7694L16.2046 20.3453C16.4387 20.5794 16.7497 20.7083 17.0806 20.7083C17.4116 20.7083 17.723 20.5794 17.9567 20.3453L18.5323 19.7694L19.4707 20.7083C19.7048 20.9425 20.0158 21.0714 20.3468 21.0714C20.6777 21.0714 20.9891 20.9425 21.2228 20.7083L22.8871 19.0432C23.1212 18.809 23.25 18.4978 23.25 18.1667C23.25 17.8355 23.1212 17.524 22.8871 17.2902ZM17.2933 12.7203L14.9032 15.1116L12.0076 12.2145C11.9336 12.1364 11.8577 12.0609 11.7797 11.9865L8.88411 9.08935L11.2742 6.69802L17.2933 12.7203ZM13.7898 16.2256C13.7517 15.7136 13.6596 15.2169 13.51 14.7445L14.3901 15.625L13.7898 16.2256ZM8.37097 9.60277L9.25101 10.4833C8.77851 10.3337 8.28206 10.2414 7.77073 10.2033L8.37097 9.60277ZM3.80347 4.00604C3.70802 3.91055 3.65323 3.77802 3.65323 3.64295C3.65323 3.50788 3.70802 3.37535 3.80347 3.27985L5.46774 1.61471C5.65863 1.42372 6.00266 1.42372 6.19355 1.61471L7.13202 2.55367L4.74194 4.945L3.80347 4.00604ZM4.16637 7.27388C4.07093 7.17839 4.01613 7.04586 4.01613 6.91079C4.01613 6.77572 4.07093 6.64319 4.16637 6.5477L8.73387 1.9778C8.92476 1.78681 9.26879 1.78681 9.45968 1.9778L10.0352 2.55367L4.74194 7.84975L4.16637 7.27388ZM4.52927 9.81554C4.43383 9.72005 4.37903 9.58752 4.37903 9.45245C4.37903 9.31737 4.43383 9.18484 4.52927 9.08935L11.2742 2.34089C11.4651 2.14991 11.8091 2.14991 12 2.34089L12.9385 3.27985C13.0339 3.37535 13.0887 3.50788 13.0887 3.64295C13.0887 3.77802 13.0339 3.91055 12.9385 4.00604L6.74153 10.2059C6.21677 10.2491 5.71052 10.354 5.22786 10.5145L4.52927 9.81554ZM7.28226 22.5238C4.08073 22.5238 1.47581 19.9175 1.47581 16.7143C1.47581 13.5111 4.08073 10.9048 7.28226 10.9048C8.82351 10.9048 10.2229 11.513 11.2633 12.4966L11.4977 12.7312C12.4808 13.7722 13.0887 15.1723 13.0887 16.7143C13.0887 19.9175 10.4838 22.5238 7.28226 22.5238ZM14.1774 19.4687L13.4785 18.7694C13.6389 18.2869 13.7438 17.78 13.7869 17.255L19.9839 11.0551C20.1748 10.8642 20.5188 10.8642 20.7097 11.0551L21.6481 11.9941C21.7436 12.0896 21.7984 12.2221 21.7984 12.3572C21.7984 12.4923 21.7436 12.6248 21.6481 12.7203L14.9032 19.4687C14.7123 19.6597 14.3683 19.6597 14.1774 19.4687ZM17.4435 19.8318C17.2527 20.0228 16.9086 20.0228 16.7177 19.8318L16.1422 19.256L21.4355 13.9599L22.011 14.5358C22.1065 14.6312 22.1613 14.7638 22.1613 14.8988C22.1613 15.0339 22.1065 15.1664 22.011 15.2619L17.4435 19.8318ZM22.374 18.5298L20.7097 20.1949C20.5188 20.3859 20.1748 20.3859 19.9839 20.1949L19.0454 19.256L21.4355 16.8646L22.374 17.8036C22.4694 17.8991 22.5242 18.0316 22.5242 18.1667C22.5242 18.3018 22.4694 18.4343 22.374 18.5298Z" fill="#0C353E"/>
<path d="M7.28226 13.8094C5.68149 13.8094 4.37903 15.1125 4.37903 16.7141C4.37903 18.3158 5.68149 19.6189 7.28226 19.6189C8.88302 19.6189 10.1855 18.3158 10.1855 16.7141C10.1855 15.1125 8.88302 13.8094 7.28226 13.8094ZM7.28226 18.8927C6.08141 18.8927 5.10484 17.9156 5.10484 16.7141C5.10484 15.5127 6.08141 14.5356 7.28226 14.5356C8.48311 14.5356 9.45968 15.5127 9.45968 16.7141C9.45968 17.9156 8.48311 18.8927 7.28226 18.8927Z" stroke="#0C353E" stroke-width="0.4" mask="url(#path-1-outside-1)"/>
<path d="M22.8871 17.2902L21.9486 16.3512L22.5242 15.7754C22.7583 15.5412 22.8871 15.23 22.8871 14.8988C22.8871 14.5677 22.7583 14.2562 22.5242 14.0223L21.9486 13.4465L22.1613 13.2337C22.3954 12.9995 22.5242 12.6883 22.5242 12.3572C22.5242 12.0261 22.3954 11.7145 22.1613 11.4807L21.2228 10.5417C20.755 10.0733 19.9385 10.0733 19.4707 10.5417L17.8065 12.2069L11.7873 6.1846L13.4516 4.51946C13.6857 4.28562 13.8145 3.97409 13.8145 3.64295C13.8145 3.31181 13.6857 3.00027 13.4516 2.76644L12.5131 1.82748C12.0454 1.35909 11.2288 1.35909 10.761 1.82748L10.5484 2.04025L9.97282 1.46439C9.50504 0.995996 8.68851 0.995996 8.22073 1.46439L7.64516 2.04025L6.70669 1.10129C6.23891 0.632902 5.42238 0.632902 4.9546 1.10129L3.29032 2.76644C3.05625 3.00027 2.92742 3.31181 2.92742 3.64295C2.92742 3.97409 3.05625 4.28562 3.29032 4.51946L4.22879 5.45842L3.65323 6.03428C3.41915 6.26811 3.29032 6.57965 3.29032 6.91079C3.29032 7.24193 3.41915 7.55347 3.65323 7.7873L4.22879 8.36316L4.01613 8.57594C3.78206 8.80977 3.65323 9.1213 3.65323 9.45245C3.65323 9.78359 3.78206 10.0951 4.01613 10.329L4.4977 10.8108C2.28653 11.8594 0.75 14.1077 0.75 16.7143C0.75 20.318 3.68044 23.25 7.28226 23.25C9.88754 23.25 12.1346 21.7127 13.1827 19.5003L13.6643 19.9822C13.8983 20.2164 14.2094 20.3453 14.5403 20.3453C14.8713 20.3453 15.1827 20.2164 15.4164 19.9822L15.629 19.7694L16.2046 20.3453C16.4387 20.5794 16.7497 20.7083 17.0806 20.7083C17.4116 20.7083 17.723 20.5794 17.9567 20.3453L18.5323 19.7694L19.4707 20.7083C19.7048 20.9425 20.0158 21.0714 20.3468 21.0714C20.6777 21.0714 20.9891 20.9425 21.2228 20.7083L22.8871 19.0432C23.1212 18.809 23.25 18.4978 23.25 18.1667C23.25 17.8355 23.1212 17.524 22.8871 17.2902ZM17.2933 12.7203L14.9032 15.1116L12.0076 12.2145C11.9336 12.1364 11.8577 12.0609 11.7797 11.9865L8.88411 9.08935L11.2742 6.69802L17.2933 12.7203ZM13.7898 16.2256C13.7517 15.7136 13.6596 15.2169 13.51 14.7445L14.3901 15.625L13.7898 16.2256ZM8.37097 9.60277L9.25101 10.4833C8.77851 10.3337 8.28206 10.2414 7.77073 10.2033L8.37097 9.60277ZM3.80347 4.00604C3.70802 3.91055 3.65323 3.77802 3.65323 3.64295C3.65323 3.50788 3.70802 3.37535 3.80347 3.27985L5.46774 1.61471C5.65863 1.42372 6.00266 1.42372 6.19355 1.61471L7.13202 2.55367L4.74194 4.945L3.80347 4.00604ZM4.16637 7.27388C4.07093 7.17839 4.01613 7.04586 4.01613 6.91079C4.01613 6.77572 4.07093 6.64319 4.16637 6.5477L8.73387 1.9778C8.92476 1.78681 9.26879 1.78681 9.45968 1.9778L10.0352 2.55367L4.74194 7.84975L4.16637 7.27388ZM4.52927 9.81554C4.43383 9.72005 4.37903 9.58752 4.37903 9.45245C4.37903 9.31737 4.43383 9.18484 4.52927 9.08935L11.2742 2.34089C11.4651 2.14991 11.8091 2.14991 12 2.34089L12.9385 3.27985C13.0339 3.37535 13.0887 3.50788 13.0887 3.64295C13.0887 3.77802 13.0339 3.91055 12.9385 4.00604L6.74153 10.2059C6.21677 10.2491 5.71052 10.354 5.22786 10.5145L4.52927 9.81554ZM7.28226 22.5238C4.08073 22.5238 1.47581 19.9175 1.47581 16.7143C1.47581 13.5111 4.08073 10.9048 7.28226 10.9048C8.82351 10.9048 10.2229 11.513 11.2633 12.4966L11.4977 12.7312C12.4808 13.7722 13.0887 15.1723 13.0887 16.7143C13.0887 19.9175 10.4838 22.5238 7.28226 22.5238ZM14.1774 19.4687L13.4785 18.7694C13.6389 18.2869 13.7438 17.78 13.7869 17.255L19.9839 11.0551C20.1748 10.8642 20.5188 10.8642 20.7097 11.0551L21.6481 11.9941C21.7436 12.0896 21.7984 12.2221 21.7984 12.3572C21.7984 12.4923 21.7436 12.6248 21.6481 12.7203L14.9032 19.4687C14.7123 19.6597 14.3683 19.6597 14.1774 19.4687ZM17.4435 19.8318C17.2527 20.0228 16.9086 20.0228 16.7177 19.8318L16.1422 19.256L21.4355 13.9599L22.011 14.5358C22.1065 14.6312 22.1613 14.7638 22.1613 14.8988C22.1613 15.0339 22.1065 15.1664 22.011 15.2619L17.4435 19.8318ZM22.374 18.5298L20.7097 20.1949C20.5188 20.3859 20.1748 20.3859 19.9839 20.1949L19.0454 19.256L21.4355 16.8646L22.374 17.8036C22.4694 17.8991 22.5242 18.0316 22.5242 18.1667C22.5242 18.3018 22.4694 18.4343 22.374 18.5298Z" stroke="#0C353E" stroke-width="0.4" mask="url(#path-1-outside-1)"/>
</svg>
