<svg width="24" height="24" viewBox="0 0 24 24" fill="none" xmlns="http://www.w3.org/2000/svg">
<g clip-path="url(#clip0)">
<mask id="path-1-outside-1" maskUnits="userSpaceOnUse" x="0.5" y="-1" width="22" height="26" fill="black">
<rect fill="white" x="0.5" y="-1" width="22" height="26"/>
<path d="M21.75 19.4594C21.7375 9.96534 21.3058 6.30106 21.0739 4.33249L21.0419 4.06009C20.9667 3.41381 20.5238 2.87539 19.9136 2.68841L16.8777 1.75822V0.803456C16.8777 0.360415 16.5249 0 16.0911 0H7.15862C6.72483 0 6.37195 0.360415 6.37195 0.803456V1.75827L3.33638 2.68836C2.72618 2.87528 2.28327 3.41375 2.2081 4.06004L2.17613 4.33275C1.94419 6.30142 1.51249 9.96581 1.5 19.4594C1.49975 19.6754 1.58207 19.8787 1.73189 20.0319C1.78427 20.0855 1.84294 20.13 1.90577 20.166V21.1231C1.90577 21.5662 2.25865 21.9266 2.69243 21.9266H4.44061C4.51222 22.0583 4.61895 22.1673 4.74792 22.2404V23.1965C4.74792 23.6396 5.1008 24 5.53458 24H17.7152C18.149 24 18.5019 23.6396 18.5019 23.1965V22.2404C18.6308 22.1673 18.7375 22.0583 18.8092 21.9266H20.5577C20.9914 21.9266 21.3443 21.5662 21.3443 21.1231V20.1661C21.4072 20.1301 21.4658 20.0855 21.5182 20.032C21.6679 19.8787 21.7503 19.6754 21.75 19.4594ZM20.9887 19.4605C20.9887 19.4708 20.9837 19.4782 20.9795 19.4825C20.9719 19.4902 20.9652 19.4902 20.963 19.4902H18.9079V7.982C18.9079 7.66963 18.9639 7.36354 19.0746 7.07238L20.2486 3.98296C20.2662 4.03718 20.2791 4.09358 20.2859 4.15179L20.318 4.42538C20.5481 6.37799 20.9763 10.0125 20.9887 19.4605ZM5.12851 21.5637C5.1145 21.5637 5.10313 21.5521 5.10313 21.5378V7.982C5.10313 7.57301 5.02964 7.17227 4.88475 6.79101L3.60827 3.43195C3.60654 3.42733 3.60431 3.42308 3.60243 3.41857L5.97187 2.80419L9.6258 4.47105C9.62235 4.49209 9.62012 4.51355 9.62012 4.53558V8.35765C9.14863 8.52031 8.80808 8.97605 8.80808 9.51183V10.3412C8.80808 10.5559 8.9785 10.73 9.18872 10.73H10.8128C11.023 10.73 11.1934 10.5559 11.1934 10.3412V9.51183C11.1934 8.97605 10.8529 8.52031 10.3814 8.35765V4.98557L11.4137 5.68847C11.4181 5.69142 11.4227 5.69349 11.4272 5.69624C11.4333 5.70003 11.4389 5.70433 11.4452 5.7078C11.4487 5.70972 11.4523 5.71101 11.4559 5.71278C11.4616 5.71568 11.4673 5.71827 11.4731 5.72081C11.4839 5.72558 11.4947 5.72983 11.5057 5.73351C11.5112 5.73533 11.5165 5.73719 11.522 5.73875C11.535 5.74248 11.5481 5.74538 11.5614 5.74766C11.5649 5.74829 11.5683 5.74911 11.5718 5.74963C11.5894 5.75217 11.6071 5.75378 11.6248 5.75378C11.6336 5.75378 11.6423 5.75243 11.6509 5.75186C11.6581 5.75134 11.6654 5.75119 11.6726 5.75025C11.6827 5.74896 11.6926 5.74673 11.7026 5.7446C11.709 5.7432 11.7154 5.74196 11.7218 5.74025C11.7319 5.73755 11.7418 5.73424 11.7516 5.73066C11.7577 5.72848 11.7637 5.72615 11.7696 5.72361C11.7794 5.71952 11.7891 5.71506 11.7986 5.71008C11.8005 5.70904 11.8026 5.70837 11.8045 5.70733C11.808 5.70542 11.8111 5.70293 11.8145 5.70091C11.8217 5.69671 11.8291 5.69323 11.836 5.68852L12.8683 4.98562V8.35775C12.3968 8.52041 12.0563 8.97616 12.0563 9.51193V10.3413C12.0563 10.556 12.2267 10.7301 12.4369 10.7301H14.061C14.2712 10.7301 14.4417 10.556 14.4417 10.3413V9.51193C14.4417 8.97616 14.1011 8.52041 13.6296 8.35775V4.53564C13.6296 4.51361 13.6274 4.49215 13.6239 4.4711L16.5594 2.47236L19.6474 3.41852C19.6454 3.42303 19.6433 3.42733 19.6415 3.43195L18.3649 6.79101C18.2201 7.17227 18.1466 7.57301 18.1466 7.982V21.5378C18.1466 21.5521 18.1352 21.5637 18.1212 21.5637H5.12851ZM13.2489 9.07127C13.4868 9.07127 13.6803 9.26892 13.6803 9.51188V9.95248H12.8175V9.51188C12.8175 9.26892 13.0111 9.07127 13.2489 9.07127ZM12.1414 4.54611C12.3307 3.99089 12.7089 3.51048 13.2187 3.20677L16.1165 1.48028V1.83945L12.1414 4.54611ZM12.8351 2.53514C12.3158 2.84454 11.9007 3.29375 11.6248 3.8201C11.349 3.29375 10.9339 2.84449 10.4146 2.53514L7.46455 0.777538H15.7852L12.8351 2.53514ZM10.0008 9.07127C10.2386 9.07127 10.4322 9.26892 10.4322 9.51188V9.95248H9.56936V9.51188C9.56936 9.26892 9.76289 9.07127 10.0008 9.07127ZM7.13324 1.83945V1.48028L10.0311 3.20677C10.5408 3.51048 10.9191 3.99089 11.1084 4.54611L7.13324 1.83945ZM2.93194 4.42569L2.96406 4.15184C2.97081 4.09374 2.98365 4.03749 3.00121 3.98338L4.17507 7.07238C4.28576 7.36359 4.34184 7.66963 4.34184 7.982V19.4903H2.28702C2.28484 19.4903 2.27814 19.4903 2.27053 19.4825C2.26631 19.4782 2.26124 19.4708 2.26129 19.4605C2.27367 10.013 2.70187 6.37835 2.93194 4.42569ZM2.66701 21.1231V20.2678H4.34184V21.149H2.69238C2.67838 21.149 2.66701 21.1374 2.66701 21.1231ZM17.7152 23.2225H5.53453C5.52052 23.2225 5.50915 23.2108 5.50915 23.1965V22.3413H17.7405V23.1965C17.7405 23.2108 17.7292 23.2225 17.7152 23.2225ZM20.5576 21.149H18.9079V20.2678H20.583V21.1231C20.583 21.1374 20.5716 21.149 20.5576 21.149Z"/>
<path d="M15.2402 14.3858C15.195 14.2167 15.0446 14.0994 14.8729 14.0994H8.37658C8.20494 14.0994 8.05451 14.2167 8.00934 14.3858L6.79127 18.9473C6.78239 18.9807 6.77788 19.015 6.77788 19.0496V20.2937C6.77788 20.5084 6.9483 20.6825 7.15852 20.6825H16.091C16.3012 20.6825 16.4716 20.5084 16.4716 20.2937V19.0496C16.4716 19.015 16.4671 18.9807 16.4582 18.9473L15.2402 14.3858ZM15.7103 19.905H7.53917V19.1017L8.66735 14.8769H14.5822L15.7104 19.1017L15.7103 19.905Z"/>
</mask>
<path d="M21.75 19.4594C21.7375 9.96534 21.3058 6.30106 21.0739 4.33249L21.0419 4.06009C20.9667 3.41381 20.5238 2.87539 19.9136 2.68841L16.8777 1.75822V0.803456C16.8777 0.360415 16.5249 0 16.0911 0H7.15862C6.72483 0 6.37195 0.360415 6.37195 0.803456V1.75827L3.33638 2.68836C2.72618 2.87528 2.28327 3.41375 2.2081 4.06004L2.17613 4.33275C1.94419 6.30142 1.51249 9.96581 1.5 19.4594C1.49975 19.6754 1.58207 19.8787 1.73189 20.0319C1.78427 20.0855 1.84294 20.13 1.90577 20.166V21.1231C1.90577 21.5662 2.25865 21.9266 2.69243 21.9266H4.44061C4.51222 22.0583 4.61895 22.1673 4.74792 22.2404V23.1965C4.74792 23.6396 5.1008 24 5.53458 24H17.7152C18.149 24 18.5019 23.6396 18.5019 23.1965V22.2404C18.6308 22.1673 18.7375 22.0583 18.8092 21.9266H20.5577C20.9914 21.9266 21.3443 21.5662 21.3443 21.1231V20.1661C21.4072 20.1301 21.4658 20.0855 21.5182 20.032C21.6679 19.8787 21.7503 19.6754 21.75 19.4594ZM20.9887 19.4605C20.9887 19.4708 20.9837 19.4782 20.9795 19.4825C20.9719 19.4902 20.9652 19.4902 20.963 19.4902H18.9079V7.982C18.9079 7.66963 18.9639 7.36354 19.0746 7.07238L20.2486 3.98296C20.2662 4.03718 20.2791 4.09358 20.2859 4.15179L20.318 4.42538C20.5481 6.37799 20.9763 10.0125 20.9887 19.4605ZM5.12851 21.5637C5.1145 21.5637 5.10313 21.5521 5.10313 21.5378V7.982C5.10313 7.57301 5.02964 7.17227 4.88475 6.79101L3.60827 3.43195C3.60654 3.42733 3.60431 3.42308 3.60243 3.41857L5.97187 2.80419L9.6258 4.47105C9.62235 4.49209 9.62012 4.51355 9.62012 4.53558V8.35765C9.14863 8.52031 8.80808 8.97605 8.80808 9.51183V10.3412C8.80808 10.5559 8.9785 10.73 9.18872 10.73H10.8128C11.023 10.73 11.1934 10.5559 11.1934 10.3412V9.51183C11.1934 8.97605 10.8529 8.52031 10.3814 8.35765V4.98557L11.4137 5.68847C11.4181 5.69142 11.4227 5.69349 11.4272 5.69624C11.4333 5.70003 11.4389 5.70433 11.4452 5.7078C11.4487 5.70972 11.4523 5.71101 11.4559 5.71278C11.4616 5.71568 11.4673 5.71827 11.4731 5.72081C11.4839 5.72558 11.4947 5.72983 11.5057 5.73351C11.5112 5.73533 11.5165 5.73719 11.522 5.73875C11.535 5.74248 11.5481 5.74538 11.5614 5.74766C11.5649 5.74829 11.5683 5.74911 11.5718 5.74963C11.5894 5.75217 11.6071 5.75378 11.6248 5.75378C11.6336 5.75378 11.6423 5.75243 11.6509 5.75186C11.6581 5.75134 11.6654 5.75119 11.6726 5.75025C11.6827 5.74896 11.6926 5.74673 11.7026 5.7446C11.709 5.7432 11.7154 5.74196 11.7218 5.74025C11.7319 5.73755 11.7418 5.73424 11.7516 5.73066C11.7577 5.72848 11.7637 5.72615 11.7696 5.72361C11.7794 5.71952 11.7891 5.71506 11.7986 5.71008C11.8005 5.70904 11.8026 5.70837 11.8045 5.70733C11.808 5.70542 11.8111 5.70293 11.8145 5.70091C11.8217 5.69671 11.8291 5.69323 11.836 5.68852L12.8683 4.98562V8.35775C12.3968 8.52041 12.0563 8.97616 12.0563 9.51193V10.3413C12.0563 10.556 12.2267 10.7301 12.4369 10.7301H14.061C14.2712 10.7301 14.4417 10.556 14.4417 10.3413V9.51193C14.4417 8.97616 14.1011 8.52041 13.6296 8.35775V4.53564C13.6296 4.51361 13.6274 4.49215 13.6239 4.4711L16.5594 2.47236L19.6474 3.41852C19.6454 3.42303 19.6433 3.42733 19.6415 3.43195L18.3649 6.79101C18.2201 7.17227 18.1466 7.57301 18.1466 7.982V21.5378C18.1466 21.5521 18.1352 21.5637 18.1212 21.5637H5.12851ZM13.2489 9.07127C13.4868 9.07127 13.6803 9.26892 13.6803 9.51188V9.95248H12.8175V9.51188C12.8175 9.26892 13.0111 9.07127 13.2489 9.07127ZM12.1414 4.54611C12.3307 3.99089 12.7089 3.51048 13.2187 3.20677L16.1165 1.48028V1.83945L12.1414 4.54611ZM12.8351 2.53514C12.3158 2.84454 11.9007 3.29375 11.6248 3.8201C11.349 3.29375 10.9339 2.84449 10.4146 2.53514L7.46455 0.777538H15.7852L12.8351 2.53514ZM10.0008 9.07127C10.2386 9.07127 10.4322 9.26892 10.4322 9.51188V9.95248H9.56936V9.51188C9.56936 9.26892 9.76289 9.07127 10.0008 9.07127ZM7.13324 1.83945V1.48028L10.0311 3.20677C10.5408 3.51048 10.9191 3.99089 11.1084 4.54611L7.13324 1.83945ZM2.93194 4.42569L2.96406 4.15184C2.97081 4.09374 2.98365 4.03749 3.00121 3.98338L4.17507 7.07238C4.28576 7.36359 4.34184 7.66963 4.34184 7.982V19.4903H2.28702C2.28484 19.4903 2.27814 19.4903 2.27053 19.4825C2.26631 19.4782 2.26124 19.4708 2.26129 19.4605C2.27367 10.013 2.70187 6.37835 2.93194 4.42569ZM2.66701 21.1231V20.2678H4.34184V21.149H2.69238C2.67838 21.149 2.66701 21.1374 2.66701 21.1231ZM17.7152 23.2225H5.53453C5.52052 23.2225 5.50915 23.2108 5.50915 23.1965V22.3413H17.7405V23.1965C17.7405 23.2108 17.7292 23.2225 17.7152 23.2225ZM20.5576 21.149H18.9079V20.2678H20.583V21.1231C20.583 21.1374 20.5716 21.149 20.5576 21.149Z" fill="#0C353E"/>
<path d="M15.2402 14.3858C15.195 14.2167 15.0446 14.0994 14.8729 14.0994H8.37658C8.20494 14.0994 8.05451 14.2167 8.00934 14.3858L6.79127 18.9473C6.78239 18.9807 6.77788 19.015 6.77788 19.0496V20.2937C6.77788 20.5084 6.9483 20.6825 7.15852 20.6825H16.091C16.3012 20.6825 16.4716 20.5084 16.4716 20.2937V19.0496C16.4716 19.015 16.4671 18.9807 16.4582 18.9473L15.2402 14.3858ZM15.7103 19.905H7.53917V19.1017L8.66735 14.8769H14.5822L15.7104 19.1017L15.7103 19.905Z" fill="#0C353E"/>
<path d="M21.75 19.4594C21.7375 9.96534 21.3058 6.30106 21.0739 4.33249L21.0419 4.06009C20.9667 3.41381 20.5238 2.87539 19.9136 2.68841L16.8777 1.75822V0.803456C16.8777 0.360415 16.5249 0 16.0911 0H7.15862C6.72483 0 6.37195 0.360415 6.37195 0.803456V1.75827L3.33638 2.68836C2.72618 2.87528 2.28327 3.41375 2.2081 4.06004L2.17613 4.33275C1.94419 6.30142 1.51249 9.96581 1.5 19.4594C1.49975 19.6754 1.58207 19.8787 1.73189 20.0319C1.78427 20.0855 1.84294 20.13 1.90577 20.166V21.1231C1.90577 21.5662 2.25865 21.9266 2.69243 21.9266H4.44061C4.51222 22.0583 4.61895 22.1673 4.74792 22.2404V23.1965C4.74792 23.6396 5.1008 24 5.53458 24H17.7152C18.149 24 18.5019 23.6396 18.5019 23.1965V22.2404C18.6308 22.1673 18.7375 22.0583 18.8092 21.9266H20.5577C20.9914 21.9266 21.3443 21.5662 21.3443 21.1231V20.1661C21.4072 20.1301 21.4658 20.0855 21.5182 20.032C21.6679 19.8787 21.7503 19.6754 21.75 19.4594ZM20.9887 19.4605C20.9887 19.4708 20.9837 19.4782 20.9795 19.4825C20.9719 19.4902 20.9652 19.4902 20.963 19.4902H18.9079V7.982C18.9079 7.66963 18.9639 7.36354 19.0746 7.07238L20.2486 3.98296C20.2662 4.03718 20.2791 4.09358 20.2859 4.15179L20.318 4.42538C20.5481 6.37799 20.9763 10.0125 20.9887 19.4605ZM5.12851 21.5637C5.1145 21.5637 5.10313 21.5521 5.10313 21.5378V7.982C5.10313 7.57301 5.02964 7.17227 4.88475 6.79101L3.60827 3.43195C3.60654 3.42733 3.60431 3.42308 3.60243 3.41857L5.97187 2.80419L9.6258 4.47105C9.62235 4.49209 9.62012 4.51355 9.62012 4.53558V8.35765C9.14863 8.52031 8.80808 8.97605 8.80808 9.51183V10.3412C8.80808 10.5559 8.9785 10.73 9.18872 10.73H10.8128C11.023 10.73 11.1934 10.5559 11.1934 10.3412V9.51183C11.1934 8.97605 10.8529 8.52031 10.3814 8.35765V4.98557L11.4137 5.68847C11.4181 5.69142 11.4227 5.69349 11.4272 5.69624C11.4333 5.70003 11.4389 5.70433 11.4452 5.7078C11.4487 5.70972 11.4523 5.71101 11.4559 5.71278C11.4616 5.71568 11.4673 5.71827 11.4731 5.72081C11.4839 5.72558 11.4947 5.72983 11.5057 5.73351C11.5112 5.73533 11.5165 5.73719 11.522 5.73875C11.535 5.74248 11.5481 5.74538 11.5614 5.74766C11.5649 5.74829 11.5683 5.74911 11.5718 5.74963C11.5894 5.75217 11.6071 5.75378 11.6248 5.75378C11.6336 5.75378 11.6423 5.75243 11.6509 5.75186C11.6581 5.75134 11.6654 5.75119 11.6726 5.75025C11.6827 5.74896 11.6926 5.74673 11.7026 5.7446C11.709 5.7432 11.7154 5.74196 11.7218 5.74025C11.7319 5.73755 11.7418 5.73424 11.7516 5.73066C11.7577 5.72848 11.7637 5.72615 11.7696 5.72361C11.7794 5.71952 11.7891 5.71506 11.7986 5.71008C11.8005 5.70904 11.8026 5.70837 11.8045 5.70733C11.808 5.70542 11.8111 5.70293 11.8145 5.70091C11.8217 5.69671 11.8291 5.69323 11.836 5.68852L12.8683 4.98562V8.35775C12.3968 8.52041 12.0563 8.97616 12.0563 9.51193V10.3413C12.0563 10.556 12.2267 10.7301 12.4369 10.7301H14.061C14.2712 10.7301 14.4417 10.556 14.4417 10.3413V9.51193C14.4417 8.97616 14.1011 8.52041 13.6296 8.35775V4.53564C13.6296 4.51361 13.6274 4.49215 13.6239 4.4711L16.5594 2.47236L19.6474 3.41852C19.6454 3.42303 19.6433 3.42733 19.6415 3.43195L18.3649 6.79101C18.2201 7.17227 18.1466 7.57301 18.1466 7.982V21.5378C18.1466 21.5521 18.1352 21.5637 18.1212 21.5637H5.12851ZM13.2489 9.07127C13.4868 9.07127 13.6803 9.26892 13.6803 9.51188V9.95248H12.8175V9.51188C12.8175 9.26892 13.0111 9.07127 13.2489 9.07127ZM12.1414 4.54611C12.3307 3.99089 12.7089 3.51048 13.2187 3.20677L16.1165 1.48028V1.83945L12.1414 4.54611ZM12.8351 2.53514C12.3158 2.84454 11.9007 3.29375 11.6248 3.8201C11.349 3.29375 10.9339 2.84449 10.4146 2.53514L7.46455 0.777538H15.7852L12.8351 2.53514ZM10.0008 9.07127C10.2386 9.07127 10.4322 9.26892 10.4322 9.51188V9.95248H9.56936V9.51188C9.56936 9.26892 9.76289 9.07127 10.0008 9.07127ZM7.13324 1.83945V1.48028L10.0311 3.20677C10.5408 3.51048 10.9191 3.99089 11.1084 4.54611L7.13324 1.83945ZM2.93194 4.42569L2.96406 4.15184C2.97081 4.09374 2.98365 4.03749 3.00121 3.98338L4.17507 7.07238C4.28576 7.36359 4.34184 7.66963 4.34184 7.982V19.4903H2.28702C2.28484 19.4903 2.27814 19.4903 2.27053 19.4825C2.26631 19.4782 2.26124 19.4708 2.26129 19.4605C2.27367 10.013 2.70187 6.37835 2.93194 4.42569ZM2.66701 21.1231V20.2678H4.34184V21.149H2.69238C2.67838 21.149 2.66701 21.1374 2.66701 21.1231ZM17.7152 23.2225H5.53453C5.52052 23.2225 5.50915 23.2108 5.50915 23.1965V22.3413H17.7405V23.1965C17.7405 23.2108 17.7292 23.2225 17.7152 23.2225ZM20.5576 21.149H18.9079V20.2678H20.583V21.1231C20.583 21.1374 20.5716 21.149 20.5576 21.149Z" stroke="#0C353E" stroke-width="0.1" mask="url(#path-1-outside-1)"/>
<path d="M15.2402 14.3858C15.195 14.2167 15.0446 14.0994 14.8729 14.0994H8.37658C8.20494 14.0994 8.05451 14.2167 8.00934 14.3858L6.79127 18.9473C6.78239 18.9807 6.77788 19.015 6.77788 19.0496V20.2937C6.77788 20.5084 6.9483 20.6825 7.15852 20.6825H16.091C16.3012 20.6825 16.4716 20.5084 16.4716 20.2937V19.0496C16.4716 19.015 16.4671 18.9807 16.4582 18.9473L15.2402 14.3858ZM15.7103 19.905H7.53917V19.1017L8.66735 14.8769H14.5822L15.7104 19.1017L15.7103 19.905Z" stroke="#0C353E" stroke-width="0.1" mask="url(#path-1-outside-1)"/>
</g>
<defs>
<clipPath id="clip0">
<rect width="24" height="24" fill="white"/>
</clipPath>
</defs>
</svg>
