<svg width="24" height="24" viewBox="0 0 24 24" fill="none" xmlns="http://www.w3.org/2000/svg">
<path d="M19.9141 5.165C19.3404 4.83037 18.5995 4.80647 17.7151 5.1411C17.6912 4.1133 17.3326 3.13331 16.7112 2.32063C14.7751 -0.0935021 10.8312 0.00210708 10.401 0.00210708C10.2576 0.00210708 6.74393 -0.141306 4.59272 1.93819C3.46931 3.0616 2.94346 4.56744 2.99127 6.45572C3.01517 7.07718 3.13468 7.69864 3.3737 8.2723C3.46931 11.1645 3.87565 15.2279 5.3815 18.0722V22.7571C5.3815 23.4502 5.93125 24 6.62441 24H14.2014C14.8946 24 15.4444 23.4502 15.4444 22.7571V18.1917C16.4244 17.3791 21.0136 13.2679 21.0136 8.00937C21.0136 6.57524 20.6551 5.61914 19.9141 5.165ZM14.56 20.0083V21.5142H9.06245V20.0083H14.56ZM6.28978 18.4308H14.56V19.1239H9.01464C8.5605 19.1239 8.17806 19.5064 8.17806 19.9605V21.562C8.17806 22.0161 8.5605 22.3985 9.01464 22.3985H14.5361V22.7571C14.5361 22.9483 14.3688 23.1156 14.1775 23.1156H6.62441C6.4332 23.1156 6.26588 22.9483 6.26588 22.7571V18.4308H6.28978ZM12.2175 17.5225H6.09856C4.92735 15.2279 4.49711 12.0967 4.3537 9.80204C5.83564 11.5469 8.34538 12.6703 10.8312 12.6703C12.4088 12.6703 16.2092 12.1923 17.4043 7.74645C17.5478 7.2206 17.6434 6.67084 17.6912 6.12109C18.2409 5.85817 18.958 5.64305 19.436 5.92987C19.8663 6.1928 20.1053 6.90987 20.1053 8.00937C20.1053 10.065 19.3165 12.2162 17.739 14.3674C16.52 16.0405 15.2053 17.1878 14.8229 17.5225H12.2175ZM16.5439 7.50742C15.5878 11.0689 12.4805 12.025 9.92293 11.7142C6.09856 11.284 3.97126 8.65473 3.89955 6.40792C3.85175 4.78256 4.28199 3.49184 5.23808 2.58355C6.81563 1.006 9.42098 0.886492 10.1859 0.886492C12.1219 0.886492 14.6795 1.24503 16.018 2.89428C16.9024 3.99379 17.0697 5.54744 16.5439 7.50742Z" fill="#0C353E"/>
<path d="M12.8625 16.0168L11.4045 14.989L12.8625 13.9612C12.9582 13.8895 13.0299 13.7939 13.0538 13.6744C13.0777 13.5549 13.0538 13.4354 12.9821 13.3398C12.8386 13.1485 12.5518 13.1007 12.3606 13.2202L10.6157 14.4393L8.87086 13.2202C8.65574 13.0768 8.39282 13.1485 8.2494 13.3398C8.10599 13.531 8.15379 13.8178 8.34501 13.9612L9.80305 14.989L8.36891 16.0168C8.2255 16.1124 8.15379 16.2558 8.1777 16.4232C8.2016 16.5905 8.29721 16.7339 8.44062 16.8056C8.58403 16.8773 8.75135 16.8534 8.89476 16.7578L10.6396 15.5388L12.3845 16.7578C12.4562 16.8056 12.5518 16.8534 12.6474 16.8534C12.7191 16.8534 12.7669 16.8295 12.8386 16.8056C12.9821 16.7339 13.0777 16.5905 13.1016 16.4232C13.0777 16.2558 13.006 16.1124 12.8625 16.0168Z" fill="#0C353E"/>
</svg>
