<svg width="24" height="24" viewBox="0 0 24 24" fill="none" xmlns="http://www.w3.org/2000/svg"> <path fill-rule="evenodd" clip-rule="evenodd" d="M21.4581 14.5419C21.4581 12.9555 21.0544 11.3856 20.2915 10.0012C20.1915 9.81994 19.9887 9.71958 19.7843 9.7494C19.5793 9.77955 19.4143 9.93394 19.3706 10.1366C19.2757 10.5777 19.1112 10.9964 18.8839 11.3805C18.5855 9.74581 17.729 8.71145 16.9058 7.71744L16.9032 7.7143C15.9404 6.55175 15.0457 5.46967 15.0457 3.4245C15.0457 2.49818 15.1461 1.54751 15.345 0.598854C15.3798 0.432501 15.3269 0.260172 15.2058 0.141387C15.0846 0.0231339 14.9107 -0.0255107 14.7455 0.0129098C10.2736 1.0575 6.98436 5.68635 6.68443 11.1686C6.57805 10.7294 6.52365 10.2753 6.52365 9.81284C6.52365 9.08374 6.66306 8.36605 6.93786 7.68057C7.02167 7.47188 6.95477 7.23272 6.77487 7.09787C6.59511 6.96314 6.347 6.96533 6.17 7.10479C3.86513 8.91372 2.54297 11.6245 2.54297 14.5419C2.54297 19.757 6.7857 24 12.0005 24C17.2154 24 21.4581 19.757 21.4581 14.5419ZM16.8481 7.75995C17.6856 8.77129 18.5462 9.81064 18.8275 11.473C18.8334 11.508 18.8391 11.5434 18.8445 11.579C18.5825 9.85443 17.7033 8.79263 16.8481 7.75995ZM6.73814 11.6192C6.71516 11.549 6.69354 11.4783 6.67329 11.4072C6.52709 10.8942 6.45208 10.3592 6.45208 9.81284C6.45208 10.4349 6.54929 11.0422 6.73814 11.6192ZM7.66198 13.459C7.61009 12.9667 7.58429 12.4717 7.58429 11.9879C7.58429 6.87556 10.3419 2.44104 14.2385 1.11678C14.264 1.10812 14.2895 1.0996 14.3151 1.0912C10.378 2.38305 7.58429 6.84211 7.58429 11.9879C7.58429 12.4717 7.61009 12.9667 7.66198 13.459ZM5.6768 8.81737C5.64783 8.84919 5.61912 8.8812 5.59067 8.9134C4.22565 10.4586 3.46518 12.4412 3.46518 14.5421C3.46518 12.3974 4.25764 10.376 5.6768 8.81737ZM14.3315 16.084C14.6192 16.7805 14.9828 17.3362 15.3101 17.8361C15.7722 18.5421 16.1616 19.1371 16.1616 19.8606C16.1616 20.8142 15.863 21.6869 15.3725 22.3819C15.3984 22.3452 15.4238 22.308 15.4487 22.2703C15.8938 21.5945 16.1616 20.7638 16.1616 19.8606C16.1616 19.1371 15.7722 18.5421 15.3101 17.8361C14.9828 17.3362 14.6192 16.7805 14.3315 16.084ZM19.8828 11.4667C19.897 11.4372 19.9109 11.4076 19.9246 11.3778C19.6543 11.9684 19.2712 12.5057 18.7901 12.9636C19.247 12.5288 19.6155 12.0224 19.8828 11.4667ZM7.4188 13.9666C7.62767 13.8855 7.75697 13.6746 7.73316 13.4515C7.68153 12.9617 7.65586 12.4692 7.65586 11.9879C7.65586 6.91318 10.3845 2.52359 14.2259 1.19676C14.1098 1.94524 14.0513 2.69176 14.0513 3.42507C14.0513 5.83009 15.1176 7.1174 16.1361 8.34707L16.1374 8.3486C17.1028 9.51422 18 10.5994 18 12.6557C18 12.8544 18.1184 13.0344 18.3014 13.1126C18.4836 13.19 18.6952 13.153 18.8395 13.0154C19.2861 12.5904 19.6494 12.0978 19.9179 11.5578C20.277 12.5073 20.4638 13.5211 20.4638 14.5421C20.4643 17.9344 18.4575 20.8663 15.5688 22.2153C15.9852 21.5457 16.2332 20.7365 16.2332 19.8606C16.2332 19.22 15.9381 18.6803 15.567 18.1002C15.5031 18.0003 15.4369 17.8991 15.3692 17.7957L15.3691 17.7955C15.042 17.2957 14.6825 16.7464 14.3977 16.0568C14.1464 15.4481 13.8777 14.6993 13.6717 14.1019C13.5687 13.8034 13.4815 13.543 13.42 13.3572C13.3892 13.2643 13.3649 13.1901 13.3483 13.1391C13.3442 13.1266 13.3406 13.1155 13.3375 13.1058C13.3342 13.0958 13.3315 13.0874 13.3293 13.0807L13.3237 13.0633L13.3227 13.0591C13.3216 13.0546 13.32 13.0481 13.3178 13.0398C13.3135 13.0234 13.3072 13 13.2986 12.9721C13.2816 12.9166 13.2558 12.8418 13.2207 12.7664C13.1859 12.6916 13.1403 12.6124 13.0823 12.5509C13.0242 12.4893 12.9474 12.439 12.8521 12.4389C12.7662 12.4389 12.6988 12.4673 12.6467 12.517C12.5974 12.5641 12.5659 12.6265 12.5416 12.687C12.528 12.7207 12.5142 12.7608 12.5008 12.7996C12.4916 12.8263 12.4826 12.8524 12.474 12.8754C12.4509 12.9374 12.4255 12.994 12.391 13.0417C12.0585 13.5033 11.7411 13.8429 11.4314 14.1743C11.3802 14.229 11.3293 14.2835 11.2786 14.3382C10.9205 14.7247 10.5735 15.1233 10.2345 15.7082C9.38136 17.1804 8.82526 18.525 8.82526 19.8609C8.82526 20.9727 9.21881 21.9833 9.85819 22.729C6.22566 21.7775 3.53675 18.4687 3.53675 14.5421C3.53675 12.4948 4.26493 10.561 5.5746 9.0407C5.54482 9.29642 5.52986 9.55425 5.52986 9.81341C5.52986 11.2592 5.98275 12.6374 6.83937 13.7984C6.9721 13.9788 7.21008 14.047 7.4188 13.9666ZM14.6453 21.9769C14.2773 22.4609 13.7606 22.7568 13.1624 22.9242C12.8671 22.9649 12.5673 22.9897 12.2634 22.9993C10.9016 22.8446 9.81933 21.5045 9.81933 19.8609C9.81933 18.7644 10.3114 17.4742 11.1184 16.1618C11.6254 15.3374 12.0229 14.9159 12.6852 14.2522C13.0615 15.1364 13.2315 15.624 13.5303 16.4809L13.5736 16.605C14.0406 17.64 14.2806 17.88 14.6122 18.5171L14.6135 18.5189C14.9212 18.9261 15.1556 19.2381 15.2394 19.8656C15.2387 20.812 15.0136 21.4924 14.6453 21.9769ZM12.7094 14.1267C12.0005 14.8355 11.5877 15.262 11.0574 16.1243C11.574 15.2843 11.9791 14.858 12.6549 14.1812L12.7094 14.1267Z" fill="#0C353E"></path> </svg>