<svg width="24" height="24" viewBox="0 0 24 24" fill="none" xmlns="http://www.w3.org/2000/svg"> <path fill-rule="evenodd" clip-rule="evenodd" d="M4.90606 3.71065L4.52447 4.88507C4.26331 5.68886 3.51428 6.23306 2.66912 6.23306H1.43426L2.43328 6.9589C3.11703 7.45566 3.40313 8.33621 3.14197 9.13999L2.76037 10.3144L3.75939 9.58858C4.44314 9.09181 5.36899 9.09181 6.05273 9.58858L7.05175 10.3144L6.67016 9.13999C6.409 8.33621 6.6951 7.45566 7.37884 6.9589L8.37786 6.23306H7.14301C6.29786 6.23306 5.54882 5.68886 5.28766 4.88507L4.90606 3.71065ZM5.74941 2.86272C5.48396 2.04576 4.32817 2.04576 4.06272 2.86272L3.51246 4.55625C3.39375 4.92161 3.05328 5.16897 2.66912 5.16897H0.888442C0.0294349 5.16897 -0.327724 6.26819 0.367227 6.7731L1.80783 7.81976C2.11862 8.04557 2.24867 8.44581 2.12996 8.81117L1.5797 10.5047C1.31425 11.3217 2.2493 12.001 2.94425 11.4961L4.38485 10.4494C4.69564 10.2236 5.11649 10.2236 5.42728 10.4494L6.86788 11.4961C7.56283 12.001 8.49788 11.3217 8.23243 10.5047L7.68217 8.81117C7.56346 8.44581 7.69351 8.04557 8.0043 7.81976L9.4449 6.77311C10.1399 6.26819 9.78269 5.16897 8.92369 5.16897H7.14301C6.75885 5.16897 6.41838 4.92161 6.29967 4.55625L5.74941 2.86272ZM19.0939 3.71065L18.7123 4.88507C18.4512 5.68886 17.7021 6.23306 16.857 6.23306H15.6221L16.6212 6.9589C17.3049 7.45566 17.591 8.33621 17.3298 9.13999L16.9482 10.3144L17.9473 9.58858C18.631 9.09181 19.5569 9.09181 20.2406 9.58858L21.2396 10.3144L20.858 9.13999C20.5969 8.33621 20.883 7.45566 21.5667 6.9589L22.5657 6.23306H21.3309C20.4857 6.23306 19.7367 5.68886 19.4755 4.88507L19.0939 3.71065ZM19.9373 2.86272C19.6718 2.04576 18.516 2.04576 18.2506 2.86272L17.7003 4.55625C17.5816 4.92161 17.2412 5.16897 16.857 5.16897H15.0763C14.2173 5.16897 13.8601 6.26819 14.5551 6.7731L15.9957 7.81976C16.3065 8.04557 16.4365 8.44581 16.3178 8.81117L15.7676 10.5047C15.5021 11.3217 16.4372 12.001 17.1321 11.4961L18.5727 10.4494C18.8835 10.2236 19.3044 10.2236 19.6151 10.4494L21.0557 11.4961C21.7507 12.001 22.6857 11.3217 22.4203 10.5047L21.87 8.81117C21.7513 8.44581 21.8814 8.04557 22.1922 7.81976L23.6328 6.77311C24.3277 6.26819 23.9706 5.16897 23.1116 5.16897H21.3309C20.9467 5.16897 20.6062 4.92161 20.4875 4.55625L19.9373 2.86272ZM11.6184 15.526L12 14.3516L12.3816 15.526C12.6428 16.3298 13.3918 16.874 14.2369 16.874H15.4718L14.4728 17.5998C13.789 18.0966 13.5029 18.9771 13.7641 19.7809L14.1457 20.9553L13.1467 20.2295C12.4629 19.7327 11.5371 19.7327 10.8533 20.2295L9.85431 20.9553L10.2359 19.7809C10.4971 18.9771 10.211 18.0966 9.52722 17.5998L8.5282 16.874H9.76306C10.6082 16.874 11.3572 16.3298 11.6184 15.526ZM11.1567 13.5036C11.4221 12.6867 12.5779 12.6867 12.8433 13.5036L13.3936 15.1972C13.5123 15.5625 13.8528 15.8099 14.2369 15.8099H16.0176C16.8766 15.8099 17.2338 16.9091 16.5388 17.414L15.0982 18.4607C14.7874 18.6865 14.6574 19.0867 14.7761 19.4521L15.3264 21.1456C15.5918 21.9626 14.6568 22.6419 13.9618 22.137L12.5212 21.0903C12.2104 20.8645 11.7896 20.8645 11.4788 21.0903L10.0382 22.137C9.34323 22.6419 8.40818 21.9626 8.67363 21.1456L9.22389 19.4521C9.3426 19.0867 9.21255 18.6865 8.90176 18.4607L7.46116 17.414C6.76621 16.9091 7.12337 15.8099 7.98238 15.8099H9.76306C10.1472 15.8099 10.4877 15.5625 10.6064 15.1972L11.1567 13.5036Z" fill="#0C353E"></path> </svg>