<svg width="24" height="24" viewBox="0 0 24 24" fill="none" xmlns="http://www.w3.org/2000/svg"> <path d="M12.7587 0.0923119C12.5789 0.0923119 12.4108 0.180826 12.309 0.329051C12.0116 0.762165 5.02539 10.9964 5.02539 16.1726C5.02539 20.4367 8.49451 23.9058 12.7587 23.9058C17.0228 23.9058 20.4919 20.4367 20.4919 16.1726C20.4919 10.9964 13.5057 0.762165 13.2083 0.329051C13.1067 0.180898 12.9385 0.0923119 12.7587 0.0923119ZM12.7587 22.8149C9.09615 22.8149 6.11643 19.8351 6.11643 16.1726C6.11643 12.0555 11.1983 3.9979 12.7587 1.62105C14.3192 3.9979 19.401 12.0555 19.401 16.1726C19.401 19.8351 16.4212 22.8149 12.7587 22.8149Z" fill="#0C353E"></path> <path d="M12.2129 20.8154C12.2129 21.1166 12.457 21.3609 12.7584 21.3609C15.6189 21.3609 17.9461 19.0338 17.9461 16.1735C17.9461 15.8722 17.702 15.628 17.4007 15.628C17.0993 15.628 16.8552 15.8722 16.8552 16.1735C16.8552 18.4323 15.0173 20.2699 12.7584 20.2699C12.457 20.2699 12.2129 20.5141 12.2129 20.8154Z" fill="#0C353E"></path> </svg>