<svg width="24" height="24" viewBox="0 0 24 24" fill="none" xmlns="http://www.w3.org/2000/svg"> <path d="M11.9991 3.00181C6.21388 3.00181 1.5 7.71569 1.5 13.5009C1.5 19.2861 6.21388 24 11.9991 24C17.7843 24 22.4982 19.2861 22.4982 13.5009C22.4982 7.71569 17.7843 3.00181 11.9991 3.00181ZM11.9991 4.07315C17.2219 4.07315 21.4269 8.27814 21.4269 13.5009C21.4269 18.6969 17.2219 22.9287 11.9991 22.9287C6.77633 22.9287 2.57134 18.6969 2.57134 13.5009C2.57134 8.27814 6.77633 4.07315 11.9991 4.07315Z" fill="#0C353E"></path> <path d="M11.4635 0.859138V3.53748H12.5348V0.859138H11.4635Z" fill="#0C353E"></path> <path d="M11.9991 12.9385C11.8384 12.9653 11.7045 13.0188 11.6242 13.126C11.517 13.2063 11.4635 13.3402 11.4635 13.5009V18.4826C11.4635 18.6701 11.5706 18.8576 11.7313 18.938C11.892 19.0451 12.1063 19.0451 12.267 18.938C12.4277 18.8576 12.5348 18.6701 12.5348 18.4826V13.5009C12.5348 13.3402 12.4812 13.2063 12.3741 13.0992C12.267 13.0188 12.1331 12.9385 11.9991 12.9385Z" fill="#0C353E"></path> <path d="M15.481 9.40302C15.3471 9.40302 15.2132 9.45658 15.106 9.56372L11.6242 13.126C11.4903 13.2599 11.4367 13.4473 11.4635 13.6348C11.5171 13.8223 11.6778 13.983 11.8653 14.0098C12.0527 14.0633 12.2402 14.0098 12.3741 13.8758L15.8828 10.3137C16.0167 10.153 16.0703 9.93868 15.9899 9.72442C15.9096 9.51015 15.6953 9.40302 15.481 9.40302Z" fill="#0C353E"></path> <path fill-rule="evenodd" clip-rule="evenodd" d="M9.74242 0.539394C9.74242 0.241495 9.98391 0 10.2818 0H13.5667C13.8646 0 14.1061 0.241495 14.1061 0.539394C14.1061 0.837292 13.8646 1.07879 13.5667 1.07879H10.2818C9.98391 1.07879 9.74242 0.837292 9.74242 0.539394Z" fill="#0C353E"></path> <path fill-rule="evenodd" clip-rule="evenodd" d="M18.139 6.20337C17.9283 5.99273 17.9283 5.6512 18.139 5.44056L19.0072 4.57236C19.2178 4.36172 19.5593 4.36172 19.77 4.57236C19.9806 4.78301 19.9806 5.12454 19.77 5.33518L18.9018 6.20337C18.6911 6.41402 18.3496 6.41402 18.139 6.20337Z" fill="#0C353E"></path> </svg>