<svg width="24" height="23" viewBox="0 0 24 23" fill="none" xmlns="http://www.w3.org/2000/svg"> <path d="M21.9526 12.7268C23.2622 11.4127 23.9884 9.66807 23.9999 7.80871C24.0113 5.94934 23.3022 4.19327 22.0041 2.86761L21.9069 2.77005C20.5916 1.47883 18.8589 0.767217 17.0176 0.767217H16.9833C15.1305 0.778694 13.392 1.50178 12.0825 2.81596L12.0139 2.88483L11.9281 2.79875C9.20037 0.0670844 4.76852 0.0670844 2.04651 2.79875C-0.681217 5.53041 -0.681217 9.97797 2.04079 12.7096L11.6479 22.3508C11.7165 22.4197 11.8023 22.4656 11.8881 22.477C11.9338 22.4943 11.9853 22.5 12.0367 22.5C12.1626 22.5 12.2826 22.4426 12.3627 22.3565L14.5472 20.1643C15.4049 20.8472 16.4743 21.226 17.5723 21.226C18.716 21.226 19.8254 20.8185 20.7003 20.0782C21.6896 19.2404 22.2957 18.0639 22.4044 16.767C22.5073 15.5216 22.1413 14.2935 21.3636 13.3179L21.9526 12.7268ZM17.5951 20.3422C16.6459 20.3422 15.7309 19.9979 15.0161 19.3724C14.896 19.2691 14.7816 19.1543 14.673 19.0338C14.0211 18.3107 13.6608 17.3695 13.6608 16.3939C13.6608 14.2247 15.4221 12.4571 17.5837 12.4571H17.5894C18.5616 12.4571 19.4937 12.8187 20.2142 13.4672C20.3343 13.5762 20.443 13.691 20.5516 13.8057C21.8326 15.2806 21.8326 17.5073 20.5516 18.9821C19.8139 19.8487 18.7331 20.3422 17.5951 20.3422ZM14.5357 12.7728C13.5464 13.6106 12.9403 14.7871 12.8316 16.084C12.7287 17.3294 13.0947 18.5575 13.8724 19.533L12.0082 21.4039L2.69842 12.0611C1.55472 10.9134 0.919966 9.38687 0.925684 7.75706C0.925684 6.13298 1.55472 4.60646 2.70414 3.45871C3.84784 2.31095 5.39184 1.67968 7.00446 1.67968C8.5942 1.67968 10.1496 2.32817 11.2705 3.45871L11.6822 3.87764C11.8652 4.05554 12.1568 4.05554 12.3341 3.8719L12.7344 3.47592C13.8724 2.37408 15.3649 1.76577 16.9432 1.76577H16.9547C18.5387 1.7715 20.0369 2.37982 21.1692 3.49314C22.3301 4.62942 22.9763 6.14446 22.9991 7.76854C23.022 9.39261 22.4101 10.9249 21.2779 12.0898L20.6831 12.6867C18.8818 11.2462 16.297 11.2807 14.5357 12.7728Z" fill="#0C353E"></path> <path d="M17.2498 13.2821C17.2498 13.0119 17.4681 12.7928 17.7374 12.7928C18.0066 12.7928 18.2249 13.0119 18.2249 13.2821V19.454C18.2249 19.7242 18.0066 19.9433 17.7374 19.9433C17.4681 19.9433 17.2498 19.7242 17.2498 19.454V13.2821Z" fill="#0C353E"></path> <path d="M14.7402 16.8015C14.471 16.8023 14.252 16.584 14.2512 16.3138C14.2504 16.0436 14.4679 15.8239 14.7372 15.823L17.2497 15.8036L20.5123 15.805C20.7815 15.8042 21.0005 16.0226 21.0013 16.2927C21.0022 16.5629 20.7846 16.7827 20.5153 16.7835L14.7402 16.8015Z" fill="#0C353E"></path> </svg>