<svg width="32" height="32" viewBox="0 0 32 32" fill="none" xmlns="http://www.w3.org/2000/svg"> <path d="M18.6903 16.9021C22.5835 16.8071 26.1918 14.8764 28.4391 11.7112C30.7497 8.41939 31.2877 4.20969 29.8951 0.443126C29.8001 0.189911 29.5469 0 29.262 0L29.1987 0C25.2106 0 21.444 1.96241 19.1651 5.22255C16.9495 8.38774 16.3481 12.4708 17.6142 16.1741L15.9999 18.4847L14.3857 16.1424C15.6201 12.4708 15.0504 8.38774 12.8347 5.1909C10.5241 1.96241 6.78923 0 2.8011 0H2.7378C2.45293 0 2.19972 0.189911 2.10476 0.443126C0.712081 4.20969 1.25016 8.41939 3.56075 11.7112C5.77637 14.8764 9.41633 16.8388 13.3095 16.9337L15.3352 19.8457V25.2898C10.9673 25.4797 6.88419 27.5371 4.09883 30.9238C3.97222 31.0504 3.94057 31.2404 3.94057 31.3986C3.97222 31.5885 4.03552 31.7468 4.19378 31.8417C4.32039 31.9367 4.447 32 4.60526 32C4.63691 32 4.63691 32 4.66856 32C4.85847 31.9683 5.01673 31.905 5.11168 31.7468C7.77044 28.455 11.7269 26.5875 15.9683 26.5875C20.2096 26.5875 24.1661 28.4866 26.8248 31.7468C27.0464 32.0317 27.4895 32.0633 27.7427 31.8417C27.8694 31.7151 27.9643 31.5569 27.996 31.3986C28.0276 31.2087 27.9643 31.0504 27.8377 30.9238C25.084 27.5054 21.0009 25.4797 16.6013 25.2898V19.814L18.6903 16.9021ZM28.7873 1.32938C29.8318 4.55786 29.2937 8.16617 27.3313 10.9515C25.5588 13.5153 22.7734 15.1612 19.6715 15.5094L22.8051 11.0465L26.6666 10.3818C26.8565 10.3501 26.9831 10.2552 27.1097 10.0969C27.2047 9.93867 27.2363 9.78042 27.2047 9.5905C27.1414 9.24233 26.7932 8.98912 26.445 9.05242L23.9129 9.49555L28.3441 3.16518C28.5657 2.88032 28.4707 2.43719 28.1859 2.24728C28.0276 2.15232 27.8694 2.12067 27.6794 2.15232C27.4895 2.18398 27.3629 2.27893 27.2363 2.43719L22.8051 8.76756L22.3619 6.23541C22.3303 6.0455 22.2353 5.91889 22.0771 5.79228C21.9188 5.69733 21.7605 5.66568 21.5706 5.69733C21.3807 5.72898 21.2541 5.82394 21.1275 5.9822C21.0326 6.14046 21.0009 6.29871 21.0326 6.48863L21.6972 10.3501L18.5637 14.8131C17.8674 11.7112 18.4688 8.54599 20.2413 5.9822C22.2037 3.19683 25.3689 1.45598 28.7873 1.32938ZM10.9673 6.42532C10.9989 6.23541 10.9673 6.07715 10.8723 5.91889C10.7774 5.76063 10.6191 5.66568 10.4292 5.63403C10.2393 5.60237 10.081 5.63403 9.92276 5.72898C9.7645 5.82394 9.66955 5.9822 9.6379 6.17211L9.19477 8.70425L4.76351 2.37389C4.66856 2.27893 4.5103 2.15232 4.32039 2.15232C4.13048 2.12067 3.97222 2.15232 3.81396 2.24728C3.52909 2.46884 3.43414 2.88032 3.6557 3.16518L8.08696 9.49555L5.55481 9.05242C5.3649 9.02077 5.20664 9.05242 5.04838 9.14738C4.89012 9.24233 4.79517 9.40059 4.76351 9.5905C4.73186 9.78042 4.76351 9.93867 4.85847 10.0969C4.95343 10.2552 5.11169 10.3501 5.3016 10.3818L9.16312 11.0465L12.3283 15.5094C9.22642 15.1612 6.44106 13.4837 4.63691 10.9199C2.67449 8.16617 2.16806 4.55786 3.21258 1.32938C6.59932 1.45598 9.79616 3.19683 11.7586 5.9822C13.5627 8.54599 14.1641 11.7428 13.4361 14.7498L10.3026 10.2868L10.9673 6.42532Z" fill="#0C353E"></path> </svg>