<svg width="32" height="32" viewBox="0 0 32 32" fill="none" xmlns="http://www.w3.org/2000/svg"> <path d="M0.283758 23.0724C0.287979 23.2725 0.441847 23.4375 0.641378 23.4557C0.833618 23.4732 1.02164 23.4814 1.20697 23.4814C5.64154 23.481 7.9818 18.6342 8.72658 16.7408C13.3166 23.111 19.4817 23.4456 19.7648 23.4573C19.784 23.4573 19.8021 23.4573 19.8212 23.4573C24.752 23.4573 27.7142 21.4483 29.3323 19.7594C31.0982 17.9161 31.676 16.0819 31.6998 16.0048C31.7255 15.9208 31.7225 15.8304 31.691 15.7483C28.4548 7.33098 19.8032 8.31385 19.7495 8.32191C19.4809 8.33323 13.3166 8.66764 8.72658 15.0378C7.95072 13.065 5.43586 7.89311 0.641378 8.32306C0.441847 8.3411 0.287979 8.50629 0.283758 8.70639C0.279537 8.92031 0.213922 13.7165 2.83852 15.8893C0.213922 18.0621 0.279537 22.8585 0.283758 23.0724ZM30.9063 15.8991C30.564 16.8578 28.1719 22.5912 20.001 22.6682C15.7879 16.2052 19.3762 10.0364 19.9805 9.08799C21.1653 8.98801 28.0639 8.72443 30.9063 15.8991ZM18.9978 9.21035C17.9397 11.1258 15.5197 16.6833 19.0158 22.5744C17.2108 22.2655 12.5761 20.9956 9.08919 15.8893C12.5465 10.8272 17.1518 9.53423 18.9978 9.21035ZM3.7153 15.558C1.42876 14.1012 1.11641 10.2813 1.07536 9.08531C1.11219 9.08454 1.14865 9.08416 1.1851 9.08416C5.66878 9.08416 7.88625 14.9791 8.20128 15.8895C7.88664 16.8006 5.6753 22.6946 1.18625 22.6946C1.14941 22.6946 1.11219 22.6942 1.07497 22.6935C1.11488 21.498 1.42454 17.6801 3.7153 16.2206C3.82849 16.1485 3.89718 16.0236 3.89718 15.8893C3.89718 15.755 3.82849 15.6301 3.7153 15.558Z" fill="#0C353E"></path> <path fill-rule="evenodd" clip-rule="evenodd" d="M0.000913046 23.0784L0.000904915 23.078C-0.00140669 22.9608 -0.0188906 21.6846 0.29834 20.1579C0.594416 18.7329 1.19183 17.0412 2.4118 15.8893C1.19183 14.7374 0.594417 13.0457 0.29834 11.6208C-0.0188906 10.0941 -0.00140669 8.81798 0.000905177 8.70081L0.000912765 8.70043C0.00816831 8.35646 0.272674 8.07233 0.615911 8.04131C3.13395 7.8155 5.04243 9.06639 6.40211 10.5911C7.5684 11.899 8.35086 13.4281 8.7974 14.4668C13.3821 8.44212 19.3254 8.05863 19.7277 8.0397C19.9619 8.01365 22.1019 7.82041 24.6113 8.60559C27.2502 9.43128 30.2999 11.3416 31.9551 15.6468L31.9552 15.6471C32.0093 15.7882 32.0145 15.9433 31.9704 16.0876L31.9702 16.0882C31.9392 16.1885 31.3442 18.0682 29.5366 19.9551C27.8727 21.6919 24.8393 23.7402 19.8212 23.7402H19.759L19.7532 23.7399C19.4387 23.7269 13.4254 23.3933 8.79747 17.3118C8.3721 18.3023 7.64256 19.739 6.56591 21.0043C5.30381 22.4876 3.53836 23.7641 1.20699 23.7643C1.01322 23.7643 0.816633 23.7557 0.61579 23.7375C0.272996 23.7062 0.00817315 23.4226 0.000913046 23.0784ZM8.60135 17.0495C8.64721 16.9397 8.68894 16.8365 8.72658 16.7408C8.79201 16.8316 8.85776 16.9211 8.92381 17.0095C13.4911 23.1204 19.4857 23.4457 19.7648 23.4573H19.8212C24.752 23.4573 27.7142 21.4483 29.3323 19.7594C31.0982 17.9161 31.676 16.0819 31.6998 16.0048C31.7255 15.9208 31.7225 15.8304 31.691 15.7483C28.4548 7.33098 19.8032 8.31385 19.7495 8.32191C19.4847 8.33307 13.4911 8.65817 8.9238 14.7691C8.85776 14.8575 8.79201 14.947 8.72658 15.0378C8.68894 14.9421 8.64721 14.8389 8.60132 14.7291C7.70134 12.5763 5.20326 7.91397 0.641378 8.32306C0.441847 8.3411 0.287979 8.50629 0.283758 8.70639C0.279655 8.9143 0.21756 13.4507 2.62366 15.7002C2.6932 15.7652 2.76479 15.8283 2.83852 15.8893C2.76479 15.9503 2.6932 16.0134 2.62366 16.0784C0.21756 18.3279 0.279655 22.8645 0.283758 23.0724C0.287979 23.2725 0.441847 23.4375 0.641378 23.4557C0.833618 23.4732 1.02164 23.4814 1.20697 23.4814C5.41738 23.4811 7.73986 19.1118 8.60135 17.0495ZM3.86734 15.3194C4.06186 15.4433 4.18009 15.6581 4.18009 15.8893C4.18009 16.1205 4.06186 16.3352 3.86734 16.4592C2.80908 17.1334 2.18496 18.3714 1.82302 19.634C1.51563 20.7063 1.40812 21.7586 1.37112 22.4082C3.38922 22.3301 4.93015 20.9817 6.03029 19.4674C7.09221 18.0058 7.70433 16.4411 7.90137 15.8896C7.70401 15.3384 7.09039 13.7736 6.02761 12.3118C4.92685 10.7978 3.38637 9.4496 1.37177 9.37071C1.40934 10.0206 1.51759 11.0734 1.82521 12.1459C2.18749 13.4088 2.81126 14.6465 3.86734 15.3194ZM1.08825 9.36801C1.0823 9.26243 1.07818 9.16765 1.07536 9.08531C1.11219 9.08454 1.14865 9.08416 1.1851 9.08416C1.24328 9.08416 1.30108 9.08515 1.3585 9.08711C5.72601 9.23631 7.89034 14.9909 8.20128 15.8895C7.89068 16.7889 5.73179 22.544 1.3581 22.6917C1.30119 22.6937 1.24391 22.6946 1.18625 22.6946C1.14941 22.6946 1.11219 22.6942 1.07497 22.6935C1.07772 22.6111 1.08175 22.5164 1.08762 22.4108C1.16693 20.9833 1.58231 17.5796 3.7153 16.2206C3.82849 16.1485 3.89718 16.0236 3.89718 15.8893C3.89718 15.755 3.82849 15.6301 3.7153 15.558C1.58617 14.2015 1.16878 10.7961 1.08825 9.36801ZM30.6032 15.9033C30.1662 17.0534 27.7759 22.2419 20.1539 22.3831C16.3155 16.3451 19.3889 10.5964 20.1446 9.35948C20.8537 9.31352 22.7028 9.28857 24.7242 10.0311C26.867 10.8182 29.2105 12.4692 30.6032 15.9033ZM19.9805 9.08799C19.3762 10.0364 15.7879 16.2052 20.001 22.6682C28.1719 22.5912 30.564 16.8578 30.9063 15.8991C28.0639 8.72443 21.1653 8.98801 19.9805 9.08799ZM18.9978 9.21035C18.8878 9.22966 18.7679 9.25243 18.639 9.27923C16.6066 9.70184 12.3403 11.1291 9.08919 15.8893C12.3598 20.6788 16.6402 22.0932 18.6481 22.5052C18.781 22.5324 18.9038 22.5553 19.0158 22.5744C18.9522 22.4672 18.8905 22.3601 18.8307 22.2531C15.774 16.7806 17.7307 11.6495 18.8271 9.52983C18.8869 9.41424 18.9441 9.3076 18.9978 9.21035ZM18.4718 9.60516C17.3591 11.8446 15.6009 16.8333 18.4663 22.1765C16.4423 21.7184 12.5086 20.291 9.43304 15.8893C12.4986 11.5033 16.4319 10.0694 18.4718 9.60516Z" fill="#0C353E"></path> <path d="M22.3555 14.7914C22.5727 14.7914 22.7484 14.6154 22.7484 14.3985C22.7484 13.6518 23.3528 13.0443 24.0953 13.0443C24.8381 13.0443 25.4425 13.6518 25.4425 14.3985C25.4425 14.6154 25.6182 14.7914 25.8354 14.7914C26.0526 14.7914 26.2283 14.6154 26.2283 14.3985C26.2283 13.2185 25.2713 12.2585 24.0953 12.2585C22.9192 12.2585 21.9626 13.2185 21.9626 14.3985C21.9626 14.6154 22.1383 14.7914 22.3555 14.7914Z" fill="#0C353E"></path> <path fill-rule="evenodd" clip-rule="evenodd" d="M23.0313 14.3985C23.0313 14.7716 22.729 15.0743 22.3555 15.0743C21.982 15.0743 21.6797 14.7716 21.6797 14.3985C21.6797 13.0632 22.762 11.9756 24.0953 11.9756C25.4285 11.9756 26.5112 13.0632 26.5112 14.3985C26.5112 14.7716 26.2089 15.0743 25.8354 15.0743C25.4619 15.0743 25.1596 14.7716 25.1596 14.3985C25.1596 13.8066 24.6805 13.3272 24.0953 13.3272C23.5104 13.3272 23.0313 13.8066 23.0313 14.3985ZM22.7484 14.3985C22.7484 14.6154 22.5727 14.7914 22.3555 14.7914C22.1383 14.7914 21.9626 14.6154 21.9626 14.3985C21.9626 13.2185 22.9192 12.2585 24.0953 12.2585C25.2713 12.2585 26.2283 13.2185 26.2283 14.3985C26.2283 14.6154 26.0526 14.7914 25.8354 14.7914C25.6182 14.7914 25.4425 14.6154 25.4425 14.3985C25.4425 13.6518 24.8381 13.0443 24.0953 13.0443C23.3528 13.0443 22.7484 13.6518 22.7484 14.3985Z" fill="#0C353E"></path> </svg>