<svg width="24" height="24" viewBox="0 0 24 24" fill="none" xmlns="http://www.w3.org/2000/svg"> <g clip-path="url(#clip0)"> <path d="M4.20281 7.05743L7.01167 9.26257C7.30688 9.49433 7.75528 9.74978 8.00992 9.47406C8.29159 9.16907 7.89713 8.71601 7.56637 8.4651L6.91674 7.97228L9.54512 6.40396C9.74236 6.28277 9.9705 6.20673 10.1986 6.18535C10.4292 6.16158 10.6668 6.1901 10.8783 6.26614L12.6868 7.00515L12.3111 7.35703C12.0188 7.63089 11.679 8.08681 11.9596 8.37267C12.2337 8.65187 12.6884 8.34467 12.9725 8.07557L15.4792 5.70059C15.6503 5.53901 15.876 5.44634 16.1113 5.43921C16.3466 5.4297 16.5771 5.51287 16.7601 5.66733L18.5543 7.1097L17.3733 8.48411C17.1231 8.77533 16.8411 9.22804 17.1189 9.49307C17.414 9.77457 17.8702 9.41033 18.1368 9.10165L19.8566 7.1097L22.6271 9.30993C22.9209 9.54323 23.3688 9.79955 23.6233 9.52396C23.9055 9.2184 23.5139 8.76281 23.1876 8.50489L21.0377 6.80554C20.6314 4.90218 19.5857 3.17941 18.0862 1.94851C16.5605 0.691485 14.6331 0 12.663 0H12.6607C10.6906 0 8.76563 0.689109 7.24232 1.93901C5.94238 3.00356 4.98467 4.43644 4.48561 6.03564C4.31212 5.91445 4.0626 5.91683 3.89862 6.0499L0.832738 8.45667C0.505674 8.71343 0.113589 9.1686 0.395698 9.47406C0.650338 9.74978 1.09873 9.49433 1.39394 9.26257L4.20281 7.05743ZM13.4663 6.26376L11.2324 5.35129C10.8759 5.22297 10.491 5.17307 10.1131 5.20871C9.73524 5.24436 9.3645 5.36792 9.0413 5.56277L6.09686 7.31881L5.36015 6.7295C5.75702 5.16832 6.6482 3.76396 7.89584 2.74218C9.23855 1.64198 10.9306 1.03842 12.6607 1.03842H12.663C14.3955 1.03842 16.0899 1.64673 17.4303 2.74693C18.464 3.59525 19.2506 4.70733 19.714 5.95247C19.6047 5.97148 19.5025 6.02614 19.4289 6.11168L19.2007 6.37069L17.3803 4.90931C17.0167 4.60515 16.5557 4.44594 16.0804 4.4602C15.6051 4.47446 15.1536 4.66218 14.809 4.9901L13.4663 6.26376Z" fill="#0C353E"></path> <path d="M23.9867 18.1995L22.5014 11.8882C22.4753 11.7813 22.4158 11.6838 22.3279 11.6173C22.2424 11.5484 22.133 11.5104 22.019 11.5104C21.9073 11.5104 21.8003 11.5508 21.7124 11.6221C21.6269 11.6933 21.5674 11.7908 21.5437 11.893L20.6501 15.3242L20.056 13.3448C20.0251 13.245 19.9633 13.1547 19.8801 13.093C19.7114 12.967 19.4619 12.967 19.2955 13.093C19.21 13.1571 19.1482 13.2427 19.1197 13.3448L18.6776 14.8229L18.4709 14.1337C18.44 14.0339 18.3782 13.9436 18.295 13.8819C18.1263 13.7559 17.8768 13.7583 17.7104 13.8819C17.6249 13.946 17.5631 14.0316 17.5346 14.1337L16.4176 17.8454C16.3962 17.9191 16.3915 17.9951 16.4034 18.0712C16.4176 18.1472 16.4485 18.2185 16.4937 18.2779C16.5388 18.3397 16.5982 18.3896 16.6672 18.4229C16.7361 18.4561 16.8121 18.4751 16.8882 18.4751H17.5821L16.8929 20.7706C16.8715 20.8442 16.8668 20.9227 16.8787 20.9963C16.881 21.0058 16.8834 21.013 16.8858 21.0225C14.476 19.4304 12.8624 17.3607 12.8624 16.0823C12.8482 15.5238 13.169 14.5591 13.4138 14.091C13.7227 13.6561 14.1719 13.3496 14.6923 13.2236C14.7651 13.2062 14.8377 13.1864 14.9033 13.1503C15.0441 13.073 15.2725 12.8967 15.1949 12.5936C15.1206 12.3033 14.8915 12.2407 14.7513 12.2305C14.6755 12.225 14.6006 12.2413 14.5266 12.2584L14.5141 12.2613C13.7536 12.4324 13.0906 12.872 12.6343 13.5017L12.6224 13.5159C12.5915 13.5539 12.5582 13.6015 12.5273 13.649L12.5083 13.6775H12.5107C12.1637 14.2526 11.8691 15.4549 11.8833 16.0846C11.8833 18.4062 15.17 21.7401 18.8369 23.1801L18.8345 23.1872L18.9462 23.2252C18.9676 23.2324 18.989 23.2395 19.0104 23.2466C19.0246 23.2514 19.0389 23.2585 19.0531 23.2632L19.1815 23.3108L19.1838 23.3036C20.5836 23.7623 21.8003 23.9975 23.2737 23.9975H23.3926C23.3926 23.9975 23.8821 23.9975 23.8679 23.508C23.8536 23.0185 23.3926 23.0185 23.3926 23.0185H23.2737C21.8241 23.0185 20.6335 22.7785 19.267 22.3009C18.6444 22.0371 18.0503 21.733 17.4894 21.4003H21.817C21.893 21.4003 21.9691 21.3813 22.038 21.348C22.1069 21.3147 22.1663 21.2625 22.2115 21.2031C22.2566 21.1413 22.2875 21.07 22.3018 20.9963C22.316 20.9227 22.3113 20.8442 22.2875 20.7706L21.6958 18.803H23.509C23.5827 18.803 23.6564 18.7864 23.7229 18.7531C23.7894 18.7223 23.8489 18.6747 23.894 18.6153C23.9392 18.5583 23.9724 18.4894 23.9891 18.4181C24.0033 18.3468 24.0033 18.2708 23.9867 18.1995ZM17.8744 17.4961H17.5441L18.0004 15.9801L18.1643 16.529L17.8744 17.4961ZM22.8911 17.8217H21.4035L21.1991 17.1373L22.0332 14.167L22.8911 17.8217ZM19.5902 15.1912L20.1796 17.1516L20.1653 17.211L20.1986 17.2181L21.1587 20.4213H20.0322H18.0217L19.5902 15.1912Z" fill="#0C353E"></path> <path d="M7.12152 22.1395C7.13815 22.1419 7.15716 22.1419 7.1738 22.1419C7.2546 22.149 7.34015 22.1205 7.41382 22.0801C7.48749 22.0397 7.54928 21.9803 7.59444 21.909C7.63959 21.8377 7.66335 21.7569 7.66811 21.6737C7.67286 21.5906 7.65385 21.5074 7.61582 21.4314L6.48462 19.1716H9.02983C9.1035 19.1716 9.17954 19.1549 9.24608 19.1217C9.31263 19.0884 9.37204 19.0409 9.41719 18.9838C9.46234 18.9244 9.49561 18.8555 9.50987 18.7842C9.52413 18.713 9.52413 18.6369 9.50512 18.5633L8.79931 15.7427C9.04884 15.1296 9.48848 14.6068 10.0565 14.2646C10.1275 14.222 10.1937 14.1714 10.243 14.1048C10.349 13.9619 10.5045 13.6839 10.3367 13.4472C10.1915 13.2423 9.88492 13.3 9.7218 13.3495C9.64909 13.3716 9.58189 13.4077 9.517 13.4472C9.11063 13.6991 8.75415 14.0199 8.46185 14.393L7.64909 11.1399C7.63721 11.0924 7.61582 11.0472 7.58968 11.0068H23.0643C23.2137 11.0068 23.3678 11.0035 23.4998 10.9337C23.6268 10.8665 23.764 10.7419 23.764 10.5173C23.7639 10.2928 23.6268 10.1683 23.4999 10.1011C23.3678 10.0311 23.2136 10.0278 23.0642 10.0278H4.85674L5.56968 10.5316L4.21984 8.73276C4.17231 8.67573 4.1129 8.6282 4.04636 8.59731C3.91328 8.53315 3.75168 8.53315 3.61622 8.59731C3.54968 8.6282 3.49027 8.67573 3.44036 8.73751L1.21123 11.7054C1.14944 11.7886 1.11617 11.8884 1.11617 11.993C1.11617 12.0951 1.14944 12.1973 1.20885 12.2805C1.27064 12.3636 1.35382 12.4254 1.45363 12.4587C1.54869 12.4896 1.65088 12.492 1.74831 12.4611L1.1637 13.6302C1.11855 13.7181 1.10191 13.8155 1.11379 13.9106C1.12568 14.008 1.16608 14.0983 1.23024 14.172C1.29441 14.2456 1.37758 14.2979 1.47264 14.324C1.53443 14.3407 1.59859 14.3454 1.66276 14.3383L0.807229 15.8353C0.757323 15.9209 0.733558 16.0207 0.743064 16.1205C0.75257 16.2203 0.788217 16.313 0.852381 16.3914C0.916546 16.4698 0.999723 16.5244 1.09716 16.553C1.18984 16.5791 1.28965 16.5791 1.37996 16.5506L0.424616 18.4634C0.386593 18.5371 0.369957 18.6227 0.372334 18.7058C0.377087 18.789 0.400852 18.8698 0.446005 18.9411C0.491158 19.0124 0.552946 19.0718 0.62424 19.1122C0.697911 19.1526 0.778711 19.1739 0.861887 19.1739H1.18271L0.0515101 21.4337C0.01111 21.5122 -0.0055253 21.6001 0.00160412 21.688C0.00873354 21.7759 0.0372512 21.8615 0.0895336 21.9328C0.13944 22.004 0.208357 22.0611 0.289157 22.0991C0.353322 22.1276 0.42224 22.1419 0.491158 22.1419C0.510169 22.1419 0.526805 22.1419 0.545816 22.1395L2.60147 21.9114V23.5106C2.60147 23.6413 2.65137 23.7648 2.74405 23.8575C2.83674 23.9502 2.96031 24.0001 3.09102 24.0001H4.57631C4.70702 24.0001 4.8306 23.9502 4.92328 23.8575C5.01596 23.7648 5.06587 23.6413 5.06587 23.5106V21.9114L7.12152 22.1395ZM3.5782 23.0187V21.7997L3.8301 21.7712L4.08201 21.7997V23.0187H3.5782ZM2.39234 18.4231C2.34718 18.3518 2.28539 18.2924 2.2141 18.2543C2.14043 18.2139 2.05725 18.1949 1.97408 18.1926H1.65325L2.78445 15.9351C2.82961 15.8472 2.84624 15.7498 2.83436 15.6524C2.82248 15.5549 2.78208 15.4646 2.71791 15.391C2.65375 15.3173 2.57057 15.265 2.47551 15.2389C2.41372 15.2223 2.34956 15.2175 2.28777 15.2246L3.1433 13.7276C3.19321 13.6421 3.2146 13.5423 3.20747 13.4425C3.20034 13.3427 3.16231 13.2476 3.09815 13.1716C3.03398 13.0932 2.95081 13.0385 2.85575 13.01C2.76307 12.9838 2.66563 12.9838 2.57295 13.0124L3.15994 11.8433C3.20271 11.7577 3.21935 11.6627 3.20984 11.5652C3.19796 11.4702 3.15994 11.3799 3.09815 11.3062C3.03636 11.2326 2.95556 11.1803 2.86288 11.1518C2.85812 11.1518 2.85575 11.1494 2.851 11.1494L3.83248 9.84009L4.81634 11.1494C4.81159 11.1494 4.80921 11.1518 4.80446 11.1518C4.71415 11.1803 4.63335 11.2326 4.57156 11.3062C4.50977 11.3799 4.47175 11.4678 4.45987 11.5629C4.44799 11.6579 4.46462 11.753 4.5074 11.8385L5.09201 13.0076C4.99933 12.9791 4.90189 12.9767 4.80921 13.0052C4.71415 13.0337 4.6286 13.0884 4.56681 13.1644C4.50264 13.2405 4.46462 13.3355 4.45749 13.433C4.44799 13.5328 4.47175 13.6302 4.51928 13.7181L5.37481 15.2151C5.31065 15.2056 5.24886 15.2128 5.18707 15.2294C5.09201 15.2555 5.00883 15.3078 4.94467 15.3815C4.8805 15.4551 4.8401 15.5454 4.82822 15.6429C4.81634 15.7403 4.83297 15.8377 4.87813 15.9233L6.00933 18.1854H5.6885C5.61008 18.1831 5.52215 18.2068 5.44848 18.2472C5.37481 18.2876 5.31302 18.347 5.27025 18.4183C5.22509 18.4896 5.20133 18.5704 5.19657 18.6559C5.1942 18.7391 5.21083 18.8223 5.24886 18.8983L6.33253 21.0631L3.88476 20.7898C3.86813 20.7874 3.85149 20.7874 3.83486 20.7874C3.81822 20.7874 3.80158 20.7874 3.77782 20.7874L1.33005 21.0631L2.41372 18.9007C2.45175 18.8246 2.46838 18.7415 2.46601 18.6583C2.46363 18.5751 2.43749 18.4943 2.39234 18.4231ZM7.7798 15.707L8.40006 18.1926H7.10488L6.28262 16.5506C6.37531 16.5791 6.47274 16.5815 6.56542 16.553C6.66048 16.5244 6.74603 16.4698 6.80782 16.3937C6.87199 16.3177 6.91001 16.2227 6.91714 16.1252C6.92665 16.0254 6.90288 15.928 6.85535 15.8401L6.63196 15.4456L7.1738 13.2785L7.77742 15.6951L7.77267 15.707H7.7798ZM6.21608 13.067L5.91427 12.4658C6.0117 12.4967 6.11389 12.4967 6.21133 12.4635C6.28262 12.4397 6.34441 12.3969 6.39669 12.3446L6.21608 13.067ZM6.69851 11.1375L6.52265 11.8385C6.50601 11.791 6.48225 11.7458 6.45135 11.7031L5.92615 11.0044H6.75554C6.73178 11.0472 6.71039 11.09 6.69851 11.1375Z" fill="#0C353E"></path> <path d="M9.69469 20.8895C9.24078 20.5568 8.87718 20.1101 8.64429 19.5968L8.3166 18.8912L7.36601 19.01L7.74836 19.9984C8.05017 20.6637 8.51834 21.2435 9.1077 21.676C9.37149 21.8732 9.49982 22.1014 9.44278 22.2725C9.3501 22.5505 8.68944 23.021 6.80252 23.021H6.76843C6.71195 23.021 6.65533 23.0217 6.60015 23.0337C6.45772 23.0647 6.18536 23.1688 6.2084 23.5105C6.23028 23.8349 6.45687 23.9451 6.58913 23.982C6.65112 23.9992 6.7159 24 6.78026 24H6.80252C9.49507 24 10.1961 23.1113 10.372 22.5814C10.5692 21.9873 10.3173 21.3552 9.69469 20.8895Z" fill="#0C353E"></path> </g> <defs> <clipPath id="clip0"> <rect width="24" height="24" fill="white"></rect> </clipPath> </defs> </svg>