<svg width="32" height="32" viewBox="0 0 32 32" fill="none" xmlns="http://www.w3.org/2000/svg"> <path d="M6.12738 28.7653C4.73755 28.6074 3.56883 28.4179 2.74756 28.1968C2.08423 28.0073 1.6736 27.7861 1.51566 27.6914C1.51566 27.5334 1.48408 27.0281 1.6736 26.3647C1.89471 25.5435 2.27376 24.4379 2.81074 23.1428C3.85311 20.679 5.43247 17.5203 7.26452 14.2984C7.86468 13.2561 8.49642 12.1821 9.22292 10.9818L9.31768 10.8239L8.08578 10.0342L7.99102 10.2237C7.20135 11.4872 6.5696 12.5612 6.00104 13.6035C4.1374 16.8254 2.52645 20.0473 1.45249 22.5427C0.883922 23.9009 0.47329 25.0697 0.25218 25.9857C-0.000517094 26.9965 -0.158453 27.723 0.25218 28.4179C0.662812 29.1128 1.35773 29.3339 2.36852 29.5866C3.28454 29.8393 4.48485 30.0288 5.96945 30.1868C8.24372 30.4395 11.1813 30.5658 14.4348 30.5974H14.6559V29.1444H14.4664C11.2445 29.1444 8.37007 28.9865 6.12738 28.7653Z" fill="#0C353E"></path> <path d="M9.76025 10.0967C9.94978 9.81242 10.1077 9.52813 10.2972 9.27544L10.4552 9.05433L9.22327 8.26465L9.06534 8.48576C8.87581 8.77004 8.71788 9.02274 8.52835 9.33861L8.43359 9.49655L9.66549 10.2862L9.76025 10.0967Z" fill="#0C353E"></path> <path d="M28.807 22.258C28.9018 22.4791 28.9966 22.7002 29.0913 22.8897L29.1861 23.1108L30.418 22.3211L30.3548 22.1632C30.26 21.9105 30.1337 21.6578 30.0074 21.4051L29.8178 20.9629L28.5859 21.7842L28.807 22.258Z" fill="#0C353E"></path> <path d="M24.511 14.1402C25.9009 16.5093 27.1959 18.8783 28.2067 20.9631L28.3015 21.1842L29.5334 20.3945L29.4386 20.2366C28.4278 18.1518 27.1643 15.8144 25.7429 13.4453C23.8477 10.1919 21.8577 7.22266 20.2152 5.01156C19.3307 3.84284 18.5095 2.89523 17.8461 2.2319C17.1196 1.47381 16.5827 1 15.793 1C15.0033 1 14.4347 1.53698 13.7082 2.2319C13.0449 2.89523 12.2868 3.81125 11.4024 5.04315C10.9286 5.70648 10.36 6.52775 9.69666 7.50695L9.57031 7.66488L10.8022 8.45456L10.9286 8.29662C11.5919 7.31742 12.0973 6.52775 12.5711 5.896C13.3924 4.75887 14.1504 3.87443 14.7506 3.24269C15.2244 2.76888 15.6666 2.51618 15.8246 2.45301C15.9825 2.51618 16.3931 2.76888 16.8985 3.24269C17.4987 3.84284 18.2884 4.72728 19.1096 5.83283C20.7206 8.01234 22.6474 10.9499 24.511 14.1402Z" fill="#0C353E"></path> <path d="M16.2999 29.1445L16.2683 29.3025L16.2999 29.1445C16.2051 29.1445 16.1103 29.1445 16.0156 29.1445C15.8892 29.1445 15.7629 29.1445 15.6681 29.1445H15.2891V30.5975H15.4786H15.7629H16.0472C16.1103 30.5975 16.1735 30.5975 16.2367 30.5975H16.2683C16.363 30.5975 16.4578 30.5975 16.521 30.5975H16.7421V29.1445H16.521C16.4578 29.1445 16.363 29.1445 16.2999 29.1445Z" fill="#0C353E"></path> <path d="M31.712 25.7325C31.5225 25.0692 31.2382 24.2163 30.7644 23.1108L30.6696 22.8896L29.4377 23.7109L29.5009 23.8688C29.8799 24.848 30.1642 25.5746 30.2906 26.1115C30.4801 26.7749 30.4801 27.2487 30.4485 27.4382C30.3222 27.533 29.8799 27.7857 29.2482 27.9752C28.4269 28.1963 27.2582 28.4174 25.8684 28.6069C23.6257 28.8912 20.7513 29.0807 17.5294 29.1439H17.3398V30.5969H17.561C20.846 30.5337 23.7836 30.3442 26.0895 30.0599C27.5741 29.8704 28.7744 29.6493 29.6588 29.3966C30.6696 29.1123 31.3645 28.8596 31.7752 28.1647C32.1542 27.4698 31.9963 26.7749 31.712 25.7325Z" fill="#0C353E"></path> <path d="M21.3043 14.8074C21.1961 14.7348 21.0579 14.7206 20.9363 14.7687C20.9094 14.7798 18.3074 15.8095 16.12 14.7782C14.2422 13.8914 12.174 14.306 11.213 14.5863V14.3455C11.213 14.1275 11.0361 13.9506 10.8181 13.9506C10.6002 13.9506 10.4233 14.1275 10.4233 14.3455V26.1906C10.4233 26.4086 10.6002 26.5855 10.8181 26.5855C11.0361 26.5855 11.213 26.4086 11.213 26.1906V21.7313C11.9126 21.5031 13.9863 20.9606 15.7828 21.8095C16.6365 22.213 17.5296 22.3473 18.3406 22.3473C19.9002 22.3473 21.1542 21.8506 21.2324 21.819C21.3809 21.7582 21.4788 21.6137 21.4788 21.4526V15.1352C21.4788 15.0041 21.4132 14.8817 21.3043 14.8074ZM20.6891 21.173C19.9855 21.4013 17.9126 21.9414 16.1192 21.0949C14.2422 20.2088 12.174 20.6234 11.213 20.9038V15.4147C11.9126 15.1865 13.9863 14.644 15.7828 15.4929C17.6583 16.3781 19.7281 15.9643 20.6891 15.6832V21.173Z" fill="#0C353E"></path> <path fill-rule="evenodd" clip-rule="evenodd" d="M21.4804 14.5452L21.4821 14.5464C21.676 14.6785 21.7947 14.8979 21.7947 15.1352V21.4526C21.7947 21.7429 21.6183 22.0023 21.3521 22.1113L21.3507 22.1119C21.2576 22.1495 19.9596 22.6632 18.3406 22.6632C17.496 22.6632 16.5541 22.5235 15.6479 22.0951C14.1216 21.3739 12.3551 21.7259 11.5288 21.9647V26.1906C11.5288 26.5831 11.2105 26.9014 10.8181 26.9014C10.4257 26.9014 10.1074 26.5831 10.1074 26.1906V14.3455C10.1074 13.9531 10.4257 13.6348 10.8181 13.6348C11.1536 13.6348 11.4349 13.8674 11.5095 14.1801C12.6024 13.9133 14.4981 13.663 16.2547 14.4925M11.5288 14.5007C11.4136 14.5296 11.3079 14.5586 11.213 14.5863V14.3455C11.213 14.3163 11.2098 14.2878 11.2038 14.2604C11.1648 14.0833 11.0069 13.9506 10.8181 13.9506C10.6002 13.9506 10.4233 14.1275 10.4233 14.3455V26.1906C10.4233 26.4086 10.6002 26.5855 10.8181 26.5855C11.0361 26.5855 11.213 26.4086 11.213 26.1906V21.7313C11.9126 21.5031 13.9863 20.9606 15.7828 21.8095C16.6365 22.213 17.5296 22.3473 18.3406 22.3473C19.9002 22.3473 21.1542 21.8506 21.2324 21.819C21.3809 21.7582 21.4788 21.6137 21.4788 21.4526V15.1352C21.4788 15.0041 21.4132 14.8817 21.3043 14.8074C21.1961 14.7348 21.0579 14.7206 20.9363 14.7687C20.9094 14.7798 18.3074 15.8095 16.12 14.7782C14.4276 13.979 12.5806 14.2368 11.5288 14.5007ZM16.2547 14.4925C17.2703 14.9713 18.3977 14.9772 19.2945 14.8516C20.1731 14.7285 20.7976 14.4839 20.8156 14.4768L20.816 14.4767L20.8199 14.475C21.0369 14.3891 21.2847 14.4138 21.4804 14.5452M15.6479 15.7785C14.1216 15.0573 12.3551 15.4092 11.5288 15.6481V20.4928C12.6247 20.2278 14.5084 19.9852 16.2541 20.8092L16.1192 21.0949C14.4276 20.2963 12.5806 20.5542 11.5288 20.8182C11.4136 20.8471 11.3079 20.8761 11.213 20.9038V15.4147C11.9126 15.1865 13.9863 14.644 15.7828 15.4929C17.4731 16.2907 19.3212 16.0334 20.3732 15.769C20.4885 15.74 20.5942 15.711 20.6891 15.6832V21.173C19.9855 21.4013 17.9126 21.9414 16.1192 21.0949L16.2541 20.8092C17.7779 21.5285 19.5441 21.178 20.3732 20.9393V16.0943C19.2769 16.3598 17.3921 16.6017 15.6479 15.7785Z" fill="#0C353E"></path> </svg>