<svg width="16" height="16" viewBox="0 0 16 16" fill="none" xmlns="http://www.w3.org/2000/svg">
<path fill-rule="evenodd" clip-rule="evenodd" d="M11.684 7.76C12.7926 6.99429 13.5698 5.73714 13.5698 4.57143C13.5698 1.98857 11.5698 0 8.99833 0H1.85547V16H9.90118C12.2898 16 14.1412 14.0571 14.1412 11.6686C14.1412 9.93143 13.1583 8.44571 11.684 7.76ZM5.28404 2.85714H8.71261C9.66118 2.85714 10.4269 3.62286 10.4269 4.57143C10.4269 5.52 9.66118 6.28571 8.71261 6.28571H5.28404V2.85714ZM9.28404 13.1429H5.28404V9.71429H9.28404C10.2326 9.71429 10.9983 10.48 10.9983 11.4286C10.9983 12.3771 10.2326 13.1429 9.28404 13.1429Z" fill="#050505"></path>
</svg>