<svg width="24" height="24" viewBox="0 0 24 24" fill="none" xmlns="http://www.w3.org/2000/svg">
<g clip-path="url(#clip0)">
<path d="M9.09103 18.9694L7.93446 20.9728C7.56993 21.6049 6.98092 22.0569 6.27657 22.245C5.57188 22.4339 4.83617 22.3369 4.20433 21.9722L3.85956 21.773C2.55557 21.0202 2.107 19.3468 2.85994 18.043L8.03828 9.07365C8.7913 7.76957 10.4645 7.32187 11.7684 8.07424L12.1132 8.27347C12.745 8.63812 13.1967 9.22704 13.3857 9.93144C13.5744 10.6359 13.4775 11.3718 13.1129 12.0037L12.6547 12.7973C12.4297 13.1869 12.5632 13.6849 12.9529 13.9098C13.3428 14.135 13.8407 14.0021 14.0655 13.6117L14.5238 12.8182C15.7257 10.7364 15.0098 8.06462 12.9277 6.86257L12.5828 6.66345C10.5013 5.46157 7.82992 6.1774 6.62741 8.25908L1.44905 17.2284C0.24709 19.3102 0.962846 21.9819 3.04497 23.1839L3.38974 23.3831C4.39825 23.9653 5.57317 24.1201 6.69811 23.8186C7.07373 23.7179 7.42859 23.5705 7.75652 23.3812C8.41071 23.0035 8.95738 22.4591 9.3453 21.7874L10.502 19.7842C10.7269 19.3944 10.5935 18.8963 10.2039 18.6713C9.81446 18.4469 9.31683 18.5799 9.09103 18.9694Z" fill="#050505"></path>
<path d="M20.7471 0.800657L20.4024 0.601444C19.3938 0.0192491 18.2189 -0.135474 17.094 0.165947C15.9688 0.467748 15.0288 1.1885 14.4468 2.1972L13.29 4.20046C13.0651 4.59023 13.1986 5.08828 13.5882 5.31333C13.9779 5.53828 14.4761 5.40496 14.701 5.01521L15.8576 3.01174C16.2227 2.38016 16.8122 1.92813 17.5155 1.73955C18.2202 1.55072 18.9559 1.64768 19.5878 2.01234L19.9325 2.21155C21.2367 2.96427 21.685 4.63761 20.9321 5.94158L15.7537 14.911C15.001 16.2147 13.3273 16.6629 12.0236 15.9104L11.6788 15.7112C11.0469 15.3465 10.5952 14.7576 10.4063 14.0532C10.2176 13.3487 10.3145 12.6128 10.6791 11.9809L11.1373 11.1874C11.3623 10.7978 11.2288 10.2997 10.8391 10.0748C10.4499 9.85001 9.95187 9.98274 9.72649 10.373L9.26824 11.1664C8.06626 13.2482 8.78213 15.92 10.8642 17.1221L11.2092 17.3212C12.6062 18.1278 14.2688 18.0708 15.5748 17.3168C16.2149 16.9473 16.7692 16.4102 17.1646 15.7256L22.3431 6.75616C22.9254 5.74783 23.08 4.5727 22.7787 3.44797C22.4773 2.32301 21.7557 1.38285 20.7471 0.800657Z" fill="#050505"></path>
</g>
<defs>
<clipPath id="clip0">
<rect width="24" height="24" fill="white"></rect>
</clipPath>
</defs>
</svg>