<?xml version="1.0" encoding="utf-8"?>
<!-- Generator: Adobe Illustrator 25.0.0, SVG Export Plug-In . SVG Version: 6.00 Build 0)  -->
<svg version="1.1" id="Layer_1" xmlns="http://www.w3.org/2000/svg" xmlns:xlink="http://www.w3.org/1999/xlink" x="0px" y="0px"
	 viewBox="0 0 24 24" style="enable-background:new 0 0 24 24;" xml:space="preserve">
<style type="text/css">
	.st0{clip-path:url(#SVGID_2_);}
	.st1{fill:#BCBEC0;}
</style>
<g>
	<defs>
		<rect id="SVGID_1_" width="24" height="24"/>
	</defs>
	<clipPath id="SVGID_2_">
		<use xlink:href="#SVGID_1_"  style="overflow:visible;"/>
	</clipPath>
	<g class="st0">
		<path class="st1" d="M9.1,19l-1.2,2c-0.4,0.6-1,1.1-1.7,1.3c-0.7,0.2-1.4,0.1-2.1-0.3l-0.3-0.2c-1.3-0.8-1.8-2.4-1-3.7l5.2-9
			c0.8-1.3,2.4-1.8,3.7-1l0.3,0.2c0.6,0.4,1.1,1,1.3,1.7c0.2,0.7,0.1,1.4-0.3,2.1l-0.5,0.8c-0.2,0.4-0.1,0.9,0.3,1.1
			c0.4,0.2,0.9,0.1,1.1-0.3l0.5-0.8c1.2-2.1,0.5-4.8-1.6-6l-0.3-0.2c-2.1-1.2-4.8-0.5-6,1.6l-5.2,9C0.2,19.3,1,22,3,23.2l0.3,0.2
			c1,0.6,2.2,0.7,3.3,0.4c0.4-0.1,0.7-0.2,1.1-0.4C8.4,23,9,22.5,9.3,21.8l1.2-2c0.2-0.4,0.1-0.9-0.3-1.1C9.8,18.4,9.3,18.6,9.1,19z
			"/>
		<path class="st1" d="M20.7,0.8l-0.3-0.2c-1-0.6-2.2-0.7-3.3-0.4c-1.1,0.3-2.1,1-2.6,2l-1.2,2c-0.2,0.4-0.1,0.9,0.3,1.1
			C14,5.5,14.5,5.4,14.7,5l1.2-2c0.4-0.6,1-1.1,1.7-1.3C18.2,1.6,19,1.6,19.6,2l0.3,0.2c1.3,0.8,1.8,2.4,1,3.7l-5.2,9
			c-0.8,1.3-2.4,1.8-3.7,1l-0.3-0.2c-0.6-0.4-1.1-1-1.3-1.7c-0.2-0.7-0.1-1.4,0.3-2.1l0.5-0.8c0.2-0.4,0.1-0.9-0.3-1.1
			C10.4,9.9,10,10,9.7,10.4l-0.5,0.8c-1.2,2.1-0.5,4.8,1.6,6l0.3,0.2c1.4,0.8,3.1,0.7,4.4,0c0.6-0.4,1.2-0.9,1.6-1.6l5.2-9
			c0.6-1,0.7-2.2,0.4-3.3C22.5,2.3,21.8,1.4,20.7,0.8z"/>
	</g>
</g>
</svg>
