<svg width="16" height="16" viewBox="0 0 16 16" fill="none" xmlns="http://www.w3.org/2000/svg">
<path d="M14.9678 4.34109H14.1898C14.1222 4.07047 13.9981 3.751 13.8177 3.38266C13.6448 3.00681 13.4494 2.65351 13.2314 2.32276C13.0059 1.97698 12.7578 1.6763 12.4872 1.42072C12.2241 1.15762 11.9685 1.00728 11.7205 0.969697C11.4874 0.939629 11.1943 0.917078 10.841 0.902044C10.4877 0.88701 10.1607 0.879493 9.86 0.879493H9.20602V13.6772C9.20602 13.9253 9.25864 14.1546 9.36388 14.365C9.46912 14.568 9.65328 14.7259 9.91638 14.8386C10.0517 14.8912 10.3336 14.9627 10.762 15.0529C11.198 15.1431 11.5363 15.1919 11.7768 15.1994V16H4.22223V15.1994C4.43271 15.1844 4.75218 15.1543 5.18065 15.1092C5.61664 15.0641 5.91732 15.0078 6.0827 14.9401C6.33076 14.8424 6.51117 14.7033 6.62392 14.5229C6.74419 14.335 6.80433 14.0869 6.80433 13.7787V0.879493H6.15035C5.91732 0.879493 5.62791 0.88701 5.28213 0.902044C4.93635 0.909561 4.6056 0.932112 4.28988 0.969697C4.04182 0.999765 3.78248 1.15011 3.51187 1.42072C3.24877 1.68381 3.00447 1.9845 2.77896 2.32276C2.55345 2.66103 2.35425 3.02185 2.18136 3.40522C2.00846 3.78107 1.88819 4.09302 1.82054 4.34109H1.03125V0H14.9678V4.34109Z" fill="#050505"></path>
</svg>