<svg width="16" height="16" viewBox="0 0 16 16" fill="none" xmlns="http://www.w3.org/2000/svg">
<path d="M13.3782 4.48364L5.94663 0.954C5.57496 0.777623 5.1288 0.936276 4.9522 1.30799L4.69922 1.84068L13.4792 6.01075L13.7322 5.47812C13.9088 5.10635 13.75 4.66024 13.3782 4.48364Z" fill="#65676B"/>
<path d="M2.57075 4.77802C2.46576 4.77802 2.36555 4.82197 2.2945 4.89923C2.22344 4.97648 2.18788 5.08002 2.19661 5.18464L2.95572 14.2938C3.03545 15.2504 3.84984 15.9997 4.80978 15.9997H9.05743C10.0174 15.9997 10.8318 15.2504 10.9114 14.2938L11.6068 5.95027L9.13862 4.77802H2.57075Z" fill="#65676B"/>
<path d="M8.91912 1.09328C8.9877 0.948902 9.10843 0.839865 9.259 0.786262C9.40973 0.73266 9.5721 0.740848 9.71653 0.809427L11.1098 1.47114C11.4079 1.61277 11.5353 1.97048 11.3937 2.26855L11.2231 2.62777L11.9013 2.94993L12.0719 2.59071C12.3911 1.91871 12.104 1.11219 11.4319 0.792942L10.0386 0.131232C9.71314 -0.0233808 9.34681 -0.0420744 9.0072 0.0788683C8.66765 0.199703 8.39548 0.445575 8.24087 0.771178L8.07031 1.13034L8.74851 1.4525L8.91912 1.09328Z" fill="#65676B"/>
</svg>
