<svg width="16" height="16" viewBox="0 0 16 16" fill="none" xmlns="http://www.w3.org/2000/svg">
<path fill-rule="evenodd" clip-rule="evenodd" d="M16 11.8009V4.22048C16 4.05092 15.9105 3.89417 15.7649 3.80777C15.6192 3.72144 15.4387 3.718 15.2898 3.79919L11.9041 5.64788V4.71527C11.903 3.71566 11.0928 2.90561 10.0932 2.90448H1.81079C0.81118 2.90561 0.00113184 3.71583 0 4.71544V11.2847C0.00113184 12.2843 0.811346 13.0944 1.81096 13.0955H10.0933C11.0929 13.0944 11.903 12.2842 11.9041 11.2845V10.3735L15.29 12.2222C15.4386 12.3034 15.6192 12.3002 15.7649 12.2138C15.9107 12.1272 16 11.9703 16 11.8009ZM10.9439 11.2845C10.9435 11.7544 10.5627 12.1351 10.0927 12.1357H1.81113C1.34121 12.1351 0.960521 11.7544 0.959967 11.2845V4.71557C0.960547 4.24578 1.34124 3.865 1.81113 3.86445H10.093C10.5628 3.86503 10.9436 4.24583 10.9442 4.71561L10.9439 11.2845ZM15.04 5.02948V10.9921L11.9041 9.27986V6.74156L15.04 5.02948Z" fill="#050505"></path>
</svg>