<svg width="16" height="16" viewBox="0 0 16 16" fill="none" xmlns="http://www.w3.org/2000/svg">
  <mask id="path-1-inside-1_346_82892" fill="white">
    <path d="M15.5146 9.52492L9.53077 15.5103C9.37575 15.6656 9.19167 15.7887 8.98904 15.8727C8.78641 15.9568 8.56921 16 8.34986 16C8.13051 16 7.91331 15.9568 7.71068 15.8727C7.50805 15.7887 7.32396 15.6656 7.16894 15.5103L0 8.34787V1C0 0.447715 0.447715 0 1 0H8.34569L15.5146 7.17082C15.8255 7.48363 16 7.90679 16 8.34787C16 8.78895 15.8255 9.2121 15.5146 9.52492Z"/>
    <path d="M4.8 4C4.8 4.44183 4.44183 4.8 4 4.8C3.55817 4.8 3.2 4.44183 3.2 4C3.2 3.55817 3.55817 3.2 4 3.2C4.44183 3.2 4.8 3.55817 4.8 4Z"/>
  </mask>
  <path d="M15.5146 9.52492L16.2218 10.2319L16.2239 10.2298L15.5146 9.52492ZM9.53077 15.5103L8.82357 14.8033L8.82318 14.8037L9.53077 15.5103ZM7.16894 15.5103L7.87654 14.8037L7.87573 14.8029L7.16894 15.5103ZM0 8.34787H-1C-1 8.61324 -0.894519 8.86773 -0.706787 9.05529L0 8.34787ZM8.34569 0L9.05288 -0.707014C8.86534 -0.894607 8.61095 -1 8.34569 -1V0ZM15.5146 7.17082L16.2239 6.46591L16.2218 6.4638L15.5146 7.17082ZM14.8074 8.8179L8.82357 14.8033L10.238 16.2174L16.2218 10.2319L14.8074 8.8179ZM8.82318 14.8037C8.76102 14.866 8.68722 14.9153 8.60601 14.949L9.37206 16.7965C9.69611 16.6621 9.99049 16.4652 10.2384 16.217L8.82318 14.8037ZM8.60601 14.949C8.5248 14.9827 8.43776 15 8.34986 15V17C8.70066 17 9.04801 16.9308 9.37206 16.7965L8.60601 14.949ZM8.34986 15C8.26196 15 8.17491 14.9827 8.0937 14.949L7.32765 16.7965C7.6517 16.9308 7.99906 17 8.34986 17V15ZM8.0937 14.949C8.01249 14.9153 7.93869 14.866 7.87654 14.8037L6.46135 16.217C6.70923 16.4652 7.0036 16.6621 7.32765 16.7965L8.0937 14.949ZM7.87573 14.8029L0.706787 7.64044L-0.706787 9.05529L6.46216 16.2178L7.87573 14.8029ZM1 8.34787V1H-1V8.34787H1ZM1 1H8.34569V-1H1V1ZM7.63849 0.707014L14.8074 7.87783L16.2218 6.4638L9.05288 -0.707014L7.63849 0.707014ZM14.8053 7.87573C14.93 8.00116 15 8.17089 15 8.34787H17C17 7.64269 16.721 6.96611 16.2239 6.46591L14.8053 7.87573ZM15 8.34787C15 8.52485 14.93 8.69458 14.8053 8.82001L16.2239 10.2298C16.721 9.72963 17 9.05305 17 8.34787H15ZM3.8 4C3.8 3.88954 3.88954 3.8 4 3.8V5.8C4.99411 5.8 5.8 4.99411 5.8 4H3.8ZM4 3.8C4.11046 3.8 4.2 3.88954 4.2 4H2.2C2.2 4.99411 3.00589 5.8 4 5.8V3.8ZM4.2 4C4.2 4.11046 4.11046 4.2 4 4.2V2.2C3.00589 2.2 2.2 3.00589 2.2 4H4.2ZM4 4.2C3.88954 4.2 3.8 4.11046 3.8 4H5.8C5.8 3.00589 4.99411 2.2 4 2.2V4.2ZM1 1V1V-1C-0.10457 -1 -1 -0.104569 -1 1H1Z" fill="#219653" mask="url(#path-1-inside-1_346_82892)"/>
</svg>
