<svg width="134" height="45" viewBox="0 0 134 45" fill="none" xmlns="http://www.w3.org/2000/svg">
  <g clip-path="url(#clip0)">
    <path d="M123.329 0.00112281H10.6769C10.2663 0.00112281 9.86061 0.00112281 9.45107 0.00337281C9.10824 0.00562281 8.76815 0.0121591 8.42203 0.0176603C7.67009 0.0265498 6.91993 0.0930086 6.17806 0.216459C5.43722 0.342597 4.7196 0.580403 4.04945 0.921834C3.38012 1.26615 2.76854 1.71356 2.23688 2.24783C1.70244 2.78059 1.25694 3.39639 0.917509 4.07155C0.577146 4.74537 0.341137 5.46743 0.217633 6.21279C0.0929558 6.95721 0.0258656 7.71021 0.016965 8.46504C0.00657323 8.80996 0.00547583 9.15603 0 9.50101V35.5045C0.00547583 35.8539 0.00657323 36.1923 0.016965 36.5417C0.0258683 37.2965 0.0929585 38.0494 0.217633 38.7938C0.340796 39.5396 0.576819 40.2621 0.917509 40.9362C1.25678 41.6091 1.70235 42.2224 2.23688 42.7522C2.76652 43.2889 3.3785 43.7366 4.04945 44.0783C4.71959 44.4206 5.43714 44.6599 6.17806 44.7879C6.92006 44.9104 7.67014 44.9769 8.42203 44.9868C8.76815 44.9945 9.10824 44.9989 9.45107 44.9989C9.8606 45.0011 10.2663 45.0011 10.6769 45.0011H123.329C123.732 45.0011 124.14 45.0011 124.543 44.9989C124.884 44.9989 125.234 44.9945 125.575 44.9868C126.326 44.9774 127.074 44.9109 127.815 44.7879C128.558 44.659 129.278 44.4198 129.952 44.0783C130.622 43.7364 131.233 43.2887 131.763 42.7522C132.296 42.2204 132.742 41.6075 133.086 40.9362C133.424 40.2616 133.658 39.5392 133.779 38.7938C133.904 38.0493 133.973 37.2965 133.987 36.5417C133.991 36.1923 133.991 35.8539 133.991 35.5045C134 35.0958 134 34.6894 134 34.274V10.7293C134 10.3173 134 9.90859 133.991 9.50101C133.991 9.15603 133.991 8.80996 133.987 8.46499C133.973 7.7101 133.904 6.95726 133.779 6.21274C133.657 5.46781 133.424 4.74581 133.086 4.07151C132.395 2.71822 131.298 1.61665 129.952 0.921733C129.278 0.581136 128.558 0.343393 127.815 0.216358C127.075 0.0923634 126.326 0.0258815 125.575 0.0175028C125.234 0.0120128 124.884 0.00542031 124.543 0.00322656C124.14 0.000976562 123.732 0.000976562 123.329 0.000976562V0.00112281Z" fill="#A6A6A6"/>
    <path d="M9.45647 44.0166C9.11529 44.0166 8.78235 44.0122 8.44385 44.0046C7.74261 43.9954 7.04301 43.9341 6.35078 43.8211C5.70532 43.7094 5.08004 43.5017 4.49556 43.2047C3.91645 42.9102 3.38825 42.524 2.9312 42.061C2.46754 41.6034 2.08151 41.0728 1.78843 40.49C1.49212 39.9034 1.28706 39.2746 1.18038 38.6256C1.06518 37.9282 1.00285 37.2231 0.993933 36.5162C0.986833 36.279 0.977539 35.489 0.977539 35.489V9.50086C0.977539 9.50086 0.987438 8.72302 0.993989 8.4945C1.00253 7.78877 1.06449 7.08471 1.17935 6.38842C1.28622 5.73763 1.49145 5.10707 1.78792 4.51856C2.07992 3.93616 2.4638 3.40507 2.92467 2.94587C3.38503 2.4823 3.91491 2.09416 4.49501 1.79559C5.07815 1.49958 5.70224 1.2933 6.3464 1.18366C7.0409 1.06954 7.74293 1.00785 8.4466 0.999088L9.45702 0.985352H124.537L125.56 0.999639C126.257 1.00796 126.953 1.06911 127.641 1.18255C128.292 1.29357 128.922 1.50129 129.512 1.79888C130.674 2.40059 131.62 3.35254 132.216 4.52131C132.508 5.10575 132.71 5.73117 132.816 6.37634C132.932 7.07834 132.997 7.78793 133.01 8.49945C133.014 8.81805 133.014 9.16028 133.014 9.50086C133.022 9.92273 133.022 10.3243 133.022 10.7291V34.2739C133.022 34.6826 133.022 35.0814 133.014 35.4835C133.014 35.8493 133.014 36.1845 133.009 36.5294C132.996 37.2282 132.932 37.9251 132.818 38.6146C132.713 39.2683 132.509 39.9019 132.213 40.4933C131.918 41.0698 131.534 41.5959 131.076 42.0522C130.618 42.5177 130.089 42.9062 129.509 43.2026C128.921 43.5018 128.291 43.7103 127.641 43.8211C126.949 43.9347 126.249 43.996 125.548 44.0046C125.22 44.0122 124.876 44.0166 124.543 44.0166L123.329 44.0189L9.45647 44.0166Z" fill="black"/>
    <path d="M27.7361 22.8393C27.7481 21.9003 27.9964 20.9797 28.4578 20.163C28.9191 19.3463 29.5787 18.6601 30.3749 18.1683C29.8691 17.4425 29.2017 16.8452 28.4259 16.4238C27.6501 16.0024 26.7872 15.7686 25.9056 15.7409C24.0252 15.5426 22.2022 16.8713 21.244 16.8713C20.2673 16.8713 18.7919 15.7606 17.2032 15.7934C16.1756 15.8268 15.1741 16.127 14.2963 16.6648C13.4185 17.2026 12.6944 17.9597 12.1944 18.8623C10.0287 22.6292 11.6442 28.1654 13.7187 31.2103C14.7567 32.7014 15.9697 34.3669 17.557 34.3078C19.1102 34.2431 19.6903 33.3128 21.5652 33.3128C23.4227 33.3128 23.9669 34.3078 25.5864 34.2703C27.2531 34.2431 28.3032 32.7726 29.3047 31.2675C30.0505 30.2051 30.6243 29.0309 31.005 27.7884C30.0367 27.377 29.2104 26.6883 28.6291 25.8082C28.0478 24.9281 27.7372 23.8956 27.7361 22.8393Z" fill="white"/>
    <path d="M24.6775 13.7385C25.5862 12.6425 26.0339 11.2338 25.9255 9.81152C24.5372 9.95802 23.2547 10.6247 22.3337 11.6786C21.8834 12.1935 21.5385 12.7924 21.3187 13.4413C21.099 14.0902 21.0086 14.7762 21.053 15.4601C21.7474 15.4673 22.4344 15.3161 23.0622 15.0179C23.69 14.7197 24.2423 14.2822 24.6775 13.7385Z" fill="white"/>
    <path d="M47.3702 30.5331H42.0697L40.7968 34.3091H38.5518L43.5723 20.3389H45.9048L50.9253 34.3091H48.642L47.3702 30.5331ZM42.6187 28.7907H46.8202L44.749 22.6625H44.691L42.6187 28.7907Z" fill="white"/>
    <path d="M61.7678 29.2169C61.7678 32.382 60.0816 34.4156 57.5369 34.4156C56.8922 34.4495 56.2512 34.3003 55.687 33.9851C55.1229 33.67 54.6585 33.2016 54.347 32.6336H54.2988V37.6785H52.2178V24.1236H54.2321V25.8177H54.2704C54.5962 25.2524 55.0685 24.7864 55.6369 24.4694C56.2054 24.1523 56.8487 23.996 57.4986 24.017C60.0717 24.017 61.7678 26.0605 61.7678 29.2169ZM59.6288 29.2169C59.6288 27.1547 58.5681 25.799 56.9496 25.799C55.3596 25.799 54.2901 27.1833 54.2901 29.2169C54.2901 31.2691 55.3596 32.6435 56.9496 32.6435C58.5681 32.6435 59.6288 31.2977 59.6288 29.2169Z" fill="white"/>
    <path d="M72.927 29.2168C72.927 32.382 71.2408 34.4156 68.696 34.4156C68.0514 34.4494 67.4103 34.3003 66.8462 33.9851C66.282 33.67 65.8176 33.2016 65.5061 32.6336H65.458V37.6785H63.377V24.1236H65.3913V25.8177H65.4296C65.7554 25.2524 66.2276 24.7864 66.7961 24.4694C67.3645 24.1523 68.0079 23.996 68.6577 24.017C71.2309 24.017 72.927 26.0605 72.927 29.2168ZM70.788 29.2168C70.788 27.1547 69.7273 25.799 68.1088 25.799C66.5188 25.799 65.4493 27.1833 65.4493 29.2168C65.4493 31.2691 66.5188 32.6435 68.1088 32.6435C69.7273 32.6435 70.788 31.2977 70.788 29.2168H70.788Z" fill="white"/>
    <path d="M80.3012 30.4167C80.4554 31.8021 81.795 32.7117 83.6256 32.7117C85.3797 32.7117 86.6416 31.802 86.6416 30.5529C86.6416 29.4685 85.8805 28.8192 84.0783 28.3743L82.2761 27.9381C79.7227 27.3185 78.5373 26.1188 78.5373 24.172C78.5373 21.7616 80.6282 20.106 83.5972 20.106C86.5355 20.106 88.5499 21.7616 88.6177 24.172H86.5169C86.3912 22.7778 85.244 21.9363 83.5676 21.9363C81.8912 21.9363 80.744 22.7877 80.744 24.027C80.744 25.0147 81.4767 25.5958 83.2691 26.0407L84.8011 26.4187C87.6542 27.0965 88.8396 28.2479 88.8396 30.2913C88.8396 32.905 86.7673 34.542 83.4714 34.542C80.3875 34.542 78.3054 32.9434 78.1709 30.4166L80.3012 30.4167Z" fill="white"/>
    <path d="M93.3316 21.7134V24.1238H95.2595V25.7794H93.3316V31.3945C93.3316 32.2668 93.7176 32.6733 94.5651 32.6733C94.794 32.6693 95.0225 32.6532 95.2497 32.625V34.2707C94.8686 34.3422 94.4813 34.3746 94.0938 34.3674C92.0412 34.3674 91.2407 33.5929 91.2407 31.6175V25.7794H89.7666V24.1238H91.2407V21.7134H93.3316Z" fill="white"/>
    <path d="M96.376 29.217C96.376 26.0123 98.2547 23.9985 101.184 23.9985C104.124 23.9985 105.994 26.0123 105.994 29.217C105.994 32.4305 104.134 34.4355 101.184 34.4355C98.2361 34.4355 96.376 32.4305 96.376 29.217ZM103.873 29.217C103.873 27.0187 102.871 25.7212 101.184 25.7212C99.4981 25.7212 98.4964 27.0286 98.4964 29.217C98.4964 31.4242 99.4981 32.7118 101.184 32.7118C102.871 32.7118 103.873 31.4242 103.873 29.217H103.873Z" fill="white"/>
    <path d="M107.709 24.1235H109.694V25.8571H109.742C109.876 25.3157 110.192 24.8372 110.636 24.502C111.08 24.1669 111.626 23.9956 112.181 24.0169C112.42 24.0161 112.66 24.0422 112.894 24.0949V26.0505C112.591 25.9575 112.275 25.9149 111.959 25.9241C111.656 25.9118 111.355 25.9654 111.075 26.0811C110.795 26.1969 110.544 26.3721 110.338 26.5947C110.132 26.8173 109.976 27.0821 109.882 27.3709C109.787 27.6596 109.756 27.9655 109.79 28.2675V34.3089H107.709L107.709 24.1235Z" fill="white"/>
    <path d="M122.489 31.3176C122.209 33.1666 120.417 34.4355 118.124 34.4355C115.174 34.4355 113.344 32.4503 113.344 29.2654C113.344 26.0706 115.184 23.9985 118.036 23.9985C120.841 23.9985 122.605 25.9343 122.605 29.0226V29.7389H115.444V29.8652C115.411 30.2401 115.458 30.6177 115.582 30.973C115.705 31.3283 115.902 31.6532 116.16 31.9261C116.418 32.199 116.731 32.4136 117.078 32.5557C117.425 32.6977 117.797 32.7641 118.172 32.7502C118.664 32.7965 119.157 32.6821 119.579 32.424C120.001 32.1659 120.328 31.7778 120.513 31.3176L122.489 31.3176ZM115.454 28.2777H120.523C120.542 27.9407 120.491 27.6034 120.374 27.287C120.256 26.9707 120.075 26.682 119.842 26.4393C119.608 26.1966 119.327 26.0049 119.017 25.8765C118.706 25.748 118.372 25.6854 118.036 25.6926C117.697 25.6906 117.361 25.756 117.048 25.8851C116.734 26.0142 116.449 26.2044 116.209 26.4447C115.969 26.6851 115.779 26.9708 115.649 27.2854C115.52 27.6 115.453 27.9373 115.454 28.2777V28.2777Z" fill="white"/>
    <path d="M42.3578 9.82354C42.7941 9.79208 43.2319 9.8583 43.6396 10.0174C44.0474 10.1765 44.4149 10.4246 44.7156 10.7436C45.0164 11.0627 45.2429 11.4449 45.3789 11.8626C45.5148 12.2802 45.5568 12.723 45.5018 13.159C45.5018 15.3035 44.3481 16.5362 42.3578 16.5362H39.9443V9.82354H42.3578ZM40.9821 15.5869H42.2419C42.5536 15.6056 42.8656 15.5543 43.1551 15.4366C43.4447 15.3189 43.7044 15.1378 43.9155 14.9066C44.1266 14.6753 44.2836 14.3997 44.3753 14.0997C44.467 13.7998 44.4909 13.4831 44.4454 13.1727C44.4876 12.8635 44.4613 12.5487 44.3682 12.251C44.2751 11.9532 44.1176 11.6799 43.907 11.4504C43.6964 11.221 43.4379 11.0412 43.1501 10.924C42.8622 10.8067 42.5521 10.7549 42.2419 10.7721H40.9821V15.5869Z" fill="white"/>
    <path d="M46.6743 14.001C46.6426 13.6681 46.6805 13.3322 46.7856 13.0149C46.8907 12.6975 47.0606 12.4058 47.2845 12.1583C47.5084 11.9108 47.7813 11.7131 48.0858 11.5778C48.3902 11.4425 48.7194 11.3726 49.0523 11.3726C49.3852 11.3726 49.7144 11.4425 50.0188 11.5778C50.3232 11.7131 50.5961 11.9108 50.82 12.1583C51.0439 12.4058 51.2138 12.6975 51.3189 13.0149C51.424 13.3322 51.4619 13.6681 51.4302 14.001C51.4625 14.3342 51.4251 14.6706 51.3203 14.9884C51.2154 15.3063 51.0456 15.5986 50.8217 15.8465C50.5977 16.0945 50.3246 16.2926 50.0199 16.4282C49.7151 16.5639 49.3856 16.6339 49.0523 16.6339C48.719 16.6339 48.3894 16.5639 48.0847 16.4282C47.78 16.2926 47.5068 16.0945 47.2829 15.8465C47.0589 15.5986 46.8891 15.3063 46.7843 14.9884C46.6795 14.6706 46.642 14.3342 46.6743 14.001ZM50.4066 14.001C50.4066 12.9029 49.9156 12.2608 49.0539 12.2608C48.1889 12.2608 47.7023 12.9029 47.7023 14.001C47.7023 15.1079 48.1889 15.7451 49.0539 15.7451C49.9156 15.7451 50.4066 15.1035 50.4066 14.001H50.4066Z" fill="white"/>
    <path d="M57.7518 16.536H56.7195L55.6773 12.805H55.5986L54.5608 16.536H53.5383L52.1484 11.4702H53.1578L54.0611 15.3357H54.1354L55.1721 11.4702H56.1268L57.1635 15.3357H57.2422L58.1411 11.4702H59.1363L57.7518 16.536Z" fill="white"/>
    <path d="M60.3057 11.47H61.2636V12.2747H61.338C61.4641 11.9857 61.6769 11.7434 61.9466 11.5816C62.2164 11.4198 62.5296 11.3466 62.8427 11.3722C63.0881 11.3536 63.3344 11.3908 63.5635 11.4809C63.7926 11.571 63.9986 11.7118 64.1663 11.8927C64.3339 12.0737 64.4588 12.2902 64.5318 12.5262C64.6048 12.7623 64.6241 13.0118 64.588 13.2563V16.5357H63.5929V13.5074C63.5929 12.6933 63.2408 12.2884 62.5048 12.2884C62.3382 12.2806 62.1719 12.3091 62.0173 12.3719C61.8628 12.4347 61.7235 12.5304 61.6091 12.6523C61.4948 12.7743 61.408 12.9196 61.3548 13.0784C61.3016 13.2371 61.2832 13.4056 61.3008 13.5722V16.5358H60.3057L60.3057 11.47Z" fill="white"/>
    <path d="M66.1729 9.49268H67.168V16.536H66.1729V9.49268Z" fill="white"/>
    <path d="M68.5522 14.0011C68.5206 13.6681 68.5585 13.3322 68.6636 13.0149C68.7687 12.6976 68.9387 12.4058 69.1626 12.1583C69.3865 11.9108 69.6594 11.7131 69.9639 11.5778C70.2683 11.4425 70.5975 11.3726 70.9305 11.3726C71.2634 11.3726 71.5926 11.4425 71.897 11.5778C72.2015 11.7131 72.4744 11.9108 72.6983 12.1583C72.9222 12.4058 73.0922 12.6976 73.1973 13.0149C73.3024 13.3322 73.3403 13.6681 73.3087 14.0011C73.3409 14.3343 73.3034 14.6707 73.1986 14.9885C73.0938 15.3064 72.9239 15.5987 72.6999 15.8466C72.4759 16.0946 72.2028 16.2927 71.8981 16.4283C71.5933 16.5639 71.2637 16.634 70.9305 16.634C70.5972 16.634 70.2676 16.5639 69.9628 16.4283C69.6581 16.2927 69.385 16.0946 69.161 15.8466C68.937 15.5987 68.7671 15.3064 68.6623 14.9885C68.5575 14.6707 68.52 14.3343 68.5522 14.0011ZM72.2845 14.0011C72.2845 12.903 71.7935 12.2609 70.9318 12.2609C70.0668 12.2609 69.5802 12.903 69.5802 14.0011C69.5802 15.108 70.0668 15.7452 70.9318 15.7452C71.7935 15.7452 72.2845 15.1036 72.2845 14.0011H72.2845Z" fill="white"/>
    <path d="M74.3555 15.1035C74.3555 14.1916 75.0313 13.666 76.2309 13.5912L77.5968 13.5121V13.0749C77.5968 12.5398 77.2446 12.2377 76.5645 12.2377C76.0089 12.2377 75.624 12.4426 75.5135 12.8008H74.5501C74.6518 11.9307 75.4665 11.3726 76.6104 11.3726C77.8745 11.3726 78.5875 12.0048 78.5875 13.0749V16.5361H77.6296V15.8242H77.5508C77.391 16.0796 77.1666 16.2878 76.9005 16.4275C76.6344 16.5672 76.3362 16.6335 76.0363 16.6196C75.8246 16.6417 75.6106 16.619 75.4082 16.553C75.2058 16.487 75.0194 16.379 74.8611 16.2362C74.7027 16.0934 74.5759 15.9188 74.4888 15.7237C74.4017 15.5286 74.3563 15.3173 74.3555 15.1035ZM77.5968 14.6706V14.2471L76.3654 14.3262C75.671 14.3729 75.3561 14.6102 75.3561 15.0568C75.3561 15.5127 75.7497 15.7781 76.2911 15.7781C76.4497 15.7942 76.6099 15.7781 76.7622 15.7307C76.9145 15.6834 77.0558 15.6058 77.1776 15.5024C77.2994 15.3991 77.3993 15.2722 77.4713 15.1293C77.5433 14.9864 77.586 14.8304 77.5968 14.6706Z" fill="white"/>
    <path d="M79.8955 14.0009C79.8955 12.4002 80.7146 11.3862 81.9886 11.3862C82.3037 11.3716 82.6165 11.4474 82.8903 11.6048C83.1641 11.7622 83.3877 11.9946 83.5349 12.2749H83.6092V9.49268H84.6044V16.536H83.6508V15.7356H83.572C83.4135 16.0141 83.1821 16.2436 82.903 16.3994C82.6239 16.5552 82.3077 16.6313 81.9886 16.6195C80.7058 16.6195 79.8955 15.6055 79.8955 14.0009ZM80.9235 14.0009C80.9235 15.0754 81.4276 15.7219 82.2708 15.7219C83.1095 15.7219 83.6278 15.0661 83.6278 14.0053C83.6278 12.9495 83.104 12.2843 82.2708 12.2843C81.4331 12.2843 80.9234 12.9353 80.9234 14.0009H80.9235Z" fill="white"/>
    <path d="M88.7222 14.001C88.6905 13.6681 88.7284 13.3322 88.8335 13.0149C88.9386 12.6975 89.1085 12.4058 89.3324 12.1583C89.5563 11.9108 89.8292 11.7131 90.1336 11.5778C90.438 11.4425 90.7672 11.3726 91.1001 11.3726C91.433 11.3726 91.7622 11.4425 92.0666 11.5778C92.371 11.7131 92.6439 11.9108 92.8678 12.1583C93.0917 12.4058 93.2617 12.6975 93.3668 13.0149C93.4718 13.3322 93.5098 13.6681 93.4781 14.001C93.5104 14.3342 93.4729 14.6706 93.3681 14.9884C93.2633 15.3063 93.0935 15.5986 92.8695 15.8465C92.6455 16.0945 92.3724 16.2926 92.0677 16.4282C91.763 16.5639 91.4334 16.6339 91.1001 16.6339C90.7668 16.6339 90.4372 16.5639 90.1325 16.4282C89.8278 16.2926 89.5547 16.0945 89.3307 15.8465C89.1068 15.5986 88.9369 15.3063 88.8321 14.9884C88.7273 14.6706 88.6899 14.3342 88.7222 14.001ZM92.4545 14.001C92.4545 12.9029 91.9635 12.2608 91.1018 12.2608C90.2368 12.2608 89.7502 12.9029 89.7502 14.001C89.7502 15.1079 90.2368 15.7451 91.1018 15.7451C91.9635 15.7451 92.4545 15.1035 92.4545 14.001Z" fill="white"/>
    <path d="M94.8125 11.47H95.7705V12.2747H95.8448C95.971 11.9857 96.1837 11.7434 96.4535 11.5816C96.7232 11.4198 97.0364 11.3466 97.3496 11.3722C97.5949 11.3536 97.8413 11.3908 98.0704 11.4809C98.2995 11.571 98.5055 11.7118 98.6731 11.8927C98.8407 12.0737 98.9656 12.2902 99.0387 12.5262C99.1117 12.7623 99.1309 13.0118 99.0949 13.2563V16.5357H98.0997V13.5074C98.0997 12.6933 97.7476 12.2884 97.0116 12.2884C96.8451 12.2806 96.6788 12.3091 96.5242 12.3719C96.3696 12.4347 96.2303 12.5304 96.116 12.6523C96.0016 12.7743 95.9149 12.9196 95.8616 13.0784C95.8084 13.2371 95.79 13.4056 95.8076 13.5722V16.5358H94.8125V11.47Z" fill="white"/>
    <path d="M104.719 10.209V11.4933H105.811V12.3354H104.719V14.9402C104.719 15.4709 104.936 15.7032 105.432 15.7032C105.558 15.7028 105.685 15.6951 105.811 15.6802V16.5129C105.632 16.5451 105.451 16.5621 105.27 16.564C104.163 16.564 103.722 16.1729 103.722 15.1962V12.3353H102.922V11.4932H103.722V10.209H104.719Z" fill="white"/>
    <path d="M107.17 9.49268H108.156V12.2843H108.235C108.367 11.9926 108.586 11.7489 108.861 11.5865C109.136 11.4241 109.454 11.3509 109.773 11.3768C110.017 11.3635 110.261 11.4044 110.487 11.4967C110.714 11.589 110.917 11.7304 111.083 11.9108C111.249 12.0912 111.373 12.3061 111.447 12.5403C111.52 12.7744 111.542 13.022 111.509 13.2654V16.536H110.513V13.512C110.513 12.7029 110.138 12.2931 109.435 12.2931C109.264 12.279 109.092 12.3026 108.931 12.3623C108.77 12.422 108.624 12.5163 108.503 12.6386C108.382 12.7609 108.289 12.9083 108.231 13.0705C108.172 13.2327 108.15 13.4057 108.165 13.5774V16.536H107.17L107.17 9.49268Z" fill="white"/>
    <path d="M117.312 15.1684C117.177 15.6314 116.884 16.0319 116.485 16.2998C116.085 16.5677 115.605 16.686 115.127 16.634C114.795 16.6428 114.465 16.5789 114.16 16.4467C113.855 16.3144 113.582 16.1171 113.36 15.8683C113.138 15.6195 112.973 15.3253 112.876 15.006C112.779 14.6867 112.752 14.35 112.798 14.0193C112.754 13.6875 112.781 13.3501 112.878 13.0298C112.975 12.7096 113.139 12.414 113.359 12.163C113.58 11.912 113.851 11.7116 114.155 11.5752C114.46 11.4389 114.79 11.3698 115.123 11.3726C116.526 11.3726 117.372 12.3356 117.372 13.9264V14.2752H113.812V14.3313C113.796 14.5172 113.819 14.7043 113.88 14.8806C113.94 15.057 114.037 15.2187 114.164 15.3553C114.29 15.4919 114.443 15.6005 114.614 15.6741C114.785 15.7477 114.969 15.7846 115.154 15.7825C115.393 15.8112 115.634 15.7682 115.847 15.6588C116.061 15.5495 116.237 15.3787 116.354 15.1684L117.312 15.1684ZM113.812 13.5358H116.358C116.371 13.3658 116.348 13.1951 116.291 13.0345C116.234 12.8739 116.144 12.7272 116.027 12.6036C115.91 12.48 115.769 12.3823 115.612 12.3169C115.456 12.2514 115.287 12.2196 115.117 12.2235C114.945 12.2214 114.774 12.2538 114.615 12.319C114.456 12.3842 114.311 12.4808 114.189 12.6031C114.067 12.7254 113.971 12.8709 113.906 13.0311C113.842 13.1913 113.809 13.3629 113.812 13.5358H113.812Z" fill="white"/>
  </g>
  <defs>
    <clipPath id="clip0">
      <rect width="134" height="45" fill="white" transform="translate(0 0.000976562)"/>
    </clipPath>
  </defs>
</svg>
