<svg width="16" height="16" viewBox="0 0 16 16" fill="none" xmlns="http://www.w3.org/2000/svg">
<rect width="16" height="16" rx="2" fill="#F85454"/>
<path fill-rule="evenodd" clip-rule="evenodd" d="M13.8628 6.03462C13.8635 6.48388 13.7501 6.90428 13.5739 7.31419C12.9345 8.80159 12.3022 10.2921 11.6666 11.7812C11.5377 12.0834 11.4069 12.3848 11.2756 12.686C11.2098 12.837 11.0881 12.8979 10.9349 12.8597C10.8418 12.8366 10.7866 12.7711 10.7497 12.6856C10.6406 12.4327 10.5304 12.1803 10.4223 11.9269C9.74119 10.3311 9.05988 8.73536 8.3803 7.13888C8.26 6.85633 8.19329 6.5593 8.17207 6.25185C8.1216 5.5212 8.30942 4.85989 8.74527 4.27835C9.1927 3.68127 9.78285 3.3063 10.5112 3.17799C11.3797 3.02502 12.1622 3.2372 12.8409 3.80965C13.3663 4.25285 13.6912 4.82408 13.8142 5.50892C13.8452 5.68167 13.8553 5.85832 13.875 6.03322L13.8628 6.03462ZM11.0119 8.93921C11.0207 8.9201 11.0257 8.91013 11.0299 8.89982C11.3692 8.08141 11.7095 7.26341 12.0467 6.44409C12.1304 6.24064 12.1482 6.02685 12.1037 5.81066C11.9796 5.20738 11.4322 4.82195 10.8357 4.91543C10.1265 5.02663 9.70857 5.79976 9.99036 6.4746C10.2647 7.13159 10.5357 7.79009 10.8081 8.44789C10.8746 8.60844 10.9412 8.76895 11.0119 8.93921Z" fill="white"/>
<path d="M8.12199 3.28418C7.39557 4.9886 6.67201 6.68618 5.94586 8.3898H6.00988C6.4761 8.3898 6.9423 8.38962 7.40849 8.3899C7.58413 8.39001 7.74838 8.43115 7.89418 8.53484C8.01524 8.62095 8.10868 8.72973 8.16739 8.86997C8.31246 9.21628 8.46024 9.56136 8.60692 9.90698C8.61304 9.92147 8.61848 9.93623 8.628 9.96033H8.5622C7.48342 9.96033 6.40466 9.96065 5.32588 9.95917C5.28076 9.9591 5.25979 9.97363 5.24233 10.0148C4.94932 10.7061 4.65811 11.3981 4.35937 12.0868C4.20376 12.4455 3.93194 12.6581 3.54399 12.7044C3.4794 12.7121 3.41406 12.716 3.34908 12.7162C2.96243 12.7173 2.57575 12.7167 2.18916 12.7167C2.17028 12.7167 2.1515 12.7167 2.125 12.7167C2.13254 12.6955 2.13696 12.6806 2.14299 12.6665C2.78696 11.1599 3.43126 9.65341 4.07508 8.14671C4.69994 6.68443 5.32216 5.22098 5.95054 3.76028C6.07877 3.46212 6.31789 3.29459 6.63769 3.28639C7.1195 3.27404 7.60176 3.28172 8.08382 3.28102C8.09317 3.28098 8.10255 3.28253 8.12199 3.28418Z" fill="white"/>
</svg>