<svg width="16" height="16" viewBox="0 0 16 16" fill="none" xmlns="http://www.w3.org/2000/svg">
<g clip-path="url(#clip0)">
<path d="M7.74773 8.62125C6.77692 8.60468 5.99167 8.26341 5.41515 7.61069C4.13953 6.17271 4.35158 3.7076 4.37477 3.47235C4.4576 1.6931 5.30581 0.848209 6.00161 0.453924C6.69409 0.0596397 7.41639 0 7.78417 0H7.8405C8.50979 0.0132533 9.1095 0.172292 9.62306 0.467178C10.3122 0.861462 11.1472 1.70636 11.23 3.47235C11.2532 3.7076 11.4653 6.17271 10.1896 7.61069C9.60981 8.26341 8.82455 8.60468 7.85375 8.62125H7.74773Z" fill="#f85454"/>
<path d="M5.80469 9.5227C5.48811 9.30299 5.08125 8.85164 5.08125 8.85164C5.08125 8.85164 4.03921 9.5435 2.53828 9.92453C2.52503 9.92784 2.51509 9.93115 2.50515 9.93447C1.07083 10.4269 1.02432 11.9544 1.00437 12.6099L1.00422 12.6149C1.00422 12.6448 1.00422 12.6713 1.0009 12.6978V12.7077C0.997588 12.88 0.994275 13.7647 1.16988 14.2086C1.20301 14.2948 1.26265 14.3677 1.34217 14.4174C1.44157 14.4837 3.82385 16.0011 7.80976 16.0011C11.7785 16.0011 14.1574 14.4934 14.2759 14.4183L14.2774 14.4174C14.3536 14.3677 14.4165 14.2948 14.4496 14.2086C14.6153 13.768 14.612 12.8833 14.6087 12.711V12.7011C14.6087 12.6882 14.6079 12.6754 14.6071 12.6621C14.6063 12.6481 14.6054 12.6336 14.6054 12.6183L14.6052 12.6136C14.5853 11.9549 14.539 10.427 13.1044 9.93778C13.0995 9.93613 13.0937 9.93447 13.0879 9.93281C13.0821 9.93116 13.0763 9.9295 13.0713 9.92784C11.577 9.54681 10.494 8.85156 10.494 8.85156C10.494 8.85156 10.1082 9.30077 9.80469 9.5218C8.54195 10.4414 7.08801 10.4133 5.80469 9.5227Z" fill="#f85454"/>
</g>
<defs>
<clipPath id="clip0">
<rect width="16" height="16" fill="white"/>
</clipPath>
</defs>
</svg>