<svg width="55" height="55" viewBox="0 0 55 55" fill="none" xmlns="http://www.w3.org/2000/svg">
<g clip-path="url(#clip0_22148_275297)">
<path fill-rule="evenodd" clip-rule="evenodd" d="M53.478 12.6463C53.481 14.6022 52.9788 16.4325 52.1991 18.2171C49.3693 24.6928 46.5711 31.182 43.7582 37.6652C43.1875 38.9808 42.6088 40.2931 42.0277 41.6043C41.7364 42.2619 41.1979 42.5268 40.5199 42.3607C40.1078 42.2599 39.8635 41.9748 39.7002 41.6026C39.2172 40.5015 38.7298 39.4025 38.2514 38.2994C35.2368 31.3519 32.2216 24.4045 29.214 17.4539C28.6816 16.2238 28.3863 14.9306 28.2924 13.592C28.069 10.411 28.9003 7.5319 30.8292 5.00007C32.8094 2.40058 35.4212 0.76807 38.6447 0.209435C42.4884 -0.456532 45.9515 0.467226 48.9552 2.95951C51.2804 4.88905 52.7184 7.37599 53.2625 10.3576C53.3997 11.1097 53.4444 11.8787 53.5316 12.6402L53.478 12.6463ZM40.8597 25.2919C40.8987 25.2087 40.9207 25.1653 40.9395 25.1204C42.441 21.5573 43.947 17.996 45.4395 14.4289C45.81 13.5432 45.8885 12.6124 45.6917 11.6712C45.1426 9.04469 42.7198 7.36667 40.0799 7.77366C36.9413 8.25776 35.0916 11.6237 36.3388 14.5618C37.553 17.4221 38.752 20.289 39.9579 23.1528C40.2523 23.8518 40.547 24.5506 40.8597 25.2919Z" fill="white"/>
<path d="M28.0707 0.671637C24.8557 8.09215 21.6535 15.4829 18.4398 22.8999H18.7231C20.7865 22.8999 22.8497 22.8991 24.9129 22.9003C25.6903 22.9008 26.4172 23.0799 27.0625 23.5313C27.5982 23.9062 28.0117 24.3798 28.2716 24.9904C28.9136 26.4981 29.5677 28.0005 30.2168 29.5052C30.2439 29.5682 30.268 29.6325 30.3101 29.7375H30.0189C25.2445 29.7375 20.4703 29.7388 15.6959 29.7324C15.4963 29.7321 15.4035 29.7953 15.3262 29.9748C14.0294 32.9841 12.7406 35.9972 11.4185 38.9954C10.7298 40.5572 9.5268 41.4828 7.80984 41.6842C7.52402 41.7177 7.23481 41.7349 6.94723 41.7357C5.23604 41.7403 3.52473 41.738 1.81379 41.738C1.73026 41.738 1.64711 41.738 1.52985 41.738C1.56321 41.6454 1.58277 41.5807 1.60949 41.5191C4.45946 34.9598 7.31093 28.4012 10.1603 21.8416C12.9257 15.4752 15.6795 9.10386 18.4605 2.74442C19.028 1.44636 20.0863 0.716992 21.5016 0.681256C23.6339 0.627507 25.7683 0.66095 27.9017 0.657896C27.9431 0.657739 27.9846 0.66446 28.0707 0.671637Z" fill="white"/>
<path d="M25.2685 53.9148C25.789 53.9148 26.2808 53.9148 26.7726 53.9148C27.1387 53.9148 27.5047 53.911 27.8706 53.916C28.1684 53.9201 28.3708 54.125 28.3788 54.4225C28.3828 54.5688 28.3793 54.7153 28.3793 54.8726H24.1987V49.1875H28.364C28.364 49.3924 28.3871 49.6102 28.3575 49.8206C28.3273 50.0375 28.1445 50.1354 27.8527 50.136C27.0784 50.1374 26.304 50.1365 25.5298 50.1365H25.2712C25.2712 50.5948 25.267 51.0364 25.2798 51.4776C25.281 51.5106 25.4042 51.5664 25.471 51.5671C26.1256 51.5738 26.7802 51.5712 27.4348 51.5712C27.5179 51.5712 27.6015 51.5712 27.7251 51.5712C27.7136 51.8043 27.7224 52.0219 27.6865 52.2317C27.6526 52.4298 27.4771 52.5266 27.2099 52.5283C26.6468 52.5319 26.0834 52.5385 25.5208 52.5248C25.3155 52.5199 25.2551 52.5816 25.264 52.7847C25.28 53.1497 25.2685 53.5159 25.2685 53.9148Z" fill="white"/>
<path d="M50.8231 49.1797H54.9944C54.9944 49.3756 55.0092 49.565 54.9908 49.7511C54.9658 50.0088 54.7875 50.1362 54.4765 50.1369C53.6949 50.139 52.9133 50.1377 52.1317 50.1377C52.0557 50.1377 51.98 50.1377 51.8904 50.1377V51.5652H54.3167C54.3167 51.7894 54.3364 51.9936 54.3116 52.1921C54.2834 52.4171 54.1109 52.527 53.824 52.5293C53.2607 52.5336 52.6975 52.5307 52.1341 52.5309C52.0582 52.5309 51.9825 52.5309 51.8918 52.5309V53.916H52.168C52.9215 53.916 53.675 53.9152 54.4283 53.9163C54.7997 53.9169 54.9957 54.1166 54.9986 54.4937C54.9996 54.6132 54.9989 54.7328 54.9989 54.8687H50.8231V49.1797Z" fill="white"/>
<path fill-rule="evenodd" clip-rule="evenodd" d="M29.4518 49.1702C29.9343 49.1702 30.4046 49.1642 30.8746 49.1718C31.3806 49.1801 31.892 49.1592 32.3909 49.226C33.3252 49.3513 33.974 50.1555 34.009 51.0835C34.0574 52.3584 33.2771 53.15 31.9347 53.1823C31.4782 53.1933 31.0209 53.1841 30.5344 53.1841C30.5344 53.5537 30.5344 53.9107 30.5344 54.2678C30.5342 54.7526 30.4043 54.8841 29.9237 54.8843C29.7703 54.8844 29.6169 54.8843 29.4518 54.8843V49.1702ZM30.5421 52.2176C30.64 52.2176 30.716 52.2178 30.792 52.2174C31.1854 52.2158 31.5807 52.2367 31.9717 52.2068C32.5189 52.1651 32.8785 51.7972 32.9085 51.2996C32.9432 50.7196 32.6507 50.2445 32.1171 50.1799C31.6016 50.1176 31.073 50.1665 30.5421 50.1665V52.2176Z" fill="white"/>
<path d="M10.2496 53.4767C9.88111 54.5051 8.49099 55.1721 7.18704 54.9607C5.81397 54.738 4.77891 53.5708 4.72924 52.1895C4.67657 50.7221 5.60553 49.4681 6.98612 49.1438C8.31052 48.8326 9.75106 49.4617 10.2611 50.5972C10.0016 50.6967 9.74968 50.8316 9.48204 50.8803C9.34721 50.9049 9.13463 50.8157 9.04157 50.7061C8.44371 50.0025 7.49343 49.9784 6.90635 50.2662C6.20515 50.6101 5.7386 51.4386 5.82852 52.1946C5.93525 53.0919 6.49724 53.7705 7.3117 53.9314C7.9601 54.0595 8.54066 53.9031 9.00182 53.4005C9.23083 53.1508 9.36314 53.1169 9.67167 53.2389C9.86569 53.3158 10.0578 53.3976 10.2496 53.4767Z" fill="white"/>
<path d="M49.8568 50.6009C49.6099 50.6972 49.3673 50.8065 49.1151 50.8854C48.8971 50.9537 48.742 50.818 48.6031 50.6677C48.2497 50.2853 47.8159 50.0909 47.2922 50.0946C46.4155 50.1008 45.6782 50.7104 45.4775 51.6017C45.2748 52.5024 45.7252 53.4345 46.5483 53.818C47.2148 54.1285 48.0299 53.9795 48.5545 53.4513C48.888 53.1157 48.9469 53.1034 49.3849 53.283C49.5395 53.3463 49.6938 53.4106 49.8474 53.4739C49.5813 54.2491 48.4967 55.1767 46.8439 54.9676C45.5331 54.8018 44.3959 53.6454 44.3348 52.1803C44.2641 50.4858 45.49 49.3612 46.6422 49.1364C48.3433 48.8047 49.4946 49.7489 49.8568 50.6009Z" fill="white"/>
<path d="M20.6836 52.4565C20.7271 52.3684 20.7586 52.3079 20.7872 52.2462C21.1903 51.3789 21.5996 50.5145 21.9928 49.6426C22.1451 49.3048 22.3733 49.1381 22.749 49.1674C22.9584 49.1837 23.1701 49.1703 23.4295 49.1703C22.5171 51.0952 21.6176 52.9925 20.7182 54.8898L20.6566 54.8953C19.7601 53.0008 18.8637 51.1061 17.9572 49.1903C18.2993 49.1903 18.6187 49.1684 18.9336 49.1979C19.1425 49.2175 19.2606 49.3943 19.3473 49.5834C19.7521 50.4653 20.1606 51.3455 20.5685 52.2261C20.5999 52.2938 20.6351 52.3598 20.6836 52.4565Z" fill="white"/>
<path d="M15.1951 49.1706C15.1951 49.3513 15.2021 49.5053 15.1937 49.6587C15.1763 49.9755 15.014 50.1319 14.6957 50.1359C14.3242 50.1406 13.9526 50.137 13.5531 50.137V50.4027C13.5531 51.7136 13.5536 53.0243 13.5531 54.3352C13.5529 54.7398 13.4117 54.8825 13.0104 54.8844C12.836 54.8853 12.6615 54.8845 12.4643 54.8845V50.1416H10.8531C10.8531 49.9056 10.8321 49.6884 10.8594 49.4777C10.885 49.2795 11.0608 49.1732 11.3049 49.1718C11.896 49.1685 12.487 49.1706 13.078 49.1706C13.7739 49.1704 14.4699 49.1706 15.1951 49.1706Z" fill="white"/>
<path d="M35.9429 53.9148C36.7671 53.9148 37.5616 53.9146 38.356 53.9148C38.8175 53.9148 38.9467 54.0432 38.9474 54.5024C38.9477 54.6211 38.9476 54.7397 38.9476 54.8709H34.8561V49.1889C35.1093 49.1889 35.3698 49.1611 35.6194 49.202C35.7268 49.2195 35.8381 49.3649 35.8979 49.4783C35.9495 49.5761 35.9412 49.7111 35.9414 49.8296C35.9439 51.1058 35.9429 52.3819 35.9429 53.658C35.9429 53.7343 35.9429 53.8108 35.9429 53.9148Z" fill="white"/>
<path d="M2.35821 52.2649C2.66912 52.2649 2.94817 52.2708 3.22697 52.2633C3.48533 52.2564 3.65264 52.3725 3.74971 52.6067C3.82722 52.7942 3.90899 52.9799 4.00155 53.1961C3.90937 53.2005 3.83675 53.207 3.76451 53.2072C3.22271 53.2079 2.68078 53.2135 2.13923 53.204C1.98735 53.2012 1.91386 53.2551 1.85818 53.3914C1.70956 53.7557 1.54526 54.1135 1.39188 54.4759C1.27348 54.7551 1.06291 54.8849 0.765293 54.8847C0.520229 54.8846 0.275164 54.8847 0 54.8847C0.108611 54.6308 0.206185 54.3996 0.306017 54.1694C0.972482 52.6359 1.64371 51.1043 2.30265 49.5676C2.42518 49.2817 2.60616 49.1491 2.91682 49.1677C3.16151 49.1824 3.40783 49.1708 3.69503 49.1708C3.24604 50.2096 2.80833 51.2228 2.35821 52.2649Z" fill="white"/>
<path d="M39.6048 54.8854C39.8196 54.3862 40.0204 53.9164 40.224 53.4478C40.7837 52.1589 41.3488 50.8723 41.9019 49.5804C42.0262 49.2902 42.2096 49.1466 42.5312 49.1681C42.7761 49.1846 43.0227 49.1713 43.3012 49.1713C42.854 50.2063 42.4156 51.2201 41.9639 52.2656C42.2695 52.2656 42.5414 52.2733 42.8128 52.2635C43.0889 52.2537 43.2655 52.375 43.3654 52.6277C43.4373 52.8094 43.5173 52.9878 43.6109 53.2083C43.5013 53.2083 43.4215 53.2083 43.3418 53.2083C42.8071 53.2083 42.2722 53.2126 41.7376 53.2054C41.5989 53.2034 41.5254 53.2415 41.4715 53.378C41.332 53.7306 41.1662 54.0728 41.0228 54.4239C40.8925 54.7428 40.6682 54.8981 40.3228 54.8868C40.0981 54.8796 39.8731 54.8854 39.6048 54.8854Z" fill="white"/>
<path d="M16.0834 49.1705C16.297 49.1705 16.4791 49.169 16.6612 49.1708C17.016 49.1742 17.173 49.33 17.1742 49.6902C17.1769 50.4795 17.175 51.269 17.175 52.0583C17.175 52.9183 17.175 53.778 17.175 54.638V54.8809C16.9277 54.8809 16.7027 54.8965 16.4811 54.8769C16.2118 54.8533 16.0846 54.6824 16.0841 54.3753C16.0825 53.0997 16.0834 51.8239 16.0834 50.5481C16.0834 50.0984 16.0834 49.6485 16.0834 49.1705Z" fill="white"/>
</g>
<defs>
<clipPath id="clip0_22148_275297">
<rect width="55" height="55" fill="white"/>
</clipPath>
</defs>
</svg>
