<svg width="168" height="18" viewBox="0 0 168 18" fill="none" xmlns="http://www.w3.org/2000/svg">
<path d="M76.9074 14.7108C78.4915 14.7108 79.9886 14.7108 81.4855 14.7108C82.5994 14.7108 83.7135 14.6993 84.8274 14.7145C85.7334 14.727 86.3493 15.3485 86.3739 16.2506C86.3861 16.6943 86.3754 17.1385 86.3754 17.6155H73.6512V0.374512H86.3288C86.3288 0.995976 86.3992 1.65643 86.3092 2.29462C86.2171 2.95236 85.661 3.24919 84.7724 3.25104C82.4158 3.25522 80.0592 3.25245 77.7029 3.25245H76.9159C76.9159 4.64228 76.9029 5.9817 76.9417 7.31967C76.9453 7.4197 77.3201 7.58869 77.5238 7.59108C79.5161 7.61139 81.5083 7.60352 83.5006 7.60352C83.7539 7.60352 84.0078 7.60352 84.3846 7.60352C84.3493 8.31024 84.376 8.97021 84.2668 9.60655C84.1637 10.2072 83.6295 10.5009 82.8164 10.506C81.1023 10.517 79.3878 10.537 77.6752 10.4954C77.0504 10.4805 76.8667 10.6676 76.8936 11.2835C76.9424 12.3905 76.9074 13.501 76.9074 14.7108Z" fill="white"/>
<path d="M154.688 0.34668H167.383C167.383 0.940883 167.428 1.5151 167.372 2.07966C167.296 2.86099 166.754 3.24726 165.807 3.2496C163.428 3.25601 161.049 3.25183 158.67 3.25183C158.439 3.25183 158.208 3.25183 157.936 3.25183V7.58128H165.321C165.321 8.26107 165.38 8.88031 165.305 9.48238C165.219 10.1647 164.694 10.498 163.821 10.505C162.106 10.518 160.392 10.5091 158.678 10.5097C158.447 10.5097 158.216 10.5097 157.94 10.5097V14.7103H158.78C161.074 14.7103 163.367 14.7079 165.66 14.7111C166.79 14.713 167.387 15.3188 167.396 16.4622C167.399 16.8249 167.397 17.1875 167.397 17.5997H154.688V0.34668Z" fill="white"/>
<path fill-rule="evenodd" clip-rule="evenodd" d="M89.6408 0.320655C91.1092 0.320655 92.5408 0.302626 93.9709 0.32576C95.5113 0.350795 97.0673 0.287312 98.5859 0.490195C101.43 0.869949 103.405 3.30878 103.511 6.12324C103.659 9.98947 101.283 12.3903 97.1976 12.4881C95.8082 12.5214 94.4164 12.4936 92.9355 12.4936C92.9355 13.6144 92.9355 14.6972 92.9355 15.7801C92.9352 17.2505 92.5393 17.6493 91.0768 17.6497C90.61 17.6501 90.1429 17.6497 89.6408 17.6497V0.320655ZM92.9589 9.56252C93.257 9.56252 93.4887 9.56296 93.72 9.56198C94.9171 9.55693 96.1197 9.62036 97.3105 9.52961C98.9758 9.40319 100.07 8.2875 100.161 6.77864C100.267 5.01954 99.3773 3.57883 97.7527 3.3829C96.1838 3.19403 94.5746 3.34212 92.9589 3.34212V9.56252Z" fill="white"/>
<path d="M31.1959 13.381C30.0744 16.4998 25.8436 18.5227 21.8748 17.8813C17.6959 17.206 14.5454 13.6663 14.3943 9.4773C14.2339 5.02707 17.0613 1.22427 21.2631 0.240644C25.2942 -0.703283 29.6788 1.20483 31.2313 4.64819C30.4414 4.95012 29.6744 5.35909 28.8601 5.50686C28.4494 5.58147 27.8027 5.31092 27.5191 4.97847C25.6999 2.84478 22.8073 2.77163 21.0205 3.64463C18.8862 4.6875 17.4663 7.20008 17.7404 9.49262C18.0649 12.2139 19.7753 14.2721 22.2544 14.7598C24.2277 15.1484 25.9948 14.6741 27.3982 13.15C28.0955 12.3927 28.4982 12.2899 29.4371 12.6599C30.0277 12.8929 30.6125 13.1411 31.1959 13.381Z" fill="white"/>
<path d="M151.747 4.65759C150.995 4.94932 150.257 5.28096 149.489 5.52039C148.825 5.72745 148.353 5.31566 147.931 4.86004C146.855 3.70031 145.535 3.11072 143.94 3.1218C141.272 3.1408 139.028 4.98961 138.417 7.69247C137.801 10.424 139.171 13.251 141.677 14.4138C143.705 15.3555 146.186 14.9039 147.782 13.3019C148.798 12.284 148.977 12.2469 150.31 12.7915C150.781 12.9832 151.25 13.1783 151.718 13.3705C150.908 15.7213 147.607 18.5344 142.577 17.9004C138.587 17.3973 135.126 13.8905 134.94 9.44728C134.724 4.3083 138.455 0.897905 141.963 0.216107C147.14 -0.789782 150.644 2.07371 151.747 4.65759Z" fill="white"/>
<path d="M62.9513 10.2877C63.0838 10.0205 63.1794 9.8371 63.2667 9.64996C64.4934 7.01982 65.7391 4.39803 66.9361 1.75404C67.3994 0.729578 68.0943 0.223837 69.2376 0.312734C69.8748 0.362314 70.5195 0.321585 71.3085 0.321585C68.5317 6.15936 65.794 11.9133 63.0565 17.6673L62.8693 17.6839C60.1406 11.9383 57.4119 6.19216 54.6532 0.38219C55.6943 0.38219 56.6669 0.315992 57.6252 0.405378C58.2609 0.464679 58.6206 1.00099 58.8842 1.57434C60.1163 4.24886 61.3597 6.91843 62.6009 9.58882C62.6965 9.79442 62.8037 9.99453 62.9513 10.2877Z" fill="white"/>
<path d="M46.2484 0.321417C46.2484 0.869245 46.2694 1.33654 46.2442 1.8015C46.1911 2.76253 45.697 3.23677 44.7285 3.24877C43.5978 3.26317 42.4667 3.25203 41.2509 3.25203V4.05792C41.2509 8.03336 41.2521 12.0085 41.2506 15.984C41.2501 17.2108 40.82 17.6439 39.5993 17.6494C39.068 17.6523 38.5373 17.6499 37.9366 17.6499V3.26599H33.0333C33.0333 2.55047 32.9688 1.89186 33.0526 1.25275C33.1304 0.651536 33.6655 0.329183 34.4081 0.325056C36.2071 0.314846 38.0058 0.321417 39.8047 0.321417C41.923 0.320874 44.0411 0.321417 46.2484 0.321417Z" fill="white"/>
<path d="M109.396 14.7107C111.905 14.7107 114.323 14.7102 116.741 14.7107C118.146 14.7107 118.539 15.1003 118.541 16.4929C118.542 16.8527 118.542 17.2125 118.542 17.6104H106.089V0.378664C106.859 0.378664 107.652 0.294328 108.412 0.417981C108.739 0.471308 109.077 0.912155 109.259 1.25618C109.416 1.55268 109.391 1.96208 109.392 2.32147C109.4 6.19184 109.396 10.0617 109.396 13.9317C109.396 14.1632 109.396 14.3953 109.396 14.7107Z" fill="white"/>
<path d="M7.17772 9.70513C8.12373 9.70513 8.97332 9.72278 9.82172 9.70008C10.6081 9.67922 11.1177 10.0312 11.4125 10.7416C11.6487 11.3104 11.8975 11.8736 12.1793 12.5289C11.8989 12.5422 11.678 12.5622 11.4577 12.5627C9.80867 12.565 8.15942 12.5817 6.51104 12.553C6.0487 12.5446 5.82509 12.7081 5.65578 13.1212C5.20356 14.2263 4.70347 15.3113 4.23634 16.4104C3.87618 17.257 3.23528 17.6506 2.32965 17.6502C1.58331 17.6497 0.837954 17.6502 0 17.6502C0.330786 16.88 0.627731 16.1789 0.931532 15.4809C2.95999 10.8302 5.00281 6.18531 7.00841 1.52486C7.38163 0.657887 7.93222 0.255868 8.87801 0.312345C9.62249 0.356875 10.3723 0.321685 11.2463 0.321685C9.87994 3.47186 8.54787 6.54469 7.17772 9.70513Z" fill="white"/>
<path d="M120.541 17.6504C121.195 16.1363 121.806 14.7117 122.426 13.2904C124.129 9.38157 125.85 5.47971 127.533 1.56194C127.911 0.681555 128.469 0.246301 129.448 0.311576C130.194 0.36159 130.944 0.321296 131.792 0.321296C130.431 3.46001 129.097 6.53464 127.721 9.70528C128.652 9.70528 129.48 9.72847 130.305 9.69882C131.145 9.66917 131.683 10.0369 131.987 10.8034C132.206 11.3545 132.45 11.8954 132.734 12.5642C132.401 12.5642 132.158 12.5642 131.916 12.5642C130.288 12.5642 128.66 12.5771 127.033 12.5554C126.61 12.5493 126.387 12.6647 126.223 13.0788C125.799 14.1481 125.294 15.1859 124.857 16.2507C124.461 17.2178 123.778 17.6888 122.727 17.6545C122.042 17.6327 121.358 17.6504 120.541 17.6504Z" fill="white"/>
<path d="M48.9509 0.321176C49.6009 0.321176 50.155 0.316506 50.7095 0.322045C51.7892 0.332309 52.2675 0.804598 52.2711 1.89716C52.2792 4.29108 52.2735 6.68505 52.2735 9.07897C52.2735 11.6869 52.2735 14.2942 52.2735 16.9022V17.639C51.5204 17.639 50.8359 17.6863 50.1613 17.6269C49.3417 17.5551 48.9544 17.0369 48.9533 16.1056C48.9481 12.237 48.9509 8.36807 48.9509 4.49901C48.9509 3.13515 48.9509 1.77068 48.9509 0.321176Z" fill="white"/>
</svg>
