<svg width="62" height="56" viewBox="0 0 62 56" fill="none" xmlns="http://www.w3.org/2000/svg">
<g filter="url(#filter0_d_2173_288498)">
<path fill-rule="evenodd" clip-rule="evenodd" d="M51.9556 17.0887C51.9581 18.6685 51.5525 20.1467 50.9228 21.588C48.6373 26.8181 46.3773 32.0591 44.1055 37.2952C43.6446 38.3578 43.1772 39.4176 42.7078 40.4766C42.4726 41.0077 42.0377 41.2217 41.4901 41.0875C41.1572 41.0061 40.9599 40.7759 40.828 40.4753C40.438 39.586 40.0443 38.6983 39.6579 37.8074C37.2232 32.1963 34.788 26.5852 32.3589 20.9716C31.9289 19.9781 31.6904 18.9336 31.6146 17.8526C31.4342 15.2834 32.1055 12.9581 33.6634 10.9133C35.2627 8.81383 37.3721 7.49533 39.9756 7.04415C43.08 6.50628 45.8769 7.25235 48.3028 9.26524C50.1808 10.8236 51.3422 12.8322 51.7816 15.2403C51.8924 15.8477 51.9285 16.4688 51.999 17.0838L51.9556 17.0887ZM41.7678 27.3017C41.7993 27.2345 41.8171 27.1995 41.8323 27.1632C43.045 24.2855 44.2613 21.4092 45.4667 18.5283C45.7659 17.8129 45.8293 17.0611 45.6704 16.301C45.2269 14.1797 43.2701 12.8245 41.138 13.1532C38.6031 13.5441 37.1092 16.2626 38.1165 18.6356C39.0972 20.9457 40.0655 23.2611 41.0395 25.5741C41.2772 26.1386 41.5153 26.703 41.7678 27.3017Z" fill="white"/>
<path d="M31.4357 7.4156C28.8391 13.4088 26.2528 19.3779 23.6573 25.3682H23.8861C25.5526 25.3682 27.2189 25.3676 28.8853 25.3685C29.5131 25.3689 30.1002 25.5136 30.6214 25.8782C31.0541 26.181 31.3881 26.5635 31.5979 27.0566C32.1164 28.2743 32.6447 29.4877 33.169 30.703C33.1909 30.7539 33.2103 30.8058 33.2443 30.8906H33.0091C29.1531 30.8906 25.2972 30.8917 21.4412 30.8865C21.28 30.8862 21.205 30.9373 21.1426 31.0822C20.0952 33.5127 19.0543 35.9462 17.9865 38.3677C17.4303 39.6291 16.4587 40.3767 15.072 40.5393C14.8412 40.5664 14.6076 40.5803 14.3753 40.5809C12.9933 40.5846 11.6112 40.5828 10.2293 40.5828C10.1619 40.5828 10.0947 40.5828 10 40.5828C10.0269 40.508 10.0427 40.4557 10.0643 40.406C12.3661 35.1084 14.6691 29.8113 16.9704 24.5134C19.2039 19.3717 21.4279 14.2259 23.674 9.08967C24.1324 8.0413 24.9871 7.45223 26.1301 7.42337C27.8523 7.37996 29.5761 7.40697 31.2992 7.4045C31.3326 7.40437 31.3662 7.4098 31.4357 7.4156Z" fill="white"/>
</g>
<defs>
<filter id="filter0_d_2173_288498" x="0" y="-3" width="62" height="62" filterUnits="userSpaceOnUse" color-interpolation-filters="sRGB">
<feFlood flood-opacity="0" result="BackgroundImageFix"/>
<feColorMatrix in="SourceAlpha" type="matrix" values="0 0 0 0 0 0 0 0 0 0 0 0 0 0 0 0 0 0 127 0" result="hardAlpha"/>
<feOffset dy="4"/>
<feGaussianBlur stdDeviation="5"/>
<feColorMatrix type="matrix" values="0 0 0 0 0.0403125 0 0 0 0 0.154173 0 0 0 0 0.179167 0 0 0 0.15 0"/>
<feBlend mode="normal" in2="BackgroundImageFix" result="effect1_dropShadow_2173_288498"/>
<feBlend mode="normal" in="SourceGraphic" in2="effect1_dropShadow_2173_288498" result="shape"/>
</filter>
</defs>
</svg>
