<svg width="109" height="39" viewBox="0 0 109 39" fill="none" xmlns="http://www.w3.org/2000/svg">
<g clip-path="url(#clip0_22166_280329)">
<path d="M99.4521 0.859498H8.60985C8.27872 0.859498 7.95156 0.859498 7.62131 0.861389C7.34485 0.86328 7.0706 0.868773 6.79149 0.873397C6.18514 0.880868 5.58021 0.936723 4.98196 1.04048C4.38456 1.14649 3.80587 1.34635 3.26546 1.6333C2.72572 1.92269 2.23254 2.29871 1.80381 2.74773C1.37284 3.19549 1.01359 3.71303 0.739876 4.28047C0.465409 4.84677 0.275092 5.45362 0.175499 6.08006C0.0749592 6.7057 0.0208579 7.33856 0.0136805 7.97295C0.00530063 8.26284 0.00441569 8.55369 0 8.84362V30.6982C0.00441569 30.9917 0.00530063 31.2761 0.0136805 31.5698C0.0208601 32.2042 0.0749614 32.837 0.175499 33.4626C0.274817 34.0894 0.465145 34.6966 0.739876 35.2631C1.01346 35.8287 1.37277 36.3442 1.80381 36.7894C2.23091 37.2405 2.72441 37.6167 3.26546 37.9039C3.80586 38.1916 4.38449 38.3927 4.98196 38.5003C5.58031 38.6032 6.18518 38.6591 6.79149 38.6675C7.0706 38.6739 7.34485 38.6776 7.62131 38.6776C7.95156 38.6795 8.27874 38.6795 8.60985 38.6795H99.4521C99.7767 38.6795 100.106 38.6795 100.431 38.6776C100.706 38.6776 100.988 38.6739 101.263 38.6675C101.869 38.6596 102.472 38.6037 103.069 38.5003C103.669 38.3919 104.25 38.1909 104.793 37.9039C105.333 37.6166 105.826 37.2403 106.253 36.7894C106.683 36.3424 107.043 35.8274 107.32 35.2631C107.593 34.6962 107.781 34.089 107.879 33.4626C107.98 32.8369 108.036 32.2042 108.047 31.5698C108.05 31.2761 108.05 30.9917 108.05 30.6982C108.057 30.3547 108.057 30.013 108.057 29.664V9.87591C108.057 9.52966 108.057 9.18618 108.05 8.84362C108.05 8.55369 108.05 8.26284 108.047 7.97291C108.036 7.33846 107.98 6.70575 107.879 6.08002C107.781 5.45395 107.592 4.84715 107.32 4.28043C106.763 3.14307 105.879 2.21726 104.793 1.63322C104.25 1.34697 103.669 1.14716 103.069 1.04039C102.472 0.936181 101.869 0.880306 101.263 0.873264C100.988 0.86865 100.706 0.86311 100.431 0.861266C100.106 0.859375 99.7767 0.859375 99.4521 0.859375V0.859498Z" fill="#A6A6A6"/>
<path d="M7.62645 37.8529C7.35132 37.8529 7.08284 37.8492 6.80987 37.8428C6.24439 37.835 5.68024 37.7835 5.12203 37.6885C4.60153 37.5947 4.0973 37.4201 3.62599 37.1705C3.15899 36.923 2.73305 36.5985 2.36449 36.2093C1.99059 35.8248 1.6793 35.3787 1.44296 34.8889C1.20402 34.3959 1.03866 33.8675 0.952633 33.322C0.859736 32.7359 0.809474 32.1433 0.802283 31.5492C0.796557 31.3498 0.789062 30.6859 0.789062 30.6859V8.84431C0.789062 8.84431 0.797045 8.19058 0.802328 7.99852C0.809214 7.40539 0.859183 6.81367 0.951802 6.22848C1.03798 5.68153 1.20348 5.15157 1.44255 4.65697C1.67802 4.16749 1.98758 3.72114 2.35922 3.3352C2.73045 2.9456 3.15775 2.61939 3.62554 2.36846C4.09578 2.11968 4.59905 1.94631 5.1185 1.85416C5.67854 1.75826 6.24465 1.70641 6.81209 1.69904L7.62689 1.6875H100.427L101.252 1.69951C101.814 1.7065 102.375 1.75789 102.93 1.85324C103.455 1.94654 103.963 2.12112 104.439 2.37123C105.376 2.87693 106.139 3.67699 106.62 4.65927C106.855 5.15047 107.018 5.6761 107.103 6.21833C107.197 6.80832 107.249 7.40469 107.26 8.00268C107.262 8.27045 107.262 8.55807 107.262 8.84431C107.27 9.19887 107.27 9.53635 107.27 9.8766V29.6647C107.27 30.0082 107.27 30.3433 107.262 30.6813C107.262 30.9887 107.262 31.2704 107.259 31.5603C107.248 32.1476 107.197 32.7333 107.105 33.3128C107.02 33.8622 106.856 34.3947 106.617 34.8918C106.379 35.3763 106.069 35.8184 105.7 36.2019C105.331 36.5932 104.904 36.9196 104.436 37.1687C103.962 37.4202 103.454 37.5955 102.93 37.6885C102.372 37.784 101.808 37.8356 101.242 37.8428C100.978 37.8492 100.701 37.8529 100.432 37.8529L99.4529 37.8548L7.62645 37.8529Z" fill="black"/>
<path d="M22.3659 20.0551C22.3757 19.2659 22.5758 18.4921 22.9479 17.8057C23.32 17.1194 23.8518 16.5427 24.4939 16.1293C24.086 15.5193 23.5479 15.0173 22.9222 14.6632C22.2966 14.309 21.6007 14.1125 20.8899 14.0892C19.3735 13.9226 17.9035 15.0393 17.1308 15.0393C16.3431 15.0393 15.1534 14.1058 13.8723 14.1334C13.0436 14.1614 12.236 14.4137 11.5282 14.8657C10.8203 15.3177 10.2364 15.954 9.83322 16.7126C8.08681 19.8785 9.38947 24.5314 11.0624 27.0904C11.8994 28.3436 12.8776 29.7433 14.1576 29.6937C15.4101 29.6393 15.8779 28.8574 17.3898 28.8574C18.8876 28.8574 19.3265 29.6937 20.6325 29.6621C21.9765 29.6393 22.8233 28.4034 23.6309 27.1385C24.2323 26.2456 24.695 25.2587 25.002 24.2145C24.2212 23.8687 23.5548 23.2899 23.0861 22.5502C22.6173 21.8106 22.3669 20.9428 22.3659 20.0551V20.0551Z" fill="white"/>
<path d="M19.8985 12.4058C20.6313 11.4847 20.9923 10.3008 20.9049 9.10547C19.7853 9.22859 18.7511 9.78886 18.0084 10.6746C17.6453 11.1074 17.3672 11.6108 17.1899 12.1561C17.0127 12.7014 16.9399 13.278 16.9756 13.8528C17.5356 13.8589 18.0896 13.7318 18.5959 13.4811C19.1022 13.2305 19.5475 12.8628 19.8985 12.4058Z" fill="white"/>
<path d="M38.199 26.5208H33.9248L32.8983 29.6943H31.0879L35.1364 17.9531H37.0174L41.0659 29.6943H39.2246L38.199 26.5208ZM34.3674 25.0564H37.7555L36.0853 19.906H36.0386L34.3674 25.0564Z" fill="white"/>
<path d="M49.8086 25.4147C49.8086 28.0749 48.4488 29.784 46.3967 29.784C45.8769 29.8124 45.3599 29.6871 44.905 29.4222C44.4501 29.1573 44.0756 28.7637 43.8244 28.2863H43.7856V32.5263H42.1074V21.1341H43.7318V22.5579H43.7627C44.0254 22.0828 44.4062 21.6912 44.8646 21.4247C45.323 21.1582 45.8418 21.0269 46.3659 21.0445C48.4408 21.0446 49.8086 22.762 49.8086 25.4147ZM48.0837 25.4147C48.0837 23.6816 47.2283 22.5422 45.9232 22.5422C44.641 22.5422 43.7785 23.7056 43.7785 25.4147C43.7785 27.1395 44.641 28.2946 45.9232 28.2946C47.2283 28.2946 48.0837 27.1635 48.0837 25.4147Z" fill="white"/>
<path d="M58.8086 25.4147C58.8086 28.0749 57.4488 29.784 55.3967 29.784C54.8769 29.8124 54.3599 29.687 53.905 29.4222C53.4501 29.1573 53.0756 28.7637 52.8244 28.2863H52.7856V32.5263H51.1074V21.1341H52.7318V22.5579H52.7626C53.0254 22.0828 53.4062 21.6912 53.8646 21.4247C54.323 21.1582 54.8418 21.0268 55.3658 21.0445C57.4408 21.0445 58.8086 22.762 58.8086 25.4147ZM57.0837 25.4147C57.0837 23.6816 56.2283 22.5422 54.9232 22.5422C53.641 22.5422 52.7785 23.7056 52.7785 25.4147C52.7785 27.1395 53.641 28.2946 54.9232 28.2946C56.2283 28.2946 57.0837 27.1635 57.0837 25.4147H57.0837Z" fill="white"/>
<path d="M64.755 26.4234C64.8793 27.5877 65.9596 28.3522 67.4358 28.3522C68.8502 28.3522 69.8679 27.5877 69.8679 26.5379C69.8679 25.6265 69.2541 25.0808 67.8008 24.7069L66.3476 24.3403C64.2885 23.8195 63.3326 22.8113 63.3326 21.1751C63.3326 19.1493 65.0186 17.7578 67.4128 17.7578C69.7823 17.7578 71.4067 19.1493 71.4614 21.1751H69.7673C69.6659 20.0034 68.7409 19.2961 67.389 19.2961C66.0371 19.2961 65.1121 20.0117 65.1121 21.0532C65.1121 21.8833 65.7029 22.3717 67.1483 22.7457L68.3837 23.0633C70.6844 23.633 71.6403 24.6007 71.6403 26.3181C71.6403 28.5147 69.9693 29.8905 67.3114 29.8905C64.8246 29.8905 63.1456 28.547 63.0371 26.4233L64.755 26.4234Z" fill="white"/>
<path d="M75.2615 19.1094V21.1352H76.8162V22.5267H75.2615V27.2458C75.2615 27.979 75.5728 28.3206 76.2562 28.3206C76.4408 28.3172 76.625 28.3037 76.8082 28.28V29.6631C76.501 29.7232 76.1887 29.7505 75.8761 29.7444C74.2209 29.7444 73.5754 29.0934 73.5754 27.4333V22.5267H72.3867V21.1352H73.5754V19.1094H75.2615Z" fill="white"/>
<path d="M77.7168 25.4152C77.7168 22.7218 79.2318 21.0293 81.5943 21.0293C83.9646 21.0293 85.4726 22.7217 85.4726 25.4152C85.4726 28.1159 83.9726 29.801 81.5943 29.801C79.2168 29.801 77.7168 28.1159 77.7168 25.4152ZM83.7627 25.4152C83.7627 23.5676 82.954 22.4771 81.5942 22.4771C80.2344 22.4771 79.4267 23.5759 79.4267 25.4152C79.4267 27.2701 80.2344 28.3523 81.5942 28.3523C82.954 28.3523 83.7627 27.2701 83.7627 25.4152H83.7627Z" fill="white"/>
<path d="M86.8555 21.134H88.456V22.591H88.4948C88.6031 22.136 88.8577 21.7338 89.2159 21.4522C89.574 21.1705 90.0138 21.0266 90.4613 21.0445C90.6547 21.0437 90.8476 21.0657 91.0363 21.11V22.7536C90.7922 22.6754 90.5375 22.6396 90.2823 22.6474C90.0385 22.637 89.7955 22.682 89.5699 22.7793C89.3442 22.8766 89.1414 23.0238 88.9753 23.2109C88.8092 23.398 88.6837 23.6206 88.6074 23.8633C88.5312 24.1059 88.506 24.363 88.5336 24.6169V29.6943H86.8555L86.8555 21.134Z" fill="white"/>
<path d="M98.7752 27.1806C98.5495 28.7346 97.1041 29.801 95.2549 29.801C92.8766 29.801 91.4004 28.1325 91.4004 25.4558C91.4004 22.7707 92.8845 21.0293 95.1844 21.0293C97.4463 21.0293 98.8687 22.6562 98.8687 25.2517V25.8537H93.0944V25.9599C93.0678 26.275 93.1054 26.5923 93.2049 26.891C93.3044 27.1896 93.4634 27.4626 93.6715 27.692C93.8795 27.9213 94.1317 28.1017 94.4114 28.2211C94.6911 28.3405 94.9919 28.3962 95.2937 28.3846C95.6903 28.4235 96.0882 28.3273 96.4284 28.1104C96.7686 27.8935 97.0328 27.5674 97.1817 27.1806L98.7752 27.1806ZM93.1023 24.6257H97.1897C97.2047 24.3424 97.1637 24.059 97.0692 23.7931C96.9747 23.5272 96.8287 23.2846 96.6404 23.0806C96.4521 22.8766 96.2255 22.7156 95.975 22.6076C95.7244 22.4996 95.4553 22.447 95.1844 22.4531C94.9111 22.4514 94.6402 22.5064 94.3873 22.6148C94.1344 22.7233 93.9046 22.8832 93.711 23.0852C93.5174 23.2872 93.364 23.5273 93.2595 23.7917C93.1551 24.0561 93.1016 24.3396 93.1023 24.6257V24.6257Z" fill="white"/>
<path d="M34.1572 9.11382C34.509 9.08739 34.862 9.14304 35.1908 9.27677C35.5196 9.41049 35.816 9.61895 36.0585 9.88712C36.301 10.1553 36.4837 10.4765 36.5933 10.8275C36.703 11.1785 36.7368 11.5507 36.6924 11.9171C36.6924 13.7194 35.7621 14.7555 34.1572 14.7555H32.2109V9.11382H34.1572ZM33.0478 13.9576H34.0637C34.3151 13.9734 34.5667 13.9302 34.8001 13.8313C35.0336 13.7324 35.243 13.5802 35.4133 13.3858C35.5835 13.1915 35.7101 12.9598 35.7841 12.7077C35.858 12.4556 35.8773 12.1895 35.8406 11.9286C35.8746 11.6687 35.8534 11.4042 35.7783 11.154C35.7033 10.9037 35.5763 10.674 35.4064 10.4811C35.2366 10.2883 35.0282 10.1372 34.796 10.0387C34.5639 9.94012 34.3138 9.89654 34.0637 9.91108H33.0478V13.9576Z" fill="white"/>
<path d="M37.638 12.6251C37.6124 12.3453 37.643 12.063 37.7277 11.7963C37.8125 11.5296 37.9495 11.2844 38.13 11.0764C38.3106 10.8684 38.5307 10.7022 38.7761 10.5885C39.0216 10.4748 39.2871 10.416 39.5555 10.416C39.824 10.416 40.0894 10.4748 40.3349 10.5885C40.5804 10.7022 40.8005 10.8684 40.981 11.0764C41.1616 11.2844 41.2986 11.5296 41.3834 11.7963C41.4681 12.063 41.4987 12.3453 41.4731 12.6251C41.4991 12.9051 41.4689 13.1878 41.3844 13.455C41.2999 13.7221 41.163 13.9677 40.9824 14.1761C40.8018 14.3845 40.5815 14.5511 40.3358 14.665C40.0901 14.779 39.8243 14.8379 39.5555 14.8379C39.2868 14.8379 39.021 14.779 38.7753 14.665C38.5295 14.5511 38.3093 14.3845 38.1287 14.1761C37.9481 13.9677 37.8112 13.7221 37.7266 13.455C37.6421 13.1878 37.6119 12.9051 37.638 12.6251ZM40.6477 12.6251C40.6477 11.7022 40.2517 11.1625 39.5569 11.1625C38.8593 11.1625 38.4669 11.7022 38.4669 12.6251C38.4669 13.5553 38.8594 14.0909 39.5569 14.0909C40.2518 14.0909 40.6477 13.5516 40.6477 12.6251H40.6477Z" fill="white"/>
<path d="M46.5713 14.7556H45.7388L44.8984 11.6199H44.8349L43.9981 14.7556H43.1736L42.0527 10.498H42.8667L43.5951 13.7468H43.655L44.491 10.498H45.2609L46.0969 13.7468H46.1603L46.8852 10.498H47.6877L46.5713 14.7556Z" fill="white"/>
<path d="M48.6309 10.4985H49.4034V11.1748H49.4633C49.565 10.9319 49.7366 10.7283 49.9541 10.5923C50.1716 10.4563 50.4242 10.3948 50.6767 10.4163C50.8746 10.4007 51.0732 10.432 51.258 10.5077C51.4427 10.5834 51.6089 10.7017 51.744 10.8538C51.8792 11.0059 51.9799 11.1878 52.0388 11.3862C52.0977 11.5846 52.1132 11.7943 52.0841 11.9998V14.756H51.2817V12.2108C51.2817 11.5266 50.9977 11.1864 50.4042 11.1864C50.2699 11.1798 50.1358 11.2038 50.0112 11.2565C49.8865 11.3093 49.7742 11.3897 49.682 11.4922C49.5898 11.5947 49.5198 11.7168 49.4769 11.8503C49.434 11.9837 49.4191 12.1253 49.4333 12.2653V14.756H48.6309L48.6309 10.4985Z" fill="white"/>
<path d="M53.3613 8.83594H54.1638V14.7555H53.3613V8.83594Z" fill="white"/>
<path d="M55.2805 12.6251C55.255 12.3453 55.2856 12.063 55.3703 11.7963C55.4551 11.5296 55.5922 11.2844 55.7727 11.0764C55.9533 10.8684 56.1734 10.7022 56.4189 10.5885C56.6644 10.4748 56.9299 10.416 57.1983 10.416C57.4668 10.416 57.7323 10.4748 57.9778 10.5885C58.2233 10.7022 58.4433 10.8684 58.6239 11.0764C58.8045 11.2844 58.9415 11.5296 59.0263 11.7963C59.111 12.063 59.1416 12.3453 59.1161 12.6251C59.1421 12.9052 59.1119 13.1879 59.0273 13.455C58.9428 13.7222 58.8058 13.9678 58.6252 14.1762C58.4446 14.3846 58.2243 14.5511 57.9786 14.6651C57.7329 14.7791 57.4671 14.8379 57.1983 14.8379C56.9296 14.8379 56.6638 14.7791 56.418 14.6651C56.1723 14.5511 55.952 14.3846 55.7714 14.1762C55.5908 13.9678 55.4538 13.7222 55.3693 13.455C55.2848 13.1879 55.2545 12.9052 55.2805 12.6251ZM58.2902 12.6251C58.2902 11.7023 57.8943 11.1626 57.1994 11.1626C56.5019 11.1626 56.1095 11.7023 56.1095 12.6252C56.1095 13.5554 56.5019 14.091 57.1994 14.091C57.8943 14.0909 58.2902 13.5517 58.2902 12.6251H58.2902Z" fill="white"/>
<path d="M59.9609 13.5517C59.9609 12.7853 60.5059 12.3435 61.4733 12.2807L62.5747 12.2142V11.8467C62.5747 11.3971 62.2908 11.1431 61.7423 11.1431C61.2943 11.1431 60.9839 11.3153 60.8948 11.6164H60.1179C60.1999 10.8851 60.8569 10.416 61.7793 10.416C62.7987 10.416 63.3737 10.9474 63.3737 11.8467V14.7557H62.6012V14.1574H62.5377C62.4088 14.372 62.2278 14.547 62.0133 14.6644C61.7987 14.7819 61.5582 14.8376 61.3163 14.8259C61.1456 14.8444 60.9731 14.8254 60.8099 14.7699C60.6466 14.7144 60.4963 14.6237 60.3686 14.5036C60.2409 14.3836 60.1387 14.2368 60.0685 14.0729C59.9982 13.9089 59.9616 13.7314 59.9609 13.5517ZM62.5747 13.1879V12.8319L61.5818 12.8984C61.0218 12.9376 60.7678 13.1371 60.7678 13.5124C60.7678 13.8956 61.0853 14.1186 61.5218 14.1186C61.6497 14.1321 61.7789 14.1186 61.9017 14.0788C62.0246 14.039 62.1385 13.9738 62.2367 13.8869C62.3349 13.8001 62.4155 13.6935 62.4736 13.5734C62.5316 13.4533 62.566 13.3222 62.5747 13.1879Z" fill="white"/>
<path d="M64.4277 12.6249C64.4277 11.2796 65.0882 10.4273 66.1156 10.4273C66.3697 10.4151 66.6219 10.4788 66.8427 10.6111C67.0635 10.7433 67.2438 10.9387 67.3625 11.1743H67.4225V8.83594H68.2249V14.7555H67.456V14.0828H67.3925C67.2646 14.3168 67.078 14.5097 66.853 14.6407C66.6279 14.7716 66.3729 14.8356 66.1156 14.8256C65.0812 14.8257 64.4277 13.9734 64.4277 12.6249ZM65.2567 12.6249C65.2567 13.5279 65.6632 14.0713 66.3431 14.0713C67.0195 14.0713 67.4375 13.5201 67.4375 12.6286C67.4375 11.7412 67.0151 11.1822 66.3431 11.1822C65.6676 11.1822 65.2567 11.7292 65.2567 12.6249H65.2567Z" fill="white"/>
<path d="M71.5442 12.6251C71.5187 12.3453 71.5492 12.063 71.634 11.7963C71.7187 11.5296 71.8557 11.2844 72.0363 11.0764C72.2168 10.8684 72.4369 10.7022 72.6824 10.5885C72.9279 10.4748 73.1934 10.416 73.4618 10.416C73.7302 10.416 73.9957 10.4748 74.2412 10.5885C74.4867 10.7022 74.7067 10.8684 74.8873 11.0764C75.0678 11.2844 75.2049 11.5296 75.2896 11.7963C75.3743 12.063 75.4049 12.3453 75.3793 12.6251C75.4054 12.9051 75.3752 13.1878 75.2907 13.455C75.2062 13.7221 75.0692 13.9677 74.8886 14.1761C74.708 14.3845 74.4878 14.5511 74.2421 14.665C73.9963 14.779 73.7305 14.8379 73.4618 14.8379C73.193 14.8379 72.9272 14.779 72.6815 14.665C72.4358 14.5511 72.2156 14.3845 72.035 14.1761C71.8544 13.9677 71.7174 13.7221 71.6329 13.455C71.5484 13.1878 71.5182 12.9051 71.5442 12.6251ZM74.5539 12.6251C74.5539 11.7022 74.158 11.1625 73.4631 11.1625C72.7656 11.1625 72.3732 11.7022 72.3732 12.6251C72.3732 13.5553 72.7656 14.0909 73.4631 14.0909C74.158 14.0909 74.5539 13.5516 74.5539 12.6251Z" fill="white"/>
<path d="M76.457 10.4985H77.2295V11.1748H77.2895C77.3912 10.9319 77.5628 10.7283 77.7803 10.5923C77.9978 10.4563 78.2504 10.3948 78.5029 10.4163C78.7007 10.4007 78.8994 10.432 79.0842 10.5077C79.2689 10.5834 79.435 10.7017 79.5702 10.8538C79.7054 11.0059 79.8061 11.1878 79.865 11.3862C79.9239 11.5846 79.9393 11.7943 79.9103 11.9998V14.756H79.1078V12.2108C79.1078 11.5266 78.8239 11.1864 78.2304 11.1864C78.0961 11.1798 77.962 11.2038 77.8373 11.2565C77.7127 11.3093 77.6004 11.3897 77.5081 11.4922C77.4159 11.5947 77.346 11.7168 77.303 11.8503C77.2601 11.9837 77.2453 12.1253 77.2595 12.2653V14.756H76.457V10.4985Z" fill="white"/>
<path d="M84.445 9.4375V10.5169H85.3259V11.2246H84.445V13.4139C84.445 13.8598 84.6204 14.0551 85.0199 14.0551C85.1222 14.0548 85.2243 14.0483 85.3259 14.0357V14.7356C85.1818 14.7626 85.0358 14.777 84.8894 14.7786C83.997 14.7786 83.6416 14.4498 83.6416 13.629V11.2246H82.9961V10.5168H83.6416V9.4375H84.445Z" fill="white"/>
<path d="M86.4219 8.83594H87.2173V11.1821H87.2808C87.3875 10.937 87.5637 10.7322 87.7856 10.5957C88.0075 10.4592 88.2641 10.3977 88.5206 10.4195C88.7174 10.4083 88.9142 10.4427 89.0968 10.5202C89.2795 10.5978 89.4436 10.7166 89.5773 10.8682C89.7111 11.0198 89.8112 11.2005 89.8706 11.3973C89.93 11.594 89.9472 11.8021 89.921 12.0067V14.7555H89.1177V12.214C89.1177 11.5339 88.8152 11.1895 88.2482 11.1895C88.1103 11.1777 87.9715 11.1975 87.8417 11.2477C87.7119 11.2979 87.5941 11.3771 87.4966 11.4799C87.399 11.5827 87.3242 11.7066 87.2771 11.8429C87.2301 11.9792 87.2121 12.1246 87.2244 12.2689V14.7555H86.4219L86.4219 8.83594Z" fill="white"/>
<path d="M94.599 13.6062C94.49 13.9953 94.2537 14.3319 93.9316 14.5571C93.6095 14.7823 93.2221 14.8817 92.8371 14.838C92.5692 14.8454 92.303 14.7916 92.0569 14.6805C91.8108 14.5694 91.5908 14.4035 91.4121 14.1944C91.2334 13.9854 91.1002 13.7381 91.022 13.4697C90.9437 13.2013 90.9221 12.9184 90.9587 12.6404C90.9231 12.3616 90.945 12.078 91.0231 11.8089C91.1012 11.5397 91.2336 11.2913 91.4114 11.0803C91.5892 10.8694 91.8082 10.701 92.0535 10.5864C92.2989 10.4718 92.5649 10.4137 92.8335 10.4161C93.9649 10.4161 94.6475 11.2254 94.6475 12.5624V12.8556H91.7762V12.9026C91.7636 13.0589 91.7824 13.2162 91.8313 13.3644C91.8801 13.5126 91.9581 13.6484 92.06 13.7633C92.162 13.8781 92.2857 13.9694 92.4233 14.0312C92.5609 14.093 92.7094 14.1241 92.8591 14.1223C93.0511 14.1465 93.2455 14.1103 93.4178 14.0184C93.5901 13.9265 93.7323 13.783 93.8265 13.6062L94.599 13.6062ZM91.7762 12.2341H93.83C93.8401 12.0913 93.8216 11.9477 93.7755 11.8128C93.7295 11.6778 93.6571 11.5545 93.5628 11.4506C93.4685 11.3467 93.3546 11.2647 93.2282 11.2097C93.1019 11.1547 92.9659 11.1279 92.8291 11.1312C92.6903 11.1294 92.5526 11.1567 92.424 11.2115C92.2955 11.2662 92.1787 11.3474 92.0805 11.4502C91.9824 11.553 91.9049 11.6753 91.8527 11.81C91.8004 11.9446 91.7744 12.0888 91.7762 12.2341H91.7762Z" fill="white"/>
</g>
<defs>
<clipPath id="clip0_22166_280329">
<rect width="108.057" height="37.82" fill="white" transform="translate(0 0.859375)"/>
</clipPath>
</defs>
</svg>
