<svg width="160" height="56" viewBox="0 0 160 56" fill="none" xmlns="http://www.w3.org/2000/svg">
<g clip-path="url(#clip0_22148_275248)">
<path d="M147.259 0.000182H12.7486C12.2583 0.000182 11.7739 0.000182 11.2849 0.002982C10.8755 0.005782 10.4694 0.013916 10.0561 0.020762C9.15832 0.0318245 8.2626 0.114529 7.37678 0.268156C6.4922 0.425128 5.63534 0.721064 4.83516 1.14596C4.03596 1.57444 3.30571 2.13122 2.6709 2.79608C2.03276 3.45907 1.50082 4.22541 1.09553 5.06561C0.689129 5.90414 0.407327 6.8027 0.259861 7.73026C0.110992 8.65664 0.0308843 9.59371 0.0202567 10.5331C0.00784864 10.9623 0.0065383 11.393 0 11.8223V44.1822C0.0065383 44.6169 0.00784864 45.038 0.0202567 45.4729C0.0308875 46.4122 0.110995 47.3492 0.259861 48.2755C0.40692 49.2036 0.688739 50.1027 1.09553 50.9416C1.50063 51.779 2.03265 52.5423 2.6709 53.2016C3.30331 53.8694 4.03403 54.4266 4.83516 54.8518C5.63533 55.2778 6.49211 55.5755 7.37678 55.7349C8.26275 55.8873 9.15838 55.97 10.0561 55.9824C10.4694 55.9919 10.8755 55.9974 11.2849 55.9974C11.7738 56.0002 12.2583 56.0002 12.7486 56.0002H147.259C147.739 56.0002 148.227 56.0002 148.708 55.9974C149.115 55.9974 149.533 55.9919 149.941 55.9824C150.837 55.9707 151.731 55.8879 152.615 55.7349C153.502 55.5744 154.362 55.2767 155.166 54.8518C155.967 54.4263 156.697 53.8692 157.328 53.2016C157.965 52.5397 158.498 51.777 158.908 50.9416C159.312 50.1021 159.591 49.2031 159.736 48.2755C159.885 47.3491 159.968 46.4123 159.984 45.4729C159.99 45.038 159.99 44.6169 159.99 44.1822C160 43.6736 160 43.1678 160 42.6509V13.3508C160 12.8381 160 12.3295 159.99 11.8223C159.99 11.393 159.99 10.9623 159.984 10.533C159.968 9.59357 159.885 8.65671 159.736 7.7302C159.591 6.80318 159.312 5.90469 158.908 5.06555C158.083 3.38146 156.774 2.01062 155.166 1.14583C154.362 0.721976 153.502 0.426119 152.615 0.26803C151.731 0.113726 150.837 0.0309929 149.941 0.020566C149.533 0.013734 149.115 0.00553 148.708 0.0028C148.227 0 147.739 0 147.259 0V0.000182Z" fill="#A6A6A6"/>
<path d="M11.2914 54.7746C10.884 54.7746 10.4865 54.7692 10.0823 54.7596C9.24499 54.7482 8.40965 54.6719 7.58311 54.5313C6.81241 54.3923 6.0658 54.1338 5.36792 53.7642C4.67644 53.3977 4.04576 52.9172 3.50003 52.341C2.9464 51.7716 2.48548 51.1112 2.13553 50.3859C1.78172 49.6559 1.53687 48.8735 1.4095 48.0658C1.27194 47.198 1.19752 46.3204 1.18687 45.4408C1.1784 45.1456 1.1673 44.1625 1.1673 44.1625V11.8217C1.1673 11.8217 1.17912 10.8537 1.18694 10.5693C1.19714 9.69108 1.27112 8.81492 1.40827 7.94843C1.53587 7.13856 1.78092 6.35386 2.13491 5.62149C2.48357 4.89673 2.94194 4.23581 3.49223 3.66436C4.04191 3.08748 4.67461 2.60446 5.36727 2.2329C6.06354 1.86454 6.80874 1.60783 7.57788 1.47139C8.40713 1.32938 9.24538 1.2526 10.0856 1.2417L11.2921 1.22461H148.701L149.922 1.24239C150.755 1.25275 151.585 1.32884 152.407 1.47002C153.184 1.60817 153.937 1.86667 154.641 2.23701C156.029 2.98579 157.158 4.17044 157.87 5.62491C158.219 6.35222 158.46 7.13052 158.586 7.9334C158.725 8.807 158.802 9.69004 158.818 10.5755C158.822 10.972 158.822 11.3979 158.822 11.8217C158.833 12.3467 158.833 12.8464 158.833 13.3502V42.6503C158.833 43.159 158.833 43.6553 158.822 44.1556C158.822 44.6109 158.822 45.028 158.817 45.4572C158.801 46.3268 158.725 47.1941 158.588 48.0521C158.464 48.8656 158.22 49.6541 157.866 50.3901C157.514 51.1075 157.056 51.7622 156.508 52.3301C155.962 52.9094 155.33 53.3927 154.637 53.7616C153.935 54.134 153.183 54.3934 152.407 54.5313C151.581 54.6726 150.745 54.749 149.908 54.7596C149.516 54.7692 149.106 54.7746 148.708 54.7746L147.259 54.7774L11.2914 54.7746Z" fill="black"/>
<path d="M33.1179 28.4212C33.1323 27.2527 33.4287 26.107 33.9796 25.0907C34.5305 24.0743 35.318 23.2204 36.2688 22.6084C35.6648 21.7051 34.868 20.9618 33.9416 20.4374C33.0152 19.9131 31.9849 19.6221 30.9323 19.5876C28.687 19.3408 26.5103 20.9944 25.3662 20.9944C24.1999 20.9944 22.4383 19.6121 20.5414 19.653C19.3144 19.6945 18.1185 20.0681 17.0704 20.7374C16.0223 21.4066 15.1577 22.3488 14.5607 23.472C11.9748 28.1598 13.9037 35.0492 16.3808 38.8385C17.6201 40.694 19.0685 42.7666 20.9638 42.6931C22.8184 42.6126 23.511 41.4548 25.7497 41.4548C27.9676 41.4548 28.6174 42.6931 30.5511 42.6464C32.5412 42.6126 33.795 40.7826 34.9909 38.9096C35.8814 37.5875 36.5666 36.1263 37.0211 34.5801C35.865 34.0681 34.8783 33.211 34.1842 32.1158C33.4901 31.0206 33.1192 29.7357 33.1179 28.4212Z" fill="white"/>
<path d="M29.4655 17.0959C30.5506 15.732 31.0852 13.9789 30.9557 12.209C29.298 12.3913 27.7667 13.2209 26.6669 14.5324C26.1293 15.1732 25.7174 15.9186 25.455 16.7261C25.1926 17.5335 25.0848 18.3872 25.1377 19.2384C25.9669 19.2473 26.7872 19.0591 27.5368 18.688C28.2865 18.3169 28.9459 17.7725 29.4655 17.0959Z" fill="white"/>
<path d="M56.5614 37.9948H50.2325L48.7126 42.6938H46.0319L52.0266 25.3086H54.8117L60.8063 42.6938H58.08L56.5614 37.9948ZM50.888 35.8264H55.9047L53.4316 28.2002H53.3624L50.888 35.8264Z" fill="white"/>
<path d="M73.7527 36.358C73.7527 40.2969 71.7393 42.8275 68.7008 42.8275C67.9311 42.8697 67.1657 42.6841 66.492 42.2919C65.8184 41.8997 65.2639 41.3168 64.892 40.6099H64.8345V46.8881H62.3497V30.0197H64.7549V32.1279H64.8006C65.1896 31.4245 65.7535 30.8446 66.4322 30.45C67.111 30.0554 67.8792 29.8609 68.6551 29.8871C71.7275 29.8871 73.7527 32.4301 73.7527 36.358ZM71.1987 36.358C71.1987 33.7918 69.9321 32.1047 67.9996 32.1047C66.1011 32.1047 64.8241 33.8273 64.8241 36.358C64.8241 38.9119 66.1011 40.6223 67.9996 40.6223C69.9321 40.6223 71.1987 38.9475 71.1987 36.358Z" fill="white"/>
<path d="M87.0765 36.358C87.0765 40.2969 85.0631 42.8275 82.0246 42.8275C81.2549 42.8697 80.4894 42.684 79.8158 42.2918C79.1422 41.8997 78.5877 41.3168 78.2158 40.6099H78.1583V46.8881H75.6735V30.0197H78.0786V32.1279H78.1243C78.5134 31.4245 79.0772 30.8446 79.756 30.45C80.4347 30.0554 81.2029 29.8609 81.9789 29.8871C85.0513 29.8871 87.0765 32.4301 87.0765 36.358ZM84.5225 36.358C84.5225 33.7918 83.2559 32.1047 81.3234 32.1047C79.4249 32.1047 78.1479 33.8273 78.1479 36.358C78.1479 38.9119 79.4249 40.6223 81.3234 40.6223C83.2559 40.6223 84.5225 38.9475 84.5225 36.358H84.5225Z" fill="white"/>
<path d="M95.8824 37.8507C96.0665 39.5747 97.6661 40.7067 99.8519 40.7067C101.946 40.7067 103.453 39.5746 103.453 38.0201C103.453 36.6707 102.544 35.8627 100.392 35.309L98.2406 34.7662C95.1917 33.9951 93.7763 32.5022 93.7763 30.0795C93.7763 27.0799 96.2728 25.0195 99.8179 25.0195C103.326 25.0195 105.732 27.0799 105.813 30.0795H103.304C103.154 28.3445 101.784 27.2973 99.7826 27.2973C97.7809 27.2973 96.4112 28.3569 96.4112 29.899C96.4112 31.1281 97.2861 31.8514 99.4262 32.405L101.255 32.8754C104.662 33.7189 106.078 35.1518 106.078 37.6947C106.078 40.9472 103.603 42.9843 99.6677 42.9843C95.9855 42.9843 93.4994 40.9951 93.3388 37.8505L95.8824 37.8507Z" fill="white"/>
<path d="M111.44 27.0195V30.0191H113.742V32.0795H111.44V39.0672C111.44 40.1527 111.901 40.6586 112.913 40.6586C113.186 40.6536 113.459 40.6335 113.731 40.5984V42.6464C113.276 42.7355 112.813 42.7758 112.35 42.7668C109.9 42.7668 108.944 41.8029 108.944 39.3447V32.0795H107.184V30.0191H108.944V27.0195H111.44Z" fill="white"/>
<path d="M115.076 36.3574C115.076 32.3693 117.319 29.8633 120.817 29.8633C124.327 29.8633 126.559 32.3693 126.559 36.3574C126.559 40.3564 124.338 42.8516 120.817 42.8516C117.296 42.8516 115.076 40.3564 115.076 36.3574ZM124.028 36.3574C124.028 33.6217 122.83 32.007 120.817 32.007C118.803 32.007 117.607 33.634 117.607 36.3574C117.607 39.1041 118.803 40.7064 120.817 40.7064C122.83 40.7064 124.028 39.1041 124.028 36.3574H124.028Z" fill="white"/>
<path d="M128.608 30.0196H130.978V32.177H131.036C131.196 31.5032 131.573 30.9077 132.103 30.4907C132.633 30.0737 133.285 29.8605 133.947 29.887C134.234 29.8859 134.519 29.9185 134.799 29.984V32.4176C134.437 32.302 134.06 32.2489 133.682 32.2604C133.321 32.2451 132.961 32.3117 132.627 32.4558C132.293 32.5998 131.993 32.8178 131.747 33.0949C131.501 33.3719 131.315 33.7014 131.202 34.0608C131.089 34.4201 131.052 34.8008 131.093 35.1766V42.6948H128.608L128.608 30.0196Z" fill="white"/>
<path d="M146.255 38.9715C145.921 41.2725 143.781 42.8516 141.043 42.8516C137.521 42.8516 135.335 40.381 135.335 36.4176C135.335 32.4418 137.533 29.8633 140.938 29.8633C144.287 29.8633 146.394 32.2723 146.394 36.1154V37.0068H137.844V37.1641C137.804 37.6305 137.86 38.1005 138.007 38.5426C138.155 38.9848 138.39 39.3891 138.698 39.7287C139.006 40.0683 139.38 40.3353 139.794 40.5121C140.208 40.689 140.653 40.7715 141.1 40.7543C141.687 40.8119 142.277 40.6695 142.78 40.3483C143.284 40.0271 143.675 39.5442 143.896 38.9715L146.255 38.9715ZM137.855 35.1885H143.907C143.93 34.769 143.869 34.3493 143.729 33.9556C143.589 33.5619 143.373 33.2028 143.094 32.9007C142.815 32.5986 142.48 32.3602 142.109 32.2002C141.738 32.0403 141.339 31.9625 140.938 31.9715C140.534 31.969 140.132 32.0504 139.758 32.211C139.384 32.3716 139.043 32.6083 138.757 32.9074C138.47 33.2065 138.243 33.5621 138.088 33.9536C137.933 34.3451 137.854 34.7648 137.855 35.1885V35.1885Z" fill="white"/>
<path d="M50.5765 12.2243C51.0974 12.1852 51.6201 12.2676 52.107 12.4656C52.5938 12.6636 53.0326 12.9723 53.3918 13.3693C53.7509 13.7664 54.0214 14.242 54.1837 14.7618C54.346 15.2816 54.3961 15.8326 54.3305 16.3751C54.3305 19.0438 52.9529 20.5779 50.5765 20.5779H47.6947V12.2243H50.5765ZM48.9338 19.3965H50.438C50.8103 19.4198 51.1828 19.3559 51.5285 19.2095C51.8742 19.063 52.1843 18.8377 52.4364 18.5499C52.6884 18.2621 52.876 17.9191 52.9854 17.5458C53.0949 17.1725 53.1235 16.7784 53.0691 16.3921C53.1195 16.0074 53.088 15.6157 52.9769 15.2451C52.8658 14.8746 52.6777 14.5344 52.4263 14.2489C52.1748 13.9634 51.8662 13.7397 51.5224 13.5937C51.1787 13.4478 50.8084 13.3833 50.438 13.4048H48.9338V19.3965Z" fill="white"/>
<path d="M55.7302 17.4233C55.6924 17.009 55.7376 16.591 55.8631 16.1961C55.9886 15.8012 56.1915 15.4381 56.4588 15.1301C56.7262 14.8222 57.052 14.5761 57.4155 14.4077C57.779 14.2393 58.1721 14.1523 58.5696 14.1523C58.967 14.1523 59.3601 14.2393 59.7236 14.4077C60.0871 14.5761 60.4129 14.8222 60.6803 15.1301C60.9476 15.4381 61.1505 15.8012 61.276 16.1961C61.4015 16.591 61.4467 17.009 61.4089 17.4233C61.4475 17.838 61.4027 18.2566 61.2776 18.6521C61.1525 19.0476 60.9497 19.4114 60.6823 19.72C60.4148 20.0285 60.0887 20.2751 59.7249 20.4439C59.361 20.6126 58.9675 20.6998 58.5696 20.6998C58.1716 20.6998 57.7781 20.6126 57.4142 20.4439C57.0504 20.2751 56.7243 20.0285 56.4569 19.72C56.1895 19.4114 55.9867 19.0476 55.8615 18.6521C55.7364 18.2566 55.6917 17.838 55.7302 17.4233ZM60.1867 17.4233C60.1867 16.0568 59.6004 15.2577 58.5715 15.2577C57.5387 15.2577 56.9577 16.0568 56.9577 17.4233C56.9577 18.8007 57.5387 19.5937 58.5715 19.5937C59.6004 19.5937 60.1867 18.7952 60.1867 17.4233H60.1867Z" fill="white"/>
<path d="M68.9573 20.5775H67.7247L66.4803 15.9346H66.3863L65.1472 20.5775H63.9263L62.2667 14.2734H63.4719L64.5505 19.0838H64.6393L65.8771 14.2734H67.017L68.2548 19.0838H68.3488L69.4222 14.2734H70.6104L68.9573 20.5775Z" fill="white"/>
<path d="M72.0062 14.2744H73.1501V15.2758H73.2388C73.3895 14.9162 73.6435 14.6146 73.9656 14.4133C74.2877 14.212 74.6617 14.1209 75.0355 14.1527C75.3285 14.1296 75.6227 14.1759 75.8962 14.288C76.1698 14.4001 76.4157 14.5753 76.6159 14.8005C76.816 15.0257 76.9652 15.2951 77.0524 15.5888C77.1396 15.8826 77.1625 16.1931 77.1195 16.4974V20.5784H75.9313V16.8098C75.9313 15.7968 75.5108 15.2929 74.6321 15.2929C74.4332 15.2832 74.2346 15.3187 74.05 15.3968C73.8654 15.475 73.6992 15.594 73.5626 15.7458C73.4261 15.8975 73.3225 16.0784 73.2589 16.276C73.1954 16.4735 73.1734 16.6832 73.1944 16.8905V20.5785H72.0062L72.0062 14.2744Z" fill="white"/>
<path d="M79.0128 11.8125H80.201V20.5775H79.0128V11.8125Z" fill="white"/>
<path d="M81.8528 17.4234C81.815 17.0091 81.8603 16.5911 81.9858 16.1961C82.1113 15.8012 82.3142 15.4381 82.5816 15.1302C82.849 14.8222 83.1748 14.5761 83.5384 14.4077C83.9019 14.2393 84.295 14.1523 84.6925 14.1523C85.09 14.1523 85.4831 14.2393 85.8466 14.4077C86.2101 14.5761 86.536 14.8222 86.8033 15.1302C87.0707 15.4381 87.2736 15.8012 87.3991 16.1961C87.5246 16.5911 87.5699 17.0091 87.5321 17.4234C87.5706 17.8381 87.5259 18.2567 87.4007 18.6522C87.2755 19.0478 87.0727 19.4115 86.8053 19.7201C86.5378 20.0286 86.2117 20.2752 85.8478 20.444C85.484 20.6127 85.0904 20.6999 84.6925 20.6999C84.2945 20.6999 83.901 20.6127 83.5371 20.444C83.1732 20.2752 82.8471 20.0286 82.5797 19.7201C82.3122 19.4115 82.1094 19.0478 81.9842 18.6522C81.8591 18.2567 81.8143 17.8381 81.8528 17.4234ZM86.3093 17.4234C86.3093 16.0569 85.723 15.2578 84.6941 15.2578C83.6613 15.2578 83.0803 16.0569 83.0803 17.4234C83.0803 18.8009 83.6613 19.5938 84.6941 19.5938C85.723 19.5938 86.3093 18.7954 86.3093 17.4234H86.3093Z" fill="white"/>
<path d="M88.783 18.7953C88.783 17.6605 89.59 17.0063 91.0224 16.9134L92.6532 16.8149V16.2708C92.6532 15.605 92.2328 15.229 91.4206 15.229C90.7573 15.229 90.2977 15.484 90.1658 15.9297H89.0154C89.1369 14.8469 90.1097 14.1523 91.4755 14.1523C92.9849 14.1523 93.8362 14.9391 93.8362 16.2708V20.5781H92.6924V19.6922H92.5984C92.4076 20.01 92.1396 20.269 91.8219 20.4429C91.5042 20.6168 91.1481 20.6993 90.7899 20.682C90.5372 20.7095 90.2817 20.6813 90.04 20.5991C89.7983 20.5169 89.5758 20.3826 89.3867 20.2049C89.1976 20.0271 89.0462 19.8098 88.9422 19.5671C88.8383 19.3243 88.784 19.0614 88.783 18.7953ZM92.6532 18.2566V17.7296L91.183 17.828C90.3538 17.8861 89.9778 18.1814 89.9778 18.7372C89.9778 19.3046 90.4478 19.6347 91.0942 19.6347C91.2836 19.6548 91.4749 19.6348 91.6568 19.5759C91.8386 19.5169 92.0073 19.4203 92.1527 19.2917C92.2982 19.1632 92.4175 19.0053 92.5034 18.8274C92.5894 18.6496 92.6404 18.4555 92.6532 18.2566Z" fill="white"/>
<path d="M95.3979 17.4228C95.3979 15.4308 96.3759 14.1689 97.8971 14.1689C98.2733 14.1507 98.6468 14.2451 98.9737 14.4409C99.3007 14.6368 99.5676 14.926 99.7434 15.2749H99.8322V11.8125H101.02V20.5775H99.8818V19.5815H99.7878C99.5984 19.928 99.3222 20.2137 98.9889 20.4075C98.6557 20.6014 98.2781 20.6961 97.8971 20.6814C96.3654 20.6815 95.3979 19.4196 95.3979 17.4228ZM96.6253 17.4228C96.6253 18.7599 97.2273 19.5645 98.234 19.5645C99.2355 19.5645 99.8544 18.7483 99.8544 17.4282C99.8544 16.1144 99.229 15.2865 98.234 15.2865C97.2338 15.2865 96.6253 16.0966 96.6253 17.4228H96.6253Z" fill="white"/>
<path d="M105.936 17.4233C105.899 17.009 105.944 16.591 106.069 16.1961C106.195 15.8012 106.398 15.4381 106.665 15.1301C106.932 14.8222 107.258 14.5761 107.622 14.4077C107.985 14.2393 108.378 14.1523 108.776 14.1523C109.173 14.1523 109.566 14.2393 109.93 14.4077C110.293 14.5761 110.619 14.8222 110.887 15.1301C111.154 15.4381 111.357 15.8012 111.482 16.1961C111.608 16.591 111.653 17.009 111.615 17.4233C111.654 17.838 111.609 18.2566 111.484 18.6521C111.359 19.0476 111.156 19.4114 110.888 19.72C110.621 20.0285 110.295 20.2751 109.931 20.4439C109.567 20.6126 109.174 20.6998 108.776 20.6998C108.378 20.6998 107.984 20.6126 107.62 20.4439C107.257 20.2751 106.93 20.0285 106.663 19.72C106.396 19.4114 106.193 19.0476 106.068 18.6521C105.943 18.2566 105.898 17.838 105.936 17.4233ZM110.393 17.4233C110.393 16.0568 109.807 15.2577 108.778 15.2577C107.745 15.2577 107.164 16.0568 107.164 17.4233C107.164 18.8007 107.745 19.5937 108.778 19.5937C109.807 19.5937 110.393 18.7952 110.393 17.4233Z" fill="white"/>
<path d="M113.209 14.2744H114.353V15.2758H114.442C114.593 14.9162 114.847 14.6146 115.169 14.4133C115.491 14.212 115.865 14.1209 116.239 14.1527C116.532 14.1296 116.826 14.1759 117.099 14.288C117.373 14.4001 117.619 14.5753 117.819 14.8005C118.019 15.0257 118.168 15.2951 118.256 15.5888C118.343 15.8826 118.366 16.1931 118.323 16.4974V20.5784H117.135V16.8098C117.135 15.7968 116.714 15.2929 115.835 15.2929C115.636 15.2832 115.438 15.3187 115.253 15.3968C115.069 15.475 114.902 15.594 114.766 15.7458C114.629 15.8975 114.526 16.0784 114.462 16.276C114.399 16.4735 114.377 16.6832 114.398 16.8905V20.5785H113.209V14.2744Z" fill="white"/>
<path d="M125.037 12.7031V14.3014H126.341V15.3493H125.037V18.5909C125.037 19.2513 125.297 19.5404 125.888 19.5404C126.04 19.5399 126.191 19.5303 126.341 19.5117V20.548C126.128 20.588 125.912 20.6093 125.695 20.6116C124.373 20.6116 123.847 20.1249 123.847 18.9095V15.3493H122.891V14.3013H123.847V12.7031H125.037Z" fill="white"/>
<path d="M127.964 11.8125H129.142V15.2865H129.236C129.394 14.9235 129.655 14.6203 129.984 14.4182C130.312 14.2161 130.692 14.125 131.072 14.1572C131.363 14.1406 131.655 14.1916 131.925 14.3064C132.196 14.4213 132.439 14.5972 132.637 14.8217C132.835 15.0462 132.983 15.3137 133.071 15.605C133.159 15.8964 133.184 16.2046 133.145 16.5074V20.5776H131.956V16.8144C131.956 15.8074 131.508 15.2975 130.669 15.2975C130.464 15.2799 130.259 15.3093 130.067 15.3836C129.874 15.4579 129.7 15.5752 129.556 15.7275C129.411 15.8797 129.3 16.0631 129.231 16.2649C129.161 16.4667 129.134 16.682 129.153 16.8957V20.5775H127.964L127.964 11.8125Z" fill="white"/>
<path d="M140.074 18.8761C139.912 19.4522 139.563 19.9506 139.086 20.284C138.609 20.6174 138.035 20.7646 137.465 20.6999C137.068 20.7109 136.674 20.6313 136.31 20.4668C135.945 20.3022 135.619 20.0566 135.355 19.7471C135.09 19.4375 134.893 19.0713 134.777 18.6739C134.661 18.2766 134.629 17.8576 134.684 17.446C134.631 17.0332 134.663 16.6133 134.779 16.2147C134.895 15.8162 135.091 15.4483 135.354 15.136C135.617 14.8237 135.941 14.5743 136.305 14.4046C136.668 14.2349 137.062 14.1489 137.46 14.1524C139.135 14.1524 140.146 15.3508 140.146 17.3304V17.7646H135.894V17.8343C135.875 18.0656 135.903 18.2985 135.976 18.518C136.048 18.7374 136.163 18.9386 136.314 19.1086C136.465 19.2787 136.648 19.4138 136.852 19.5054C137.056 19.5969 137.276 19.6429 137.497 19.6403C137.782 19.676 138.07 19.6224 138.325 19.4863C138.58 19.3503 138.79 19.1378 138.93 18.876L140.074 18.8761ZM135.894 16.8444H138.935C138.95 16.6329 138.923 16.4203 138.854 16.2205C138.786 16.0207 138.679 15.8381 138.539 15.6843C138.4 15.5305 138.231 15.4089 138.044 15.3275C137.857 15.246 137.656 15.2065 137.453 15.2113C137.248 15.2086 137.044 15.249 136.853 15.3302C136.663 15.4113 136.49 15.5315 136.345 15.6837C136.199 15.8359 136.085 16.017 136.007 16.2164C135.93 16.4157 135.891 16.6293 135.894 16.8444H135.894Z" fill="white"/>
</g>
<defs>
<clipPath id="clip0_22148_275248">
<rect width="160" height="56" fill="white"/>
</clipPath>
</defs>
</svg>
