<svg width="24" height="24" viewBox="0 0 24 24" fill="none" xmlns="http://www.w3.org/2000/svg">
<path fill-rule="evenodd" clip-rule="evenodd" d="M5.59236 4.404C5.85749 4.36166 6.14428 4.3396 6.45437 4.3396C7.32844 4.3396 8.02458 4.6575 8.57574 5.06312C8.44152 4.23388 7.76663 3.6501 6.95834 3.6501C6.38627 3.6501 5.87893 3.94765 5.59236 4.404ZM9.77682 6.25344C9.85319 5.97422 9.90001 5.67468 9.90001 5.36852C9.90001 3.70357 8.62068 2.3501 6.95834 2.3501C5.50361 2.3501 4.27722 3.41896 4.07483 4.85337C4.05675 4.9181 4.04429 4.97827 4.0357 5.03443C3.91005 5.12977 3.79404 5.2338 3.68701 5.34582C3.1168 5.94259 2.87656 6.69463 2.71479 7.26681C2.3865 8.31118 1.86774 10.3384 1.43488 12.0867C1.21672 12.9678 1.0187 13.7849 0.875237 14.3817C0.85589 14.4621 0.837534 14.5386 0.820253 14.6107C0.781455 14.6939 0.744905 14.7782 0.710658 14.8637C0.47239 15.4582 0.350006 16.0947 0.350006 16.7369C0.350006 17.3792 0.47239 18.0157 0.710658 18.6102C0.948938 19.2047 1.29873 19.7463 1.74106 20.2034C2.18344 20.6606 2.70979 21.0245 3.29063 21.2731C3.87153 21.5218 4.49491 21.6501 5.12501 21.6501C5.7551 21.6501 6.37848 21.5218 6.95938 21.2731C7.54022 21.0245 8.06657 20.6606 8.50895 20.2034C8.95128 19.7463 9.30107 19.2047 9.53935 18.6102C9.70917 18.1865 9.82012 17.7415 9.86985 17.2882C10.3948 17.6074 11.0985 17.8606 12.0002 17.8606C12.9017 17.8606 13.6052 17.6075 14.1302 17.2884C14.1799 17.7416 14.2909 18.1866 14.4607 18.6102C14.6989 19.2047 15.0487 19.7463 15.4911 20.2034C15.9334 20.6606 16.4598 21.0245 17.0406 21.2731C17.6215 21.5218 18.2449 21.6501 18.875 21.6501C19.5051 21.6501 20.1285 21.5218 20.7094 21.2731C21.2902 21.0245 21.8166 20.6606 22.2589 20.2034C22.7013 19.7463 23.0511 19.2047 23.2894 18.6102C23.5276 18.0157 23.65 17.3792 23.65 16.7369C23.65 16.2189 23.5704 15.7046 23.4146 15.2131L23.384 15.0883C23.3427 14.9195 23.283 14.6763 23.2095 14.3781C23.0626 13.7817 22.8604 12.9651 22.6395 12.0847C22.1992 10.3294 21.6804 8.30317 21.3782 7.27026L21.3757 7.26171L21.373 7.25323C21.1916 6.69077 20.9379 5.93946 20.3707 5.34582C20.2448 5.21412 20.1069 5.09328 19.9558 4.98457C19.948 4.94301 19.938 4.89935 19.9252 4.85338C19.7228 3.41897 18.4964 2.3501 17.0417 2.3501C15.3793 2.3501 14.1 3.70357 14.1 5.36852C14.1 5.69872 14.1545 6.02123 14.2417 6.31885C14.2168 6.34881 14.1925 6.37807 14.169 6.40642C14.14 6.44137 14.1121 6.47494 14.0856 6.50676C13.9971 6.61286 13.9244 6.6978 13.862 6.7652C13.3388 6.40826 12.701 6.18697 12.046 6.18697C11.4115 6.18697 10.7344 6.39671 10.2122 6.76756C10.1495 6.70043 10.0764 6.61508 9.98706 6.50764C9.95685 6.4713 9.92481 6.43246 9.89123 6.39177C9.85476 6.34756 9.81649 6.30117 9.77682 6.25344ZM8.40048 6.6521C8.45342 6.82098 8.57461 6.96721 8.74595 7.04702C8.79112 7.10114 8.83532 7.15471 8.87949 7.20825C8.91532 7.25168 8.95113 7.29509 8.98743 7.33874C9.11157 7.48806 9.24594 7.6459 9.38067 7.77573C9.5051 7.89564 9.69422 8.05683 9.93867 8.13165C10.244 8.2251 10.5585 8.16178 10.8102 7.95371L10.8233 7.9429L10.8358 7.93143C11.118 7.67212 11.5985 7.48697 12.046 7.48697C12.4727 7.48697 12.9224 7.65872 13.276 7.94885C13.3833 8.04128 13.5193 8.11933 13.6835 8.15442C13.8537 8.19078 14.0126 8.17211 14.1463 8.12978C14.3874 8.0534 14.5739 7.89073 14.6944 7.77343C14.8265 7.64489 14.9598 7.48816 15.0838 7.33962C15.1147 7.30251 15.1455 7.26544 15.1763 7.22828C15.2588 7.12886 15.3418 7.0289 15.4302 6.9263C15.4575 6.9 15.4822 6.87152 15.5043 6.84125C16.0792 6.18898 16.7328 5.6396 17.6377 5.6396C18.2242 5.6396 18.6405 5.74062 18.9461 5.89061C18.9926 5.92521 19.044 5.95372 19.099 5.97497C19.2316 6.057 19.3398 6.14874 19.4308 6.2439C19.7671 6.59588 19.9487 7.07317 20.133 7.64381C20.4271 8.65052 20.9379 10.6443 21.3786 12.401C21.3938 12.4618 21.409 12.5222 21.424 12.5823C21.1974 12.4351 20.9584 12.3073 20.7094 12.2007C20.1285 11.9521 19.5051 11.8238 18.875 11.8238C18.2449 11.8238 17.6215 11.9521 17.0406 12.2007C16.4598 12.4494 15.9334 12.8132 15.4911 13.2704C15.0487 13.7276 14.6989 14.2692 14.4607 14.8637C14.401 15.0126 14.3485 15.1642 14.3035 15.3179C14.2737 15.3525 14.2472 15.3907 14.2246 15.4325L14.2236 15.4341C14.2214 15.438 14.2163 15.4466 14.2083 15.4594C14.1923 15.4849 14.1648 15.5263 14.1251 15.5785C14.0455 15.6834 13.9193 15.8283 13.7418 15.9742C13.3931 16.2606 12.8362 16.5606 12.0002 16.5606C11.1642 16.5606 10.6073 16.2606 10.2586 15.9742C10.0811 15.8283 9.95493 15.6834 9.87525 15.5785C9.8356 15.5263 9.80809 15.4849 9.79206 15.4594C9.78407 15.4466 9.779 15.438 9.77676 15.4341M9.7774 15.4354L9.77676 15.4341L9.77554 15.432M9.77554 15.432C9.73054 15.2786 9.59896 15.0124 9.53935 14.8637C9.30107 14.2692 8.95128 13.7276 8.50895 13.2704C8.06657 12.8132 7.54022 12.4494 6.95938 12.2007C6.37848 11.9521 5.7551 11.8238 5.12501 11.8238C4.49492 11.8238 3.87153 11.9521 3.29063 12.2007C3.07417 12.2934 2.86528 12.4021 2.66548 12.5256C2.67586 12.4836 2.68629 12.4414 2.69677 12.3991C3.13345 10.6355 3.64412 8.64333 3.95766 7.64806L3.96061 7.63872L3.96327 7.6293C4.1223 7.06578 4.29506 6.59123 4.62693 6.2439C4.93122 5.92544 5.44511 5.6396 6.45437 5.6396C7.26937 5.6396 7.87188 6.08523 8.40048 6.6521M1.90781 15.6547L1.96984 15.3934C1.99189 15.3008 2.01937 15.1856 2.05157 15.051C2.21562 14.7277 2.42593 14.4322 2.67532 14.1744C2.99902 13.8399 3.38215 13.5757 3.80224 13.3958C4.22228 13.216 4.67169 13.1238 5.12501 13.1238C5.57832 13.1238 6.02773 13.216 6.44777 13.3958C6.86787 13.5757 7.25099 13.8399 7.57469 14.1744C7.89844 14.509 8.15634 14.9074 8.33266 15.3473C8.509 15.7873 8.60001 16.2595 8.60001 16.7369C8.60001 17.2143 8.509 17.6866 8.33266 18.1266C8.15634 18.5665 7.89844 18.9649 7.57469 19.2995C7.25099 19.634 6.86787 19.8982 6.44777 20.078C6.02773 20.2578 5.57832 20.3501 5.12501 20.3501C4.67169 20.3501 4.22228 20.2578 3.80224 20.078C3.38215 19.8982 2.99902 19.634 2.67532 19.2995C2.35157 18.9649 2.09367 18.5665 1.91735 18.1266C1.74102 17.6866 1.65001 17.2143 1.65001 16.7369C1.65001 16.4786 1.67665 16.2218 1.72904 15.9708C1.81464 15.8875 1.87832 15.7796 1.90781 15.6547ZM14.2222 15.437L14.223 15.4354L14.2236 15.4341M22.1629 15.5676C22.1385 15.4934 22.1118 15.4199 22.0827 15.3473C21.9063 14.9074 21.6484 14.509 21.3247 14.1744C21.001 13.8399 20.6179 13.5757 20.1978 13.3958C19.7777 13.216 19.3283 13.1238 18.875 13.1238C18.4217 13.1238 17.9723 13.216 17.5522 13.3958C17.1321 13.5757 16.749 13.8399 16.4253 14.1744C16.1016 14.509 15.8437 14.9074 15.6673 15.3473C15.491 15.7873 15.4 16.2595 15.4 16.7369C15.4 17.2143 15.491 17.6866 15.6673 18.1266C15.8437 18.5665 16.1016 18.9649 16.4253 19.2995C16.749 19.634 17.1321 19.8982 17.5522 20.078C17.9723 20.2578 18.4217 20.3501 18.875 20.3501C19.3283 20.3501 19.7777 20.2578 20.1978 20.078C20.6179 19.8982 21.001 19.634 21.3247 19.2995C21.6484 18.9649 21.9063 18.5665 22.0827 18.1266C22.259 17.6866 22.35 17.2143 22.35 16.7369C22.35 16.4096 22.3072 16.0847 22.2235 15.771C22.2077 15.7356 22.1949 15.6983 22.1854 15.6593L22.1629 15.5676ZM18.3994 4.39093C18.1629 4.35715 17.9094 4.3396 17.6377 4.3396C16.7138 4.3396 15.9843 4.69483 15.4142 5.13355C15.5207 4.26712 16.2107 3.6501 17.0417 3.6501C17.6083 3.6501 18.1114 3.94198 18.3994 4.39093ZM10.5606 12.438C10.9386 12.0474 11.4559 11.8238 12 11.8238C12.5441 11.8238 13.0614 12.0474 13.4394 12.438C13.8167 12.8279 14.025 13.3523 14.025 13.8948C14.025 14.4373 13.8167 14.9617 13.4394 15.3517C13.0614 15.7423 12.5441 15.9659 12 15.9659C11.4559 15.9659 10.9386 15.7423 10.5606 15.3517C10.1833 14.9617 9.97501 14.4373 9.97501 13.8948C9.97501 13.3523 10.1833 12.8279 10.5606 12.438ZM12 13.1238C11.8148 13.1238 11.6326 13.1996 11.4949 13.342C11.3564 13.4851 11.275 13.6836 11.275 13.8948C11.275 14.1061 11.3564 14.3046 11.4949 14.4477C11.6326 14.59 11.8148 14.6659 12 14.6659C12.1852 14.6659 12.3674 14.59 12.5052 14.4477C12.6436 14.3046 12.725 14.1061 12.725 13.8948C12.725 13.6836 12.6436 13.4851 12.5052 13.342C12.3674 13.1996 12.1852 13.1238 12 13.1238Z" fill="#F85454"/>
</svg>
