<svg width="24" height="24" viewBox="0 0 24 24" fill="none" xmlns="http://www.w3.org/2000/svg">
<g clip-path="url(#clip0_22148_274707)">
<path d="M4.59554 21.5718C3.55316 21.4534 2.67662 21.3112 2.06067 21.1454C1.56317 21.0032 1.2552 20.8374 1.13675 20.7663C1.13675 20.6479 1.11306 20.2688 1.2552 19.7713C1.42103 19.1554 1.70532 18.3262 2.10805 17.3549C2.88983 15.5071 4.07435 13.138 5.44839 10.7216C5.89851 9.93985 6.37231 9.13438 6.91719 8.23415L6.98826 8.1157L6.06434 7.52344L5.99327 7.66558C5.40101 8.61319 4.9272 9.41867 4.50078 10.2004C3.10305 12.6169 1.89484 15.0333 1.08937 16.9048C0.662942 17.9235 0.354967 18.8 0.189135 19.4871C-0.000387821 20.2452 -0.11884 20.79 0.189135 21.3112C0.497109 21.8324 1.0183 21.9982 1.77639 22.1878C2.46341 22.3773 3.36364 22.5194 4.47709 22.6379C6.18279 22.8274 8.38599 22.9222 10.8261 22.9459H10.9919V21.8561H10.8498C8.43337 21.8561 6.27755 21.7376 4.59554 21.5718Z" fill="#8A9EA2"/>
<path d="M7.32312 7.56935C7.46526 7.35614 7.58371 7.14293 7.72586 6.9534L7.84431 6.78757L6.92038 6.19531L6.80193 6.36114C6.65979 6.57436 6.54134 6.76388 6.3992 7.00078L6.32812 7.11924L7.25205 7.71149L7.32312 7.56935Z" fill="#8A9EA2"/>
<path d="M21.6033 16.6901C21.6744 16.8559 21.7455 17.0217 21.8165 17.1639L21.8876 17.3297L22.8115 16.7374L22.7642 16.619C22.6931 16.4295 22.5983 16.2399 22.5036 16.0504L22.3614 15.7188L21.4375 16.3347L21.6033 16.6901Z" fill="#8A9EA2"/>
<path d="M18.3852 10.6052C19.4276 12.382 20.3989 14.1587 21.157 15.7223L21.2281 15.8881L22.152 15.2959L22.0809 15.1774C21.3228 13.6139 20.3752 11.8608 19.3091 10.084C17.8877 7.64389 16.3952 5.417 15.1633 3.75867C14.5 2.88213 13.8841 2.17142 13.3866 1.67392C12.8417 1.10536 12.4389 0.75 11.8467 0.75C11.2544 0.75 10.828 1.15274 10.2831 1.67392C9.78563 2.17142 9.21706 2.85844 8.55373 3.78236C8.19837 4.27986 7.77195 4.89581 7.27445 5.63021L7.17969 5.74866L8.10361 6.34092L8.19837 6.22247C8.69587 5.48807 9.07492 4.89581 9.43027 4.422C10.0462 3.56915 10.6148 2.90582 11.0649 2.43201C11.4203 2.07666 11.7519 1.88714 11.8704 1.83976C11.9888 1.88714 12.2968 2.07666 12.6758 2.43201C13.126 2.88213 13.7182 3.54546 14.3342 4.37462C15.5424 6.00926 16.9875 8.21246 18.3852 10.6052Z" fill="#8A9EA2"/>
<path d="M12.2268 21.8594L12.2032 21.9778L12.2268 21.8594C12.1558 21.8594 12.0847 21.8594 12.0136 21.8594C11.9189 21.8594 11.8241 21.8594 11.753 21.8594H11.4688V22.9491H11.6109H11.8241H12.0373C12.0847 22.9491 12.1321 22.9491 12.1795 22.9491H12.2032C12.2742 22.9491 12.3453 22.9491 12.3927 22.9491H12.5585V21.8594H12.3927C12.3453 21.8594 12.2742 21.8594 12.2268 21.8594Z" fill="#8A9EA2"/>
<path d="M23.7869 19.2962C23.6448 18.7987 23.4316 18.1591 23.0762 17.3299L23.0051 17.1641L22.0812 17.78L22.1286 17.8985C22.4129 18.6329 22.6261 19.1777 22.7209 19.5805C22.863 20.078 22.863 20.4333 22.8393 20.5755C22.7445 20.6465 22.4129 20.8361 21.9391 20.9782C21.3231 21.144 20.4466 21.3099 19.4042 21.452C17.7222 21.6652 15.5664 21.8074 13.15 21.8547H13.0078V22.9445H13.1736C15.6374 22.8971 17.8406 22.755 19.57 22.5418C20.6835 22.3996 21.5837 22.2338 22.247 22.0443C23.0051 21.8311 23.5263 21.6415 23.8343 21.1203C24.1186 20.5992 24.0001 20.078 23.7869 19.2962Z" fill="#8A9EA2"/>
<path d="M15.9758 11.1061C15.8946 11.0516 15.791 11.0409 15.6998 11.077C15.6796 11.0853 13.7281 11.8576 12.0876 11.0842C10.6792 10.419 9.12807 10.73 8.40729 10.9402V10.7596C8.40729 10.5961 8.27462 10.4635 8.11116 10.4635C7.94769 10.4635 7.81503 10.5961 7.81503 10.7596V19.6435C7.81503 19.8069 7.94769 19.9396 8.11116 19.9396C8.27462 19.9396 8.40729 19.8069 8.40729 19.6435V16.299C8.93203 16.1278 10.4873 15.7209 11.8347 16.3576C12.4749 16.6603 13.1448 16.761 13.753 16.761C14.9227 16.761 15.8632 16.3884 15.9219 16.3647C16.0332 16.3191 16.1067 16.2107 16.1067 16.0899V11.3519C16.1067 11.2535 16.0575 11.1617 15.9758 11.1061ZM15.5144 15.8803C14.9867 16.0514 13.432 16.4565 12.087 15.8216C10.6792 15.1571 9.12807 15.4681 8.40729 15.6783V11.5615C8.93203 11.3904 10.4873 10.9835 11.8347 11.6201C13.2413 12.2841 14.7936 11.9737 15.5144 11.7629V15.8803Z" fill="#8A9EA2"/>
<path fill-rule="evenodd" clip-rule="evenodd" d="M16.1078 10.9094L16.1091 10.9103C16.2546 11.0093 16.3436 11.1739 16.3436 11.3519V16.0899C16.3436 16.3076 16.2113 16.5022 16.0117 16.584L16.0106 16.5844C15.9408 16.6126 14.9672 16.9979 13.753 16.9979C13.1196 16.9979 12.4132 16.8931 11.7335 16.5718C10.5888 16.0309 9.26391 16.2949 8.64419 16.474V19.6435C8.64419 19.9378 8.40546 20.1765 8.11116 20.1765C7.81686 20.1765 7.57812 19.9378 7.57812 19.6435V10.7596C7.57812 10.4653 7.81686 10.2266 8.11116 10.2266C8.36276 10.2266 8.57375 10.401 8.62967 10.6356C9.44935 10.4355 10.8712 10.2478 12.1886 10.8699M8.64419 10.876C8.55775 10.8977 8.47847 10.9195 8.40729 10.9402V10.7596C8.40729 10.7377 8.4049 10.7163 8.40038 10.6958C8.37117 10.563 8.25271 10.4635 8.11116 10.4635C7.94769 10.4635 7.81503 10.5961 7.81503 10.7596V19.6435C7.81503 19.8069 7.94769 19.9396 8.11116 19.9396C8.27462 19.9396 8.40729 19.8069 8.40729 19.6435V16.299C8.93203 16.1278 10.4873 15.7209 11.8347 16.3576C12.4749 16.6603 13.1448 16.761 13.753 16.761C14.9227 16.761 15.8632 16.3884 15.9219 16.3647C16.0332 16.3191 16.1067 16.2107 16.1067 16.0899V11.3519C16.1067 11.2535 16.0575 11.1617 15.9758 11.1061C15.8946 11.0516 15.791 11.0409 15.6998 11.077C15.6796 11.0853 13.7281 11.8576 12.0876 11.0842C10.8183 10.4847 9.43304 10.6781 8.64419 10.876ZM12.1886 10.8699C12.9503 11.2289 13.7958 11.2334 14.4685 11.1392C15.1274 11.0469 15.5958 10.8634 15.6093 10.8581L15.6096 10.858L15.6125 10.8568C15.7753 10.7923 15.9611 10.8108 16.1078 10.9094M11.7335 11.8343C10.5888 11.2934 9.26391 11.5574 8.64419 11.7366V15.3701C9.46607 15.1714 10.8789 14.9894 12.1881 15.6074L12.087 15.8216C10.8182 15.2227 9.43304 15.4162 8.64419 15.6141C8.55775 15.6358 8.47847 15.6575 8.40729 15.6783V11.5615C8.93203 11.3904 10.4873 10.9835 11.8347 11.6201C13.1024 12.2185 14.4885 12.0255 15.2775 11.8272C15.3639 11.8055 15.4432 11.7837 15.5144 11.7629V15.8803C14.9867 16.0514 13.432 16.4565 12.087 15.8216L12.1881 15.6074C13.331 16.1469 14.6556 15.884 15.2775 15.705V12.0712C14.4553 12.2703 13.0416 12.4518 11.7335 11.8343Z" fill="#8A9EA2"/>
</g>
<defs>
<clipPath id="clip0_22148_274707">
<rect width="24" height="24" fill="white"/>
</clipPath>
</defs>
</svg>
