<svg width="21" height="18" viewBox="0 0 21 18" fill="none" xmlns="http://www.w3.org/2000/svg">
<path d="M17.2096 2.45519C17.2043 2.44406 17.1954 2.43534 17.1846 2.43058C15.9336 1.81565 14.6136 1.37716 13.2573 1.12608C13.245 1.12362 13.2323 1.12539 13.221 1.13114C13.2096 1.13688 13.2003 1.1463 13.1943 1.15807C13.0145 1.50762 12.8513 1.86667 12.7053 2.23385C11.2434 1.99608 9.7564 1.99608 8.29449 2.23385C8.14755 1.86574 7.98175 1.5066 7.79787 1.15807C7.79156 1.14656 7.78217 1.13735 7.77091 1.13165C7.75965 1.12594 7.74704 1.124 7.73474 1.12608C6.37839 1.37663 5.05823 1.81516 3.80747 2.43062C3.79677 2.43548 3.78773 2.44379 3.78162 2.45439C1.28035 6.45651 0.595161 10.3602 0.931292 14.2156C0.932238 14.2251 0.934947 14.2342 0.93926 14.2425C0.943572 14.2508 0.949399 14.2581 0.956394 14.2639C2.41286 15.4194 4.04193 16.3013 5.77409 16.8722C5.78629 16.8761 5.79932 16.8759 5.81142 16.8716C5.82352 16.8674 5.83412 16.8593 5.84178 16.8484C6.21382 16.306 6.54346 15.7317 6.82737 15.1313C6.83128 15.123 6.8335 15.114 6.83391 15.1048C6.83432 15.0956 6.83289 15.0863 6.82973 15.0777C6.82658 15.0691 6.82175 15.0614 6.81558 15.0549C6.80941 15.0485 6.80204 15.0435 6.79394 15.0403C6.27411 14.8272 5.77085 14.5703 5.28889 14.272C5.28014 14.2665 5.27279 14.2588 5.26748 14.2495C5.26218 14.2402 5.2591 14.2297 5.2585 14.2188C5.2579 14.208 5.2598 14.1971 5.26404 14.1872C5.26829 14.1773 5.27474 14.1687 5.28282 14.1621C5.38395 14.081 5.48515 13.9965 5.58171 13.9112C5.59029 13.9037 5.60067 13.8988 5.61169 13.8972C5.6227 13.8956 5.63391 13.8974 5.64406 13.9022C8.80157 15.4462 12.22 15.4462 15.3402 13.9022C15.3503 13.897 15.3617 13.8951 15.3728 13.8965C15.384 13.898 15.3946 13.9028 15.4033 13.9104C15.4999 13.9957 15.6011 14.081 15.7029 14.1621C15.7111 14.1686 15.7176 14.1772 15.7219 14.1871C15.7262 14.1969 15.7282 14.2077 15.7276 14.2186C15.7271 14.2295 15.7241 14.24 15.7189 14.2493C15.7136 14.2587 15.7063 14.2664 15.6976 14.272C15.2168 14.5728 14.713 14.8295 14.1919 15.0395C14.1838 15.0428 14.1764 15.0479 14.1703 15.0544C14.1641 15.061 14.1594 15.0689 14.1563 15.0775C14.1532 15.0862 14.1518 15.0955 14.1523 15.1047C14.1528 15.114 14.1551 15.123 14.159 15.1313C14.4477 15.7284 14.7769 16.302 15.1439 16.8474C15.1513 16.8586 15.1619 16.867 15.174 16.8714C15.1862 16.8759 15.1993 16.8761 15.2116 16.872C16.9468 16.3032 18.5788 15.4211 20.037 14.2639C20.0441 14.2584 20.0501 14.2513 20.0544 14.2431C20.0587 14.2349 20.0614 14.2258 20.0621 14.2164C20.4646 9.75919 19.3884 5.88747 17.2096 2.45519ZM7.29892 11.8681C6.34828 11.8681 5.56498 10.9334 5.56498 9.78545C5.56498 8.63753 6.33309 7.70276 7.29892 7.70276C8.27231 7.70276 9.04803 8.64565 9.03284 9.78538C9.03284 10.9334 8.26469 11.8681 7.29892 11.8681ZM13.7098 11.8681C12.7592 11.8681 11.9759 10.9334 11.9759 9.78545C11.9759 8.63753 12.744 7.70276 13.7098 7.70276C14.6833 7.70276 15.459 8.64565 15.4438 9.78538C15.4438 10.9334 14.6833 11.8681 13.7098 11.8681Z" fill="white"/>
</svg>
