<svg width="24" height="24" viewBox="0 0 24 24" fill="none" xmlns="http://www.w3.org/2000/svg">
<path fill-rule="evenodd" clip-rule="evenodd" d="M5.19777 1.31988C5.32074 1.1589 5.51173 1.06445 5.7143 1.06445H18.2857C18.4883 1.06445 18.6793 1.1589 18.8023 1.31988L21.9451 5.43416C22.0317 5.54749 22.0786 5.68613 22.0786 5.82874V20.2287C22.0786 20.9506 21.7864 21.6404 21.2703 22.1472C20.7546 22.6535 20.0576 22.9359 19.3334 22.9359H4.66669C3.94241 22.9359 3.24546 22.6535 2.72975 22.1472C2.21363 21.6404 1.92145 20.9506 1.92145 20.2287V5.82874C1.92145 5.68613 1.96834 5.54749 2.05491 5.43416L5.19777 1.31988ZM6.03573 2.36445L3.88592 5.17874H20.1141L17.9643 2.36445H6.03573ZM20.7786 6.47874H3.22145V20.2287C3.22145 20.598 3.37076 20.9547 3.64051 21.2195C3.91067 21.4848 4.27958 21.6359 4.66669 21.6359H19.3334C19.7205 21.6359 20.0894 21.4848 20.3595 21.2195C20.6293 20.9547 20.7786 20.598 20.7786 20.2287V6.47874ZM7.80954 9.29302C8.16853 9.29302 8.45954 9.58404 8.45954 9.94302C8.45954 10.8579 8.8296 11.7378 9.49229 12.3884C10.1554 13.0395 11.0572 13.4073 12 13.4073C12.9428 13.4073 13.8447 13.0395 14.5078 12.3884C15.1704 11.7378 15.5405 10.8579 15.5405 9.94302C15.5405 9.58404 15.8315 9.29302 16.1905 9.29302C16.5495 9.29302 16.8405 9.58404 16.8405 9.94302C16.8405 11.2105 16.3276 12.4236 15.4185 13.3161C14.5099 14.2082 13.28 14.7073 12 14.7073C10.7201 14.7073 9.49017 14.2082 8.58152 13.3161C7.67247 12.4236 7.15954 11.2105 7.15954 9.94302C7.15954 9.58404 7.45056 9.29302 7.80954 9.29302Z" fill="#F85454"/>
</svg>
