<svg width="24" height="24" viewBox="0 0 24 24" fill="none" xmlns="http://www.w3.org/2000/svg">
<path fill-rule="evenodd" clip-rule="evenodd" d="M11.4992 0.500122C11.7569 0.289685 12.2415 0.289676 12.4992 0.500113L21.4379 8.80394L23.4331 10.3751C23.7368 10.6143 23.7891 11.0544 23.5499 11.3582C23.3107 11.6619 22.8706 11.7142 22.5669 11.475L21.7 10.7923V22.9992C21.7 23.3858 21.3866 23.7001 21 23.7001H3.00069C2.61421 23.7001 2.30086 23.3869 2.30069 23.0004L2.29999 10.7923L1.43307 11.475C1.12934 11.7142 0.689226 11.6619 0.450041 11.3582C0.210857 11.0544 0.263178 10.6143 0.566905 10.3751L2.56202 8.80397L11.4992 0.500122ZM3.69999 9.68218L3.70039 22.3001H8.29999V14.0001C8.29999 13.6135 8.61339 13.3001 8.99999 13.3001H15C15.1856 13.3001 15.3637 13.3738 15.495 13.5051C15.6262 13.6364 15.7 13.8144 15.7 14.0001L15.7 22.3001H20.2992L20.3 9.68218L11.9992 2.00012L3.69999 9.68218ZM14.3 22.3001L14.3 14.7001H9.69999V22.3001H14.3Z" fill="#F85454"/>
</svg>
