<svg width="32" height="32" viewBox="0 0 32 32" fill="none" xmlns="http://www.w3.org/2000/svg">
<path d="M25.9 13.7C25.4 13.7 24.9 13.8 24.4 13.9H24.2L22.4 9.1H26C26.6 9.1 27.1 9.6 27.1 10.2C27.1 10.8 26.6 11.3 26 11.3C25.7 11.3 25.4 11.6 25.4 11.9C25.4 12.2 25.7 12.5 26 12.5C27.2 12.5 28.3 11.5 28.3 10.2C28.3 8.9 27.3 7.9 26 7.9H21.5L21.4 7.7V7.9C21.4 7.9 21.4 7.9 21.3 7.9L21.2 8L21 8.2V8.4C21 8.4 21 8.4 21 8.5L20.7 8.7L21 8.6L21.9 11L12.5 11.2L11.6 8.2H13.5C13.8 8.2 14.1 7.9 14.1 7.6C14.1 7.3 13.8 7 13.5 7H9C8.7 7 8.4 7.3 8.4 7.6C8.4 7.9 8.7 8.2 9 8.2H10.3L11.4 11.6L9.3 14.4H9.1C8.2 13.9 7.2 13.6 6.1 13.6C2.8 13.6 0 16.3 0 19.7C0 23.1 2.8 25.8 6.1 25.8C9.2 25.8 11.8 23.5 12.2 20.4V20.2H12.7V20.3C12.8 20.6 13 20.8 13.2 21L13.3 21.1L13 22.2C13 22.4 13 22.5 13 22.7C13.1 22.8 13.2 22.9 13.4 23C13.5 23 13.7 23 13.8 22.9C13.9 22.8 14.1 22.7 14.1 22.5L14.4 21.4H14.5C15.3 21.3 16 20.5 16 19.7C16 19.5 16 19.3 15.9 19.1V19L22.3 12.4L23 14.2V14.4C21 15.5 19.8 17.5 19.8 19.8C19.8 23.2 22.6 26 25.9 26C29.3 26 32 23.2 32 19.8C32 16.4 29.3 13.7 25.9 13.7ZM23.6 15.5L25.4 20.1C25.5 20.2 25.6 20.4 25.7 20.4C25.9 20.5 26 20.5 26.1 20.4C26.3 20.3 26.4 20.2 26.4 20.1C26.5 20 26.5 19.8 26.4 19.6L24.7 15H24.9C25.2 14.9 25.5 14.9 25.9 14.9C28.6 14.9 30.8 17.1 30.8 19.8C30.8 21.1 30.3 22.4 29.4 23.3C28.5 24.2 27.2 24.7 25.9 24.7C23.2 24.7 21 22.5 21 19.8C21 18 21.9 16.5 23.4 15.6L23.6 15.5ZM9.7 16.3C10.4 17 10.9 17.9 11 18.9V19.1H7.3L9.5 16.1L9.7 16.3ZM11.8 13L13.5 18.4L13.4 18.5C13.2 18.7 13 18.8 12.9 19.1L12.8 19.2H12.2V19C12 17.6 11.4 16.3 10.3 15.3L10.2 15.2L11.8 13ZM5.6 20C5.7 20.2 5.9 20.3 6.1 20.3H11V20.5C10.6 22.9 8.5 24.6 6.1 24.6C3.4 24.6 1.2 22.4 1.2 19.7C1.2 17 3.4 14.8 6.1 14.8C6.9 14.8 7.6 15 8.3 15.3L8.5 15.4L5.6 19.4C5.5 19.6 5.5 19.8 5.6 20ZM14.8 16.8C14.8 16.9 14.7 16.9 14.7 17L14.5 17.5L12.9 12.4L21.1 12.2L15.9 17.6V17.1C15.9 16.8 15.7 16.6 15.5 16.5C15.4 16.5 15.4 16.5 15.3 16.5C15.1 16.6 14.9 16.7 14.8 16.8ZM14.4 19.3C14.7 19.3 14.9 19.5 14.9 19.8C14.9 19.9 14.8 20.1 14.7 20.2C14.6 20.3 14.5 20.4 14.3 20.4C14 20.4 13.8 20.2 13.8 19.9C13.9 19.5 14.2 19.3 14.4 19.3Z" fill="#0C353E"/>
</svg>
