<svg width="32" height="32" viewBox="0 0 32 32" fill="none" xmlns="http://www.w3.org/2000/svg">
<path d="M30.2503 18.6124C30.1148 18.3697 29.8012 18.2941 29.5699 18.4483C29.0694 16.947 27.7825 15.7317 27.3179 15.5173C27.175 15.4456 26.7817 15.2671 24.3508 16.0535L22.8851 15.839C22.8851 15.7674 22.8851 15.6961 22.8851 15.6601L22.9207 15.1955L22.4561 15.1599C21.3837 15.0527 20.3113 14.8026 19.3462 14.4092L19.4912 14.1046C19.6086 13.858 19.5044 13.563 19.2582 13.4448C19.0109 13.3261 18.7142 13.4308 18.5963 13.6785L18.4526 13.9803C18.0237 13.7302 17.6304 13.5157 17.2374 13.2296L17.5303 12.8817C17.6869 12.6958 17.6714 12.4199 17.4949 12.2527C17.299 12.0671 16.986 12.0896 16.8187 12.3015L16.5939 12.5862C16.2006 12.2288 15.8789 11.8711 15.5216 11.4781L15.7693 11.2992C15.9876 11.1416 16.0363 10.8366 15.878 10.6189C15.7205 10.4023 15.4175 10.3538 15.2003 10.5103L14.9494 10.6911C14.6633 10.2978 14.4488 9.90482 14.2703 9.43987L14.4968 9.34446C14.7456 9.23965 14.8603 8.95136 14.7515 8.70428C14.6437 8.45931 14.3573 8.3486 14.1127 8.45734L13.9126 8.54632C13.7697 8.11736 13.6265 7.72403 13.5193 7.25945C13.4778 7.03167 13.2794 6.86612 13.0479 6.86612H2.83256C2.56136 6.86612 2.3471 7.09618 2.36635 7.36669C2.58083 11.7635 1.9374 13.0864 1.36557 14.3373C0.758118 15.6241 0.150301 16.8398 0.507648 20.772C0.310293 20.772 0.150305 20.932 0.150305 21.1293V24.1311C0.150305 24.6846 0.598929 25.1332 1.15234 25.1332H2.93854C3.27422 25.1332 3.54635 24.8611 3.54635 24.5254H5.01207C5.01207 24.8611 5.28419 25.1332 5.61987 25.1332H7.8003C8.13599 25.1332 8.40811 24.8611 8.40811 24.5254H9.87383C9.87383 24.8611 10.146 25.1332 10.4816 25.1332H12.6621C12.9978 25.1332 13.2699 24.8611 13.2699 24.5254H14.7356C14.7356 24.8611 15.0077 25.1332 15.3434 25.1332H17.5238C17.8595 25.1332 18.1316 24.8611 18.1316 24.5254H19.5974C19.5974 24.8611 19.8695 25.1332 20.2052 25.1332H22.35C22.7053 25.1332 22.9934 24.8451 22.9934 24.4897L24.5664 24.3469C24.6674 24.67 24.9995 24.8616 25.3298 24.7873L27.2837 24.3482C27.6391 24.2683 27.8629 23.9159 27.7839 23.5602L29.178 23.024C29.3787 23.3451 29.7948 23.4539 30.127 23.2723L31.3283 22.6153C31.8169 22.348 31.9938 21.7337 31.7223 21.2475L30.2503 18.6124ZM24.4581 17.0183L24.5653 16.9826C25.4948 16.6609 26.6745 16.3748 26.9602 16.4108C27.2819 16.5896 28.3543 17.6977 28.7476 18.9845C27.1747 19.9497 25.1731 20.8076 22.3133 20.8076H15.5572C15.7 20.2714 15.9861 19.8425 16.3435 19.5924C17.3443 18.9133 19.1673 19.235 21.062 19.6996L21.2765 19.7352L21.4554 19.5924C22.1704 19.0918 22.5634 17.7693 22.7422 16.8041L24.4581 17.0183ZM2.25947 14.7662C2.8313 13.4793 3.54635 12.0852 3.40348 7.86691H12.6621C13.1983 10.0117 14.3779 11.8704 15.9509 13.3361L16.7015 13.9439C18.1673 15.0879 19.9544 15.8386 21.8847 16.0887C21.7418 17.0539 21.4557 18.2335 21.0624 18.6981C19.0248 18.2691 17.0945 17.9474 15.8433 18.8053C15.2355 19.2343 14.8065 19.9134 14.592 20.8073H1.54442C1.18707 17.0899 1.65166 16.0175 2.25947 14.7662ZM29.9636 22.309C29.7742 22.0357 29.4235 21.9258 29.112 22.0422L27.1943 22.7583C26.8994 22.8684 26.7363 23.1844 26.8173 23.4886L25.4588 23.8103C25.3757 23.54 25.1137 23.3657 24.8323 23.3936L22.6322 23.6112C22.3093 23.6431 22.0632 23.9148 22.0632 24.2393H20.5974C20.5974 23.9036 20.3253 23.6315 19.9896 23.6315H17.8096C17.4739 23.6315 17.2017 23.9036 17.2017 24.2393H15.736C15.736 23.9036 15.4639 23.6315 15.1282 23.6315H12.9122C12.5765 23.6315 12.3044 23.9036 12.3044 24.2393H10.8743C10.8743 23.9036 10.6021 23.6315 10.2664 23.6315H8.08604C7.75035 23.6315 7.47822 23.9036 7.47822 24.2393H6.0125C6.0125 23.9036 5.74037 23.6315 5.40468 23.6315H3.22428C2.88859 23.6315 2.61646 23.9036 2.61646 24.2393H1.18707V21.7728H22.3136C25.6381 21.7728 27.9261 20.7004 29.6775 19.5564L30.9644 21.7728L29.9636 22.309Z" fill="#0C353E"/>
<path fill-rule="evenodd" clip-rule="evenodd" d="M22.8851 15.6601V15.839L24.3508 16.0535C26.7817 15.2671 27.175 15.4456 27.3179 15.5173C27.7674 15.7248 28.9867 16.8692 29.5188 18.3031C29.5366 18.3512 29.5537 18.3996 29.5699 18.4483C29.6134 18.4194 29.6598 18.3985 29.7073 18.3853C29.9128 18.3285 30.1403 18.4153 30.2503 18.6124L31.7223 21.2475C31.9938 21.7337 31.8169 22.348 31.3283 22.6153L30.127 23.2723C29.7948 23.4539 29.3787 23.3451 29.178 23.024L27.7839 23.5602C27.8629 23.9159 27.6391 24.2683 27.2837 24.3482L25.3298 24.7873C24.9995 24.8616 24.6674 24.67 24.5664 24.3469L22.9934 24.4897C22.9934 24.8451 22.7053 25.1332 22.35 25.1332H20.2052C19.8695 25.1332 19.5974 24.8611 19.5974 24.5254H18.1316C18.1316 24.8611 17.8595 25.1332 17.5238 25.1332H15.3434C15.0077 25.1332 14.7356 24.8611 14.7356 24.5254H13.2699C13.2699 24.8611 12.9978 25.1332 12.6621 25.1332H10.4816C10.146 25.1332 9.87383 24.8611 9.87383 24.5254H8.40811C8.40811 24.8611 8.13599 25.1332 7.8003 25.1332H5.61987C5.28419 25.1332 5.01207 24.8611 5.01207 24.5254H3.54635C3.54635 24.8611 3.27422 25.1332 2.93854 25.1332H1.15234C0.598929 25.1332 0.150305 24.6846 0.150305 24.1311V21.1293C0.150305 20.9542 0.276275 20.8085 0.442545 20.7779C0.463655 20.774 0.485414 20.772 0.507648 20.772C0.50306 20.7215 0.498631 20.6715 0.494358 20.6219C0.170871 16.8661 0.748006 15.6445 1.33841 14.3948C1.34746 14.3756 1.35652 14.3565 1.36557 14.3373C1.37517 14.3163 1.38479 14.2952 1.39443 14.2742C1.95876 13.0411 2.57723 11.6897 2.36635 7.36669C2.3471 7.09618 2.56136 6.86612 2.83256 6.86612H13.0479C13.2794 6.86612 13.4778 7.03167 13.5193 7.25945C13.6082 7.64454 13.7218 7.98068 13.8394 8.32874C13.8478 8.35349 13.8562 8.37829 13.8646 8.40318C13.8805 8.45055 13.8966 8.49821 13.9126 8.54632L14.1127 8.45734C14.3573 8.3486 14.6437 8.45931 14.7515 8.70428C14.8603 8.95136 14.7456 9.23965 14.4968 9.34446L14.2703 9.43987C14.4302 9.85652 14.6191 10.2154 14.8625 10.5685C14.8805 10.5946 14.8988 10.6207 14.9175 10.6469C14.928 10.6616 14.9386 10.6764 14.9494 10.6911L15.2003 10.5103C15.4175 10.3538 15.7205 10.4023 15.878 10.6189C16.0363 10.8366 15.9876 11.1416 15.7693 11.2992L15.5216 11.4781C15.5385 11.4968 15.5554 11.5153 15.5722 11.5338C15.5893 11.5526 15.6063 11.5714 15.6233 11.5901C15.9076 11.9027 16.1753 12.1945 16.4832 12.4838C16.5195 12.518 16.5564 12.5521 16.5939 12.5862L16.8187 12.3015C16.986 12.0896 17.299 12.0671 17.4949 12.2527C17.6714 12.4199 17.6869 12.6958 17.5303 12.8817L17.2374 13.2296C17.2784 13.2594 17.3193 13.2885 17.3604 13.3169C17.6445 13.5136 17.9308 13.6787 18.2324 13.8528C18.2622 13.8699 18.2921 13.8872 18.3222 13.9046C18.3653 13.9295 18.4088 13.9547 18.4526 13.9803L18.5963 13.6785C18.7142 13.4308 19.0109 13.3261 19.2582 13.4448C19.5044 13.563 19.6086 13.858 19.4912 14.1046L19.3462 14.4092C19.3926 14.4281 19.4392 14.4467 19.4861 14.465C20.4145 14.8263 21.4353 15.0578 22.4561 15.1599L22.9207 15.1955L22.8851 15.6601ZM22.4694 15.0102L23.0821 15.0572L23.0354 15.6656V15.709L24.3379 15.8997C25.5366 15.5133 26.245 15.3601 26.6765 15.3142C26.8948 15.2909 27.047 15.2946 27.1586 15.3117C27.2724 15.3291 27.3389 15.3597 27.3831 15.3818C27.5181 15.4446 27.6973 15.5711 27.8937 15.7409C28.0936 15.9137 28.3189 16.1381 28.5447 16.4026C28.9648 16.8947 29.3918 17.5324 29.6569 18.2434C29.9298 18.1627 30.2349 18.2766 30.3815 18.5391L31.8535 21.1742C32.1658 21.7333 31.9623 22.4398 31.4004 22.7471L30.1991 23.4042C29.8345 23.6035 29.3863 23.5137 29.1249 23.2055L27.9488 23.6579C27.9712 24.0472 27.7094 24.4066 27.3167 24.4948L25.3627 24.934C24.997 25.0162 24.6295 24.8337 24.4688 24.5067L23.1317 24.6281C23.0662 25.0005 22.7411 25.2835 22.35 25.2835H20.2052C19.8379 25.2835 19.5317 25.0224 19.462 24.6757H18.267C18.1973 25.0224 17.8911 25.2835 17.5238 25.2835H15.3434C14.9762 25.2835 14.6699 25.0224 14.6002 24.6757H13.4053C13.3355 25.0224 13.0293 25.2835 12.6621 25.2835H10.4816C10.1144 25.2835 9.80816 25.0224 9.73843 24.6757H8.54352C8.47378 25.0224 8.16754 25.2835 7.8003 25.2835H5.61987C5.25264 25.2835 4.94639 25.0224 4.87666 24.6757H3.68175C3.61202 25.0224 3.30577 25.2835 2.93854 25.2835H1.15234C0.515918 25.2835 0 24.7676 0 24.1311V21.1293C0 20.9056 0.144771 20.7156 0.345756 20.648C0.181496 18.7504 0.24481 17.4863 0.42719 16.5343C0.608562 15.5877 0.906745 14.9566 1.20149 14.3327C1.21075 14.3131 1.22001 14.2935 1.22926 14.2739C1.23856 14.2536 1.24788 14.2332 1.2572 14.2129C1.53389 13.6082 1.81822 12.9869 2.01339 12.0025C2.21569 10.9821 2.32306 9.56574 2.2163 7.37558C2.19192 7.01885 2.47474 6.71582 2.83256 6.71582H13.0479C13.3508 6.71582 13.6105 6.9315 13.6664 7.22881C13.7534 7.60468 13.864 7.93189 13.9812 8.27867C13.9883 8.29965 13.9954 8.32071 14.0025 8.34185L14.0517 8.32C14.3723 8.17745 14.7477 8.32258 14.8891 8.64372C15.0316 8.96764 14.8813 9.34557 14.5551 9.48298L14.4644 9.52119C14.6079 9.8691 14.7753 10.1768 14.9845 10.4806L15.1124 10.3884C15.3968 10.1835 15.7934 10.247 15.9995 10.5305C16.2068 10.8155 16.1431 11.2148 15.8573 11.4211L15.7459 11.5015C16.023 11.8061 16.2816 12.0873 16.5767 12.3654L16.7008 12.2083C16.9228 11.9272 17.3382 11.8972 17.5983 12.1436C17.8325 12.3656 17.8531 12.7317 17.6453 12.9786L17.4576 13.2014C17.7318 13.3903 18.0083 13.5499 18.3055 13.7214C18.3325 13.7369 18.3597 13.7526 18.387 13.7684L18.4606 13.6139C18.6142 13.2911 19.0009 13.1545 19.3233 13.3093C19.6441 13.4633 19.7799 13.8478 19.6269 14.1692L19.5509 14.3289C20.4619 14.6822 21.4648 14.9096 22.4694 15.0102ZM24.4732 17.1716L22.8632 16.9707C22.7717 17.4285 22.6341 17.952 22.439 18.4293C22.2264 18.9495 21.937 19.4367 21.5455 19.7127L21.318 19.8945L21.0261 19.846C20.0798 19.614 19.1614 19.4198 18.3577 19.3671C17.5506 19.3142 16.8869 19.4057 16.4288 19.7161C16.1474 19.9134 15.9072 20.2397 15.7606 20.6573H22.3133C25.0783 20.6573 27.0284 19.8468 28.5682 18.9178C28.3719 18.339 28.038 17.7987 27.7084 17.3744C27.5336 17.1493 27.3615 16.9589 27.2146 16.8147C27.0838 16.6863 26.9792 16.6007 26.9134 16.5581C26.8575 16.5568 26.7596 16.5655 26.6202 16.5881C26.4598 16.6141 26.2605 16.6556 26.0393 16.7087C25.5969 16.8149 25.0744 16.9655 24.6145 17.1247L24.6127 17.1253L24.4732 17.1716ZM26.9602 16.4108C27.2819 16.5896 28.3543 17.6977 28.7476 18.9845C27.1747 19.9497 25.1731 20.8076 22.3133 20.8076H15.5572C15.5708 20.7565 15.5857 20.7064 15.6019 20.6573C15.7552 20.1913 16.0202 19.8186 16.3435 19.5924C17.3443 18.9133 19.1673 19.235 21.062 19.6996L21.2765 19.7352L21.4554 19.5924C22.1704 19.0918 22.5634 17.7693 22.7422 16.8041L24.4581 17.0183L24.5653 16.9826C25.4948 16.6609 26.6745 16.3748 26.9602 16.4108ZM2.39467 14.8319C2.09246 15.454 1.83212 16.0192 1.68829 16.8865C1.54741 17.736 1.51741 18.8823 1.68122 20.657H14.475C14.7049 19.791 15.14 19.1177 15.7566 18.6825L15.7583 18.6814C16.4215 18.2266 17.2541 18.0917 18.1625 18.1189C19.0437 18.1453 20.0145 18.3253 21.0012 18.5317C21.1556 18.3146 21.2995 17.9619 21.4232 17.5389C21.5452 17.1219 21.6429 16.6536 21.7128 16.217C19.8146 15.9444 18.0576 15.193 16.6091 14.0624L16.6069 14.0608L15.8481 13.4463C14.2841 11.9889 13.1022 10.145 12.5454 8.01721H3.55861C3.6183 10.0494 3.47626 11.4222 3.24615 12.4487C3.03033 13.4115 2.7377 14.0653 2.4713 14.6605C2.44622 14.7165 2.42136 14.772 2.39683 14.8273L2.39467 14.8319ZM3.40824 8.01721C3.40678 7.96751 3.40519 7.91741 3.40348 7.86691H12.6621C13.1983 10.0117 14.3779 11.8704 15.9509 13.3361L16.7015 13.9439C18.1295 15.0585 19.8625 15.7997 21.7357 16.0684C21.7853 16.0755 21.8349 16.0823 21.8847 16.0887C21.8774 16.1377 21.8698 16.1873 21.8618 16.2373C21.7125 17.1719 21.4357 18.2571 21.0624 18.6981C19.0248 18.2691 17.0945 17.9474 15.8433 18.8053C15.2355 19.2343 14.8065 19.9134 14.592 20.8073H1.54442C1.18707 17.0899 1.65166 16.0175 2.25947 14.7662C2.28404 14.7109 2.30886 14.6555 2.33387 14.5996C2.88417 13.3699 3.52399 11.9403 3.40824 8.01721ZM29.9636 22.309L30.9644 21.7728L29.6775 19.5564C29.6357 19.5837 29.5936 19.6109 29.5512 19.6381C27.8163 20.751 25.5587 21.7728 22.3136 21.7728H1.18707V24.2393H2.61646C2.61646 23.9036 2.88859 23.6315 3.22428 23.6315H5.40468C5.74037 23.6315 6.0125 23.9036 6.0125 24.2393H7.47822C7.47822 23.9036 7.75035 23.6315 8.08604 23.6315H10.2664C10.6021 23.6315 10.8743 23.9036 10.8743 24.2393H12.3044C12.3044 23.9036 12.5765 23.6315 12.9122 23.6315H15.1282C15.4639 23.6315 15.736 23.9036 15.736 24.2393H17.2017C17.2017 23.9036 17.4739 23.6315 17.8096 23.6315H19.9896C20.3253 23.6315 20.5974 23.9036 20.5974 24.2393H22.0632C22.0632 23.9148 22.3093 23.6431 22.6322 23.6112L24.8323 23.3936C25.1137 23.3657 25.3757 23.54 25.4588 23.8103L26.8173 23.4886C26.8143 23.4774 26.8117 23.4662 26.8094 23.455C26.7485 23.1615 26.9102 22.8644 27.1943 22.7583L29.112 22.0422C29.4235 21.9258 29.7742 22.0357 29.9636 22.309ZM26.6475 23.3744C26.6287 23.0472 26.8237 22.7362 27.1417 22.6175L29.0594 21.9013C29.3923 21.777 29.7624 21.8668 30.0015 22.1182L30.7563 21.7137L29.6268 19.7683C27.8753 20.8907 25.5913 21.9231 22.3136 21.9231H1.33738V24.089H2.48105C2.55078 23.7423 2.85704 23.4812 3.22428 23.4812H5.40468C5.77192 23.4812 6.07817 23.7423 6.14791 24.089H7.34281C7.41255 23.7423 7.7188 23.4812 8.08604 23.4812H10.2664C10.6337 23.4812 10.9399 23.7423 11.0097 24.089H12.169C12.2387 23.7423 12.5449 23.4812 12.9122 23.4812H15.1282C15.4954 23.4812 15.8017 23.7423 15.8714 24.089H17.0663C17.1361 23.7423 17.4423 23.4812 17.8096 23.4812H19.9896C20.3569 23.4812 20.6631 23.7423 20.7328 24.089H21.9273C21.9923 23.7564 22.2686 23.4961 22.6174 23.4616L24.8175 23.244C25.122 23.2139 25.4085 23.3727 25.548 23.6348L26.6475 23.3744Z" fill="#0C353E"/>
<path fill-rule="evenodd" clip-rule="evenodd" d="M11.6252 8.68555C10.8687 8.68555 10.2988 9.25539 10.2988 10.0119C10.2988 10.7311 10.8673 11.3383 11.6252 11.3383C12.3832 11.3383 12.9516 10.7311 12.9516 10.0119C12.9516 9.29279 12.3832 8.68555 11.6252 8.68555ZM11.4143 9.97596C11.4143 9.92895 11.4385 9.87557 11.4816 9.83246C11.5247 9.78935 11.5781 9.76502 11.6252 9.76502C11.6724 9.76502 11.7258 9.78931 11.7688 9.83235C11.8119 9.87538 11.8362 9.92874 11.8362 9.97596C11.8362 10.1073 11.7332 10.1869 11.6252 10.1869C11.5782 10.1869 11.5248 10.1626 11.4817 10.1195C11.4386 10.0765 11.4143 10.0231 11.4143 9.97596Z" fill="#0C353E"/>
<path fill-rule="evenodd" clip-rule="evenodd" d="M13.0139 11.4033C12.2573 11.4033 11.6875 11.9732 11.6875 12.7297C11.6875 13.4489 12.2559 14.0561 13.0139 14.0561C13.7719 14.0561 14.3403 13.4489 14.3403 12.7297C14.3403 12.0106 13.7719 11.4033 13.0139 11.4033ZM12.803 12.6937C12.803 12.6467 12.8272 12.5933 12.8703 12.5502C12.9134 12.5071 12.9667 12.4828 13.0139 12.4828C13.0611 12.4828 13.1145 12.5071 13.1575 12.5501C13.2005 12.5932 13.2248 12.6465 13.2248 12.6937C13.2248 12.8251 13.1219 12.9047 13.0139 12.9047C12.9669 12.9047 12.9135 12.8804 12.8704 12.8373C12.8273 12.7942 12.803 12.7409 12.803 12.6937Z" fill="#0C353E"/>
<path fill-rule="evenodd" clip-rule="evenodd" d="M15.2092 13.7363C14.4527 13.7363 13.8828 14.3062 13.8828 15.0627C13.8828 15.7819 14.4513 16.3891 15.2092 16.3891C15.9672 16.3891 16.5356 15.7819 16.5356 15.0627C16.5356 14.3436 15.9672 13.7363 15.2092 13.7363ZM14.9983 15.0267C14.9983 14.9797 15.0225 14.9264 15.0656 14.8832C15.1087 14.8401 15.1621 14.8158 15.2092 14.8158C15.2564 14.8158 15.3098 14.8401 15.3528 14.8831C15.3959 14.9262 15.4202 14.9795 15.4202 15.0267C15.4202 15.1581 15.3172 15.2377 15.2092 15.2377C15.1622 15.2377 15.1088 15.2134 15.0657 15.1703C15.0226 15.1273 14.9983 15.0739 14.9983 15.0267Z" fill="#0C353E"/>
<path fill-rule="evenodd" clip-rule="evenodd" d="M17.9534 15.3828C17.1968 15.3828 16.627 15.9527 16.627 16.7092C16.627 17.4284 17.1954 18.0356 17.9534 18.0356C18.7113 18.0356 19.2797 17.4284 19.2797 16.7092C19.2797 15.9901 18.7113 15.3828 17.9534 15.3828ZM17.7424 16.6732C17.7424 16.6262 17.7667 16.5728 17.8098 16.5297C17.8528 16.4866 17.9062 16.4623 17.9534 16.4623C18.0006 16.4623 18.0539 16.4866 18.097 16.5296C18.14 16.5726 18.1643 16.626 18.1643 16.6732C18.1643 16.8046 18.0613 16.8842 17.9534 16.8842C17.9063 16.8842 17.853 16.8599 17.8098 16.8168C17.7667 16.7737 17.7424 16.7204 17.7424 16.6732Z" fill="#0C353E"/>
</svg>
