<svg width="44" height="44" viewBox="0 0 44 44" fill="none" xmlns="http://www.w3.org/2000/svg">
<g filter="url(#filter0_d)">
<circle cx="22" cy="18" r="12" fill="white"/>
</g>
<path d="M22.5801 18L27.1299 13.4502C27.29 13.29 27.29 13.0303 27.1299 12.8701C26.9697 12.71 26.71 12.71 26.5498 12.8701L22 17.42L17.4502 12.8701C17.29 12.71 17.0303 12.71 16.8701 12.8701C16.71 13.0303 16.71 13.29 16.8701 13.4502L21.4199 18L16.8701 22.5498C16.71 22.71 16.71 22.9697 16.8701 23.1299C16.9502 23.21 17.0552 23.25 17.1602 23.25C17.2652 23.25 17.3701 23.21 17.4502 23.1299L22 18.5801L26.5498 23.1299C26.6299 23.21 26.7348 23.25 26.8398 23.25C26.9448 23.25 27.0498 23.21 27.1299 23.1299C27.29 22.9697 27.29 22.71 27.1299 22.5498L22.5801 18Z" fill="#0C353E"/>
<defs>
<filter id="filter0_d" x="0" y="0" width="44" height="44" filterUnits="userSpaceOnUse" color-interpolation-filters="sRGB">
<feFlood flood-opacity="0" result="BackgroundImageFix"/>
<feColorMatrix in="SourceAlpha" type="matrix" values="0 0 0 0 0 0 0 0 0 0 0 0 0 0 0 0 0 0 127 0"/>
<feOffset dy="4"/>
<feGaussianBlur stdDeviation="5"/>
<feColorMatrix type="matrix" values="0 0 0 0 0.0403125 0 0 0 0 0.154173 0 0 0 0 0.179167 0 0 0 0.15 0"/>
<feBlend mode="normal" in2="BackgroundImageFix" result="effect1_dropShadow"/>
<feBlend mode="normal" in="SourceGraphic" in2="effect1_dropShadow" result="shape"/>
</filter>
</defs>
</svg>
