<svg width="44" height="44" viewBox="0 0 44 44" fill="none" xmlns="http://www.w3.org/2000/svg">
<g filter="url(#filter0_d)">
<circle cx="22" cy="18" r="12" fill="white"/>
</g>
<g clip-path="url(#clip0)">
<path fill-rule="evenodd" clip-rule="evenodd" d="M23.4633 14.0313C21.4084 16.0997 19.3566 18.1649 17.3032 20.2317C18.1059 21.0338 18.9171 21.8444 19.7133 22.6399C21.7639 20.5802 23.8202 18.5146 25.8681 16.4579C25.07 15.6525 24.2653 14.8403 23.4633 14.0313ZM26.5347 15.813C26.9488 15.3986 27.3688 14.9992 27.7641 14.5763C28.0773 14.2411 28.0762 13.7691 27.7745 13.452C27.3961 13.0543 27.01 12.663 26.6119 12.2854C26.2015 11.8964 25.5783 11.9094 25.1647 12.298C25.0047 12.4482 24.8532 12.6076 24.6981 12.7631C24.4979 12.9639 24.298 13.1649 24.104 13.3599C24.9169 14.1804 25.7236 14.9944 26.5347 15.813Z" fill="#0C353E"/>
<path d="M16 23.3509C16.0779 23.0183 16.1577 22.6861 16.2329 22.353C16.3689 21.7495 16.5022 21.1453 16.6322 20.562C17.454 21.3847 18.2822 22.2135 19.1083 23.0403C18.8311 23.108 18.5302 23.1822 18.2291 23.255C17.6352 23.3985 17.0411 23.5408 16.4471 23.684C16.1994 23.7437 16.1332 23.719 16 23.5146V23.3509Z" fill="#0C353E"/>
<path d="M23.7006 13.4844C24.528 14.3146 25.3583 15.1479 26.1818 15.9743C24.0688 18.0846 21.9471 20.2039 19.8313 22.3172C19.0098 21.5009 18.1729 20.6692 17.3446 19.8464C19.4633 17.7257 21.5803 15.6068 23.7006 13.4844Z" fill="#0C353E"/>
<path d="M26.2697 15.9123C25.4328 15.0723 24.6005 14.2371 23.7616 13.3953C23.9618 13.1953 24.1682 12.989 24.3749 12.783C24.5347 12.6234 24.6911 12.4598 24.8561 12.3057C25.2828 11.907 25.926 11.8937 26.3492 12.2928C26.7602 12.6803 27.1585 13.0817 27.5488 13.4898C27.8602 13.8152 27.8614 14.2994 27.5382 14.6434C27.1304 15.0773 26.6971 15.4871 26.2697 15.9123Z" fill="#0C353E"/>
</g>
<defs>
<filter id="filter0_d" x="0" y="0" width="44" height="44" filterUnits="userSpaceOnUse" color-interpolation-filters="sRGB">
<feFlood flood-opacity="0" result="BackgroundImageFix"/>
<feColorMatrix in="SourceAlpha" type="matrix" values="0 0 0 0 0 0 0 0 0 0 0 0 0 0 0 0 0 0 127 0"/>
<feOffset dy="4"/>
<feGaussianBlur stdDeviation="5"/>
<feColorMatrix type="matrix" values="0 0 0 0 0.0403125 0 0 0 0 0.154173 0 0 0 0 0.179167 0 0 0 0.15 0"/>
<feBlend mode="normal" in2="BackgroundImageFix" result="effect1_dropShadow"/>
<feBlend mode="normal" in="SourceGraphic" in2="effect1_dropShadow" result="shape"/>
</filter>
<clipPath id="clip0">
<rect width="12" height="12" fill="white" transform="translate(16 12)"/>
</clipPath>
</defs>
</svg>
