<svg width="16" height="16" viewBox="0 0 16 16" fill="none" xmlns="http://www.w3.org/2000/svg">
<g clip-path="url(#clip0)">
<path d="M11.2203 10.0733C10.9876 10.0733 10.7789 9.91 10.7309 9.67333C10.6756 9.40267 10.8503 9.13867 11.1209 9.08333C12.9416 8.71267 14.8716 6.47133 15.0423 3H12.8343C12.5583 3 12.3343 2.776 12.3343 2.5C12.3343 2.224 12.5583 2 12.8343 2H15.5543C15.8303 2 16.0543 2.224 16.0543 2.5C16.0543 6.83267 13.6729 9.584 11.3209 10.0633C11.2869 10.07 11.2536 10.0733 11.2203 10.0733Z" fill="#0C353E"/>
<path d="M4.774 10.06C4.738 10.06 4.70133 10.056 4.664 10.048C2.34667 9.528 0 6.76867 0 2.5C0 2.224 0.224 2 0.5 2H3.16667C3.44267 2 3.66667 2.224 3.66667 2.5C3.66667 2.776 3.44267 3 3.16667 3H1.01267C1.18267 6.42267 3.08667 8.66933 4.88333 9.072C5.15267 9.13267 5.322 9.4 5.262 9.66933C5.20933 9.902 5.00267 10.06 4.774 10.06Z" fill="#0C353E"/>
<path d="M8.83463 10.7402C8.55863 10.7402 8.33463 10.9642 8.33463 11.2402H7.66797C7.66797 10.9642 7.44397 10.7402 7.16797 10.7402C6.89197 10.7402 6.66797 10.9642 6.66797 11.2402V13.6669C6.66797 13.9429 6.89197 14.1669 7.16797 14.1669H8.83463C9.11063 14.1669 9.33463 13.9429 9.33463 13.6669V11.2402C9.33463 10.9642 9.11063 10.7402 8.83463 10.7402Z" fill="#0C353E"/>
<path d="M9.5013 13.334H6.5013C5.48997 13.334 4.66797 14.156 4.66797 15.1673V15.5006C4.66797 15.7766 4.89197 16.0006 5.16797 16.0006H10.8346C11.1106 16.0006 11.3346 15.7766 11.3346 15.5006V15.1673C11.3346 14.156 10.5126 13.334 9.5013 13.334Z" fill="#0C353E"/>
<path d="M12.168 0H3.83464C3.1913 0 2.66797 0.523333 2.66797 1.16667V6.00333C2.69664 10.3073 7.6273 12.0667 7.8373 12.1393C7.89064 12.158 7.94597 12.1673 8.0013 12.1673C8.05664 12.1673 8.11197 12.158 8.16464 12.14C8.3753 12.0667 13.3346 10.3067 13.3346 6V1.16667C13.3346 0.523333 12.8113 0 12.168 0Z" fill="#0C353E"/>
</g>
<defs>
<clipPath id="clip0">
<rect width="16" height="16" fill="white"/>
</clipPath>
</defs>
</svg>
