<svg width="12" height="12" viewBox="0 0 12 12" fill="none" xmlns="http://www.w3.org/2000/svg">
<g clip-path="url(#clip0)">
<path d="M8.41569 7.555C8.24119 7.555 8.08469 7.4325 8.04869 7.255C8.00719 7.052 8.13819 6.854 8.34119 6.8125C9.70668 6.5345 11.1542 4.8535 11.2822 2.25H9.62618C9.41918 2.25 9.25119 2.082 9.25119 1.875C9.25119 1.668 9.41918 1.5 9.62618 1.5H11.6662C11.8732 1.5 12.0412 1.668 12.0412 1.875C12.0412 5.1245 10.2552 7.188 8.49119 7.5475C8.46569 7.5525 8.44069 7.555 8.41569 7.555Z" fill="#0C353E"></path>
<path d="M3.5805 7.545C3.5535 7.545 3.526 7.542 3.498 7.536C1.76 7.146 0 5.0765 0 1.875C0 1.668 0.168 1.5 0.375 1.5H2.375C2.582 1.5 2.75 1.668 2.75 1.875C2.75 2.082 2.582 2.25 2.375 2.25H0.7595C0.887 4.817 2.315 6.502 3.6625 6.804C3.8645 6.8495 3.9915 7.05 3.9465 7.252C3.907 7.4265 3.752 7.545 3.5805 7.545Z" fill="#0C353E"></path>
<path d="M6.62597 8.05481C6.41897 8.05481 6.25097 8.22281 6.25097 8.42981H5.75097C5.75097 8.22281 5.58297 8.05481 5.37598 8.05481C5.16898 8.05481 5.00098 8.22281 5.00098 8.42981V10.2498C5.00098 10.4568 5.16898 10.6248 5.37598 10.6248H6.62597C6.83297 10.6248 7.00097 10.4568 7.00097 10.2498V8.42981C7.00097 8.22281 6.83297 8.05481 6.62597 8.05481Z" fill="#0C353E"></path>
<path d="M7.12598 10H4.87598C4.11748 10 3.50098 10.6165 3.50098 11.375V11.625C3.50098 11.832 3.66898 12 3.87598 12H8.12598C8.33298 12 8.50098 11.832 8.50098 11.625V11.375C8.50098 10.6165 7.88448 10 7.12598 10Z" fill="#0C353E"></path>
<path d="M9.12598 0H2.87598C2.39348 0 2.00098 0.3925 2.00098 0.875V4.5025C2.02248 7.7305 5.72048 9.05 5.87798 9.1045C5.91798 9.1185 5.95948 9.1255 6.00098 9.1255C6.04248 9.1255 6.08398 9.1185 6.12348 9.105C6.28148 9.05 10.001 7.73 10.001 4.5V0.875C10.001 0.3925 9.60848 0 9.12598 0Z" fill="#0C353E"></path>
</g>
<defs>
<clipPath id="clip0">
<rect width="12" height="12" fill="white"></rect>
</clipPath>
</defs>
</svg>