<svg width="16" height="10" viewBox="0 0 16 10" fill="none" xmlns="http://www.w3.org/2000/svg">
  <g clip-path="url(#clip0)">
    <path d="M15.0266 1.33333H0.973307C0.796496 1.33333 0.626927 1.2631 0.501903 1.13807C0.376879 1.01305 0.306641 0.843478 0.306641 0.666667C0.306641 0.489856 0.376879 0.320287 0.501903 0.195262C0.626927 0.070238 0.796496 0 0.973307 0H15.0266C15.2035 0 15.373 0.070238 15.498 0.195262C15.6231 0.320287 15.6933 0.489856 15.6933 0.666667C15.6933 0.843478 15.6231 1.01305 15.498 1.13807C15.373 1.2631 15.2035 1.33333 15.0266 1.33333Z" fill="#0C353E"/>
    <path d="M10.1133 5.33333H0.973307C0.796496 5.33333 0.626927 5.2631 0.501903 5.13807C0.376879 5.01305 0.306641 4.84348 0.306641 4.66667C0.306641 4.48986 0.376879 4.32029 0.501903 4.19526C0.626927 4.07024 0.796496 4 0.973307 4H10.1133C10.2901 4 10.4597 4.07024 10.5847 4.19526C10.7097 4.32029 10.78 4.48986 10.78 4.66667C10.78 4.84348 10.7097 5.01305 10.5847 5.13807C10.4597 5.2631 10.2901 5.33333 10.1133 5.33333Z" fill="#0C353E"/>
    <path d="M5.15997 9.33333H0.973307C0.796496 9.33333 0.626927 9.2631 0.501903 9.13807C0.376879 9.01305 0.306641 8.84348 0.306641 8.66667C0.306641 8.48986 0.376879 8.32029 0.501903 8.19526C0.626927 8.07024 0.796496 8 0.973307 8H5.15997C5.33678 8 5.50635 8.07024 5.63138 8.19526C5.7564 8.32029 5.82664 8.48986 5.82664 8.66667C5.82664 8.84348 5.7564 9.01305 5.63138 9.13807C5.50635 9.2631 5.33678 9.33333 5.15997 9.33333Z" fill="#0C353E"/>
  </g>
  <defs>
    <clipPath id="clip0">
      <rect width="16" height="9.33333" fill="white"/>
    </clipPath>
  </defs>
</svg>
