<svg width="12" height="12" viewBox="0 0 12 12" fill="none" xmlns="http://www.w3.org/2000/svg">
<path d="M1.60028 7.50039C1.60028 7.50039 3.50372 7.19757 5.79649 9.23078V2.61201C5.66671 2.52549 5.49367 2.39571 5.32063 2.26593C3.67676 1.27095 1.6868 1.53051 1.6868 1.53051C1.42724 1.53051 1.21094 1.66029 1.21094 1.87659V7.11105C1.21094 7.28409 1.21094 7.54365 1.60028 7.50039Z" fill="#0C353E"/>
<path d="M10.2955 7.7158C10.6849 7.7158 10.6849 7.62928 10.6849 7.45624V1.87571C10.6849 1.70267 10.4686 1.52963 10.209 1.52963C10.209 1.52963 8.21906 1.31333 6.61844 2.30831C6.48866 2.39483 6.27236 2.52461 6.14258 2.65439V9.27316C7.91624 7.54276 10.2955 7.7158 10.2955 7.7158Z" fill="#0C353E"/>
<path d="M11.9829 8.01939V2.1793C11.9829 2.13604 11.9829 2.09278 11.9396 2.09278C11.9396 2.09278 11.6368 1.87648 11.2042 2.04952V7.80309V7.84635C11.1609 8.19243 10.9879 8.32221 10.512 8.32221C10.512 8.32221 10.4688 8.32221 10.3823 8.32221C9.81987 8.32221 7.87317 8.45199 6.35907 9.87957L6.18604 10.0526V10.1391C6.2293 10.1391 6.27256 10.0959 6.27256 10.0959L6.87819 9.79305C9.17097 8.84133 11.1609 8.92785 11.1609 8.92785C11.507 8.92785 11.7233 8.84133 11.8964 8.71155C11.9829 8.53851 12.0261 8.32221 11.9829 8.01939Z" fill="#0C353E"/>
<path d="M1.7304 8.10594C1.55736 8.10594 1.47084 8.10594 1.47084 8.10594C1.25454 8.10594 1.12476 8.06268 0.994979 7.9329C0.821939 7.75986 0.821939 7.54356 0.821939 7.41378V2.00629C0.38934 1.78999 0.12978 2.00629 0.0865199 2.00629C0.04326 2.00629 0 2.04955 0 2.09281V8.40876C0 8.71158 0.25956 8.88462 0.648899 8.88462C0.692159 8.88462 3.07146 8.7981 5.27772 9.8796L5.75357 10.0959C5.79683 10.0959 5.79683 10.1392 5.84009 10.1392V10.0959L5.66706 9.92286C3.8934 8.27898 2.33604 8.10594 1.7304 8.10594Z" fill="#0C353E"/>
</svg>