<svg width="16" height="16" viewBox="0 0 16 16" fill="none" xmlns="http://www.w3.org/2000/svg">
<path d="M2.13435 10.0005C2.13435 10.0005 4.67227 9.59676 7.72931 12.3077V3.48268C7.55627 3.36732 7.32555 3.19428 7.09483 3.02124C4.90299 1.6946 2.24971 2.04068 2.24971 2.04068C1.90363 2.04068 1.61523 2.21372 1.61523 2.50212V9.48139C1.61523 9.71211 1.61523 10.0582 2.13435 10.0005Z" fill="#0C353E"/>
<path d="M13.7277 10.2894C14.2468 10.2894 14.2468 10.174 14.2468 9.94328V2.50257C14.2468 2.27185 13.9584 2.04113 13.6123 2.04113C13.6123 2.04113 10.9591 1.75273 8.82491 3.07937C8.65187 3.19473 8.36347 3.36777 8.19043 3.54081V12.3658C10.5553 10.0586 13.7277 10.2894 13.7277 10.2894Z" fill="#0C353E"/>
<path d="M15.9772 10.6929V2.90606C15.9772 2.84838 15.9772 2.7907 15.9195 2.7907C15.9195 2.7907 15.5157 2.5023 14.9389 2.73302V10.4044V10.4621C14.8812 10.9236 14.6505 11.0966 14.016 11.0966C14.016 11.0966 13.9584 11.0966 13.843 11.0966C13.0932 11.0966 10.4976 11.2696 8.47877 13.1731L8.24805 13.4038V13.5192C8.30573 13.5192 8.36341 13.4615 8.36341 13.4615L9.17093 13.0577C12.228 11.7888 14.8812 11.9041 14.8812 11.9041C15.3427 11.9041 15.6311 11.7888 15.8618 11.6157C15.9772 11.385 16.0348 11.0966 15.9772 10.6929Z" fill="#0C353E"/>
<path d="M2.3072 10.8079C2.07648 10.8079 1.96112 10.8079 1.96112 10.8079C1.67272 10.8079 1.49968 10.7502 1.32664 10.5772C1.09592 10.3465 1.09592 10.0581 1.09592 9.88505V2.67505C0.51912 2.38665 0.17304 2.67505 0.11536 2.67505C0.05768 2.67505 0 2.73273 0 2.79041V11.2117C0 11.6154 0.34608 11.8462 0.865199 11.8462C0.922879 11.8462 4.09528 11.7308 7.03695 13.1728L7.67143 13.4612C7.72911 13.4612 7.72911 13.5189 7.78679 13.5189V13.4612L7.55607 13.2305C5.1912 11.0386 3.11472 10.8079 2.3072 10.8079Z" fill="#0C353E"/>
</svg>