<svg width="12" height="12" viewBox="0 0 12 12" fill="none" xmlns="http://www.w3.org/2000/svg">
<path fill-rule="evenodd" clip-rule="evenodd" d="M1.43517 1.61048C1.51933 1.55869 1.62999 1.53063 1.74993 1.53063C1.74993 1.53063 3.73103 1.27007 5.3676 2.26887C5.44241 2.32544 5.51722 2.38201 5.5885 2.43503C5.68137 2.5041 5.76825 2.56714 5.84135 2.61627V9.26043C5.7565 9.18456 5.67219 9.11194 5.5885 9.04242C5.47242 8.946 5.35753 8.85555 5.24401 8.77071C3.23743 7.27096 1.66379 7.52339 1.66379 7.52339C1.59315 7.53131 1.53538 7.52913 1.48814 7.51921C1.42081 7.50508 1.37486 7.47524 1.34352 7.43655C1.27618 7.35345 1.27618 7.22948 1.27618 7.13256V1.87803C1.27618 1.76169 1.33801 1.67027 1.43517 1.61048ZM6.22894 10.0856V10.1724C6.22962 10.1724 6.23029 10.1724 6.23096 10.1724C6.25328 10.1717 6.27541 10.1597 6.29136 10.1485C6.30572 10.1384 6.31508 10.129 6.31508 10.129L6.91802 9.825C7.51281 9.57606 8.08713 9.39788 8.61125 9.27049C10.0985 8.909 11.1817 8.95649 11.1817 8.95649C11.5263 8.95649 11.6591 8.94034 11.8432 8.73936C12.0306 8.53471 11.9816 8.53743 12 8.04455V2.18206C12 2.13863 11.9816 2.10422 11.9462 2.06868C11.9462 2.06868 11.8339 1.90479 11.4466 2.02325C11.4204 2.03129 11.3935 2.04074 11.3662 2.05178V7.87084C11.3643 7.88588 11.3622 7.9716 11.3598 7.98584C11.3076 8.30037 10.9889 8.41961 10.5357 8.41961H10.4065C10.0877 8.41961 9.32188 8.39077 8.44322 8.69181C7.91528 8.87269 7.3466 9.14699 6.80962 9.56169C6.80428 9.56581 6.79894 9.56995 6.79361 9.57411C6.74388 9.61282 6.69443 9.65274 6.64531 9.69391C6.63024 9.70654 6.6152 9.71929 6.60019 9.73217C6.55299 9.77264 6.50613 9.81429 6.45964 9.85715C6.45265 9.8636 6.44566 9.87008 6.43868 9.87659C6.42616 9.88826 6.41367 9.90001 6.40121 9.91186L6.22894 10.0856ZM10.6275 7.69724C10.7079 7.65529 10.7079 7.58289 10.7079 7.48003V1.8781C10.7079 1.8135 10.6782 1.74891 10.6275 1.69325C10.5418 1.59923 10.3965 1.53069 10.2342 1.53069C10.2342 1.53069 8.25307 1.31356 6.65957 2.31236C6.63552 2.32852 6.60849 2.34619 6.57958 2.36509C6.53564 2.39381 6.48737 2.42536 6.43868 2.45876C6.36648 2.50828 6.29334 2.56185 6.23199 2.61627C6.21569 2.63073 6.20023 2.64525 6.18583 2.65976V9.30392C6.2007 9.28928 6.21562 9.27479 6.23058 9.26043C6.23658 9.25467 6.24258 9.24893 6.24859 9.24321C6.31129 9.18359 6.3747 9.12631 6.43868 9.07128C6.55194 8.97386 6.66701 8.88349 6.78316 8.79966C8.44156 7.60281 10.3203 7.74059 10.3203 7.74059C10.4784 7.74059 10.572 7.72614 10.6275 7.69724ZM10.1106 7.13353V2.12459C10.1087 2.12446 10.1068 2.12432 10.1048 2.12418C10.056 2.12078 9.98164 2.11667 9.88638 2.11452C9.69538 2.11021 9.42286 2.11387 9.10433 2.14624C8.4623 2.21148 7.67159 2.38953 6.98246 2.81917C6.94815 2.84215 6.91946 2.86083 6.89195 2.87875C6.85684 2.90161 6.82365 2.92322 6.78316 2.95091V8.07751C7.48545 7.64377 8.19747 7.40856 8.79141 7.28165C9.23586 7.18668 9.62063 7.15086 9.89688 7.13884C9.97747 7.13534 10.0491 7.13385 10.1106 7.13353ZM1.87351 6.90579C1.91373 6.90498 1.9576 6.90481 2.00497 6.90556C2.25698 6.90957 2.60793 6.93983 3.03272 7.04008C3.6484 7.18537 4.41029 7.47564 5.24401 8.03474V2.92724C5.1738 2.87512 5.10234 2.82114 5.03379 2.7693C4.32839 2.34605 3.53508 2.17999 2.89469 2.12536C2.57416 2.09801 2.30089 2.09933 2.10975 2.10731C2.01442 2.11129 1.94017 2.1169 1.89146 2.12129C1.88503 2.12187 1.87904 2.12243 1.87351 2.12296V6.90579ZM1.72446 2.13532C1.72446 2.13532 1.7249 2.13515 1.72584 2.13494L1.72446 2.13532Z" fill="#0C353E"/>
<path fill-rule="evenodd" clip-rule="evenodd" d="M5.77106 10.1028V10.1896C5.77038 10.1896 5.76971 10.1897 5.76903 10.1896C5.74672 10.189 5.72459 10.177 5.70864 10.1658C5.69428 10.1557 5.68492 10.1463 5.68492 10.1463L5.08197 9.84227C4.48719 9.59333 3.91288 9.41515 3.38875 9.28776C1.90145 8.92627 0.818284 8.97376 0.818284 8.97376C0.473744 8.97376 0.340923 8.95761 0.156825 8.75663C-0.0306378 8.55197 0.0184491 8.5547 0 8.06181V2.19933C0 2.1559 0.0184491 2.1215 0.0537939 2.08595C0.0537939 2.08595 0.166072 1.92206 0.553361 2.04052C0.579636 2.04856 0.606475 2.05802 0.633837 2.06905V7.88811C0.635702 7.90315 0.637808 7.98887 0.640172 8.00311C0.692388 8.31764 1.01107 8.43688 1.4643 8.43688H1.5935C1.91234 8.43688 2.67812 8.40804 3.55678 8.70908C4.08471 8.88996 4.6534 9.16426 5.19037 9.57896C5.19572 9.58308 5.20105 9.58722 5.20639 9.59137C5.25612 9.63008 5.30557 9.67 5.35469 9.71117C5.36976 9.72381 5.3848 9.73656 5.39981 9.74943C5.44701 9.78991 5.49387 9.83156 5.54035 9.87442C5.54735 9.88087 5.55434 9.88735 5.56132 9.89386C5.57384 9.90552 5.58633 9.91728 5.59879 9.92912L5.77106 10.1028Z" fill="#0C353E"/>
</svg>