<svg width="16" height="16" viewBox="0 0 16 16" fill="none" xmlns="http://www.w3.org/2000/svg">
<path fill-rule="evenodd" clip-rule="evenodd" d="M7.99583 0C10.1337 0 12.1396 0.832136 13.6516 2.34419C15.1637 3.85624 15.9992 5.86216 15.9992 8C15.9992 10.1378 15.1671 12.1438 13.655 13.6558C12.1125 15.1983 10.0626 16 7.99245 16C6.70365 16 5.40471 15.6888 4.21739 15.0495C3.15185 15.8173 2.10999 15.9831 1.40302 15.9831C1.13917 15.9831 0.922679 15.9594 0.770459 15.9357C0.445723 15.885 0.195406 15.6313 0.144666 15.3066C0.0939261 14.9818 0.259677 14.6672 0.553968 14.5218C1.16623 14.2207 1.57892 13.6186 1.836 13.1011C-0.785567 9.94503 -0.582607 5.26681 2.34001 2.34419C3.85207 0.832136 5.85799 0 7.99583 0ZM3.13382 6.26667H7.13382C7.39188 6.26667 7.60049 6.05753 7.60049 5.8C7.60049 5.54247 7.39188 5.33333 7.13382 5.33333H3.13382C2.87577 5.33333 2.66716 5.54247 2.66716 5.8C2.66716 6.05753 2.87577 6.26667 3.13382 6.26667ZM12.2005 7.46663H3.13382C2.87577 7.46663 2.66716 7.67577 2.66716 7.9333C2.66716 8.19083 2.87577 8.39997 3.13382 8.39997H12.2005C12.4585 8.39997 12.6672 8.19083 12.6672 7.9333C12.6672 7.67577 12.4585 7.46663 12.2005 7.46663ZM3.13382 9.59994H12.2005C12.4585 9.59994 12.6672 9.80908 12.6672 10.0666C12.6672 10.3241 12.4585 10.5333 12.2005 10.5333H3.13382C2.87577 10.5333 2.66716 10.3241 2.66716 10.0666C2.66716 9.80908 2.87577 9.59994 3.13382 9.59994Z" fill="#0C353E"/>
</svg>