<svg width="24" height="24" viewBox="0 0 24 24" fill="none" xmlns="http://www.w3.org/2000/svg">
<path fill-rule="evenodd" clip-rule="evenodd" d="M8.11898 15.0235C9.22129 16.1432 10.8148 16.7879 12.4917 16.7879C14.1691 16.7879 15.762 16.1432 16.8644 15.0235C17.1098 14.7737 17.5266 14.7534 17.7996 14.9757C18.0792 15.2032 18.105 15.6013 17.8523 15.8584C16.4943 17.2377 14.54 18.0266 12.4917 18.0266C10.4439 18.0266 8.48966 17.2383 7.13113 15.8585C6.8786 15.6015 6.90335 15.2033 7.18382 14.9756C7.45705 14.7532 7.87266 14.774 8.11898 15.0235ZM0.0745387 12C0.0745387 5.42427 5.42429 0.074516 12 0.074516C18.5757 0.074516 23.9255 5.42427 23.9255 12C23.9255 18.5757 18.5757 23.9254 12 23.9254C5.42429 23.9254 0.0745387 18.5757 0.0745387 12ZM1.35604 12C1.35604 17.8693 6.13073 22.644 12 22.644C17.8693 22.644 22.644 17.8693 22.644 12C22.644 6.1307 17.8693 1.35602 12 1.35602C6.13073 1.35602 1.35604 6.1307 1.35604 12ZM13.8385 10.5253C13.8385 9.09943 14.9983 7.93962 16.4241 7.93962C17.85 7.93962 19.0098 9.09943 19.0098 10.5253C19.0098 10.8672 18.7323 11.1447 18.3904 11.1447C18.0485 11.1447 17.771 10.8672 17.771 10.5253C17.771 9.78281 17.1666 9.17838 16.4241 9.17838C15.6817 9.17838 15.0772 9.78281 15.0772 10.5253C15.0772 10.8672 14.7998 11.1447 14.4579 11.1447C14.1159 11.1447 13.8385 10.8672 13.8385 10.5253ZM9.54216 11.1447C9.20023 11.1447 8.92278 10.8672 8.92278 10.5253C8.92278 9.78281 8.31835 9.17838 7.57588 9.17838C6.83342 9.17838 6.22898 9.78281 6.22898 10.5253C6.22898 10.8672 5.95154 11.1447 5.60961 11.1447C5.26767 11.1447 4.99023 10.8672 4.99023 10.5253C4.99023 9.09943 6.15004 7.93962 7.57588 7.93962C9.00173 7.93962 10.1615 9.09943 10.1615 10.5253C10.1615 10.8672 9.88409 11.1447 9.54216 11.1447Z" fill="#0c353e"/>
<path fill-rule="evenodd" clip-rule="evenodd" d="M8.17209 14.9712C9.25943 16.0757 10.8333 16.7134 12.4917 16.7134C14.1505 16.7134 15.7238 16.0758 16.8112 14.9712C17.0841 14.6935 17.5443 14.6717 17.8467 14.9179C18.1597 15.1726 18.1895 15.6216 17.9055 15.9107C16.5325 17.3052 14.5586 18.1012 12.4917 18.1012C10.4253 18.1012 8.45148 17.3058 7.07802 15.9108C6.79425 15.622 6.82273 15.1728 7.13683 14.9177C7.43948 14.6715 7.89849 14.6942 8.17209 14.9712ZM7.18382 14.9756C6.90335 15.2033 6.8786 15.6015 7.13113 15.8585C8.48966 17.2383 10.4439 18.0266 12.4917 18.0266C14.54 18.0266 16.4943 17.2377 17.8523 15.8584C18.105 15.6013 18.0792 15.2032 17.7996 14.9757C17.5266 14.7534 17.1098 14.7737 16.8644 15.0235C15.762 16.1432 14.1691 16.7879 12.4917 16.7879C10.8148 16.7879 9.22129 16.1432 8.11898 15.0235C7.87266 14.774 7.45705 14.7532 7.18382 14.9756ZM0 12C0 5.38312 5.38312 0 12 0C18.6169 0 24 5.38312 24 12C24 18.6169 18.6169 24 12 24C5.38312 24 0 18.6169 0 12ZM1.43057 12C1.43057 17.8281 6.17189 22.5694 12 22.5694C17.8281 22.5694 22.5694 17.8281 22.5694 12C22.5694 6.17189 17.8281 1.43057 12 1.43057C6.17189 1.43057 1.43057 6.17189 1.43057 12ZM13.7639 10.5253C13.7639 9.05829 14.9571 7.86511 16.4241 7.86511C17.8911 7.86511 19.0843 9.05829 19.0843 10.5253C19.0843 10.9084 18.7735 11.2192 18.3904 11.2192C18.0073 11.2192 17.6965 10.9084 17.6965 10.5253C17.6965 9.82399 17.1254 9.25293 16.4241 9.25293C15.7228 9.25293 15.1518 9.82399 15.1518 10.5253C15.1518 10.9084 14.8409 11.2192 14.4578 11.2192C14.0748 11.2192 13.7639 10.9084 13.7639 10.5253ZM9.54216 11.2192C9.15906 11.2192 8.84824 10.9084 8.84824 10.5253C8.84824 9.82399 8.27718 9.25293 7.57588 9.25293C6.87458 9.25293 6.30351 9.82399 6.30351 10.5253C6.30351 10.9084 5.9927 11.2192 5.6096 11.2192C5.22651 11.2192 4.91569 10.9084 4.91569 10.5253C4.91569 9.05829 6.10887 7.86511 7.57588 7.86511C9.04289 7.86511 10.2361 9.05829 10.2361 10.5253C10.2361 10.9084 9.92525 11.2192 9.54216 11.2192ZM12 0.074516C5.42429 0.074516 0.0745387 5.42427 0.0745387 12C0.0745387 18.5757 5.42429 23.9254 12 23.9254C18.5757 23.9254 23.9255 18.5757 23.9255 12C23.9255 5.42427 18.5757 0.074516 12 0.074516ZM12 22.644C6.13073 22.644 1.35604 17.8693 1.35604 12C1.35604 6.1307 6.13073 1.35602 12 1.35602C17.8693 1.35602 22.644 6.1307 22.644 12C22.644 17.8693 17.8693 22.644 12 22.644ZM16.4241 7.93962C14.9983 7.93962 13.8385 9.09943 13.8385 10.5253C13.8385 10.8672 14.1159 11.1447 14.4579 11.1447C14.7998 11.1447 15.0772 10.8672 15.0772 10.5253C15.0772 9.78281 15.6817 9.17838 16.4241 9.17838C17.1666 9.17838 17.771 9.78281 17.771 10.5253C17.771 10.8672 18.0485 11.1447 18.3904 11.1447C18.7323 11.1447 19.0098 10.8672 19.0098 10.5253C19.0098 9.09943 17.85 7.93962 16.4241 7.93962ZM8.92278 10.5253C8.92278 10.8672 9.20023 11.1447 9.54216 11.1447C9.88409 11.1447 10.1615 10.8672 10.1615 10.5253C10.1615 9.09943 9.00173 7.93962 7.57588 7.93962C6.15004 7.93962 4.99023 9.09943 4.99023 10.5253C4.99023 10.8672 5.26767 11.1447 5.60961 11.1447C5.95154 11.1447 6.22898 10.8672 6.22898 10.5253C6.22898 9.78281 6.83342 9.17838 7.57588 9.17838C8.31835 9.17838 8.92278 9.78281 8.92278 10.5253Z" fill="#0c353e"/>
</svg>
