<svg width="12" height="12" viewBox="0 0 12 12" fill="none" xmlns="http://www.w3.org/2000/svg">
<path d="M10.9929 6.57839C10.715 6.3005 10.3178 6.25572 9.84396 6.48681L7.35125 7.86975C7.26504 7.91767 7.15219 7.88431 7.10516 7.79899C7.08188 7.7569 7.07605 7.70808 7.08949 7.66173C7.10292 7.61538 7.13315 7.57709 7.17547 7.5538L8.03422 7.07774V1.89058C8.03422 1.46557 7.68848 1.11961 7.26348 1.11961C6.8387 1.11961 6.49296 1.46535 6.49296 1.89058V5.73712C6.49296 5.83699 6.4119 5.91827 6.31181 5.91827C6.21216 5.91827 6.13088 5.83721 6.13088 5.73712V0.770517C6.13088 0.345736 5.78514 0 5.36014 0C4.93513 0 4.5894 0.345512 4.5894 0.770517V5.73712C4.5894 5.83699 4.50834 5.91827 4.40847 5.91827C4.3086 5.91827 4.22754 5.83721 4.22754 5.73712V1.66621C4.22754 1.24143 3.8818 0.89569 3.4568 0.89569C3.03179 0.89569 2.68605 1.2412 2.68605 1.66621V5.73712C2.68605 5.83699 2.605 5.91827 2.50513 5.91827C2.40526 5.91827 2.3242 5.83721 2.3242 5.73712V3.01019C2.3242 2.58518 1.97846 2.23922 1.55346 2.23922C1.12845 2.23922 0.782715 2.58496 0.782715 3.01019V7.6839C0.782715 10.064 2.71875 12 5.0986 12C6.18059 12 7.25161 11.5255 8.11752 10.6609L10.9875 7.67449C11.2909 7.37041 11.2934 6.8789 10.9929 6.57839Z" fill="#0C353E"/>
</svg>