<svg width="16" height="16" viewBox="0 0 16 16" fill="none" xmlns="http://www.w3.org/2000/svg">
<path d="M14.6575 8.77119C14.287 8.40067 13.7574 8.34096 13.1256 8.64908L9.802 10.493C9.68705 10.5569 9.53657 10.5124 9.47388 10.3987C9.44283 10.3425 9.43506 10.2774 9.45298 10.2156C9.47089 10.1538 9.5112 10.1028 9.56763 10.0717L10.7126 9.43699V2.52077C10.7126 1.9541 10.2516 1.49282 9.68496 1.49282C9.11859 1.49282 8.65761 1.9538 8.65761 2.52077V7.64949C8.65761 7.78265 8.54952 7.89102 8.41607 7.89102C8.28321 7.89102 8.17483 7.78295 8.17483 7.64949V1.02736C8.17483 0.460982 7.71385 0 7.14717 0C6.5805 0 6.11952 0.460683 6.11952 1.02736V7.64949C6.11952 7.78265 6.01144 7.89102 5.87828 7.89102C5.74512 7.89102 5.63704 7.78295 5.63704 7.64949V2.22161C5.63704 1.65523 5.17606 1.19425 4.60939 1.19425C4.04271 1.19425 3.58173 1.65494 3.58173 2.22161V7.64949C3.58173 7.78265 3.47365 7.89102 3.34049 7.89102C3.20733 7.89102 3.09925 7.78295 3.09925 7.64949V4.01358C3.09925 3.44691 2.63827 2.98563 2.0716 2.98563C1.50493 2.98563 1.04395 3.44661 1.04395 4.01358V10.2452C1.04395 13.4186 3.62532 16 6.79845 16C8.24111 16 9.66914 15.3673 10.8237 14.2146L14.6504 10.2327C15.0549 9.82721 15.0582 9.17186 14.6575 8.77119Z" fill="#0C353E"/>
</svg>