<svg width="12" height="12" viewBox="0 0 12 12" fill="none" xmlns="http://www.w3.org/2000/svg">
<path d="M10.5333 3.93788C10.4409 3.75307 10.2521 3.63635 10.0454 3.63635H7.2917L8.71515 0.789375C8.79974 0.62032 8.79064 0.419484 8.69129 0.25868C8.59187 0.0978984 8.4163 0 8.22725 0H4.95451C4.74788 0 4.55905 0.116719 4.46666 0.301523L1.55757 6.1197C1.47306 6.28875 1.48208 6.48959 1.58143 6.65039C1.68085 6.81122 1.8564 6.90907 2.04542 6.90907H5.00706L4.05758 11.3402C4.00386 11.5907 4.13174 11.8448 4.36484 11.9509C4.43769 11.984 4.51459 12 4.59067 12C4.7582 12 4.92158 11.9227 5.02724 11.7818L10.4818 4.50907C10.6057 4.34381 10.6257 4.12263 10.5333 3.93788Z" fill="#0C353E"/>
</svg>