<svg width="12" height="12" viewBox="0 0 12 12" fill="none" xmlns="http://www.w3.org/2000/svg">
<path fill-rule="evenodd" clip-rule="evenodd" d="M9.56034 3.57838C9.56119 4.13183 9.4191 4.64973 9.19847 5.1547C8.39776 6.98704 7.60599 8.82324 6.81003 10.6577C6.64856 11.03 6.48482 11.4013 6.32037 11.7723C6.23797 11.9584 6.08558 12.0333 5.89374 11.9863C5.77712 11.9578 5.70799 11.8771 5.66179 11.7718C5.52513 11.4603 5.38722 11.1493 5.25183 10.8372C4.39885 8.87129 3.54565 6.90546 2.69462 4.93873C2.54397 4.59066 2.46043 4.22474 2.43385 3.84599C2.37065 2.94589 2.60586 2.13122 3.15167 1.41481C3.71198 0.679266 4.45102 0.217332 5.36312 0.0592616C6.45075 -0.12918 7.43064 0.132206 8.28058 0.837419C8.93852 1.3834 9.34542 2.0871 9.49937 2.93077C9.53819 3.14358 9.55083 3.3612 9.57553 3.57665L9.56034 3.57838ZM5.99088 7.15634C6.00192 7.1328 6.00817 7.12052 6.01349 7.10782C6.43835 6.0996 6.86449 5.09191 7.28679 4.08257C7.39162 3.83194 7.41384 3.56857 7.35816 3.30225C7.20279 2.55906 6.51724 2.08425 5.77025 2.19941C4.88214 2.33639 4.35876 3.28882 4.71165 4.12017C5.05525 4.92952 5.39451 5.74073 5.73573 6.55108C5.81902 6.74886 5.90241 6.9466 5.99088 7.15634Z" fill="#0C353E"/>
</svg>
