<svg width="190" height="20" viewBox="0 0 190 20" fill="none" xmlns="http://www.w3.org/2000/svg">
<path d="M87.2903 16.3452C89.0883 16.3452 90.7874 16.3452 92.4864 16.3452C93.7507 16.3452 95.0153 16.3324 96.2795 16.3493C97.3079 16.3632 98.007 17.0538 98.0349 18.0562C98.0487 18.5491 98.0366 19.0427 98.0366 19.5727H83.5945V0.416016H97.9836C97.9836 1.10653 98.0635 1.84037 97.9614 2.54947C97.8569 3.28029 97.2257 3.61011 96.2172 3.61216C93.5424 3.6168 90.8676 3.61373 88.1932 3.61373H87.3C87.3 5.15798 87.2852 6.64623 87.3293 8.13286C87.3334 8.244 87.7587 8.43177 87.9899 8.43443C90.2512 8.457 92.5124 8.44825 94.7737 8.44825C95.0611 8.44825 95.3493 8.44825 95.777 8.44825C95.7369 9.23349 95.7673 9.96679 95.6433 10.6738C95.5263 11.3412 94.9199 11.6676 93.9971 11.6732C92.0516 11.6855 90.1056 11.7077 88.1618 11.6614C87.4527 11.6449 87.2441 11.8528 87.2747 12.5372C87.33 13.7671 87.2903 15.001 87.2903 16.3452Z" fill="#0C353E"/>
<path d="M175.571 0.385254H189.981C189.981 1.04548 190.032 1.6835 189.969 2.31078C189.882 3.17894 189.266 3.60813 188.192 3.61072C185.492 3.61784 182.792 3.61319 180.092 3.61319C179.829 3.61319 179.567 3.61319 179.258 3.61319V8.4237H187.64C187.64 9.17902 187.708 9.86706 187.622 10.536C187.525 11.2941 186.929 11.6646 185.938 11.6723C183.992 11.6867 182.046 11.6769 180.1 11.6775C179.838 11.6775 179.576 11.6775 179.263 11.6775V16.3448H180.217C182.82 16.3448 185.423 16.3421 188.026 16.3458C189.308 16.3478 189.986 17.0209 189.995 18.2914C189.999 18.6944 189.996 19.0973 189.996 19.5553H175.571V0.385254Z" fill="#0C353E"/>
<path fill-rule="evenodd" clip-rule="evenodd" d="M101.743 0.356555C103.41 0.356555 105.034 0.336523 106.658 0.362227C108.406 0.390043 110.172 0.319507 111.896 0.544932C115.124 0.966881 117.365 3.67669 117.486 6.80387C117.653 11.0997 114.957 13.7673 110.32 13.8759C108.743 13.913 107.163 13.8821 105.482 13.8821C105.482 15.1274 105.482 16.3305 105.482 17.5337C105.482 19.1675 105.033 19.6106 103.373 19.6111C102.843 19.6115 102.313 19.6111 101.743 19.6111V0.356555ZM105.509 10.6253C105.847 10.6253 106.11 10.6258 106.373 10.6247C107.732 10.6191 109.097 10.6896 110.448 10.5887C112.338 10.4483 113.58 9.2086 113.684 7.53209C113.804 5.57754 112.794 3.97675 110.95 3.75905C109.169 3.54919 107.343 3.71374 105.509 3.71374V10.6253Z" fill="#0C353E"/>
<path d="M35.4074 14.8678C34.1345 18.3331 29.3325 20.5808 24.8279 19.8681C20.0847 19.1177 16.509 15.1848 16.3374 10.5303C16.1554 5.58564 19.3645 1.3603 24.1336 0.267382C28.7089 -0.781426 33.6854 1.3387 35.4475 5.16465C34.551 5.50014 33.6805 5.95455 32.7562 6.11873C32.2901 6.20163 31.556 5.90103 31.2342 5.53163C29.1693 3.16086 25.8862 3.07959 23.8582 4.04959C21.4358 5.20834 19.8241 8.00009 20.1352 10.5473C20.5036 13.571 22.445 15.8579 25.2587 16.3997C27.4984 16.8315 29.504 16.3046 31.097 14.6111C31.8883 13.7697 32.3454 13.6554 33.4111 14.0666C34.0815 14.3255 34.7452 14.6013 35.4074 14.8678Z" fill="#0C353E"/>
<path d="M172.233 5.17499C171.38 5.49913 170.542 5.86762 169.671 6.13366C168.918 6.36373 168.382 5.90618 167.902 5.39994C166.681 4.11134 165.183 3.45625 163.373 3.46855C160.345 3.48967 157.798 5.5439 157.105 8.54708C156.405 11.5821 157.96 14.7232 160.804 16.0153C163.106 17.0615 165.922 16.5598 167.734 14.7798C168.886 13.6488 169.09 13.6075 170.603 14.2127C171.137 14.4257 171.67 14.6425 172.201 14.856C171.281 17.468 167.535 20.5936 161.825 19.8892C157.297 19.3303 153.369 15.4338 153.158 10.4969C152.913 4.7869 157.148 0.997563 161.129 0.240011C167.005 -0.877644 170.982 2.30402 172.233 5.17499Z" fill="#0C353E"/>
<path d="M71.4502 11.4308C71.6005 11.1339 71.709 10.9302 71.8081 10.7222C73.2004 7.79985 74.6143 4.88676 75.9729 1.94899C76.4988 0.810696 77.2875 0.248762 78.5851 0.347536C79.3083 0.402625 80.0401 0.357371 80.9356 0.357371C77.7839 6.84378 74.6767 13.2371 71.5695 19.6304L71.3571 19.6488C68.26 13.2648 65.1629 6.88023 62.0317 0.424709C63.2134 0.424709 64.3173 0.351157 65.4049 0.450474C66.1265 0.516364 66.5347 1.11227 66.834 1.74933C68.2324 4.72101 69.6436 7.6872 71.0524 10.6543C71.1609 10.8827 71.2826 11.1051 71.4502 11.4308Z" fill="#0C353E"/>
<path d="M52.4922 0.357293C52.4922 0.96599 52.5161 1.4852 52.4874 2.00182C52.4271 3.06964 51.8663 3.59658 50.7672 3.60991C49.4837 3.6259 48.1999 3.61353 46.8201 3.61353V4.50896C46.8201 8.92612 46.8214 13.343 46.8197 17.7602C46.8191 19.1233 46.331 19.6044 44.9454 19.6107C44.3424 19.6138 43.7401 19.6112 43.0582 19.6112V3.62904H37.493C37.493 2.83402 37.4198 2.10223 37.5148 1.3921C37.6032 0.724092 38.2105 0.365921 39.0534 0.361336C41.0953 0.349992 43.1367 0.357293 45.1786 0.357293C47.5828 0.35669 49.9869 0.357293 52.4922 0.357293Z" fill="#0C353E"/>
<path d="M124.166 16.3453C127.013 16.3453 129.757 16.3448 132.502 16.3453C134.096 16.3453 134.542 16.7782 134.545 18.3255C134.546 18.7253 134.546 19.1251 134.546 19.5672H120.411V0.420846C121.286 0.420846 122.186 0.32714 123.048 0.464531C123.419 0.523784 123.804 1.01361 124.01 1.39586C124.188 1.72531 124.16 2.1802 124.16 2.57952C124.169 6.87993 124.166 11.1798 124.166 15.4798C124.166 15.737 124.166 15.9949 124.166 16.3453Z" fill="#0C353E"/>
<path d="M8.14676 10.783C9.22048 10.783 10.1848 10.8027 11.1477 10.7774C12.0403 10.7543 12.6186 11.1453 12.9533 11.9347C13.2213 12.5667 13.5037 13.1924 13.8236 13.9206C13.5054 13.9354 13.2546 13.9575 13.0046 13.9581C11.1329 13.9607 9.26099 13.9792 7.39007 13.9473C6.86531 13.938 6.61152 14.1197 6.41935 14.5787C5.90608 15.8065 5.33846 17.0122 4.80827 18.2334C4.39948 19.174 3.67206 19.6114 2.64416 19.6109C1.79707 19.6104 0.951083 19.6109 0 19.6109C0.375444 18.7551 0.712479 17.9761 1.05729 17.2006C3.3596 12.0331 5.67822 6.87213 7.95459 1.69386C8.3782 0.730551 9.00312 0.283864 10.0766 0.346616C10.9216 0.396094 11.7726 0.356994 12.7646 0.356994C11.2138 3.85718 9.70189 7.27145 8.14676 10.783Z" fill="#0C353E"/>
<path d="M136.815 19.6113C137.557 17.929 138.251 16.3461 138.954 14.7669C140.888 10.4238 142.84 6.08835 144.751 1.73528C145.18 0.757066 145.813 0.273451 146.925 0.345978C147.77 0.40155 148.622 0.356779 149.585 0.356779C148.04 3.84424 146.525 7.26049 144.965 10.7834C146.021 10.7834 146.96 10.8092 147.898 10.7763C148.851 10.7433 149.461 11.1519 149.806 12.0035C150.055 12.6159 150.331 13.2169 150.654 13.96C150.275 13.96 150 13.96 149.725 13.96C147.877 13.96 146.03 13.9744 144.183 13.9502C143.704 13.9435 143.45 14.0717 143.264 14.5317C142.782 15.7199 142.209 16.8731 141.713 18.0561C141.264 19.1306 140.489 19.654 139.295 19.6159C138.519 19.5917 137.742 19.6113 136.815 19.6113Z" fill="#0C353E"/>
<path d="M55.5594 0.357025C56.2972 0.357025 56.9261 0.351836 57.5554 0.357991C58.7809 0.369395 59.3239 0.894161 59.3279 2.10812C59.3371 4.76803 59.3307 7.428 59.3307 10.0879C59.3307 12.9856 59.3307 15.8827 59.3307 18.7804V19.5991C58.4759 19.5991 57.699 19.6516 56.9332 19.5856C56.003 19.5059 55.5635 18.93 55.5621 17.8953C55.5563 13.5968 55.5594 9.29802 55.5594 4.99906C55.5594 3.48366 55.5594 1.96759 55.5594 0.357025Z" fill="#0C353E"/>
</svg>
