<svg width="62" height="56" viewBox="0 0 62 56" fill="none" xmlns="http://www.w3.org/2000/svg">
<g filter="url(#filter0_d)">
<path fill-rule="evenodd" clip-rule="evenodd" d="M51.9551 17.0873C51.9576 18.667 51.552 20.1452 50.9223 21.5866C48.6368 26.8166 46.3769 32.0577 44.105 37.2938C43.6441 38.3563 43.1767 39.4162 42.7073 40.4752C42.4721 41.0063 42.0372 41.2202 41.4896 41.0861C41.1567 41.0047 40.9594 40.7744 40.8275 40.4738C40.4375 39.5845 40.0438 38.6969 39.6574 37.806C37.2227 32.1948 34.7875 26.5838 32.3584 20.9701C31.9284 19.9766 31.6899 18.9322 31.6141 17.8511C31.4337 15.282 32.105 12.9567 33.6629 10.9118C35.2622 8.81236 37.3716 7.49387 39.9751 7.04269C43.0795 6.50482 45.8764 7.25089 48.3023 9.26378C50.1803 10.8222 51.3417 12.8307 51.7811 15.2388C51.8919 15.8462 51.928 16.4674 51.9985 17.0823L51.9551 17.0873ZM41.7673 27.3002C41.7988 27.233 41.8166 27.198 41.8318 27.1617C43.0445 24.284 44.2608 21.4077 45.4662 18.5268C45.7654 17.8114 45.8288 17.0597 45.6699 16.2995C45.2264 14.1782 43.2696 12.823 41.1375 13.1517C38.6026 13.5427 37.1087 16.2612 38.116 18.6341C39.0967 20.9442 40.065 23.2597 41.039 25.5726C41.2767 26.1372 41.5147 26.7016 41.7673 27.3002Z" fill="white"/>
<path d="M31.4357 7.41609C28.8391 13.4092 26.2528 19.3783 23.6573 25.3687H23.8861C25.5526 25.3687 27.2189 25.368 28.8853 25.369C29.5131 25.3694 30.1002 25.5141 30.6214 25.8787C31.0541 26.1815 31.3881 26.5639 31.5979 27.0571C32.1164 28.2748 32.6447 29.4882 33.169 30.7034C33.1909 30.7544 33.2103 30.8063 33.2443 30.891H33.0091C29.1531 30.891 25.2972 30.8922 21.4412 30.887C21.28 30.8867 21.205 30.9378 21.1426 31.0827C20.0952 33.5132 19.0543 35.9467 17.9865 38.3682C17.4303 39.6296 16.4587 40.3772 15.072 40.5398C14.8412 40.5668 14.6076 40.5808 14.3753 40.5814C12.9933 40.5851 11.6112 40.5833 10.2293 40.5833C10.1619 40.5833 10.0947 40.5833 10 40.5833C10.0269 40.5085 10.0427 40.4562 10.0643 40.4065C12.3661 35.1089 14.6691 29.8118 16.9704 24.5139C19.2039 19.3722 21.4279 14.2264 23.674 9.09016C24.1324 8.04179 24.9871 7.45272 26.1301 7.42385C27.8523 7.38044 29.5761 7.40745 31.2992 7.40499C31.3326 7.40486 31.3662 7.41029 31.4357 7.41609Z" fill="white"/>
</g>
<defs>
<filter id="filter0_d" x="0" y="-3" width="62" height="62" filterUnits="userSpaceOnUse" color-interpolation-filters="sRGB">
<feFlood flood-opacity="0" result="BackgroundImageFix"/>
<feColorMatrix in="SourceAlpha" type="matrix" values="0 0 0 0 0 0 0 0 0 0 0 0 0 0 0 0 0 0 127 0"/>
<feOffset dy="4"/>
<feGaussianBlur stdDeviation="5"/>
<feColorMatrix type="matrix" values="0 0 0 0 0.0403125 0 0 0 0 0.154173 0 0 0 0 0.179167 0 0 0 0.15 0"/>
<feBlend mode="normal" in2="BackgroundImageFix" result="effect1_dropShadow"/>
<feBlend mode="normal" in="SourceGraphic" in2="effect1_dropShadow" result="shape"/>
</filter>
</defs>
</svg>
