<svg width="179" height="176" viewBox="0 0 179 176" fill="none" xmlns="http://www.w3.org/2000/svg">
<path d="M125.233 64.1555C124.455 63.1903 123.271 62.6298 122.026 62.5987L112.185 62.3184C112.216 58.831 111.967 56.5269 111.967 56.5269L89.3896 56.6203L66.8122 56.7137C66.8122 56.7137 66.5942 59.0179 66.6564 62.5053L56.8158 62.8478C55.5701 62.8789 54.4179 63.4705 53.6082 64.4358C52.8297 65.401 52.4872 66.6777 52.7052 67.892C53.2968 71.2549 54.885 77.7315 59.0268 83.274C61.3624 86.3877 64.1651 88.7853 67.435 90.4667C70.9539 92.2727 75.0023 93.2379 79.4555 93.3314C82.1959 94.9505 85.4969 96.0092 89.5141 96.196C93.5314 95.9781 96.8324 94.9194 99.5416 93.2379C104.026 93.1134 108.043 92.117 111.562 90.2799C114.801 88.5673 117.604 86.1386 119.908 82.9937C124.019 77.4201 125.576 70.9435 126.136 67.5807C126.354 66.3663 126.012 65.0897 125.233 64.1555ZM56.7847 67.1759C56.7847 67.1447 56.7535 67.0825 56.8158 67.0202C56.8781 66.9579 56.9404 66.9579 56.9715 66.9579L66.8433 66.5843C67.3415 73.3722 69.0543 82.2776 74.0681 88.5362C61.4247 85.4847 57.7812 72.9986 56.7847 67.1759ZM122.088 66.9268C121.123 72.7495 117.572 85.2668 104.96 88.4116C109.912 82.0907 111.562 73.1854 111.998 66.3974L121.87 66.6777C121.901 66.6777 121.963 66.6777 122.026 66.74C122.119 66.8334 122.119 66.8956 122.088 66.9268Z" fill="#506E79"/>
<path d="M95.3375 131.537L91.1334 92.3975L89.5452 96.2897V96.1963L87.9259 92.3352L84.0332 131.506L95.3375 131.537Z" fill="#506E79"/>
<path d="M93.4378 96.1962C93.4378 98.3446 91.725 100.088 89.5763 100.088C87.4275 100.088 85.6836 98.3758 85.6836 96.2273C85.6836 94.0788 87.3964 92.3351 89.5451 92.3351C91.6628 92.304 93.4067 94.0477 93.4378 96.1962Z" fill="#506E79"/>
<path d="M93.8425 113.073L85.4032 113.104C84.6247 113.104 83.9707 112.481 83.9707 111.703V111.391C83.9707 110.613 84.5935 109.959 85.3721 109.959L93.8113 109.928C94.5899 109.928 95.2438 110.55 95.2438 111.329V111.64C95.2438 112.45 94.621 113.073 93.8425 113.073Z" fill="#506E79"/>
<path d="M96.2725 134.246L83.0997 134.277C82.1966 134.277 81.4492 133.561 81.4492 132.627V132.253C81.4492 131.35 82.1655 130.603 83.0997 130.603L96.2725 130.541C97.1756 130.541 97.923 131.257 97.923 132.191V132.565C97.923 133.499 97.1756 134.246 96.2725 134.246Z" fill="#506E79"/>
<path d="M93.3442 113.073L85.8703 113.104L85.6523 115.19H93.5622L93.3442 113.073Z" fill="#354F55"/>
<path d="M81.5115 131.6C81.4492 131.755 81.4492 131.88 81.4492 132.035V132.876C81.4492 133.655 82.1032 134.309 82.8817 134.277L96.5216 134.215C97.3001 134.215 97.923 133.561 97.923 132.783V131.942C97.923 131.786 97.8918 131.631 97.8607 131.506L81.5115 131.6Z" fill="#354F55"/>
<path d="M99.0132 137.516L80.4219 137.578C79.1762 137.578 78.1797 136.582 78.1797 135.336V134.838C78.1797 133.592 79.1762 132.596 80.4219 132.596L99.0132 132.534C100.259 132.534 101.255 133.53 101.255 134.776V135.274C101.255 136.519 100.259 137.516 99.0132 137.516Z" fill="#506E79"/>
<path d="M111.966 56.4958L103.744 56.527C103.744 56.7138 103.713 56.9318 103.713 57.1186C91.1011 57.3988 66.9043 57.7413 66.9043 57.7413L103.246 62.2874C101.751 73.3412 96.7688 87.0417 81.1982 87.9136C77.6169 87.7579 74.5651 86.886 72.0115 85.5471C75.3747 91.3387 80.8245 95.7914 89.544 96.1961C115.89 94.7327 111.966 56.4958 111.966 56.4958Z" fill="#354F55"/>
<path d="M112.403 60.2012L66.4389 60.3881C64.8195 60.3881 63.4805 59.0803 63.4805 57.43V56.745C63.4805 55.1258 64.7884 53.7869 66.4389 53.7869L112.403 53.6001C114.023 53.6001 115.362 54.9079 115.362 56.5582V57.2432C115.331 58.8623 114.023 60.1701 112.403 60.2012Z" fill="#6A8792"/>
<path d="M45.8031 36.1855L38.8125 43.1753L41.0681 45.4306L48.0587 38.4408L45.8031 36.1855Z" fill="#CFF1F8"/>
<path d="M55.9565 16.2742L46.5605 13.2L45.5685 16.2312L54.9645 19.3055L55.9565 16.2742Z" fill="#F85454"/>
<path d="M17.9855 50.1244L8.61133 53.2639L9.62443 56.2882L18.9986 53.1487L17.9855 50.1244Z" fill="#25A9E0"/>
<path d="M20.9733 83.3427L11.4844 86.1184L12.3801 89.1796L21.869 86.4039L20.9733 83.3427Z" fill="#CCCCCC"/>
<path d="M166.769 76.2081L174.232 82.6919L176.324 80.2839L168.861 73.8L166.769 76.2081Z" fill="#CCCCCC"/>
<path d="M156.253 94.1199L146.566 96.0959L147.204 99.221L156.891 97.245L156.253 94.1199Z" fill="#CFF1F8"/>
<path d="M141.978 46.9148L132.291 48.8909L132.929 52.0159L142.615 50.0399L141.978 46.9148Z" fill="#F85454"/>
<path fill-rule="evenodd" clip-rule="evenodd" d="M79.7368 29.5378L78.7644 31.617L86.9103 35.4256L87.8827 33.3464L79.7368 29.5378ZM79.5212 28.9434L78.1699 31.8327L87.126 36.02L88.4772 33.1307L79.5212 28.9434Z" fill="#0C353E"/>
<path d="M50.11 92.99L42.5391 99.3462L44.5901 101.789L52.1611 95.4326L50.11 92.99Z" fill="#CCCCCC"/>
<path d="M138.434 140.874L130.863 147.23L132.914 149.673L140.485 143.317L138.434 140.874Z" fill="#CCCCCC"/>
<path d="M109.199 32.518L112.727 41.7527L115.707 40.6147L112.179 31.38L109.199 32.518Z" fill="#25A9E0"/>
<path fill-rule="evenodd" clip-rule="evenodd" d="M135.012 74.9529L134.023 83.8888L136.304 84.1413L137.294 75.2053L135.012 74.9529ZM134.617 74.4592L137.787 74.8101L136.7 84.6349L133.529 84.2841L134.617 74.4592Z" fill="#0C353E"/>
<path d="M151.983 116.685L144.412 123.041L146.463 125.484L154.034 119.128L151.983 116.685Z" fill="#25A9E0"/>
<path d="M7.69008 117.869L0.119141 124.226L2.17022 126.668L9.74116 120.312L7.69008 117.869Z" fill="#F85454"/>
<path d="M61.4959 153.234L62.168 163.097L65.3505 162.88L64.6784 153.017L61.4959 153.234Z" fill="#F85454"/>
<path d="M174.025 123.494L174.697 133.356L177.88 133.139L177.208 123.277L174.025 123.494Z" fill="#F85454"/>
<path fill-rule="evenodd" clip-rule="evenodd" d="M42.9411 122.2L51.1507 118.532L50.2144 116.437L42.0048 120.104L42.9411 122.2ZM42.7152 122.79L41.4141 119.878L50.4403 115.846L51.7414 118.758L42.7152 122.79Z" fill="#0C353E"/>
<path d="M23.2847 149.012L28.5254 157.393L31.2301 155.703L25.9893 147.321L23.2847 149.012Z" fill="#CCCCCC"/>
<path fill-rule="evenodd" clip-rule="evenodd" d="M166.64 17.4298C164.378 15.8107 161.583 14.4077 159.699 13.6119L159.873 13.2C161.776 14.004 164.603 15.422 166.9 17.0662C168.049 17.8878 169.074 18.773 169.786 19.6741C170.464 20.5327 170.88 21.4355 170.803 22.3274C171.456 22.9227 172.396 23.9686 173.213 25.2825C174.054 26.6339 174.776 28.2842 174.913 30.0313C175.593 30.7356 176.447 31.9662 176.886 33.4638C177.328 34.9757 177.349 36.7677 176.332 38.5551C177.225 39.8774 178.15 41.9949 178.108 44.2072C178.064 46.5076 176.974 48.8854 173.794 50.5506L173.587 50.1545C176.623 48.5647 177.62 46.3351 177.661 44.1987C177.699 42.197 176.896 40.2554 176.076 38.9785C174.786 41.0038 173.396 41.7819 172.19 41.9692C170.937 42.1637 169.93 41.7134 169.51 41.463C169.266 41.3179 169.013 41.0242 168.811 40.6718C168.607 40.314 168.442 39.8702 168.392 39.4024C168.343 38.9332 168.41 38.4328 168.681 37.9762C168.952 37.5185 169.415 37.1257 170.121 36.8512C171.52 36.3072 172.981 36.4549 174.118 36.8554C174.688 37.0558 175.184 37.3221 175.557 37.6046C175.761 37.759 175.94 37.9264 176.071 38.0988C176.887 36.5157 176.853 34.9427 176.457 33.5895C176.109 32.4039 175.485 31.3927 174.917 30.7074C174.768 32.6568 173.188 33.8034 171.566 34.2688C170.671 34.5253 169.739 34.585 168.976 34.4578C168.229 34.3336 167.567 34.015 167.34 33.4406C166.959 32.4784 166.956 31.6381 167.387 30.9101C167.81 30.1966 168.626 29.6347 169.782 29.16C170.752 28.7611 171.8 28.8176 172.699 29.0376C173.376 29.203 173.982 29.464 174.431 29.7093C174.238 28.1881 173.593 26.7395 172.834 25.5188C172.128 24.3841 171.329 23.4577 170.723 22.8666C170.365 24.8512 169.433 26.6637 168.289 27.7427C167.676 28.3204 166.986 28.7023 166.277 28.7659C165.559 28.8303 164.854 28.5641 164.233 27.9125C163.575 27.2236 163.526 26.2971 163.816 25.3963C164.106 24.4969 164.743 23.5865 165.525 22.86C166.306 22.134 167.254 21.5719 168.185 21.395C168.958 21.248 169.724 21.3683 170.352 21.8825C170.286 21.2711 169.965 20.6219 169.435 19.9512C168.76 19.0968 167.772 18.2398 166.64 17.4298ZM170.332 22.4845C169.778 21.8533 169.051 21.6856 168.268 21.8343C167.445 21.9908 166.57 22.4991 165.829 23.1876C165.088 23.8756 164.503 24.7236 164.242 25.5334C163.981 26.3418 164.052 27.0752 164.556 27.6039C165.096 28.17 165.671 28.3712 166.237 28.3205C166.814 28.2689 167.414 27.9529 167.982 27.4173C169.101 26.3622 170.033 24.5111 170.332 22.4845ZM174.479 30.2551C174.061 29.9931 173.378 29.6638 172.593 29.472C171.747 29.265 170.804 29.2234 169.952 29.5736C168.828 30.0353 168.121 30.5497 167.772 31.1381C167.432 31.7122 167.409 32.3994 167.755 33.2761C167.892 33.6212 168.341 33.8989 169.049 34.0167C169.739 34.1317 170.604 34.0794 171.442 33.8389C173.096 33.3646 174.554 32.1973 174.479 30.2551ZM175.822 38.5404C175.749 38.3841 175.576 38.1796 175.287 37.9612C174.955 37.71 174.501 37.4643 173.97 37.2772C172.905 36.9024 171.558 36.7722 170.283 37.268C169.652 37.5134 169.277 37.8482 169.066 38.2042C168.854 38.5613 168.796 38.9607 168.837 39.3556C168.879 39.752 169.021 40.1367 169.2 40.4501C169.382 40.7689 169.588 40.989 169.738 41.0787C170.106 41.2979 171.007 41.7003 172.121 41.5273C173.209 41.3584 174.549 40.6338 175.822 38.5404Z" fill="#0C353E"/>
<path fill-rule="evenodd" clip-rule="evenodd" d="M98.6581 70.0886C98.6592 70.8498 98.4638 71.5622 98.1603 72.2568C97.0589 74.7772 95.9698 77.3028 94.875 79.8261C94.6529 80.3382 94.4277 80.849 94.2015 81.3593C94.0881 81.6152 93.8785 81.7183 93.6147 81.6537C93.4542 81.6144 93.3592 81.5035 93.2956 81.3586C93.1076 80.9301 92.9179 80.5023 92.7317 80.073C91.5584 77.3689 90.3849 74.6649 89.2143 71.9597C89.0071 71.4809 88.8921 70.9776 88.8556 70.4567C88.7687 69.2186 89.0922 68.098 89.8429 67.1126C90.6137 66.1008 91.6302 65.4654 92.8848 65.248C94.3808 64.9888 95.7287 65.3484 96.8977 66.3184C97.8027 67.0694 98.3624 68.0373 98.5742 69.1978C98.6276 69.4905 98.645 69.7898 98.6789 70.0862L98.6581 70.0886ZM93.7486 75.0102C93.7638 74.9778 93.7724 74.9609 93.7797 74.9434C94.3641 73.5567 94.9503 72.1706 95.5311 70.7822C95.6753 70.4375 95.7059 70.0752 95.6293 69.7089C95.4156 68.6866 94.4726 68.0335 93.4452 68.1919C92.2235 68.3804 91.5036 69.6904 91.989 70.8339C92.4617 71.9472 92.9283 73.063 93.3977 74.1777C93.5122 74.4497 93.6269 74.7217 93.7486 75.0102Z" fill="white"/>
<path d="M88.7694 65.4282C87.5181 68.3163 86.2718 71.1929 85.021 74.0796H85.1312C85.9343 74.0796 86.7373 74.0793 87.5404 74.0798C87.8429 74.08 88.1258 74.1497 88.377 74.3254C88.5855 74.4713 88.7465 74.6556 88.8476 74.8933C89.0975 75.4801 89.352 76.0648 89.6047 76.6505C89.6152 76.675 89.6246 76.7 89.641 76.7409H89.5277C87.6694 76.7409 85.8113 76.7414 83.953 76.7389C83.8753 76.7388 83.8392 76.7634 83.8091 76.8332C83.3044 78.0045 82.8028 79.1772 82.2882 80.3442C82.0202 80.952 81.5519 81.3123 80.8837 81.3907C80.7724 81.4037 80.6599 81.4104 80.5479 81.4107C79.8819 81.4125 79.2159 81.4116 78.55 81.4116C78.5175 81.4116 78.4851 81.4116 78.4395 81.4116C78.4524 81.3756 78.4601 81.3504 78.4704 81.3264C79.5797 78.7735 80.6895 76.2208 81.7985 73.6677C82.8748 71.1899 83.9466 68.7101 85.029 66.2349C85.2499 65.7297 85.6618 65.4458 86.2126 65.4319C87.0426 65.411 87.8733 65.424 88.7036 65.4228C88.7198 65.4228 88.7359 65.4254 88.7694 65.4282Z" fill="white"/>
</svg>
