<svg width="54" height="54" viewBox="0 0 54 54" fill="none" xmlns="http://www.w3.org/2000/svg">
<g clip-path="url(#clip0)">
<path fill-rule="evenodd" clip-rule="evenodd" d="M52.5056 12.4164C52.5086 14.3367 52.0155 16.1337 51.25 17.8859C48.4717 24.2438 45.7244 30.6151 42.9625 36.9804C42.4023 38.2721 41.8341 39.5605 41.2635 40.8478C40.9776 41.4935 40.4488 41.7536 39.7831 41.5905C39.3785 41.4915 39.1386 41.2116 38.9783 40.8462C38.5041 39.7652 38.0256 38.6861 37.5559 37.6031C34.5961 30.7818 31.6357 23.9607 28.6828 17.1365C28.16 15.9288 27.8702 14.6591 27.778 13.3449C27.5586 10.2217 28.3748 7.39496 30.2686 4.90916C32.2128 2.35693 34.7772 0.754105 37.942 0.205627C41.7159 -0.448231 45.1159 0.458731 48.0651 2.9057C50.348 4.80015 51.7599 7.24188 52.2941 10.1693C52.4288 10.9077 52.4726 11.6628 52.5583 12.4104L52.5056 12.4164ZM40.1167 24.832C40.155 24.7503 40.1767 24.7077 40.1952 24.6636C41.6693 21.1653 43.148 17.6688 44.6133 14.1666C44.977 13.2969 45.0541 12.3831 44.8609 11.459C44.3218 8.88024 41.9431 7.23273 39.3512 7.63232C36.2696 8.10762 34.4535 11.4124 35.678 14.297C36.8702 17.1053 38.0474 19.9201 39.2314 22.7319C39.5204 23.4181 39.8097 24.1042 40.1167 24.832Z" fill="#0C353E"/>
<path d="M27.5602 0.659532C24.4037 7.94512 21.2597 15.2015 18.1045 22.4836H18.3826C20.4085 22.4836 22.4342 22.4828 24.4599 22.4841C25.2231 22.4845 25.9368 22.6604 26.5703 23.1036C27.0964 23.4717 27.5024 23.9366 27.7575 24.5361C28.3878 26.0164 29.03 27.4915 29.6673 28.9688C29.6939 29.0307 29.7176 29.0939 29.759 29.1969H29.473C24.7855 29.1969 20.098 29.1982 15.4105 29.1919C15.2144 29.1916 15.1233 29.2537 15.0475 29.4299C13.7742 32.3845 12.5089 35.3428 11.2108 38.2865C10.5346 39.8199 9.35351 40.7287 7.66777 40.9264C7.38714 40.9593 7.10319 40.9762 6.82084 40.977C5.14076 40.9815 3.46056 40.9792 1.78073 40.9792C1.69873 40.9792 1.61709 40.9792 1.50195 40.9792C1.53471 40.8884 1.55392 40.8248 1.58014 40.7644C4.3783 34.3243 7.17793 27.8849 9.97547 21.4445C12.6906 15.194 15.3943 8.93845 18.1248 2.69463C18.682 1.42017 19.721 0.704062 21.1106 0.668976C23.2041 0.616205 25.2997 0.64904 27.3944 0.646041C27.435 0.645886 27.4758 0.652486 27.5602 0.659532Z" fill="#0C353E"/>
<path d="M24.8091 52.9353C25.3202 52.9353 25.8031 52.9353 26.2859 52.9353C26.6454 52.9353 27.0047 52.9316 27.364 52.9364C27.6563 52.9405 27.855 53.1417 27.8629 53.4338C27.8669 53.5774 27.8634 53.7212 27.8634 53.8757H23.7588V48.2939H27.8484C27.8484 48.4951 27.8711 48.709 27.842 48.9156C27.8123 49.1285 27.6329 49.2246 27.3464 49.2252C26.5861 49.2265 25.8259 49.2257 25.0658 49.2257H24.8119C24.8119 49.6756 24.8077 50.1093 24.8202 50.5424C24.8215 50.5748 24.9424 50.6296 25.008 50.6303C25.6507 50.6369 26.2934 50.6343 26.9361 50.6343C27.0177 50.6343 27.0997 50.6343 27.2211 50.6343C27.2098 50.8631 27.2184 51.0768 27.1832 51.2828C27.15 51.4773 26.9776 51.5723 26.7153 51.574C26.1624 51.5776 25.6093 51.584 25.0569 51.5705C24.8553 51.5657 24.796 51.6263 24.8047 51.8257C24.8205 52.1841 24.8091 52.5436 24.8091 52.9353Z" fill="#0C353E"/>
<path d="M49.8994 48.2852H53.9948C53.9948 48.4775 54.0093 48.6634 53.9914 48.8462C53.9667 49.0992 53.7918 49.2242 53.4864 49.225C52.719 49.2271 51.9516 49.2257 51.1842 49.2257C51.1096 49.2257 51.0352 49.2257 50.9473 49.2257V50.6273H53.3295C53.3295 50.8474 53.3488 51.0479 53.3245 51.2428C53.2967 51.4637 53.1274 51.5716 52.8457 51.5739C52.2927 51.5781 51.7397 51.5752 51.1866 51.5754C51.1121 51.5754 51.0377 51.5754 50.9487 51.5754V52.9353H51.2198C51.9596 52.9353 52.6994 52.9346 53.4391 52.9356C53.8037 52.9362 53.9962 53.1323 53.999 53.5025C54 53.6199 53.9992 53.7373 53.9992 53.8708H49.8994V48.2852Z" fill="#0C353E"/>
<path fill-rule="evenodd" clip-rule="evenodd" d="M28.916 48.2766C29.3897 48.2766 29.8515 48.2707 30.3129 48.2782C30.8097 48.2863 31.3118 48.2658 31.8016 48.3314C32.719 48.4544 33.356 49.244 33.3903 50.1551C33.4378 51.4068 32.6717 52.1841 31.3538 52.2157C30.9055 52.2265 30.4566 52.2175 29.9789 52.2175C29.9789 52.5804 29.9789 52.9309 29.9789 53.2815C29.9787 53.7575 29.8511 53.8867 29.3793 53.8868C29.2287 53.8869 29.0781 53.8868 28.916 53.8868V48.2766ZM29.9864 51.2686C30.0826 51.2686 30.1572 51.2688 30.2319 51.2684C30.618 51.2668 31.0061 51.2873 31.3901 51.258C31.9273 51.217 32.2803 50.8558 32.3098 50.3673C32.3439 49.7978 32.0567 49.3314 31.5328 49.268C31.0267 49.2068 30.5077 49.2548 29.9864 49.2548V51.2686Z" fill="#0C353E"/>
<path d="M10.0637 52.5049C9.70189 53.5146 8.33705 54.1695 7.0568 53.9619C5.7087 53.7432 4.69246 52.5973 4.64369 51.2411C4.59198 49.8003 5.50405 48.5692 6.85953 48.2508C8.15986 47.9452 9.5742 48.5629 10.075 49.6777C9.82023 49.7754 9.57285 49.9078 9.31007 49.9557C9.1777 49.9798 8.96899 49.8923 8.87762 49.7846C8.29063 49.0938 7.35762 49.0702 6.78122 49.3528C6.09276 49.6904 5.6347 50.5038 5.72298 51.2461C5.82777 52.1271 6.37955 52.7934 7.1792 52.9513C7.81581 53.0771 8.38581 52.9235 8.83858 52.4301C9.06343 52.1849 9.19334 52.1516 9.49626 52.2714C9.68675 52.3469 9.87539 52.4272 10.0637 52.5049Z" fill="#0C353E"/>
<path d="M48.9498 49.6805C48.7074 49.775 48.4692 49.8823 48.2216 49.9598C48.0076 50.0269 47.8553 49.8936 47.719 49.7461C47.372 49.3706 46.946 49.1797 46.4318 49.1833C45.5711 49.1894 44.8472 49.788 44.6502 50.6631C44.4512 51.5474 44.8934 52.4626 45.7015 52.839C46.3558 53.1439 47.1561 52.9977 47.6712 52.479C47.9986 52.1495 48.0565 52.1375 48.4865 52.3138C48.6383 52.3759 48.7898 52.4391 48.9406 52.5012C48.6793 53.2623 47.6144 54.1731 45.9917 53.9678C44.7047 53.805 43.5882 52.6696 43.5283 51.2312C43.4588 49.5674 44.6625 48.4633 45.7937 48.2426C47.4638 47.9169 48.5942 48.844 48.9498 49.6805Z" fill="#0C353E"/>
<path d="M20.3077 51.5031C20.3505 51.4166 20.3814 51.3572 20.4094 51.2966C20.8052 50.4451 21.2071 49.5964 21.5931 48.7404C21.7426 48.4087 21.9667 48.245 22.3355 48.2737C22.5412 48.2898 22.749 48.2766 23.0037 48.2766C22.1079 50.1665 21.2247 52.0294 20.3417 53.8922L20.2812 53.8976C19.4011 52.0375 18.5209 50.1772 17.6309 48.2962C17.9668 48.2962 18.2804 48.2748 18.5896 48.3037C18.7946 48.3229 18.9106 48.4965 18.9957 48.6822C19.3932 49.5481 19.7942 50.4123 20.1947 51.2768C20.2256 51.3434 20.2601 51.4082 20.3077 51.5031Z" fill="#0C353E"/>
<path d="M14.919 48.276C14.919 48.4534 14.9259 48.6047 14.9177 48.7552C14.9006 49.0664 14.7412 49.2199 14.4287 49.2238C14.064 49.2284 13.6991 49.2248 13.3069 49.2248V49.4857C13.3069 50.7728 13.3074 52.0597 13.3069 53.3468C13.3067 53.744 13.168 53.8841 12.7741 53.8859C12.6028 53.8868 12.4316 53.8861 12.2379 53.8861V49.2294H10.656C10.656 48.9977 10.6354 48.7845 10.6622 48.5776C10.6873 48.383 10.86 48.2786 11.0996 48.2773C11.6799 48.274 12.2601 48.276 12.8405 48.276C13.5237 48.2759 14.2071 48.276 14.919 48.276Z" fill="#0C353E"/>
<path d="M35.2898 52.9352C36.0989 52.9352 36.879 52.935 37.6589 52.9352C38.112 52.9352 38.2389 53.0612 38.2396 53.5121C38.2399 53.6286 38.2397 53.7451 38.2397 53.8739H34.2227V48.2952C34.4713 48.2952 34.727 48.2679 34.9721 48.308C35.0776 48.3252 35.1868 48.468 35.2456 48.5793C35.2962 48.6753 35.288 48.8079 35.2883 48.9242C35.2907 50.1772 35.2898 51.4301 35.2898 52.683C35.2898 52.7579 35.2898 52.833 35.2898 52.9352Z" fill="#0C353E"/>
<path d="M2.31534 51.314C2.62059 51.314 2.89457 51.3198 3.1683 51.3124C3.42196 51.3057 3.58623 51.4196 3.68154 51.6496C3.75763 51.8337 3.83792 52.016 3.92879 52.2283C3.83829 52.2326 3.76699 52.239 3.69607 52.2392C3.16412 52.2399 2.63204 52.2454 2.10034 52.236C1.95122 52.2333 1.87906 52.2862 1.82439 52.42C1.67847 52.7777 1.51716 53.129 1.36657 53.4849C1.25033 53.7589 1.04358 53.8864 0.751379 53.8862C0.51077 53.8861 0.270161 53.8862 0 53.8862C0.106636 53.6369 0.202436 53.4099 0.300453 53.1839C0.9548 51.6783 1.61383 50.1745 2.26079 48.6657C2.38109 48.385 2.55878 48.2549 2.86379 48.2732C3.10402 48.2876 3.34587 48.2762 3.62785 48.2762C3.18702 49.2961 2.75727 50.2909 2.31534 51.314Z" fill="#0C353E"/>
<path d="M38.8848 53.8869C39.0957 53.3967 39.2928 52.9355 39.4927 52.4754C40.0422 51.2099 40.5971 49.9467 41.1401 48.6784C41.2622 48.3934 41.4422 48.2524 41.7579 48.2736C41.9984 48.2897 42.2405 48.2767 42.514 48.2767C42.0749 49.2928 41.6445 50.2882 41.201 51.3147C41.501 51.3147 41.768 51.3222 42.0345 51.3126C42.3055 51.303 42.4789 51.4221 42.577 51.6702C42.6476 51.8486 42.7261 52.0238 42.818 52.2403C42.7104 52.2403 42.6321 52.2403 42.5539 52.2403C42.0288 52.2403 41.5036 52.2445 40.9788 52.2374C40.8426 52.2355 40.7705 52.2728 40.7175 52.4069C40.5806 52.7531 40.4178 53.0891 40.2769 53.4338C40.149 53.7468 39.9288 53.8993 39.5897 53.8882C39.3691 53.8812 39.1482 53.8869 38.8848 53.8869Z" fill="#0C353E"/>
<path d="M15.7912 48.276C16.0009 48.276 16.1797 48.2745 16.3585 48.2763C16.7069 48.2796 16.8611 48.4325 16.8623 48.7862C16.8649 49.5612 16.863 50.3363 16.863 51.1113C16.863 51.9556 16.863 52.7997 16.863 53.644V53.8825C16.6202 53.8825 16.3993 53.8979 16.1817 53.8786C15.9173 53.8554 15.7925 53.6876 15.792 53.3861C15.7904 52.1337 15.7912 50.8811 15.7912 49.6285C15.7912 49.187 15.7912 48.7453 15.7912 48.276Z" fill="#0C353E"/>
</g>
<defs>
<clipPath id="clip0">
<rect width="54" height="54" fill="white"/>
</clipPath>
</defs>
</svg>
