<svg width="44" height="44" viewBox="0 0 44 44" fill="none" xmlns="http://www.w3.org/2000/svg">
<g filter="url(#filter0_d)">
<circle cx="22" cy="18" r="12" fill="white"/>
</g>
<g clip-path="url(#clip0)">
<path d="M21.8108 18.4659C21.0827 18.4535 20.4938 18.1976 20.0614 17.708C19.1046 16.6295 19.2637 14.7807 19.2811 14.6043C19.3432 13.2698 19.9794 12.6362 20.5012 12.3404C21.0206 12.0447 21.5623 12 21.8381 12H21.8804C22.3823 12.0099 22.8321 12.1292 23.2173 12.3504C23.7342 12.6461 24.3604 13.2798 24.4225 14.6043C24.4399 14.7807 24.5989 16.6295 23.6422 17.708C23.2074 18.1976 22.6184 18.4535 21.8903 18.4659H21.8108Z" fill="#C2C8C9"/>
<path d="M20.3535 19.142C20.1161 18.9772 19.8109 18.6387 19.8109 18.6387C19.8109 18.6387 19.0294 19.1576 17.9037 19.4434C17.8938 19.4459 17.8863 19.4484 17.8789 19.4509C16.8031 19.8202 16.7682 20.9658 16.7533 21.4575L16.7532 21.4612C16.7532 21.4836 16.7532 21.5035 16.7507 21.5233V21.5308C16.7482 21.66 16.7457 22.3235 16.8774 22.6565C16.9023 22.7211 16.947 22.7758 17.0066 22.813C17.0812 22.8627 18.8679 24.0009 21.8573 24.0009C24.8339 24.0009 26.6181 22.87 26.707 22.8137L26.708 22.813C26.7652 22.7758 26.8124 22.7211 26.8372 22.6565C26.9615 22.326 26.959 21.6625 26.9565 21.5333V21.5258C26.9565 21.5162 26.9559 21.5065 26.9553 21.4966C26.9547 21.4861 26.954 21.4752 26.954 21.4637L26.9539 21.4602C26.939 20.9662 26.9043 19.8202 25.8283 19.4533C25.8246 19.4521 25.8203 19.4509 25.8159 19.4496C25.8116 19.4484 25.8072 19.4471 25.8035 19.4459C24.6828 19.1601 23.8705 18.6387 23.8705 18.6387C23.8705 18.6387 23.5812 18.9756 23.3535 19.1414C22.4065 19.831 21.316 19.81 20.3535 19.142Z" fill="#C2C8C9"/>
</g>
<defs>
<filter id="filter0_d" x="0" y="0" width="44" height="44" filterUnits="userSpaceOnUse" color-interpolation-filters="sRGB">
<feFlood flood-opacity="0" result="BackgroundImageFix"/>
<feColorMatrix in="SourceAlpha" type="matrix" values="0 0 0 0 0 0 0 0 0 0 0 0 0 0 0 0 0 0 127 0"/>
<feOffset dy="4"/>
<feGaussianBlur stdDeviation="5"/>
<feColorMatrix type="matrix" values="0 0 0 0 0.0403125 0 0 0 0 0.154173 0 0 0 0 0.179167 0 0 0 0.15 0"/>
<feBlend mode="normal" in2="BackgroundImageFix" result="effect1_dropShadow"/>
<feBlend mode="normal" in="SourceGraphic" in2="effect1_dropShadow" result="shape"/>
</filter>
<clipPath id="clip0">
<rect width="12" height="12" fill="white" transform="translate(16 12)"/>
</clipPath>
</defs>
</svg>
