<svg width="40" height="40" viewBox="0 0 40 40" fill="none" xmlns="http://www.w3.org/2000/svg">
<g filter="url(#filter0_d)">
<circle cx="20" cy="16" r="10" fill="white"/>
</g>
<path d="M23.7777 14.2816C23.7007 14.1276 23.5434 14.0303 23.3712 14.0303H21.0764L22.2626 11.6578C22.3331 11.5169 22.3255 11.3496 22.2427 11.2156C22.1599 11.0816 22.0136 11 21.856 11H19.1288C18.9566 11 18.7992 11.0973 18.7222 11.2513L16.298 16.0997C16.2275 16.2406 16.2351 16.408 16.3179 16.542C16.4007 16.676 16.547 16.7576 16.7045 16.7576H19.1725L18.3813 20.4502C18.3366 20.6589 18.4431 20.8706 18.6374 20.9591C18.6981 20.9867 18.7622 21 18.8256 21C18.9652 21 19.1013 20.9356 19.1894 20.8181L23.7348 14.7576C23.8381 14.6198 23.8547 14.4355 23.7777 14.2816Z" fill="#0C353E"/>
<defs>
<filter id="filter0_d" x="0" y="0" width="40" height="40" filterUnits="userSpaceOnUse" color-interpolation-filters="sRGB">
<feFlood flood-opacity="0" result="BackgroundImageFix"/>
<feColorMatrix in="SourceAlpha" type="matrix" values="0 0 0 0 0 0 0 0 0 0 0 0 0 0 0 0 0 0 127 0"/>
<feOffset dy="4"/>
<feGaussianBlur stdDeviation="5"/>
<feColorMatrix type="matrix" values="0 0 0 0 0.0403125 0 0 0 0 0.154173 0 0 0 0 0.179167 0 0 0 0.15 0"/>
<feBlend mode="normal" in2="BackgroundImageFix" result="effect1_dropShadow"/>
<feBlend mode="normal" in="SourceGraphic" in2="effect1_dropShadow" result="shape"/>
</filter>
</defs>
</svg>
