<svg width="44" height="44" viewBox="0 0 44 44" fill="none" xmlns="http://www.w3.org/2000/svg">
<g filter="url(#filter0_d)">
<circle cx="22" cy="18" r="12" fill="white"/>
</g>
<g clip-path="url(#clip0)">
<path d="M21.9138 17.7804C22.7079 17.7804 23.3954 17.4956 23.9574 16.9337C24.5192 16.3718 24.8041 15.6843 24.8041 14.8901C24.8041 14.0962 24.5193 13.4086 23.9573 12.8466C23.3954 12.2848 22.7078 12 21.9138 12C21.1195 12 20.4321 12.2848 19.8702 12.8467C19.3083 13.4085 19.0234 14.0961 19.0234 14.8901C19.0234 15.6843 19.3083 16.3719 19.8702 16.9338C20.4323 17.4955 21.1198 17.7804 21.9138 17.7804ZM20.3675 13.3439C20.7986 12.9128 21.3044 12.7032 21.9138 12.7032C22.523 12.7032 23.0289 12.9128 23.4601 13.3439C23.8912 13.7751 24.1009 14.2809 24.1009 14.8901C24.1009 15.4995 23.8912 16.0052 23.4601 16.4365C23.0289 16.8677 22.523 17.0772 21.9138 17.0772C21.3046 17.0772 20.7988 16.8676 20.3675 16.4365C19.9363 16.0053 19.7267 15.4995 19.7267 14.8901C19.7267 14.2809 19.9363 13.7751 20.3675 13.3439Z" fill="#0C353E"/>
<path d="M26.9718 21.2276C26.9556 20.9937 26.9228 20.7387 26.8745 20.4693C26.8258 20.198 26.7631 19.9414 26.688 19.707C26.6104 19.4646 26.505 19.2253 26.3746 18.996C26.2393 18.7579 26.0804 18.5507 25.9021 18.3801C25.7156 18.2017 25.4872 18.0582 25.2232 17.9536C24.9601 17.8495 24.6685 17.7967 24.3566 17.7967C24.2341 17.7967 24.1156 17.847 23.8868 17.9959C23.746 18.0878 23.5813 18.194 23.3975 18.3114C23.2403 18.4116 23.0273 18.5054 22.7643 18.5904C22.5077 18.6734 22.2471 18.7155 21.9898 18.7155C21.7328 18.7155 21.4722 18.6734 21.2154 18.5904C20.9526 18.5055 20.7396 18.4117 20.5827 18.3115C20.4006 18.1952 20.2358 18.089 20.0929 17.9958C19.8643 17.8469 19.7458 17.7966 19.6233 17.7966C19.3113 17.7966 19.0198 17.8495 18.7567 17.9536C18.4929 18.0581 18.2645 18.2016 18.0778 18.3802C17.8994 18.5508 17.7405 18.758 17.6054 18.996C17.4751 19.2253 17.3696 19.4645 17.292 19.7071C17.217 19.9415 17.1543 20.198 17.1056 20.4693C17.0573 20.7383 17.0246 20.9935 17.0084 21.2278C16.9924 21.457 16.9844 21.6955 16.9844 21.9365C16.9844 22.5629 17.1835 23.07 17.5762 23.444C17.964 23.813 18.4771 24.0001 19.1012 24.0001H24.8792C25.5032 24.0001 26.0162 23.813 26.4041 23.444C26.7969 23.0702 26.996 22.5629 26.996 21.9364C26.9959 21.6946 26.9878 21.4561 26.9718 21.2276ZM25.9193 22.9345C25.663 23.1784 25.3228 23.2969 24.8792 23.2969H19.1012C18.6574 23.2969 18.3172 23.1784 18.061 22.9346C17.8097 22.6953 17.6876 22.3688 17.6876 21.9365C17.6876 21.7116 17.695 21.4896 17.7098 21.2765C17.7243 21.0673 17.7539 20.8376 17.7977 20.5936C17.841 20.3525 17.8961 20.1263 17.9617 19.9215C18.0246 19.7251 18.1104 19.5306 18.2168 19.3433C18.3183 19.1648 18.4351 19.0116 18.564 18.8882C18.6846 18.7728 18.8366 18.6783 19.0157 18.6074C19.1813 18.5419 19.3674 18.506 19.5695 18.5006C19.5941 18.5137 19.6379 18.5387 19.709 18.585C19.8535 18.6792 20.0202 18.7867 20.2044 18.9043C20.412 19.0367 20.6795 19.1563 20.9991 19.2595C21.3259 19.3651 21.6591 19.4188 21.9899 19.4188C22.3207 19.4188 22.6541 19.3651 22.9806 19.2595C23.3005 19.1562 23.5679 19.0367 23.7758 18.9041C23.9644 18.7837 24.1263 18.6793 24.2709 18.585C24.3419 18.5388 24.3858 18.5137 24.4104 18.5006C24.6125 18.506 24.7987 18.5419 24.9644 18.6074C25.1434 18.6783 25.2953 18.7729 25.4159 18.8882C25.5448 19.0115 25.6617 19.1647 25.7632 19.3434C25.8697 19.5306 25.9555 19.7252 26.0183 19.9214C26.084 20.1265 26.1392 20.3526 26.1824 20.5935C26.2262 20.838 26.2558 21.0678 26.2703 21.2765V21.2767C26.2852 21.489 26.2927 21.711 26.2928 21.9365C26.2927 22.3689 26.1706 22.6953 25.9193 22.9345Z" fill="#0C353E"/>
</g>
<defs>
<filter id="filter0_d" x="0" y="0" width="44" height="44" filterUnits="userSpaceOnUse" color-interpolation-filters="sRGB">
<feFlood flood-opacity="0" result="BackgroundImageFix"/>
<feColorMatrix in="SourceAlpha" type="matrix" values="0 0 0 0 0 0 0 0 0 0 0 0 0 0 0 0 0 0 127 0"/>
<feOffset dy="4"/>
<feGaussianBlur stdDeviation="5"/>
<feColorMatrix type="matrix" values="0 0 0 0 0.0403125 0 0 0 0 0.154173 0 0 0 0 0.179167 0 0 0 0.15 0"/>
<feBlend mode="normal" in2="BackgroundImageFix" result="effect1_dropShadow"/>
<feBlend mode="normal" in="SourceGraphic" in2="effect1_dropShadow" result="shape"/>
</filter>
<clipPath id="clip0">
<rect width="12" height="12" fill="white" transform="translate(16 12)"/>
</clipPath>
</defs>
</svg>
