<svg width="40" height="40" viewBox="0 0 40 40" fill="none" xmlns="http://www.w3.org/2000/svg">
<g filter="url(#filter0_d)">
<circle cx="20" cy="16" r="10" fill="white"/>
</g>
<path d="M16.3323 17.2503C16.3323 17.2503 17.9185 16.998 19.8291 18.6923V13.1767C19.721 13.1046 19.5768 12.9964 19.4326 12.8883C18.0627 12.0591 16.4044 12.2754 16.4044 12.2754C16.1881 12.2754 16.0078 12.3836 16.0078 12.5638V16.9259C16.0078 17.0701 16.0078 17.2864 16.3323 17.2503Z" fill="#0C353E"/>
<path d="M23.578 17.4305C23.9024 17.4305 23.9024 17.3584 23.9024 17.2142V12.5637C23.9024 12.4195 23.7222 12.2753 23.5059 12.2753C23.5059 12.2753 21.8476 12.0951 20.5137 12.9242C20.4056 12.9963 20.2253 13.1045 20.1172 13.2126V18.7283C21.5952 17.2863 23.578 17.4305 23.578 17.4305Z" fill="#0C353E"/>
<path d="M24.9869 17.6829V12.8162C24.9869 12.7801 24.9869 12.7441 24.9509 12.7441C24.9509 12.7441 24.6985 12.5638 24.338 12.708V17.5027V17.5387C24.302 17.8271 24.1578 17.9353 23.7612 17.9353C23.7612 17.9353 23.7252 17.9353 23.6531 17.9353C23.1844 17.9353 21.5622 18.0434 20.3004 19.2331L20.1562 19.3773V19.4494C20.1923 19.4494 20.2284 19.4133 20.2284 19.4133L20.733 19.161C22.6437 18.3679 24.302 18.44 24.302 18.44C24.5904 18.44 24.7706 18.3679 24.9148 18.2597C24.9869 18.1155 25.023 17.9353 24.9869 17.6829Z" fill="#0C353E"/>
<path d="M16.442 17.7551C16.2978 17.7551 16.2257 17.7551 16.2257 17.7551C16.0454 17.7551 15.9373 17.719 15.8291 17.6109C15.6849 17.4667 15.6849 17.2864 15.6849 17.1783V12.672C15.3244 12.4918 15.1081 12.672 15.0721 12.672C15.036 12.672 15 12.7081 15 12.7441V18.0074C15 18.2598 15.2163 18.404 15.5407 18.404C15.5768 18.404 17.5595 18.3319 19.3981 19.2331L19.7946 19.4134C19.8307 19.4134 19.8307 19.4494 19.8667 19.4494V19.4134L19.7225 19.2692C18.2445 17.8993 16.9467 17.7551 16.442 17.7551Z" fill="#0C353E"/>
<defs>
<filter id="filter0_d" x="0" y="0" width="40" height="40" filterUnits="userSpaceOnUse" color-interpolation-filters="sRGB">
<feFlood flood-opacity="0" result="BackgroundImageFix"/>
<feColorMatrix in="SourceAlpha" type="matrix" values="0 0 0 0 0 0 0 0 0 0 0 0 0 0 0 0 0 0 127 0"/>
<feOffset dy="4"/>
<feGaussianBlur stdDeviation="5"/>
<feColorMatrix type="matrix" values="0 0 0 0 0.0403125 0 0 0 0 0.154173 0 0 0 0 0.179167 0 0 0 0.15 0"/>
<feBlend mode="normal" in2="BackgroundImageFix" result="effect1_dropShadow"/>
<feBlend mode="normal" in="SourceGraphic" in2="effect1_dropShadow" result="shape"/>
</filter>
</defs>
</svg>
