<svg width="40" height="40" viewBox="0 0 40 40" fill="none" xmlns="http://www.w3.org/2000/svg">
<g filter="url(#filter0_d)">
<circle cx="20" cy="16" r="10" fill="white"/>
</g>
<path d="M24.1608 16.482C23.9293 16.2504 23.5982 16.2131 23.2034 16.4057L21.1261 17.5581C21.0543 17.5981 20.9602 17.5703 20.9211 17.4992C20.9016 17.4641 20.8968 17.4234 20.908 17.3848C20.9192 17.3461 20.9444 17.3142 20.9796 17.2948L21.6953 16.8981V12.5755C21.6953 12.2213 21.4071 11.933 21.053 11.933C20.699 11.933 20.4109 12.2211 20.4109 12.5755V15.7809C20.4109 15.8642 20.3433 15.9319 20.2599 15.9319C20.1769 15.9319 20.1091 15.8643 20.1091 15.7809V11.6421C20.1091 11.2881 19.821 11 19.4669 11C19.1127 11 18.8246 11.2879 18.8246 11.6421V15.7809C18.8246 15.8642 18.757 15.9319 18.6738 15.9319C18.5906 15.9319 18.523 15.8643 18.523 15.7809V12.3885C18.523 12.0345 18.2349 11.7464 17.8807 11.7464C17.5266 11.7464 17.2385 12.0343 17.2385 12.3885V15.7809C17.2385 15.8642 17.1709 15.9319 17.0877 15.9319C17.0045 15.9319 16.9369 15.8643 16.9369 15.7809V13.5085C16.9369 13.1543 16.6488 12.866 16.2946 12.866C15.9405 12.866 15.6523 13.1541 15.6523 13.5085V17.4032C15.6523 19.3866 17.2657 21 19.2489 21C20.1506 21 21.0431 20.6046 21.7647 19.8841L24.1564 17.3954C24.4092 17.142 24.4113 16.7324 24.1608 16.482Z" fill="#0C353E"/>
<defs>
<filter id="filter0_d" x="0" y="0" width="40" height="40" filterUnits="userSpaceOnUse" color-interpolation-filters="sRGB">
<feFlood flood-opacity="0" result="BackgroundImageFix"/>
<feColorMatrix in="SourceAlpha" type="matrix" values="0 0 0 0 0 0 0 0 0 0 0 0 0 0 0 0 0 0 127 0"/>
<feOffset dy="4"/>
<feGaussianBlur stdDeviation="5"/>
<feColorMatrix type="matrix" values="0 0 0 0 0.0403125 0 0 0 0 0.154173 0 0 0 0 0.179167 0 0 0 0.15 0"/>
<feBlend mode="normal" in2="BackgroundImageFix" result="effect1_dropShadow"/>
<feBlend mode="normal" in="SourceGraphic" in2="effect1_dropShadow" result="shape"/>
</filter>
</defs>
</svg>
