<svg width="440" height="170" viewBox="0 0 440 170" fill="none" xmlns="http://www.w3.org/2000/svg">
  <g clip-path="url(#clip0)">
    <path d="M430.97 131.902C430.778 124.747 429.7 119.05 427.957 114.472C425.181 107.156 420.72 102.666 415.522 99.6038C414.724 99.1327 413.912 98.6911 413.085 98.2936C412.745 98.1317 412.405 97.9551 412.051 97.8079C410.515 97.1012 408.95 96.4829 407.355 95.9235C406.527 95.6291 405.7 95.3494 404.859 95.0844C404.534 94.9814 404.224 94.8784 403.899 94.79C401.122 93.9362 398.331 93.1707 395.628 92.3611C394.638 92.0666 393.664 91.7575 392.718 91.4336C391.803 91.1245 390.887 90.8006 390.001 90.462C388.421 89.8438 386.9 89.1666 385.467 88.3716C385.378 88.3275 385.275 88.2686 385.186 88.2097C384.788 87.9889 384.404 87.7534 384.02 87.5178C381.671 86.031 379.618 84.1909 377.979 81.7913C377.89 81.6588 377.802 81.5411 377.728 81.4086C377.507 81.07 377.285 80.7167 377.093 80.3487C375.808 78.0522 374.863 75.3141 374.346 71.9871C374.139 70.6475 374.006 69.2195 373.947 67.6885C373.031 44.1201 348.87 -9.44988 282.158 1.44371C279.19 1.92951 276.133 2.54779 273.001 3.28385C271.288 3.69604 269.531 4.13767 267.773 4.63818C213.556 19.7273 227.085 44.5028 150.449 32.1813C147.525 31.7102 144.482 31.195 141.292 30.6062C140.258 30.4148 139.224 30.2234 138.161 30.032C118.385 26.3076 63.8585 25.233 24.5584 64.6413C23.5984 65.5981 22.6827 66.5697 21.7966 67.556C20.4821 69.0282 19.2563 70.515 18.1043 72.0165C18.0157 72.1343 17.9271 72.2374 17.8533 72.3551C16.3321 74.3719 14.9733 76.4329 13.7327 78.5085C13.2454 79.3329 12.7728 80.1573 12.3297 80.9964C11.9309 81.7324 11.5617 82.4538 11.2072 83.1898C9.83373 85.9868 8.68175 88.8427 7.73654 91.7133C7.52978 92.3611 7.32301 92.9941 7.13102 93.6418C6.99809 94.1129 6.85041 94.5692 6.73225 95.0403C6.5698 95.6439 6.40734 96.2621 6.24488 96.8657C6.1415 97.2926 6.03811 97.7048 5.9495 98.1317C5.89042 98.4114 5.83135 98.6764 5.77227 98.9561C5.59505 99.751 5.43259 100.546 5.29967 101.341C5.01906 102.901 4.78275 104.476 4.59076 106.052C4.31015 108.392 4.13292 110.733 4.05908 113.074C4.02954 114.089 4 115.105 4 116.121C4 134.213 9.40543 151.805 15.1062 165.333C15.5936 166.496 16.081 167.615 16.5684 168.705C16.657 168.881 16.7308 169.073 16.8194 169.249C16.9228 169.47 17.0262 169.691 17.1148 169.912H17.868C17.868 169.926 17.8828 169.926 17.8828 169.941L17.9123 170V169.912H426.244C426.333 169.514 426.421 169.102 426.51 168.705C429.907 153.35 431.221 141.353 430.97 131.902Z" fill="#F5FBFF"/>
    <path d="M428.435 114.464C425.654 107.149 421.187 102.659 415.981 99.5973C415.182 99.1263 414.369 98.6847 413.54 98.2872C413.2 98.1253 412.86 97.9487 412.505 97.8015C410.967 97.0949 409.399 96.4767 407.801 95.9173L404.34 94.7839C401.56 93.9301 398.764 93.1647 396.057 92.3551C395.066 92.0607 394.09 91.7516 393.144 91.4278C392.227 91.1186 391.31 90.7948 390.422 90.4562C388.84 89.838 387.316 89.1609 385.881 88.366C385.793 88.3219 385.689 88.263 385.6 88.2041C385.201 87.9833 384.816 87.7478 384.432 87.5123C382.08 86.0256 380.024 84.1856 378.382 81.7862C378.294 81.6538 378.205 81.536 378.131 81.4035C377.909 81.065 377.687 80.7117 377.495 80.3437C376.208 78.0474 375.261 75.3095 374.744 71.9828H363.946V86.9824H356.3V90.7654H348.046V84.2592H333.211V66.5659H330.889V64.7995H330.563V66.5659H328.641H319.012V64.8142H318.686V66.5659H316.172V75.4567L303.703 75.4125V80.903H293.128V46.959H261.815V83.3171H252.245V63.6513H220.933V169.899H426.349C426.408 169.62 426.468 169.325 426.527 169.046C426.556 168.928 426.571 168.81 426.601 168.692C426.837 167.544 427.074 166.426 427.296 165.322C429.958 151.941 431.245 140.96 431.452 131.878C431.26 124.739 430.18 119.042 428.435 114.464Z" fill="#DFEBFA"/>
    <path d="M220.962 169.913V168.706V86.8047H220.932H205.727H205.239V168.706V169.913H206.896H220.932H220.962Z" fill="#EAF1F8"/>
    <path d="M368.339 64.9766H367.762V72.101H368.339V64.9766Z" fill="#EAF1F8"/>
    <path d="M264.253 44.4121H263.885V46.9586H264.253V44.4121Z" fill="#EAF1F8"/>
    <path d="M272.182 44.4121H271.813V46.9586H272.182V44.4121Z" fill="#EAF1F8"/>
    <path d="M290.359 44.4121H289.991V46.9586H290.359V44.4121Z" fill="#EAF1F8"/>
    <path d="M283.26 44.4121H282.892V46.9586H283.26V44.4121Z" fill="#EAF1F8"/>
    <path d="M206.881 168.706L205.727 86.8189L205.55 74.3806H197.282V58.0415C197.149 57.9826 197.03 57.909 196.897 57.8501H194.427V57.8354H180.095V57.8501H180.08V60.2936H180.095V61.9717H180.08V64.4152H180.095V66.108H180.08V68.5515H180.095V68.5662L178.571 68.5515V55.7305H162.479V57.3497H162.464V59.7932H162.479V61.9423H162.464V64.3858H162.479V66.0785H162.464V68.5221H162.479V70.0824H162.464V72.57H162.479V74.1303H162.464V76.5738H162.479V78.0458H162.464V79.6061H162.479V79.7828H144.36V93.7961H137.586V97.3289H130.279V91.2496H117.145V74.7191H115.074V73.0705H114.778V74.7191H113.077H104.558V73.0705H104.262V74.7191H102.043V83.0359L91.009 82.9917V88.1142H81.6464V56.4076H53.9282V90.3811H45.4678V72.0107H17.7349V169.942L17.7644 170.001V169.913H206.911L206.881 168.706Z" fill="#DFEBFA"/>
    <path d="M17.7494 93.6495V170.002L17.7198 169.943C17.7198 169.928 17.705 169.928 17.705 169.913C17.5275 169.516 17.3648 169.118 17.1873 168.706C11.0639 154.251 4.5115 134.1 3.87549 113.065C4.00861 109.164 4.40796 105.234 5.11792 101.333C5.59123 98.7573 6.19766 96.196 6.96679 93.6348H17.7494V93.6495Z" fill="#DFEBFA"/>
    <path d="M81.6456 56.4082H61.0566V61.781H81.6456V56.4082Z" fill="#EEF6FF"/>
    <path d="M81.6456 64.6816H61.0566V70.0544H81.6456V64.6816Z" fill="#EEF6FF"/>
    <path d="M81.6456 73.1289H61.0566V78.5017H81.6456V73.1289Z" fill="#EEF6FF"/>
    <path d="M81.6456 81.7129H61.0566V87.0856H81.6456V81.7129Z" fill="#EEF6FF"/>
    <path d="M81.6456 89.9844H61.0566V95.3571H81.6456V89.9844Z" fill="#EEF6FF"/>
    <path d="M172.788 55.7461H162.493V59.0139H172.788V55.7461Z" fill="#EEF6FF"/>
    <path d="M172.788 60.7656H162.493V64.0334H172.788V60.7656Z" fill="#EEF6FF"/>
    <path d="M172.788 65.8887H162.493V69.1565H172.788V65.8887Z" fill="#EEF6FF"/>
    <path d="M172.788 71.0996H162.493V74.3674H172.788V71.0996Z" fill="#EEF6FF"/>
    <path d="M172.788 76.1328H162.493V79.4006H172.788V76.1328Z" fill="#EEF6FF"/>
    <path d="M172.788 81.666H162.493V84.9338H172.788V81.666Z" fill="#EEF6FF"/>
    <path d="M172.788 86.6855H162.493V89.9533H172.788V86.6855Z" fill="#EEF6FF"/>
    <path d="M172.788 91.8086H162.493V95.0764H172.788V91.8086Z" fill="#EEF6FF"/>
    <path d="M172.788 97.0195H162.493V100.287H172.788V97.0195Z" fill="#EEF6FF"/>
    <path d="M172.788 102.053H162.493V105.321H172.788V102.053Z" fill="#EEF6FF"/>
    <path d="M190.419 57.8809H180.125V61.1487H190.419V57.8809Z" fill="#EEF6FF"/>
    <path d="M190.419 62.9004H180.125V66.1682H190.419V62.9004Z" fill="#EEF6FF"/>
    <path d="M190.419 68.0371H180.125V71.3049H190.419V68.0371Z" fill="#EEF6FF"/>
    <path d="M190.419 73.248H180.125V76.5159H190.419V73.248Z" fill="#EEF6FF"/>
    <path d="M190.419 78.2676H180.125V81.5354H190.419V78.2676Z" fill="#EEF6FF"/>
    <path d="M148.251 73.248H147.733V79.9014H148.251V73.248Z" fill="#DFEBFA"/>
    <path d="M157.139 67.5215H156.34V80.4161H157.139V67.5215Z" fill="#DFEBFA"/>
    <path d="M56.0861 54.0391H55.7617V56.409H56.0861V54.0391Z" fill="#DFEBFA"/>
    <path d="M63.112 54.0391H62.7876V56.409H63.112V54.0391Z" fill="#DFEBFA"/>
    <path d="M79.1897 54.0391H78.8652V56.409H79.1897V54.0391Z" fill="#DFEBFA"/>
    <path d="M164.342 53.9062H164.091V55.7462H164.342V53.9062Z" fill="#DFEBFA"/>
    <path d="M176.409 53.9062H176.159V55.7462H176.409V53.9062Z" fill="#DFEBFA"/>
    <path d="M72.904 54.0391H72.5796V56.409H72.904V54.0391Z" fill="#DFEBFA"/>
    <path d="M282.403 50.123H261.962V54.274H282.403V50.123Z" fill="#EEF6FF"/>
    <path d="M282.403 56.4961H261.962V60.6471H282.403V56.4961Z" fill="#EEF6FF"/>
    <path d="M282.403 63.0176H261.962V67.1686H282.403V63.0176Z" fill="#EEF6FF"/>
    <path d="M282.403 69.627H261.962V73.778H282.403V69.627Z" fill="#EEF6FF"/>
    <path d="M282.403 76.0156H261.962V80.1666H282.403V76.0156Z" fill="#EEF6FF"/>
    <g opacity="0.4">
      <path d="M252.185 65.5801H230.857V70.4229H252.185V65.5801Z" fill="#EEF6FF"/>
      <path d="M252.185 73.0293H230.857V77.8722H252.185V73.0293Z" fill="#EEF6FF"/>
      <path d="M252.185 80.625H230.857V85.4678H252.185V80.625Z" fill="#EEF6FF"/>
      <path d="M252.185 88.3379H230.857V93.1807H252.185V88.3379Z" fill="#EEF6FF"/>
      <path d="M252.185 95.7871H230.857V100.63H252.185V95.7871Z" fill="#EEF6FF"/>
    </g>
    <path d="M427.295 165.32C427.073 166.424 426.851 167.558 426.6 168.691C426.57 168.809 426.555 168.927 426.526 169.044H425.328L290.76 169.236H16.6547C16.5808 169.059 16.492 168.868 16.4033 168.691C15.9152 167.602 15.4271 166.468 14.939 165.32H427.295Z" fill="#AFCDFB"/>
    <path d="M127.616 28.7044V166.689H123.031V28.4395L127.616 28.7044Z" fill="#C9DCEC"/>
    <path d="M294.102 0.148438V166.689H289.517V0.516435L294.102 0.148438Z" fill="#C9DCEC"/>
    <path d="M243.616 166.041C242.803 166.041 242.033 165.54 241.723 164.731L222.125 111.827C221.74 110.782 222.273 109.634 223.323 109.251C224.358 108.869 225.527 109.398 225.911 110.444L245.509 163.347C245.894 164.392 245.361 165.54 244.311 165.923C244.075 166.011 243.838 166.041 243.616 166.041Z" fill="#ACC7DF"/>
    <path d="M258.511 166.041C257.698 166.041 256.928 165.54 256.618 164.731L237.02 111.827C236.635 110.782 237.168 109.634 238.218 109.251C239.253 108.869 240.422 109.398 240.806 110.444L260.404 163.347C260.789 164.392 260.256 165.54 259.206 165.923C258.984 166.011 258.748 166.041 258.511 166.041Z" fill="#ACC7DF"/>
    <path d="M243.172 120.762L227.36 122.16L222.657 111.135L239.356 110.531L243.172 120.762Z" fill="#ACC7DF"/>
    <path d="M324.966 168.851H231.798C230.023 168.851 228.574 167.409 228.574 165.643C228.574 163.876 230.023 162.434 231.798 162.434H324.966C326.741 162.434 328.191 163.876 328.191 165.643C328.191 167.409 326.741 168.851 324.966 168.851Z" fill="#ACC7DF"/>
    <path d="M254.96 130.374H230.185C229.742 130.374 229.387 130.021 229.387 129.579C229.387 129.137 229.742 128.784 230.185 128.784H254.871L260.063 127.783H244.888C244.444 127.783 244.089 127.43 244.089 126.988C244.089 126.547 244.444 126.193 244.888 126.193H268.45C268.864 126.193 269.219 126.502 269.248 126.915C269.293 127.327 269.012 127.695 268.597 127.783L255.108 130.389C255.064 130.374 255.005 130.374 254.96 130.374Z" fill="#ACC7DF"/>
    <path d="M328.752 84.6205L335.004 160.521L335.05 161.016C335.368 164.842 338.88 167.723 342.862 167.417L357.26 166.326C361.241 166.021 364.239 162.645 363.921 158.819L357.638 82.4237C357.32 78.5974 353.808 75.7167 349.826 76.0222L343.21 76.5314L335.413 77.1279C331.431 77.4189 328.434 80.7942 328.752 84.6205Z" fill="#FB7369"/>
    <path d="M330.356 160.61V171.87C330.356 173.733 331.931 175.246 333.869 175.246H365.162C367.1 175.246 368.675 173.733 368.675 171.87V160.61C368.675 158.747 367.085 157.234 365.162 157.234H333.884C331.946 157.234 330.356 158.762 330.356 160.61Z" fill="#FF9591"/>
    <path d="M328.751 84.6203L335.004 160.521C339.304 159.983 343.271 157.248 343.271 157.248C343.271 157.248 338.638 101.773 337.321 89.3341C336.276 79.441 341.166 77.0841 343.21 76.5312L335.413 77.1277C331.431 77.4187 328.434 80.794 328.751 84.6203Z" fill="#F2564B"/>
    <path d="M330.356 160.61V171.87C330.356 173.733 331.93 175.246 333.868 175.246H337.577L343.255 157.234H333.868C331.945 157.234 330.356 158.762 330.356 160.61Z" fill="#F2564B"/>
    <path d="M76.2177 153.458V167.883C76.2177 168.531 76.7502 169.046 77.3862 169.046H95.0171C95.6679 169.046 96.1855 168.516 96.1855 167.883V153.458C96.1855 152.81 95.6531 152.295 95.0171 152.295H77.3862C76.7354 152.295 76.2177 152.81 76.2177 153.458Z" fill="#F2564B"/>
    <path d="M69.6207 169.046H87.2515C87.9023 169.046 88.4199 168.516 88.4199 167.883V153.458C88.4199 152.81 87.8875 152.295 87.2515 152.295H69.6207C68.9699 152.295 68.4522 152.825 68.4522 153.458V167.883C68.4374 168.516 68.9699 169.046 69.6207 169.046Z" fill="#FB7369"/>
    <path d="M88.272 123.65C88.8784 124.739 90.3723 125.387 92.1472 125.873C92.3395 125.932 92.5466 125.976 92.7536 126.035C95.8597 126.8 100.031 126.358 101.229 127.978C102.575 129.759 104.157 139.15 104.157 139.15C106.08 139.916 106.051 139.533 106.051 139.533C106.642 137.001 106.687 129.288 106.539 127.153C106.376 124.71 101.347 121.295 97.0134 118.778C93.7003 116.864 90.8012 115.48 90.8012 115.48C90.7125 115.495 90.6238 115.525 90.535 115.539C86.7338 116.496 86.6154 120.632 88.272 123.65Z" fill="#FFB27D"/>
    <path d="M90.5504 115.525C90.9646 118.94 91.6154 123.989 92.1478 125.858C92.3401 125.917 92.5472 125.961 92.7543 126.02C93.3459 122.443 96.378 119.396 97.0288 118.778C93.7157 116.864 90.8167 115.48 90.8167 115.48C90.7279 115.48 90.6392 115.51 90.5504 115.525Z" fill="#EF7E29"/>
    <path d="M85.4473 113.376C85.4473 113.376 90.0177 118.366 93.7007 118.617C93.7007 118.617 93.3013 117.277 92.192 115.952C92.3695 115.643 92.547 115.363 92.6949 115.099C93.5676 113.553 93.9521 112.626 93.9521 112.626L91.0087 107.68C90.9348 107.856 90.8756 108.033 90.8017 108.21C90.639 108.578 90.4763 108.931 90.284 109.255C90.1952 109.417 90.1065 109.564 90.0029 109.711C88.1245 112.64 85.4473 113.376 85.4473 113.376Z" fill="#FFB27D"/>
    <path d="M92.6949 115.099C93.5676 113.553 93.9521 112.626 93.9521 112.626L91.0088 107.68C90.9348 107.856 90.8757 108.033 90.8017 108.21C90.4763 109.476 90.0769 112.552 92.6949 115.099Z" fill="#F4A671"/>
    <path d="M94.5437 113.331C94.5437 113.331 89.3373 110.593 91.0974 107.399C92.8575 104.19 93.3752 101.688 96.7771 103.292C100.179 104.897 100.149 106.472 99.824 107.679C99.4839 108.9 95.9488 113.964 94.5437 113.331Z" fill="#FFB27D"/>
    <path d="M90.9785 107.62C90.9785 107.62 94.0106 103.837 98.6994 106.413C101.909 108.179 101.998 104.455 101.953 103.822C101.953 103.822 99.4241 102.571 96.7913 101.349C91.2595 98.8024 90.9046 106.663 90.9785 107.62Z" fill="#2C3A64"/>
    <path d="M84.9297 141.755C85.0776 141.622 85.1811 141.49 85.2107 141.387C85.2699 141.21 87.9914 141.24 93.7599 125.533C94.7657 122.796 94.1001 118.689 93.0943 116.937L92.3547 115.715C91.1271 115.583 89.8107 114.965 88.7901 113.978C88.5091 113.713 88.1689 113.522 87.8139 113.419C86.7785 113.08 85.6544 113.316 85.4326 113.375C81.5721 114.714 78.5696 120.234 76.4841 128.36C75.1825 133.482 73.378 136.559 72.1503 140.975C71.7806 142.299 71.4699 143.742 71.2333 145.405C71.0114 146.921 82.8885 143.551 84.9297 141.755Z" fill="#FFB27D"/>
    <path d="M83.7763 148.526C85.1518 148.703 87.1486 148.717 89.3376 148.644C95.3132 148.467 102.797 147.79 103.226 148.968C106.096 156.637 116.39 162.672 116.568 165.527C116.538 165.719 119.186 164.306 119.097 164.247C119.097 164.247 118.254 163.894 109.941 141.402C109.172 139.341 100.505 138.546 95.254 138.134C91.8965 137.869 89.2933 137.766 89.2933 137.766C89.2933 137.766 85.7139 137.177 82.0605 137.427C78.4219 137.677 78.6734 147.849 83.7763 148.526Z" fill="#F4A671"/>
    <path d="M106.051 139.517C106.051 139.517 103.463 140.445 102.354 139.9C101.244 139.356 102.22 137.928 102.945 137.928C103.685 137.928 105.312 137.957 106.051 139.517Z" fill="#FFB27D"/>
    <path d="M82.3409 148.527C83.7164 148.704 85.7132 148.718 87.9023 148.645C87.3698 146.923 85.9499 143.817 88.0354 141.506C88.0354 141.506 90.2984 138.4 92.1177 137.899C88.7601 137.634 87.8727 137.752 87.8727 137.752C87.8727 137.752 84.2933 137.163 80.6399 137.414C76.9718 137.678 77.2232 147.85 82.3409 148.527Z" fill="#213F7A"/>
    <path d="M72.1639 140.989L72.223 141.034L84.9433 141.755C85.0912 141.622 85.1947 141.49 85.2243 141.387C85.2391 141.357 85.3131 141.328 85.4462 141.254C85.8456 141.019 86.807 140.342 88.3304 137.766C89.6764 135.499 91.4957 131.745 93.7735 125.534C94.7793 122.796 94.1137 118.689 93.1079 116.937C93.1079 116.937 92.3832 117.335 91.4661 116.908C89.2771 115.848 85.5941 113.331 85.4462 113.39C81.5857 114.729 78.5832 120.249 76.4976 128.375C75.196 133.497 73.3915 136.559 72.1639 140.989Z" fill="#F99746"/>
    <path d="M79.6798 125.446L85.9068 131.261L89.708 125.432L88.3029 137.767C86.7794 140.328 85.8328 141.02 85.4187 141.256C81.8985 141.447 76.7808 141.373 76.3815 139.298C75.7751 136.089 79.6798 125.446 79.6798 125.446Z" fill="#EF7E29"/>
    <path d="M74.1468 151.882C85.5802 154.591 96.2592 147.864 96.6585 149.792C97.8862 155.739 104.084 164.365 104.231 165.395C104.246 165.542 106.968 165.778 106.968 165.778C106.968 165.778 104.291 144.758 102.028 142.035C99.6907 139.223 78.7024 140.357 78.7024 140.357C70.5231 138.738 69.0735 150.675 74.1468 151.882Z" fill="#FFB27D"/>
    <path d="M87.5767 140.122C87.5767 140.122 81.9857 145.878 81.3645 146.452C80.7433 147.011 78.3619 146.805 78.3619 146.805C78.3619 146.805 80.9651 147.143 80.9651 147.6C80.9651 148.041 79.3085 152.781 78.6873 152.781C78.0661 152.781 73.4513 152.502 72.342 151.957C71.2327 151.412 69.798 145.303 72.0314 140.431L73.8359 136.104C73.8507 136.104 76.3947 139.813 87.5767 140.122Z" fill="#213F7A"/>
    <path d="M87.4742 130.951C87.9919 129.052 90.0035 127.949 91.9855 128.478C92.4884 128.611 92.9469 128.846 93.3314 129.141L94.1154 129.7L94.0266 129.818C94.6774 130.672 94.9437 131.776 94.6478 132.865C94.1302 134.764 92.1186 135.868 90.1366 135.338C90.0183 135.308 89.8851 135.264 89.7816 135.22L89.6929 135.338L88.8054 134.69C87.6665 133.807 87.1044 132.364 87.4742 130.951Z" fill="#94B0ED"/>
    <path d="M95.3721 133.394C95.8898 131.495 94.6917 129.538 92.7097 129.008C90.7277 128.478 88.7161 129.582 88.1984 131.481C87.6808 133.38 88.8788 135.337 90.8608 135.867C92.8576 136.397 94.8692 135.293 95.3721 133.394Z" fill="#AEC3FF"/>
    <path d="M91.1114 132.408C91.1558 131.982 91.6587 131.569 92.2207 131.775C92.4426 131.864 98.4033 135.573 98.4033 135.573L97.1313 137.148L91.3481 133.041C91.3481 133.027 91.0671 132.835 91.1114 132.408Z" fill="#789CDD"/>
    <path d="M79.427 140.004C82.1189 142.683 94.4546 135.058 94.4546 135.058L93.0642 132.644L85.018 134.514C87.2662 131.246 88.7601 128.022 89.7363 125.432C90.9935 122.075 91.3633 119.764 91.3633 119.764C92.0585 117.027 85.9794 113.553 83.0212 116.335C82.0302 117.262 81.0096 119.912 80.1813 123.121C78.5099 129.553 77.6373 138.223 79.427 140.004Z" fill="#FFB27D"/>
    <path d="M80.5508 121.707C83.4055 122.369 89.026 123.871 89.7212 125.431C89.7212 125.431 84.4704 123.194 79.338 126.859L80.5508 121.707Z" fill="#F4A671"/>
    <path d="M80.1664 123.121C85.5947 122.62 89.1593 125.019 89.7214 125.432C90.9786 122.075 91.3484 119.764 91.3484 119.764C92.0436 117.027 85.9645 113.553 83.0063 116.335C82.0153 117.262 80.9947 119.912 80.1664 123.121Z" fill="#F99746"/>
    <path d="M116.035 168.972H117.44C117.913 168.898 118.268 168.766 118.742 168.692C119.481 168.589 119.821 168.898 119.881 168.972C119.895 168.987 119.895 168.987 119.895 168.987H125.886C126.034 168.766 125.886 168.28 125.753 167.912C125.664 167.662 125.442 167.471 125.19 167.397C124.554 167.22 123.297 167.044 122.158 166.013C121.508 165.439 119.037 163.879 119.037 163.879H119.023C118.963 163.879 118.712 163.953 117.588 164.909C117.011 165.395 116.02 164.217 116.02 164.217C116.02 164.217 115.828 164.365 115.695 164.659C115.576 164.88 115.502 165.189 115.562 165.572C115.65 166.116 115.369 167.103 115.133 167.78C115 168.192 114.881 168.486 114.881 168.486C114.881 168.486 114.822 168.81 116.035 168.972Z" fill="#2C3A64"/>
    <path d="M103.507 168.957H105.001C105.504 168.883 105.874 168.736 106.377 168.662C107.146 168.559 107.516 168.883 107.575 168.957C107.59 168.971 107.59 168.971 107.59 168.971H113.905C114.068 168.751 113.905 168.221 113.757 167.838C113.654 167.573 113.432 167.382 113.166 167.293C112.5 167.102 111.169 166.925 109.971 165.836C109.291 165.218 106.687 163.584 106.687 163.584H106.673C106.613 163.584 106.347 163.672 105.164 164.659C104.558 165.174 103.507 163.937 103.507 163.937C103.507 163.937 103.315 164.099 103.167 164.394C103.049 164.629 102.96 164.953 103.034 165.365C103.123 165.924 102.827 166.984 102.576 167.691C102.428 168.118 102.309 168.427 102.309 168.427C102.309 168.427 102.235 168.81 103.507 168.957Z" fill="#2C3A64"/>
    <path d="M92.0301 134.35C92.5921 132.29 94.7812 131.083 96.9258 131.657C97.4731 131.804 97.976 132.054 98.3901 132.378L99.2332 132.996L99.1297 133.129C99.8397 134.056 100.135 135.248 99.8101 136.441C99.248 138.501 97.059 139.708 94.9143 139.134C94.7812 139.105 94.6481 139.061 94.5149 139.002L94.4114 139.134L93.45 138.428C92.2371 137.471 91.6159 135.881 92.0301 134.35Z" fill="#94B0ED"/>
    <path d="M100.623 137C101.185 134.939 99.883 132.805 97.7383 132.231C95.5937 131.657 93.3898 132.864 92.8426 134.925C92.2805 136.985 93.5821 139.12 95.7268 139.694C97.8715 140.268 100.075 139.061 100.623 137Z" fill="#AEC3FF"/>
    <path d="M95.4455 135.469C95.623 134.807 96.333 134.41 97.0429 134.601C97.2204 134.645 97.3831 134.733 97.5162 134.836L97.7972 135.042L97.7676 135.087C98.0043 135.381 98.093 135.778 97.9895 136.161C97.812 136.824 97.1021 137.221 96.3921 137.03C96.3477 137.015 96.3034 137 96.259 136.985L96.2294 137.03L95.9188 136.794C95.5195 136.485 95.3124 135.97 95.4455 135.469Z" fill="#94B0ED"/>
    <path d="M98.2417 136.338C98.4192 135.675 98.005 134.969 97.3098 134.792C96.6146 134.601 95.9046 134.998 95.7124 135.661C95.5349 136.323 95.949 137.03 96.6442 137.206C97.3542 137.398 98.0642 137 98.2417 136.338Z" fill="#CADAFF"/>
    <path d="M63.2619 166.749C62.5076 164.938 63.4394 162.833 65.3326 162.068C65.8207 161.877 66.3236 161.774 66.8117 161.774L67.7731 161.744V161.891C68.8085 162.171 69.6959 162.892 70.1249 163.937C70.8792 165.748 69.9474 167.853 68.0541 168.618C67.9358 168.662 67.8175 168.707 67.6992 168.751V168.898L66.6046 168.913C65.1699 168.913 63.8239 168.103 63.2619 166.749Z" fill="#94B0ED"/>
    <path d="M71.0416 163.921C70.2873 162.111 68.1426 161.272 66.2494 162.037C64.3561 162.817 63.4243 164.907 64.1786 166.718C64.933 168.528 67.0776 169.368 68.9709 168.602C70.8641 167.822 71.7812 165.732 71.0416 163.921Z" fill="#AEC3FF"/>
    <path d="M67.0477 165.704C66.8258 165.35 66.9737 164.703 67.5358 164.526C67.7724 164.452 74.7686 163.805 74.7686 163.805L74.7094 165.821L67.6097 166.042C67.6097 166.057 67.2695 166.072 67.0477 165.704Z" fill="#7A9EDD"/>
    <path d="M68.9566 166.689C68.1431 164.717 69.1489 162.435 71.2049 161.596C71.7373 161.376 72.2698 161.287 72.8023 161.287L73.8524 161.258V161.42C74.9765 161.729 75.938 162.509 76.4113 163.642C77.2248 165.615 76.219 167.896 74.163 168.736C74.0299 168.794 73.8968 168.839 73.7785 168.868V169.03L72.5804 169.045C71.0274 169.059 69.563 168.176 68.9566 166.689Z" fill="#94B0ED"/>
    <path d="M77.4162 163.629C76.6026 161.657 74.2657 160.744 72.2097 161.583C70.1538 162.422 69.1332 164.704 69.9615 166.676C70.775 168.649 73.112 169.561 75.1679 168.722C77.2239 167.883 78.2297 165.602 77.4162 163.629Z" fill="#AEC3FF"/>
    <path d="M72.3585 165.526C72.0922 164.878 72.4176 164.142 73.0832 163.878C73.2607 163.804 73.4382 163.774 73.6009 163.774L73.9411 163.76V163.819C74.3109 163.922 74.6215 164.172 74.7694 164.54C75.0356 165.188 74.7102 165.924 74.0446 166.189C74.0002 166.203 73.9559 166.218 73.9115 166.233V166.292H73.5269C73.0389 166.292 72.5655 165.997 72.3585 165.526Z" fill="#94B0ED"/>
    <path d="M75.1082 164.526C74.842 163.878 74.0876 163.584 73.422 163.863C72.7564 164.143 72.431 164.879 72.6973 165.512C72.9635 166.16 73.7179 166.454 74.3835 166.174C75.0491 165.91 75.3745 165.159 75.1082 164.526Z" fill="#CADAFF"/>
    <path d="M159.772 120.955C160.127 118.718 162.316 117.202 164.653 117.555C165.244 117.643 165.806 117.864 166.28 118.159L167.241 118.718L167.152 118.865C168.01 119.763 168.454 120.999 168.247 122.28C167.892 124.518 165.703 126.034 163.366 125.68C163.218 125.651 163.07 125.622 162.937 125.592L162.848 125.739L161.754 125.092C160.348 124.223 159.505 122.619 159.772 120.955Z" fill="#EF7E29"/>
    <path d="M169.164 122.796C169.519 120.558 167.907 118.439 165.57 118.071C163.233 117.703 161.044 119.219 160.689 121.471C160.334 123.708 161.946 125.828 164.283 126.196C166.62 126.564 168.809 125.048 169.164 122.796Z" fill="#F99746"/>
    <path d="M164.136 122.191C164.121 121.705 164.669 121.16 165.334 121.322C165.6 121.396 172.907 124.928 172.907 124.928L171.635 126.886L164.476 122.868C164.476 122.868 164.136 122.676 164.136 122.191Z" fill="#EF7E29"/>
    <path d="M168.631 124.679C168.528 124.664 166.235 125.768 165.052 124.149C164.519 123.413 164.919 122.721 165.436 122.515C165.836 122.368 166.487 122.824 166.738 123.074C167.167 123.501 168.631 124.679 168.631 124.679Z" fill="#FFB27D"/>
    <path d="M161.857 168.632C161.073 168.161 161.517 164.628 161.517 164.628C161.517 164.628 165.155 161.743 165.643 163.951C166.146 166.159 169.09 167.16 170.776 167.425C171.929 167.616 172.299 168.249 172.403 168.632H161.857Z" fill="#233862"/>
    <path d="M165.983 165.791C164.8 166.174 162.522 167.322 161.087 166.778C160.155 166.424 154.949 151.44 154.609 144.889C154.594 144.565 154.55 144.168 154.476 143.682C154.446 143.447 154.402 143.196 154.342 142.931C153.854 140.282 152.804 136.072 151.769 131.833C150.364 126.107 148.973 120.292 149.003 118.128C149.077 113.86 161.782 117.231 161.782 117.231C161.782 117.231 162.537 120.278 162.788 124.811C162.803 125.135 162.818 125.459 162.832 125.798C163.173 135.851 164.119 152.838 166.708 164.643C166.796 165.144 166.471 165.644 165.983 165.791Z" fill="#213F7A"/>
    <path d="M162.774 124.811L154.462 143.682C154.432 143.446 154.388 143.196 154.329 142.931C153.84 140.281 152.79 136.072 151.755 131.832L150.276 117.098L161.768 117.23C161.768 117.23 162.538 120.277 162.774 124.811Z" fill="#233862"/>
    <path d="M155.733 88.998C155.733 88.998 159.993 89.1453 161.576 91.0294C163.158 92.9135 165.052 106.323 166.117 109.061C167.167 111.814 168.439 121.47 168.439 121.838L166.723 122.177C166.723 122.177 161.99 112.211 161.576 110.018C161.162 107.825 156.014 96.9468 156.059 96.1961C156.074 95.4454 155.733 88.998 155.733 88.998Z" fill="#FFB27D"/>
    <path d="M145.04 94.0474C145.217 92.649 143.782 91.5892 142.496 92.1927C140.869 92.9581 139.079 94.0032 138.546 95.1661C137.481 97.4182 135.159 107.222 135.337 110.872C135.337 110.872 137.319 111.402 138.724 110.799C140.129 110.195 144.892 95.2103 144.892 95.2103L145.04 94.0474Z" fill="#FFB27D"/>
    <path d="M150.556 168.661C150.556 168.661 150.334 166.909 149.817 165.879C149.299 164.834 145.971 165.496 145.971 165.496C145.971 165.496 145.305 166.055 145.172 168.705L150.556 168.661Z" fill="#233862"/>
    <path d="M157.169 118.143L150.454 166.571C150.454 166.571 147.51 167.278 145.218 166.718C145.218 166.718 143.251 140.959 143.413 134.732C143.576 128.506 143.68 119.718 144.404 117.745C145.543 114.639 157.169 118.143 157.169 118.143Z" fill="#213F7A"/>
    <path d="M154.713 86.7763V87.4093C154.713 87.4093 154.89 89.367 152.45 89.6614C150.024 89.9558 148.19 88.896 148.249 87.3798C148.471 86.2022 148.708 85.4073 148.723 84.4358C148.723 84.0826 148.708 83.6998 148.634 83.2582L153.337 83.1699L154.728 83.3907L154.713 86.7763Z" fill="#FFB27D"/>
    <path d="M154.728 83.3731V85.8314C152.924 86.479 149.285 85.3898 148.989 83.9472L153.338 83.1523L154.728 83.3731Z" fill="#F4A671"/>
    <path d="M148.279 82.4919C148.826 85.4212 152.613 85.3182 154.255 85.1415C154.713 85.0974 155.009 85.0385 155.009 85.0385C155.527 84.906 155.822 84.0817 155.956 83.0218C156.222 80.9169 155.882 77.811 155.527 77.0161C154.994 75.8238 153.974 74.5284 150.157 75.4705C146.327 76.3831 147.569 78.7531 148.279 82.4919Z" fill="#FFB27D"/>
    <path d="M153.13 83.1835C153.13 83.1835 153.44 83.7281 154.52 83.6251C155.23 83.5515 155.289 82.9479 155.289 82.9479C155.289 82.9479 154.269 82.7271 153.13 83.1835Z" fill="white"/>
    <path d="M161.339 99.2431C164.061 99.0223 165.362 97.727 165.362 97.727C165.362 97.727 162.907 91.0442 161.561 89.896C160.215 88.7479 154.728 87.7469 154.713 87.7469C154.668 87.7175 154.639 87.7027 154.639 87.7027C154.639 88.3063 153.677 89.425 152.198 89.528C150.438 89.6458 148.249 88.3799 148.249 87.3789C148.249 87.3789 144.063 87.6733 141.83 88.8803C139.596 90.0874 136.934 96.0342 136.934 96.0342C136.934 96.0342 137.836 98.9782 143.398 99.9203L142.998 119.498C153.263 122.883 162.729 119.395 162.729 119.395C162.951 119.395 161.517 108.178 161.443 105.411C161.398 103.6 161.354 101.554 161.339 99.2431Z" fill="white"/>
    <path d="M156.457 76.9124C157.123 76.2353 156.945 75.1019 156.102 74.6455C155.245 74.1892 153.913 73.5415 152.76 73.2324C151.073 72.7761 149.387 73.2913 148.737 73.6446C148.751 73.5415 148.796 73.3943 148.899 73.2471C148.899 73.2471 148.603 73.4532 148.559 73.7476C148.529 73.7771 148.515 73.7918 148.529 73.7918C148.529 73.7918 148.189 73.7329 147.982 73.8212C147.982 73.8212 148.13 73.8065 148.189 73.8948C148.189 73.9095 148.204 73.9095 148.219 73.9243C145.704 75.1313 144.876 78.09 146.281 79.9889C147.154 81.1665 148.722 83.5658 148.722 83.5658C148.722 83.5658 148.455 82.9181 148.396 82.3735C148.382 82.2116 148.426 82.0496 148.485 81.9172C148.603 81.6228 148.603 81.2989 148.485 81.0045C148.308 80.5777 148.278 80.1361 148.633 79.9594C149.062 79.7533 149.387 80.0625 149.609 80.3716C149.772 80.6218 150.097 80.7249 150.378 80.6218C150.393 80.6218 150.393 80.6218 150.408 80.6071C151.473 80.1655 150.585 78.9437 151.517 78.193C152.449 77.4423 154.919 77.8398 155.733 77.5306C155.954 77.3393 156.221 77.1479 156.457 76.9124Z" fill="#233862"/>
    <path d="M165.422 124.297C165.806 121.853 168.188 120.205 170.732 120.602C171.382 120.705 171.974 120.926 172.507 121.25L173.557 121.853L173.453 122.015C174.385 122.987 174.858 124.341 174.636 125.739C174.252 128.183 171.871 129.831 169.326 129.434C169.164 129.405 169.016 129.375 168.853 129.331L168.75 129.493L167.552 128.801C166.043 127.874 165.141 126.122 165.422 124.297Z" fill="#EF7E29"/>
    <path d="M175.643 126.314C176.027 123.87 174.282 121.574 171.738 121.176C169.194 120.779 166.813 122.427 166.428 124.871C166.044 127.314 167.789 129.611 170.333 130.008C172.877 130.406 175.258 128.757 175.643 126.314Z" fill="#F99746"/>
    <path d="M169.504 125.179C169.622 124.385 170.406 123.855 171.22 123.987C171.427 124.017 171.619 124.09 171.797 124.193L172.137 124.385L172.107 124.443C172.403 124.753 172.566 125.194 172.492 125.65C172.373 126.445 171.589 126.975 170.776 126.843C170.732 126.828 170.672 126.828 170.628 126.813L170.598 126.857L170.214 126.637C169.696 126.342 169.4 125.768 169.504 125.179Z" fill="#EF7E29"/>
    <path d="M172.817 125.828C172.935 125.033 172.373 124.297 171.545 124.164C170.717 124.032 169.948 124.577 169.829 125.357C169.711 126.152 170.273 126.888 171.101 127.02C171.915 127.167 172.684 126.623 172.817 125.828Z" fill="#F99746"/>
    <path d="M135.337 110.87C135.337 110.87 142.259 113.505 151.77 112.342V110.385C151.77 110.385 141.52 108.353 139.508 106.572C139.508 106.572 135.899 108.074 135.337 110.87Z" fill="#FFB27D"/>
    <path d="M159.372 107.664C158.78 105.47 156.443 104.19 154.166 104.808C153.574 104.97 153.056 105.235 152.612 105.573L151.71 106.221L151.814 106.368C151.059 107.354 150.749 108.635 151.089 109.886C151.681 112.079 154.018 113.36 156.295 112.742C156.443 112.698 156.576 112.654 156.71 112.609L156.813 112.742L157.834 111.991C159.165 110.975 159.816 109.297 159.372 107.664Z" fill="#EF7E29"/>
    <path d="M150.247 110.489C149.655 108.296 151.031 106.029 153.323 105.411C155.616 104.808 157.938 106.088 158.53 108.267C159.121 110.46 157.746 112.727 155.453 113.345C153.16 113.963 150.838 112.683 150.247 110.489Z" fill="#F99746"/>
    <path d="M155.186 109.356C155.141 108.87 154.55 108.384 153.899 108.62C153.633 108.708 146.74 113.006 146.74 113.006L148.219 114.817L154.905 110.062C154.905 110.062 155.23 109.842 155.186 109.356Z" fill="#EF7E29"/>
    <path d="M153.677 112.698C153.706 112.595 155.733 111.05 154.816 109.283C154.402 108.474 153.588 108.518 153.174 108.886C152.863 109.166 152.982 109.946 153.085 110.299C153.292 110.873 153.677 112.698 153.677 112.698Z" fill="#FFB27D"/>
    <path d="M154.121 111.593C153.485 109.208 150.941 107.81 148.456 108.487C147.82 108.664 147.243 108.943 146.755 109.326L145.779 110.033L145.897 110.18C145.084 111.24 144.744 112.638 145.113 114.007C145.749 116.392 148.293 117.79 150.778 117.113C150.941 117.069 151.089 117.025 151.237 116.966L151.355 117.113L152.464 116.289C153.884 115.199 154.594 113.374 154.121 111.593Z" fill="#EF7E29"/>
    <path d="M144.182 114.669C143.546 112.284 145.04 109.811 147.524 109.149C150.009 108.487 152.553 109.885 153.189 112.255C153.825 114.639 152.331 117.112 149.847 117.775C147.362 118.452 144.818 117.053 144.182 114.669Z" fill="#F99746"/>
    <path d="M150.158 112.888C149.951 112.108 149.122 111.667 148.324 111.873C148.116 111.932 147.924 112.02 147.776 112.138L147.451 112.373L147.495 112.417C147.229 112.771 147.126 113.212 147.244 113.654C147.451 114.434 148.279 114.876 149.078 114.67C149.122 114.655 149.181 114.64 149.226 114.625L149.255 114.67L149.61 114.405C150.084 114.066 150.32 113.477 150.158 112.888Z" fill="#EF7E29"/>
    <path d="M146.933 113.891C146.726 113.11 147.214 112.315 148.013 112.095C148.826 111.874 149.64 112.33 149.847 113.11C150.054 113.891 149.566 114.685 148.767 114.906C147.968 115.112 147.14 114.671 146.933 113.891Z" fill="#F99746"/>
    <path d="M197.991 91.3242C197.991 91.3242 192.962 91.6186 192.414 93.6794C191.542 96.9767 190.728 104.66 190.728 104.66L185.655 98.3898L183.821 99.2582C183.821 99.2582 188.155 110.843 191.808 110.298C195.461 109.798 197.991 91.3242 197.991 91.3242Z" fill="#F4A671"/>
    <path d="M203.153 75.8678C203.153 75.8678 203.804 73.2624 207.664 74.072C207.664 74.072 205.815 73.8365 205.312 74.543C205.312 74.543 206.777 73.8806 207.694 74.44C208.611 74.9994 208.759 76.8688 208.625 77.4428C208.492 78.0169 207.472 79.7097 206.806 79.7097C206.141 79.7097 205.342 79.1209 205.342 79.1209L203.153 75.8678Z" fill="#2C3A64"/>
    <path d="M196.23 78.5611C196.23 78.5611 201.111 72.7321 203.7 76.4562C203.7 76.4562 205.623 77.2511 206.318 80.5189C207.028 83.8456 204.809 86.3774 203.656 85.7592C202.916 85.3617 202.354 86.6424 202.354 86.6424L196.23 78.5611Z" fill="#2C3A64"/>
    <path d="M197.754 91.3528C197.74 91.3675 199.544 92.2948 200.905 91.9268C202.192 91.5736 203.819 91.1467 203.789 91.1467C203.242 91.0436 202.295 89.0712 202.31 85.877L202.059 85.9211L197.932 86.7307C197.932 86.7307 198.021 88.0261 198.036 89.2478C198.05 90.2782 197.991 91.2497 197.754 91.3528Z" fill="#FFB27D"/>
    <path d="M197.961 86.7451C197.961 86.7451 198.05 88.0405 198.064 89.2623C200.372 89.2034 201.6 87.0984 202.102 85.9355L197.961 86.7451Z" fill="#F4A671"/>
    <path d="M202.517 85.4797C202.517 85.4797 203.73 83.5808 204.026 81.9469C204.233 80.784 203.641 76.4711 199.293 77.1041C199.293 77.1041 198.035 77.2218 196.837 78.0314C195.891 78.6644 194.53 80.0333 196.053 83.8016L196.453 85.0675L202.517 85.4797Z" fill="#2C3A64"/>
    <path d="M197.191 87.8943C197.191 87.8943 202.664 87.9827 202.664 84.5971C202.664 81.2115 203.374 78.9447 199.883 78.7386C196.393 78.5325 195.712 79.8278 195.431 80.9613C195.15 82.0947 195.757 87.7913 197.191 87.8943Z" fill="#FFB27D"/>
    <path d="M197.384 78.6512C197.384 78.6512 198.878 82.6255 201.171 83.2143C203.463 83.8031 204.469 83.1849 204.469 83.1849C204.469 83.1849 202.709 81.7865 202.339 79.3577C202.354 79.3724 198.523 76.767 197.384 78.6512Z" fill="#2C3A64"/>
    <path d="M197.754 78.9744C197.754 78.9744 196.63 79.8576 196.364 80.7261C196.098 81.5945 195.964 83.3609 195.447 83.302C195.447 83.302 194.323 80.5936 195.58 79.0774C196.941 77.4583 197.754 78.9744 197.754 78.9744Z" fill="#2C3A64"/>
    <path d="M193.539 115.773C196.319 106.927 193.272 105.013 193.568 100.583C193.864 96.1519 197.296 91.3973 197.296 91.3973C197.296 91.3973 201.467 90.9704 203.656 91.1324C205.608 91.2648 208.936 97.2853 208.108 102.849C208.004 103.541 207.841 104.218 207.605 104.881C206.584 107.692 206.052 108.84 206.081 109.915C206.111 111.254 207.028 112.476 208.951 116.745C209.986 119.1 190.699 124.797 193.539 115.773Z" fill="#FFB27D"/>
    <path d="M200.727 135.659C199.958 140.016 199.381 143.284 199.381 143.284C200.831 149.201 198.657 156.767 196.852 161.537C196.438 162.626 196.053 163.568 195.728 164.319C195.728 164.319 195.728 164.333 195.713 164.333C195.698 164.348 195.698 164.378 195.684 164.392C195.21 165.467 194.9 166.1 194.9 166.1L192.252 166.218C192.252 166.218 192.459 165.084 192.681 163.171C192.681 163.156 192.681 163.156 192.681 163.156C192.755 162.538 192.829 161.846 192.903 161.08C193.302 156.738 193.583 150.202 192.652 143.623C190.359 127.548 193.391 116.773 193.391 116.773L203.109 119.894L203.567 120.041C202.709 124.619 201.585 130.816 200.727 135.659Z" fill="#FFB27D"/>
    <path d="M203.507 91.0449C203.507 91.0449 208.181 91.516 208.728 92.723C210.488 96.5943 212.248 109.621 212.751 110.77C213.239 111.918 214.748 118.203 216.035 121.294L214.393 121.78C214.393 121.78 208.979 112.845 208.491 110.519C208.003 108.194 205.297 98.7287 205.297 98.7287L203.507 91.0449Z" fill="#FFB27D"/>
    <path d="M207.205 101.73L207.265 105.763C207.265 105.763 203.7 104.733 199.899 104.424C198.967 104.35 198.035 104.321 197.118 104.35C195.994 104.394 194.929 104.541 193.997 104.836C193.997 104.836 193.391 102.23 192.799 99.1244C192.784 99.0066 192.755 98.9036 192.755 98.7858C192.4 95.8419 195.047 93.4278 193.938 92.2502C193.938 92.2502 194.899 91.7203 197.31 91.4112C197.31 91.4112 195.461 94.6495 195.624 95.4591C195.787 96.2687 202.931 95.5475 203.419 95.0911C203.907 94.6495 204.691 91.2051 204.691 91.2051C204.691 91.2051 207.22 91.4848 208.448 92.368C208.448 92.368 207.62 93.4131 207.087 94.6495C206.939 95.0175 206.806 95.4003 206.732 95.783C206.54 96.7987 206.037 98.7417 207.191 100.258L207.205 101.73Z" fill="white"/>
    <path d="M202.575 125.209C201.717 129.758 201.584 130.817 200.726 135.66C195.402 126.401 196.186 123.973 196.186 123.973L202.575 125.209Z" fill="#F4A671"/>
    <path d="M219.32 163.097C219.32 163.274 219.305 163.436 219.305 163.598C219.231 165.144 219.098 166.1 219.098 166.1L216.539 165.217C216.539 165.217 216.421 164.849 216.214 164.216C216.125 163.966 216.021 163.657 215.918 163.318C215.711 162.7 215.459 161.964 215.163 161.14C213.433 156.179 210.475 148.245 208.744 146.42C203.819 141.194 196.571 118.423 196.571 118.423L206.363 115.258C207.812 116.656 208.996 119.276 209.942 122.368C212.338 130.154 213.27 140.915 213.403 142.46C213.418 142.578 213.477 142.681 213.551 142.769C218.136 147.848 219.201 155.237 219.335 160.33C219.364 161.375 219.349 162.303 219.32 163.097Z" fill="#FFB27D"/>
    <path d="M200.343 126.033L198.642 125.827C197.814 125.562 197.015 125.371 196.276 125.253C193.865 124.856 192.045 125.091 192.045 125.091C192.785 117.231 193.85 114.729 193.85 114.729L197.4 120.911L200.343 126.033Z" fill="#213F7A"/>
    <path d="M200.342 126.033L198.641 125.827C197.813 125.562 197.014 125.37 196.274 125.253C196.171 123.751 196.777 122.132 197.398 120.91L200.342 126.033Z" fill="#233862"/>
    <path d="M193.834 114.699C193.834 114.699 196.186 116.465 198.568 116.303C200.949 116.141 207.886 114.566 207.886 114.566C207.886 114.566 209.173 116.421 210.075 120.116C211.007 123.928 211.007 126.754 211.007 126.754C211.007 126.754 202.857 125.695 199.573 127.402L193.834 114.699Z" fill="#213F7A"/>
    <path d="M197.547 79.1208C197.547 79.1208 198.612 83.2865 201.511 84.6113C201.511 84.6113 198.612 82.0501 198.36 79.3122C198.124 76.5595 197.547 79.1208 197.547 79.1208Z" fill="#2C3A64"/>
    <path d="M221.79 122.324C221.39 120.822 219.778 119.939 218.21 120.351C217.811 120.454 217.441 120.646 217.145 120.881L216.524 121.323L216.598 121.426C216.08 122.103 215.873 122.986 216.095 123.84C216.494 125.341 218.107 126.225 219.674 125.812C219.778 125.783 219.867 125.753 219.956 125.724L220.029 125.812L220.725 125.297C221.642 124.605 222.1 123.457 221.79 122.324Z" fill="#EF7E29"/>
    <path d="M215.503 124.282C215.104 122.78 216.05 121.22 217.618 120.793C219.186 120.366 220.798 121.249 221.198 122.765C221.597 124.267 220.65 125.827 219.082 126.254C217.515 126.666 215.917 125.783 215.503 124.282Z" fill="#F99746"/>
    <path d="M218.905 123.487C218.875 123.148 218.461 122.824 218.017 122.986C217.84 123.045 213.092 126.004 213.092 126.004L214.112 127.255L218.712 123.987C218.712 123.987 218.934 123.825 218.905 123.487Z" fill="#EF7E29"/>
    <path d="M180.36 94.6362C180.759 93.1348 182.372 92.2516 183.939 92.6638C184.339 92.7668 184.709 92.9582 185.004 93.1937L185.626 93.6353L185.552 93.7383C186.069 94.4154 186.276 95.2986 186.055 96.1524C185.655 97.6538 184.043 98.537 182.475 98.1248C182.372 98.0954 182.283 98.0659 182.194 98.0365L182.12 98.1248L181.425 97.6096C180.508 96.9178 180.064 95.7549 180.36 94.6362Z" fill="#EF7E29"/>
    <path d="M186.646 96.5785C187.046 95.077 186.099 93.5167 184.531 93.0899C182.963 92.663 181.351 93.5462 180.952 95.0623C180.552 96.5637 181.499 98.124 183.067 98.5509C184.635 98.9631 186.247 98.0799 186.646 96.5785Z" fill="#F99746"/>
    <path d="M183.244 95.7993C183.274 95.4608 183.688 95.1369 184.131 95.2988C184.309 95.3577 189.057 98.3164 189.057 98.3164L188.036 99.5676L183.436 96.2998C183.436 96.2851 183.214 96.1379 183.244 95.7993Z" fill="#EF7E29"/>
    <path d="M183.836 99.3008C183.836 99.3008 182.15 97.2105 183.363 96.136C184.576 95.0614 186.159 95.3706 186.203 96.0035C186.247 96.6365 185.656 98.4323 185.656 98.4323L183.836 99.3008Z" fill="#F4A671"/>
    <path d="M215.918 121.014C215.918 121.014 216.421 122.177 216.939 122.515C217.456 122.839 218.196 123.634 218.063 124.252C217.93 124.885 217.797 125.857 217.131 125.857C216.48 125.857 214.942 122.971 214.75 122.427C214.557 121.882 214.395 121.779 214.395 121.779L215.918 121.014Z" fill="#FFB27D"/>
    <path d="M218.165 125.033C217.722 123.399 215.976 122.443 214.261 122.899C213.817 123.017 213.432 123.208 213.092 123.473L212.412 123.959L212.5 124.062C211.938 124.798 211.702 125.755 211.953 126.697C212.397 128.331 214.142 129.287 215.858 128.831C215.962 128.802 216.065 128.772 216.169 128.728L216.243 128.831L217.012 128.272C218.003 127.521 218.506 126.255 218.165 125.033Z" fill="#EF7E29"/>
    <path d="M211.332 127.152C210.889 125.518 211.924 123.81 213.625 123.354C215.341 122.898 217.086 123.855 217.53 125.488C217.973 127.122 216.938 128.83 215.237 129.286C213.521 129.743 211.776 128.786 211.332 127.152Z" fill="#F99746"/>
    <path d="M215.444 125.93C215.297 125.4 214.735 125.091 214.172 125.238C214.025 125.282 213.906 125.341 213.788 125.429L213.566 125.591L213.596 125.621C213.418 125.856 213.344 126.165 213.418 126.474C213.566 127.004 214.128 127.313 214.69 127.166C214.72 127.151 214.764 127.151 214.794 127.137L214.823 127.166L215.075 126.99C215.4 126.725 215.563 126.327 215.444 125.93Z" fill="#EF7E29"/>
    <path d="M213.227 126.607C213.079 126.077 213.419 125.518 213.966 125.371C214.528 125.223 215.09 125.533 215.238 126.062C215.386 126.592 215.046 127.152 214.499 127.299C213.937 127.461 213.374 127.152 213.227 126.607Z" fill="#F99746"/>
    <path d="M183.984 97.3303C184.428 95.6963 186.173 94.7395 187.889 95.1959C188.333 95.3136 188.717 95.505 189.057 95.7699L189.738 96.2557L189.649 96.3587C190.211 97.0947 190.448 98.0515 190.196 98.9936C189.753 100.628 188.007 101.584 186.291 101.128C186.188 101.099 186.084 101.069 185.981 101.025L185.907 101.128L185.138 100.569C184.147 99.8179 183.659 98.5667 183.984 97.3303Z" fill="#EF7E29"/>
    <path d="M190.817 99.4486C191.26 97.8147 190.225 96.1072 188.524 95.6509C186.808 95.1946 185.063 96.1514 184.619 97.7853C184.176 99.4192 185.211 101.127 186.912 101.583C188.628 102.054 190.373 101.097 190.817 99.4486Z" fill="#F99746"/>
    <path d="M186.705 98.2266C186.853 97.6966 187.415 97.3875 187.977 97.5347C188.125 97.5789 188.243 97.6378 188.362 97.7261L188.583 97.888L188.554 97.9174C188.731 98.153 188.805 98.4621 188.731 98.7712C188.583 99.3011 188.021 99.6102 187.459 99.463C187.43 99.4483 187.385 99.4483 187.356 99.4336L187.326 99.463L187.075 99.2864C186.749 99.0361 186.601 98.624 186.705 98.2266Z" fill="#EF7E29"/>
    <path d="M188.924 98.9196C189.072 98.3897 188.731 97.8304 188.184 97.6832C187.622 97.536 187.06 97.8451 186.912 98.375C186.764 98.9049 187.104 99.4643 187.652 99.6115C188.214 99.7587 188.776 99.4495 188.924 98.9196Z" fill="#F99746"/>
    <path d="M193.627 115.331C193.627 115.331 195.757 116.877 198.02 116.951C200.283 117.009 208.211 115.081 208.211 115.081L207.886 114.463C207.886 114.463 199.189 116.774 197.162 116.097C195.121 115.405 193.894 114.595 193.894 114.595L193.627 115.331Z" fill="#233862"/>
    <path d="M195.521 168.662C194.559 168.677 192.296 168.412 191.379 168.662H187.741C186.898 168.147 186.543 167.544 188.806 167.264C192.06 166.867 192.651 163.613 192.71 163.216C192.71 163.201 192.71 163.201 192.71 163.201C192.71 163.187 192.71 163.172 192.71 163.172L195.757 164.335C195.757 164.335 195.757 164.349 195.743 164.349C195.743 164.364 195.728 164.394 195.713 164.408C195.609 164.688 195.358 165.498 195.698 166.454C195.979 167.308 196.482 168.648 195.521 168.662Z" fill="#FFB27D"/>
    <path d="M219.423 168.663C218.462 168.677 216.199 168.412 215.282 168.663H211.643C210.8 168.147 210.475 167.662 212.693 167.264C215.977 166.69 216.346 165.189 216.199 164.217C216.125 163.732 215.932 163.364 215.903 163.319L219.319 163.113C219.319 163.113 219.305 163.305 219.305 163.614C219.29 164.32 219.305 165.66 219.6 166.484C219.881 167.308 220.384 168.648 219.423 168.663Z" fill="#FFB27D"/>
    <path d="M195.698 164.437C195.595 164.717 195.343 165.526 195.683 166.483C195.964 167.307 196.482 168.662 195.521 168.662C194.559 168.662 192.296 168.411 191.379 168.662H187.741C186.898 168.146 186.543 167.543 188.806 167.263C192.06 166.866 192.651 163.613 192.71 163.215C192.71 163.201 192.71 163.2 192.71 163.2C192.784 162.582 192.858 161.89 192.932 161.125C192.932 161.125 194.441 162.229 196.881 161.567C196.467 162.656 196.083 163.598 195.757 164.349C195.757 164.349 195.757 164.363 195.743 164.363C195.728 164.378 195.713 164.408 195.698 164.437C195.698 164.422 195.698 164.422 195.698 164.437Z" fill="#213F7A"/>
    <path d="M219.423 168.661C218.462 168.676 216.199 168.411 215.282 168.661H211.643C210.8 168.146 210.475 167.66 212.693 167.263C215.977 166.689 216.346 165.188 216.199 164.216C216.11 163.966 216.006 163.657 215.903 163.318C215.696 162.7 215.444 161.964 215.148 161.14C216.08 161.154 217.796 161.051 219.334 160.359C219.364 161.375 219.349 162.302 219.319 163.112C219.319 163.289 219.305 163.451 219.305 163.612C219.29 164.319 219.305 165.659 219.6 166.483C219.881 167.307 220.384 168.647 219.423 168.661Z" fill="#213F7A"/>
    <path d="M196.541 85.9076C196.541 85.9076 196.689 86.2167 196.748 86.3786C196.807 86.5405 197.724 86.5405 198.005 86.3639C198.242 86.2167 198.538 85.8193 198.523 85.834C198.523 85.834 196.94 85.8045 196.541 85.9076Z" fill="white"/>
    <path d="M279.44 135.337C278.612 136.235 277.37 137.162 279.352 139.208C281.881 141.843 285.8 153.177 285.8 153.177C285.667 153.604 285.8 154.208 285.49 154.385C284.987 154.664 283.715 153.796 283.715 153.796C283.715 153.796 272.089 141.799 271.143 139.105C270.447 137.118 274.012 127.477 276.142 122.413C276.896 120.617 277.473 119.41 277.621 119.322C277.636 119.307 277.665 119.292 277.68 119.278C278.937 118.483 280.106 118.586 281.171 119.189C281.393 119.322 281.615 119.469 281.822 119.646C284.425 121.75 286.096 126.726 285.919 127.771C285.8 128.492 284.528 130.023 283.138 131.525C282.842 131.834 282.561 132.143 282.265 132.452C280.993 133.791 279.795 134.954 279.44 135.337Z" fill="#F99746"/>
    <path d="M283.138 131.538C282.842 131.848 282.561 132.157 282.265 132.466L276.142 122.442C276.896 120.646 277.473 119.439 277.621 119.35C277.635 119.336 277.665 119.321 277.68 119.306L281.171 119.218L281.807 119.203L281.836 119.674L283.138 131.538Z" fill="#ED7D2B"/>
    <path d="M279.663 96.6531C279.663 96.6531 280.964 99.8179 280.624 101.702C280.284 103.586 275.802 112.992 274.161 114.597C272.534 116.216 261.692 109.371 261.692 109.371L262.757 108.355C262.757 108.355 271.336 110.534 271.794 109.842C272.238 109.165 274.427 95.7699 279.663 96.6531Z" fill="#FFB27D"/>
    <path d="M279.411 121.5C279.411 121.5 281.63 132.569 287.25 140.356C292.679 147.878 295.504 159.418 295.504 159.418C295.504 159.418 295.859 159.698 296.569 159.403C297.279 159.109 297.752 159.462 297.9 159.124C297.9 159.124 296.879 140.915 294.054 136.926C292.457 134.674 291.614 126.401 291.673 124.149C291.732 121.897 290.741 119.145 290.741 119.145L279.411 121.5Z" fill="#F99746"/>
    <path d="M297.84 162.393L296.524 162.408C296.08 162.349 295.755 162.216 295.311 162.157C294.631 162.069 294.305 162.349 294.246 162.422C294.231 162.437 294.231 162.437 294.231 162.437L288.655 162.481C288.507 162.29 288.64 161.819 288.774 161.48C288.862 161.245 289.055 161.068 289.291 161.009C289.883 160.833 291.051 160.671 292.102 159.699C292.693 159.155 294.986 157.697 294.986 157.697H295.001C295.045 157.697 295.296 157.771 296.347 158.639C296.894 159.096 297.811 157.992 297.811 157.992C297.811 157.992 297.988 158.139 298.121 158.404C298.225 158.61 298.299 158.904 298.255 159.258C298.181 159.758 298.447 160.685 298.669 161.318C298.802 161.701 298.92 161.966 298.92 161.966C298.92 161.966 298.964 162.246 297.84 162.393Z" fill="#233862"/>
    <path d="M298.122 158.373C297.811 158.594 297.146 159.036 296.717 159.095C296.125 159.183 295.001 157.682 295.001 157.682H295.016C295.06 157.682 295.312 157.755 296.362 158.624C296.909 159.08 297.826 157.976 297.826 157.976C297.826 157.976 297.989 158.109 298.122 158.373Z" fill="#233862"/>
    <path d="M297.84 162.392L296.524 162.407C296.08 162.348 295.755 162.215 295.311 162.156C294.631 162.068 294.305 162.348 294.246 162.421C294.231 162.436 294.231 162.436 294.231 162.436L288.655 162.48C288.507 162.289 288.64 161.818 288.774 161.479C288.936 161.332 288.995 162.127 289.084 162.26C289.173 162.392 293.64 162.274 293.891 162.083C294.143 161.892 294.912 161.568 295.992 161.818C296.923 162.039 298.299 161.45 298.639 161.303C298.772 161.685 298.891 161.95 298.891 161.95C298.891 161.95 298.964 162.245 297.84 162.392Z" fill="#233862"/>
    <path d="M291.066 112.181C291.066 105.969 289.927 97.0195 288.374 96.3277C287.043 95.7389 284.159 94.9146 281.171 94.9587C278.819 94.9882 273.805 96.0922 273.302 99.9635C272.977 102.407 272.844 104.424 272.844 104.424C272.844 104.424 273.376 105.984 274.87 106.411C275.048 107.103 275.136 107.794 275.358 108.369C277.828 114.845 276.615 121.322 276.615 121.322C278.893 123.206 290.193 122.102 291.332 121.366C293.196 120.144 291.066 118.393 291.066 112.181Z" fill="#2A4E96"/>
    <path d="M288.361 154.737L287.414 155.65C287.044 155.9 286.734 156.032 286.364 156.312C285.817 156.724 285.772 157.136 285.772 157.225C285.772 157.239 285.772 157.239 285.772 157.239L281.779 161.111C281.542 161.066 281.306 160.64 281.172 160.301C281.069 160.08 281.084 159.815 281.217 159.594C281.527 159.065 282.252 158.152 282.341 156.709C282.4 155.9 283.036 153.28 283.036 153.28V153.265C283.066 153.235 283.302 153.118 284.663 153.029C285.373 152.985 285.27 151.557 285.27 151.557C285.27 151.557 285.491 151.543 285.772 151.646C285.994 151.719 286.246 151.881 286.453 152.176C286.749 152.588 287.592 153.074 288.183 153.368C288.538 153.545 288.805 153.662 288.805 153.662C288.805 153.662 289.071 153.854 288.361 154.737Z" fill="#233862"/>
    <path d="M285.772 151.646C285.699 152.014 285.536 152.794 285.255 153.132C284.885 153.603 283.036 153.28 283.036 153.28V153.265C283.066 153.235 283.302 153.118 284.663 153.029C285.373 152.985 285.27 151.557 285.27 151.557C285.27 151.557 285.491 151.543 285.772 151.646Z" fill="#233862"/>
    <path d="M288.361 154.737L287.414 155.65C287.044 155.9 286.734 156.033 286.364 156.312C285.817 156.724 285.772 157.137 285.772 157.225C285.772 157.24 285.772 157.24 285.772 157.24L281.779 161.111C281.542 161.067 281.305 160.64 281.172 160.301C281.187 160.08 281.779 160.61 281.941 160.64C282.104 160.669 285.24 157.519 285.284 157.21C285.329 156.901 285.669 156.136 286.615 155.561C287.444 155.076 288.035 153.707 288.168 153.354C288.523 153.53 288.79 153.648 288.79 153.648C288.79 153.648 289.071 153.854 288.361 154.737Z" fill="#233862"/>
    <path d="M285.135 97.1546C285.135 97.1546 288.582 97.1104 290.209 98.1261C291.851 99.127 298.965 106.752 299.867 108.857C300.769 110.962 292.501 116.968 292.501 116.968L291.333 115.128C291.333 115.128 295.016 109.99 294.543 109.313C294.084 108.621 282.37 101.674 285.135 97.1546Z" fill="#FFB27D"/>
    <path d="M291.777 114.832L293.152 115.892C293.152 115.892 291.939 118.483 291.289 118.733L291.215 118.748C290.505 118.895 288.745 117.747 288.449 116.554C288.419 116.437 288.434 116.319 288.464 116.216C288.73 115.494 290.386 115.097 291.244 114.935C291.555 114.861 291.777 114.832 291.777 114.832Z" fill="#FFB27D"/>
    <path d="M263.703 108.59L263.023 110.18C263.023 110.18 260.198 109.65 259.798 109.076L259.769 109.017C259.458 108.369 260.139 106.382 261.218 105.808C261.337 105.749 261.44 105.734 261.559 105.734C262.328 105.823 263.126 107.309 263.496 108.104C263.629 108.384 263.703 108.59 263.703 108.59Z" fill="#FFB27D"/>
    <path d="M283.833 95.1211C283.833 95.1211 287.028 95.2683 289.321 96.6814C290.371 97.3291 294.424 101.156 294.424 101.156C294.424 101.156 293.98 105.145 289.143 106.235C284.233 107.339 283.434 99.1691 283.434 99.1691L283.833 95.1211Z" fill="#2A4E96"/>
    <path d="M282.946 95.1823C283.094 95.4031 283.109 95.6975 282.961 95.933C282.532 96.6101 281.334 97.773 278.213 97.5669C277.148 97.4933 276.896 96.6837 277.577 95.8594C277.739 95.6533 277.68 94.4905 277.666 94.0341C277.606 92.9596 277.651 92.3561 277.651 92.3561L279.869 90.8547L281.97 89.4121C281.615 92.783 282.517 94.5346 282.946 95.1823Z" fill="#FFB27D"/>
    <path d="M281.881 91.0881C281.881 91.0881 280.343 93.5022 277.666 94.0174C277.606 92.9428 277.651 92.3393 277.651 92.3393L279.869 90.8379L281.881 91.0881Z" fill="#ED985F"/>
    <path d="M276.69 92.2063C276.69 92.2063 281.837 93.3986 282.532 90.2486C283.227 87.0985 284.366 85.1261 281.112 84.2429C277.858 83.345 276.941 84.4195 276.453 85.4058C275.965 86.4067 275.373 91.8236 276.69 92.2063Z" fill="#FFB27D"/>
    <path d="M284.839 84.0966C284.884 84.0524 285.002 84.0083 285.239 84.0083C285.239 84.0083 285.047 83.8758 284.795 83.8464C284.766 83.5078 284.632 82.9043 284.056 82.7129C284.056 82.7129 284.351 82.9043 284.366 83.2576C283.745 82.5216 282.34 81.9328 278.331 81.9769C273.051 82.0358 274.56 85.5097 275.211 85.9513C275.861 86.3929 277.651 85.4067 278.908 85.598C280.166 85.7747 280.284 87.6147 280.698 87.8943C281.112 88.174 280.979 87.7177 281.571 87.4969C282.177 87.2761 282.162 88.2329 281.955 88.8511C281.748 89.4694 282.488 90.3379 282.488 90.3379C282.488 90.3379 282.488 90.3379 283.36 89.5283C284.233 88.7187 285.239 85.0976 284.913 84.288C284.899 84.2438 284.869 84.1702 284.839 84.0966Z" fill="#2C3A64"/>
    <path d="M276.246 90.2191C276.246 90.2191 276.379 90.6901 276.911 90.749C277.429 90.8079 277.769 90.4399 277.769 90.4399C277.769 90.4399 276.911 90.0424 276.246 90.2191Z" fill="white"/>
    <path d="M440 169.208V169.399C440 169.679 439.778 169.899 439.497 169.899H0.502891C0.221864 169.899 0 169.679 0 169.399V169.208C0 168.928 0.221864 168.707 0.502891 168.707H439.482C439.778 168.707 440 168.928 440 169.208Z" fill="#2E3552"/>
    <path d="M40.0993 115.348V147.378H39.7896V115.362C39.8338 115.362 39.8928 115.362 39.937 115.362C39.9813 115.348 40.0403 115.348 40.0993 115.348Z" fill="#ADCBFF"/>
    <path d="M65.1411 131.627C63.8247 128.447 61.9462 125.592 59.5501 123.148C57.154 120.705 54.3585 118.776 51.2524 117.422C48.028 116.024 44.6113 115.332 41.0911 115.332C40.7657 115.332 40.4403 115.332 40.1149 115.347C40.0557 115.347 40.0114 115.347 39.967 115.347C39.9078 115.347 39.8634 115.347 39.8191 115.347C36.7426 115.494 33.7696 116.186 30.9445 117.408C27.8385 118.747 25.043 120.675 22.6469 123.134C20.2508 125.577 18.3723 128.433 17.0559 131.612C15.6952 134.909 15 138.398 15 142.004C15 145.611 15.6952 149.099 17.0559 152.397C18.3723 155.576 20.2508 158.432 22.6469 160.875C25.043 163.319 27.8385 165.247 30.9445 166.601C34.169 168 37.5857 168.706 41.1059 168.706C44.6261 168.706 48.0576 168 51.2672 166.601C54.3733 165.262 57.1688 163.334 59.5649 160.875C61.961 158.432 63.8542 155.576 65.1558 152.397C66.5166 149.099 67.2118 145.611 67.2118 142.004C67.197 138.413 66.5018 134.909 65.1411 131.627ZM58.5887 159.904C53.9148 164.688 47.6878 167.308 41.0763 167.308C34.4648 167.308 28.2378 164.673 23.5639 159.904C18.89 155.12 16.3164 148.776 16.3164 142.019C16.3164 135.263 18.89 128.904 23.5639 124.135C27.942 119.66 33.6513 117.069 39.7747 116.76C39.8339 116.76 39.8783 116.76 39.9226 116.745C39.9818 116.745 40.0262 116.745 40.0705 116.745C40.3959 116.73 40.7213 116.73 41.0467 116.73C47.6582 116.73 53.8852 119.365 58.5591 124.135C63.233 128.918 65.8067 135.263 65.8067 142.019C65.8362 148.776 63.2626 155.12 58.5887 159.904Z" fill="#C1DAF0"/>
    <path d="M31.7729 163.701C31.7285 165.821 31.6841 167.249 31.6841 167.249C31.625 168.073 30.9298 168.691 30.1311 168.633L24.7176 168.25C23.9189 168.191 23.3124 167.484 23.3568 166.66C23.3568 166.66 23.5047 165.232 23.7118 163.113C23.7561 162.715 23.7857 162.288 23.8301 161.861C24.2886 157.151 24.9394 150.292 25.1613 147.23C25.3684 144.227 25.6346 137.191 25.7973 132.863C25.8121 132.422 25.8269 132.024 25.8417 131.641C25.8861 130.169 25.9156 129.227 25.9156 129.227C25.9748 128.403 26.67 127.785 27.4687 127.844L32.8822 128.226C33.6809 128.285 34.2874 128.992 34.243 129.816C34.243 129.816 34.1247 130.744 33.962 132.186C33.9176 132.569 33.8732 132.996 33.8288 133.437C33.3259 137.75 32.5272 144.713 32.335 147.73C32.1279 150.777 31.9208 157.681 31.8025 162.406C31.7877 162.877 31.7877 163.304 31.7729 163.701Z" fill="#F2564B"/>
    <path d="M29.4063 163.539C29.3619 165.659 29.3176 167.087 29.3176 167.087C29.2584 167.911 28.5632 168.529 27.7645 168.471L24.7176 168.25C23.9188 168.191 23.3124 167.484 23.3568 166.66C23.3568 166.66 23.5047 165.232 23.7118 163.113C23.7561 162.715 23.7857 162.288 23.8301 161.861C24.2886 157.151 24.9394 150.292 25.1613 147.23C25.3684 144.227 25.6346 137.191 25.7973 132.863C25.8121 132.422 25.8269 132.024 25.8417 131.641C25.8861 130.169 25.9156 129.227 25.9156 129.227C25.9748 128.403 26.67 127.785 27.4687 127.844L30.5156 128.065C31.3144 128.123 31.9208 128.83 31.8764 129.654C31.8764 129.654 31.7581 130.582 31.5954 132.024C31.551 132.407 31.5066 132.834 31.4622 133.275C30.9594 137.588 30.1607 144.551 29.9684 147.568C29.7613 150.615 29.5542 157.519 29.4359 162.244C29.4211 162.7 29.4211 163.127 29.4063 163.539Z" fill="#FB7369"/>
    <path d="M33.9764 132.185C33.9321 132.568 33.8877 132.995 33.8433 133.437L25.9302 132.863C25.8858 132.863 25.8562 132.863 25.8267 132.848C25.8415 132.406 25.8562 132.009 25.871 131.626C25.9154 131.611 25.9746 131.611 26.0189 131.611L33.9764 132.185Z" fill="#F9DDBF"/>
    <path d="M23.7109 163.113C23.7405 163.127 23.7553 163.127 23.7849 163.127L31.772 163.701C31.7868 163.304 31.7868 162.862 31.8015 162.406L23.8884 161.832C23.8736 161.832 23.8588 161.832 23.8441 161.847L23.7109 163.113Z" fill="#F9DDBF"/>
    <path d="M38.2364 132.922C38.1479 132.922 38.0889 132.849 38.0889 132.76V115.494C38.0889 115.406 38.1626 115.332 38.2364 115.332C38.3249 115.332 38.3839 115.406 38.3839 115.494V132.775C38.3986 132.863 38.3249 132.922 38.2364 132.922Z" fill="#ADCBFF"/>
    <path d="M38.1629 135.836C37.8375 135.836 37.5713 135.571 37.5713 135.247V133.128C37.5713 132.804 37.8375 132.539 38.1629 132.539C38.4884 132.539 38.7546 132.804 38.7546 133.128V135.247C38.7694 135.571 38.5031 135.836 38.1629 135.836Z" fill="#FB7369"/>
    <path d="M39.9373 149.746C39.6119 149.746 39.3457 149.482 39.3457 149.158V147.038C39.3457 146.714 39.6119 146.449 39.9373 146.449C40.2627 146.449 40.529 146.714 40.529 147.038V149.158C40.5438 149.482 40.2627 149.746 39.9373 149.746Z" fill="#FB7369"/>
    <path d="M6.56689 95.0474C6.70001 94.5764 6.83313 94.1054 6.96625 93.649C7.15853 93.0013 7.3656 92.3684 7.57268 91.7207C8.25306 91.7501 8.96302 91.8679 9.56945 92.1181C9.58424 92.1034 7.72058 93.6932 6.56689 95.0474Z" fill="#ACC7DF"/>
    <path d="M24.0205 102.245C22.6301 105.41 20.4411 105.792 19.6571 105.424C18.8732 105.071 14.7318 101.656 14.4064 102.289C14.081 102.922 16.1961 106.042 18.1633 106.808C18.1633 106.808 12.9717 109.693 10.8713 107.647C8.77103 105.601 9.19997 103.628 7.86879 102.392C6.5524 101.155 5.20642 100.699 5.60578 101.641C6.00513 102.583 8.60833 104.247 8.96331 106.116C9.3183 108 9.76202 109.325 7.29194 108.059C6.3897 107.603 5.33954 106.867 4.40771 106.013C4.6 104.438 4.83665 102.878 5.11768 101.303C5.26559 100.508 5.42829 99.7129 5.59099 98.9181C5.65015 98.6531 5.70931 98.3734 5.76848 98.0937C5.85722 97.6669 5.96076 97.2547 6.0643 96.8278C7.26236 96.5629 10.5459 92.0586 10.5459 92.0586C10.5459 92.0586 16.4919 93.4423 18.0449 94.9584C18.0449 94.9584 11.7588 97.3136 12.7202 97.9024C13.6816 98.4912 20.3375 96.3421 20.3375 96.3421C20.3375 96.3421 25.4108 99.08 24.0205 102.245Z" fill="#ACC7DF"/>
    <path d="M21.343 101.451C13.134 98.9778 8.37137 98.5951 5.60547 98.9631C5.66463 98.6981 5.7238 98.4185 5.78296 98.1388C11.7289 97.8444 21.0176 101.318 21.343 101.451Z" fill="#ACC7DF"/>
    <path d="M47.8636 83.3903C45.8077 88.3803 42.4058 89.0722 41.1633 88.5275C39.9209 87.9976 33.3241 82.8309 32.836 83.8172C32.3479 84.8181 35.7794 89.6168 38.9003 90.7502C38.9003 90.7502 30.8984 95.4459 27.5261 92.3253C24.1538 89.2046 24.7602 86.1135 22.6303 84.2293C20.5152 82.3452 18.4001 81.6975 19.0657 83.1548C19.7313 84.612 23.8432 87.1144 24.4792 90.0289C25.1152 92.9582 25.8547 95.019 21.9499 93.1348C18.0451 91.2801 12.3211 86.2312 13.0902 82.7279C13.1198 82.5807 13.1641 82.4335 13.1937 82.2863C13.8741 79.2246 13.8741 79.2246 13.8741 79.2246C13.8741 79.2246 13.7558 78.9596 13.6079 78.518C14.8503 76.4278 16.2111 74.3817 17.7345 72.3651C17.8233 72.2473 17.8972 72.1443 17.986 72.0265C19.1397 70.5104 20.3673 69.0237 21.6837 67.5664C22.7782 67.5811 23.9171 67.7283 24.9081 68.111C24.9081 68.111 17.8972 74.3817 19.1397 75.6035C20.3969 76.8252 26.4464 68.0669 26.4464 68.0669C26.4464 68.0669 35.809 70.0099 38.2791 72.3062C38.2791 72.3062 28.5319 76.2217 30.0554 77.1049C31.5788 77.9881 41.9029 74.3817 41.9029 74.3817C41.9029 74.3817 49.9195 78.4002 47.8636 83.3903Z" fill="#ACC7DF"/>
    <path d="M43.6332 82.2425C17.6012 75.1033 13.7556 80.6086 13.1787 82.2867C13.09 82.5516 13.0752 82.7283 13.0752 82.7283C12.6462 82.6694 11.8919 82.8755 11.0488 83.1993C11.4038 82.4633 11.7884 81.7273 12.1729 81.006C13.297 79.9903 13.8443 79.2249 13.8443 79.2249C20.8552 74.3379 42.8493 81.9628 43.6332 82.2425Z" fill="#ACC7DF"/>
    <path d="M421.985 158.873L422.014 166.925C422.014 167.882 421.231 168.662 420.269 168.662L416.956 168.676C415.935 168.676 415.107 167.852 415.107 166.851L415.078 158.888C415.078 157.533 415.891 156.356 417.074 155.841C417.222 155.767 417.326 155.62 417.296 155.443C417.296 155.399 417.281 155.34 417.281 155.296V154.869H419.752V155.296C419.752 155.355 419.752 155.414 419.737 155.458C419.707 155.605 419.796 155.752 419.929 155.811C421.127 156.326 421.97 157.504 421.985 158.873Z" fill="#FFA969"/>
    <path d="M421.984 158.873L422.014 166.925C422.014 167.882 421.23 168.662 420.269 168.662H418.183C417.163 168.662 416.334 167.837 416.334 166.836L416.305 158.873C416.305 157.519 417.118 156.341 418.301 155.826C418.361 155.796 418.405 155.767 418.449 155.723C418.509 155.649 418.553 155.546 418.538 155.443C418.538 155.399 418.523 155.34 418.523 155.296V154.869H419.751V155.296C419.751 155.355 419.751 155.414 419.736 155.458C419.707 155.605 419.795 155.752 419.928 155.811C421.127 156.326 421.97 157.504 421.984 158.873Z" fill="#EF7E29"/>
    <path d="M420.609 158.873L420.639 166.924C420.639 167.881 419.855 168.661 418.894 168.661H418.169C417.148 168.661 416.32 167.837 416.32 166.836L416.291 158.873C416.291 157.518 417.104 156.341 418.287 155.826C418.346 155.796 418.391 155.767 418.435 155.723C418.465 155.767 418.509 155.796 418.554 155.811C419.766 156.326 420.609 157.504 420.609 158.873Z" fill="#F99746"/>
    <path d="M421.98 159.57L415.072 159.59L415.086 164.315L421.994 164.295L421.98 159.57Z" fill="#F9DDBF"/>
    <path d="M419.888 154.188L417.151 154.201L417.155 154.849L419.891 154.835L419.888 154.188Z" fill="#2C3A64"/>
    <path d="M402.147 92.7215C402.088 91.7353 402.235 90.808 402.235 90.808C402.99 92.7068 404.01 93.6636 404.75 94.1346C404.987 94.1935 405.179 94.223 405.282 94.1935C405.682 94.0905 406.066 93.9727 406.436 93.8108C405.356 92.9865 404.306 91.6617 404.247 91.5881C405.223 92.486 406.406 93.0895 407.22 93.4428C409.232 92.3535 410.607 90.5724 411.361 89.4096C406.199 87.7904 404.676 84.5667 404.676 84.5667C409.261 88.2172 411.287 88.3939 411.997 88.2614C412.012 88.2467 412.012 88.232 412.012 88.232C405.12 86.4067 403.197 78.3844 400.875 75.5729C398.553 72.7614 395.728 74.9105 395.728 74.9105C395.728 74.9105 395.994 84.8611 402.147 92.7215Z" fill="#A9453D"/>
    <path d="M390.121 90.3672C390.121 90.3672 385.61 92.7518 385.98 94.8862C386.571 98.2865 389.086 105.72 389.086 105.72L381.75 102.084L380.433 103.659C380.433 103.659 389.337 112.506 392.473 110.475C395.623 108.443 390.121 90.3672 390.121 90.3672Z" fill="#F4A671"/>
    <path d="M380.463 103.66C380.463 103.66 378.022 102.453 378.688 100.937C379.354 99.4352 380.936 99.0525 381.247 99.6118C381.557 100.171 381.779 102.07 381.779 102.07L380.463 103.66Z" fill="#C0783D"/>
    <path d="M389.012 77.3549C389.012 77.3549 393.952 71.4376 396.57 75.2206C396.57 75.2206 398.523 76.0301 399.233 79.3421C399.958 82.713 397.695 85.2889 396.526 84.656C395.772 84.2438 395.21 85.5539 395.21 85.5539L389.012 77.3549Z" fill="#A9453D"/>
    <path d="M390.565 90.3228C390.551 90.3376 392.385 91.2796 393.76 90.9116C395.062 90.5584 396.704 90.1315 396.689 90.1168C396.142 90.0137 395.18 88.0118 395.195 84.7734L394.944 84.8176L390.758 85.6419C390.758 85.6419 390.846 86.952 390.861 88.1884C390.876 89.2336 390.817 90.2198 390.565 90.3228Z" fill="#FFB27D"/>
    <path d="M390.773 85.6564C390.773 85.6564 390.862 86.9664 390.877 88.2029C393.214 88.144 394.456 86.0096 394.959 84.832L390.773 85.6564Z" fill="#F4A671"/>
    <path d="M395.387 84.376C395.387 84.376 396.615 82.4477 396.91 80.7991C397.118 79.6215 396.511 75.2496 392.103 75.8826C392.103 75.8826 390.817 76.0151 389.619 76.81C388.657 77.4576 387.282 78.8413 388.82 82.6538L389.219 83.9344L395.387 84.376Z" fill="#A9453D"/>
    <path d="M389.988 86.8205C389.988 86.8205 395.534 86.9088 395.534 83.4791C395.534 80.0493 396.259 77.7383 392.724 77.547C389.189 77.3409 388.494 78.6509 388.213 79.7991C387.932 80.9472 388.553 86.7174 389.988 86.8205Z" fill="#FFB27D"/>
    <path d="M390.196 77.4585C390.196 77.4585 391.719 81.4917 394.042 82.0805C396.364 82.6693 397.384 82.0511 397.384 82.0511C397.384 82.0511 395.595 80.638 395.225 78.1797C395.225 78.1797 391.335 75.5449 390.196 77.4585Z" fill="#A9453D"/>
    <path d="M390.565 77.7822C390.565 77.7822 389.426 78.6801 389.16 79.5633C388.879 80.4318 388.76 82.2423 388.228 82.1835C388.228 82.1835 387.089 79.4456 388.376 77.9C389.737 76.2366 390.565 77.7822 390.565 77.7822Z" fill="#A9453D"/>
    <path d="M401.88 116.053C399.943 111.711 399.011 110.489 398.981 109.135C398.966 108.767 398.996 108.208 399.085 107.516C399.188 106.662 399.366 105.602 399.676 104.454C399.676 104.439 399.676 104.439 399.691 104.425C399.721 104.322 399.765 104.101 399.839 103.792C400.371 101.171 401.777 92.0451 396.703 90.1315C396.659 90.1315 396.6 90.1168 396.555 90.1168C394.337 89.9696 390.107 90.3965 390.107 90.3965C390.107 90.3965 389.323 91.471 388.465 93.0902C387.518 94.8861 386.468 97.3443 386.32 99.6995C386.157 102.114 386.986 103.792 387.341 106.22C387.651 108.311 387.607 110.945 386.305 115.096C383.421 124.223 402.96 118.453 401.88 116.053Z" fill="#FFB27D"/>
    <path d="M390.358 77.9151C390.358 77.9151 391.438 82.1397 394.381 83.4792C394.381 83.4792 391.438 80.8885 391.201 78.1065C390.949 75.3244 390.358 77.9151 390.358 77.9151Z" fill="#A9453D"/>
    <path d="M387.326 106.191C387.326 106.191 394.706 108.296 399.085 107.501C399.188 106.648 399.366 105.588 399.676 104.44C399.676 104.425 399.676 104.425 399.691 104.41C399.721 104.307 399.765 104.086 399.839 103.777C398.449 102.968 396.792 102.379 396.792 102.379L387.326 106.191Z" fill="#F4A671"/>
    <path d="M386.364 101.392C386.542 102.981 387.074 104.38 387.341 106.19C392.414 106.853 397.946 105.072 399.691 104.439C399.691 104.424 399.691 104.424 399.706 104.409C399.942 103.482 402.413 92.2507 396.718 90.1016C395.978 90.3371 395.446 91.1467 394.44 91.5294C392.399 92.3095 390.047 92.5451 388.42 92.3831C387.755 93.6343 387.119 95.857 386.705 97.4762C386.512 98.1975 386.394 98.9335 386.335 99.6548C386.276 100.288 386.305 100.847 386.364 101.392Z" fill="#AEC3FF"/>
    <path d="M390.565 90.3235C390.565 90.3235 389.263 90.2646 388.849 90.5443C388.435 90.824 386.335 93.2675 386.216 93.6061C386.216 93.6061 388.82 93.3853 389.071 93.5472C389.086 93.5619 388.124 93.0025 390.565 90.3235Z" fill="#AEC3FF"/>
    <path d="M369.8 94.047C369.8 94.047 365.643 92.2806 365.481 92.8399C365.318 93.3846 364.978 95.8722 365.865 96.2108C366.753 96.5493 369.962 96.2108 369.962 96.2108L369.8 94.047Z" fill="#C0783D"/>
    <path d="M378.941 166.748L380.967 166.13C380.967 166.13 390.359 155.355 388.259 144.05C388.229 143.932 388.229 143.8 388.288 143.697C388.688 142.902 390.448 139.413 392.252 135.086C393.125 133.01 394.013 130.743 394.767 128.491C395.211 127.151 395.625 125.827 395.95 124.546C395.95 124.531 395.95 124.531 395.95 124.517C395.95 124.502 395.95 124.502 395.95 124.502C396.764 121.337 397.133 118.437 396.63 116.465L386.484 114.051C386.484 114.051 385.478 118.128 384.398 123.398C382.905 130.787 381.278 140.517 382.15 144.653C382.934 148.333 378.941 166.748 378.941 166.748Z" fill="#FFB27D"/>
    <path d="M382.755 102.57C382.755 102.57 381.883 103.527 381.616 104.778C381.616 104.778 380.478 103.674 380.404 103.645C380.33 103.615 379.339 103.056 378.895 102.423C378.451 101.775 378.17 101.246 378.747 100.289C379.324 99.3172 380.995 99.0522 381.188 99.2436C381.38 99.435 381.912 101.834 381.912 101.834C381.912 101.834 381.957 102.011 382.755 102.57Z" fill="#213F7A"/>
    <path d="M392.266 135.086C393.139 133.011 394.026 130.744 394.781 128.492C395.224 127.152 395.638 125.827 395.964 124.547C395.964 124.532 395.964 124.532 395.964 124.517C395.964 124.503 395.964 124.503 395.964 124.503L395.195 124.414L387.4 123.561C387.4 123.561 387.356 124.149 387.282 125.121C387.134 127.476 389.633 131.524 392.266 135.086Z" fill="#F4A671"/>
    <path d="M387.843 116.776L392.414 126.874C392.443 126.859 392.458 126.844 392.488 126.844C395.076 133.925 398.789 143.066 401.703 146.157C404.291 148.895 410.518 166.691 410.518 166.691L412.189 166.102C412.189 166.102 414.304 151.044 406.569 142.492C406.48 142.403 406.421 142.3 406.406 142.168C406.347 141.343 406.051 137.958 405.445 133.792C405.297 132.776 405.134 131.731 404.942 130.642C404.675 129.082 404.35 127.463 403.995 125.887C403.995 125.858 403.98 125.829 403.98 125.814C403.966 125.431 403.936 124.798 403.832 123.959C403.714 122.826 403.492 121.324 403.078 119.632C403.063 119.587 403.049 119.528 403.049 119.484C402.131 115.745 400.83 113.861 400.83 113.861C400.83 113.861 393.893 115.775 391.482 115.937C389.071 116.084 387.843 116.776 387.843 116.776Z" fill="#FFB27D"/>
    <path d="M384.427 123.399C384.782 123.944 385.906 124.562 387.311 125.106H387.326C388.938 125.739 390.905 126.269 392.399 126.49C393.671 126.681 394.603 126.637 394.707 126.225C395.52 123.06 397.162 118.424 396.659 116.451L386.512 114.037C386.498 114.052 385.492 118.129 384.427 123.399Z" fill="#F99746"/>
    <path d="M412.292 168.928H411.124C410.739 168.869 410.443 168.751 410.044 168.707C409.437 168.633 409.156 168.869 409.097 168.928C409.082 168.942 409.082 168.942 409.082 168.942H404.127C404.009 168.766 404.127 168.354 404.246 168.059C404.32 167.853 404.497 167.691 404.704 167.632C405.237 167.485 406.272 167.353 407.219 166.499C407.751 166.013 409.792 164.732 409.792 164.732H409.807C409.852 164.732 410.059 164.791 410.99 165.586C411.464 165.984 412.292 165.012 412.292 165.012C412.292 165.012 412.44 165.145 412.558 165.38C412.647 165.571 412.721 165.822 412.662 166.131C412.588 166.572 412.825 167.397 413.017 167.956C413.135 168.295 413.224 168.53 413.224 168.53C413.224 168.53 413.298 168.795 412.292 168.928Z" fill="#485CA6"/>
    <path d="M412.56 165.365C412.279 165.557 411.687 165.939 411.303 165.998C410.77 166.072 409.794 164.732 409.794 164.732H409.809C409.853 164.732 410.06 164.791 410.992 165.586C411.466 165.984 412.294 165.012 412.294 165.012C412.294 165.012 412.457 165.13 412.56 165.365Z" fill="#A9453D"/>
    <path d="M412.293 168.927H411.124C410.74 168.869 410.444 168.751 410.045 168.707C409.438 168.633 409.157 168.869 409.098 168.927C409.083 168.942 409.083 168.942 409.083 168.942H404.128C404.01 168.766 404.128 168.353 404.247 168.059C404.395 167.927 404.439 168.633 404.528 168.751C404.616 168.869 408.566 168.795 408.802 168.633C409.024 168.471 409.719 168.177 410.666 168.412C411.494 168.604 412.722 168.103 413.033 167.971C413.151 168.309 413.24 168.545 413.24 168.545C413.24 168.545 413.299 168.795 412.293 168.927Z" fill="#A9453D"/>
    <path d="M381.867 168.928H380.698C380.314 168.869 380.018 168.751 379.619 168.707C379.012 168.633 378.731 168.869 378.672 168.928C378.672 168.942 378.657 168.942 378.657 168.942H373.702C373.584 168.766 373.702 168.354 373.821 168.059C373.895 167.853 374.072 167.691 374.279 167.632C374.812 167.485 375.847 167.353 376.794 166.499C377.326 166.013 379.367 164.732 379.367 164.732H379.382C379.426 164.732 379.633 164.791 380.565 165.586C381.039 165.984 381.867 165.012 381.867 165.012C381.867 165.012 382.015 165.145 382.133 165.38C382.222 165.571 382.296 165.822 382.237 166.131C382.163 166.572 382.399 167.397 382.592 167.956C382.71 168.295 382.799 168.53 382.799 168.53C382.799 168.53 382.873 168.795 381.867 168.928Z" fill="#485CA6"/>
    <path d="M382.148 165.365C381.867 165.557 381.276 165.939 380.891 165.998C380.359 166.072 379.382 164.732 379.382 164.732H379.397C379.442 164.732 379.649 164.791 380.581 165.586C381.054 165.984 381.882 165.012 381.882 165.012C381.882 165.012 382.03 165.13 382.148 165.365Z" fill="#A9453D"/>
    <path d="M381.868 168.927H380.699C380.315 168.869 380.019 168.751 379.619 168.707C379.013 168.633 378.732 168.869 378.673 168.927C378.673 168.942 378.658 168.942 378.658 168.942H373.703C373.585 168.766 373.703 168.353 373.821 168.059C373.969 167.927 374.014 168.633 374.102 168.751C374.191 168.869 378.14 168.795 378.377 168.633C378.599 168.471 379.294 168.177 380.241 168.412C381.069 168.604 382.297 168.103 382.607 167.971C382.726 168.309 382.814 168.545 382.814 168.545C382.814 168.545 382.873 168.795 381.868 168.927Z" fill="#A9453D"/>
    <path d="M386.365 101.393C395.106 100.981 398.804 97.4922 398.804 97.4922H386.69C386.498 98.2135 386.38 98.9495 386.321 99.6707C386.276 100.289 386.306 100.848 386.365 101.393Z" fill="#94B0ED"/>
    <path d="M369.962 96.1978C369.962 96.1978 376.987 98.4941 382.09 98.6266C386.394 98.7296 393.819 99.2595 397.783 97.9495C398.538 97.6992 399.055 97.3754 399.277 96.9632C400.653 94.3578 398.39 91.6641 398.39 91.6641C398.39 91.6641 397.118 91.7965 395.195 91.9732C390.343 92.4295 384.102 93.8573 381.158 93.7543C377.046 93.6365 373.29 93.9162 369.799 94.034L369.962 96.1978Z" fill="#FFB27D"/>
    <path d="M397.783 97.9631C398.538 97.7129 399.055 97.3891 399.277 96.9769C400.653 94.3715 398.39 91.6777 398.39 91.6777C398.39 91.6777 397.118 91.8102 395.195 91.9869C395.639 92.4432 398.005 95.0339 397.783 97.9631Z" fill="#AEC3FF"/>
    <path d="M370.908 94.0025C370.908 94.0025 370.716 95.5334 371.248 96.5933C371.248 96.5933 370.05 96.2253 369.946 96.2253C369.843 96.2253 367.432 96.4166 366.589 96.3283C365.731 96.24 365.287 96.2988 365.213 94.768C365.125 93.2371 365.169 92.6188 365.465 92.6041C365.761 92.5894 367.151 92.8396 369.725 93.9436C369.725 93.9584 369.872 94.032 370.908 94.0025Z" fill="#213F7A"/>
    <path d="M400.831 113.846C400.831 113.846 403.419 116.952 403.981 125.798C403.981 125.798 400.49 126.505 399.751 126.284C398.996 126.063 397.695 122.898 397.695 122.898C397.695 122.898 398.42 126.019 397.724 126.593C397.029 127.167 392.651 127.697 392.651 127.697L387.445 116.171C387.445 116.171 394.692 115.332 400.831 113.846Z" fill="#F99746"/>
    <path d="M401.141 114.08C401.141 114.08 394.781 117.26 390.417 116.318C386.054 115.376 386.291 115.067 386.291 115.067L387.015 112.505C387.015 112.505 389.308 113.786 392.34 113.668C395.372 113.55 399.869 111.607 399.869 111.607L401.141 114.08Z" fill="#EF7E29"/>
  </g>
  <defs>
    <clipPath id="clip0">
      <rect width="440" height="170" fill="white"/>
    </clipPath>
  </defs>
</svg>
