<svg width="574" height="220" viewBox="0 0 574 220" fill="none" xmlns="http://www.w3.org/2000/svg">
  <g clip-path="url(#clip0)">
    <path d="M574 0H0V220H574V0Z" fill="url(#paint0_linear)"/>
    <path d="M523.692 89.465C500.643 88.3405 456.54 86.4339 444.684 90.4916C437.813 92.105 425.846 86.0427 417.978 87.6561C403.905 91.5183 407.895 90.8339 388.392 90.4916C386.397 90.4916 370.33 88.9761 368.335 88.145C366.341 86.5316 348.943 87.0205 345.951 85.4072C330.105 81.2516 318.249 87.9494 302.513 84.9183C285.781 81.6916 264.949 89.2694 246.222 88.4872C243.23 88.4872 187.935 91.225 163.224 98.2161C149.262 102.176 127.876 92.4472 113.803 89.5139C102.722 87.2161 93.5243 91.1761 76.6811 90.6872C68.8135 93.1316 52.7459 86.5316 43.5486 86.5316C28.3676 86.5316 17.1757 87.0205 0.443236 86.4339L0 219.998H592.949V85.1628C581.535 86.5316 542.641 88.3894 523.692 89.465Z" fill="url(#paint1_linear)"/>
    <path d="M71.0297 107.065C94.0784 105.989 136.297 90.6872 148.154 94.4028C155.024 95.9183 166.992 96.4561 174.859 97.9228C196.578 103.887 188.268 103.741 211.981 103.007C213.976 103.007 222.508 99.145 224.503 98.3628C226.497 96.8472 245.446 96.3094 248.438 94.7939C255.308 92.8383 272.041 93.2295 282.678 91.7139C299.743 89.2695 311.378 92.4472 330.105 91.7139C333.097 91.7139 367.338 93.8161 380.192 95.185C429.613 100.563 448.562 98.7539 462.413 95.7717C484.132 90.5406 504.078 88.3895 527.792 93.6206C535.992 94.5983 535.992 94.5983 544.524 93.2295C571.23 88.9272 576.105 92.545 592.949 92.0072V219.998H0V93.9139C9.86216 102.812 52.0811 106.038 71.0297 107.065Z" fill="url(#paint2_linear)"/>
    <path d="M537.545 108.778C535.55 108.778 520.701 108.24 518.818 107.604C503.969 105.649 502.972 106.187 488.234 101.689C476.377 97.8266 463.523 106.871 451.666 110.098C444.796 111.369 436.818 107.507 428.95 108.827C407.231 114.009 405.347 117.333 381.634 116.698C335.093 115.72 337.31 107.604 322.128 106.48C295.755 104.573 278.469 104.524 281.572 104.622C266.501 107.409 245.115 105.551 243.231 106.871C236.361 110.733 192.812 122.369 180.955 124.96C167.104 128.187 153.253 130.778 139.401 128.187C117.683 123.64 94.9663 115.28 71.2528 119.778C63.3853 121.733 57.4015 115.915 50.5312 113.324C34.3528 107.067 16.4015 108.142 0.112305 113.129V220H593.061V110.978C574.445 110.342 556.493 107.898 537.545 108.778Z" fill="url(#paint3_linear)"/>
    <path d="M55.6286 130.533C64.0502 129.311 67.3745 133.319 69.3691 132.831C84.2178 131.266 87.8745 134.933 102.723 131.266C114.58 128.137 129.761 128.968 141.618 131.559C148.488 132.586 156.466 129.457 164.334 130.533C186.053 134.688 208.769 137.817 232.483 137.279C234.477 137.279 241.347 135.177 243.342 134.688C245.337 133.662 273.261 128.479 276.253 127.453C276.253 127.453 293.318 125.937 308.499 125.057C334.872 123.542 331.991 127.159 340.523 129.897C350.385 134.346 351.937 131.462 358.475 132.586C365.345 135.715 379.085 131.951 377.866 136.253C377.202 138.453 382.853 136.742 382.853 137.768C395.707 138.306 440.807 151.262 506.075 146.519C524.58 145.199 557.491 131.217 593.061 134.004V219.999H0.333984V142.462C18.6178 141.973 40.0042 137.377 55.6286 130.533Z" fill="url(#paint4_linear)"/>
    <path d="M310.252 110.899C310.12 110.286 309.682 109.892 309.113 109.673C309.638 108.535 310.033 107.265 308.937 106.828C307.272 106.215 307.36 108.229 307.447 109.498C307.053 109.542 306.702 109.673 306.396 109.848C306.045 109.673 305.738 109.542 305.431 109.454C304.38 109.148 303.328 109.323 302.32 109.279C301.181 106.871 299.822 104.639 298.42 102.406C298.508 101.925 298.464 101.443 298.113 100.874C297.587 99.9984 296.404 100.261 295.922 99.2542C296.886 98.291 297.193 96.7588 297.368 95.4455C298.201 95.3142 297.806 95.5768 298.727 94.4824C296.93 93.5631 297.587 92.1622 296.492 91.6806C295.133 91.0677 293.074 91.1115 292.548 91.7244C292.635 91.5493 292.46 91.8995 292.548 91.7244C292.153 89.0977 291.408 89.4917 290.839 89.2728C290.269 88.9664 289.173 88.5724 288.647 88.7037C287.552 88.6162 284.484 88.8788 283.082 89.5793C280.628 90.8926 281.241 92.381 280.277 94.3948C278.831 94.1322 276.947 95.4455 277.297 97.0215C277.56 98.3786 277.78 98.9039 278.656 98.9915C278.612 99.2104 278.525 99.4293 278.481 99.6482C277.297 103.676 276.859 108.71 277.692 113.219C277.21 116.065 276.29 120.311 277.911 122.325C279.226 123.989 280.847 123.595 281.811 122.369C282.293 123.201 282.381 123.244 282.775 124.076C282.644 125.608 282.6 128.235 282.6 129.198C282.644 131.956 282.819 135.371 282.425 138.041C281.636 143.426 285.01 148.679 283.082 153.801L283.126 153.933C283.126 154.108 283.126 154.327 283.17 154.502C283.958 154.852 284.747 154.896 285.536 154.808C286.193 155.158 286.851 155.334 287.464 154.896C288.691 153.976 287.377 152.532 287.158 151.35C286.895 150.168 288.078 150.124 288.034 151.35C287.859 155.29 287.508 150.387 287.508 150.255C287.683 149.511 287.64 145.921 287.727 145.177C287.99 142.988 288.165 142.463 288.253 140.23C288.341 138.129 288.341 136.859 288.341 134.714C288.341 133.401 289.173 126.834 289.173 126.834C289.874 127.753 292.942 130.468 293.599 131.299C294.432 132.306 293.38 132.087 294.257 133.094C294.914 133.839 295.791 134.583 296.404 135.415C297.237 136.64 296.974 138.041 297.193 139.486C297.543 141.631 297.061 143.513 297.5 145.746C297.719 146.928 298.464 148.504 298.376 149.642C298.288 150.824 298.201 150.824 298.157 152.006C299.252 152.838 306.658 155.29 306.308 152.488C303.854 152.225 302.408 151 302.101 148.942L308.105 113.438C309.419 113.569 310.734 112.825 310.252 110.899ZM278.963 121.143C278.262 119.873 278.349 117.203 278.349 115.758C278.349 115.321 278.349 116.196 278.349 115.758C278.787 117.466 279.182 118.21 280.102 119.611C280.584 120.311 281.066 121.143 281.548 121.931C280.584 122.807 279.708 122.456 278.963 121.143ZM296.93 124.164C295.791 121.756 295.265 120.574 296.097 117.947C296.842 115.539 297.149 113.394 297.28 110.855C297.28 110.549 297.368 110.242 297.412 109.936C298.157 111.249 298.99 112.694 299.778 113.438C300.655 114.883 301.531 114.795 303.372 114.401C304.248 114.226 306.045 114.051 307.141 113.394L301.926 144.258C301.926 144.214 301.882 144.126 301.882 144.083C301.663 142.857 302.145 141.106 302.145 139.967C302.189 137.297 302.364 133.663 301.312 131.299C300.217 128.892 298.069 126.615 296.93 124.164Z" fill="url(#paint5_linear)"/>
    <path d="M574 219.998L573.656 195.638C557.135 204.38 498.736 202.857 495.409 201.826C482.904 198.094 460.301 200.647 460.301 200.647C444.239 197.553 428.292 196.522 425.194 198.486C418.31 194.754 421.981 191.218 408.214 189.99C408.214 189.99 382.973 188.468 383.317 186.159C345.226 173.096 337.998 156.397 334.097 156.397C321.133 156.741 298.875 150.75 289.008 153.5C273.749 157.723 267.438 153.745 251.491 156.938C238.87 169.314 194.469 180.757 196.076 181.003C194.355 180.806 115.534 190.776 110.945 196.08C107.388 200.598 48.0724 204.822 0 202.366V219.998H574Z" fill="url(#paint6_linear)"/>
    <g opacity="0.8">
      <path opacity="0.05" d="M310.952 138.83C356.937 138.83 394.215 101.59 394.215 55.6524C394.215 9.71457 356.937 -27.5254 310.952 -27.5254C264.967 -27.5254 227.689 9.71457 227.689 55.6524C227.689 101.59 264.967 138.83 310.952 138.83Z" fill="url(#paint7_radial)"/>
      <path opacity="0.05" d="M349.735 63.7086C343.337 33.7646 313.845 14.6775 283.87 21.069C253.896 27.4606 234.789 56.923 241.187 86.867C247.586 116.811 277.078 135.898 307.052 129.507C336.983 123.115 356.134 93.6526 349.735 63.7086Z" fill="url(#paint8_radial)"/>
      <path opacity="0.5" d="M318.051 70.4495C315.378 57.9729 303.108 50.0053 290.619 52.6758C278.129 55.3462 270.154 67.604 272.827 80.0806C275.5 92.5573 287.77 100.525 300.259 97.8544C312.749 95.2277 320.725 82.9262 318.051 70.4495Z" fill="url(#paint9_radial)"/>
      <path opacity="0.2" d="M292.897 81.3066C292.591 79.8182 291.145 78.8988 289.655 79.2053C288.165 79.5117 287.244 80.9564 287.551 82.4448C287.858 83.9333 289.304 84.8526 290.794 84.5462C292.284 84.2397 293.204 82.7951 292.897 81.3066Z" fill="url(#paint10_radial)"/>
    </g>
    <rect y="-8" width="574" height="228" fill="url(#paint11_linear)"/>
    <rect y="-8" width="574" height="228" fill="url(#paint12_linear)"/>
    <rect y="-8" width="574" height="228" fill="url(#paint13_linear)"/>
    <rect y="-8" width="574" height="228" fill="url(#paint14_linear)"/>
  </g>
  <defs>
    <linearGradient id="paint0_linear" x1="290" y1="173.655" x2="286.251" y2="-0.00257952" gradientUnits="userSpaceOnUse">
      <stop offset="0.4606" stop-color="#F5D3B6"/>
      <stop offset="0.6061" stop-color="#F4C7D6"/>
      <stop offset="0.6962" stop-color="#EFC5D7"/>
      <stop offset="0.7966" stop-color="#E2BEDC"/>
      <stop offset="0.9015" stop-color="#CCB4E2"/>
      <stop offset="1" stop-color="#B0A6EB"/>
    </linearGradient>
    <linearGradient id="paint1_linear" x1="296.408" y1="219.98" x2="296.408" y2="84.011" gradientUnits="userSpaceOnUse">
      <stop offset="0.7152" stop-color="#ADA9BE"/>
      <stop offset="0.8459" stop-color="#ABA5B9"/>
      <stop offset="0.9913" stop-color="#A49BAC"/>
      <stop offset="1" stop-color="#A49AAB"/>
    </linearGradient>
    <linearGradient id="paint2_linear" x1="296.408" y1="219.98" x2="296.408" y2="90.6506" gradientUnits="userSpaceOnUse">
      <stop offset="0.7152" stop-color="#99A4B8"/>
      <stop offset="0.7914" stop-color="#949FB5"/>
      <stop offset="0.8763" stop-color="#8792AB"/>
      <stop offset="0.9651" stop-color="#717C9A"/>
      <stop offset="1" stop-color="#667192"/>
    </linearGradient>
    <linearGradient id="paint3_linear" x1="296.409" y1="219.981" x2="296.409" y2="100.741" gradientUnits="userSpaceOnUse">
      <stop stop-color="#91A1B6"/>
      <stop offset="0.2025" stop-color="#8C9EB4"/>
      <stop offset="0.4281" stop-color="#7F95AE"/>
      <stop offset="0.6648" stop-color="#6986A4"/>
      <stop offset="0.9077" stop-color="#4A7096"/>
      <stop offset="1" stop-color="#3C6790"/>
    </linearGradient>
    <linearGradient id="paint4_linear" x1="296.748" y1="219.981" x2="296.748" y2="124.688" gradientUnits="userSpaceOnUse">
      <stop offset="0.2242" stop-color="#6B88AE"/>
      <stop offset="0.8272" stop-color="#406386"/>
      <stop offset="1" stop-color="#33577A"/>
    </linearGradient>
    <linearGradient id="paint5_linear" x1="293.685" y1="155.238" x2="293.685" y2="88.6878" gradientUnits="userSpaceOnUse">
      <stop offset="0.2788" stop-color="#0F3B64"/>
      <stop offset="0.6096" stop-color="#225179"/>
      <stop offset="0.9576" stop-color="#3B6C94"/>
    </linearGradient>
    <linearGradient id="paint6_linear" x1="286.997" y1="323.654" x2="286.997" y2="152.697" gradientUnits="userSpaceOnUse">
      <stop offset="0.2242" stop-color="#597FA4"/>
      <stop offset="0.436" stop-color="#567BA0"/>
      <stop offset="0.6339" stop-color="#4B7095"/>
      <stop offset="0.8256" stop-color="#3A5D82"/>
      <stop offset="1" stop-color="#23456A"/>
    </linearGradient>
    <radialGradient id="paint7_radial" cx="0" cy="0" r="1" gradientUnits="userSpaceOnUse" gradientTransform="translate(310.96 55.6545) rotate(167.972) scale(83.244 83.1666)">
      <stop offset="0.1" stop-color="white"/>
      <stop offset="0.1339" stop-color="white"/>
      <stop offset="0.1816" stop-color="white"/>
      <stop offset="0.2365" stop-color="white"/>
      <stop offset="0.3006" stop-color="white"/>
      <stop offset="0.3799" stop-color="white"/>
      <stop offset="0.4912" stop-color="white"/>
      <stop offset="0.8" stop-color="white"/>
      <stop offset="1" stop-color="white"/>
    </radialGradient>
    <radialGradient id="paint8_radial" cx="0" cy="0" r="1" gradientUnits="userSpaceOnUse" gradientTransform="translate(295.452 75.2773) rotate(167.972) scale(55.4958 55.4442)">
      <stop stop-color="white"/>
      <stop offset="0.73" stop-color="white"/>
      <stop offset="1" stop-color="white"/>
    </radialGradient>
    <radialGradient id="paint9_radial" cx="0" cy="0" r="1" gradientUnits="userSpaceOnUse" gradientTransform="translate(295.452 75.2762) rotate(167.972) scale(23.1234 23.1019)">
      <stop offset="0.15" stop-color="white" stop-opacity="0.1"/>
      <stop offset="0.2824" stop-color="white" stop-opacity="0.12"/>
      <stop offset="0.4253" stop-color="white" stop-opacity="0.22"/>
      <stop offset="0.5636" stop-color="white" stop-opacity="0.27"/>
      <stop offset="0.6936" stop-color="white" stop-opacity="0.29"/>
      <stop offset="0.8134" stop-color="white" stop-opacity="0.26"/>
      <stop offset="0.9192" stop-color="white" stop-opacity="0.12"/>
    </radialGradient>
    <radialGradient id="paint10_radial" cx="0" cy="0" r="1" gradientUnits="userSpaceOnUse" gradientTransform="translate(290.223 81.8925) rotate(167.972) scale(2.7433 2.74074)">
      <stop offset="0.1" stop-color="white" stop-opacity="0"/>
      <stop offset="0.151042" stop-color="white" stop-opacity="0"/>
      <stop offset="0.3482" stop-color="white" stop-opacity="0.1"/>
      <stop offset="0.5044" stop-color="white" stop-opacity="0.17"/>
      <stop offset="0.6633" stop-color="white" stop-opacity="0.11"/>
      <stop offset="0.8264" stop-color="white" stop-opacity="0.72"/>
      <stop offset="1" stop-color="white"/>
    </radialGradient>
    <linearGradient id="paint11_linear" x1="280.019" y1="4.15228" x2="283.913" y2="79.5402" gradientUnits="userSpaceOnUse">
      <stop stop-color="white"/>
      <stop offset="0.586327" stop-color="white" stop-opacity="0.48"/>
      <stop offset="1" stop-color="white" stop-opacity="0"/>
    </linearGradient>
    <linearGradient id="paint12_linear" x1="20.5" y1="126.817" x2="295.342" y2="95.4863" gradientUnits="userSpaceOnUse">
      <stop stop-color="white"/>
      <stop offset="0.272793" stop-color="white" stop-opacity="0.87"/>
      <stop offset="1" stop-color="white" stop-opacity="0"/>
    </linearGradient>
    <linearGradient id="paint13_linear" x1="574" y1="114.101" x2="198.823" y2="128.648" gradientUnits="userSpaceOnUse">
      <stop stop-color="white"/>
      <stop offset="0.242555" stop-color="white" stop-opacity="0.87"/>
      <stop offset="1" stop-color="white" stop-opacity="0"/>
    </linearGradient>
    <linearGradient id="paint14_linear" x1="287" y1="114.68" x2="287" y2="220" gradientUnits="userSpaceOnUse">
      <stop offset="0.254378" stop-color="white" stop-opacity="0"/>
      <stop offset="0.689795" stop-color="white" stop-opacity="0.78"/>
      <stop offset="1" stop-color="white"/>
    </linearGradient>
    <clipPath id="clip0">
      <rect width="574" height="220" fill="white"/>
    </clipPath>
  </defs>
</svg>
