<svg width="16" height="16" viewBox="0 0 16 16" fill="none" xmlns="http://www.w3.org/2000/svg">
  <path d="M11.5828 9.86283C13.7423 9.27387 16 6.5254 16 2.4027C16 2.20638 15.8037 2.01007 15.6074 2.01007H13.3497V1.12663C13.2515 0.537673 12.7607 0.046875 12.1718 0.046875H3.73006C3.1411 0.046875 2.65031 0.537673 2.65031 1.12663V2.01007H0.392638C0.196319 2.01007 0 2.20638 0 2.4027C0 6.5254 2.25767 9.27387 4.41718 9.86283C5.10429 10.5499 5.88957 11.0407 6.57669 11.4334V13.1021H6.28221C5.30061 13.1021 4.51534 13.8874 4.51534 14.869V15.5561C4.51534 15.7524 4.71166 15.9487 4.90798 15.9487H10.7975C10.9939 15.9487 11.1902 15.7524 11.1902 15.5561V14.869C11.1902 13.8874 10.4049 13.1021 9.42331 13.1021H9.32515V11.4334C10.0123 11.1389 10.7975 10.5499 11.5828 9.86283ZM7.36196 13.1021V11.826C7.55828 11.9242 7.7546 12.0223 7.7546 12.0223H7.85276H7.95092C7.95092 12.0223 8.14724 11.9242 8.34356 11.826V13.1021H7.36196ZM3.43558 6.03461V2.59902C3.43558 2.59902 3.43558 2.50086 3.43558 2.4027V2.30454V1.12663C3.43558 1.02847 3.53374 0.930311 3.6319 0.930311H12.1718C12.2699 0.930311 12.3681 1.02847 12.3681 1.12663V6.03461C12.3681 9.27387 8.7362 10.8444 7.85276 11.1389C7.16564 10.8444 3.53374 9.27387 3.43558 6.03461ZM3.1411 8.19412C1.96319 7.11436 0.981595 5.24933 0.883436 2.8935H2.65031V6.03461C2.65031 6.81988 2.84663 7.60516 3.1411 8.19412ZM13.2515 6.03461V2.8935H15.0184C14.9202 5.34749 13.8405 7.31068 12.6626 8.29227C13.0552 7.60516 13.2515 6.91804 13.2515 6.03461ZM10.5031 15.0653H5.39877V14.869C5.39877 14.3782 5.79141 13.9855 6.28221 13.9855H6.96933H8.93252H9.61963C10.1104 13.9855 10.5031 14.3782 10.5031 14.869V15.0653V15.0653Z" fill="#F85454"/>
</svg>
