<svg width="40" height="40" viewBox="0 0 40 40" fill="none" xmlns="http://www.w3.org/2000/svg">
<path fill-rule="evenodd" clip-rule="evenodd" d="M39.9583 13.4166C39.9606 14.9211 39.5744 16.329 38.9746 17.7017C36.798 22.6827 34.6457 27.6741 32.4819 32.6609C32.043 33.6729 31.5979 34.6823 31.1509 35.6908C30.9269 36.1966 30.5126 36.4004 29.9911 36.2726C29.6741 36.1951 29.4862 35.9758 29.3606 35.6895C28.9891 34.8426 28.6142 33.9972 28.2462 33.1487C25.9274 27.8048 23.6081 22.4609 21.2947 17.1146C20.8852 16.1684 20.6581 15.1737 20.5858 14.1441C20.414 11.6973 21.0534 9.48272 22.5371 7.53527C24.0603 5.53577 26.0693 4.28006 28.5487 3.85037C31.5053 3.33811 34.169 4.04865 36.4794 5.96569C38.268 7.44987 39.3741 9.3628 39.7926 11.6562C39.8981 12.2347 39.9325 12.8263 39.9996 13.412L39.9583 13.4166ZM30.2556 23.1433C30.2856 23.0793 30.3026 23.0459 30.317 23.0114C31.472 20.2707 32.6304 17.5314 33.7783 14.7876C34.0633 14.1063 34.1237 13.3904 33.9723 12.6664C33.55 10.6461 31.6864 9.35541 29.6558 9.66846C27.2416 10.0408 25.8189 12.6299 26.7782 14.8898C27.7122 17.0899 28.6344 19.2951 29.562 21.4979C29.7884 22.0356 30.0151 22.5731 30.2556 23.1433Z" fill="#65676B"/>
<path d="M20.4149 4.20604C17.942 9.91381 15.4789 15.5987 13.0069 21.3037H13.2249C14.812 21.3037 16.399 21.3031 17.986 21.3041C18.5839 21.3044 19.1431 21.4422 19.6394 21.7895C20.0515 22.0778 20.3696 22.4421 20.5695 22.9117C21.0633 24.0715 21.5664 25.2271 22.0657 26.3845C22.0865 26.433 22.1051 26.4824 22.1375 26.5631H21.9135C18.2411 26.5631 14.5688 26.5642 10.8964 26.5593C10.7428 26.559 10.6714 26.6077 10.612 26.7457C9.61451 29.0604 8.62319 31.3781 7.60621 33.6843C7.0765 34.8856 6.15117 35.5975 4.8305 35.7525C4.61065 35.7782 4.38819 35.7915 4.16699 35.792C2.85076 35.7956 1.53444 35.7938 0.218406 35.7938C0.154158 35.7938 0.0901987 35.7938 0 35.7938C0.0256608 35.7226 0.04071 35.6728 0.061258 35.6255C2.25342 30.5801 4.44675 25.5353 6.63843 20.4897C8.76558 15.5928 10.8838 10.692 13.0229 5.8004C13.4594 4.80195 14.2734 4.24093 15.362 4.21344C17.0022 4.1721 18.6439 4.19782 20.285 4.19547C20.3168 4.19535 20.3487 4.20052 20.4149 4.20604Z" fill="#65676B"/>
</svg>
