<svg width="44" height="44" viewBox="0 0 44 44" fill="none" xmlns="http://www.w3.org/2000/svg">
<g filter="url(#filter0_d)">
<circle cx="22" cy="18" r="12" fill="white"/>
</g>
<g clip-path="url(#clip0)">
<path d="M24.4157 19.555C24.2412 19.555 24.0847 19.4325 24.0487 19.255C24.0072 19.052 24.1382 18.854 24.3412 18.8125C25.7067 18.5345 27.1542 16.8535 27.2822 14.25H25.6262C25.4192 14.25 25.2512 14.082 25.2512 13.875C25.2512 13.668 25.4192 13.5 25.6262 13.5H27.6662C27.8732 13.5 28.0412 13.668 28.0412 13.875C28.0412 17.1245 26.2552 19.188 24.4912 19.5475C24.4657 19.5525 24.4407 19.555 24.4157 19.555Z" fill="#C2C8C9"/>
<path d="M19.5805 19.545C19.5535 19.545 19.526 19.542 19.498 19.536C17.76 19.146 16 17.0765 16 13.875C16 13.668 16.168 13.5 16.375 13.5H18.375C18.582 13.5 18.75 13.668 18.75 13.875C18.75 14.082 18.582 14.25 18.375 14.25H16.7595C16.887 16.817 18.315 18.502 19.6625 18.804C19.8645 18.8495 19.9915 19.05 19.9465 19.252C19.907 19.4265 19.752 19.545 19.5805 19.545Z" fill="#C2C8C9"/>
<path d="M22.625 20.0548C22.418 20.0548 22.25 20.2228 22.25 20.4298H21.75C21.75 20.2228 21.582 20.0548 21.375 20.0548C21.168 20.0548 21 20.2228 21 20.4298V22.2498C21 22.4568 21.168 22.6248 21.375 22.6248H22.625C22.832 22.6248 23 22.4568 23 22.2498V20.4298C23 20.2228 22.832 20.0548 22.625 20.0548Z" fill="#C2C8C9"/>
<path d="M23.125 22H20.875C20.1165 22 19.5 22.6165 19.5 23.375V23.625C19.5 23.832 19.668 24 19.875 24H24.125C24.332 24 24.5 23.832 24.5 23.625V23.375C24.5 22.6165 23.8835 22 23.125 22Z" fill="#C2C8C9"/>
<path d="M25.125 12H18.875C18.3925 12 18 12.3925 18 12.875V16.5025C18.0215 19.7305 21.7195 21.05 21.877 21.1045C21.917 21.1185 21.9585 21.1255 22 21.1255C22.0415 21.1255 22.083 21.1185 22.1225 21.105C22.2805 21.05 26 19.73 26 16.5V12.875C26 12.3925 25.6075 12 25.125 12Z" fill="#C2C8C9"/>
</g>
<defs>
<filter id="filter0_d" x="0" y="0" width="44" height="44" filterUnits="userSpaceOnUse" color-interpolation-filters="sRGB">
<feFlood flood-opacity="0" result="BackgroundImageFix"/>
<feColorMatrix in="SourceAlpha" type="matrix" values="0 0 0 0 0 0 0 0 0 0 0 0 0 0 0 0 0 0 127 0"/>
<feOffset dy="4"/>
<feGaussianBlur stdDeviation="5"/>
<feColorMatrix type="matrix" values="0 0 0 0 0.0403125 0 0 0 0 0.154173 0 0 0 0 0.179167 0 0 0 0.15 0"/>
<feBlend mode="normal" in2="BackgroundImageFix" result="effect1_dropShadow"/>
<feBlend mode="normal" in="SourceGraphic" in2="effect1_dropShadow" result="shape"/>
</filter>
<clipPath id="clip0">
<rect width="12" height="12" fill="white" transform="translate(16 12)"/>
</clipPath>
</defs>
</svg>
