<svg width="16" height="16" viewBox="0 0 16 16" fill="none" xmlns="http://www.w3.org/2000/svg">
<path d="M8.77343 8.00003L14.8398 1.9336C15.0534 1.72002 15.0534 1.37374 14.8398 1.16019C14.6262 0.946632 14.28 0.946605 14.0664 1.16019L7.99999 7.22661L1.9336 1.16019C1.72002 0.946605 1.37374 0.946605 1.16019 1.16019C0.946632 1.37377 0.946605 1.72005 1.16019 1.9336L7.22657 8L1.16019 14.0664C0.946605 14.28 0.946605 14.6263 1.16019 14.8398C1.26696 14.9466 1.40694 15 1.54691 15C1.68688 15 1.82682 14.9466 1.93363 14.8398L7.99999 8.77345L14.0664 14.8398C14.1731 14.9466 14.3131 15 14.4531 15C14.5931 15 14.733 14.9466 14.8398 14.8398C15.0534 14.6263 15.0534 14.28 14.8398 14.0664L8.77343 8.00003Z" fill="#65676B"/>
</svg>
