<svg width="16" height="16" viewBox="0 0 16 16" fill="none" xmlns="http://www.w3.org/2000/svg">
<path d="M3.46618 5.93333H7.46618C7.72423 5.93333 7.93285 5.72419 7.93285 5.46667C7.93285 5.20914 7.72423 5 7.46618 5H3.46618C3.20813 5 2.99951 5.20914 2.99951 5.46667C2.99951 5.72419 3.20813 5.93333 3.46618 5.93333Z" fill="#65676B"/>
<path d="M12.5328 7.1333H3.46618C3.20813 7.1333 2.99951 7.34244 2.99951 7.59997C2.99951 7.85749 3.20813 8.06663 3.46618 8.06663H12.5328C12.7909 8.06663 12.9995 7.85749 12.9995 7.59997C12.9995 7.34244 12.7909 7.1333 12.5328 7.1333Z" fill="#65676B"/>
<path d="M12.5328 9.2666H3.46618C3.20812 9.2666 2.99951 9.47574 2.99951 9.73327C2.99951 9.9908 3.20812 10.1999 3.46618 10.1999H12.5328C12.7909 10.1999 12.9995 9.9908 12.9995 9.73327C12.9995 9.47574 12.7909 9.2666 12.5328 9.2666Z" fill="#65676B"/>
<path fill-rule="evenodd" clip-rule="evenodd" d="M7.99583 0C10.1337 0 12.1396 0.832135 13.6516 2.34419C15.1637 3.85624 15.9992 5.86216 15.9992 8C15.9992 10.1378 15.1671 12.1438 13.655 13.6558C12.1125 15.1983 10.0626 16 7.99245 16C6.70365 16 5.40471 15.6888 4.21739 15.0495C3.15185 15.8173 2.10999 15.9831 1.40302 15.9831C1.13917 15.9831 0.922679 15.9594 0.770459 15.9357C0.445723 15.885 0.195406 15.6313 0.144666 15.3066C0.0939261 14.9818 0.259677 14.6672 0.553968 14.5218C1.16623 14.2207 1.57892 13.6186 1.836 13.1011C-0.785567 9.94503 -0.582607 5.26681 2.34002 2.34419C3.85207 0.832135 5.85799 0 7.99583 0ZM4.40682 14.1125C7.18737 15.7463 10.7223 15.293 13.0056 13.0097C15.7692 10.2461 15.7692 5.75391 13.0022 2.99027C10.2419 0.226639 5.74636 0.226639 2.98272 2.99027C0.337478 5.63552 0.208937 9.89767 2.68505 12.6951C2.74932 12.7696 2.78653 12.8609 2.79667 12.9522C2.82035 13.0469 2.81359 13.1484 2.773 13.2465C2.5193 13.8249 2.08632 14.5691 1.39963 15.0698H1.40302C1.99837 15.0698 2.89815 14.9209 3.81486 14.2106C3.825 14.2004 3.83854 14.1903 3.85207 14.1835C3.99752 14.0381 4.22416 14.0042 4.40682 14.1125Z" fill="#65676B"/>
</svg>