<svg width="24" height="24" viewBox="0 0 24 24" fill="none" xmlns="http://www.w3.org/2000/svg">
<path fill-rule="evenodd" clip-rule="evenodd" d="M5.59245 4.40351C5.85758 4.36117 6.14437 4.33911 6.45446 4.33911C7.32853 4.33911 8.02467 4.65701 8.57583 5.06263C8.44161 4.23339 7.76672 3.64961 6.95843 3.64961C6.38636 3.64961 5.87902 3.94717 5.59245 4.40351ZM9.77691 6.25295C9.85328 5.97373 9.9001 5.67419 9.9001 5.36803C9.9001 3.70308 8.62077 2.34961 6.95843 2.34961C5.50371 2.34961 4.27731 3.41847 4.07492 4.85288C4.05684 4.91761 4.04438 4.97778 4.03579 5.03394C3.91014 5.12928 3.79413 5.23331 3.6871 5.34533C3.11689 5.9421 2.87665 6.69414 2.71488 7.26633C2.38659 8.31069 1.86783 10.338 1.43497 12.0862C1.21681 12.9673 1.01879 13.7844 0.875328 14.3812C0.855982 14.4617 0.837626 14.5381 0.820345 14.6102C0.781547 14.6934 0.744996 14.7777 0.710749 14.8632C0.472481 15.4577 0.350098 16.0942 0.350098 16.7365C0.350098 17.3787 0.472481 18.0152 0.710749 18.6097C0.94903 19.2042 1.29882 19.7458 1.74116 20.2029C2.18354 20.6601 2.70988 21.024 3.29073 21.2726C3.87162 21.5213 4.49501 21.6496 5.1251 21.6496C5.75519 21.6496 6.37858 21.5213 6.95947 21.2726C7.54031 21.024 8.06666 20.6601 8.50904 20.2029C8.95137 19.7458 9.30116 19.2042 9.53945 18.6097C9.70926 18.186 9.82021 17.741 9.86994 17.2877C10.3949 17.6069 11.0986 17.8602 12.0003 17.8602C12.9018 17.8602 13.6053 17.607 14.1303 17.2879C14.18 17.7411 14.291 18.1861 14.4607 18.6097C14.699 19.2042 15.0488 19.7458 15.4912 20.2029C15.9335 20.6601 16.4599 21.024 17.0407 21.2726C17.6216 21.5213 18.245 21.6496 18.8751 21.6496C19.5052 21.6496 20.1286 21.5213 20.7095 21.2726C21.2903 21.024 21.8167 20.6601 22.259 20.2029C22.7014 19.7458 23.0512 19.2042 23.2894 18.6097C23.5277 18.0152 23.6501 17.3787 23.6501 16.7365C23.6501 16.2184 23.5705 15.7041 23.4146 15.2126L23.3841 15.0878C23.3428 14.9191 23.2831 14.6758 23.2096 14.3776C23.0626 13.7812 22.8605 12.9646 22.6396 12.0842C22.1993 10.3289 21.6805 8.30268 21.3783 7.26977L21.3758 7.26122L21.3731 7.25274C21.1917 6.69028 20.938 5.93898 20.3708 5.34533C20.2449 5.21363 20.107 5.09279 19.9559 4.98408C19.9481 4.94252 19.9381 4.89886 19.9253 4.85289C19.7229 3.41848 18.4965 2.34961 17.0418 2.34961C15.3794 2.34961 14.1001 3.70308 14.1001 5.36803C14.1001 5.69823 14.1546 6.02074 14.2418 6.31836C14.2169 6.34832 14.1926 6.37758 14.1691 6.40593C14.1401 6.44088 14.1122 6.47445 14.0857 6.50627C13.9972 6.61237 13.9245 6.69731 13.8621 6.76471C13.3389 6.40777 12.7011 6.18648 12.0461 6.18648C11.4116 6.18648 10.7345 6.39623 10.2123 6.76708C10.1496 6.69995 10.0765 6.61459 9.98715 6.50715C9.95694 6.47082 9.9249 6.43197 9.89133 6.39128C9.85486 6.34707 9.81658 6.30068 9.77691 6.25295ZM8.40057 6.65161C8.45351 6.82049 8.57471 6.96672 8.74604 7.04653C8.79121 7.10065 8.83541 7.15422 8.87958 7.20776C8.91541 7.25119 8.95123 7.2946 8.98752 7.33825C9.11166 7.48757 9.24603 7.64541 9.38076 7.77525C9.50519 7.89515 9.69431 8.05634 9.93877 8.13117C10.2441 8.22462 10.5586 8.1613 10.8103 7.95322L10.8234 7.94241L10.8359 7.93094C11.1181 7.67163 11.5986 7.48648 12.0461 7.48648C12.4727 7.48648 12.9225 7.65823 13.276 7.94836C13.3834 8.04079 13.5194 8.11884 13.6836 8.15393C13.8538 8.1903 14.0127 8.17162 14.1464 8.12929C14.3875 8.05291 14.574 7.89024 14.6945 7.77294C14.8266 7.6444 14.9599 7.48767 15.0839 7.33914C15.1148 7.30202 15.1456 7.26495 15.1764 7.2278C15.2589 7.12837 15.3419 7.02842 15.4303 6.92581C15.4576 6.89952 15.4823 6.87103 15.5044 6.84076C16.0793 6.18849 16.7329 5.63911 17.6378 5.63911C18.2243 5.63911 18.6406 5.74013 18.9462 5.89012C18.9927 5.92472 19.0441 5.95323 19.099 5.97449C19.2317 6.05651 19.3399 6.14826 19.4309 6.24341C19.7672 6.5954 19.9488 7.07269 20.1331 7.64332C20.4272 8.65003 20.938 10.6438 21.3787 12.4006C21.3939 12.4613 21.4091 12.5218 21.4241 12.5818C21.1975 12.4346 20.9585 12.3069 20.7095 12.2003C20.1286 11.9516 19.5052 11.8233 18.8751 11.8233C18.245 11.8233 17.6216 11.9516 17.0407 12.2003C16.4599 12.4489 15.9335 12.8128 15.4912 13.27C15.0488 13.7271 14.699 14.2687 14.4607 14.8632C14.4011 15.0121 14.3486 15.1637 14.3036 15.3174C14.2738 15.352 14.2473 15.3902 14.2247 15.432L14.2237 15.4336C14.2215 15.4375 14.2164 15.4462 14.2084 15.4589C14.1924 15.4844 14.1649 15.5258 14.1252 15.578C14.0456 15.683 13.9194 15.8278 13.7419 15.9737C13.3932 16.2601 12.8363 16.5602 12.0003 16.5602C11.1642 16.5602 10.6074 16.2601 10.2587 15.9737C10.0812 15.8278 9.95502 15.683 9.87534 15.578C9.83569 15.5258 9.80818 15.4844 9.79215 15.4589C9.78416 15.4462 9.77909 15.4375 9.77685 15.4336M9.77749 15.4349L9.77685 15.4336L9.77563 15.4315M9.77563 15.4315C9.73063 15.2781 9.59905 15.0119 9.53945 14.8632C9.30117 14.2687 8.95137 13.7271 8.50904 13.27C8.06666 12.8128 7.54031 12.4489 6.95947 12.2003C6.37857 11.9516 5.75519 11.8233 5.1251 11.8233C4.49501 11.8233 3.87162 11.9516 3.29073 12.2003C3.07426 12.2929 2.86537 12.4016 2.66557 12.5251C2.67595 12.4831 2.68639 12.4409 2.69686 12.3986C3.13354 10.635 3.64422 8.64284 3.95776 7.64757L3.9607 7.63823L3.96336 7.62881C4.12239 7.0653 4.29515 6.59074 4.62702 6.24341C4.93131 5.92495 5.4452 5.63911 6.45446 5.63911C7.26946 5.63911 7.87197 6.08474 8.40057 6.65161M1.9079 15.6543L1.96993 15.393C1.99198 15.3003 2.01946 15.1851 2.05166 15.0505C2.21571 14.7273 2.42602 14.4317 2.67541 14.1739C2.99911 13.8394 3.38224 13.5752 3.80233 13.3954C4.22237 13.2155 4.67178 13.1233 5.1251 13.1233C5.57841 13.1233 6.02782 13.2155 6.44786 13.3954C6.86796 13.5752 7.25108 13.8394 7.57479 14.1739C7.89853 14.5085 8.15644 14.9069 8.33276 15.3468C8.50909 15.7868 8.6001 16.259 8.6001 16.7365C8.6001 17.2139 8.50909 17.6861 8.33276 18.1261C8.15644 18.566 7.89854 18.9644 7.57479 19.299C7.25108 19.6335 6.86796 19.8977 6.44786 20.0775C6.02782 20.2574 5.57841 20.3496 5.1251 20.3496C4.67178 20.3496 4.22237 20.2574 3.80233 20.0775C3.38224 19.8977 2.99911 19.6335 2.67541 19.299C2.35166 18.9644 2.09376 18.566 1.91744 18.1261C1.74111 17.6861 1.6501 17.2139 1.6501 16.7365C1.6501 16.4781 1.67674 16.2213 1.72913 15.9703C1.81473 15.887 1.87841 15.7791 1.9079 15.6543ZM14.2223 15.4365L14.2231 15.4349L14.2237 15.4336M22.163 15.5671C22.1386 15.4929 22.1118 15.4194 22.0828 15.3468C21.9064 14.9069 21.6485 14.5085 21.3248 14.1739C21.0011 13.8394 20.618 13.5752 20.1979 13.3954C19.7778 13.2155 19.3284 13.1233 18.8751 13.1233C18.4218 13.1233 17.9724 13.2155 17.5523 13.3954C17.1322 13.5752 16.7491 13.8394 16.4254 14.1739C16.1017 14.5085 15.8438 14.9069 15.6674 15.3468C15.4911 15.7868 15.4001 16.259 15.4001 16.7365C15.4001 17.2139 15.4911 17.6861 15.6674 18.1261C15.8438 18.566 16.1017 18.9644 16.4254 19.299C16.7491 19.6335 17.1322 19.8977 17.5523 20.0775C17.9724 20.2574 18.4218 20.3496 18.8751 20.3496C19.3284 20.3496 19.7778 20.2574 20.1979 20.0775C20.618 19.8977 21.0011 19.6335 21.3248 19.299C21.6485 18.9644 21.9064 18.566 22.0828 18.1261C22.2591 17.6861 22.3501 17.2139 22.3501 16.7365C22.3501 16.4091 22.3073 16.0843 22.2236 15.7705C22.2078 15.7351 22.195 15.6979 22.1855 15.6589L22.163 15.5671ZM18.3994 4.39044C18.163 4.35667 17.9095 4.33911 17.6378 4.33911C16.7139 4.33911 15.9844 4.69434 15.4143 5.13306C15.5208 4.26664 16.2108 3.64961 17.0418 3.64961C17.6084 3.64961 18.1114 3.94149 18.3994 4.39044ZM10.5607 12.4375C10.9387 12.0469 11.456 11.8233 12.0001 11.8233C12.5442 11.8233 13.0615 12.0469 13.4395 12.4375C13.8168 12.8274 14.0251 13.3518 14.0251 13.8943C14.0251 14.4368 13.8168 14.9613 13.4395 15.3512C13.0615 15.7418 12.5442 15.9654 12.0001 15.9654C11.456 15.9654 10.9387 15.7418 10.5607 15.3512C10.1834 14.9613 9.9751 14.4368 9.9751 13.8943C9.9751 13.3518 10.1834 12.8274 10.5607 12.4375ZM12.0001 13.1233C11.8149 13.1233 11.6327 13.1991 11.495 13.3415C11.3565 13.4846 11.2751 13.6831 11.2751 13.8943C11.2751 14.1056 11.3565 14.3041 11.495 14.4472C11.6327 14.5895 11.8149 14.6654 12.0001 14.6654C12.1853 14.6654 12.3675 14.5895 12.5052 14.4472C12.6437 14.3041 12.7251 14.1056 12.7251 13.8943C12.7251 13.6831 12.6437 13.4846 12.5052 13.3415C12.3675 13.1991 12.1853 13.1233 12.0001 13.1233Z" fill="#0C353E"/>
</svg>
