<svg width="16" height="12" viewBox="0 0 16 12" fill="none" xmlns="http://www.w3.org/2000/svg">
<path d="M8.00022 3.42505C6.57957 3.42505 5.42529 4.57933 5.42529 5.99997C5.42529 7.42062 6.57957 8.5749 8.00022 8.5749C9.42087 8.5749 10.5751 7.42062 10.5751 5.99997C10.5751 4.57933 9.42087 3.42505 8.00022 3.42505ZM7.80488 5.23637C7.48523 5.23637 7.21886 5.50275 7.21886 5.82239H6.36647C6.38423 5.02328 7.02352 4.38399 7.80488 4.38399V5.23637Z" fill="#C2C8C9"></path>
<path d="M15.8135 5.46743C14.9434 4.38419 11.8357 0.850342 8 0.850342C4.16426 0.850342 1.0566 4.38419 0.18646 5.46743C-0.0621532 5.76932 -0.0621532 6.21327 0.18646 6.53292C1.0566 7.61616 4.16426 11.15 8 11.15C11.8357 11.15 14.9434 7.61616 15.8135 6.53292C16.0622 6.23103 16.0622 5.78708 15.8135 5.46743ZM8 9.72936C5.94007 9.72936 4.27081 8.06011 4.27081 6.00018C4.27081 3.94024 5.94007 2.27099 8 2.27099C10.0599 2.27099 11.7292 3.94024 11.7292 6.00018C11.7292 8.06011 10.0599 9.72936 8 9.72936Z" fill="#C2C8C9"></path>
</svg>