<svg width="60" height="60" viewBox="0 0 60 60" fill="none" xmlns="http://www.w3.org/2000/svg">
<g filter="url(#filter0_d)">
<circle cx="30" cy="26" r="20" fill="white"/>
</g>
<path d="M25.2904 21.8244C23.9963 21.8244 22.9375 20.7656 22.9375 19.5107C22.9375 18.2166 23.9963 17.197 25.2904 17.197C26.5845 17.197 27.6433 18.2558 27.6433 19.5107C27.6433 20.7656 26.5845 21.8244 25.2904 21.8244ZM25.2904 18.3343C24.6238 18.3343 24.114 18.8441 24.114 19.4715C24.114 20.099 24.6238 20.6088 25.2904 20.6088C25.9571 20.6088 26.4669 20.099 26.4669 19.4715C26.4669 18.8441 25.9571 18.3343 25.2904 18.3343Z" fill="#0C353E"/>
<path d="M23.5294 20.0214H20.5882C20.2745 20.0214 20 19.7469 20 19.4332C20 19.1195 20.2745 18.845 20.5882 18.845H23.5294C23.8431 18.845 24.1176 19.1195 24.1176 19.4332C24.1176 19.7469 23.8431 20.0214 23.5294 20.0214Z" fill="#0C353E"/>
<path d="M39.4098 20.0214H27.057C26.7433 20.0214 26.4688 19.7469 26.4688 19.4332C26.4688 19.1195 26.7433 18.845 27.057 18.845H39.4098C39.7236 18.845 39.9981 19.1195 39.9981 19.4332C39.9981 19.7469 39.7236 20.0214 39.4098 20.0214Z" fill="#0C353E"/>
<path d="M35.8842 28.2942C34.5901 28.2942 33.5312 27.2353 33.5312 25.9805C33.5312 24.6863 34.5901 23.6667 35.8842 23.6667C37.1783 23.6667 38.2371 24.7256 38.2371 25.9805C38.2371 27.2746 37.1783 28.2942 35.8842 28.2942ZM35.8842 24.8432C35.2175 24.8432 34.7077 25.353 34.7077 25.9805C34.7077 26.6079 35.2175 27.1177 35.8842 27.1177C36.5508 27.1177 37.0606 26.6079 37.0606 25.9805C37.0606 25.353 36.5508 24.8432 35.8842 24.8432Z" fill="#0C353E"/>
<path d="M34.1175 26.5302H20.5882C20.2745 26.5302 20 26.2557 20 25.942C20 25.6283 20.2745 25.3538 20.5882 25.3538H34.1175C34.4313 25.3538 34.7058 25.6283 34.7058 25.942C34.7058 26.2557 34.4313 26.5302 34.1175 26.5302Z" fill="#0C353E"/>
<path d="M39.4115 26.5295H37.6468C37.3331 26.5295 37.0586 26.255 37.0586 25.9413C37.0586 25.6275 37.3331 25.353 37.6468 25.353H39.4115C39.7252 25.353 39.9997 25.6275 39.9997 25.9413C39.9997 26.255 39.7252 26.5295 39.4115 26.5295Z" fill="#0C353E"/>
<path d="M28.392 34.803C27.0979 34.803 26.0391 33.7441 26.0391 32.4892C26.0391 31.2344 27.0979 30.1755 28.392 30.1755C29.6861 30.1755 30.7449 31.2344 30.7449 32.4892C30.7449 33.7441 29.6861 34.803 28.392 34.803ZM28.392 31.352C27.7253 31.352 27.2155 31.8618 27.2155 32.4892C27.2155 33.1167 27.7253 33.6265 28.392 33.6265C29.0586 33.6265 29.5684 33.1167 29.5684 32.4892C29.5684 31.8618 29.0194 31.352 28.392 31.352Z" fill="#0C353E"/>
<path d="M26.6274 33.0415H20.5882C20.2745 33.0415 20 32.7669 20 32.4532C20 32.1395 20.2745 31.865 20.5882 31.865H26.6274C26.9411 31.865 27.2156 32.1395 27.2156 32.4532C27.2156 32.7669 26.9411 33.0415 26.6274 33.0415Z" fill="#0C353E"/>
<path d="M39.4095 33.0415H30.1546C29.8409 33.0415 29.5664 32.7669 29.5664 32.4532C29.5664 32.1395 29.8409 31.865 30.1546 31.865H39.4095C39.7232 31.865 39.9977 32.1395 39.9977 32.4532C39.9977 32.7669 39.7232 33.0415 39.4095 33.0415Z" fill="#0C353E"/>
<defs>
<filter id="filter0_d" x="0" y="0" width="60" height="60" filterUnits="userSpaceOnUse" color-interpolation-filters="sRGB">
<feFlood flood-opacity="0" result="BackgroundImageFix"/>
<feColorMatrix in="SourceAlpha" type="matrix" values="0 0 0 0 0 0 0 0 0 0 0 0 0 0 0 0 0 0 127 0"/>
<feOffset dy="4"/>
<feGaussianBlur stdDeviation="5"/>
<feColorMatrix type="matrix" values="0 0 0 0 0.0403125 0 0 0 0 0.154173 0 0 0 0 0.179167 0 0 0 0.15 0"/>
<feBlend mode="normal" in2="BackgroundImageFix" result="effect1_dropShadow"/>
<feBlend mode="normal" in="SourceGraphic" in2="effect1_dropShadow" result="shape"/>
</filter>
</defs>
</svg>
