<svg width="16" height="16" viewBox="0 0 16 16" fill="none" xmlns="http://www.w3.org/2000/svg">
<path d="M14.6576 8.77119C14.2871 8.40067 13.7574 8.34096 13.1257 8.64908L9.80206 10.493C9.68711 10.5569 9.53664 10.5124 9.47394 10.3987C9.44289 10.3425 9.43512 10.2774 9.45304 10.2156C9.47095 10.1538 9.51126 10.1028 9.56769 10.0717L10.7127 9.43699V2.52077C10.7127 1.9541 10.2517 1.49282 9.68502 1.49282C9.11865 1.49282 8.65767 1.9538 8.65767 2.52077V7.64949C8.65767 7.78265 8.54959 7.89102 8.41613 7.89102C8.28327 7.89102 8.17489 7.78295 8.17489 7.64949V1.02736C8.17489 0.460982 7.71391 0 7.14723 0C6.58056 0 6.11958 0.460683 6.11958 1.02736V7.64949C6.11958 7.78265 6.0115 7.89102 5.87834 7.89102C5.74518 7.89102 5.6371 7.78295 5.6371 7.64949V2.22161C5.6371 1.65523 5.17612 1.19425 4.60945 1.19425C4.04277 1.19425 3.58179 1.65494 3.58179 2.22161V7.64949C3.58179 7.78265 3.47371 7.89102 3.34055 7.89102C3.2074 7.89102 3.09932 7.78295 3.09932 7.64949V4.01358C3.09932 3.44691 2.63833 2.98563 2.07166 2.98563C1.50499 2.98563 1.04401 3.44661 1.04401 4.01358V10.2452C1.04401 13.4186 3.62538 16 6.79851 16C8.24117 16 9.6692 15.3673 10.8237 14.2146L14.6504 10.2327C15.055 9.82721 15.0583 9.17186 14.6576 8.77119Z" fill="#F85454"/>
</svg>
