<svg width="16" height="16" viewBox="0 0 16 16" fill="none" xmlns="http://www.w3.org/2000/svg">
<path d="M14.5682 8.20006C14.0025 7.63346 13.2008 7.54044 12.3696 7.94573L11.182 8.52539V3.00845C11.182 2.09966 10.4429 1.36006 9.53412 1.36006C9.29475 1.36006 9.0679 1.41228 8.86253 1.5045C8.78936 0.662892 8.08213 0 7.22202 0C6.44951 0 5.80131 0.534775 5.62396 1.25289C5.40771 1.14816 5.16589 1.08805 4.90992 1.08805C4.00141 1.08805 3.26181 1.8271 3.26181 2.73589V2.86102C3.05834 2.77125 2.8342 2.72012 2.59783 2.72012C1.68931 2.72012 0.949707 3.45972 0.949707 4.36851V10.0457C0.949707 13.3288 3.62086 16 6.90431 16C8.49368 16 9.98784 15.3814 11.1123 14.2575C11.1145 14.2553 14.5653 10.5339 14.5682 10.5312C15.2107 9.88817 15.2107 8.84283 14.5682 8.20006ZM13.8888 9.81908L10.4124 13.566C9.47455 14.5012 8.22901 15.0167 6.90459 15.0167C4.1638 15.0167 1.93412 12.7867 1.93412 10.0459V4.36851C1.93412 4.00184 2.23197 3.70371 2.5981 3.70371C2.96423 3.70371 3.26208 4.00211 3.26208 4.36851V8.4971C3.26208 8.76857 3.48268 8.9889 3.75415 8.9889C4.02561 8.9889 4.24622 8.76857 4.24622 8.4971V2.73589C4.24622 2.36949 4.54407 2.07164 4.9102 2.07164C5.27632 2.07164 5.57418 2.36977 5.57418 2.73589V8.4971C5.57418 8.76857 5.79478 8.9889 6.06625 8.9889C6.33771 8.9889 6.55832 8.76857 6.55832 8.4971V1.64785C6.55832 1.28145 6.85617 0.983594 7.2223 0.983594C7.58842 0.983594 7.88628 1.28172 7.88628 1.64785V8.4971C7.88628 8.76857 8.10688 8.9889 8.37835 8.9889C8.64981 8.9889 8.87014 8.76857 8.87014 8.4971V3.00845C8.87014 2.64178 9.16827 2.34365 9.5344 2.34365C9.90052 2.34365 10.1986 2.64205 10.1986 3.00845V9.33898V9.33979V10.3087C10.1986 10.5802 10.419 10.8005 10.6904 10.8005C10.9619 10.8005 11.1822 10.5802 11.1822 10.3087V9.62024L12.801 8.82977C13.1094 8.67962 13.5463 8.56864 13.8724 8.89533C14.126 9.14911 14.1317 9.55849 13.8888 9.81908Z" fill="#65676B"/>
</svg>