<svg width="16" height="16" viewBox="0 0 16 16" fill="none" xmlns="http://www.w3.org/2000/svg">
<path d="M0.0496773 14.2739C0.0496773 15.1998 0.803446 15.9504 1.72616 15.9504H14.2738C15.1998 15.9504 15.9503 15.1966 15.9503 14.2739V1.72622C15.9503 0.800258 15.1965 0.049738 14.2738 0.049738H1.72616C0.800197 0.049738 0.0496773 0.803507 0.0496773 1.72622V14.2739ZM14.2738 15.1544H1.72616C1.24206 15.1544 0.845683 14.758 0.845683 14.2739V12.1783L3.86076 9.16319L6.43722 11.7397C6.59317 11.8956 6.84334 11.8956 6.99929 11.7397L11.6519 7.08708L15.1543 10.5895V14.2739C15.1543 14.758 14.7579 15.1544 14.2738 15.1544ZM1.72616 0.845744H14.2738C14.7579 0.845744 15.1543 1.24212 15.1543 1.72622V9.4621L11.9313 6.24234C11.7753 6.08639 11.5252 6.08639 11.3692 6.24234L6.71663 10.8949L4.14017 8.31845C3.98422 8.1625 3.73405 8.1625 3.57809 8.31845L0.845683 11.0509V1.72622C0.845683 1.24212 1.24206 0.845744 1.72616 0.845744Z" fill="#65676B"/>
<path fill-rule="evenodd" clip-rule="evenodd" d="M1.72617 16C0.776078 16 0 15.2273 0 14.2738V1.72617C0 0.776078 0.772704 0 1.72617 0H14.2738C15.2239 0 16 0.772704 16 1.72617V14.2738C16 15.2239 15.2273 16 14.2738 16H1.72617ZM1.72617 15.1046H14.2738C14.7305 15.1046 15.1046 14.7305 15.1046 14.2738V10.61L11.6519 7.1573L7.03444 11.7747C6.85909 11.9501 6.57745 11.9501 6.40209 11.7747L3.86077 9.23341L0.895385 12.1988V14.2738C0.895385 14.7305 1.26952 15.1046 1.72617 15.1046ZM0.845683 12.1783L3.86076 9.16319L6.43722 11.7397C6.59317 11.8956 6.84334 11.8956 6.99929 11.7397L11.6519 7.08708L15.1543 10.5895V14.2739C15.1543 14.758 14.7579 15.1544 14.2738 15.1544H1.72616C1.24206 15.1544 0.845683 14.758 0.845683 14.2739V12.1783ZM14.2738 0.895385H1.72617C1.26952 0.895385 0.895385 1.26952 0.895385 1.72617V10.9309L3.54297 8.28327C3.71833 8.10791 3.99996 8.10791 4.17532 8.28327L6.71664 10.8246L11.3341 6.20715C11.5094 6.0318 11.7911 6.0318 11.9664 6.20714C11.9664 6.20714 11.9664 6.20713 11.9664 6.20714L15.1046 9.34218V1.72617C15.1046 1.26952 14.7305 0.895385 14.2738 0.895385ZM15.1543 1.72622C15.1543 1.24212 14.7579 0.845744 14.2738 0.845744H1.72616C1.24206 0.845744 0.845683 1.24212 0.845683 1.72622V11.0509L3.57809 8.31845C3.73405 8.1625 3.98422 8.1625 4.14017 8.31845L6.71663 10.8949L11.3692 6.24234C11.5252 6.08639 11.7753 6.08639 11.9313 6.24234L15.1543 9.4621V1.72622ZM1.72616 15.9504C0.803446 15.9504 0.0496773 15.1998 0.0496773 14.2739V1.72622C0.0496773 0.803507 0.800197 0.049738 1.72616 0.049738H14.2738C15.1965 0.049738 15.9503 0.800258 15.9503 1.72622V14.2739C15.9503 15.1966 15.1998 15.9504 14.2738 15.9504H1.72616Z" fill="#65676B"/>
<path d="M4.97839 6.421C6.09604 6.421 7.00252 5.51128 7.00252 4.39687C7.00252 3.28246 6.0928 2.37274 4.97839 2.37274C3.86398 2.37274 2.95425 3.28246 2.95425 4.39687C2.95425 5.51128 3.86073 6.421 4.97839 6.421ZM4.97839 3.16875C5.65743 3.16875 6.20651 3.72108 6.20651 4.39687C6.20651 5.07267 5.65418 5.625 4.97839 5.625C4.30259 5.625 3.75026 5.07267 3.75026 4.39687C3.75026 3.72108 4.29934 3.16875 4.97839 3.16875Z" fill="#65676B"/>
<path fill-rule="evenodd" clip-rule="evenodd" d="M7.05222 4.39682C7.05222 5.53862 6.12355 6.47064 4.9784 6.47064C3.83324 6.47064 2.90458 5.53862 2.90458 4.39682C2.90458 3.25497 3.83654 2.32301 4.9784 2.32301C6.12025 2.32301 7.05222 3.25497 7.05222 4.39682ZM6.15683 4.39682C6.15683 3.74839 5.62991 3.21839 4.9784 3.21839C4.32688 3.21839 3.79996 3.74839 3.79996 4.39682C3.79996 5.04517 4.33005 5.57526 4.9784 5.57526C5.62675 5.57526 6.15683 5.04517 6.15683 4.39682ZM7.00252 4.39687C7.00252 5.51128 6.09604 6.421 4.97839 6.421C3.86073 6.421 2.95425 5.51128 2.95425 4.39687C2.95425 3.28246 3.86398 2.37274 4.97839 2.37274C6.0928 2.37274 7.00252 3.28246 7.00252 4.39687ZM6.20651 4.39687C6.20651 3.72108 5.65743 3.16875 4.97839 3.16875C4.29934 3.16875 3.75026 3.72108 3.75026 4.39687C3.75026 5.07267 4.30259 5.625 4.97839 5.625C5.65418 5.625 6.20651 5.07267 6.20651 4.39687Z" fill="#65676B"/>
</svg>
