<svg width="70" height="58" viewBox="0 0 70 58" fill="none" xmlns="http://www.w3.org/2000/svg">
<path fill-rule="evenodd" clip-rule="evenodd" d="M69.9261 17.4799C69.9301 20.1128 69.2542 22.5765 68.2046 24.9787C64.3955 33.6955 60.6289 42.4306 56.8424 51.1574C56.0743 52.9283 55.2953 54.6948 54.513 56.4597C54.121 57.3449 53.3961 57.7015 52.4835 57.4779C51.9287 57.3422 51.5999 56.9585 51.3801 56.4575C50.7299 54.9754 50.0739 53.4959 49.4298 52.0111C45.372 42.6592 41.3133 33.3074 37.2648 23.9513C36.5481 22.2955 36.1507 20.5548 36.0243 18.753C35.7236 14.4711 36.8425 10.5956 39.439 7.18753C42.1045 3.68841 45.6202 1.49091 49.9593 0.738948C55.1333 -0.157497 59.7948 1.08595 63.838 4.44076C66.968 7.03808 68.9037 10.3857 69.636 14.3992C69.8207 15.4116 69.8808 16.4468 69.9983 17.4717L69.9261 17.4799ZM52.9463 34.5015C52.9988 34.3895 53.0285 34.3311 53.0538 34.2707C55.075 29.4745 57.1022 24.6807 59.1111 19.8791C59.6098 18.6868 59.7155 17.4339 59.4506 16.167C58.7115 12.6315 55.4502 10.3728 51.8967 10.9206C47.6718 11.5723 45.182 16.1031 46.8608 20.058C48.4953 23.9082 50.1092 27.7673 51.7325 31.6222C52.1287 32.5631 52.5254 33.5037 52.9463 34.5015Z" fill="#0C353E"/>
<path d="M35.7261 1.36063C31.3985 11.3492 27.088 21.2977 22.7622 31.2816H23.1435C25.921 31.2816 28.6982 31.2806 31.4755 31.2822C32.5219 31.2828 33.5004 31.524 34.3689 32.1316C35.0901 32.6363 35.6468 33.2737 35.9965 34.0956C36.8607 36.1251 37.7411 38.1475 38.615 40.1729C38.6514 40.2578 38.6838 40.3443 38.7406 40.4856H38.3486C31.9219 40.4856 25.4954 40.4874 19.0687 40.4788C18.7999 40.4784 18.675 40.5635 18.571 40.805C16.8254 44.8559 15.0906 48.9116 13.3109 52.9475C12.3839 55.0498 10.7645 56.2957 8.45338 56.5669C8.06864 56.6119 7.67934 56.6351 7.29223 56.6361C4.98883 56.6423 2.68527 56.6392 0.382211 56.6392C0.269776 56.6392 0.157848 56.6392 0 56.6392C0.0449064 56.5147 0.0712425 56.4275 0.107201 56.3447C3.94349 47.5153 7.78181 38.6869 11.6173 29.857C15.3398 21.2875 19.0466 12.7111 22.79 4.15076C23.5539 2.40347 24.9784 1.42168 26.8836 1.37358C29.7539 1.30123 32.6269 1.34625 35.4987 1.34213C35.5544 1.34192 35.6103 1.35097 35.7261 1.36063Z" fill="#0C353E"/>
</svg>
