<svg width="16" height="16" viewBox="0 0 16 16" fill="none" xmlns="http://www.w3.org/2000/svg">
<path fill-rule="evenodd" clip-rule="evenodd" d="M15.983 5.36751C15.984 5.96931 15.8295 6.53245 15.5896 7.08152C14.7189 9.07393 13.858 11.0705 12.9925 13.0652C12.8169 13.47 12.6389 13.8738 12.4601 14.2772C12.3705 14.4795 12.2048 14.561 11.9962 14.5099C11.8694 14.4789 11.7942 14.3912 11.7439 14.2767C11.5953 13.9379 11.4454 13.5997 11.2982 13.2604C10.3707 11.1228 9.44296 8.98522 8.51759 6.84669C8.35378 6.46821 8.26295 6.07033 8.23405 5.6585C8.16532 4.67978 8.42108 3.79394 9.01456 3.01496C9.62382 2.21516 10.4274 1.71288 11.4192 1.541C12.6018 1.3361 13.6673 1.62032 14.5915 2.38713C15.3069 2.9808 15.7493 3.74597 15.9167 4.66333C15.959 4.89474 15.9727 5.13136 15.9995 5.36563L15.983 5.36751ZM12.1021 9.2581C12.1141 9.2325 12.1209 9.21915 12.1267 9.20534C12.5887 8.10906 13.0521 7.01334 13.5112 5.91584C13.6252 5.64332 13.6494 5.35694 13.5888 5.06736C13.4199 4.25924 12.6745 3.74296 11.8622 3.86818C10.8965 4.01712 10.3275 5.05275 10.7112 5.95672C11.0848 6.83676 11.4537 7.71884 11.8247 8.59997C11.9153 8.81503 12.0059 9.03003 12.1021 9.2581Z" fill="#0C353E"></path>
<path d="M8.16596 1.68427C7.17681 3.96738 6.19155 6.24132 5.20278 8.52335H5.28995C5.92479 8.52335 6.5596 8.52312 7.1944 8.52349C7.43357 8.52363 7.65722 8.57875 7.85576 8.71764C8.02061 8.83299 8.14783 8.97869 8.22778 9.16655C8.42531 9.63044 8.62655 10.0927 8.82628 10.5556C8.83461 10.5751 8.84202 10.5948 8.85499 10.6271H8.76539C7.29643 10.6271 5.82751 10.6275 4.35856 10.6256C4.29712 10.6255 4.26857 10.6449 4.2448 10.7001C3.8458 11.626 3.44928 12.5531 3.04248 13.4756C2.8306 13.9561 2.46047 14.2409 1.9322 14.3028C1.84426 14.3131 1.75528 14.3184 1.6668 14.3187C1.1403 14.3201 0.613776 14.3194 0.0873625 14.3194C0.0616631 14.3194 0.0360795 14.3194 0 14.3194C0.0102643 14.2909 0.016284 14.271 0.0245032 14.2521C0.90137 12.2339 1.7787 10.216 2.65537 8.19774C3.50623 6.23897 4.3535 4.27866 5.20914 2.32202C5.38375 1.92263 5.70936 1.69823 6.14482 1.68723C6.80089 1.67069 7.45757 1.68098 8.11399 1.68004C8.12672 1.68 8.13949 1.68206 8.16596 1.68427Z" fill="#0C353E"></path>
</svg>