<svg width="378" height="20" viewBox="0 0 378 20" fill="none" xmlns="http://www.w3.org/2000/svg">
  <path d="M183.592 14.192C186.856 14.192 189.416 11.68 189.416 8.352C189.416 5.024 186.856 2.512 183.592 2.512C180.328 2.512 177.768 5.024 177.768 8.352C177.768 11.68 180.328 14.192 183.592 14.192ZM183.592 4.064C185.896 4.064 187.784 5.888 187.784 8.352C187.784 10.816 185.896 12.64 183.592 12.64C181.288 12.64 179.4 10.816 179.4 8.352C179.4 5.888 181.288 4.064 183.592 4.064ZM193.044 14V9.52H195.444L197.62 14H199.428L197.108 9.376C198.516 8.88 199.524 7.76 199.524 6.144C199.524 4.096 197.94 2.704 195.988 2.704H191.46V14H193.044ZM193.044 4.144H195.828C196.884 4.144 197.876 4.896 197.876 6.096C197.876 7.408 196.884 8.176 195.828 8.176H193.044V4.144Z" fill="#0C353E"/>
  <line y1="9.75" x2="156" y2="9.75" stroke="#0C353E" stroke-width="0.5"/>
  <line x1="222" y1="9.75" x2="378" y2="9.75001" stroke="#0C353E" stroke-width="0.5"/>
</svg>
