<svg width="16" height="18" viewBox="0 0 16 18" fill="none" xmlns="http://www.w3.org/2000/svg">
  <path fill-rule="evenodd" clip-rule="evenodd" d="M12.7478 5.77117C12.7489 6.50911 12.5594 7.19964 12.2653 7.87293C11.1977 10.3161 10.142 12.7643 9.08069 15.2103C8.8654 15.7066 8.64708 16.2017 8.42781 16.6964C8.31794 16.9445 8.11476 17.0445 7.85897 16.9818C7.70348 16.9438 7.61131 16.8362 7.5497 16.6958C7.36748 16.2804 7.18361 15.8657 7.0031 15.4495C5.86578 12.8284 4.72819 10.2073 3.59347 7.58497C3.39261 7.12088 3.28123 6.63298 3.24579 6.12798C3.16152 4.92785 3.47513 3.84162 4.20287 2.88642C4.94996 1.90569 5.93534 1.28978 7.15148 1.07902C8.60166 0.82776 9.90817 1.17627 11.0414 2.11656C11.9187 2.84453 12.4612 3.7828 12.6665 4.90769C12.7182 5.19144 12.7351 5.4816 12.768 5.76887L12.7478 5.77117ZM7.98853 10.5419C8.00325 10.5105 8.01158 10.4942 8.01867 10.4772C8.58515 9.13293 9.15334 7.78934 9.71641 6.44356C9.85618 6.10938 9.88581 5.75822 9.81156 5.40313C9.60441 4.4122 8.69034 3.77913 7.69436 3.93267C6.51021 4.11531 5.81237 5.38521 6.28289 6.49368C6.74102 7.57282 7.19337 8.65444 7.64832 9.7349C7.75938 9.99861 7.87057 10.2623 7.98853 10.5419Z" fill="white"/>
  <path d="M12.7478 5.77117L12.7308 5.62213L12.5976 5.6373L12.5978 5.7714L12.7478 5.77117ZM12.2653 7.87293L12.4027 7.93299L12.4027 7.93298L12.2653 7.87293ZM9.08069 15.2103L8.94309 15.1506L8.94308 15.1506L9.08069 15.2103ZM8.42781 16.6964L8.29068 16.6356L8.29066 16.6357L8.42781 16.6964ZM7.85897 16.9818L7.89467 16.8361L7.8946 16.8361L7.85897 16.9818ZM7.5497 16.6958L7.41234 16.756L7.41234 16.756L7.5497 16.6958ZM7.0031 15.4495L7.14071 15.3899L7.1407 15.3898L7.0031 15.4495ZM3.59347 7.58497L3.73114 7.5254L3.73113 7.52539L3.59347 7.58497ZM3.24579 6.12798L3.39542 6.11748L3.39542 6.11748L3.24579 6.12798ZM4.20287 2.88642L4.32219 2.97732L4.32219 2.97732L4.20287 2.88642ZM7.15148 1.07902L7.12587 0.931217L7.12587 0.931219L7.15148 1.07902ZM11.0414 2.11656L11.1372 2.00113L11.1372 2.00112L11.0414 2.11656ZM12.6665 4.90769L12.814 4.88077L12.814 4.88076L12.6665 4.90769ZM12.768 5.76887L12.785 5.9179L12.9341 5.90093L12.917 5.75178L12.768 5.76887ZM7.98853 10.5419L7.85032 10.6002L7.98131 10.9108L8.12435 10.6056L7.98853 10.5419ZM8.01867 10.4772L7.88045 10.419L7.88033 10.4193L8.01867 10.4772ZM9.71641 6.44356L9.85479 6.50145L9.85479 6.50144L9.71641 6.44356ZM9.81156 5.40313L9.66474 5.43383L9.66474 5.43383L9.81156 5.40313ZM7.69436 3.93267L7.67151 3.78442L7.6715 3.78442L7.69436 3.93267ZM6.28289 6.49368L6.14482 6.55229L6.14482 6.5523L6.28289 6.49368ZM7.64832 9.7349L7.51008 9.79311L7.51008 9.79312L7.64832 9.7349ZM12.5978 5.7714C12.5989 6.48273 12.4164 7.15237 12.1278 7.81287L12.4027 7.93298C12.7025 7.24691 12.8989 6.53548 12.8978 5.77094L12.5978 5.7714ZM12.1278 7.81287C11.0601 10.2562 10.0042 12.705 8.94309 15.1506L9.2183 15.27C10.2798 12.8236 11.3352 10.3759 12.4027 7.93299L12.1278 7.81287ZM8.94308 15.1506C8.72802 15.6464 8.50988 16.1411 8.29068 16.6356L8.56495 16.7572C8.78428 16.2624 9.00278 15.7668 9.21831 15.27L8.94308 15.1506ZM8.29066 16.6357C8.24666 16.735 8.19 16.792 8.13112 16.8214C8.07248 16.8507 7.99527 16.8607 7.89467 16.8361L7.82327 17.1275C7.97846 17.1655 8.13074 17.1569 8.2651 17.0898C8.39923 17.0229 8.4991 16.9059 8.56496 16.7571L8.29066 16.6357ZM7.8946 16.8361C7.79983 16.8129 7.73733 16.7501 7.68706 16.6355L7.41234 16.756C7.48529 16.9223 7.60714 17.0746 7.82333 17.1275L7.8946 16.8361ZM7.68707 16.6355C7.50451 16.2193 7.32108 15.8057 7.14071 15.3899L6.86548 15.5092C7.04614 15.9257 7.23046 16.3414 7.41234 16.756L7.68707 16.6355ZM7.1407 15.3898C6.00338 12.7687 4.86581 10.1476 3.73114 7.5254L3.45581 7.64454C4.59056 10.2669 5.72819 12.8881 6.86549 15.5093L7.1407 15.3898ZM3.73113 7.52539C3.5376 7.07822 3.42978 6.60711 3.39542 6.11748L3.09616 6.13848C3.13268 6.65886 3.24763 7.16353 3.45581 7.64455L3.73113 7.52539ZM3.39542 6.11748C3.31363 4.95266 3.61717 3.90271 4.32219 2.97732L4.08355 2.79552C3.3331 3.78054 3.00941 4.90304 3.09616 6.13849L3.39542 6.11748ZM4.32219 2.97732C5.04718 2.02559 5.99959 1.43088 7.1771 1.22681L7.12587 0.931219C5.87109 1.14868 4.85274 1.78578 4.08355 2.79552L4.32219 2.97732ZM7.17709 1.22681C8.58398 0.983057 9.84615 1.31972 10.9456 2.232L11.1372 2.00112C9.9702 1.03283 8.61933 0.672464 7.12587 0.931217L7.17709 1.22681ZM10.9456 2.23199C11.7953 2.93708 12.3199 3.8438 12.5189 4.93462L12.814 4.88076C12.6026 3.7218 12.042 2.75199 11.1372 2.00113L10.9456 2.23199ZM12.5189 4.93461C12.5696 5.21224 12.5847 5.48704 12.619 5.78595L12.917 5.75178C12.8854 5.47615 12.8669 5.17064 12.814 4.88077L12.5189 4.93461ZM12.7511 5.61983L12.7308 5.62213L12.7647 5.92021L12.785 5.9179L12.7511 5.61983ZM8.12435 10.6056C8.13645 10.5798 8.14836 10.5559 8.15702 10.5352L7.88033 10.4193C7.87479 10.4325 7.87005 10.4413 7.85271 10.4783L8.12435 10.6056ZM8.1569 10.5355C8.72328 9.19141 9.29162 7.84747 9.85479 6.50145L9.57803 6.38566C9.01506 7.73121 8.44702 9.07445 7.88045 10.419L8.1569 10.5355ZM9.85479 6.50144C10.0067 6.1382 10.0386 5.75606 9.95839 5.37243L9.66474 5.43383C9.73301 5.76037 9.70565 6.08057 9.57803 6.38567L9.85479 6.50144ZM9.95839 5.37244C9.73496 4.30366 8.74651 3.61869 7.67151 3.78442L7.71722 4.08092C8.63417 3.93956 9.47386 4.52075 9.66474 5.43383L9.95839 5.37244ZM7.6715 3.78442C6.38912 3.98221 5.63671 5.35526 6.14482 6.55229L6.42097 6.43507C5.98804 5.41517 6.63129 4.24841 7.71723 4.08092L7.6715 3.78442ZM6.14482 6.5523C6.60284 7.63118 7.05493 8.71218 7.51008 9.79311L7.78657 9.67669C7.33181 8.59669 6.8792 7.51446 6.42097 6.43507L6.14482 6.5523ZM7.51008 9.79312C7.62115 10.0569 7.73236 10.3206 7.85032 10.6002L8.12674 10.4836C8.00878 10.204 7.8976 9.94035 7.78656 9.67668L7.51008 9.79312Z" fill="#0C353E"/>
</svg>
