<svg width="16" height="16" viewBox="0 0 16 16" fill="none" xmlns="http://www.w3.org/2000/svg">
<path fill-rule="evenodd" clip-rule="evenodd" d="M13.1472 11.8719L14.2679 12.9927H0.507317C0.227134 12.9927 0 13.2198 0 13.5C0 13.7802 0.227134 14.0073 0.507317 14.0073H14.2679L13.1472 15.128C12.949 15.3262 12.949 15.6474 13.1472 15.8455C13.3453 16.0436 13.6665 16.0436 13.8646 15.8455L15.8514 13.8587C16.0495 13.6606 16.0495 13.3394 15.8514 13.1412L13.8646 11.1544C13.6665 10.9563 13.3453 10.9563 13.1472 11.1544C12.949 11.3526 12.949 11.6738 13.1472 11.8719ZM13.2458 11.3403C13.2569 11.3238 13.2698 11.3082 13.2844 11.2936C13.4063 11.1716 13.604 11.1716 13.7259 11.2936L15.7127 13.2804C15.8197 13.3873 15.8328 13.5527 15.752 13.6739C15.8336 13.5526 15.8208 13.3865 15.7134 13.2792L13.7266 11.2924C13.6047 11.1705 13.4071 11.1705 13.2851 11.2924C13.2702 11.3074 13.2571 11.3234 13.2458 11.3403ZM13.2458 15.3139C13.2569 15.2974 13.2698 15.2818 13.2844 15.2672L14.7382 13.8133L13.2851 15.266C13.2702 15.2809 13.2571 15.297 13.2458 15.3139ZM0.247012 13.3276C0.303028 13.244 0.398365 13.1889 0.506555 13.1889H14.7382L14.7371 13.1878H0.507317C0.398634 13.1878 0.302923 13.2433 0.247012 13.3276Z" fill="#0C353E"/>
<path fill-rule="evenodd" clip-rule="evenodd" d="M0.14859 2.14125C-0.0495299 2.33937 -0.0495299 2.66058 0.14859 2.8587L2.13539 4.8455C2.33351 5.04362 2.65472 5.04362 2.85284 4.8455C3.05096 4.64738 3.05096 4.32616 2.85284 4.12804L1.73209 3.00729H15.4927C15.7729 3.00729 16 2.78016 16 2.49997C16 2.21979 15.7729 1.99266 15.4927 1.99266H1.73209L2.85284 0.871904C3.05096 0.673784 3.05096 0.352569 2.85284 0.154449C2.65472 -0.0436705 2.33351 -0.0436705 2.13539 0.154449L0.14859 2.14125ZM2.75341 4.66074C2.83504 4.53936 2.82219 4.37334 2.71487 4.26602L1.26217 2.81331H1.26026L2.71411 4.26716C2.8211 4.37415 2.8342 4.53947 2.75341 4.66074ZM15.7522 2.67354C15.7855 2.6239 15.8049 2.5642 15.8049 2.49997C15.8049 2.32755 15.6651 2.18778 15.4927 2.18778H1.2614L1.26026 2.18892H15.4919C15.6643 2.18892 15.8041 2.3287 15.8041 2.50112C15.8041 2.56486 15.785 2.62413 15.7522 2.67354ZM2.75377 0.686625C2.83501 0.565293 2.82204 0.399591 2.71487 0.292421C2.59295 0.170501 2.39528 0.170501 2.27336 0.292421L0.286562 2.27922C0.271476 2.2943 0.258257 2.31055 0.246904 2.32767C0.258085 2.31097 0.27105 2.29511 0.2858 2.28036L2.2726 0.293564C2.39452 0.171645 2.59219 0.171645 2.71411 0.293564C2.82094 0.400398 2.83416 0.565397 2.75377 0.686625Z" fill="#0C353E"/>
</svg>
