<svg width="20" height="22" viewBox="0 0 20 22" fill="none" xmlns="http://www.w3.org/2000/svg">
  <path fill-rule="evenodd" clip-rule="evenodd" d="M15.9352 6.96396C15.9366 7.88639 15.6998 8.74955 15.3321 9.59116C13.9976 12.6451 12.6779 15.7054 11.3514 18.7628C11.0822 19.3833 10.8093 20.0022 10.5353 20.6205C10.3979 20.9306 10.1439 21.0556 9.8242 20.9772C9.62984 20.9297 9.51463 20.7952 9.43762 20.6197C9.20984 20.1005 8.98 19.5821 8.75436 19.0619C7.33272 15.7855 5.91072 12.5091 4.49233 9.23121C4.24126 8.65109 4.10203 8.04123 4.05772 7.40998C3.95238 5.90982 4.34441 4.55203 5.25408 3.35802C6.18794 2.13211 7.41966 1.36222 8.93984 1.09877C10.7526 0.7847 12.3857 1.22034 13.8023 2.3957C14.8988 3.30567 15.577 4.4785 15.8336 5.88461C15.8983 6.23931 15.9193 6.602 15.9605 6.96108L15.9352 6.96396ZM9.98618 12.9275C10.0046 12.8882 10.015 12.8678 10.0239 12.8466C10.732 11.1663 11.4422 9.48677 12.146 7.80454C12.3207 7.38683 12.3578 6.94787 12.265 6.50401C12.006 5.26535 10.8634 4.474 9.61847 4.66593C8.13827 4.89423 7.26598 6.48161 7.85413 7.8672C8.42679 9.21612 8.99223 10.5681 9.56092 11.9187C9.69974 12.2484 9.83873 12.5779 9.98618 12.9275Z" fill="#0C353E"/>
  <path d="M15.9352 6.96396L15.9182 6.81493L15.785 6.83009L15.7852 6.9642L15.9352 6.96396ZM15.3321 9.59116L15.4695 9.65123L15.4695 9.65122L15.3321 9.59116ZM11.3514 18.7628L11.2138 18.7031L11.2137 18.7031L11.3514 18.7628ZM10.5353 20.6205L10.3981 20.5597L10.3981 20.5598L10.5353 20.6205ZM9.8242 20.9772L9.8599 20.8315L9.85983 20.8315L9.8242 20.9772ZM9.43762 20.6197L9.30025 20.68L9.30026 20.68L9.43762 20.6197ZM8.75436 19.0619L8.89197 19.0022L8.89196 19.0022L8.75436 19.0619ZM4.49233 9.23121L4.63 9.17164L4.62999 9.17163L4.49233 9.23121ZM4.05772 7.40998L4.20736 7.39948L4.20736 7.39947L4.05772 7.40998ZM5.25408 3.35802L5.37339 3.44893L5.3734 3.44892L5.25408 3.35802ZM8.93984 1.09877L8.91423 0.950971L8.91423 0.950972L8.93984 1.09877ZM13.8023 2.3957L13.8981 2.28027L13.898 2.28026L13.8023 2.3957ZM15.8336 5.88461L15.9811 5.85769L15.9811 5.85769L15.8336 5.88461ZM15.9605 6.96108L15.9775 7.11012L16.1266 7.09315L16.1095 6.944L15.9605 6.96108ZM9.98618 12.9275L9.84797 12.9858L9.97896 13.2963L10.122 12.9912L9.98618 12.9275ZM10.0239 12.8466L9.88563 12.7884L9.88551 12.7887L10.0239 12.8466ZM12.146 7.80454L12.2844 7.86244L12.2844 7.86242L12.146 7.80454ZM12.265 6.50401L12.1181 6.5347L12.1181 6.53471L12.265 6.50401ZM9.61847 4.66593L9.59561 4.51769L9.5956 4.51769L9.61847 4.66593ZM7.85413 7.8672L7.71606 7.92581L7.71606 7.92581L7.85413 7.8672ZM9.56092 11.9187L9.42268 11.9769L9.42268 11.9769L9.56092 11.9187ZM15.7852 6.9642C15.7866 7.86001 15.5568 8.70228 15.1946 9.53111L15.4695 9.65122C15.8428 8.79682 16.0867 7.91276 16.0852 6.96373L15.7852 6.9642ZM15.1946 9.5311C13.86 12.5852 12.5402 15.6461 11.2138 18.7031L11.489 18.8225C12.8157 15.7647 14.1351 12.7049 15.4695 9.65123L15.1946 9.5311ZM11.2137 18.7031C10.9449 19.3231 10.6721 19.9415 10.3981 20.5597L10.6724 20.6813C10.9465 20.0628 11.2196 19.4435 11.489 18.8225L11.2137 18.7031ZM10.3981 20.5598C10.3404 20.6901 10.2641 20.7689 10.1811 20.8103C10.0984 20.8516 9.99247 20.864 9.8599 20.8315L9.7885 21.1229C9.97567 21.1688 10.1566 21.1579 10.3151 21.0788C10.4734 20.9998 10.5928 20.861 10.6724 20.6812L10.3981 20.5598ZM9.85983 20.8315C9.72619 20.7988 9.64065 20.7091 9.57498 20.5594L9.30026 20.68C9.3886 20.8813 9.5335 21.0605 9.78856 21.1229L9.85983 20.8315ZM9.57498 20.5595C9.34687 20.0394 9.11747 19.5221 8.89197 19.0022L8.61675 19.1216C8.84253 19.6422 9.07282 20.1615 9.30025 20.68L9.57498 20.5595ZM8.89196 19.0022C7.47031 15.7258 6.04835 12.4494 4.63 9.17164L4.35467 9.29078C5.77309 12.5688 7.19512 15.8452 8.61675 19.1216L8.89196 19.0022ZM4.62999 9.17163C4.38624 8.60844 4.25058 8.01535 4.20736 7.39948L3.90809 7.42048C3.95347 8.0671 4.09627 8.69375 4.35467 9.29079L4.62999 9.17163ZM4.20736 7.39947C4.1045 5.93463 4.48644 4.61311 5.37339 3.44893L5.13476 3.26712C4.20237 4.49095 3.80027 5.88501 3.90809 7.42049L4.20736 7.39947ZM5.3734 3.44892C6.28516 2.25202 7.48392 1.50332 8.96545 1.24657L8.91423 0.950972C7.35541 1.22112 6.09072 2.0122 5.13476 3.26713L5.3734 3.44892ZM8.96545 1.24657C10.7349 0.939997 12.3237 1.36379 13.7065 2.51114L13.898 2.28026C12.4477 1.0769 10.7702 0.629404 8.91423 0.950971L8.96545 1.24657ZM13.7065 2.51113C14.7755 3.39821 15.4357 4.5395 15.686 5.91154L15.9811 5.85769C15.7184 4.4175 15.0222 3.21312 13.8981 2.28027L13.7065 2.51113ZM15.686 5.91153C15.7496 6.26011 15.769 6.60744 15.8115 6.97817L16.1095 6.944C16.0697 6.59655 16.047 6.21851 15.9811 5.85769L15.686 5.91153ZM15.9436 6.81205L15.9182 6.81493L15.9522 7.113L15.9775 7.11012L15.9436 6.81205ZM10.122 12.9912C10.1378 12.9575 10.1518 12.9295 10.1622 12.9046L9.88551 12.7887C9.8782 12.8061 9.87138 12.819 9.85036 12.8638L10.122 12.9912ZM10.1621 12.9049C10.8701 11.2247 11.5805 9.5449 12.2844 7.86244L12.0077 7.74664C11.3039 9.42864 10.5938 11.1078 9.88563 12.7884L10.1621 12.9049ZM12.2844 7.86242C12.4713 7.41564 12.5106 6.94571 12.4118 6.47331L12.1181 6.53471C12.205 6.95002 12.1702 7.35801 12.0076 7.74666L12.2844 7.86242ZM12.4118 6.47332C12.1366 5.15681 10.9196 4.31357 9.59561 4.51769L9.64132 4.81418C10.8073 4.63443 11.8755 5.3739 12.1181 6.5347L12.4118 6.47332ZM9.5956 4.51769C8.01719 4.76114 7.09032 6.45166 7.71606 7.92581L7.99221 7.80859C7.44165 6.51156 8.25936 5.02733 9.64134 4.81418L9.5956 4.51769ZM7.71606 7.92581C8.28861 9.27448 8.85379 10.6259 9.42268 11.9769L9.69916 11.8605C9.13067 10.5104 8.56497 9.15776 7.99221 7.80858L7.71606 7.92581ZM9.42268 11.9769C9.56151 12.3066 9.70052 12.6362 9.84797 12.9858L10.1244 12.8692C9.97694 12.5196 9.83796 12.1901 9.69916 11.8605L9.42268 11.9769Z" fill="#0C353E"/>
</svg>
