<svg width="167" height="132" viewBox="0 0 167 132" fill="none" xmlns="http://www.w3.org/2000/svg">
  <path d="M80.0272 132C100.739 132 117.529 115.168 117.529 94.405C117.529 73.6419 100.739 56.8101 80.0272 56.8101C59.3155 56.8101 42.5254 73.6419 42.5254 94.405C42.5254 115.168 59.3155 132 80.0272 132Z" fill="#C2C8C9"/>
  <path d="M98.4919 78.4776C98.9213 78.9081 91.9076 88.2351 82.89 99.571C80.8861 101.867 79.0253 104.163 77.3077 106.315L76.592 107.176L75.7332 106.315C68.5763 98.997 63.7097 93.5443 64.1391 93.1138C64.4254 92.8268 69.8646 97.7056 77.3077 104.737L75.7332 104.88C77.4508 102.728 79.3116 100.432 81.1724 98.136C90.19 86.9437 98.0625 78.1906 98.4919 78.4776Z" fill="#0C353E"/>
  <path d="M134.37 79.2841C133.22 75.2551 128.047 75.6868 128.047 75.6868L128.191 78.4207C131.208 77.8452 133.076 81.4424 133.076 81.4424L134.37 79.2841Z" fill="#0C353E"/>
  <path d="M25.4564 87.6294C24.3069 83.6004 19.1343 84.0321 19.1343 84.0321L19.278 86.766C22.2953 86.1905 24.1633 89.7877 24.1633 89.7877L25.4564 87.6294Z" fill="#C2C8C9"/>
  <path d="M85.5162 32.951C91.4073 34.8216 95.1431 27.9148 95.1431 27.9148L91.551 25.9004C89.8268 30.0732 83.792 29.6415 83.792 29.6415L85.5162 32.951Z" fill="#C2C8C9"/>
  <path d="M52.3246 40.2894C49.5946 40.5772 49.1636 44.0306 49.1636 44.0306L51.0315 44.3183C51.0315 42.3039 53.6178 41.4405 53.6178 41.4405L52.3246 40.2894Z" fill="#0C353E"/>
  <path d="M166.698 65.7579C167.129 63.024 163.824 61.8729 163.824 61.8729L163.106 63.5996C165.118 64.1751 165.261 66.7652 165.261 66.7652L166.698 65.7579Z" fill="#C2C8C9"/>
  <path d="M68.5609 3.88506C68.9919 1.15113 65.6872 0 65.6872 0L64.9688 1.72669C66.9803 2.30226 67.124 4.89229 67.124 4.89229L68.5609 3.88506Z" fill="#0C353E"/>
  <path d="M0.0236519 48.4914C-0.407404 52.8081 5.19632 53.8154 5.19632 53.8154L6.20212 50.9376C2.75367 50.6498 2.32261 46.6208 2.32261 46.6208L0.0236519 48.4914Z" fill="#0C353E"/>
  <path d="M127.616 32.8071C130.346 32.951 131.352 29.6415 131.352 29.6415L129.628 29.0659C129.34 31.0804 126.61 31.5121 126.61 31.5121L127.616 32.8071Z" fill="#0C353E"/>
  <path d="M142.846 44.1747C142.846 44.3185 141.841 44.4624 140.548 44.4624C139.254 44.4624 138.249 44.3185 138.249 44.1747C138.249 44.0308 139.254 43.8869 140.548 43.8869C141.697 43.8869 142.846 44.0308 142.846 44.1747Z" fill="#C2C8C9"/>
  <path d="M145.289 37.9874C145.433 37.9874 145.576 38.9946 145.576 40.2896C145.576 41.5846 145.433 42.5919 145.289 42.5919C145.145 42.5919 145.001 41.5846 145.001 40.2896C145.001 38.9946 145.145 37.9874 145.289 37.9874Z" fill="#C2C8C9"/>
  <path d="M147.875 44.0306C147.875 43.8867 148.881 43.7428 150.174 43.7428C151.468 43.7428 152.473 43.8867 152.473 44.0306C152.473 44.1745 151.468 44.3184 150.174 44.3184C148.881 44.3184 147.875 44.1745 147.875 44.0306Z" fill="#C2C8C9"/>
  <path d="M145.433 50.3618C145.289 50.3618 145.146 49.3546 145.146 48.0596C145.146 46.7646 145.289 45.7573 145.433 45.7573C145.577 45.7573 145.72 46.7646 145.72 48.0596C145.577 49.2107 145.577 50.3618 145.433 50.3618Z" fill="#C2C8C9"/>
  <path d="M149.169 47.6278C149.026 47.7717 148.594 47.3401 148.163 46.7645C147.732 46.1889 147.444 45.7573 147.588 45.6134C147.732 45.4695 148.163 45.9011 148.594 46.4767C148.882 47.0523 149.169 47.4839 149.169 47.6278Z" fill="#C2C8C9"/>
  <path d="M148.882 40.5773C149.026 40.7212 148.594 41.1529 148.163 41.5846C147.732 42.0163 147.301 42.304 147.157 42.304C147.013 42.1601 147.445 41.7285 147.876 41.2968C148.307 40.7212 148.738 40.4335 148.882 40.5773Z" fill="#C2C8C9"/>
  <path d="M143.566 42.3038C143.422 42.4477 142.991 42.1599 142.56 41.8721C142.128 41.4404 141.841 41.1527 141.841 41.0088C141.985 40.8649 142.416 41.1527 142.847 41.4404C143.422 41.8721 143.709 42.1599 143.566 42.3038Z" fill="#C2C8C9"/>
  <path d="M143.422 45.4696C143.566 45.6135 143.279 46.0452 142.847 46.4768C142.416 46.9085 141.985 47.1963 141.841 47.1963C141.697 47.0524 141.985 46.6207 142.416 46.189C142.847 45.6135 143.279 45.3257 143.422 45.4696Z" fill="#C2C8C9"/>
  <path d="M17.697 31.368C17.697 31.5119 16.6913 31.6558 15.3981 31.6558C14.1049 31.6558 13.0991 31.5119 13.0991 31.368C13.0991 31.2242 14.1049 31.0803 15.3981 31.0803C16.5476 31.0803 17.697 31.2242 17.697 31.368Z" fill="#0C353E"/>
  <path d="M19.996 25.0372C20.1397 25.0372 20.2835 26.0444 20.2835 27.3394C20.2835 28.6344 20.1397 29.6417 19.996 29.6417C19.8522 29.6417 19.7085 28.6344 19.7085 27.3394C19.8522 26.1883 19.996 25.0372 19.996 25.0372Z" fill="#0C353E"/>
  <path d="M22.7256 31.2245C22.7256 31.0806 23.7314 30.9367 25.0245 30.9367C26.3177 30.9367 27.3235 31.0806 27.3235 31.2245C27.3235 31.3683 26.3177 31.5122 25.0245 31.5122C23.7314 31.3683 22.7256 31.3683 22.7256 31.2245Z" fill="#0C353E"/>
  <path d="M20.2836 37.4115C20.1398 37.4115 19.9961 36.4042 19.9961 35.1092C19.9961 33.8142 20.1398 32.807 20.2836 32.807C20.4273 32.807 20.5711 33.8142 20.5711 35.1092C20.4273 36.4042 20.2836 37.4115 20.2836 37.4115Z" fill="#0C353E"/>
  <path d="M23.8763 34.8216C23.7326 34.9655 23.3014 34.5338 22.8702 33.9583C22.4389 33.3827 22.1515 32.951 22.2952 32.8071C22.4389 32.6632 22.8702 33.0949 23.3014 33.6705C23.7326 34.246 24.0201 34.6777 23.8763 34.8216Z" fill="#0C353E"/>
  <path d="M23.7326 27.6267C23.8763 27.7706 23.4451 28.2023 23.0139 28.634C22.5826 29.0656 22.1514 29.3534 22.0077 29.3534C21.8639 29.2095 22.2952 28.7779 22.7264 28.3462C23.1576 27.9145 23.5888 27.6267 23.7326 27.6267Z" fill="#0C353E"/>
  <path d="M18.4158 29.4977C18.272 29.6416 17.8408 29.3538 17.4096 29.066C16.9784 28.6343 16.6909 28.3465 16.6909 28.2026C16.8347 28.0587 17.2659 28.3465 17.6971 28.6343C18.272 29.066 18.5595 29.3538 18.4158 29.4977Z" fill="#0C353E"/>
  <path d="M18.2723 32.663C18.4161 32.8069 18.1286 33.2386 17.6974 33.6702C17.2662 34.1019 16.8349 34.3897 16.6912 34.3897C16.5475 34.2458 16.8349 33.8141 17.2662 33.3825C17.6974 32.8069 18.1286 32.5191 18.2723 32.663Z" fill="#0C353E"/>
</svg>
