<svg width="16" height="16" viewBox="0 0 16 16" fill="none" xmlns="http://www.w3.org/2000/svg">
<path d="M14.0444 5.2505C13.9212 5.00409 13.6694 4.84847 13.3939 4.84847H9.72226L11.6202 1.0525C11.733 0.827094 11.7209 0.559312 11.5884 0.344906C11.4558 0.130531 11.2217 0 10.9697 0H6.60601C6.33051 0 6.07873 0.155625 5.95554 0.402031L2.07676 8.15959C1.96407 8.385 1.97611 8.65278 2.10857 8.86719C2.24114 9.08162 2.4752 9.21209 2.72723 9.21209H6.67607L5.41011 15.1203C5.33848 15.4543 5.50898 15.793 5.81979 15.9345C5.91692 15.9787 6.01945 16 6.12089 16C6.34426 16 6.56211 15.8969 6.70298 15.709L13.9757 6.01209C14.1409 5.79175 14.1676 5.49684 14.0444 5.2505Z" fill="#F85454"/>
</svg>