<svg style=" top: 2px; position: relative; " width="16" height="16" viewBox="0 0 16 16" fill="none" xmlns="http://www.w3.org/2000/svg">
<path fill-rule="evenodd" clip-rule="evenodd" d="M16 11.8008V4.2203C16 4.05073 15.9105 3.89399 15.7649 3.80759C15.6192 3.72126 15.4387 3.71782 15.2898 3.79901L11.9041 5.64769V4.71509C11.903 3.71548 11.0928 2.90543 10.0932 2.9043H1.81079C0.81118 2.90543 0.00113184 3.71564 0 4.71526V11.2845C0.00113184 12.2841 0.811346 13.0942 1.81096 13.0953H10.0933C11.0929 13.0942 11.903 12.284 11.9041 11.2844V10.3734L15.29 12.222C15.4386 12.3032 15.6192 12.3 15.7649 12.2136C15.9107 12.127 16 11.9701 16 11.8008ZM10.9439 11.2843C10.9435 11.7542 10.5627 12.1349 10.0927 12.1355H1.81113C1.34121 12.1349 0.960521 11.7542 0.959967 11.2843V4.71538C0.960547 4.2456 1.34124 3.86482 1.81113 3.86426H10.093C10.5628 3.86484 10.9436 4.24565 10.9442 4.71543L10.9439 11.2843ZM15.04 5.0293V10.9919L11.9041 9.27968V6.74138L15.04 5.0293Z" fill="#050505"></path>
</svg>