<svg width="24" height="24" viewBox="0 0 24 24" fill="none" xmlns="http://www.w3.org/2000/svg"> <path d="M12 0C5.4 0 0 5.4 0 12C0 18.6 5.4 24 12 24C18.6 24 24 18.6 24 12C24.075 5.4 18.675 0 12 0ZM20.625 12C20.625 12.3 20.85 12.525 21.15 12.525H23.025C22.875 15.225 21.75 17.85 19.8 19.8C17.85 21.75 15.3 22.875 12.525 23.025V21.15C12.525 20.85 12.3 20.625 12 20.625C11.7 20.625 11.475 20.85 11.475 21.15V23.025C8.775 22.875 6.15 21.75 4.2 19.8C2.25 17.85 1.125 15.3 0.975 12.525H2.85C3.15 12.525 3.375 12.3 3.375 12C3.375 11.7 3.15 11.475 2.85 11.475H1.05C1.2 8.775 2.325 6.15 4.275 4.2C6.225 2.25 8.775 1.125 11.55 0.975V2.85C11.55 3.15 11.775 3.375 12.075 3.375C12.375 3.375 12.6 3.15 12.6 2.85V1.05C15.3 1.2 17.925 2.325 19.875 4.275C21.825 6.225 22.95 8.775 23.1 11.55H21.225C20.85 11.55 20.625 11.775 20.625 12Z" fill="#0C353E"></path> <path d="M17.925 5.325L10.05 8.325C9.375 8.55 8.625 9.375 8.325 10.05L5.325 17.925C5.25 18.225 5.175 18.45 5.325 18.6C5.475 18.75 5.625 18.75 5.775 18.75C5.925 18.75 6 18.75 6.15 18.675L14.025 15.675C14.7 15.45 15.45 14.625 15.75 13.95L18.75 6.075C18.9 5.775 18.9 5.55 18.75 5.4C18.6 5.25 18.3 5.175 17.925 5.325ZM11.1 12.075C11.1 11.55 11.55 11.175 12 11.175C12.525 11.175 12.9 11.625 12.9 12.075C12.9 12.525 12.45 12.975 12 12.975C11.55 12.975 11.1 12.525 11.1 12.075ZM10.05 12.075C10.05 13.2 10.95 14.025 12 14.025C12.375 14.025 12.675 13.95 13.05 13.725L13.95 14.625C13.875 14.7 13.8 14.7 13.725 14.775L6.675 17.4L9.3 10.35C9.3 10.275 9.375 10.2 9.45 10.125L10.35 11.025C10.125 11.325 10.05 11.7 10.05 12.075ZM14.025 12.075C14.025 10.95 13.125 10.125 12.075 10.125C11.775 10.125 11.4 10.2 11.1 10.35L10.2 9.45C10.275 9.375 10.35 9.375 10.425 9.3L17.475 6.675L14.85 13.725C14.85 13.8 14.775 13.875 14.7 13.95L13.8 13.05C13.95 12.675 14.025 12.375 14.025 12.075Z" fill="#0C353E"></path> </svg>