<svg width="24" height="24" viewBox="0 0 24 24" fill="none" xmlns="http://www.w3.org/2000/svg"> <path d="M19.425 10.275C19.05 10.275 18.675 10.35 18.3 10.425H18.15L16.8 6.825H19.5C19.95 6.825 20.325 7.2 20.325 7.65C20.325 8.1 19.95 8.475 19.5 8.475C19.275 8.475 19.05 8.7 19.05 8.925C19.05 9.15 19.275 9.375 19.5 9.375C20.4 9.375 21.225 8.625 21.225 7.65C21.225 6.675 20.475 5.925 19.5 5.925H16.125L16.05 5.775V5.925C16.05 5.925 16.05 5.925 15.975 5.925L15.9 6L15.75 6.15V6.3C15.75 6.3 15.75 6.3 15.75 6.375L15.525 6.525L15.75 6.45L16.425 8.25L9.375 8.4L8.7 6.15H10.125C10.35 6.15 10.575 5.925 10.575 5.7C10.575 5.475 10.35 5.25 10.125 5.25H6.75C6.525 5.25 6.3 5.475 6.3 5.7C6.3 5.925 6.525 6.15 6.75 6.15H7.725L8.55 8.7L6.975 10.8H6.825C6.15 10.425 5.4 10.2 4.575 10.2C2.1 10.2 0 12.225 0 14.775C0 17.325 2.1 19.35 4.575 19.35C6.9 19.35 8.85 17.625 9.15 15.3V15.15H9.525V15.225C9.6 15.45 9.75 15.6 9.9 15.75L9.975 15.825L9.75 16.65C9.75 16.8 9.75 16.875 9.75 17.025C9.825 17.1 9.9 17.175 10.05 17.25C10.125 17.25 10.275 17.25 10.35 17.175C10.425 17.1 10.575 17.025 10.575 16.875L10.8 16.05H10.875C11.475 15.975 12 15.375 12 14.775C12 14.625 12 14.475 11.925 14.325V14.25L16.725 9.3L17.25 10.65V10.8C15.75 11.625 14.85 13.125 14.85 14.85C14.85 17.4 16.95 19.5 19.425 19.5C21.975 19.5 24 17.4 24 14.85C24 12.3 21.975 10.275 19.425 10.275ZM17.7 11.625L19.05 15.075C19.125 15.15 19.2 15.3 19.275 15.3C19.425 15.375 19.5 15.375 19.575 15.3C19.725 15.225 19.8 15.15 19.8 15.075C19.875 15 19.875 14.85 19.8 14.7L18.525 11.25H18.675C18.9 11.175 19.125 11.175 19.425 11.175C21.45 11.175 23.1 12.825 23.1 14.85C23.1 15.825 22.725 16.8 22.05 17.475C21.375 18.15 20.4 18.525 19.425 18.525C17.4 18.525 15.75 16.875 15.75 14.85C15.75 13.5 16.425 12.375 17.55 11.7L17.7 11.625ZM7.275 12.225C7.8 12.75 8.175 13.425 8.25 14.175V14.325H5.475L7.125 12.075L7.275 12.225ZM8.85 9.75L10.125 13.8L10.05 13.875C9.9 14.025 9.75 14.1 9.675 14.325L9.6 14.4H9.15V14.25C9 13.2 8.55 12.225 7.725 11.475L7.65 11.4L8.85 9.75ZM4.2 15C4.275 15.15 4.425 15.225 4.575 15.225H8.25V15.375C7.95 17.175 6.375 18.45 4.575 18.45C2.55 18.45 0.9 16.8 0.9 14.775C0.9 12.75 2.55 11.1 4.575 11.1C5.175 11.1 5.7 11.25 6.225 11.475L6.375 11.55L4.2 14.55C4.125 14.7 4.125 14.85 4.2 15ZM11.1 12.6C11.1 12.675 11.025 12.675 11.025 12.75L10.875 13.125L9.675 9.3L15.825 9.15L11.925 13.2V12.825C11.925 12.6 11.775 12.45 11.625 12.375C11.55 12.375 11.55 12.375 11.475 12.375C11.325 12.45 11.175 12.525 11.1 12.6ZM10.8 14.475C11.025 14.475 11.175 14.625 11.175 14.85C11.175 14.925 11.1 15.075 11.025 15.15C10.95 15.225 10.875 15.3 10.725 15.3C10.5 15.3 10.35 15.15 10.35 14.925C10.425 14.625 10.65 14.475 10.8 14.475Z" fill="#0C353E"></path> </svg>