<svg width="32" height="32" viewBox="0 0 32 32" fill="none" xmlns="http://www.w3.org/2000/svg">
  <path d="M0 27.2319C0.0169722 27.2249 0.0412183 27.2224 0.0494014 27.21C0.0655763 27.1805 0.0797521 27.15 0.091832 27.1186C0.187907 26.9152 0.351871 26.8101 0.571601 26.7915C0.643733 26.7857 0.716774 26.7888 0.789513 26.7888H17.3014C17.3681 26.7888 17.4356 26.797 17.4987 26.7812C17.5181 26.7452 17.4947 26.7303 17.476 26.7178C17.3671 26.6451 17.2576 26.5731 17.1477 26.5016C15.9912 25.752 14.8347 25.0032 13.6781 24.255C12.7129 23.6301 11.748 23.0048 10.7834 22.379C9.44061 21.5075 8.09798 20.6354 6.75556 19.7628C5.50285 18.949 4.25013 18.1347 2.99742 17.3197C2.67283 17.1066 2.35611 16.8824 2.04182 16.6549C1.74135 16.4412 1.52901 16.1245 1.44476 15.7645C1.39252 15.566 1.38258 15.3586 1.41559 15.156C1.4486 14.9534 1.52381 14.76 1.63631 14.5886C1.91251 14.1533 2.18851 13.7183 2.46431 13.2834C2.58281 13.0961 2.75011 12.9685 2.94559 12.8735C2.99772 12.8482 3.05076 12.825 3.0941 12.8049C3.13047 12.7568 3.12107 12.7115 3.11986 12.6688C3.11168 12.3466 3.20775 12.0597 3.37869 11.7872C4.33883 10.2602 5.29645 8.73143 6.25154 7.20082C6.50401 6.79883 6.87376 6.57073 7.33625 6.4885C7.67812 6.42759 8.0006 6.4885 8.3061 6.64564C8.45132 6.72455 8.58309 6.82623 8.69646 6.94683C8.91252 7.17045 9.11359 7.40821 9.29837 7.65854C9.61326 8.07241 9.9127 8.49754 10.2012 8.9306C10.4194 9.25828 10.6349 9.58779 10.8513 9.9167C11.2044 10.4533 11.6757 10.8553 12.24 11.1519C12.5836 11.3335 12.9518 11.4634 13.3329 11.5375C13.4568 11.5644 13.5702 11.627 13.6593 11.7177C13.7484 11.8083 13.8092 11.923 13.8345 12.0479C13.8721 12.2556 13.8151 12.4346 13.6593 12.5765C13.5839 12.6491 13.4922 12.7024 13.392 12.732C13.2918 12.7616 13.186 12.7667 13.0835 12.7468C12.4021 12.6346 11.7528 12.3758 11.1802 11.9882C10.6957 11.6625 10.2728 11.2527 9.93149 10.7779C9.84057 10.6515 9.76056 10.5182 9.67812 10.3863C9.30897 9.79701 8.92892 9.21504 8.51188 8.65834C8.2936 8.36028 8.05394 8.07864 7.79481 7.81568C7.71358 7.73498 7.62175 7.69143 7.50749 7.70696C7.4544 7.71344 7.40353 7.73226 7.35892 7.76191C7.31431 7.79156 7.27719 7.83124 7.25048 7.87781C7.12925 8.0721 7.00802 8.26488 6.88679 8.45826C6.848 8.51917 6.81193 8.58373 6.77011 8.64342C6.73572 8.6908 6.72125 8.74986 6.7298 8.80787C6.77526 9.21412 6.8183 9.62068 6.86164 10.026C6.90912 10.4713 6.9565 10.9166 7.00378 11.362C7.04894 11.7829 7.10349 12.2029 7.13986 12.6244C7.19623 13.2825 7.02863 13.869 6.55947 14.3508C6.53613 14.3745 6.5131 14.3989 6.49188 14.4211C6.49886 14.4784 6.54401 14.4951 6.57705 14.5201C6.8486 14.7246 7.12067 14.9276 7.39323 15.1292L13.5796 19.7402C14.4551 20.3927 15.3304 21.0457 16.2055 21.699C17.3572 22.5576 18.5088 23.4159 19.6605 24.2739C19.7421 24.3348 19.8224 24.3981 19.9057 24.4566C20.1817 24.6486 20.5 24.7706 20.8331 24.812C20.9726 24.8295 21.113 24.8378 21.2535 24.8367C23.7533 24.8367 26.2532 24.8367 28.7534 24.8367C28.8207 24.8367 28.8883 24.8345 28.9568 24.833C29.0571 24.6993 29.0922 24.5498 29.1053 24.3933C29.1192 24.2294 29.0719 24.0772 29.0204 23.9237C28.9659 23.7617 28.8592 23.6718 28.7025 23.6118C27.5205 23.1574 26.3446 22.6958 25.1644 22.2414C24.7346 22.076 24.3043 21.911 23.8675 21.7669C23.425 21.6214 22.9959 21.4429 22.5604 21.2797C22.1248 21.1164 21.7005 20.9505 21.2708 20.7854L18.8143 19.8413C18.7878 19.8292 18.7602 19.8196 18.7319 19.8127C18.5922 19.7859 18.501 19.6958 18.4288 19.58C18.3682 19.4804 18.3109 19.3787 18.2524 19.2776L15.7672 15.0052C15.3102 14.2191 14.8529 13.4332 14.3955 12.6475C14.2715 12.4343 14.2721 12.2236 14.3852 12.008C14.5029 11.7826 14.6675 11.5853 14.8677 11.4293C15.3569 11.0477 15.9103 10.8887 16.5279 10.9524C17.1156 11.0133 17.609 11.2719 18.0351 11.6724C18.12 11.7522 18.2021 11.8347 18.2837 11.9181C18.3068 11.943 18.3272 11.9703 18.3443 11.9997C18.5201 12.2854 18.6954 12.5714 18.8704 12.8576C18.8756 12.8659 18.8813 12.8738 18.8859 12.8823C18.8965 12.9043 18.9134 12.9225 18.9345 12.9347C18.9556 12.9468 18.9798 12.9524 19.0041 12.9505C19.0865 12.949 19.1689 12.949 19.2511 12.9505C19.3043 12.9511 19.3575 12.9551 19.4102 12.9627C19.6351 12.9992 19.793 13.1211 19.8648 13.3415C19.9384 13.5681 19.8978 13.774 19.7372 13.9524C19.7069 13.9847 19.6742 14.0134 19.6366 14.0475C19.6431 14.0741 19.6525 14.0999 19.6645 14.1245C19.7554 14.2737 19.8509 14.4208 19.9403 14.5713C19.9552 14.599 19.978 14.6216 20.0058 14.6362C20.0337 14.6507 20.0652 14.6565 20.0964 14.6529C20.193 14.6498 20.29 14.6511 20.387 14.6529C20.489 14.6514 20.5903 14.6715 20.684 14.712C20.9247 14.824 21.0574 15.0923 21.0077 15.3683C20.9792 15.5272 20.9098 15.6627 20.7768 15.7602C20.7537 15.7769 20.7325 15.7964 20.7064 15.8181C20.7153 15.8462 20.7263 15.8737 20.7392 15.9003C20.8604 16.1055 20.9844 16.309 21.1029 16.5151C21.116 16.5437 21.1376 16.5675 21.1648 16.5832C21.1919 16.5989 21.2232 16.6058 21.2544 16.6029C21.3453 16.5989 21.4387 16.601 21.5305 16.6029C21.579 16.6029 21.6272 16.6083 21.6751 16.6135C21.9451 16.644 22.1833 16.8571 22.1764 17.2266C22.1776 17.3171 22.158 17.4068 22.1189 17.4884C22.0798 17.5701 22.0224 17.6415 21.9512 17.6971C21.9248 17.7181 21.8993 17.7397 21.8727 17.7616C21.8727 17.8174 21.9063 17.8554 21.9306 17.8956C22.1704 18.298 22.4108 18.6987 22.6519 19.0976C22.7674 19.2892 22.8843 19.4798 22.998 19.6726C23.1505 19.9282 23.3575 20.1466 23.6042 20.3121C23.7749 20.4328 23.961 20.5298 24.1576 20.6005C25.6281 21.1088 27.0735 21.6853 28.5273 22.239C28.7092 22.3078 28.8886 22.3794 29.0704 22.4464C29.5614 22.6272 29.9063 22.961 30.1157 23.4407C30.2146 23.6581 30.2785 23.8899 30.3052 24.1274C30.3311 24.385 30.309 24.6451 30.24 24.8945C30.1305 25.2799 29.9439 25.6386 29.6914 25.9489C29.545 26.1247 29.3753 26.2797 29.1871 26.4093C28.8108 26.6759 28.4078 26.9025 27.9848 27.0854C27.1735 27.4463 26.322 27.7081 25.4487 27.8653C24.9719 27.9529 24.4883 27.9977 24.0036 27.9993C16.2758 27.9993 8.54805 27.9993 0.820426 27.9993C0.747688 27.9993 0.674647 28.0021 0.602212 27.9966C0.354599 27.9783 0.170026 27.8662 0.0739505 27.6272C0.0695036 27.6083 0.0614763 27.5906 0.0503106 27.5748C0.0349485 27.5651 0.0178644 27.5585 0 27.5553V27.2319ZM27.091 26.0914C27.0274 26.0472 26.9647 26.0542 26.9031 26.0542C24.9891 26.0542 23.0753 26.0536 21.1617 26.0524C20.9775 26.0527 20.7936 26.0408 20.611 26.0168C20.046 25.9417 19.5099 25.7207 19.0553 25.3754C18.3964 24.8788 17.7361 24.3841 17.0744 23.8914C16.3209 23.3268 15.5675 22.7621 14.814 22.1972L10.6765 19.0995C9.78258 18.4295 8.88911 17.7603 7.99605 17.0919L4.12698 14.1943C4.03768 14.1277 3.94807 14.0612 3.85816 13.9948C3.70086 13.8791 3.47567 13.9482 3.39415 14.0791C3.37869 14.1041 3.36111 14.1273 3.34535 14.1519C3.14168 14.4658 2.93802 14.7799 2.73435 15.0942C2.70731 15.1345 2.68242 15.1763 2.65979 15.2193C2.57099 15.3954 2.59918 15.5376 2.75072 15.66C2.82618 15.7209 2.90225 15.7794 2.98439 15.8336C3.74208 16.3419 4.49674 16.8538 5.25746 17.3563C6.09637 17.9081 6.94135 18.4526 7.78511 18.9956C9.90664 20.3628 12.0278 21.7302 14.1485 23.0978C15.6453 24.0619 17.1432 25.0245 18.6422 25.9854C18.801 26.0874 18.9628 26.1873 19.1308 26.2735C19.7548 26.5939 20.42 26.7422 21.1204 26.7407C22.1039 26.7388 23.0877 26.7407 24.0712 26.7407C24.3329 26.741 24.5944 26.7245 24.854 26.6913C25.5878 26.5957 26.2961 26.3993 26.9877 26.1386C27.0228 26.1246 27.0565 26.1069 27.091 26.0914ZM15.5775 12.4663C15.6126 12.529 15.6402 12.5799 15.6684 12.6298C16.2659 13.6539 16.8634 14.6781 17.4611 15.7023C18.0414 16.6972 18.6214 17.692 19.2011 18.6868C19.2461 18.7726 19.3219 18.838 19.4132 18.8695C19.9239 19.0523 20.4328 19.2408 20.9422 19.4268C21.1062 19.4878 21.2696 19.5487 21.4341 19.605C21.4623 19.6147 21.4947 19.6418 21.5329 19.6017C21.5129 19.5663 21.4932 19.5283 21.4705 19.4923C21.3513 19.3031 21.2317 19.1143 21.1117 18.9259C20.914 18.614 20.7164 18.3021 20.5188 17.99C20.4331 17.8554 20.4582 17.8661 20.2867 17.8649H20.2142C19.9818 17.8649 19.749 17.8688 19.5172 17.8649C19.1983 17.8579 18.9759 17.6578 18.9383 17.3408C18.905 17.0624 19.0329 16.7536 19.3884 16.6708C19.4553 16.6603 19.5228 16.6544 19.5905 16.6531C19.6178 16.6507 19.649 16.6586 19.6736 16.6199C19.6625 16.5912 19.6495 16.5632 19.6348 16.5362C19.5687 16.4284 19.5008 16.323 19.4338 16.2149C19.3975 16.157 19.3596 16.1004 19.3253 16.0419C19.3149 16.0199 19.2981 16.0015 19.2771 15.9892C19.2561 15.9768 19.232 15.9711 19.2077 15.9728C19.1738 15.9743 19.1398 15.9728 19.1059 15.9728C18.8937 15.9728 18.6798 15.9746 18.4667 15.9728C18.3845 15.9725 18.3024 15.9648 18.2215 15.9499C18.1399 15.9357 18.0629 15.9021 17.9969 15.8519C17.9308 15.8018 17.8777 15.7365 17.8418 15.6615C17.802 15.5829 17.7784 15.497 17.7725 15.4089C17.7666 15.3209 17.7785 15.2326 17.8075 15.1493C17.8824 14.9181 18.05 14.7927 18.2876 14.7619C18.34 14.7552 18.394 14.7595 18.447 14.7555C18.4709 14.7514 18.4943 14.7451 18.517 14.7366C18.5124 14.715 18.5055 14.6938 18.4964 14.6736C18.4155 14.5408 18.3318 14.4096 18.2518 14.2762C18.2395 14.2555 18.2216 14.2387 18.2001 14.2279C18.1786 14.2171 18.1545 14.2127 18.1306 14.2153C18.0145 14.2153 17.8981 14.2153 17.7821 14.2153C17.6029 14.2153 17.4235 14.2186 17.2444 14.2153C16.9435 14.2073 16.7292 14.035 16.6737 13.7511C16.6569 13.6652 16.6554 13.5769 16.6692 13.4905C16.7086 13.2605 16.8392 13.104 17.0659 13.0337C17.1508 13.0069 17.2374 13.0081 17.3244 13.0047C17.3659 13.0029 17.4111 13.0163 17.4547 12.9782C17.4118 12.8553 17.3429 12.7431 17.2529 12.6493C17.1453 12.5369 17.0208 12.4421 16.8841 12.3682C16.6092 12.2205 16.32 12.1645 16.0142 12.2437C15.8528 12.2811 15.7029 12.3575 15.5775 12.4663ZM5.68904 10.4676C5.62115 10.5002 5.60508 10.5489 5.57993 10.5894C5.38515 10.8968 5.19068 11.2047 4.99651 11.5131C4.80284 11.8216 4.61039 12.1313 4.41339 12.4389C4.32247 12.5802 4.33338 12.713 4.42188 12.847C4.47011 12.9202 4.53085 12.9844 4.6013 13.0364C4.76496 13.1582 4.92832 13.28 5.09319 13.3988C5.17593 13.4597 5.26018 13.516 5.34717 13.5687C5.49355 13.6577 5.59448 13.643 5.7051 13.5112C5.80905 13.3875 5.89846 13.2517 5.92301 13.0885C5.93887 12.9828 5.94263 12.8756 5.93422 12.769C5.91543 12.5318 5.88543 12.2951 5.86118 12.0579C5.83694 11.8207 5.81269 11.5743 5.78814 11.3322C5.7639 11.0953 5.73995 10.858 5.71449 10.6211C5.70965 10.5733 5.69934 10.5267 5.68904 10.4676Z" fill="#0C353E"/>
  <path d="M0 22.324C0.0175156 22.3164 0.0337669 22.3061 0.048189 22.2936C0.0587975 22.2774 0.0666822 22.2596 0.0715259 22.2409C0.162449 22.0085 0.338536 21.8907 0.580996 21.8663C0.629261 21.8619 0.677713 21.86 0.72617 21.8605C2.23225 21.8605 3.73844 21.8605 5.24473 21.8605C5.33648 21.8607 5.42793 21.8709 5.51749 21.891C5.59651 21.9073 5.67045 21.9425 5.73306 21.9936C5.79568 22.0447 5.84513 22.1102 5.87725 22.1845C6.03151 22.518 5.89422 22.9407 5.50325 23.0552C5.46114 23.066 5.41812 23.0729 5.37475 23.0756C5.34141 23.0787 5.30716 23.0756 5.27322 23.0756C3.74753 23.0756 2.22205 23.0756 0.696771 23.0756C0.629058 23.0789 0.561193 23.0749 0.494317 23.0637C0.303379 23.0217 0.160933 22.9139 0.0830428 22.7288C0.0648582 22.6852 0.0572813 22.6322 0.000303077 22.617L0 22.324Z" fill="#0C353E"/>
  <path fill-rule="evenodd" clip-rule="evenodd" d="M11.8091 6.72241C11.7591 6.74223 11.7438 6.77923 11.7296 6.81374L11.723 6.82931C11.6153 7.06908 11.5092 7.30936 11.4048 7.55015C11.3813 7.60444 11.3598 7.65972 11.3383 7.71497C11.3017 7.80943 11.265 7.9038 11.2184 7.99295C11.1444 8.13426 11.0383 8.25577 10.865 8.29262C10.795 8.30924 10.7235 8.31843 10.6516 8.32003C10.5698 8.30906 10.5089 8.29384 10.4528 8.24389C10.4065 8.20828 10.3645 8.1674 10.3276 8.12208C10.267 8.03681 10.2215 7.96098 10.2164 7.86139C10.2099 7.77401 10.2099 7.68626 10.2164 7.59888C10.2251 7.5267 10.2421 7.45578 10.267 7.38753C10.3103 7.26358 10.3579 7.14146 10.4082 7.01964C10.7921 6.07669 11.3014 5.19033 11.9221 4.38477C12.1203 4.12652 12.3343 3.88167 12.5516 3.63926C12.8162 3.34796 13.0971 3.07201 13.3929 2.81274C14.6595 1.69217 16.1618 0.873781 17.7875 0.418759C18.3431 0.263666 18.9097 0.151672 19.4823 0.0837661C20.037 0.0198128 20.5925 -0.0164273 21.1492 0.00732679C21.8323 0.0342441 22.5117 0.120857 23.1799 0.266185C24.901 0.643475 26.5092 1.42352 27.8739 2.54292C28.1975 2.80635 28.506 3.08799 28.798 3.38649C29.5749 4.18464 30.2311 5.093 30.7455 6.08258C31.1856 6.92996 31.5156 7.83065 31.7272 8.76252C31.9006 9.52387 32.0021 10.295 32 11.077C32 11.398 31.9945 11.7196 31.9806 12.0403C31.9576 12.478 31.9038 12.9136 31.8196 13.3437C31.5723 14.6725 31.0885 15.9455 30.3915 17.1017C30.0993 17.5899 29.7691 18.0542 29.4041 18.4901C29.0837 18.8746 28.7383 19.2374 28.3703 19.5761C27.8982 20.0093 27.3913 20.4028 26.855 20.7525C26.7862 20.7976 26.7158 20.8412 26.6443 20.882C26.4979 20.9657 26.3394 20.9733 26.1791 20.9429C25.9291 20.8938 25.7333 20.5774 25.8209 20.2902C25.8736 20.1163 25.9624 19.9781 26.1239 19.8803C26.275 19.7885 26.4201 19.687 26.5653 19.5854C26.619 19.5479 26.6727 19.5103 26.7267 19.4732C26.7463 19.4594 26.7646 19.4431 26.7847 19.4252C26.7958 19.4153 26.8075 19.4049 26.8201 19.3943C26.8002 19.3599 26.7785 19.3267 26.7549 19.2947C26.5812 19.0856 26.4068 18.877 26.2318 18.6689L25.6699 17.9989C25.4826 17.7756 25.296 17.5522 25.1101 17.3289L24.5501 16.6589C24.363 16.4356 24.1762 16.2123 23.9897 15.9889C23.915 15.8994 23.8405 15.8096 23.766 15.7199C23.6512 15.5815 23.5364 15.4431 23.4211 15.3059C23.2124 15.0543 23.0032 14.8039 22.7934 14.5546C22.7806 14.5432 22.7668 14.533 22.7522 14.5241C22.7409 14.5297 22.7293 14.5352 22.7175 14.5407C22.6916 14.5529 22.665 14.5655 22.6398 14.5801C22.475 14.6736 22.2948 14.7363 22.1079 14.7653C21.9881 14.7865 21.8651 14.7795 21.7484 14.7449C21.6841 14.7267 21.6241 14.6954 21.5724 14.6528C21.5207 14.6102 21.4782 14.5573 21.4478 14.4975C21.4174 14.4377 21.3996 14.3722 21.3956 14.3051C21.3916 14.238 21.4014 14.1709 21.4244 14.1078C21.476 13.9701 21.556 13.8593 21.6911 13.795L21.9012 13.6951C22.215 13.5507 22.4971 13.3451 22.7313 13.0903C23.1592 12.6165 23.4062 12.0637 23.4378 11.4184C23.4693 10.7731 23.299 10.1805 22.9022 9.67005C22.3331 8.93702 21.5787 8.58041 20.6507 8.61847C20.0748 8.64223 19.5669 8.85084 19.1186 9.21324C18.8976 9.39584 18.7058 9.61154 18.5501 9.85277C18.5156 9.90541 18.4785 9.95624 18.4388 10.005C18.4172 10.0309 18.3902 10.0517 18.3597 10.0659C18.2546 10.1155 18.1445 10.1534 18.0312 10.1789C17.9981 10.1867 17.9637 10.1873 17.9303 10.1808C17.8175 10.1546 17.7054 10.1256 17.5948 10.0915C17.5539 10.0767 17.5156 10.0553 17.4814 10.0282C17.3136 9.90693 17.1348 9.80386 16.9559 9.70077L16.8753 9.65421C16.1701 9.24552 15.4654 8.83652 14.761 8.42723L11.9424 6.79215C11.9159 6.77779 11.8892 6.76402 11.8638 6.75095C11.8446 6.74102 11.8261 6.73149 11.8091 6.72241ZM22.7395 8.02304L22.7531 8.02858L23.6369 8.78262L23.7415 8.90657C23.7581 8.89791 23.774 8.88997 23.7894 8.88231C23.8151 8.86951 23.8392 8.85748 23.8627 8.84414C24.3203 8.5802 24.778 8.31566 25.2356 8.05051C26.2677 7.45179 27.2996 6.85286 28.3312 6.25373C28.5955 6.10146 28.8598 5.94706 29.1232 5.79205C29.1304 5.78778 29.1382 5.7839 29.146 5.77999C29.1767 5.76466 29.2083 5.74888 29.2141 5.70739C28.9589 5.24022 27.9788 4.08206 27.6899 3.91061L26.8156 3.17179C26.7107 3.04998 26.3097 2.77376 25.8797 2.52221C25.4017 2.24264 24.9277 2.00937 24.7759 1.97891L24.7707 1.98204C24.7682 1.98341 24.7658 1.98476 24.7637 1.98653C24.7598 1.98943 24.7563 1.99292 24.7534 1.99688C24.7482 2.00501 24.7436 2.01357 24.7398 2.02246L22.7052 7.6342C22.6819 7.6988 22.6603 7.76415 22.6388 7.82951L22.6119 7.91073C22.6108 7.91544 22.6108 7.92033 22.6119 7.92504C22.613 7.93166 22.6146 7.93818 22.6167 7.94453C22.6432 7.98403 22.6879 8.00214 22.7395 8.02304ZM29.7845 15.8382C29.9057 15.7011 30.2188 14.9398 30.3497 14.5561C30.5013 14.1084 30.6019 13.7369 30.6043 13.5934L30.5851 13.5886L30.5618 13.5825C30.5307 13.5743 30.499 13.566 30.4679 13.5599C30.3855 13.5445 30.3028 13.5302 30.2201 13.5158L30.096 13.4941L28.2655 13.1707L26.2485 12.8153C26.0057 12.7728 25.765 12.7296 25.5247 12.6865L25.2902 12.6445L25.094 12.6096C24.8873 12.5728 24.6812 12.5361 24.4746 12.5004C24.4415 12.4977 24.4083 12.4977 24.3752 12.5004C24.3381 12.5493 24.3185 12.6093 24.3194 12.6707L23.7445 13.6537C23.6951 13.6842 23.6657 13.7317 23.6336 13.7865L23.6481 13.8074L23.6555 13.8184C23.6703 13.8404 23.6848 13.8617 23.7011 13.8812C25.0213 15.4597 26.3419 17.0379 27.6629 18.6156C27.676 18.6261 27.6904 18.6348 27.7057 18.6415H27.7072C28.16 18.2705 29.0501 17.197 29.2162 16.824L29.7845 15.8382ZM30.7964 10.0824C30.8441 10.2174 30.8577 10.3673 30.8837 10.9071C30.9062 11.4269 30.8686 12.2257 30.808 12.4584C30.7772 12.4622 30.7461 12.4629 30.7152 12.4605C30.5323 12.4301 30.3496 12.3978 30.167 12.3655L30.1003 12.3536L24.6683 11.3916C24.6494 11.3883 24.6308 11.3835 24.6122 11.3786L24.5852 11.3718C24.5621 11.3135 24.5597 11.249 24.5782 11.1891L24.3867 10.0669C24.3741 10.0526 24.3632 10.037 24.354 10.0203C24.3442 9.99514 24.3358 9.96956 24.3278 9.9452L24.3176 9.91459C24.3332 9.86759 24.3688 9.84932 24.4032 9.83163C24.4116 9.82731 24.42 9.82302 24.4279 9.81836L25.5854 9.14837L29.349 6.96818C29.397 6.94033 29.445 6.9122 29.493 6.88406C29.5579 6.84604 29.6228 6.80798 29.6881 6.77053C29.7112 6.75805 29.7357 6.74679 29.7594 6.73588L29.7884 6.72241C29.8687 6.81682 29.9242 6.92585 30.1021 7.35068C30.3212 7.86472 30.4937 8.39759 30.6173 8.94281L30.7964 10.0824ZM16.8074 1.96034C16.5296 2.07805 16.2581 2.21019 15.9939 2.35624C15.5845 2.57775 15.1916 2.82884 14.8183 3.10753C14.8007 3.12315 14.7845 3.14027 14.7698 3.1587L13.89 3.91182C13.5426 4.14875 12.5501 5.32945 12.3719 5.72444C12.384 5.73781 12.3975 5.74986 12.4122 5.76038C14.2155 6.81307 16.0205 7.86149 17.8272 8.90566C17.8794 8.87108 17.9212 8.82285 17.9482 8.76618L18.8253 8.02676C18.8851 8.01311 18.9386 7.97938 18.9768 7.93113L18.9663 7.89559C18.9578 7.86686 18.9493 7.83771 18.9392 7.80932C18.902 7.70445 18.8641 7.59997 18.8264 7.49556L18.7959 7.41128L18.26 5.9297C17.9596 5.10277 17.6591 4.27534 17.3587 3.4474C17.1932 2.99039 17.0276 2.53358 16.8619 2.07697C16.8534 2.05299 16.8419 2.0301 16.8284 2.00312C16.8218 1.99002 16.8148 1.97596 16.8074 1.96034ZM21.7307 7.04068L21.6893 7.15462C21.6517 7.25834 21.614 7.36209 21.5758 7.46551C21.5682 7.4858 21.5584 7.50542 21.5478 7.52656C21.5423 7.53748 21.5367 7.5488 21.531 7.56083L21.5001 7.5573C21.4789 7.55495 21.4591 7.55276 21.4431 7.54987C21.427 7.54697 21.4114 7.54281 21.3935 7.53805L21.3664 7.53099L20.2281 7.51637C20.176 7.54639 20.1168 7.56146 20.0568 7.55992C20.0437 7.54556 20.0324 7.5296 20.0232 7.51241C19.3079 5.54235 18.5936 3.57228 17.8732 1.58547C17.8935 1.57746 17.9111 1.57013 17.927 1.56349C17.9535 1.55248 17.9753 1.54336 17.998 1.53613C18.3503 1.42997 18.7093 1.34826 19.0727 1.29159C19.3156 1.25437 19.5595 1.22558 19.8033 1.1968L19.9516 1.17921C20.0297 1.16864 20.1328 1.1635 20.2153 1.17921L21.3507 1.17173C21.4035 1.1497 21.4672 1.15879 21.5236 1.16684C21.5362 1.16864 21.5485 1.17039 21.5601 1.17173L21.5807 1.17404L21.6676 1.18316C21.8987 1.20736 22.1298 1.23157 22.3593 1.2654C22.7379 1.3212 23.1125 1.40177 23.4807 1.50659C23.5272 1.51973 23.5733 1.53494 23.6213 1.55083C23.6446 1.55851 23.6683 1.56636 23.6928 1.5742C23.6908 1.60504 23.6859 1.63563 23.6783 1.66556L23.0527 3.39382L21.7307 7.04068Z" fill="#0C353E"/>
  <path d="M5.83128 24.3039C7.20159 24.3039 8.57179 24.3039 9.9419 24.3039C10.0144 24.3023 10.087 24.3064 10.1589 24.3161C10.3917 24.3529 10.5444 24.4881 10.6135 24.712C10.7153 25.0375 10.5377 25.3883 10.2219 25.4852C10.166 25.5004 10.1086 25.5096 10.0507 25.5126C9.99766 25.5171 9.94432 25.5147 9.89098 25.5147H1.74279C1.6653 25.516 1.5878 25.5131 1.51063 25.5059C1.39612 25.4962 1.28758 25.4504 1.2005 25.375C1.11342 25.2997 1.05225 25.1986 1.02571 25.0862C1.00091 24.9917 0.996057 24.8931 1.01147 24.7966C1.02673 24.6722 1.08349 24.5566 1.17248 24.4688C1.26147 24.3809 1.37746 24.3259 1.50154 24.3127C1.56883 24.3048 1.63657 24.3017 1.7043 24.3033C3.08046 24.3033 4.45612 24.3035 5.83128 24.3039Z" fill="#0C353E"/>
</svg>
