<svg width="24" height="24" viewBox="0 0 24 24" fill="none" xmlns="http://www.w3.org/2000/svg"> <g clip-path="url(#clip0)"> <path fill-rule="evenodd" clip-rule="evenodd" d="M16.9211 0L23.8 11.5768C23.928 11.7921 23.8571 12.0705 23.6418 12.1985C23.4264 12.3265 23.148 12.2556 23.02 12.0402L20.1011 7.12792L18.7454 8.80269L17.8584 7.25056L16.9364 8.86406L15.7718 7.11708L14.505 8.77975L13.4144 7.16231L12.853 8.03946C12.8494 8.04531 12.8458 8.05109 12.8419 8.05679L9.67524 13.0047C9.54018 13.2157 9.25963 13.2773 9.04861 13.1423C8.83759 13.0072 8.776 12.7267 8.91106 12.5156L11.9214 7.81194L11.4116 7.06775L10.2016 8.40989L9.24283 7.05158L8.02422 8.34635L6.77799 7.02224L5.63181 8.41404L4.65205 7.13282L1.58871 12.0484C1.4562 12.261 1.17641 12.326 0.963776 12.1935C0.751145 12.061 0.686194 11.7812 0.818703 11.5686L8.02277 0.00854846L11.8397 6.08731L12.4526 6.98198L16.9211 0ZM10.8938 6.2871L8.02567 1.71934L5.1649 6.30987L5.65813 6.95487L6.73257 5.65019L8.02422 7.02255L9.34346 5.62085L10.2881 6.95902L10.8938 6.2871ZM13.9472 6.32971L14.55 7.22362L15.8211 5.55535L16.877 7.13932L17.8584 5.42187L18.8749 7.20069L19.607 6.29634L16.8924 1.72789L13.9472 6.32971Z" fill="#0C353E"></path> <path fill-rule="evenodd" clip-rule="evenodd" d="M4.95418 13.1719L7.51309 16.2791C7.67236 16.4725 7.64469 16.7584 7.45129 16.9177C7.25789 17.0769 6.97199 17.0493 6.81272 16.8559L5.39592 15.1355V16.3697L7.47159 18.2971C7.65518 18.4676 7.66581 18.7546 7.49533 18.9382C7.32485 19.1218 7.03782 19.1324 6.85422 18.9619L5.39592 17.6078V18.4416L7.48368 20.5294C7.66084 20.7065 7.66084 20.9937 7.48368 21.1709C7.30652 21.3481 7.01929 21.3481 6.84213 21.1709L5.39592 19.7247V23.5466C5.39592 23.7972 5.19281 24.0003 4.94227 24.0003C4.69173 24.0003 4.48863 23.7972 4.48863 23.5466V19.6734L2.87255 21.1818C2.6894 21.3527 2.40234 21.3428 2.23139 21.1597C2.06044 20.9765 2.07034 20.6894 2.2535 20.5185L4.48863 18.4324V17.5609L2.86013 18.9723C2.6708 19.1364 2.3843 19.1159 2.22021 18.9266C2.05613 18.7373 2.07659 18.4508 2.26592 18.2867L4.48863 16.3603V15.0708L2.90318 16.8676C2.73742 17.0555 2.45075 17.0734 2.26289 16.9076C2.07502 16.7419 2.0571 16.4552 2.22287 16.2673L4.95418 13.1719Z" fill="#0C353E"></path> <path fill-rule="evenodd" clip-rule="evenodd" d="M12.6651 13.1719L15.224 16.2791C15.3833 16.4725 15.3556 16.7584 15.1622 16.9177C14.9688 17.0769 14.6829 17.0493 14.5237 16.8559L13.1069 15.1355V16.3697L15.1825 18.2971C15.3661 18.4676 15.3767 18.7546 15.2063 18.9382C15.0358 19.1218 14.7488 19.1324 14.5652 18.9619L13.1069 17.6078V18.4416L15.1946 20.5294C15.3718 20.7065 15.3718 20.9937 15.1946 21.1709C15.0175 21.3481 14.7302 21.3481 14.5531 21.1709L13.1069 19.7247V23.5466C13.1069 23.7972 12.9038 24.0003 12.6532 24.0003C12.4027 24.0003 12.1996 23.7972 12.1996 23.5466V19.6734L10.5835 21.1818C10.4003 21.3527 10.1133 21.3428 9.94232 21.1597C9.77138 20.9765 9.78128 20.6894 9.96443 20.5185L12.1996 18.4324V17.5609L10.5711 18.9723C10.3817 19.1364 10.0952 19.1159 9.93115 18.9266C9.76706 18.7373 9.78753 18.4508 9.97686 18.2867L12.1996 16.3603V15.0708L10.6141 16.8676C10.4484 17.0555 10.1617 17.0734 9.97382 16.9076C9.78596 16.7419 9.76804 16.4552 9.9338 16.2673L12.6651 13.1719Z" fill="#0C353E"></path> <path fill-rule="evenodd" clip-rule="evenodd" d="M20.38 13.1719L22.9389 16.2791C23.0981 16.4725 23.0705 16.7584 22.8771 16.9177C22.6837 17.0769 22.3978 17.0493 22.2385 16.8559L20.8217 15.1355V16.3697L22.8974 18.2971C23.081 18.4676 23.0916 18.7546 22.9211 18.9382C22.7506 19.1218 22.4636 19.1324 22.28 18.9619L20.8217 17.6078V18.4416L22.9095 20.5294C23.0866 20.7065 23.0866 20.9937 22.9095 21.1709C22.7323 21.3481 22.4451 21.3481 22.2679 21.1709L20.8217 19.7247V23.5466C20.8217 23.7972 20.6186 24.0003 20.3681 24.0003C20.1175 24.0003 19.9144 23.7972 19.9144 23.5466V19.6734L18.2983 21.1818C18.1152 21.3527 17.8281 21.3428 17.6572 21.1597C17.4862 20.9765 17.4961 20.6894 17.6793 20.5185L19.9144 18.4324V17.5609L18.2859 18.9723C18.0966 19.1364 17.8101 19.1159 17.646 18.9266C17.4819 18.7373 17.5024 18.4508 17.6917 18.2867L19.9144 16.3603V15.0708L18.329 16.8676C18.1632 17.0555 17.8765 17.0734 17.6887 16.9076C17.5008 16.7419 17.4829 16.4552 17.6486 16.2673L20.38 13.1719Z" fill="#0C353E"></path> </g> <defs> <clipPath id="clip0"> <rect width="24" height="24" fill="white"></rect> </clipPath> </defs> </svg>