<svg width="32" height="32" viewBox="0 0 32 32" fill="none" xmlns="http://www.w3.org/2000/svg">
  <path d="M15.0465 7.84498H15.6372C16.0017 7.84498 16.2971 7.54965 16.2971 7.18519C16.2971 6.82073 16.0017 6.52539 15.6372 6.52539H15.0465C14.6821 6.52539 14.3867 6.82073 14.3867 7.18519C14.3867 7.54965 14.6821 7.84498 15.0465 7.84498Z" fill="#0C353E"/>
  <path d="M17.6583 15.567C17.6583 15.2026 17.363 14.9072 16.9985 14.9072H15.8297C15.4653 14.9072 15.1699 15.2026 15.1699 15.567C15.1699 15.9315 15.4653 16.2268 15.8297 16.2268H16.9985C17.363 16.2268 17.6583 15.9315 17.6583 15.567Z" fill="#0C353E"/>
  <path d="M20.4689 15.567C20.4689 15.2026 20.1735 14.9072 19.8091 14.9072H18.6403C18.2758 14.9072 17.9805 15.2026 17.9805 15.567C17.9805 15.9315 18.2758 16.2268 18.6403 16.2268H19.8091C20.1735 16.2268 20.4689 15.9315 20.4689 15.567Z" fill="#0C353E"/>
  <path d="M9.58558 7.84498H10.7544C11.1188 7.84498 11.4142 7.54965 11.4142 7.18519C11.4142 6.82073 11.1188 6.52539 10.7544 6.52539H9.58558C9.22112 6.52539 8.92578 6.82073 8.92578 7.18519C8.92578 7.54965 9.22112 7.84498 9.58558 7.84498Z" fill="#0C353E"/>
  <path d="M11.5356 14.9072H10.3668C10.0024 14.9072 9.70703 15.2026 9.70703 15.567C9.70703 15.9315 10.0024 16.2268 10.3668 16.2268H11.5356C11.9001 16.2268 12.1954 15.9315 12.1954 15.567C12.1954 15.2026 11.9001 14.9072 11.5356 14.9072Z" fill="#0C353E"/>
  <path d="M1.32129 9.03226C1.44382 9.14851 1.60406 9.21135 1.77373 9.21135C1.95596 9.21135 2.12876 9.13595 2.25444 9.00399C2.48066 8.7652 2.74144 8.55469 3.02421 8.38503C3.33526 8.19651 3.4358 7.7912 3.24729 7.48015C3.15617 7.32934 3.01164 7.22252 2.84198 7.18167C2.66917 7.13454 2.49323 7.16282 2.34241 7.25393C1.95596 7.48958 1.60406 7.77235 1.29615 8.09597C1.0448 8.36303 1.05737 8.78091 1.32129 9.03226Z" fill="#0C353E"/>
  <path d="M25.3572 17.745C25.0147 17.8707 24.8387 18.2509 24.9644 18.5902C25.0775 18.8981 25.1435 19.2186 25.1655 19.5454C25.1875 19.891 25.4766 20.1643 25.8222 20.1643H25.863C26.039 20.1518 26.1992 20.0732 26.3154 19.9412C26.4317 19.8093 26.4914 19.6396 26.4788 19.4637C26.4506 19.0112 26.3563 18.5651 26.2023 18.1378C26.0767 17.7985 25.6965 17.6225 25.3572 17.745Z" fill="#0C353E"/>
  <path d="M25.9083 20.4156C25.5564 20.334 25.1982 20.5508 25.1134 20.9026C25.038 21.22 24.9154 21.5247 24.752 21.8107C24.6641 21.9646 24.6421 22.1406 24.6861 22.3102C24.73 22.4799 24.84 22.6213 24.994 22.7092C25.0945 22.7658 25.2076 22.7972 25.3207 22.7972C25.5564 22.7972 25.7763 22.6715 25.8926 22.4673C26.1188 22.0714 26.2884 21.6473 26.3921 21.2106C26.4801 20.8587 26.2602 20.5005 25.9083 20.4156Z" fill="#0C353E"/>
  <path d="M6.97461 15.567C6.97461 15.9315 7.26995 16.2268 7.63441 16.2268H8.80321C9.16767 16.2268 9.46301 15.9315 9.46301 15.567C9.46301 15.2026 9.16767 14.9072 8.80321 14.9072H7.63441C7.27309 14.9072 6.97461 15.2026 6.97461 15.567Z" fill="#0C353E"/>
  <path d="M24.2887 15.7181C23.984 15.5202 23.5755 15.6082 23.3776 15.9129C23.2833 16.0606 23.2488 16.2366 23.2865 16.4094C23.3242 16.5822 23.4247 16.7298 23.5724 16.8241C23.8489 17.0032 24.1034 17.22 24.3233 17.4651C24.449 17.6064 24.6281 17.6881 24.8166 17.6881C24.9768 17.6881 25.1339 17.6284 25.2533 17.5216C25.5267 17.2797 25.5486 16.8618 25.3099 16.5916C25.0145 16.2586 24.6689 15.9632 24.2887 15.7181Z" fill="#0C353E"/>
  <path d="M4.12998 7.92376C4.17082 7.92376 4.21167 7.92062 4.25565 7.91119C4.4913 7.8672 4.73637 7.84207 4.98144 7.84207H5.29563C5.66009 7.84207 5.95543 7.54673 5.95543 7.18226C5.95543 6.8178 5.66009 6.52246 5.29563 6.52246H4.98144C4.65468 6.52246 4.32478 6.55388 4.00744 6.61358C3.64926 6.6827 3.41362 7.02831 3.48274 7.38649C3.54244 7.69754 3.81264 7.92376 4.12998 7.92376Z" fill="#0C353E"/>
  <path d="M6.85512 7.84498H8.02391C8.38837 7.84498 8.68371 7.54965 8.68371 7.18519C8.68371 6.82073 8.38837 6.52539 8.02391 6.52539H6.85512C6.49065 6.52539 6.19531 6.82073 6.19531 7.18519C6.19531 7.54965 6.49065 7.84498 6.85512 7.84498Z" fill="#0C353E"/>
  <path d="M4.24424 15.5576C4.23796 15.9221 4.53016 16.2206 4.89462 16.2268H6.07598C6.44044 16.2268 6.73578 15.9315 6.73578 15.567C6.73578 15.2026 6.44044 14.9072 6.07598 14.9072H4.90404C4.54586 14.9072 4.25052 15.1994 4.24424 15.5576Z" fill="#0C353E"/>
  <path d="M1.96828 15.2466C2.32959 15.5105 2.72548 15.7273 3.14649 15.8876C3.2219 15.9158 3.30045 15.9315 3.38214 15.9315C3.65234 15.9315 3.90055 15.7619 3.99795 15.5074C4.06079 15.344 4.05765 15.1649 3.98538 15.0015C3.91312 14.8413 3.7843 14.7188 3.61778 14.6559C3.30673 14.5365 3.01453 14.3763 2.74747 14.1815C2.60608 14.0778 2.43328 14.0338 2.25733 14.0621C2.08138 14.0872 1.93057 14.1815 1.82375 14.326C1.6101 14.6182 1.67294 15.033 1.96828 15.2466Z" fill="#0C353E"/>
  <path d="M21.7682 23.6299C21.6865 23.6361 21.6048 23.6393 21.52 23.6393H20.6403C20.2758 23.6393 19.9805 23.9346 19.9805 24.2991C19.9805 24.6636 20.2758 24.9589 20.6403 24.9589H21.52C21.6331 24.9589 21.7431 24.9558 21.8531 24.9495C22.2175 24.9275 22.494 24.6133 22.4689 24.2488C22.4469 23.8875 22.1358 23.6016 21.7682 23.6299Z" fill="#0C353E"/>
  <path d="M1.84924 13.233C1.67015 12.9534 1.5319 12.6549 1.44079 12.3438C1.39051 12.1742 1.27741 12.0359 1.12345 11.9511C0.969497 11.8663 0.790408 11.8474 0.620744 11.8977C0.271991 12.0014 0.0740496 12.369 0.174591 12.7177C0.30341 13.1482 0.491925 13.5629 0.740137 13.9462C0.862672 14.1347 1.07004 14.2478 1.29626 14.2478C1.42193 14.2478 1.54447 14.2101 1.65444 14.1441C1.9592 13.9462 2.04718 13.5378 1.84924 13.233Z" fill="#0C353E"/>
  <path d="M19.0317 23.6426H17.8629C17.4985 23.6426 17.2031 23.9379 17.2031 24.3024C17.2031 24.6668 17.4985 24.9622 17.8629 24.9622H19.0317C19.3962 24.9622 19.6915 24.6668 19.6915 24.3024C19.6915 23.9379 19.3962 23.6426 19.0317 23.6426Z" fill="#0C353E"/>
  <path d="M12.3161 7.84498H13.4848C13.8493 7.84498 14.1447 7.54965 14.1447 7.18519C14.1447 6.82073 13.8493 6.52539 13.4848 6.52539H12.3161C11.9516 6.52539 11.6562 6.82073 11.6562 7.18519C11.6562 7.54965 11.9516 7.84498 12.3161 7.84498Z" fill="#0C353E"/>
  <path d="M17.2536 7.84498H18.4224C18.7869 7.84498 19.0822 7.54965 19.0822 7.18519C19.0822 6.82073 18.7869 6.52539 18.4224 6.52539H17.2536C16.8891 6.52539 16.5938 6.82073 16.5938 7.18519C16.5938 7.54965 16.8891 7.84498 17.2536 7.84498Z" fill="#0C353E"/>
  <path d="M23.8995 22.8094C23.6419 23.0199 23.3559 23.1927 23.0543 23.3247C22.7213 23.4723 22.5705 23.8619 22.715 24.195C22.8187 24.4338 23.0575 24.5877 23.3182 24.5877C23.4094 24.5877 23.4973 24.5689 23.5822 24.5312C23.9937 24.3489 24.3802 24.1133 24.729 23.8305C25.0117 23.6012 25.0557 23.1864 24.8264 22.9036C24.597 22.6209 24.1823 22.58 23.8995 22.8094Z" fill="#0C353E"/>
  <path d="M0.587208 11.6461C0.609201 11.6493 0.634337 11.6493 0.65633 11.6493C0.9988 11.6493 1.28157 11.3916 1.31299 11.0523C1.34441 10.7255 1.42296 10.4082 1.54549 10.1034C1.6806 9.76724 1.51722 9.38078 1.18103 9.24568C0.844846 9.11058 0.458389 9.27396 0.323287 9.61014C0.153623 10.0312 0.0436556 10.4742 0.00281061 10.9266C-0.012899 11.1026 0.0373718 11.2722 0.150481 11.4105C0.260448 11.5487 0.417544 11.6304 0.587208 11.6461Z" fill="#0C353E"/>
  <path d="M23.1461 15.8182C23.1838 15.6454 23.1524 15.4694 23.0581 15.3217C22.9639 15.1741 22.8162 15.0704 22.6434 15.0327C22.2758 14.951 21.8988 14.9102 21.5186 14.9102H21.3395C20.975 14.9102 20.6797 15.2055 20.6797 15.57C20.6797 15.9344 20.975 16.2298 21.3395 16.2298H21.5186C21.8014 16.2298 22.0841 16.2612 22.3575 16.3209C22.4046 16.3303 22.4549 16.3366 22.502 16.3366C22.8099 16.3334 23.0801 16.1167 23.1461 15.8182Z" fill="#0C353E"/>
  <path d="M14.9259 15.567C14.9259 15.2026 14.6306 14.9072 14.2661 14.9072H13.0973C12.7328 14.9072 12.4375 15.2026 12.4375 15.567C12.4375 15.9315 12.7328 16.2268 13.0973 16.2268H14.2661C14.6306 16.2268 14.9259 15.9315 14.9259 15.567Z" fill="#0C353E"/>
  <path d="M11.2571 18.1598C8.99822 18.1598 7.15975 19.9982 7.15975 22.2571C7.15975 25.2642 10.7441 29.0599 10.8961 29.2214C10.9887 29.3188 11.1217 29.3758 11.2571 29.3758H11.2619C11.3996 29.3758 11.5326 29.3165 11.6253 29.2143C11.7773 29.048 15.3568 25.117 15.3568 22.2571C15.3568 19.9982 13.5184 18.1598 11.2571 18.1598ZM14.3592 22.2571C14.3592 24.2357 12.1478 27.0599 11.2524 28.1241C10.3569 27.0932 8.15737 24.345 8.15737 22.2571C8.15737 20.5469 9.54928 19.155 11.2595 19.155C12.9697 19.155 14.3592 20.5469 14.3592 22.2571Z" fill="#0C353E"/>
  <path fill-rule="evenodd" clip-rule="evenodd" d="M10.7797 29.3309L10.7778 29.3289C10.6875 29.233 9.75398 28.2414 8.83882 26.8962C7.92195 25.5486 7 23.8128 7 22.2571C7 19.91 8.90999 18 11.2571 18C13.6065 18 15.5166 19.9099 15.5166 22.2571C15.5166 23.003 15.2839 23.8079 14.9416 24.5913C14.5985 25.3762 14.1409 26.1495 13.6807 26.8349C12.7614 28.204 11.8235 29.2343 11.7434 29.3218C11.6208 29.457 11.445 29.5356 11.2619 29.5356H11.2571C11.0782 29.5356 10.9027 29.4602 10.7797 29.3309ZM11.6253 29.2143C11.7773 29.048 15.3568 25.117 15.3568 22.2571C15.3568 19.9982 13.5184 18.1598 11.2571 18.1598C8.99822 18.1598 7.15975 19.9982 7.15975 22.2571C7.15975 25.2527 10.7167 29.0309 10.8942 29.2194L10.8961 29.2214C10.9887 29.3188 11.1217 29.3758 11.2571 29.3758H11.2619C11.3996 29.3758 11.5326 29.3165 11.6253 29.2143ZM13.0053 25.4501C13.6687 24.3661 14.1995 23.1985 14.1995 22.2571C14.1995 20.635 12.8813 19.3147 11.2595 19.3147C9.63751 19.3147 8.31712 20.6351 8.31712 22.2571C8.31712 23.2541 8.84602 24.4308 9.50516 25.5033C10.1038 26.4775 10.7961 27.3439 11.2505 27.877C11.7058 27.3271 12.4025 26.4353 13.0053 25.4501ZM11.3561 27.9999C12.3072 26.8537 14.3592 24.1631 14.3592 22.2571C14.3592 20.5469 12.9697 19.155 11.2595 19.155C9.54928 19.155 8.15737 20.5469 8.15737 22.2571C8.15737 24.267 10.1956 26.8888 11.1467 28.0015C11.1836 28.0446 11.2189 28.0856 11.2524 28.1241C11.2852 28.085 11.3199 28.0436 11.3561 27.9999Z" fill="#0C353E"/>
  <path d="M11.2552 20.3047C10.2766 20.3047 9.47852 21.1004 9.47852 22.0814C9.47852 23.06 10.2742 23.8581 11.2552 23.8581C12.2362 23.8581 13.0319 23.0624 13.0319 22.0814C13.0319 21.1028 12.2362 20.3047 11.2552 20.3047ZM12.0343 22.0814C12.0343 22.5113 11.6852 22.8605 11.2552 22.8605C10.8253 22.8605 10.4761 22.5113 10.4761 22.0814C10.4761 21.6515 10.8253 21.3023 11.2552 21.3023C11.6852 21.3023 12.0343 21.6515 12.0343 22.0814Z" fill="#0C353E"/>
  <path fill-rule="evenodd" clip-rule="evenodd" d="M9.31836 22.08C9.31836 21.0107 10.1881 20.1436 11.2548 20.1436C12.3242 20.1436 13.1913 21.0133 13.1913 22.08C13.1913 23.1492 12.324 24.0165 11.2548 24.0165C10.1855 24.0165 9.31836 23.1467 9.31836 22.08ZM11.2548 22.6994C11.5965 22.6994 11.8742 22.4217 11.8742 22.08C11.8742 21.7383 11.5965 21.4607 11.2548 21.4607C10.9131 21.4607 10.6355 21.7383 10.6355 22.08C10.6355 22.4217 10.9131 22.6994 11.2548 22.6994ZM9.47811 22.08C9.47811 21.099 10.2762 20.3033 11.2548 20.3033C12.2358 20.3033 13.0315 21.1014 13.0315 22.08C13.0315 23.061 12.2358 23.8567 11.2548 23.8567C10.2738 23.8567 9.47811 23.0586 9.47811 22.08ZM11.2548 22.8591C11.6847 22.8591 12.0339 22.5099 12.0339 22.08C12.0339 21.6501 11.6847 21.3009 11.2548 21.3009C10.8249 21.3009 10.4757 21.6501 10.4757 22.08C10.4757 22.5099 10.8249 22.8591 11.2548 22.8591Z" fill="#0C353E"/>
  <path d="M18.896 12.5897L18.8962 12.5893L21.548 7.72757C21.5576 7.70514 21.5693 7.68344 21.5834 7.66283L22.975 5.11149V2.22917C22.975 2.01982 23.1448 1.85 23.3542 1.85H26.1042C26.2572 1.85 26.3959 1.94224 26.4545 2.0842C26.5136 2.22617 26.4808 2.3892 26.3725 2.49748L26.3725 2.49751L25.7237 3.14587L26.372 3.79418C26.4804 3.90255 26.5132 4.06573 26.4539 4.20779L26.3155 4.15004M18.896 12.5897L29.773 13C29.8532 13 29.927 12.9577 29.9683 12.8882L30.0971 12.965C30.0971 12.965 30.0971 12.9649 30.0972 12.9649C30.166 12.8493 30.167 12.7074 30.1035 12.5912L30.1034 12.5911L27.6116 8.04574C27.5402 7.91525 27.4076 7.85616 27.2828 7.85017L27.2828 7.84975L27.2716 7.85005C27.1303 7.85384 27.0041 7.93648 26.9427 8.06256L26.9425 8.06307L26.1923 9.61997L25.1619 7.73079C25.1517 7.70617 25.1388 7.6824 25.1232 7.65995L23.7333 5.11178V4.44167H26.1042C26.2572 4.44167 26.3964 4.34935 26.4544 4.20652L26.3155 4.15004M18.896 12.5897C18.8325 12.7068 18.8346 12.8491 18.9029 12.9644C18.9713 13.0799 19.0956 13.1503 19.2291 13.1503H27.4791C27.4852 13.1503 27.4912 13.1501 27.4973 13.1499L18.896 12.5897ZM26.3155 4.15004C26.2806 4.23575 26.1968 4.29167 26.1042 4.29167H23.7333L25.6176 3.2519L26.266 3.90025C26.3315 3.96579 26.3512 4.06433 26.3155 4.15004ZM24.7196 8.50406L26.84 12.392H19.8677L21.9886 8.50367L22.3984 8.91347C22.3985 8.91356 22.3986 8.91366 22.3987 8.91375C22.4754 8.99109 22.5806 9.03302 22.6952 9.02391L22.6833 8.87438M24.7196 8.50406L24.3096 8.91399C24.2382 8.98543 24.1418 9.02484 24.0418 9.02484H24.041C24.0356 9.02485 24.0256 9.02485 24.0138 9.02394L24.0253 8.87438M24.7196 8.50406L24.6447 8.36679L24.2036 8.80793C24.1605 8.85101 24.1023 8.87484 24.0418 8.87484C24.0363 8.87484 24.0312 8.87484 24.0253 8.87438M24.7196 8.50406L23.8585 8.78318C23.8983 8.83634 23.9588 8.8698 24.0253 8.87438M24.0253 8.87438L24.015 9.02403C23.9043 9.01639 23.804 8.96061 23.7385 8.8732C23.7385 8.87319 23.7385 8.87318 23.7385 8.87318L23.3543 8.36119L22.9701 8.87318C22.904 8.96136 22.8032 9.01566 22.6947 9.02395L22.6833 8.87438M22.6833 8.87438C22.6141 8.87988 22.5517 8.85513 22.505 8.80793L22.8501 8.78318C22.8102 8.83634 22.7493 8.86934 22.6833 8.87438ZM22.3671 7.80981L23.3541 6.00038L24.3411 7.81016L24.0828 8.06851L23.6576 7.50152L23.6576 7.50151C23.5813 7.39973 23.463 7.35488 23.3541 7.35488C23.2453 7.35488 23.127 7.39968 23.0509 7.50161L23.0509 7.50152L23.171 7.59151L23.0507 7.50181L22.3671 7.80981ZM22.3671 7.80981L22.6258 8.06851M22.3671 7.80981L22.6258 8.06851M22.6258 8.06851L22.7329 8.17565L22.6258 8.06851ZM22.6258 8.06851L22.5349 8.18974L22.6258 8.06851ZM29.1349 12.3955H27.7062L26.6359 10.4331L27.286 9.06475L29.1349 12.3955ZM25.1888 3.68333H23.7333V2.60833H25.189L24.9196 2.87798C24.9196 2.87799 24.9196 2.87801 24.9196 2.87802C24.7717 3.02598 24.7717 3.26621 24.9196 3.41415L25.1888 3.68333Z" fill="#0C353E" stroke="#0C353E" stroke-width="0.3"/>
</svg>
