<svg width="24" height="24" viewBox="0 0 24 24" fill="none" xmlns="http://www.w3.org/2000/svg"> <path d="M21.4354 1.3913C20.4986 1.3913 19.6359 1.90145 19.1861 2.72696L18.778 3.47826H8.82087C8.55652 3.47826 8.34783 3.69159 8.34783 3.9513C8.34783 4.21101 8.56116 4.42435 8.82087 4.42435H18.2539L13.2777 13.5559C13.1988 13.7043 13.1988 13.8806 13.287 14.0243C13.3704 14.1681 13.5281 14.2562 13.6951 14.2562C16.1159 14.2562 18.0916 16.2272 18.0916 18.6528C18.0916 21.0783 16.1159 23.0493 13.6904 23.0493H6.52058C7.38783 22.3026 7.90725 21.1849 7.90725 20.0441V3.9513C7.90725 1.77159 6.13565 0 3.95594 0C1.77623 0 0 1.77159 0 3.9513V20.0441C0 22.2238 1.77159 23.9954 3.9513 23.9954H13.6904C16.0046 23.9954 18.0452 22.5159 18.7733 20.3084V20.2945C18.8012 20.2249 18.8522 20.0672 18.9913 19.6452L23.8748 4.74435C23.9583 4.48928 24 4.22029 24 3.94667C24 2.54145 22.8499 1.3913 21.4354 1.3913ZM21.4354 2.34203C22.3258 2.34203 23.0493 3.06551 23.0493 3.95594C23.0493 4.12754 23.0214 4.29913 22.9704 4.45681L18.8197 17.1316C18.5461 16.2041 18.0174 15.3646 17.2939 14.7061C16.5009 13.9826 15.5223 13.5188 14.4649 13.3658L20.0209 3.18145C20.3038 2.66203 20.8464 2.34203 21.4354 2.34203ZM3.9513 0.950725C5.60696 0.950725 6.95652 2.29565 6.95652 3.95594V17.4794C6.20985 16.6122 5.09217 16.0928 3.9513 16.0928C2.81043 16.0928 1.69275 16.6075 0.946087 17.4794V3.9513C0.950725 2.29565 2.29565 0.950725 3.9513 0.950725ZM3.9513 17.0435C5.60696 17.0435 6.95652 18.3884 6.95652 20.0487C6.95652 21.709 5.61159 23.0493 3.9513 23.0493C2.29101 23.0493 0.946087 21.7044 0.946087 20.0441C0.946087 18.3838 2.29565 17.0435 3.9513 17.0435Z" fill="#0C353E"></path> </svg>