<svg width="32" height="32" viewBox="0 0 32 32" fill="none" xmlns="http://www.w3.org/2000/svg"> <path d="M11.0851 24.3949C11.0851 24.0877 10.8803 23.8828 10.573 23.8828H1.66235C1.35508 23.8828 1.15024 24.0877 1.15024 24.3949C1.15024 24.7022 1.35508 24.9071 1.66235 24.9071H10.573C10.8803 24.9071 11.0851 24.651 11.0851 24.3949Z" fill="#0C353E"></path> <path fill-rule="evenodd" clip-rule="evenodd" d="M11.0341 23.9339C11.1507 24.0505 11.2121 24.2125 11.2121 24.3949C11.2121 24.7127 10.9585 25.034 10.573 25.034H1.66235C1.47986 25.034 1.31792 24.9727 1.20128 24.856C1.08464 24.7394 1.02326 24.5774 1.02326 24.3949C1.02326 24.2125 1.08464 24.0505 1.20128 23.9339C1.31792 23.8172 1.47986 23.7558 1.66235 23.7558H10.573C10.7555 23.7558 10.9175 23.8172 11.0341 23.9339ZM10.573 23.8828C10.8803 23.8828 11.0851 24.0877 11.0851 24.3949C11.0851 24.651 10.8803 24.9071 10.573 24.9071H1.66235C1.35508 24.9071 1.15024 24.7022 1.15024 24.3949C1.15024 24.0877 1.35508 23.8828 1.66235 23.8828H10.573Z" fill="#0C353E"></path> <path d="M6.11864 21.8303C6.11864 21.523 5.9138 21.3182 5.60654 21.3182H0.639093C0.331828 21.3182 0.126985 21.523 0.126985 21.8303C0.126985 22.1376 0.331828 22.3424 0.639093 22.3424H5.60654C5.9138 22.3424 6.11864 22.0863 6.11864 21.8303Z" fill="#0C353E"></path> <path fill-rule="evenodd" clip-rule="evenodd" d="M6.06761 21.3692C6.18424 21.4859 6.24563 21.6478 6.24563 21.8303C6.24563 22.1481 5.99204 22.4694 5.60654 22.4694H0.639093C0.456603 22.4694 0.294661 22.408 0.178023 22.2914C0.061384 22.1747 0 22.0128 0 21.8303C0 21.6478 0.061384 21.4859 0.178023 21.3692C0.294661 21.2526 0.456603 21.1912 0.639093 21.1912H5.60654C5.78902 21.1912 5.95097 21.2526 6.06761 21.3692ZM5.60654 21.3182C5.9138 21.3182 6.11864 21.523 6.11864 21.8303C6.11864 22.0863 5.9138 22.3424 5.60654 22.3424H0.639093C0.331828 22.3424 0.126985 22.1376 0.126985 21.8303C0.126985 21.523 0.331828 21.3182 0.639093 21.3182H5.60654Z" fill="#0C353E"></path> <path d="M31.5707 22.7012C31.417 22.394 31.1098 22.1379 30.8025 21.9843L26.9105 20.4992L25.3229 19.9358C24.8621 19.731 24.4524 19.4237 24.1963 19.0141L22.8648 16.812C23.1209 16.7608 23.2745 16.5559 23.2745 16.2999C23.2745 15.9926 23.0697 15.7878 22.7624 15.7878H22.2503L21.6358 14.7636C21.8918 14.7123 22.0455 14.5075 22.0455 14.2515C22.0455 13.9442 21.8406 13.7393 21.5333 13.7393H21.0212L20.5091 12.92C20.714 12.8688 20.8676 12.6639 20.8676 12.4591C20.8676 12.1518 20.6628 11.947 20.3555 11.947H19.8946L19.2289 10.8715C19.2289 10.8715 19.2289 10.8203 19.1777 10.8203C18.5631 10.1034 17.7438 9.7449 16.8732 9.84733C16.105 9.94975 15.4905 10.4106 15.2344 10.974C15.1832 11.1276 15.1832 11.2812 15.2856 11.4349L19.5361 18.7068C19.5873 18.8092 19.6898 18.9116 19.7922 18.9116L25.0157 20.9089H25.0669L26.6032 21.4722L30.444 22.9573C30.5464 23.0085 30.6489 23.0597 30.7001 23.2133C30.9049 23.623 30.9049 24.0327 30.6489 24.4424H22.3015C21.7894 24.4424 21.2773 24.2888 20.8676 23.9815L6.57981 13.3809C6.57981 13.3809 6.78465 13.2784 7.0407 12.92C7.29676 12.5615 7.39918 12.1006 7.39918 11.6397L6.93828 7.338L7.55281 6.365C7.70644 6.16015 8.01371 6.10894 8.21855 6.26257C8.37218 6.41621 8.98671 6.92831 10.4718 9.33522C11.24 10.4619 12.469 11.2812 13.8517 11.4861C14.1078 11.5373 14.4151 11.3324 14.4663 11.0764C14.5175 10.8203 14.3126 10.5131 14.0566 10.4619C12.9812 10.257 11.9569 9.64248 11.3424 8.72069C9.55003 5.95531 9.03792 5.54562 8.83308 5.39199C8.16734 4.93109 7.24555 5.08473 6.73344 5.75047L3.60958 10.7179C3.40474 11.0252 3.35353 11.3836 3.40474 11.7421C3.09747 11.8445 2.79021 11.9982 2.63658 12.3054L1.81721 13.5857C1.35631 14.2515 1.56115 15.1732 2.22689 15.6341C2.68779 15.9926 3.66079 16.6071 5.09469 17.5289C5.19712 17.5802 5.29954 17.6314 5.35075 17.6314C5.50438 17.6314 5.65801 17.5289 5.76043 17.3753C5.91407 17.1193 5.86286 16.812 5.6068 16.6584C4.22411 15.7366 3.25111 15.122 2.79021 14.7636C2.58537 14.6099 2.53416 14.3539 2.68779 14.0978L3.45595 12.92C3.60958 12.7151 3.91685 12.6639 4.12169 12.8176L20.2019 24.8009C20.8164 25.2618 21.5334 25.4666 22.2503 25.4666H29.3174C28.242 25.9787 26.7569 26.4396 25.4766 26.4396H22.1991C21.3285 26.4396 20.4579 26.1836 19.741 25.7227C16.7707 23.8279 9.65245 19.2701 5.6068 16.6584C5.35075 16.5047 5.04709 16.2869 4.72962 16.6475C4.41216 17.0081 4.83864 17.3753 5.09469 17.5289C9.03792 20.0895 15.9514 24.5448 18.9728 26.4908H0.640435C0.33317 26.4908 0.128327 26.6957 0.128327 27.0029C0.128327 27.3102 0.33317 27.515 0.640435 27.515H25.4254C27.525 27.515 30.5464 26.3884 31.3146 25.313C31.9803 24.3912 32.0316 23.5206 31.5707 22.7012ZM20.2531 18.0923L16.2586 11.2812C16.4123 11.1276 16.6683 10.974 16.9756 10.9228C17.2829 10.8715 17.8462 10.9228 18.3583 11.4861L18.6655 11.9982H18.2046C17.8974 11.9982 17.6925 12.203 17.6925 12.5103C17.6925 12.8176 17.8974 13.0224 18.2046 13.0224H19.2801L19.7922 13.8418H19.3825C19.0752 13.8418 18.8704 14.0466 18.8704 14.3539C18.8704 14.6611 19.0752 14.866 19.3825 14.866H20.4067L21.0212 15.839H20.6116C20.3043 15.839 20.0994 16.0438 20.0994 16.3511C20.0994 16.6584 20.3043 16.8632 20.6116 16.8632H21.6358L23.0697 19.1165L20.2531 18.0923ZM4.48017 11.2812L6.0677 8.7719L6.37496 11.7421C6.37496 11.947 6.32375 12.1518 6.22133 12.3054C6.11891 12.4591 5.91407 12.8688 5.45317 12.5103C5.45317 12.5103 5.19712 12.3567 4.73622 11.9982C4.42895 11.7421 4.37774 11.4861 4.48017 11.2812Z" fill="#0C353E"></path> <path fill-rule="evenodd" clip-rule="evenodd" d="M30.8025 21.9843C31.1098 22.1379 31.417 22.394 31.5707 22.7012C32.0316 23.5206 31.9803 24.3912 31.3146 25.313C30.5464 26.3884 27.525 27.515 25.4254 27.515H0.640435C0.33317 27.515 0.128327 27.3102 0.128327 27.0029C0.128327 26.6957 0.33317 26.4908 0.640435 26.4908H18.9728C18.9088 26.4496 18.8431 26.4073 18.7757 26.3638C15.7499 24.415 9.3391 20.2832 5.43641 17.7508C5.40772 17.7321 5.37917 17.7136 5.35075 17.6952C5.26409 17.6389 5.17872 17.5835 5.09469 17.5289C5.07047 17.5144 5.04473 17.498 5.01823 17.4798C4.86058 17.3785 4.70864 17.281 4.56249 17.1872C4.55275 17.1809 4.54304 17.1747 4.53336 17.1685C3.40468 16.4441 2.62487 15.9437 2.22689 15.6341C1.56115 15.1732 1.35631 14.2515 1.81721 13.5857L2.63658 12.3054C2.79021 11.9982 3.09747 11.8445 3.40474 11.7421C3.35353 11.3836 3.40474 11.0252 3.60958 10.7179L6.73344 5.75047C7.24555 5.08473 8.16734 4.93109 8.83308 5.39199C9.03792 5.54562 9.55003 5.95531 11.3424 8.72069C11.9569 9.64248 12.9812 10.257 14.0566 10.4619C14.3126 10.5131 14.5175 10.8203 14.4663 11.0764C14.4151 11.3324 14.1078 11.5373 13.8517 11.4861C12.469 11.2812 11.24 10.4619 10.4718 9.33522C9.09576 7.10505 8.46712 6.50163 8.26001 6.30282C8.2436 6.28707 8.22983 6.27385 8.21855 6.26257C8.01371 6.10894 7.70644 6.16015 7.55281 6.365L6.93828 7.338L7.39918 11.6397C7.39918 12.1006 7.29676 12.5615 7.0407 12.92C6.89986 13.1172 6.77451 13.2369 6.69022 13.3047C6.62128 13.3601 6.57981 13.3809 6.57981 13.3809L20.8676 23.9815C21.2773 24.2888 21.7894 24.4424 22.3015 24.4424H30.6489C30.9049 24.0327 30.9049 23.623 30.7001 23.2133C30.6489 23.0597 30.5464 23.0085 30.444 22.9573L26.6032 21.4722L25.0669 20.9089H25.0157L19.7922 18.9116C19.6898 18.9116 19.5873 18.8092 19.5361 18.7068L15.2856 11.4349C15.1832 11.2812 15.1832 11.1276 15.2344 10.974C15.4905 10.4106 16.105 9.94975 16.8732 9.84733C17.7438 9.7449 18.5631 10.1034 19.1777 10.8203C19.2289 10.8203 19.2289 10.8715 19.2289 10.8715L19.8946 11.947H20.3555C20.6628 11.947 20.8676 12.1518 20.8676 12.4591C20.8676 12.6219 20.7706 12.7847 20.6279 12.8704C20.591 12.8925 20.5512 12.9095 20.5091 12.92L21.0212 13.7393H21.5333C21.8406 13.7393 22.0455 13.9442 22.0455 14.2515C22.0455 14.463 21.9406 14.6396 21.7598 14.7234C21.7217 14.7411 21.6803 14.7547 21.6358 14.7636L22.2503 15.7878H22.7624C23.0697 15.7878 23.2745 15.9926 23.2745 16.2999C23.2745 16.5114 23.1697 16.6879 22.9889 16.7718C22.9509 16.7895 22.9094 16.8031 22.8648 16.812L24.1963 19.0141C24.4524 19.4237 24.8621 19.731 25.3229 19.9358L26.9105 20.4992L30.8025 21.9843ZM25.3701 19.8178L26.9558 20.3805L30.8537 21.8679L30.8593 21.8707C31.1817 22.0319 31.5128 22.3037 31.6828 22.6416C31.9231 23.0699 32.0325 23.5168 31.9916 23.9799C31.9508 24.4428 31.7607 24.9122 31.4177 25.3871C31.2111 25.6762 30.8614 25.9589 30.4314 26.2194C29.9991 26.4812 29.4763 26.7261 28.9137 26.9362C27.7901 27.356 26.4945 27.642 25.4254 27.642H0.640435C0.457945 27.642 0.296002 27.5806 0.179364 27.464C0.0627254 27.3474 0.00134155 27.1854 0.00134155 27.0029C0.00134155 26.8204 0.0627257 26.6585 0.179365 26.5419C0.296003 26.4252 0.457946 26.3638 0.640435 26.3638H18.5412C15.3593 24.3143 8.82051 20.0997 5.0274 17.6367C5.0025 17.6217 4.97577 17.6046 4.94803 17.5856C4.78049 17.478 4.61927 17.3745 4.46449 17.2752C3.34023 16.5537 2.55541 16.05 2.15167 15.7365C1.43604 15.2388 1.20982 14.2423 1.71146 13.5154L2.52613 12.2425C2.6861 11.928 2.98238 11.762 3.26691 11.656C3.23564 11.3082 3.29824 10.9568 3.50296 10.6489L6.62913 5.67779L6.63279 5.67304C7.18427 4.95612 8.18149 4.78644 8.90536 5.28758L8.90734 5.28896L8.90927 5.2904C9.1339 5.45888 9.65639 5.886 11.4485 8.65091C12.0419 9.54053 13.0343 10.1379 14.0803 10.3371L14.0815 10.3373C14.25 10.371 14.3915 10.4857 14.4823 10.6219C14.5731 10.7581 14.6245 10.9328 14.5908 11.1013C14.5571 11.2698 14.4424 11.4113 14.3063 11.5021C14.171 11.5923 13.9977 11.6436 13.8302 11.6112C12.4113 11.4001 11.1531 10.5599 10.3669 9.40675L10.3653 9.40436L10.3638 9.4019C9.62306 8.20146 9.1011 7.47622 8.74672 7.03325C8.44621 6.6576 8.2665 6.48507 8.17122 6.3936C8.15781 6.38073 8.14608 6.36946 8.13591 6.35946C7.99099 6.25662 7.77015 6.29123 7.65724 6.43746L7.06925 7.36843L7.52616 11.6329V11.6397C7.52616 12.1172 7.42035 12.6069 7.14403 12.9938C7.00995 13.1815 6.88759 13.3045 6.79626 13.3818L6.79528 13.3826L20.9438 23.8799C21.3293 24.169 21.814 24.3154 22.3015 24.3154H30.5765C30.7717 23.9665 30.7629 23.623 30.5865 23.2701L30.5825 23.2621L30.5796 23.2535C30.5467 23.1546 30.49 23.1224 30.3926 23.0735L26.5595 21.5914L26.5574 21.5906L25.0443 21.0358H24.9922L19.7655 19.0374C19.684 19.0297 19.6141 18.9884 19.5623 18.944C19.5047 18.8947 19.457 18.8312 19.4245 18.7675L15.1778 11.502C15.0509 11.3094 15.0538 11.1142 15.114 10.9338L15.1161 10.9275L15.1188 10.9214C15.3949 10.314 16.0497 9.82902 16.8564 9.72146L16.8583 9.7212C17.7636 9.61471 18.6117 9.98257 19.247 10.7065C19.2576 10.7107 19.2679 10.7161 19.2777 10.7227C19.3072 10.7424 19.3253 10.7677 19.336 10.7891C19.3426 10.8022 19.3468 10.8147 19.3496 10.8254L19.9653 11.82H20.3555C20.538 11.82 20.6999 11.8814 20.8166 11.998C20.9332 12.1146 20.9946 12.2766 20.9946 12.4591C20.9946 12.6656 20.875 12.8692 20.6952 12.9781L21.0916 13.6124H21.5333C21.7158 13.6124 21.8778 13.6737 21.9944 13.7904C22.1111 13.907 22.1724 14.069 22.1724 14.2515C22.1724 14.5054 22.0453 14.7254 21.8255 14.8329L22.3222 15.6608H22.7624C22.9449 15.6608 23.1068 15.7222 23.2235 15.8388C23.3401 15.9555 23.4015 16.1174 23.4015 16.2999C23.4015 16.5536 23.2745 16.7735 23.055 16.8811L24.304 18.9468L24.3045 18.9475C24.5428 19.3284 24.9275 19.6203 25.3701 19.8178ZM5.63741 16.6781C5.73657 16.7421 5.83755 16.8073 5.94024 16.8735C10.0329 19.5137 16.8507 23.8789 19.741 25.7227C20.4579 26.1836 21.3285 26.4396 22.1991 26.4396H25.4766C26.6499 26.4396 27.9953 26.0525 29.0398 25.5936C29.1349 25.5518 29.2276 25.5094 29.3174 25.4666H22.2503C21.5334 25.4666 20.8164 25.2618 20.2019 24.8009L4.12169 12.8176C3.91685 12.6639 3.60958 12.7151 3.45595 12.92L2.68779 14.0978C2.53416 14.3539 2.58537 14.6099 2.79021 14.7636C3.10465 15.0081 3.65744 15.3719 4.41606 15.871C4.62925 16.0113 4.85869 16.1623 5.10366 16.3243C5.26473 16.4309 5.43251 16.5422 5.6068 16.6584C5.61735 16.6647 5.62755 16.6713 5.63741 16.6781ZM5.70878 16.573C9.75979 19.188 16.8472 23.726 19.8093 25.6156L19.8096 25.6158C20.5059 26.0635 21.3526 26.3126 22.1991 26.3126H25.4766C26.5273 26.3126 27.726 25.9948 28.7136 25.5936H22.2503C21.5089 25.5936 20.7645 25.3816 20.1257 24.9025L4.0455 12.9191C3.90054 12.8104 3.6743 12.8441 3.55986 12.9931L2.79551 14.1651C2.73259 14.2708 2.71644 14.3679 2.72983 14.4482C2.74321 14.5285 2.78783 14.603 2.8664 14.662L2.86818 14.6633C3.17852 14.9047 3.72421 15.2638 4.47887 15.7603C4.83254 15.993 5.23211 16.256 5.67485 16.5511C5.68651 16.5582 5.69782 16.5655 5.70878 16.573ZM5.45317 12.5103C5.87937 12.8418 6.08662 12.5164 6.1964 12.3441C6.20533 12.33 6.21362 12.317 6.22133 12.3054C6.32375 12.1518 6.37496 11.947 6.37496 11.7421L6.0677 8.7719L4.48017 11.2812C4.37774 11.4861 4.42895 11.7421 4.73622 11.9982C5.19712 12.3567 5.45317 12.5103 5.45317 12.5103ZM4.81591 11.8993C5.04347 12.0762 5.22002 12.2023 5.33924 12.2839C5.39899 12.3247 5.44435 12.3545 5.47449 12.3738C5.48956 12.3834 5.50083 12.3905 5.5082 12.3951L5.51631 12.4001L5.51815 12.4012L5.5185 12.4014L5.52508 12.4053L5.53113 12.4101C5.63418 12.4902 5.71185 12.5187 5.76739 12.5249C5.82047 12.5309 5.86394 12.5178 5.90387 12.4925C5.9809 12.4439 6.03415 12.3611 6.08539 12.2815C6.09551 12.2658 6.10555 12.2502 6.11567 12.235C6.20012 12.1083 6.2469 11.9322 6.24796 11.7485L5.97909 9.14947L4.59115 11.3433C4.55641 11.4157 4.54814 11.4952 4.57565 11.5823C4.60455 11.6738 4.67586 11.7822 4.81591 11.8993ZM20.3395 17.9886L22.762 18.8695L21.5661 16.9902H20.6116C20.4291 16.9902 20.2671 16.9288 20.1505 16.8122C20.0338 16.6955 19.9725 16.5336 19.9725 16.3511C19.9725 16.1686 20.0338 16.0067 20.1505 15.89C20.2671 15.7734 20.4291 15.712 20.6116 15.712H20.7908L20.3367 14.993H19.3825C19.2 14.993 19.0381 14.9316 18.9214 14.8149C18.8048 14.6983 18.7434 14.5364 18.7434 14.3539C18.7434 14.1714 18.8048 14.0094 18.9214 13.8928C19.0381 13.7762 19.2 13.7148 19.3825 13.7148H19.5631L19.2097 13.1494H18.2046C18.0222 13.1494 17.8602 13.088 17.7436 12.9714C17.6269 12.8547 17.5656 12.6928 17.5656 12.5103C17.5656 12.3278 17.6269 12.1659 17.7436 12.0492C17.8602 11.9326 18.0222 11.8712 18.2046 11.8712H18.4413L18.256 11.5623C17.7788 11.0435 17.2651 11.0032 16.9965 11.048C16.7614 11.0872 16.5596 11.1927 16.4205 11.3062L20.3395 17.9886ZM16.2586 11.2812L20.2531 18.0923L23.0697 19.1165L21.6358 16.8632H20.6116C20.3043 16.8632 20.0994 16.6584 20.0994 16.3511C20.0994 16.0438 20.3043 15.839 20.6116 15.839H21.0212L20.4067 14.866H19.3825C19.0752 14.866 18.8704 14.6611 18.8704 14.3539C18.8704 14.0466 19.0752 13.8418 19.3825 13.8418H19.7922L19.2801 13.0224H18.2046C17.8974 13.0224 17.6925 12.8176 17.6925 12.5103C17.6925 12.203 17.8974 11.9982 18.2046 11.9982H18.6655L18.3583 11.4861C17.8462 10.9228 17.2829 10.8715 16.9756 10.9228C16.6683 10.974 16.4123 11.1276 16.2586 11.2812Z" fill="#0C353E"></path> </svg>