<svg width="32" height="32" viewBox="0 0 32 32" fill="none" xmlns="http://www.w3.org/2000/svg">
  <g clip-path="url(#clip0)">
    <path d="M32.0437 15.034C32.0437 14.4166 31.6423 14.25 31.0438 14.25C30.4454 14.25 30.4751 14.4166 30.4751 15.034L30.5199 19.5059C30.5199 20.1233 30.4454 20.25 31.0438 20.25C31.6423 20.25 32.0437 20.1233 32.0437 19.5059V15.034Z" fill="#0C353E"/>
    <path d="M1 13.2781C1 12.6607 1.40143 12.4941 1.99989 12.4941C2.59834 12.4941 2.56861 12.6607 2.56861 13.2781L2.5238 17.75C2.5238 18.3674 2.59834 18.4941 1.99989 18.4941C1.40143 18.4941 1 18.3674 1 17.75V13.2781Z" fill="#0C353E"/>
    <path d="M11.3686 14.9696L12.84 11.404C12.9395 11.1866 13.1517 11.0478 13.3848 11.0478C13.6259 11.0478 13.8438 11.1962 13.9386 11.4249L15.8058 16.75L17.8293 11.1075C17.9273 10.8734 18.1507 10.7219 18.3978 10.7219H18.4817C18.7472 10.7219 18.9831 10.8965 19.0682 11.156L20.7963 16.75H24.4323H28.0684L28.122 12.7225C28.122 12.105 28.4137 12.25 29.0121 12.25C29.6106 12.25 29.52 12.6326 29.52 13.25V21.25C29.52 21.8674 29.6106 22.25 29.0121 22.25C28.4137 22.25 28.122 22.3593 28.122 21.7418V17.8793H20.1346C19.8595 17.8793 19.6455 17.5224 19.5684 17.25L18.3978 12.75L16.5903 18.3128C16.4945 18.5516 16.2687 18.7074 16.0182 18.7074H15.6114C15.3547 18.7074 15.1246 18.5439 15.033 18.2965L13.3848 13.1009L12.5684 15.75C12.4735 15.9908 11.9943 16.25 11.7424 16.25H5.09586V20.1447C5.06836 20.75 4.56836 20.75 4.63127 20.75C4.50843 20.75 3.6154 20.7622 3.6154 20.1447V11.201C3.6154 10.5836 3.6154 10.25 4.63127 10.25C5.09586 10.25 5.06836 10.6326 5.06836 11.25L5.09586 14.9696H11.3686Z" fill="#0C353E"/>
    <path fill-rule="evenodd" clip-rule="evenodd" d="M7.42887 12.6591C7.42887 9.65727 9.87362 7 12.7074 7C14.3137 7.00252 15.8244 7.74436 16.8217 9.00271C17.7672 7.80976 19.1737 7.08102 20.686 7.00635V7H20.936C23.7698 7 26.2145 9.65727 26.2145 12.6591C26.2145 15.5637 24.5985 18.5181 21.6089 21.209C20.2248 22.4533 18.7062 23.5354 17.0827 24.4343L17.0774 24.4372C16.9171 24.521 16.7264 24.5209 16.566 24.4372L16.5607 24.4344C14.9366 23.5355 13.4177 22.4536 12.0332 21.2092C9.04507 18.5183 7.42887 15.5636 7.42887 12.6591ZM12.7072 8.11819C10.5097 8.11833 8.53839 10.2257 8.53839 12.6591C8.53839 15.5189 10.3304 18.0331 12.3084 19.9317C14.1559 21.705 16.1273 22.9044 16.8217 23.3022C17.5161 22.9044 19.4875 21.705 21.335 19.9317C23.313 18.0331 25.105 15.5189 25.105 12.6591C25.105 10.2257 23.1337 8.11832 20.9362 8.11819C19.4331 8.12097 18.0458 8.94338 17.3057 10.2742L17.3017 10.2814L17.2972 10.2883C17.193 10.4498 17.0145 10.5482 16.8217 10.5482C16.6289 10.5482 16.4504 10.4498 16.3462 10.2883L16.3417 10.2814L16.3377 10.2742C15.5976 8.94338 14.2102 8.12097 12.7072 8.11819Z" fill="#0C353E"/>
  </g>
  <defs>
    <clipPath id="clip0">
      <rect width="32" height="32" fill="white"/>
    </clipPath>
  </defs>
</svg>
