<svg width="32" height="32" viewBox="0 0 32 32" fill="none" xmlns="http://www.w3.org/2000/svg"> <path d="M30.2569 12.8962C29.7478 12.4002 29.1669 12.0021 28.5208 11.7149C28.3381 10.4749 27.7377 9.30671 26.8436 8.42565C25.4078 7.02248 23.3846 6.42858 21.4267 6.83974C21.1265 6.17405 20.7153 5.58015 20.1932 5.06457C18.7248 3.63529 16.6559 3.04792 14.6588 3.49824C12.2571 4.05951 10.4363 6.07616 10.1165 8.52354C9.0331 7.82522 7.58425 7.9688 6.6575 8.87597C6.05055 9.47639 5.76339 10.3444 5.88739 11.1863C4.58212 11.1928 3.29642 11.6431 2.27178 12.4394C1.21451 13.2617 0.457454 14.4364 0.144188 15.7417C-0.299605 17.7257 0.294294 19.7619 1.74315 21.1847C2.85916 22.2877 4.34064 22.9011 5.9135 22.9011H7.04909C7.40151 22.9011 7.68867 22.614 7.68867 22.2615C7.68867 21.9091 7.40151 21.622 7.04909 21.622H5.9135C4.68001 21.622 3.51179 21.1455 2.63073 20.2775C1.49515 19.1615 1.02525 17.5691 1.37767 16.0158C1.89325 13.9209 3.7598 12.4524 5.92002 12.4524C5.94613 12.4524 5.96571 12.4524 5.99181 12.4524H6.76845C7.12088 12.4524 7.40151 12.1653 7.40151 11.8194C7.40151 11.7084 7.3754 11.5975 7.31667 11.4996C6.99687 10.9383 7.09477 10.2269 7.55162 9.77661C8.13899 9.20229 9.06573 9.20229 9.65963 9.77661L10.2535 10.364C10.3775 10.488 10.5407 10.5532 10.7039 10.5467C10.8735 10.5467 11.0302 10.4749 11.1542 10.3575C11.2716 10.24 11.3369 10.0768 11.3369 9.91366V9.35892C11.3239 8.30165 11.6763 7.25743 12.3289 6.42205C12.9816 5.58668 13.9083 4.99278 14.9329 4.74478C16.5123 4.38583 18.1439 4.8492 19.2991 5.97173C19.8147 6.48079 20.2062 7.11385 20.4347 7.79912C20.5456 8.12543 20.898 8.30817 21.2309 8.20375C22.8951 7.68164 24.7094 8.11238 25.956 9.33281C26.7261 10.0833 27.2025 11.0884 27.2939 12.1587C27.2939 12.4198 27.457 12.6613 27.705 12.7526C28.3316 12.9811 28.8863 13.3335 29.3627 13.7969C30.4983 14.9129 30.9617 16.5053 30.6158 18.0586C30.1002 20.1535 28.2337 21.622 26.0734 21.622C26.0539 21.622 26.0343 21.622 26.0082 21.622H24.7943C24.4419 21.622 24.1547 21.9091 24.1547 22.2615C24.1547 22.614 24.4419 22.9011 24.7943 22.9011H26.0017C26.0212 22.9011 26.0408 22.9011 26.0669 22.9011C27.3852 22.9011 28.684 22.4573 29.7282 21.6481C30.7855 20.8257 31.5425 19.651 31.8558 18.3457C32.2996 16.3552 31.7057 14.319 30.2569 12.8962Z" fill="#0C353E"></path> <path d="M15.2982 19.6966L10.5992 15.5198C10.3577 15.3044 9.99227 15.3044 9.75079 15.5198L5.05181 19.6966C4.92781 19.8076 4.84949 19.9642 4.83644 20.1339C4.82339 20.3036 4.88212 20.4667 4.99307 20.5907C5.11055 20.7278 5.28676 20.8061 5.4695 20.8061H7.96257V26.954C7.96257 27.3064 8.24973 27.5935 8.60215 27.5935H11.7348C12.0872 27.5935 12.3744 27.3064 12.3744 26.954V20.8061H14.874C15.0437 20.8061 15.2068 20.7408 15.3243 20.6168C15.4418 20.4994 15.5136 20.3362 15.5136 20.1665C15.5136 19.9903 15.4353 19.8206 15.2982 19.6966ZM8.60868 19.54H7.14677L10.175 16.8511L13.2032 19.54H11.7413C11.3889 19.54 11.1018 19.8272 11.1018 20.1731V26.3209H9.24174V20.1731C9.24826 19.8206 8.9611 19.54 8.60868 19.54Z" fill="#0C353E"></path> <path d="M26.3606 23.1948H23.861V17.047C23.861 16.6946 23.5738 16.4074 23.2214 16.4074H20.0887C19.7363 16.4074 19.4491 16.6946 19.4491 17.047V23.1948H16.9626C16.7929 23.1948 16.6297 23.2601 16.5123 23.3841C16.3948 23.5016 16.323 23.6647 16.323 23.8344C16.323 24.0172 16.4013 24.1868 16.5384 24.3108L21.2374 28.4877C21.3548 28.5922 21.5049 28.6509 21.6616 28.6509C21.8182 28.6509 21.9683 28.5922 22.0858 28.4877L26.7848 24.3108C26.9088 24.1999 26.9871 24.0433 27.0001 23.8736C27.0132 23.7039 26.9545 23.5407 26.837 23.4167C26.7195 23.2666 26.5433 23.1948 26.3606 23.1948ZM23.2279 24.4675H24.6898L21.6616 27.1564L18.6333 24.4675H20.0952C20.4477 24.4675 20.7348 24.1803 20.7348 23.8279V17.68H22.5948V23.8279C22.5948 24.1803 22.882 24.4675 23.2279 24.4675Z" fill="#0C353E"></path> </svg>