<svg width="32" height="32" viewBox="0 0 32 32" fill="none" xmlns="http://www.w3.org/2000/svg"> <path d="M14.2056 18.3343C14.0925 18.0527 13.7935 17.8932 13.4966 17.956L5.63057 19.6181C5.46632 19.6529 5.32295 19.7522 5.23276 19.8937C5.14251 20.0353 5.11301 20.2072 5.15088 20.3708C5.47638 21.7747 5.82107 22.9739 6.44545 24.2632C6.98807 25.3836 7.85488 26.2202 8.88632 26.619C9.35463 26.8001 9.8452 26.8904 10.3479 26.8904C11.0389 26.8904 11.7528 26.7199 12.4639 26.3807C13.7794 25.7531 14.6026 24.5389 14.8445 22.8693C15.0468 21.4732 14.8199 19.8627 14.2056 18.3343ZM11.9258 25.2525C10.1433 26.1028 8.43363 25.5008 7.57045 23.7183C7.08838 22.723 6.78432 21.7711 6.51763 20.7082L13.2265 19.2905C14.0205 21.6527 13.8376 24.3405 11.9258 25.2525Z" fill="#0C353E"></path> <path d="M14.0451 4.85117C13.243 2.41911 11.0188 -0.135706 8.03489 0.00560678C6.14902 0.0941068 4.56902 1.08104 3.46558 2.85973C1.60608 5.85686 1.48796 10.4907 3.15146 14.4629C3.16008 14.4877 3.17039 14.5121 3.18233 14.5361C3.20364 14.5863 3.22402 14.6369 3.24589 14.6868C3.62714 15.5561 4.04564 17.0831 4.20314 17.658C4.27883 17.9342 4.52952 18.1179 4.80545 18.1179C4.84827 18.1179 4.89171 18.1134 4.93514 18.1042L13.7878 16.2336C14.0547 16.1772 14.2541 15.9542 14.2806 15.6827L14.3155 15.3232C14.4198 14.2456 14.5627 12.7698 14.6878 12.0542C15.0524 9.96767 14.8002 7.14029 14.0451 4.85117ZM4.52764 3.51867C5.13902 2.53323 6.25389 1.34054 8.09352 1.25417C8.14896 1.25154 8.20389 1.25029 8.25883 1.25029C9.72902 1.25029 11.0244 2.17267 11.9101 3.39673L10.6743 4.33623C10.5236 4.45111 10.3315 4.49179 10.147 4.44804L8.59577 4.07848C8.0452 3.94673 7.47083 4.06798 7.02021 4.41111L5.75052 5.37673C5.59983 5.49161 5.40727 5.53211 5.22246 5.48804L3.77846 5.14404C3.97445 4.55536 4.22395 4.00817 4.52764 3.51867ZM13.0807 15.1053L5.2507 16.7599C5.02945 15.9779 4.77046 15.1264 4.50571 14.4611L4.54121 14.434C4.69246 14.3191 4.88546 14.2785 5.06977 14.3222L6.62127 14.6923C7.17202 14.8227 7.74552 14.7015 8.19564 14.3592L9.46402 13.3939C9.61564 13.2788 9.80864 13.2379 9.99314 13.2818L11.5452 13.6515C12.0953 13.7824 12.669 13.6612 13.1194 13.3188L13.2748 13.2006C13.2061 13.8146 13.1398 14.4946 13.0807 15.1053ZM13.5154 11.4472L12.3628 12.324C12.2116 12.4389 12.0191 12.4794 11.8347 12.4357L10.2826 12.0659C9.73258 11.9352 9.15889 12.0564 8.70783 12.3989L7.43914 13.3645C7.28795 13.4794 7.09502 13.5201 6.91052 13.4764L5.35902 13.1062C4.90602 12.9989 4.43727 13.0624 4.03446 13.279C3.73521 12.4306 3.52027 11.5525 3.39102 10.6736L3.69746 10.4403C3.84864 10.3254 4.04171 10.2846 4.22602 10.3284L5.77746 10.6985C6.32821 10.8291 6.9017 10.7077 7.35183 10.3655L8.62014 9.40023C8.77195 9.28511 8.96502 9.24436 9.14933 9.28811L9.82858 9.44992C10.1643 9.52998 10.5015 9.32261 10.5814 8.98679C10.6614 8.65104 10.4541 8.31392 10.1183 8.23398L9.4387 8.07204C8.88908 7.94142 8.31514 8.06254 7.86396 8.40504L6.59527 9.37061C6.44402 9.48548 6.25108 9.52623 6.06664 9.48248L4.5152 9.11236C4.08639 9.01073 3.64364 9.06261 3.25596 9.25198C3.21264 8.24992 3.28189 7.26911 3.46208 6.35361L4.93258 6.70392C5.07833 6.73867 5.22558 6.75579 5.37183 6.75579C5.77871 6.75579 6.17702 6.62342 6.50783 6.37123L7.7772 5.40579C7.92839 5.29073 8.12064 5.25004 8.30558 5.29423L9.8577 5.66398C10.4083 5.79486 10.9823 5.67329 11.4315 5.33079L12.5515 4.47936C12.6708 4.73067 12.7738 4.98642 12.8583 5.24267C13.5067 7.20936 13.7545 9.59429 13.5154 11.4472Z" fill="#0C353E"></path> <path d="M28.4718 24.1905C28.3593 24.0659 28.2014 23.9918 28.0337 23.9848L20.0009 23.652C19.7006 23.6388 19.4292 23.8464 19.3644 24.1428C19.0125 25.7518 19.0562 27.3778 19.4875 28.7209C20.0032 30.3271 21.0166 31.3878 22.4181 31.7882C22.9118 31.9293 23.3949 31.9994 23.86 31.9994C24.6279 31.9994 25.3472 31.8082 25.9857 31.4291C26.9366 30.8645 27.6524 29.8955 28.0014 28.7006C28.4031 27.3257 28.5439 26.0858 28.6316 24.6473C28.6419 24.4797 28.5843 24.3151 28.4718 24.1905ZM26.8016 28.3502C26.2464 30.2511 24.6602 31.1289 22.7615 30.5863C20.7247 30.0045 20.0981 27.3844 20.4888 24.9231L27.3399 25.2071C27.2536 26.2995 27.1117 27.2888 26.8016 28.3502Z" fill="#0C353E"></path> <path d="M27.3867 7.09962C26.0032 5.52899 24.2812 4.81799 22.4068 5.04393C19.44 5.40143 17.6719 8.2888 17.2847 10.8203C16.9202 13.2031 17.141 16.0331 17.8472 18.03C18.0892 18.7146 18.4751 20.1456 18.7568 21.1904L18.8513 21.5406C18.9225 21.8039 19.1562 21.9906 19.4287 22.0019L28.4691 22.3765C28.4779 22.3769 28.4866 22.3771 28.4953 22.3771C28.8144 22.3771 29.0844 22.1352 29.1167 21.8149C29.1767 21.2216 29.3359 19.6459 29.5673 18.726C29.5806 18.6732 29.5922 18.6201 29.6049 18.5672C29.6129 18.5414 29.619 18.5154 29.6234 18.4892C30.604 14.2961 29.7181 9.7463 27.3867 7.09962ZM22.5565 6.28487C24.3844 6.06449 25.6823 7.05568 26.4488 7.9258C26.8296 8.35812 27.1664 8.85624 27.4577 9.40405L26.0906 9.98312C25.9158 10.0574 25.7192 10.0492 25.5509 9.96062L24.1395 9.21974C23.6377 8.95612 23.0513 8.93187 22.5309 9.15299L21.0621 9.77518C20.8875 9.84918 20.691 9.84093 20.5227 9.75224L19.1485 9.03124C19.8436 7.62668 21.0275 6.46912 22.5565 6.28487ZM27.9348 21.1033L19.9386 20.7719C19.7789 20.1797 19.6006 19.5201 19.4308 18.9261L19.6039 19.0169C20.1047 19.2796 20.6905 19.3038 21.2115 19.0834L22.6801 18.4612C22.8548 18.3873 23.052 18.3954 23.22 18.4835L24.6321 19.2253C24.9059 19.3689 25.2052 19.4412 25.5057 19.4412C25.7544 19.4412 26.0041 19.3916 26.2406 19.2917L27.7075 18.6697C27.8831 18.5957 28.0799 18.6038 28.2477 18.6917L28.2876 18.7127C28.1372 19.4124 28.0232 20.2952 27.9348 21.1033ZM28.5557 17.4687C28.1228 17.322 27.6499 17.3372 27.2203 17.5186L25.7534 18.1406C25.5778 18.2147 25.3809 18.2066 25.2131 18.1186L23.8006 17.3766C23.2995 17.1141 22.7135 17.0899 22.1928 17.3102L20.7241 17.9324C20.5493 18.0064 20.3527 17.9982 20.1848 17.9102L18.9024 17.2368C18.359 15.4494 18.2072 13.0564 18.5203 11.0094C18.5611 10.7426 18.62 10.4732 18.6959 10.2056L19.941 10.8589C20.4417 11.1225 21.028 11.1471 21.5493 10.9264L23.0188 10.3039C23.1931 10.2298 23.3896 10.238 23.5581 10.3266L24.9691 11.0672C25.2433 11.2115 25.5429 11.2841 25.8435 11.2841C26.0924 11.2841 26.342 11.2343 26.5782 11.1342L27.9703 10.5444C28.3 11.4172 28.5312 12.3729 28.6549 13.3683C28.2412 13.2459 27.7958 13.2684 27.3891 13.4401L25.9222 14.0621C25.7466 14.1362 25.5498 14.1281 25.3819 14.0401L23.9695 13.2981C23.4681 13.0356 22.8822 13.0114 22.3616 13.2317L21.7186 13.5041C21.4008 13.6387 21.2523 14.0055 21.3869 14.3234C21.5215 14.6412 21.8884 14.7898 22.2061 14.6551L22.8488 14.3828C23.0238 14.3089 23.2208 14.3171 23.3888 14.4051L24.8009 15.1469C25.0747 15.2905 25.3739 15.3628 25.6744 15.3628C25.9232 15.3628 26.1729 15.3132 26.4093 15.2133L27.8762 14.5914C28.0516 14.5173 28.2487 14.5254 28.4164 14.6134L28.7577 14.7927C28.7761 15.6808 28.7099 16.5824 28.5557 17.4687Z" fill="#0C353E"></path> </svg>